<?xml version="1.0" encoding="UTF-8"?>
<svg width="41px" height="40px" viewBox="0 0 41 40" version="1.1" xmlns="http://www.w3.org/2000/svg" xmlns:xlink="http://www.w3.org/1999/xlink">
    <title>编组备份 3</title>
    <defs>
        <polygon id="path-1" points="0 0 13.2551786 0 13.2551786 14.7077275 0 14.7077275"></polygon>
        <polygon id="path-3" points="0 0 11.0377638 0 11.0377638 7.95649571 0 7.95649571"></polygon>
    </defs>
    <g id="页面-1" stroke="none" stroke-width="1" fill="none" fill-rule="evenodd">
        <g id="launchpad-My-Reward--" transform="translate(-257.000000, -867.000000)">
            <g id="编组" transform="translate(257.000000, 866.999959)">
                <path d="M1.49014614,37.686893 C3.47374507,40.7222497 12.066253,39.6910857 20.6526518,39.885987 C28.5617241,40.065714 35.2648321,40.2338139 37.787415,38.7153966 C40.6304322,37.0047384 40.4557305,25.4188495 40.0560744,17.9592918 C39.7151448,11.6114993 39.9412816,5.91098028 38.6001279,3.231826 C37.1572866,0.344960898 29.1600259,0.0918256523 20.7126593,0.00797275453 C12.1076375,-0.0773581614 3.35195637,0.515819799 1.81590135,2.09897433 C-0.299930937,4.27974088 0.660091134,11.1533137 0.505588968,17.5019929 C0.325172216,24.9756411 -0.981001712,33.9056298 1.49014614,37.686893" id="Fill-1" fill="#DDD8CA"></path>
                <g id="Swap备份" transform="translate(9.000000, 7.000000)">
                    <path d="M21.8154952,12.0976013 C21.8958528,11.0124742 21.9600183,9.55181502 21.5204146,8.22500191 C20.8158016,6.09742185 19.3727831,4.25671216 17.7309322,2.70287284 C17.6354886,2.61250416 15.7822337,0.810251361 15.3418254,0.656524188 C14.7721811,0.457512263 13.4236005,0.0735457639 12.4308464,0.0338839524 C11.3659817,-0.00879014853 8.48678368,0.77621249 6.98975761,2.06025109 C5.17944729,3.6129859 4.81326174,4.37951316 4.14807326,5.23239273 C2.72667794,7.05462704 5.19855612,10.4990797 5.33241851,10.6705793 C5.45159727,10.8231016 6.42755568,11.618346 6.54673445,11.7707679 C6.91965837,12.2482157 7.08238516,9.73968147 7.16958177,9.21524188 C7.18386311,9.12929122 7.20427939,9.04715612 7.22731056,8.96642676 C7.64277678,8.73980219 9.05139935,7.99104743 9.41476887,7.98903924 C10.2090928,7.98482203 11.0087471,8.07649604 11.78708,8.23042403 C13.3274529,8.53506691 14.8099965,9.14877069 16.1164371,10.017515 C16.2605579,10.1134062 17.1066769,10.7023088 17.3417155,10.9964086 C17.6953294,11.438914 18.0188721,11.9046139 18.32401,12.3814593 C18.441479,12.5648074 18.4095974,13.892725 18.3858623,14.061112 C18.3808336,14.0969582 17.8997939,14.688371 17.7162486,14.8700121 C17.5624728,15.0222331 17.6260348,15.3316957 17.791477,15.4476688 C17.9943324,15.5898489 18.6806411,15.221245 18.6080276,15.2394192 C18.7198645,15.2115053 18.82617,15.1506571 18.8954646,15.0638027 C19.0531628,15.0835834 19.6422176,14.7949057 19.7041705,14.7876762 C19.8613657,14.7693012 20.0425979,14.6754182 20.1351249,14.5438816 C20.1468919,14.5271131 21.7360427,13.169173 21.8154952,12.0976013" id="Fill-1" fill="#D85145"></path>
                    <path d="M17.4718165,14.802095 C17.100904,15.037154 16.733411,15.1933914 16.3691363,15.289383 C16.285158,15.3111719 16.2016826,15.3299485 16.1186095,15.345512 C14.462779,15.6582881 12.8608555,14.7859291 11.2166914,14.3512557 C10.016858,14.034162 8.78142174,13.4382307 7.78957283,12.7248202 C7.28298766,12.3596303 6.82326941,11.9742581 6.69584367,11.3324396 C6.58279985,10.7622132 6.76956353,10.1858618 7.02491786,9.68070085 C7.20967009,9.31591259 7.46200723,8.91246662 7.82799164,8.7655673 C7.91659627,8.6614425 8.04713976,8.5979836 8.2151969,8.55691605 C10.782921,7.92845206 13.3645241,8.7530161 15.6877556,9.87579679 C16.5295499,10.2821546 17.4410412,10.722451 17.9038772,11.5113696 C17.9594939,11.6073612 18.0090763,11.7078713 18.050814,11.8142051 C18.1103531,11.9653216 18.1543035,12.128186 18.1809552,12.3040033 C18.2629221,12.8506335 18.2916859,13.4374275 18.2942088,13.9894797 C18.2961111,14.6067982 17.9773959,14.4818886 17.4718165,14.802095" id="Fill-3" fill="#EFD1BD"></path>
                    <g id="编组" transform="translate(0.799882, 11.292272)">
                        <mask id="mask-2" fill="white">
                            <use xlink:href="#path-1"></use>
                        </mask>
                        <g id="Clip-6"></g>
                        <path d="M2.19269075,14.6811792 C1.36578122,14.5260463 0.916120251,13.8603303 0.344263334,12.9781311 C0.215932446,12.7794204 0.119080844,12.5663512 0.0614526317,12.348161 C-0.137580931,11.5980005 0.126925522,10.7887991 1.14844341,10.3111504 C2.1551771,9.83972713 2.72683287,9.31327934 3.64938713,8.69445467 C5.36314757,7.54516583 6.98015698,6.20901462 8.39209846,4.70086169 C9.01243147,4.03845923 9.56578299,3.3034606 9.80132448,2.41393152 C10.0475267,1.48825496 10.2813584,0.413369666 11.3395854,0.104911223 C11.3988228,0.0876407638 11.459267,0.0768969313 11.5191078,0.072980955 C11.6454273,0.0163499128 11.8029243,-0.010057825 11.9991418,0.00349747769 C13.0866354,0.0760936541 13.3045767,1.21594399 13.2466467,2.09472924 C13.1873088,2.99048373 12.91536,3.87930994 12.5214163,4.68369164 C12.1458775,5.45262874 11.649249,6.14204139 11.0992164,6.79289673 C10.3933965,7.62940952 9.59786571,8.40296546 8.85513561,9.20162381 C7.40366902,10.7618894 6.59405802,12.2173272 4.97986464,13.522251 C4.26790982,14.098 3.146322,14.8600088 2.19269075,14.6811792" id="Fill-5" fill="#EFD1BD" mask="url(#mask-2)"></path>
                    </g>
                    <g id="编组" transform="translate(0.861334, 18.043504)">
                        <mask id="mask-4" fill="white">
                            <use xlink:href="#path-3"></use>
                        </mask>
                        <g id="Clip-8"></g>
                        <path d="M2.13123812,7.92994739 C1.30432859,7.77481449 0.85466762,7.10909851 0.282810702,6.22689933 C0.154479815,6.02818864 0.0576282121,5.81511936 0,5.59692919 C0.606655105,6.23914931 1.60111891,6.25330707 2.44401951,6.02146119 C3.48183019,5.73679983 4.4943971,5.234852 5.41825881,4.69093293 C7.39370966,3.52658263 9.10244147,1.96872692 10.5172996,0.170691335 C10.6640353,-0.0156689743 10.8701089,-0.0338431208 11.0377638,0.0416649355 C10.3319439,0.878177724 9.53641308,1.65173366 8.79368298,2.45039201 C7.34221639,4.01065755 6.53260538,5.46609542 4.91841201,6.77101922 C4.20645719,7.34676815 3.08486937,8.10877698 2.13123812,7.92994739" id="Fill-7" fill="#D3B5A1" mask="url(#mask-4)"></path>
                    </g>
                    <path d="M7.98830467,5.93005905 C8.22364502,6.38983484 8.98789769,6.38310739 9.34161221,6.10657921 C9.78292564,5.76147125 10.3138494,5.03179433 9.85010827,4.48897976 C9.44389475,4.01343967 8.64253071,4.2427753 8.20252473,4.55043047 C7.78595221,4.84161845 7.47307024,5.57701872 7.98830467,5.93005905" id="Fill-9" fill="#FFB9B6"></path>
                    <path d="M8.72305935,4.72240208 C8.49938545,4.69910704 8.26354224,4.79258842 8.12515408,4.96278278 C7.98093269,5.1399054 7.95629235,5.45810358 8.07024133,5.67187572 C8.14919097,5.81997995 8.27440411,5.88745524 8.44236067,5.87229338 C8.64944006,5.853818 8.91827114,5.6435602 9.05464786,5.39374099 C9.10895717,5.2939338 9.18770566,5.10305506 9.10433082,4.94460863 C9.04780891,4.83727071 8.91736599,4.75423193 8.7638919,4.72812543 C8.75031458,4.72571559 8.73673725,4.72390822 8.72305935,4.72240208 M8.3121189,6.25284595 C8.06310066,6.22683985 7.85662471,6.08616593 7.7317133,5.85180981 C7.5457542,5.50288628 7.58688847,5.01700399 7.8274586,4.72119716 C8.06249722,4.43241901 8.45392655,4.28632297 8.82866078,4.35058514 C9.10121306,4.39717522 9.3310219,4.55250895 9.443764,4.76628109 L9.443764,4.76628109 C9.56736797,5.00063721 9.548762,5.28861209 9.39146615,5.57688819 C9.1905217,5.94519079 8.81427887,6.22352633 8.47655542,6.25374964 C8.42003351,6.25877012 8.36502019,6.25846889 8.3121189,6.25284595" id="Fill-11" fill="#42210B"></path>
                    <path d="M20.9164347,10.8776843 C20.9787899,10.3998348 20.5440137,10.1569438 20.1337772,10.112864 C20.1311623,10.1125627 20.128648,10.112864 20.1261337,10.1126632 C20.0807754,10.1056345 20.031193,10.108446 19.9780905,10.1250135 C19.6134136,10.2389785 19.319741,10.6222421 19.3296977,11.0110283 C19.3398556,11.4085501 19.7628648,11.6746357 20.1382024,11.6218202 C20.503684,11.5704104 20.8682604,11.2477942 20.9164347,10.8776843" id="Fill-13" fill="#FFB9B6"></path>
                    <path d="M20.4744575,10.5517445 C20.4656071,10.5257384 20.4499178,10.4994311 20.4256797,10.4731238 C20.3576925,10.3992223 20.2815589,10.3736178 20.1929543,10.3946034 C20.0527558,10.4279394 19.9097413,10.5701195 19.8676013,10.7184245 C19.8323002,10.8420288 19.8868107,10.8969529 19.9048132,10.9148258 C20.0050843,11.0153359 20.2349937,10.9424385 20.373583,10.8099981 C20.4430788,10.7435269 20.5079483,10.6502464 20.4744575,10.5517445 M19.5027232,10.9757745 C19.4650084,10.8650226 19.4628963,10.7407155 19.4991025,10.6138981 C19.5796613,10.3310441 19.828579,10.0878519 20.1044502,10.0224853 C20.3303367,9.9688665 20.5445568,10.0370446 20.7076858,10.2143681 C20.9436296,10.4707139 20.9159721,10.821244 20.6383912,11.0862251 C20.3668446,11.345784 19.9054166,11.4572387 19.6335684,11.1849278 C19.5730235,11.1242803 19.5291738,11.0532907 19.5027232,10.9757745" id="Fill-15" fill="#42210B"></path>
                    <path d="M18.1565764,7.2803881 C18.4380797,7.34675888 18.842684,7.30970771 19.0269334,7.09302369 C19.0672631,7.07163644 19.1050784,7.04010781 19.1375635,6.99612838 C19.4939934,6.51486493 19.2030363,6.01723471 18.7149566,5.77333967 C18.4832368,5.65756734 18.2227533,5.57794249 17.9706173,5.67935624 C17.7389982,5.77253639 17.5442892,5.98620813 17.446633,6.21293312 C17.2204448,6.73857763 17.6763413,7.16712601 18.1565764,7.2803881" id="Fill-17" fill="#FFB9B6"></path>
                    <path d="M18.1695402,6.35620764 C18.0252183,6.4556132 17.9232375,6.66968657 18.0008797,6.83174774 C18.0680623,6.97191961 18.250099,7.04200555 18.4006565,7.04923504 C18.7462246,7.06600345 18.9831742,6.99451178 19.0339634,6.85765343 C19.0806292,6.73224178 18.9840793,6.53021757 18.8141113,6.39797806 C18.7367708,6.33763186 18.4613019,6.15639244 18.1695402,6.35620764 M17.878382,6.09835566 C17.9020166,6.07797251 17.9267575,6.05869385 17.9529064,6.04082094 C18.2893224,5.81028038 18.7097167,5.83156723 19.0497533,6.09644788 C19.3583107,6.33682858 19.4995149,6.70462913 19.3930083,6.99079663 C19.3264291,7.17022867 19.1061747,7.46643714 18.3820506,7.43129376 C18.0546861,7.41542903 17.7763006,7.24905025 17.6554121,6.99692162 C17.5155153,6.7054324 17.6142778,6.32739007 17.878382,6.09835566" id="Fill-19" fill="#42210B"></path>
                    <path d="M12.8662864,2.12488478 C12.7328263,1.79795096 12.1693169,1.71471136 12.002165,1.71570651 C11.8839919,1.71641832 11.6755045,1.77706575 11.6017847,1.85156971 C11.4355378,2.01955505 11.4628936,2.20782315 11.502821,2.38866093 C11.5865982,2.76770735 11.960025,2.97696106 12.3362678,2.92866402 C12.7028556,2.88147148 13.0184531,2.49760539 12.8662864,2.12488478" id="Fill-21" fill="#FFB9B6"></path>
                    <path d="M12.6247709,2.28364247 C12.6215526,2.27420397 12.6177308,2.2651671 12.6133056,2.25663228 C12.5853464,2.20331475 12.5322439,2.16797056 12.4552052,2.15140296 C12.4408233,2.14818986 12.4251339,2.14457511 12.4084388,2.14055872 C12.3246617,2.12087843 12.1980405,2.09095636 12.1363894,2.13182308 C12.061865,2.18102381 12.0233456,2.2932818 12.0482876,2.38736564 C12.0741348,2.48516464 12.1635441,2.57151694 12.2706541,2.60324639 C12.4072319,2.64351066 12.5679473,2.58125667 12.6144119,2.46990237 C12.6402591,2.40794962 12.6436786,2.33926942 12.6247709,2.28364247 M11.7526036,2.50464411 C11.7484801,2.49279577 11.7448595,2.48074661 11.7416412,2.46859705 C11.6809958,2.2402655 11.7713102,1.99325777 11.9611916,1.86774571 C12.1372946,1.75127051 12.3527215,1.80207779 12.4812535,1.83240151 C12.4959372,1.83581544 12.5095145,1.83902855 12.5220861,1.84184002 C12.738217,1.88832968 12.8438185,2.01344011 12.8945071,2.11003419 C12.9688304,2.25211384 12.9738591,2.43254998 12.9071793,2.59179969 C12.7986613,2.85186068 12.4726043,2.99303665 12.1806414,2.90688517 C11.9808033,2.84784429 11.8164673,2.69220934 11.7526036,2.50464411" id="Fill-23" fill="#42210B"></path>
                    <path d="M14.7046867,6.73411944 C14.8735485,6.55488822 14.8874275,6.3049686 14.8413652,6.07553255 C14.7487376,5.61455185 14.2204287,5.45349477 13.7923909,5.63975467 C13.7191739,5.64487557 13.2517115,5.93505945 13.2210368,6.14873119 C13.1521445,6.62989422 13.7885691,6.92750843 14.2239488,6.90702486 C14.4359562,6.8970843 14.557951,6.88995522 14.7046867,6.73411944" id="Fill-25" fill="#FFB9B6"></path>
                    <path d="M14.0216969,5.94339345 C13.924443,5.92371316 13.7912846,5.98887902 13.686186,6.0479199 C13.5941619,6.09963087 13.5332148,6.18648521 13.5378411,6.2591818 C13.5420652,6.32605463 13.5993917,6.40126145 13.6908124,6.46130642 C13.8412693,6.56051116 14.0784199,6.59043323 14.1992079,6.46592527 C14.2742352,6.38871025 14.2887176,6.25145026 14.2316929,6.16017789 C14.1293098,5.99651016 14.0454321,5.94821312 14.0216969,5.94339345 M13.1828192,6.41903396 C13.1677333,6.37475331 13.1585811,6.32946855 13.1556645,6.28368175 C13.1413832,6.06288094 13.2759496,5.83946947 13.4984166,5.71455986 C13.671603,5.61746373 13.8780789,5.52408276 14.0976293,5.56856423 L14.0977299,5.56856423 C14.301591,5.6098326 14.459792,5.80292035 14.556543,5.95765162 C14.7059942,6.19622495 14.6708943,6.52958499 14.474375,6.73201084 C14.2038342,7.01094884 13.7599059,6.96526245 13.4797101,6.78060911 C13.3329744,6.68391462 13.2296861,6.55669559 13.1828192,6.41903396" id="Fill-27" fill="#42210B"></path>
                    <path d="M13.0300089,11.4207197 C13.4617679,10.6162376 13.2806363,9.61575588 13.2293442,8.74560586 C13.2122468,8.45622525 12.8671815,8.31022962 12.8841783,8.59780286 C12.9310452,9.39304728 13.0086874,10.513619 12.6148444,11.2473123 C12.4782665,11.5019511 12.8940345,11.6740533 13.0300089,11.4207197" id="Fill-29" fill="#D3B5A1"></path>
                    <path d="M16.1117203,10.0134183 C16.3520892,9.85175872 15.9257612,9.64692304 15.6861968,9.80818094 C14.9472884,10.3054095 14.2481063,10.8527425 13.5881477,11.4505816 C13.3754362,11.6432677 13.6532183,12.0134781 13.8588896,11.8094457 C15.0631483,10.6145708 15.3727114,10.5107473 16.1117203,10.0134183" id="Fill-31" fill="#D3B5A1"></path>
                    <path d="M11.510716,11.6356566 C11.7017037,11.7020274 11.836069,11.4833352 11.7697915,11.32519 C11.8702637,11.2812106 11.9474031,11.1737722 11.9046596,11.0404282 C11.7269475,10.4860666 11.5635167,9.92447539 11.3680032,9.37603789 C11.2084947,8.92841167 10.9896483,8.51341859 10.5816245,8.24863835 C10.3407527,8.09230052 10.0454709,8.2356855 10.2890582,8.39373029 C10.7092514,8.66634249 10.9231697,9.22401768 11.0717157,9.67977708 C11.215736,10.1219812 11.3162082,10.6744351 11.4580158,11.1174424 C10.7477708,10.7836808 10.0318936,10.4620687 9.30897634,10.1566225 C8.59682037,9.85549396 7.75311519,9.56771991 6.97679378,9.47895778 C6.68915558,9.445923 6.70766098,9.76904125 6.99610375,9.80197562 C7.77101715,9.89073775 8.62136014,10.3085423 9.33381782,10.6118799 C9.97406424,10.8843916 10.5416971,11.1845161 11.1718862,11.479118 C10.8904836,11.441866 10.6125003,11.3772022 10.3285833,11.3638477 C10.0144945,11.3490875 9.70885378,11.4014009 9.40502336,11.4762061 C8.72042434,11.6447939 8.0207394,12.0101846 7.34257704,12.2032724 C7.06388982,12.282596 7.25588329,12.5471754 7.53185504,12.4685547 C8.15158461,12.2921349 8.80369862,12.0192215 9.42654594,11.8545497 C9.75340753,11.7679966 10.0523099,11.7876768 10.3922459,11.8175989 C10.6871254,11.843605 10.9751659,11.9173057 11.2705482,11.9421069 C11.4594239,11.9579716 11.5510457,11.7723142 11.510716,11.6356566" id="Fill-33" fill="#D3B5A1"></path>
                    <path d="M18.0256507,14.2918132 C17.3862089,14.0229161 16.6272866,13.6704783 16.0168097,13.3467576 C15.6371474,13.1459383 15.1715959,12.8474204 14.767595,12.7115661 C14.9395745,12.8896928 15.09506,13.2798847 15.2493387,13.4741774 C15.6550494,13.9844592 16.0623692,14.4870095 16.3305968,15.0802297 C16.3616738,15.1487091 16.372234,15.2224098 16.3691162,15.289383 C16.2851379,15.3111719 16.2016625,15.3299485 16.1185894,15.345512 C15.8812376,14.8642486 15.405126,14.2644013 15.0947583,13.8518181 C14.9410831,13.646882 14.7771494,13.449577 14.6023539,13.2614093 C14.5141516,13.1656185 14.2109246,12.7712094 14.0616746,12.7626746 C13.9145366,12.7542402 13.8593221,12.6364597 13.8774252,12.5234988 C13.8117512,12.4500994 13.8238199,12.3378414 13.8834596,12.2564092 C13.6085941,12.2119277 13.6735641,11.7816723 13.9570788,11.8139038 C14.5778141,11.8850943 15.2205749,11.5648879 15.840405,11.5016298 C16.4853784,11.4356607 17.1460411,11.3792305 17.790411,11.4767282 C17.8308412,11.4828532 17.8691595,11.4952036 17.9038571,11.5113696 C18.0725177,11.5915969 18.1572,11.769824 18.0507939,11.8142051 C18.0262542,11.8252501 17.9920594,11.8284632 17.9453936,11.8213342 C17.2658233,11.7184143 16.3234562,11.8816804 15.6444892,11.9761658 C15.2216812,12.0354075 14.816574,12.1902392 14.398694,12.2475731 C15.0105789,12.439958 15.6209552,12.6303347 16.1903984,12.9322665 C16.8007747,13.2558868 17.3757493,13.6408574 18.0151912,13.909654 C18.2826142,14.0226149 18.2924704,14.4041716 18.0256507,14.2918132" id="Fill-35" fill="#D3B5A1"></path>
                    <path d="M13.8161261,12.401973 C13.8738549,12.6803086 13.8462979,12.9785252 13.7872617,13.340502 C13.4722677,15.2681665 12.5514232,17.0850791 11.124094,18.594939 C10.9003196,18.8317049 10.6021212,19.1599441 10.2566537,19.5398942 C9.01970887,20.9011478 7.15026174,22.9580395 6.18546691,23.5708396 C5.92619024,23.7356118 5.6793846,23.9005848 5.44082592,24.0600354 C4.2124298,24.8809847 3.24220403,25.5294302 2.06560289,25.1418489 L2.06550232,25.1417485 C1.516576,24.9616136 0.797782229,24.2561354 0.641190386,23.7450503 C0.488722027,23.2472193 0.79748051,22.7290051 1.10825045,22.4366122 C1.46146211,22.1038546 1.91353683,21.8905845 2.39206219,21.6646628 L2.57339494,21.5788125 C5.36087055,20.2467781 7.82993269,18.249831 9.71396288,15.8039524 C10.2008358,15.1718736 10.7981376,14.3206006 11.0992526,13.3391967 C11.1429012,13.1969162 11.1809177,13.0515231 11.2177273,12.9107487 C11.3341906,12.4651307 11.4442173,12.0442135 11.715965,11.7493103 C11.9651843,11.4793088 12.1968035,11.4898518 12.7245089,11.6554273 C12.991932,11.7392694 13.2653894,11.839177 13.4731728,11.9731234 C13.6503821,12.0873896 13.7797187,12.2265574 13.8161261,12.401973 M1.87642546,25.7138827 C3.33302127,26.1937404 4.4652698,25.4369529 5.77653792,24.5607783 C6.01228055,24.4031351 6.25596844,24.2401703 6.50951245,24.0792136 C7.54259621,23.4229361 9.44483007,21.3297966 10.7035992,19.9446455 C11.0468541,19.5671052 11.3432422,19.2408743 11.5629937,19.0085263 C13.0731948,17.410808 14.0483487,15.4843485 14.3828538,13.4374978 C14.443298,13.0670866 14.4880529,12.6705688 14.4068907,12.2795737 C14.264379,11.593575 13.5682141,11.2885304 12.9054394,11.0807829 C12.3588263,10.9091828 11.7822424,10.7879883 11.2721372,11.3413459 C10.8983081,11.7466997 10.7638423,12.2610983 10.6337011,12.7587285 C10.596992,12.8995029 10.5621938,13.0325456 10.5222664,13.162777 C10.2496136,14.051804 9.69143457,14.8448394 9.23563866,15.4366539 C7.40913611,17.808129 5.01530242,19.7439266 2.31281083,21.0351947 L2.13409297,21.1199404 C1.6341456,21.3561039 1.11710086,21.6000994 0.694192249,21.9982236 C0.11941872,22.5392308 -0.127889785,23.2940102 0.0642042555,23.9212692 C0.227635049,24.4551473 0.774047049,25.082306 1.35153604,25.4548258 C1.526935,25.5678871 1.70525057,25.6576533 1.87642546,25.7138827" id="Fill-37" fill="#42210B"></path>
                    <path d="M8.16146086,13.2828066 C7.66905645,12.9652109 7.21416569,12.6169903 6.70526734,12.2161549 C5.79458068,11.4990292 4.17938157,10.0774294 3.59424905,8.61405918 C3.23962937,7.72724116 3.26225825,6.64944398 3.65660418,5.65699501 C3.93830858,4.94780166 5.0757869,4.09030325 5.98999362,3.40109142 C6.3146426,3.15629269 6.59503956,2.94493038 6.77888663,2.7837729 C8.72215419,1.08092565 10.9399855,-0.422005978 13.9833183,0.10815697 C16.6678074,0.576065936 18.6763467,2.9420185 20.4483388,5.02963552 C20.5796868,5.1844672 20.7096269,5.33749151 20.8382595,5.48800557 C21.8543464,6.67605254 22.4511454,7.80003816 22.6627506,8.92412418 C23.0084193,10.7596126 22.3116509,12.7785494 20.8445956,14.1930201 C18.6565338,16.3026268 15.8053956,16.8367058 13.4039184,15.586706 C13.2567804,15.5101939 13.1988505,15.3279504 13.2758892,15.1802478 C13.352928,15.0328464 13.5350653,14.9755125 13.6829074,15.0525267 C15.8466305,16.1787213 18.430245,15.6834005 20.4253076,13.7596521 C21.7482421,12.4843491 22.3782301,10.6740635 22.0696728,9.03537807 C21.8780816,8.01752546 21.3251324,6.98501303 20.3792452,5.87920156 C20.2501098,5.72808504 20.1197674,5.57435787 19.9879165,5.41922496 C18.282403,3.40972665 16.3491927,1.13183334 13.8795272,0.701678407 C11.2418044,0.242103442 9.29240195,1.38265665 7.17695376,3.23662041 C6.9764116,3.41243771 6.68776768,3.62992501 6.35356428,3.88185282 C5.59031733,4.45730052 4.43684793,5.32694849 4.21739809,5.87910115 C3.8794735,6.72987211 3.8565429,7.64520648 4.15474124,8.39064771 C4.7075899,9.7734894 6.38393726,11.1957921 7.07889528,11.7431251 C8.20883064,12.6326542 9.00697635,13.2154318 10.5579094,13.8016233 C10.7139984,13.8602625 10.7923446,14.0342725 10.7333084,14.1899074 C10.6743727,14.3455424 10.5001807,14.4239623 10.3443934,14.3650218 C9.44235598,14.0242315 8.77304403,13.6773162 8.16146086,13.2828066" id="Fill-39" fill="#42210B"></path>
                    <path d="M6.72810743,12.2326322 C6.69210236,12.2093371 6.66032136,12.1779089 6.63598274,12.13895 C6.00418444,11.1271219 6.48834188,9.0217324 7.49950077,8.38463317 C8.5364063,7.73106677 9.82896787,7.78076954 10.7108907,7.87515461 C12.3302133,8.04816044 13.8961317,8.49136863 15.3652991,9.19262962 C16.4132677,9.6928705 17.1568024,10.2187158 17.7051252,10.8472802 C18.4221087,11.6697357 18.7714986,12.676744 18.6636846,13.610353 C18.5411869,14.671683 17.6962748,15.9991989 16.6798862,16.2070469 C16.5165559,16.2406841 16.3571481,16.1353544 16.3237579,15.97249 C16.2902671,15.8094247 16.3955669,15.650175 16.5586959,15.6169394 C17.2888544,15.4676302 17.9676202,14.3784868 18.0643713,13.5412711 C18.1527747,12.7754467 17.8559844,11.937729 17.2498322,11.2429947 C16.7577295,10.6783912 16.0760471,10.1995376 15.1050167,9.73614705 C13.6978022,9.06450691 12.1977589,8.63997491 10.6467253,8.47409817 C9.85431221,8.38955325 8.6994348,8.34085457 7.82163544,8.89401133 C7.08373283,9.35910882 6.6871743,11.0819376 7.14819999,11.8203501 C7.23630176,11.9614257 7.19305546,12.147284 7.05175068,12.2352428 C6.949267,12.2990029 6.82324929,12.2939825 6.72810743,12.2326322" id="Fill-41" fill="#42210B"></path>
                    <path d="M13.4434938,17.3505823 C13.4979037,16.745815 12.9315783,16.4365532 12.4814144,16.1812115 C11.5817908,15.6708293 10.5965797,15.3489159 9.61649778,15.0326255 C9.48203195,14.9892486 9.34163233,14.9804125 9.21088769,15.0056153 C9.10528626,14.991558 8.99153843,15.0057157 8.87427055,15.058732 C8.79843866,15.0929717 8.729144,15.1348425 8.66528028,15.1818343 C8.36728308,15.3815491 7.9923477,15.5818663 7.84309767,15.9194435 C7.64939447,16.3578321 7.87940445,16.8009399 8.2969827,16.9849907 C8.68982004,17.1581974 9.13746955,17.2527833 9.54680083,17.3832154 C10.0125535,17.5315205 10.4782055,17.6798255 10.943757,17.828231 C11.1162393,17.8831551 11.2985778,17.8825526 11.4574828,17.8253191 C11.7462273,17.9364726 12.0381901,18.0418023 12.331561,18.097128 C12.8537349,18.1954291 13.3925034,17.9167923 13.4434938,17.3505823" id="Fill-43" fill="#EFD1BD"></path>
                    <path d="M12.9249204,16.7437666 C13.1429622,17.0146718 13.2472562,17.3272471 13.2531089,17.7274799 C13.2546986,17.8476703 13.1566401,17.9494857 13.0341424,17.954707 C12.823543,17.9637438 12.5901135,17.9166517 12.3875599,17.8719694 C11.017859,17.5689331 9.79791099,17.2365772 8.65822007,16.8557234 L8.56679939,16.8255001 C8.03567446,16.651691 7.99071842,16.5825087 8.04110539,16.3838984 C8.14610339,15.9700098 8.79841854,15.4134392 9.22716037,15.2843123 L9.22726095,15.2843123 C9.57966802,15.1780789 10.2479743,15.5073222 10.7358529,15.7476025 C10.9492684,15.8528318 11.1510174,15.9522373 11.3280255,16.0205159 C11.5638687,16.111487 11.7766807,16.167616 11.9644502,16.2170176 C12.2261406,16.2858986 12.4311079,16.3398186 12.6179722,16.4604106 C12.7237748,16.5285887 12.8237441,16.6180537 12.9249204,16.7437666 L12.9249204,16.7437666 Z M8.37882884,17.3980359 L8.46672946,17.4269539 C9.62663552,17.8146355 10.8664969,18.1526144 12.2570164,18.4600687 C12.5144828,18.5171014 12.7898511,18.5682099 13.0600902,18.5565624 C13.5055271,18.537585 13.8627617,18.1616513 13.8564256,17.7188447 C13.8486815,17.184565 13.6978223,16.7422605 13.3952993,16.3664271 C12.9908961,15.8640777 12.5669818,15.7525225 12.1183265,15.6344408 C11.9372955,15.5867462 11.750029,15.5375455 11.5455645,15.4586235 C11.3938001,15.4000847 11.2039187,15.3065029 11.0029742,15.207499 C10.3609175,14.8911082 9.63327332,14.5327461 9.05296829,14.7074589 L9.05296829,14.7075593 C8.44752006,14.8898028 7.61819678,15.5971888 7.45607344,16.2361958 C7.33719639,16.7052093 7.53401735,16.9775203 7.80194328,17.1502249 C7.98729894,17.2699132 8.20684936,17.3417061 8.37882884,17.3980359 L8.37882884,17.3980359 Z" id="Fill-45" fill="#42210B"></path>
                </g>
            </g>
        </g>
    </g>
</svg>