<?xml version="1.0" encoding="UTF-8"?>
<svg width="40px" height="40px" viewBox="0 0 40 40" version="1.1" xmlns="http://www.w3.org/2000/svg" xmlns:xlink="http://www.w3.org/1999/xlink">
    <title>编组</title>
    <defs>
        <polygon id="path-1" points="1.40879416e-15 0 39.4724843 0 39.4724843 40 1.40879416e-15 40"></polygon>
    </defs>
    <g id="页面-1" stroke="none" stroke-width="1" fill="none" fill-rule="evenodd">
        <g id="launchpad-My-Reward--" transform="translate(-257.000000, -1817.000000)">
            <g id="编组" transform="translate(257.000000, 1817.000000)">
                <g>
                    <mask id="mask-2" fill="white">
                        <use xlink:href="#path-1"></use>
                    </mask>
                    <g id="Clip-2"></g>
                    <path d="M38.1192806,38.4763848 C36.3993861,41.1306273 28.5358928,39.4931141 19.8949822,39.5731162 C11.9355261,39.6468726 4.81376146,40.1251994 2.3009847,38.5635245 C-0.530907868,36.8041744 -0.15984528,26.0231358 0.36497581,18.5242612 C0.812372406,12.1432338 -0.285945096,5.15797815 1.10729926,2.48093457 C2.60632073,-0.403697854 10.6899931,0.00652308797 19.1894379,0.0364618808 C27.8473997,0.066995484 36.3180954,0.513103324 37.864206,2.1051135 C39.2707345,3.55427003 39.391481,12.6298879 39.4425355,19.018747 C39.5010252,26.5395304 39.6239527,36.1535509 38.1192806,38.4763848" id="Fill-1" fill="#F4F1EA" mask="url(#mask-2)"></path>
                </g>
                <path d="M28.7249997,26.6390322 C28.7333501,27.5198474 28.0410898,28.6440391 27.0686739,28.5313226 C26.072069,28.4158302 25.3959677,28.1432087 23.4291278,26.203631 C18.6519077,21.4928313 21.0619805,24.3987778 15.1082253,27.972399 C13.7609796,28.7810438 12.8126535,28.5928854 12.001332,27.9809246 C11.5302421,27.6255254 11.2233199,26.5694394 11.3950219,26.0096237 C11.676962,25.0898484 15.8900045,21.6567016 17.0062654,20.7167028 C19.2731872,18.8076587 19.7788752,19.5642576 19.988645,19.293718 C20.1186111,19.1262788 20.249866,19.1590925 20.4099691,19.2402842 C22.7307212,20.4173149 28.6998424,24.0307884 28.7249997,26.6390322" id="Fill-3" fill="#CAA056"></path>
                <path d="M20.9532789,6.28594695 C22.1461713,6.64739344 22.9269591,7.04423115 24.9291902,7.92702899 C29.3327703,9.86858945 28.0895173,12.8018972 26.2261744,12.7383516 C25.5428364,12.7150549 25.2778483,12.5422624 22.4467488,10.8686641 C20.4013939,9.65951357 19.6699753,9.27437381 18.6296519,10.046636 C17.5092272,10.8784785 15.9433887,12.0111958 14.6097245,12.4005984 C12.2522925,13.0887941 11.5944321,10.5596601 13.6025122,8.9798435 C19.0562301,4.68898002 19.7454171,5.92003939 20.9532789,6.28594695" id="Fill-5" fill="#CAA056"></path>
                <path d="M19.2226779,12.4301902 C20.9707267,12.3496925 23.7631635,13.6640254 25.2586161,14.4373781 C26.7790507,15.2236184 27.5556749,15.7030356 28.0635439,16.7529752 C28.5167895,17.6902973 27.8393004,19.2322443 26.7732018,19.0979163 C24.903316,18.8622722 24.5536666,18.4792143 22.3616909,17.2341769 C19.0726865,15.3660755 19.2460738,16.0231428 17.5729711,17.7731743 C13.2911289,22.2513039 11.0590036,20.3488027 11.5167102,18.7553055 C11.7265791,18.0247791 12.8946877,16.151721 14.9391504,14.6984008 C15.90542,14.0113947 16.936623,13.4299675 17.9324349,12.7913393 C18.3411688,12.5292262 18.7744882,12.2926899 19.2226779,12.4301902" id="Fill-7" fill="#CAA056"></path>
                <path d="M19.0501531,29.5028166 C18.8357239,10.5029845 18.5604258,6.98259887 19.0590753,5.94197798 C19.2998744,5.43975969 20.1823748,5.51896862 20.2891433,6.46174318 C20.5316277,8.60236687 20.7588453,19.0810435 20.7580522,19.3079637 C20.7545825,20.2957456 20.9731753,24.2239729 20.9602877,25.0481819 C20.8862338,29.7731579 21.7723031,34.3071997 20.0448745,34.3629136 C19.0564978,34.3949343 19.0919881,33.2122528 19.0501531,29.5028166" id="Fill-9" fill="#776149"></path>
                <path d="M27.0104161,26.1806317 C27.0070218,26.3967461 26.7815886,26.5505046 26.556552,26.4709983 C26.4330297,26.4272797 26.3489631,26.3327049 26.2599398,26.2452677 C23.9064731,23.93433 20.9270676,22.4100291 21.2889106,21.7711035 C21.4534748,21.4803403 21.831576,21.6191294 22.0718794,21.8437695 C23.3460626,23.0349766 27.0211981,25.488074 27.0104161,26.1806317" id="Fill-11" fill="#B78F4E"></path>
                <path d="M14.0594257,26.7852168 C13.8150578,26.7984018 13.6400844,26.5349008 13.7398143,26.2962826 C13.8044503,26.1417311 13.9313432,26.0387297 14.052982,25.9339439 C17.1142731,23.2973475 17.7655905,22.3043114 18.2915021,22.0643054 C18.6080404,21.9197665 18.9679999,22.3501118 18.6793185,22.6365131 C18.496216,22.8182276 17.7456644,23.459929 17.3909591,23.8538918 C16.8711939,24.4311553 14.4274151,26.7653898 14.0594257,26.7852168" id="Fill-13" fill="#B78F4E"></path>
                <path d="M20.9903058,7.76184022 C21.3106113,7.76699524 26.1191581,10.3646316 26.3675906,10.6831526 C26.5986745,10.9792691 26.2749985,11.3185093 26.0172473,11.2307748 C25.5892811,11.0851454 24.0715231,10.0356023 21.1538787,8.59298869 C20.4462526,8.24304187 20.6501734,7.84184222 20.9903058,7.76184022" id="Fill-15" fill="#B78F4E"></path>
                <path d="M21.329784,14.1620503 C21.6474128,14.1516411 25.3389056,16.2001683 26.1027413,16.6485562 C26.4420807,16.8478177 26.8237507,17.0438078 26.6160628,17.3795783 C26.2536249,17.9655657 25.3297852,16.8140127 22.2733516,15.4156133 C22.0443496,15.3108275 21.1658146,14.9074469 21.0265298,14.6995606 C20.8688059,14.4639166 21.0013495,14.172856 21.329784,14.1620503" id="Fill-17" fill="#B78F4E"></path>
                <path d="M13.6539732,17.8684827 C14.6840858,16.9663535 17.2166895,14.8249368 17.8798041,14.4545681 C18.2435307,14.2514404 18.552039,14.6906087 18.3184768,14.9724498 C18.0544801,15.2910699 18.5000922,14.7978729 15.5164239,17.235307 C14.6218289,17.9661308 14.1794882,18.4648793 13.8925913,18.5544974 C13.6048022,18.6445121 13.1785214,18.28485 13.6539732,17.8684827" id="Fill-19" fill="#B78F4E"></path>
                <path d="M18.2319517,8.1116185 C18.2466237,8.29650542 17.8479024,8.57566979 17.7374659,8.64694791 C15.5186247,10.0791523 14.5805094,11.0231165 14.2765613,11.0937998 C13.9106537,11.1788577 13.6798673,10.7823174 13.9179897,10.525855 C14.0830496,10.3481058 15.6770425,9.1242833 17.5643761,7.87091854 C18.0055272,7.57787526 18.2134134,7.87924589 18.2319517,8.1116185" id="Fill-21" fill="#B78F4E"></path>
            </g>
        </g>
    </g>
</svg>