<?xml version="1.0" encoding="UTF-8"?>
<svg width="41px" height="40px" viewBox="0 0 41 40" version="1.1" xmlns="http://www.w3.org/2000/svg" xmlns:xlink="http://www.w3.org/1999/xlink">
    <title>编组 14</title>
    <defs>
        <polygon id="path-1" points="15.0695661 9.47260781 28.36394 9.47260781 28.36394 33.000041 15.0695661 33.000041"></polygon>
        <polygon id="path-3" points="11.0000071 7.00004097 30.8244249 7.00004097 30.8244249 27.2240237 11.0000071 27.2240237"></polygon>
    </defs>
    <g id="页面-1" stroke="none" stroke-width="1" fill="none" fill-rule="evenodd">
        <g id="launchpad-My-Reward--" transform="translate(-257.000000, -1342.000000)">
            <g id="编组-14" transform="translate(256.999993, 1341.999959)">
                <path d="M39.3397251,37.9477748 C37.6589628,40.6449067 29.1636035,39.6310221 20.5017485,39.8285308 C12.5230728,40.0106324 5.33224512,40.3719531 2.78729528,38.8328365 C-0.0806066347,37.0987955 -0.239647362,25.1156731 0.163520882,17.5542805 C0.507446455,11.1199897 0.712012591,5.88645637 2.06495218,3.17073655 C3.52047304,0.244486568 11.4867237,0.114669575 20.008424,0.0296821858 C28.6890658,-0.0568956102 37.9277416,-0.0565974088 39.5039346,1.52625543 C40.9378856,2.96706502 40.6700013,10.7040982 40.8258613,17.139383 C41.0078635,24.7148905 40.810156,35.5874116 39.3397251,37.9477748" id="Fill-1" fill="#E0CB90"></path>
                <path d="M21.71706,8.09179779 C21.0918325,8.03977096 18.1551151,7.79083242 17.247856,7.74176914 C16.4108166,7.69756279 14.2708014,7.33271637 13.9884405,7.37733432 C13.5009359,7.10065363 12.8251633,7.40235989 13.0835687,8.03425545 C12.9320982,8.33769045 12.9511966,8.78247051 12.8867393,9.10385148 C12.1577051,12.6706533 10.4170287,16.2782864 11.6973663,19.9386048 C12.8152024,23.4685269 14.9299452,27.0403504 19.8090252,26.2641462 C21.7778952,25.950915 23.989612,24.5594441 24.8743152,22.7520054 C29.0186808,23.0858992 30.9839287,19.2197784 30.2296219,15.59848 C29.2379838,11.9070443 25.8262746,8.58679363 21.71706,8.09179779" id="Fill-1" fill="#9B8557"></path>
                <mask id="mask-2" fill="white">
                    <use xlink:href="#path-1"></use>
                </mask>
                <g id="Clip-4"></g>
                <path d="M15.1001108,9.8527745 C15.9918936,11.5922984 17.0156368,13.2609439 18.1636847,14.8431524 C18.7206682,15.6107953 19.3052293,16.3581871 19.9180264,17.0821175 C20.2336449,17.454949 20.5565899,17.8216065 20.8865323,18.1817607 C21.2041265,18.5284965 21.4632728,18.9148287 21.7743637,19.2666684 C22.3863376,19.9589052 23.1437726,20.684482 23.8286828,21.2999957 C24.4474894,21.8560737 24.9908076,22.3092505 25.4679398,22.9917734 C26.4177588,24.3501513 27.0557461,25.913426 27.3518546,27.5430514 C27.6847605,29.375598 27.8793672,30.9232317 27.2879735,32.690827 C27.1826027,33.0053754 27.8340907,33.1357717 27.9080972,32.8129913 C28.7670339,29.0691994 28.4869781,26.363063 26.4236036,23.5338568 C25.9430139,22.8748777 25.1978448,21.9612798 24.6458005,21.3606662 C24.0263354,20.68654 23.9099336,20.5976334 23.2720286,19.9440874 C22.5382197,19.1922502 21.6953355,18.3117454 21.0571836,17.6037853 C20.3918657,16.8655311 19.791993,16.0718749 19.1513714,15.3121349 C17.3753794,13.2060358 16.5795005,11.6099974 15.5520528,9.60572935 C15.4004999,9.31019716 14.9488872,9.55773624 15.1001108,9.8527745" id="Fill-3" fill="#87724D" mask="url(#mask-2)"></path>
                <path d="M22.9784803,20.3352272 C22.971977,20.3573715 22.9608637,20.3786103 22.945058,20.3973795 C21.9667559,21.559175 20.5346185,22.2171663 19.5053597,22.5645606 C18.7228991,22.8287286 17.8663497,22.9731195 17.0380364,23.1128181 C16.4365996,23.2143199 15.8685027,23.3101414 15.3409901,23.4469588 C15.2492023,23.4707496 15.155521,23.4156769 15.1317303,23.323889 C15.1077749,23.2321012 15.1630122,23.1384199 15.2547178,23.1146292 C15.7967189,22.974025 16.3718953,22.8769686 16.980988,22.7742321 C17.7960476,22.6367561 18.6388495,22.4946702 19.3955436,22.2392283 C20.3832303,21.9058284 21.7552734,21.277308 22.6823719,20.1762654 C22.7435364,20.1036583 22.8517884,20.0944384 22.9243132,20.1555205 C22.9780687,20.2007147 22.9970849,20.2719224 22.9784803,20.3352272" id="Fill-5" fill="#87724D" mask="url(#mask-2)"></path>
                <path d="M26.1589335,16.8170934 C26.1444451,16.8665683 26.129298,16.9158786 26.1131631,16.9653535 C25.5251446,18.7777314 24.6178855,19.7536462 22.8772091,20.4462946 C22.7890434,20.4813633 22.6893527,20.4383918 22.6542017,20.3503084 C22.619133,20.2621426 22.6621045,20.1623696 22.7502702,20.1273009 C24.3831061,19.4775417 25.234387,18.5613096 25.7865959,16.8594064 C26.1741629,15.6645179 26.0645937,14.4658426 25.9583174,13.3069284 C25.898964,12.6582393 25.8374703,11.9874883 25.863813,11.324887 C25.867682,11.2300533 25.947451,11.156376 26.0422024,11.1600805 C26.1368715,11.1638672 26.2106311,11.2437186 26.2069267,11.33847 C26.1814895,11.9785976 26.2419131,12.6379061 26.3003609,13.2755641 C26.4054025,14.4221302 26.5139015,15.6063993 26.1589335,16.8170934" id="Fill-7" fill="#87724D" mask="url(#mask-2)"></path>
                <path d="M17.0459063,13.1092758 C17.0281249,13.169864 16.9774976,13.2184334 16.9110645,13.2302053 C15.6420049,13.4550238 14.5861564,13.2928515 13.3804016,12.6879572 C13.2955287,12.6453973 13.2615301,12.5421668 13.3038431,12.4575409 C13.346403,12.3727503 13.4495512,12.3385048 13.5343417,12.3810647 C14.6839537,12.9578053 15.6448038,13.1058183 16.8511349,12.8920308 C16.9445692,12.8754843 17.0336404,12.9378013 17.0501869,13.0311532 C17.0548792,13.0580722 17.0531505,13.0847442 17.0459063,13.1092758" id="Fill-9" fill="#87724D" mask="url(#mask-2)"></path>
                <path d="M17.5222317,12.2637574 C17.4194128,12.6144446 17.2560058,12.9339322 17.0013048,13.1836939 C16.933637,13.2500446 16.824891,13.2490568 16.7585403,13.1813066 C16.6921896,13.1136388 16.6931775,13.0049752 16.7609276,12.9385422 C17.4387583,12.2737182 17.3580014,10.9206912 17.3044928,10.0253686 C17.2987303,9.93069951 17.3710081,9.84936641 17.4656772,9.84376859 C17.5603463,9.83808844 17.6415971,9.91028391 17.6472772,10.0048707 C17.6859681,10.6535597 17.7381595,11.5271496 17.5222317,12.2637574" id="Fill-11" fill="#87724D" mask="url(#mask-2)"></path>
                <path d="M18.6108933,15.2977781 C18.6009324,15.331612 18.5805992,15.362647 18.550552,15.3856969 C17.2879134,16.3526387 15.2887492,16.6873556 13.2027365,16.2808548 C13.1096315,16.2627442 13.048961,16.1725204 13.0669893,16.0794978 C13.0854292,15.9863105 13.175406,15.9256399 13.2684286,15.9438329 C15.2593607,16.3318115 17.1559529,16.0212146 18.3417038,15.1130499 C18.4171098,15.0554252 18.5247856,15.0696668 18.5824102,15.1449904 C18.6170673,15.1901023 18.6257933,15.2470684 18.6108933,15.2977781" id="Fill-13" fill="#87724D" mask="url(#mask-2)"></path>
                <path d="M19.6402261,12.7854581 C19.3745764,13.6912355 19.0264412,14.5416108 18.5969728,15.331398 C18.5516139,15.4146244 18.447478,15.4454948 18.3641692,15.4002183 C18.2808604,15.3548594 18.2499077,15.2504765 18.2953488,15.1673323 C19.175936,13.5478324 19.7067414,11.6621065 19.8726181,9.56242853 C19.880027,9.46800641 19.9628419,9.39737504 20.0573463,9.40486624 C20.1518508,9.41227513 20.2223998,9.49500768 20.2149086,9.58951212 C20.1258374,10.7168151 19.9335356,11.7849294 19.6402261,12.7854581" id="Fill-15" fill="#87724D" mask="url(#mask-2)"></path>
                <path d="M20.9580033,18.0730558 C20.946643,18.1116644 20.9218644,18.1464861 20.8851493,18.1697006 C18.1467431,19.906014 15.3993639,19.662344 12.8200841,19.2639106 C12.7264028,19.2494221 12.6621925,19.1617503 12.6765987,19.0679868 C12.6912518,18.9743055 12.7788413,18.9100952 12.8725225,18.9245837 C15.3872627,19.3130562 18.0632696,19.5523632 20.7013266,17.879684 C20.7813426,17.8288919 20.8875366,17.8526827 20.9382463,17.932781 C20.9658238,17.9762464 20.9714216,18.0272854 20.9580033,18.0730558" id="Fill-17" fill="#87724D" mask="url(#mask-2)"></path>
                <path d="M22.0231869,16.0341636 C21.7907126,16.8272436 21.4455409,17.5506801 20.9214034,18.1389455 C20.8584279,18.2097415 20.7498466,18.2159156 20.6790506,18.1528578 C20.6083369,18.0897999 20.6019982,17.9813009 20.665056,17.9104226 C21.9886121,16.4250235 22.1059195,13.9401658 22.2094792,11.7478767 C22.2340109,11.229831 22.2570607,10.7405153 22.2946814,10.2715329 C22.3020903,10.1770285 22.3849875,10.1065617 22.4794919,10.1140529 C22.5739964,10.1216265 22.6444631,10.2044413 22.6368896,10.2989458 C22.5997628,10.7623304 22.5768776,11.2489295 22.5525106,11.7640939 C22.485913,13.1739224 22.4137175,14.7020461 22.0231869,16.0341636" id="Fill-19" fill="#87724D" mask="url(#mask-2)"></path>
                <mask id="mask-4" fill="white">
                    <use xlink:href="#path-3"></use>
                </mask>
                <g id="Clip-22"></g>
                <path d="M12.2118064,11.9778073 C12.0446126,12.5482092 11.8811232,13.1302182 11.7435649,13.7169196 C11.1213008,16.3707822 11.2245313,18.7138832 12.0591834,20.8802412 C12.962738,23.2249063 15.3288066,26.0737049 17.9343468,26.7347421 C19.253046,27.0693767 20.5666413,26.8224962 21.6331091,26.039624 C22.4086548,25.4703747 23.3830878,23.9080055 24.0945877,22.7672019 C24.25676,22.50715 24.4100416,22.2615043 24.5387092,22.0639341 L24.568921,22.017505 L24.6206185,21.9975834 C24.8365464,21.9140276 25.1109221,21.8324476 25.4286809,21.7381078 C26.6658824,21.3705447 28.5354733,20.8149607 29.4199296,19.3508827 C31.0397588,16.669278 30.5417994,14.0173087 29.6230977,12.5612159 C27.0634925,8.50402815 24.4347378,8.14156904 21.5106156,8.10254891 C17.4178652,8.04797012 15.3449415,7.71531119 13.6791772,7.44793276 C13.5664798,7.42982215 13.4550996,7.41195851 13.3446249,7.39442415 C13.1574271,8.79766696 12.767802,10.1064877 12.3906898,11.3736539 C12.3312541,11.5733646 12.2713244,11.7748862 12.2118064,11.9778073 M30.5327441,17.676804 C30.3460402,18.3134742 30.0714998,18.9362321 29.7138153,19.528449 C28.7607034,21.1062122 26.8143894,21.6845991 25.5263959,22.0672269 C25.2413184,22.1519351 24.9919683,22.226024 24.7958798,22.2983841 C24.675362,22.4847587 24.5344285,22.7107297 24.3859215,22.9488842 C23.6596861,24.113314 22.6650845,25.7080353 21.8363596,26.3164694 C20.6856774,27.1610823 19.2699218,27.4278844 17.8498032,27.0675657 C15.1034119,26.3707189 12.6967591,23.4895682 11.7388726,21.0037226 C10.8785364,18.7709317 10.7706959,16.3617269 11.4092595,13.6385501 C11.5981037,12.8332043 11.8337063,12.0414414 12.061653,11.2757743 C12.4506194,9.96909399 12.8525926,8.61804266 13.0262075,7.17668525 L13.047364,7.00002451 L13.2232015,7.02760202 C13.3913009,7.05394472 13.560882,7.08119296 13.7335914,7.10885279 C15.4744324,7.3883324 17.4475831,7.70502107 21.5152256,7.75927057 C23.1630439,7.78125026 24.5336876,7.91930249 25.8664637,8.52180948 C27.386026,9.20861311 28.7098291,10.4700169 29.9135259,12.3779695 C30.4944648,13.2988939 30.8179862,14.458302 30.8244249,15.6426535 C30.8280293,16.3229537 30.7288326,17.0075347 30.5327441,17.676804" id="Fill-21" fill="#42210B" mask="url(#mask-4)"></path>
                <path d="M15.380924,9.70798842 C15.7960685,10.7402931 16.2960859,11.7369527 16.8733204,12.687348 C17.4501433,13.6384019 18.1012196,14.5439323 18.7988896,15.4144763 C19.4972182,16.2848556 20.2353078,17.1256817 20.9790775,17.9639559 L22.0964197,19.2219846 C22.4676871,19.6409159 22.8423297,20.0483222 23.2340128,20.4492252 C23.6228969,20.8511161 24.0172142,21.2501257 24.4070039,21.6564618 C24.7960527,22.0638682 25.1788451,22.4800006 25.544597,22.9139966 C25.9096904,23.3485689 26.2507461,23.8072612 26.5571446,24.290979 L26.6699243,24.4738962 C26.7070511,24.5352253 26.7465651,24.5949079 26.7792466,24.6591183 L26.9839787,25.0382885 C27.1065546,25.2985874 27.2329996,25.557816 27.3283273,25.83071 C27.5350351,26.3699121 27.669136,26.9355393 27.7493989,27.5041301 C27.8293325,28.0734618 27.8537818,28.6473211 27.8413514,29.2173936 C27.8157496,30.3586912 27.6469093,31.4818781 27.4591352,32.5900003 C27.4379787,32.7147166 27.3197659,32.7986016 27.195132,32.7774451 C27.0704981,32.756371 26.9865307,32.6381581 27.0076872,32.5135242 L27.0078518,32.5123717 C27.199495,31.4114937 27.3687468,30.3097102 27.3979708,29.2066095 C27.4273593,28.1068841 27.310299,27.0002436 26.9260248,25.9803694 C26.8376944,25.7227872 26.7184937,25.4768122 26.603656,25.2294378 L26.4102841,24.8677196 C26.3796607,24.8065551 26.3417931,24.7491774 26.3065597,24.6904002 L26.1993778,24.514892 C25.9076324,24.0501903 25.5804066,23.6051632 25.225768,23.179564 C24.8705531,22.7543763 24.4956636,22.3431008 24.1119656,21.9377525 C23.7270329,21.5331451 23.334609,21.132736 22.9454779,20.7270584 C22.554865,20.324015 22.171908,19.9040959 21.8011344,19.4820364 L20.6895547,18.2197271 C19.9484193,17.3771722 19.2097534,16.5286079 18.5078851,15.646292 C17.8068399,14.7638115 17.1493425,13.8416523 16.5670042,12.8721585 C15.9840896,11.9030764 15.4793799,10.8860835 15.0620127,9.83542125 C15.0270263,9.74725551 15.0701624,9.64748253 15.1582458,9.61241381 C15.2463293,9.57742741 15.3458553,9.61982269 15.380924,9.70798842" id="Fill-23" fill="#42210B" mask="url(#mask-4)"></path>
                <path d="M18.8113118,22.7513139 C18.8055494,22.7711533 18.7959178,22.7903341 18.7825818,22.8077038 C18.2132502,23.5476867 18.1499454,23.8067508 17.9969931,24.4324723 C17.9485883,24.6306188 17.8937626,24.8551903 17.8125941,25.140597 C17.8125118,25.1410909 17.8123472,25.1415849 17.8121825,25.1420788 C17.7857575,25.2323849 17.6913354,25.2846587 17.6005354,25.2588922 C17.5094061,25.2329611 17.4563914,25.1380451 17.4822402,25.0468335 C17.5616799,24.7674362 17.6157648,24.5461575 17.6635109,24.3509745 C17.8237075,23.6950412 17.8968908,23.3958046 18.5104288,22.5982793 C18.5683004,22.5232026 18.6759762,22.5091257 18.7512175,22.566915 C18.8090068,22.6113683 18.8306573,22.6853749 18.8113118,22.7513139" id="Fill-25" fill="#87724D" mask="url(#mask-4)"></path>
                <path d="M20.7181942,24.38387 C20.6969554,24.4561478 20.6295345,24.5084216 20.5505064,24.5071288 C20.455755,24.5055403 20.3801844,24.4273354 20.3817485,24.332584 C20.3968955,23.4309227 20.4575661,23.1756455 20.5677115,22.7122609 C20.6203146,22.4912291 20.6856774,22.2161126 20.7633884,21.7915834 C20.7809227,21.6985608 20.8699117,21.6365731 20.9631813,21.6536135 C21.0563686,21.6707363 21.1181916,21.7601368 21.1011512,21.8534065 C21.0217938,22.2867439 20.9552785,22.5667175 20.9017699,22.7916183 C20.7937648,23.2460299 20.7395976,23.4740589 20.7250268,24.3383465 C20.7247799,24.3541521 20.7223925,24.3693815 20.7181942,24.38387" id="Fill-27" fill="#87724D" mask="url(#mask-4)"></path>
                <path d="M27.8457885,19.1543579 C27.8452122,19.1562513 27.844636,19.1580624 27.8440597,19.1599557 C27.8143419,19.2500148 27.7172032,19.2989135 27.6272264,19.269278 C26.6495828,18.9467445 25.5255727,18.9964663 24.6205362,19.4020616 C24.5340169,19.4407525 24.4323505,19.402144 24.3935774,19.3155423 C24.3549688,19.229023 24.3935774,19.1275213 24.4800144,19.0887481 C25.4611977,18.6489896 26.6779012,18.5945755 27.7347375,18.9431224 C27.8229856,18.9721817 27.8717196,19.0659452 27.8457885,19.1543579" id="Fill-29" fill="#87724D" mask="url(#mask-4)"></path>
                <path d="M28.4535475,14.068109 C28.4350253,14.1310845 28.3811051,14.1806417 28.3118732,14.1900263 C27.8459367,14.2533311 27.4957434,14.5476285 27.1866282,14.8561674 C26.9524251,15.0901235 26.8534753,15.188497 26.754114,15.2872822 C26.6554935,15.3854087 26.5565437,15.4838646 26.3236578,15.7163389 C26.2566485,15.7833482 26.1478202,15.7832659 26.0808933,15.7161743 C26.013884,15.6490827 26.0139664,15.5404191 26.0810579,15.4733275 C26.3141908,15.2406062 26.4133053,15.1419857 26.5120081,15.0437768 C26.6112048,14.9452387 26.7099899,14.8468651 26.9440284,14.6132383 C27.2956211,14.2622218 27.6990761,13.9267639 28.2656088,13.8497938 C28.359537,13.8369518 28.4460563,13.9028085 28.4588161,13.9967367 C28.4621912,14.021433 28.4601332,14.0456354 28.4535475,14.068109" id="Fill-31" fill="#87724D" mask="url(#mask-4)"></path>
            </g>
        </g>
    </g>
</svg>