<?xml version="1.0" encoding="UTF-8"?>
<svg width="25px" height="22px" viewBox="0 0 25 22" version="1.1" xmlns="http://www.w3.org/2000/svg" xmlns:xlink="http://www.w3.org/1999/xlink">
    <title>Farm备份</title>
    <defs>
        <polygon id="path-1" points="0 0 11.2715303 0 11.2715303 16.8770519 0 16.8770519"></polygon>
        <polygon id="path-3" points="0 0 4.15551929 0 4.15551929 6.98078064 0 6.98078064"></polygon>
        <polygon id="path-5" points="0 0 10.1554915 0 10.1554915 15.4395105 0 15.4395105"></polygon>
    </defs>
    <g id="页面-1" stroke="none" stroke-width="1" fill="none" fill-rule="evenodd">
        <g id="launchpad-My-Reward--" transform="translate(-264.000000, -664.000000)">
            <g id="编组" transform="translate(256.999966, 655.000000)">
                <g id="Farm备份" transform="translate(7.000034, 9.000000)">
                    <path d="M15.9498596,15.8188293 C15.8031481,17.168064 15.5606119,18.4638945 14.8107802,19.6403188 C14.1222587,20.8202508 12.7981182,22.0685065 11.3425569,21.6356409 C8.19873127,21.0365848 7.9350045,12.7458388 9.2864321,9.38917846 C10.5028989,6.09214707 13.9156629,6.16714024 15.0147211,9.49835823 C15.6579607,10.3251603 16.1011436,13.382095 16.0504042,14.1041636 C16.0870821,14.619334 16.2372844,15.3006454 15.9498596,15.8188293" id="Fill-1" fill="#E69469"></path>
                    <g id="编组" transform="translate(0.000000, 4.058654)">
                        <mask id="mask-2" fill="white">
                            <use xlink:href="#path-1"></use>
                        </mask>
                        <g id="Clip-4"></g>
                        <path d="M11.2495544,0.0833103173 C10.8691074,-0.205398535 10.3733659,0.341093136 10.0383976,0.439898356 C9.87246209,0.501750424 9.47072618,0.631037054 9.73592793,0.875728182 C7.72528174,-0.369069382 5.55086339,0.929774637 4.13561823,2.34743193 C0.51866756,4.46961985 -0.819485206,10.4652194 0.493494535,13.9973578 C0.804666555,14.8354731 1.26569674,15.534767 1.88056754,16.0106624 C2.07600264,16.1621802 2.34248271,16.3102398 2.64755814,16.4448125 C3.53067898,16.8336111 4.6491086,16.9463972 5.39053285,16.8379585 C5.42912821,16.8166166 5.57815055,16.7730929 5.6072077,16.7508617 C5.9798373,16.4700078 5.56212241,16.3324216 5.09671645,16.0246433 C5.06466018,15.9188229 5.03216141,15.6940905 4.91386786,15.7058483 C4.91170455,15.7028347 4.90954125,15.6993765 4.90737794,15.6963136 C3.75428624,13.9489927 3.2624781,11.1845708 3.14978948,9.10027469 C2.7294688,8.00911925 3.28022705,6.45293703 4.13478241,5.70927954 C4.51262361,5.39354746 4.70805872,4.8946305 4.92601188,4.42565153 C5.14357171,3.95716658 5.38404293,3.51782917 5.85116971,3.32100917 C6.59087314,3.00883408 7.4267454,2.70016657 8.25224361,2.75455884 C8.39000692,2.95701074 8.62792151,2.79462436 8.73018692,2.66528833 C8.91092137,2.55467588 9.15394923,2.69794345 9.34510688,2.71098574 C9.51236983,2.7972427 9.67786281,2.54029972 9.498505,2.44757102 C9.40921943,2.40187361 9.06820361,2.30741582 8.98845626,2.26907939 C9.66704627,2.49109472 10.4812855,2.42929206 10.6758356,1.60244057 C10.9505755,1.59547481 10.9661612,1.29594678 11.0016591,1.07906932 C11.0134098,0.906209592 11.3609155,0.247425788 11.2495544,0.0833103173" id="Fill-3" fill="#E69469" mask="url(#mask-2)"></path>
                    </g>
                    <path d="M5.14007109,19.9091184 C5.10840814,19.8045825 5.02349835,19.7449536 4.90736811,19.7549823 C4.90608979,19.7545377 4.90436898,19.7549823 4.90304149,19.7549823 C4.84974548,19.7197088 4.80338188,19.6774696 4.76311487,19.6286598 C3.43882694,19.7201535 1.53133115,19.1388329 0.493533868,18.0559771 C0.804656722,18.8941418 1.2656869,19.5933864 1.88060687,20.0693311 C2.07604197,20.2208489 2.34252204,20.3689085 2.64759747,20.5034318 C3.24644013,20.70371 3.92070353,20.8548326 4.35056243,20.9401509 C4.77909384,21.0437976 5.16691576,21.0211712 5.47720279,20.9401509 C5.91748489,20.8260803 6.09989099,20.5452264 5.14007109,19.9091184" id="Fill-5" fill="#C67958"></path>
                    <path d="M13.8491363,4.48339554 C13.5311793,4.36443406 12.5491855,3.64088343 12.3211042,4.04198322 C12.2816238,4.1134688 12.3150076,4.18757271 12.3795134,4.22185813 C12.2918012,4.63432052 12.1968615,5.40302513 12.5475139,5.70685118 C12.7149243,5.77408813 12.7789877,5.63417994 12.8305138,5.50163274 C12.9645896,5.49051715 13.0475328,5.34438423 13.1332784,5.25427387 C13.41146,5.07988266 13.6421963,4.83118992 13.9635457,4.71445155 C14.1153705,4.64415164 13.9855229,4.43878499 13.8491363,4.48339554" id="Fill-7" fill="#E69469"></path>
                    <path d="M19.4403847,5.44076378 C17.8530583,4.42045168 14.2850278,3.9022183 13.0393073,5.5603181 C12.9292736,5.63970809 12.5389442,5.85460945 12.8354648,5.99308496 C12.8457896,6.0827507 12.9392052,6.15344583 13.0300149,6.10300577 C13.1490459,6.05582628 13.6720254,6.20344127 13.7972513,6.21129629 C14.4104996,6.83144725 15.1244892,6.13635253 15.701748,5.88583189 C15.9701455,5.88607891 16.1735947,5.76212776 16.4156392,5.67508036 C16.9529751,5.63708975 17.4919335,5.46976311 18.0323177,5.59020668 C18.1691961,5.61787214 18.6731974,5.66435999 18.8256614,5.66519984 C18.9106203,5.79409125 19.1717904,5.76039867 19.2139258,5.6095725 C19.3859087,5.77843062 19.6161533,5.60828803 19.4403847,5.44076378" id="Fill-9" fill="#E69469"></path>
                    <path d="M10.9540516,7.16372427 C10.9141287,7.39591653 10.5484807,7.41360267 10.3785628,7.46848897 C10.2027941,7.9819797 9.50571767,7.96286089 9.33860221,8.48909749 C8.96371098,9.37458987 8.70327833,10.7876527 8.55464932,11.9000513 C8.58080567,12.9711493 8.38832053,14.2226656 8.44554983,15.3011246 C8.48503018,16.8812671 8.28108934,18.8031768 9.329064,20.1398632 C9.71590259,20.65533 10.6949464,21.0680889 9.59205327,21.4809959 C7.7048139,22.017113 5.40959453,20.9575258 4.53881437,19.1072005 C3.6280622,16.7449653 2.60678472,13.9794071 3.44831107,11.4433736 C4.26255026,8.97502156 6.24340181,6.68886638 9.03691924,6.78870905 C9.34012636,6.78555512 9.64623428,6.81429961 9.94570477,6.86419624 C10.2850981,6.85535318 10.9160954,6.61718319 10.9540516,7.16372427" id="Fill-11" fill="#E69469"></path>
                    <path d="M9.59209752,21.4809316 C7.77683727,21.8225013 5.70699514,21.1736968 4.72411635,19.4436668 C6.11610596,20.2448289 7.97094489,20.5478645 9.32905908,20.1398484 C9.72725503,20.6500785 10.6901232,21.0668884 9.59209752,21.4809316" id="Fill-13" fill="#C67958"></path>
                    <path d="M15.7903796,17.0214272 C15.6226742,18.943831 15.2166117,19.5399229 13.7732435,20.9375227 C12.4418265,22.3103224 10.04739,21.7538514 9.50154838,19.951743 C12.0451547,21.9026521 14.3558122,19.2644539 15.1867679,16.9260308 C15.513968,16.0133669 15.8501164,14.1873477 15.96369,13.2333339 C15.9366978,13.7972153 16.09811,16.4620414 15.7903796,17.0214272" id="Fill-15" fill="#C67958"></path>
                    <path d="M21.2260617,12.8697751 C20.8047085,9.01019622 17.5588141,5.89526285 13.528426,6.64998653 C13.1572714,6.7781863 13.315537,7.39487908 13.7247461,7.27517656 C15.5312057,8.68784419 15.827677,11.5216767 16.0268979,13.6882282 C16.0915513,14.6128474 15.952018,15.2989509 15.9420864,16.2559782 C15.9316632,16.5662266 15.9471506,17.0946369 15.8228587,17.3774175 C15.6985178,17.6602968 15.5908441,17.9453993 15.6469426,18.2645401 C15.2871453,19.1267639 14.9882648,20.0616095 14.3881438,20.7942996 C14.360955,20.8021052 14.3345037,20.8115905 14.3092815,20.8221627 C14.2715711,20.9070857 14.2316974,20.991169 14.1892671,21.0738196 C14.1552442,21.0925925 14.1225979,21.1124524 14.0922133,21.1347824 C18.3989147,24.7375171 21.9971331,16.0107931 21.2260617,12.8697751" id="Fill-17" fill="#E69469"></path>
                    <path d="M21.2260617,12.8697751 C21.1920388,12.5946026 20.9569758,11.5367939 20.8746227,11.28489 C20.775258,15.0385497 19.353818,20.9917618 14.6979884,20.3601989 C14.6296967,20.4576702 14.3602667,20.824287 14.3092815,20.8221627 C14.2904509,20.8645995 14.2105068,21.0324696 14.1892671,21.0738196 C14.1715181,21.0836507 14.1067173,21.1241114 14.0922133,21.1347824 C18.4460158,24.7221035 21.9794825,16.0016536 21.2260617,12.8697751" id="Fill-19" fill="#C67958"></path>
                    <path d="M24.6786109,13.5393633 C24.3167978,12.250548 24.0159507,10.2760245 23.4578175,9.05123497 C22.099015,6.35143173 18.7634909,4.77232671 15.9106792,5.94662675 C14.1533365,6.60506473 15.8581206,6.30780923 16.4426068,6.5702853 C19.6489717,7.61356961 21.184477,10.6115176 21.4287832,13.851489 C21.4921091,16.0064802 20.4284996,18.9713779 18.9288363,20.5114054 C18.5857555,20.9974283 20.6487636,20.3975818 20.5866177,20.3951611 C21.6389681,20.2515971 22.3689858,19.2572214 23.0105047,18.5111925 C24.1191994,17.1014891 24.393251,15.2415796 24.6786109,13.5393633" id="Fill-21" fill="#E69469"></path>
                    <path d="M24.6788026,13.5394621 C24.3730389,15.8274452 23.7817678,18.1156753 21.9436453,19.6864312 C21.1769005,20.3778208 20.6562319,20.3999531 19.5514705,20.6517088 C19.1120733,20.7246271 18.7413612,20.7313458 18.9285364,20.5112572 C19.5605662,19.9312212 20.0862497,19.2481807 20.4920173,18.4948897 C21.9406462,17.5931932 22.9886208,16.0247592 23.5601272,14.4364159 C24.2647752,12.5236456 23.8905723,10.5510488 23.2397119,8.67241575 C24.0341864,9.98059687 24.2490421,12.091274 24.6788026,13.5394621" id="Fill-23" fill="#C67958"></path>
                    <g id="编组" transform="translate(9.846333, 0.000000)">
                        <mask id="mask-4" fill="white">
                            <use xlink:href="#path-3"></use>
                        </mask>
                        <g id="Clip-26"></g>
                        <path d="M4.06776673,6.54020899 C3.50270115,6.90633173 3.10460353,6.98596874 2.46750967,6.74434057 C1.95628094,6.87876507 1.3584216,7.12854467 0.842079596,6.86458652 C0.565766316,7.02484859 0.273965725,6.88894201 0.147461442,6.63165322 C-0.027569746,6.62646594 -0.0397629299,6.42594075 0.0738106782,6.33380488 C0.241466957,6.30401511 0.533660876,6.06322679 0.799895113,5.71236945 C1.56128078,4.76374053 1.41314343,3.39296631 1.83788906,2.29034946 C2.05013896,1.59238939 2.31848733,0.910583967 2.64175421,0.24720572 C2.80557553,-0.0332528968 3.09821194,-0.0507414207 3.311101,0.0738025591 C3.52403923,0.198346539 3.65727926,0.464923022 3.50225866,0.752742628 C3.19806822,1.39221001 2.9196408,2.41647432 2.71683079,3.28976426 C2.51397161,4.1631036 2.38668067,4.88541916 2.38471402,4.92093964 C2.43196261,5.81216272 2.90985675,6.21795576 3.77960443,6.26503645 C3.98738021,6.12008919 4.31320372,6.3171562 4.06776673,6.54020899" id="Fill-25" fill="#9B8557" mask="url(#mask-4)"></path>
                    </g>
                    <path d="M1.81898212,10.2963536 C1.8019215,10.082885 1.49615775,9.99178656 1.41331293,10.2245223 C1.23665926,10.5265698 1.27589378,11.1239462 1.75059213,10.8955579 C1.95138633,10.7597501 1.87222897,10.4896167 1.81898212,10.2963536" id="Fill-27" fill="#F9C5AF"></path>
                    <path d="M4.38354303,11.7073169 C3.9558966,11.5024937 3.79477941,12.409328 4.17129313,12.5194464 C4.5513468,12.6635538 4.58994216,11.8579454 4.38354303,11.7073169" id="Fill-29" fill="#F9C5AF"></path>
                    <path d="M7.35652642,8.39006008 C6.81255309,7.6106351 5.80381295,8.74057159 5.39991374,9.17906916 C5.06814114,9.63006559 4.40297345,10.9338993 5.16578494,11.2382193 C5.8954585,11.3451266 6.00485299,10.3255555 6.42655032,9.94273471 C6.67587143,9.48230238 7.58814775,8.94539481 7.35652642,8.39006008" id="Fill-31" fill="#F9C5AF"></path>
                    <path d="M4.17448892,6.99091394 C3.38094865,7.04935723 2.2316919,8.38540141 2.25121083,9.1801906 C2.25971656,9.6325703 2.88692803,9.73987277 3.08201898,9.36411652 C3.33124176,8.86841073 3.76557477,8.44537618 4.12896115,8.04096641 C4.25271213,7.91484155 4.38428052,7.798449 4.54411939,7.69312264 C5.08007866,7.32472737 4.71241483,6.98414578 4.17448892,6.99091394" id="Fill-33" fill="#F9C5AF"></path>
                    <path d="M11.2601644,8.24021208 C10.6145648,8.39064303 10.1324916,9.05021727 9.96753942,9.66453873 C9.90509852,9.96846358 9.72564239,10.6519487 10.1317541,10.7155299 C10.6976063,10.6824301 10.7693396,9.78033845 11.1237286,9.37696614 C11.3415342,9.03109846 12.0822702,8.20311072 11.2601644,8.24021208" id="Fill-35" fill="#F9C5AF"></path>
                    <path d="M8.36671204,21.7222072 C5.60554588,21.701455 4.06123981,19.1007534 3.47114871,16.6250404 C3.12236465,15.3290123 2.91316305,14.1977914 2.98101222,12.9774975 C3.12575711,8.95370433 7.20088633,5.20849247 11.1676044,7.00146139 L11.0550141,7.23696364 C7.25059322,5.53005406 3.3790115,9.15195701 3.24060903,12.9933558 C3.17438235,15.0247911 3.78507403,17.4987256 4.81588973,19.2739096 C5.87010847,21.0908388 8.24163357,22.1135716 10.1344779,21.0143141 L10.2664396,21.2394418 C9.74488598,21.5531484 9.03704216,21.7256623 8.36671204,21.7222072" id="Fill-37" fill="#42210B"></path>
                    <path d="M8.81528354,16.7856088 C9.01647108,18.3724206 9.36014187,19.5988898 9.83651186,20.4310274 C10.2723199,21.2043758 11.0245115,21.6759237 11.9004049,21.725524 C12.832741,21.7783848 13.7237776,21.3447286 14.2862865,20.5659459 C15.3647933,19.0332299 15.9642259,16.5627042 15.8888052,13.9586432 C15.8103853,11.2530105 15.0277599,8.94165998 13.741379,7.61628676 C13.1448963,7.06564527 12.4607997,6.85459732 11.7632807,7.00596691 C10.8095083,7.21281564 9.88051549,8.08679721 9.39652475,9.23239434 L9.3958856,9.23402462 C8.37057649,11.5736828 8.56350413,13.8342475 8.78686556,16.4516965 L8.81528354,16.7856088 Z M12.0529672,21.991063 C11.9973604,21.991063 11.9417044,21.9895315 11.8858026,21.9863203 C10.9197878,21.9316811 10.0905529,21.4119656 9.61069213,20.5605116 C9.11726151,19.6986337 8.76257752,18.4384719 8.55706338,16.815942 L8.55647338,16.8105077 L8.52785873,16.4740265 C8.30139984,13.8212052 8.10591557,11.5300109 9.15752852,9.1295381 C9.67362469,7.9085526 10.6747933,6.97484327 11.7084114,6.75060482 C12.4933476,6.58031403 13.2579783,6.81403777 13.9199993,7.42643253 L13.9249159,7.43122458 C15.2578079,8.80254223 16.0683105,11.178956 16.1486478,13.9510846 C16.2257402,16.6096861 15.6085095,19.1394455 14.4976022,20.7180565 C13.9157219,21.5237143 13.0117054,21.991063 12.0529672,21.991063 L12.0529672,21.991063 Z" id="Fill-39" fill="#42210B"></path>
                    <path d="M15.7191036,22 C15.0468068,22.0058294 14.3099059,21.7451813 13.8980909,21.2199821 L14.1017368,21.0575463 C14.8201513,21.9178434 16.1296402,21.857424 17.1017517,21.4422445 C18.6285054,20.8203644 19.7547033,19.4943984 20.3918463,17.9589652 C21.7974058,14.7758563 21.409043,10.467504 18.7444882,8.06866152 C17.4772821,6.90078382 14.6770289,5.94316362 13.2477714,7.06643077 L13.073281,6.87277254 C13.8542348,6.19516634 14.9249242,6.24733549 16.0314064,6.45250453 C18.1791276,6.84896048 19.873046,8.40005422 20.720079,10.4326258 C22.5849478,14.5287938 20.8202794,21.5846228 15.7191036,22" id="Fill-41" fill="#42210B"></path>
                    <path d="M4.69491171,21.0982541 C-0.12400173,20.8049508 -0.575542863,14.0109557 0.544509243,10.4032313 C1.90916252,6.18330971 6.2813531,4.15617242 10.1438391,6.67007363 L9.99712756,6.88576542 C6.26925825,4.46958257 2.10445012,6.43012515 0.790044567,10.4895376 C-0.0825055722,13.362497 0.0400654256,17.743224 2.3215183,19.9088368 C3.20660578,20.7249186 4.74368445,21.1284391 5.8217979,20.5919267 L5.93360153,20.8277748 C5.55807113,21.0074521 5.13848794,21.0982541 4.69491171,21.0982541" id="Fill-43" fill="#42210B"></path>
                    <g id="编组" transform="translate(14.594509, 5.405462)">
                        <mask id="mask-6" fill="white">
                            <use xlink:href="#path-5"></use>
                        </mask>
                        <g id="Clip-46"></g>
                        <path d="M4.4954499,15.4339075 C4.32735113,15.4339075 4.15231994,15.4281274 3.96897969,15.4165672 L3.98525366,15.1558696 C7.06536007,15.5793982 9.13505471,12.6985838 9.64766009,9.98237892 C10.3399674,6.73228001 9.48949286,3.71358293 7.05070859,1.62019673 C5.04360235,-0.0746586085 2.23454845,-0.112056384 0.138451636,1.16766883 L0,0.946542743 C5.98532914,-2.43936394 11.4001353,3.88421954 9.90381529,10.0265448 C9.41235131,12.6452784 7.43218808,15.5851783 4.4954499,15.4339075" id="Fill-45" fill="#42210B" mask="url(#mask-6)"></path>
                    </g>
                    <path d="M14.3111252,6.59356875 C14.0095406,6.38553435 12.7111631,6.35732546 12.4405531,5.88345563 C11.6637293,4.90227039 12.5703515,1.58251381 12.8877185,0.374471784 C12.5376069,0.00177849396 12.2324332,0.601871998 12.1989019,0.927929224 C12.0259849,1.59392581 11.3835319,4.65945656 11.1559914,5.24403765 C10.8546034,5.95805357 10.3075818,6.65789094 9.4908351,6.5700531 L9.52348136,6.31088701 C10.5366956,6.36527928 10.9756994,5.16845165 11.1506814,4.30899445 C11.3701587,3.73118152 11.8200282,0.481230824 12.3236362,0.116441952 C12.5809714,-0.111155872 13.1822232,0.0212925249 13.1471186,0.414883119 C12.8462223,1.53073987 11.9674281,4.80613291 12.6435598,5.72037761 C12.9350654,6.14998271 14.2045332,6.13239538 14.4793715,6.39442682 L14.3111252,6.59356875 Z" id="Fill-47" fill="#42210B"></path>
                    <path d="M4.18248332,6.40223244 L3.99865141,6.21751608 C5.63430803,4.45581901 9.40780345,3.55634569 10.8715755,5.7143505 L10.6560315,5.86038461 C9.27033513,3.85103225 5.71110542,4.75742194 4.18248332,6.40223244" id="Fill-49" fill="#42210B"></path>
                    <path d="M19.8566147,6.00850352 C18.5070063,4.7930017 14.4372361,3.60551116 12.7364837,5.98864367 L12.5177438,5.8473522 C14.4193397,3.31966766 18.3628514,4.42984311 20.0440849,5.82749235 L19.8566147,6.00850352 Z" id="Fill-51" fill="#42210B"></path>
                    <path d="M14.1242056,4.83104665 C13.5845098,4.44511346 12.9985486,4.1770055 12.3637656,4.07983056 L12.3962152,3.86463279 C13.064677,3.96679739 13.6824977,4.24794764 14.2499724,4.65374068 L14.1242056,4.83104665 Z" id="Fill-53" fill="#42210B"></path>
                    <path d="M9.58210698,4.84908848 L9.43219965,4.63566921 C10.0227824,4.21708089 10.6711353,3.92916248 11.3665401,3.83465529 L11.4012514,4.09357437 C10.7469985,4.18264727 10.1389618,4.45470745 9.58210698,4.84908848" id="Fill-55" fill="#42210B"></path>
                </g>
            </g>
        </g>
    </g>
</svg>