<?xml version="1.0" encoding="UTF-8"?>
<svg width="1920px" height="214px" viewBox="0 0 1920 214" version="1.1" xmlns="http://www.w3.org/2000/svg" xmlns:xlink="http://www.w3.org/1999/xlink">
    <title>位图</title>
    <defs>
        <rect id="path-1" x="0" y="0" width="1920" height="214"></rect>
        <polygon id="path-3" points="0 0 1331.58336 0 1331.58336 419.20498 0 419.20498"></polygon>
        <polygon id="path-5" points="0 0 41.6687849 0 41.6687849 70.3048492 0 70.3048492"></polygon>
        <polygon id="path-7" points="0 0 103.530606 0 103.530606 94.7449952 0 94.7449952"></polygon>
    </defs>
    <g id="页面-1" stroke="none" stroke-width="1" fill="none" fill-rule="evenodd">
        <g id="harwell-launchpad-new" transform="translate(0.000000, -101.000000)">
            <g id="位图" transform="translate(0.000000, 101.000000)">
                <mask id="mask-2" fill="white">
                    <use xlink:href="#path-1"></use>
                </mask>
                <use id="蒙版" fill="#D8D8D8" xlink:href="#path-1"></use>
                <g id="编组" mask="url(#mask-2)">
                    <g transform="translate(0.000000, -393.000000)">
                        <polygon id="Fill-1" fill="#FFE3B9" points="0 959.999952 1920 959.999952 1920 0.000432 0 0.000432"></polygon>
                        <g id="编组" stroke-width="1" fill="none" transform="translate(0.000240, 0.000000)">
                            <path d="M1919.99976,0 L1854.63432,0 C1753.69944,10.76304 1681.90296,31.76352 1683.3468,70.74624 C1688.07192,197.9328 1186.67736,81.11568 1199.27784,196.62 C1212.00984,312.1248 716.91528,303.33024 856.5708,426.05424 C975.88152,530.92704 1470.582,504.15072 1919.99976,508.35072 L1919.99976,0 Z" id="Fill-2" fill="#FFD899"></path>
                            <path d="M847.12032,0 L0,0 L0,568.3344 C122.32944,593.14176 358.9824,597.47328 296.11104,430.77936 C220.90224,231.53424 594.9792,246.89088 773.35488,105.79152 C819.42576,69.3024 840.82032,33.33888 847.12032,0" id="Fill-4" fill="#FFBC78"></path>
                            <g transform="translate(588.416400, 540.794972)">
                                <mask id="mask-4" fill="white">
                                    <use xlink:href="#path-3"></use>
                                </mask>
                                <g id="Clip-7"></g>
                                <path d="M1331.58336,46.9655075 L1331.58336,419.205028 L0,419.205028 C43.31424,320.238628 165.7752,137.399908 477.1128,145.669348 C903.03504,156.957028 1152.15744,-103.584092 1331.58336,46.9655075" id="Fill-6" fill="#FFBC78" mask="url(#mask-4)"></path>
                            </g>
                            <path d="M1827.59602,439.573392 C1823.78962,438.785712 1821.42706,438.785712 1819.72114,439.179792 C1818.01426,439.442352 1817.09554,440.361072 1816.30786,441.279792 C1814.73298,442.986192 1813.94578,445.348752 1809.74578,444.167472 C1808.30194,443.904912 1806.85762,443.642352 1805.5453,443.642352 C1804.2325,443.642352 1803.05122,443.773392 1802.1325,444.167472 C1800.29506,444.823632 1799.37634,446.530032 1800.82018,449.680272 C1799.37634,451.648752 1797.66994,451.648752 1795.96402,451.123632 C1794.1261,450.467472 1792.28818,449.417712 1790.18818,449.548752 C1788.2197,449.680272 1786.9069,450.073872 1786.77586,450.861552 C1786.77586,451.648752 1787.8261,452.830032 1790.84482,454.405392 C1786.77586,457.555152 1782.05026,455.586672 1778.63794,454.536432 C1775.22562,453.223632 1772.9941,452.567952 1773.78178,457.949232 C1771.55026,457.817712 1769.71234,457.424112 1768.13746,456.767952 C1766.69362,456.111792 1765.3813,455.193072 1764.33106,454.405392 C1762.23106,452.567952 1760.78722,450.467472 1759.21234,448.367472 C1753.9621,441.804432 1753.83058,449.286192 1755.01186,453.617712 C1746.48034,450.467472 1738.60546,440.754672 1735.98034,429.991632 C1735.19266,427.366512 1734.9301,424.479312 1734.79906,421.853712 C1734.79906,419.229072 1734.9301,416.603472 1735.45522,414.109872 C1736.6365,408.991152 1738.7365,404.659632 1742.01778,400.984272 C1746.08674,397.571952 1750.5493,394.684272 1754.88082,392.452752 C1757.11234,391.271472 1759.34338,390.352752 1761.44386,389.565072 C1763.54386,388.646352 1765.7749,387.990192 1767.8749,387.465072 C1776.14434,385.233552 1783.36354,385.102512 1790.18818,388.646352 C1787.8261,392.321712 1789.53202,393.502992 1791.63202,394.159152 C1792.8133,394.421712 1793.99458,394.815312 1794.78274,395.209392 C1795.70146,395.734032 1796.2261,396.390672 1796.2261,397.702992 C1794.78274,400.722192 1796.48866,400.984272 1798.45762,401.115792 C1800.4261,401.378352 1802.5261,401.771952 1803.05122,405.446832 C1799.90146,409.515792 1800.95122,409.909872 1803.18274,410.040912 C1805.28274,410.172432 1808.30194,409.778352 1809.3517,412.928592 C1806.98866,416.209872 1808.30194,417.653712 1810.40194,418.703952 C1812.37042,419.753712 1815.12658,420.672912 1815.52066,423.166512 C1813.94578,424.347792 1813.81426,425.266512 1814.60194,426.316752 C1815.38914,427.366512 1816.9645,428.154192 1818.80194,429.335472 C1820.63986,430.516752 1822.73986,431.566992 1824.44626,433.141872 C1826.15218,434.716752 1827.46498,436.817232 1827.59602,439.573392" id="Fill-16" fill="#E4B474"></path>
                            <path d="M1754.48693,406.75968 C1755.53717,408.85968 1756.32437,410.95968 1756.84949,412.92864 C1757.37461,414.76608 1757.76869,416.60352 1757.89925,418.17888 C1758.29333,421.5912 1757.89925,424.34784 1757.50565,426.3168 C1758.29333,424.74144 1758.94997,422.11632 1759.08101,419.0976 C1759.21253,417.52224 1759.21253,415.81632 1758.94997,414.10992 C1758.94997,413.32224 1758.68741,412.40352 1758.55637,411.4848 C1758.42437,410.56608 1758.16229,409.64736 1757.89925,408.72864 C1759.34309,409.64736 1760.91845,410.43456 1762.49381,411.22224 C1764.06869,412.00992 1765.51253,412.92864 1767.21845,413.5848 C1768.53125,415.55376 1769.44997,417.52224 1770.23717,419.22912 C1771.02533,421.06656 1771.55045,422.77248 1771.81301,424.34784 C1772.46917,427.62912 1772.46917,430.38576 1772.46917,432.35424 C1773.38789,429.07296 1773.78149,422.24784 1770.89429,415.2912 C1774.43765,416.9976 1777.98149,418.57248 1781.39429,420.01632 C1782.83813,421.72272 1784.01941,423.42912 1784.93813,425.004 C1785.98837,426.7104 1786.64453,428.28528 1787.16965,429.86016 C1788.21941,432.74832 1788.61349,435.50448 1788.74453,437.34192 C1789.26965,433.9296 1788.74453,427.76016 1785.33221,421.5912 C1789.00709,423.03504 1792.41941,424.21632 1795.83269,425.66016 C1797.53861,427.104 1798.98245,428.54784 1800.16373,430.1232 C1801.34501,431.56704 1802.39525,433.0104 1803.05141,434.45424 C1804.62629,437.21088 1805.41397,439.96704 1805.93861,441.80448 C1805.80805,438.5232 1804.49525,432.74832 1800.55733,427.36656 C1802.13269,428.02272 1803.70757,428.4168 1805.28245,429.07296 C1806.72677,429.59808 1808.17061,430.1232 1809.74549,430.64832 C1811.18933,431.17296 1812.50165,431.8296 1813.94549,432.35424 C1815.25781,432.87936 1816.57061,433.40448 1817.88293,434.06064 C1817.88293,434.06064 1817.62085,433.66704 1816.83365,433.27296 C1816.17701,432.74832 1815.12677,432.09168 1813.68293,431.30448 C1812.23909,430.5168 1810.40165,429.46656 1808.17061,428.4168 C1806.07013,427.23552 1803.57653,426.18528 1800.68885,424.74144 C1804.36373,422.904 1806.20117,419.4912 1806.85733,417.52224 C1805.80805,419.36016 1803.70757,422.77248 1798.98245,423.95424 C1798.06373,423.56016 1797.14501,423.16656 1796.22629,422.77248 C1795.30757,422.37888 1794.38885,421.85376 1793.46965,421.46016 C1792.41941,420.93504 1791.50069,420.54144 1790.45093,420.14784 C1789.40069,419.62272 1788.35093,419.0976 1787.16965,418.57248 C1792.68197,416.60352 1795.70117,412.14096 1796.88245,409.64736 C1795.96373,410.95968 1794.51989,412.66608 1792.55093,414.10992 C1790.58197,415.55376 1787.82581,416.86608 1784.28197,417.25968 C1782.83813,416.60352 1781.26277,415.81632 1779.68789,415.15968 C1778.11301,414.37248 1776.53765,413.5848 1774.83173,412.7976 C1780.21301,410.95968 1783.49477,407.2848 1785.06965,404.79072 C1784.01941,406.10304 1782.44453,407.54736 1780.21301,408.85968 C1779.16277,409.3848 1777.98149,410.04096 1776.53765,410.43456 C1775.22533,410.95968 1773.65045,411.22224 1771.94405,411.22224 C1768.53125,409.64736 1765.11845,407.6784 1761.31253,405.5784 C1767.74357,404.39712 1772.07557,400.0656 1773.91301,397.44048 C1771.28741,399.93408 1766.16869,404.39712 1757.63669,403.4784 C1752.12437,400.0656 1746.21797,396.2592 1739.91749,391.27152 C1737.68645,389.43408 1736.89877,387.46512 1735.84901,387.46512 C1734.66725,387.59616 1729.81109,391.66512 1733.74853,392.97792 C1740.44261,398.09664 1747.39925,402.69072 1754.48693,406.75968" id="Fill-18" fill="#640B0D"></path>
                            <path d="M989.925696,561.772032 C993.732576,561.115872 996.226176,561.378432 997.801056,561.772032 C999.507456,562.165632 1000.42618,563.084352 1001.21434,564.003072 C1002.65722,565.840992 1003.31434,568.203072 1007.51434,567.284352 C1009.08922,567.022272 1010.53306,566.890752 1011.84538,566.890752 C1013.15818,566.890752 1014.20842,567.153312 1015.12714,567.546912 C1016.96458,568.334592 1017.75226,570.172032 1016.30842,573.060192 C1017.62074,575.291232 1019.32714,575.291232 1021.03354,574.766112 C1022.87098,574.241472 1024.83946,573.322272 1026.8089,573.453792 C1028.9089,573.716352 1030.22122,574.109952 1030.22122,575.028672 C1030.22122,575.816352 1029.03994,576.997632 1026.02122,578.309952 C1029.82762,581.591232 1034.8153,580.016352 1038.2281,578.966112 C1041.64042,577.916352 1043.87194,577.391232 1042.95322,582.772512 C1045.05322,582.641952 1046.89066,582.247392 1048.46554,581.722272 C1050.04042,581.197632 1051.3537,580.409952 1052.40346,579.491232 C1054.63498,577.784832 1056.20986,575.816352 1057.91578,573.847392 C1063.42906,567.415872 1063.29754,575.028672 1061.8537,579.228672 C1070.51626,576.472512 1078.7857,567.153312 1081.93546,556.521792 C1082.85466,554.027712 1083.24826,551.140512 1083.51082,548.515392 C1083.64186,545.890272 1083.64186,543.264672 1083.24826,540.771072 C1082.32954,535.652352 1080.36058,531.058272 1077.34186,527.382912 C1073.40394,523.708032 1069.0729,520.557792 1064.8729,518.195232 C1062.64138,516.882432 1060.5409,515.832672 1058.4409,514.913952 C1056.3409,513.995232 1054.2409,513.207552 1052.1409,512.551392 C1044.00298,509.925792 1036.78378,509.532192 1029.82762,512.682432 C1031.92762,516.488832 1030.22122,517.670112 1027.99018,518.063712 C1026.93994,518.326272 1025.75818,518.720352 1024.83946,519.113952 C1023.92074,519.507552 1023.26458,520.163712 1023.39562,521.476512 C1024.5769,524.495712 1023.00202,524.626752 1021.03354,524.758272 C1018.93354,524.889312 1016.83354,525.151872 1016.1769,528.826752 C1019.19562,533.026752 1018.01482,533.420832 1015.7833,533.420832 C1013.68282,533.551872 1010.6641,532.895712 1009.48282,536.045952 C1011.58282,539.458752 1010.2705,540.771072 1008.1705,541.689792 C1006.0705,542.608512 1003.31434,543.396192 1002.78922,545.890272 C1004.3641,547.333632 1004.3641,548.252832 1003.57642,549.171552 C1002.78922,550.090272 1001.21434,551.008992 999.244896,551.927712 C997.407456,552.977952 995.175936,554.027712 993.470016,555.602592 C991.632576,557.046432 990.188736,559.015392 989.925696,561.772032" id="Fill-20" fill="#E4B474"></path>
                            <path d="M1064.61024,532.501872 C1063.42896,534.601872 1062.51024,536.571312 1061.8536,538.539792 C1061.19744,540.377232 1060.80336,542.083632 1060.5408,543.790032 C1060.1472,547.071312 1060.40976,549.958992 1060.5408,551.927952 C1059.88464,550.221552 1059.36,547.596432 1059.36,544.577232 C1059.36,543.002352 1059.49104,541.427472 1059.7536,539.721072 C1059.88464,538.802352 1060.01616,537.883632 1060.27872,537.095952 C1060.5408,536.177232 1060.80336,535.258512 1061.06592,534.339312 C1059.49104,535.126992 1057.91616,535.783632 1056.3408,536.571312 C1054.76592,537.227472 1053.19104,538.014672 1051.61616,538.671312 C1050.17232,540.508752 1049.1216,542.477232 1048.3344,544.183632 C1047.41568,546.021072 1046.75952,547.727952 1046.36544,549.302832 C1045.57824,552.452592 1045.44672,555.209232 1045.44672,557.177712 C1044.528,553.765392 1044.528,547.071312 1047.80928,540.246192 C1044.1344,541.690032 1040.59056,543.133392 1037.04624,544.446192 C1035.6024,546.152112 1034.29008,547.727952 1033.24032,549.302832 C1032.19008,550.877712 1031.4024,552.452592 1030.87776,554.027952 C1029.56496,556.915152 1029.17136,559.540752 1028.9088,561.509712 C1028.5152,557.965392 1029.3024,551.927952 1032.97776,545.890512 C1029.43392,547.202352 1025.75856,548.121072 1022.34576,549.302832 C1020.63984,550.746672 1019.06448,552.190512 1017.8832,553.633872 C1016.57088,555.077712 1015.52064,556.390512 1014.73344,557.833872 C1013.02656,560.590992 1012.10784,563.215632 1011.58272,565.053072 C1011.84528,561.771792 1013.42016,555.996432 1017.62064,550.877712 C1016.04576,551.402832 1014.33936,551.796432 1012.89552,552.321552 C1011.32016,552.846672 1009.74528,553.371792 1008.30144,553.765392 C1006.85808,554.158992 1005.41424,554.684112 1003.9704,555.209232 C1002.6576,555.733872 1001.21424,556.127952 999.90096,556.652592 C999.90096,556.652592 1000.29504,556.390512 1000.9512,555.996432 C1001.73888,555.471792 1002.92016,554.946672 1004.364,554.158992 C1005.80784,553.371792 1007.64528,552.584112 1009.8768,551.665392 C1012.10784,550.484112 1014.60192,549.565392 1017.62064,548.252592 C1013.94528,546.152112 1012.3704,542.739792 1011.84528,540.771312 C1012.764,542.608752 1014.73344,546.152112 1019.32704,547.596432 C1020.24576,547.202352 1021.16448,546.809232 1022.0832,546.546192 C1023.00192,546.152112 1023.92064,545.758512 1024.97088,545.233392 C1026.02112,544.839792 1027.07136,544.446192 1028.12112,544.052112 C1029.17136,543.658512 1030.22112,543.133392 1031.27136,542.739792 C1026.02112,540.508752 1023.26448,535.914672 1022.0832,533.289552 C1023.00192,534.601872 1024.31472,536.439792 1026.15264,538.014672 C1028.12112,539.590032 1030.74624,541.033392 1034.29008,541.558512 C1035.86496,540.902352 1037.3088,540.246192 1039.01568,539.721072 C1040.59056,538.933392 1042.16544,538.277232 1043.87184,537.490032 C1038.75312,535.521072 1035.6024,531.714192 1034.02752,529.089552 C1035.2088,530.401872 1036.65264,531.976752 1038.75312,533.289552 C1039.80288,533.945712 1040.98416,534.601872 1042.29696,535.126992 C1043.74032,535.652112 1045.31568,536.046192 1046.89056,536.177232 C1050.43488,534.601872 1053.97872,532.895472 1057.78464,530.926992 C1051.3536,529.483152 1047.41568,525.020592 1045.57824,522.263952 C1048.20288,524.889552 1052.92848,529.614192 1061.59104,529.089552 C1067.23536,525.939312 1073.40384,522.394992 1079.96688,517.670352 C1082.1984,515.963952 1083.11712,514.126512 1084.16688,514.126512 C1085.21712,514.257552 1089.94224,518.589072 1086.0048,519.770352 C1079.04816,524.495472 1071.82896,528.826992 1064.61024,532.501872" id="Fill-22" fill="#640B0D"></path>
                        </g>
                    </g>
                </g>
                <g id="编组" mask="url(#mask-2)">
                    <g transform="translate(1426.285260, 98.005000) rotate(-345.000000) translate(-1426.285260, -98.005000) translate(1327.999934, -12.000000)">
                        <g id="编组" stroke-width="1" fill="none" transform="translate(104.872806, 0.000000)">
                            <mask id="mask-6" fill="white">
                                <use xlink:href="#path-5"></use>
                            </mask>
                            <g id="Clip-2"></g>
                            <path d="M39.3344727,53.2156513 C39.0196641,53.974472 38.6988554,54.7428929 38.3876469,55.5421147 C37.0132094,59.0694109 36.7100012,63.1739228 35.8751784,66.8908242 C35.6491722,67.8964516 35.3623644,68.9908815 34.6219442,69.5648971 C34.1831322,69.9049064 33.6479177,70.0077092 33.1311036,70.1017118 C31.8922698,70.328518 30.5294326,70.5281234 29.4762039,69.7493022 C28.5137776,69.0372827 28.0653654,67.6940461 27.609753,66.4672127 C25.0416829,59.548224 20.9027701,54.8140949 15.7806304,50.5915797 C14.4413939,49.4875496 13.0105548,48.2351154 12.5917434,46.3694646 C12.172132,44.5034137 13.4957681,42.0645472 15.0910116,42.5193596 C13.6637727,41.142522 11.6021164,41.3517277 9.75926617,41.104921 C7.67160924,40.8249134 5.66115441,39.857687 4.01590954,38.3404456 C2.86707821,37.2816167 1.86465088,35.8879787 1.55184234,34.2047328 C0.824222502,30.2778257 4.05151051,28.60298 6.5479786,28.6549815 C7.28039857,28.6701819 8.14202207,28.306572 8.3264271,27.4701492 C8.45163051,26.9033337 8.21882416,26.3257179 7.98281773,25.8165041 C5.73515643,20.9643717 2.47026739,16.8498595 0.767420953,11.622917 C-0.138203745,8.84204114 -0.490613356,4.95513513 1.11903054,2.36746456 C3.19868726,-0.975826612 7.12359429,-0.100602744 9.94927136,0.918625052 C12.4257389,1.81224942 14.7598025,3.24748856 16.6038528,5.40194732 C19.3487277,8.60883478 21.4751857,12.172932 22.9064247,16.4426484 C22.5552151,15.3942198 24.3424639,10.5852887 25.2412884,9.94047109 C27.3721465,8.41242942 29.9658172,10.6172895 30.8230406,12.7829486 C32.890297,18.0074911 34.0315281,26.5657245 32.8678964,32.233079 C33.329509,29.9834177 36.0515832,28.9013882 37.5448239,30.3730283 C38.9248616,31.7330654 38.9012609,34.2027328 38.7632572,36.3299908 C38.5716519,39.2892715 38.1056392,42.1793503 37.6704274,45.1118303 C38.4884497,44.2994081 39.6056801,43.9225978 40.6557088,44.1046028 C40.9533169,44.1562042 41.2633253,44.2634071 41.4573306,44.5318144 C41.7357382,44.917425 41.6853368,45.4926407 41.6077347,45.9950544 C41.1889233,48.7031282 40.2888988,50.9151885 39.3344727,53.2156513" id="Fill-1" fill="#E4B474" mask="url(#mask-6)"></path>
                        </g>
                        <path d="M129.383074,35.5823304 C131.093121,40.5424657 132.113548,45.653405 132.837968,50.9923506 C133.036774,52.4599907 133.177978,54.1008354 132.440357,55.3232687 C131.41873,54.4648453 131.244725,51.5811667 130.886715,50.2867314 C128.713056,42.424117 126.129385,35.0991172 122.708092,27.8825204 C121.382056,25.0864441 119.466404,23.0935898 118.120367,20.3355146 C117.999564,20.0883078 117.87436,19.8087002 117.933162,19.5294926 C118.041165,19.0154786 118.634781,18.9326763 119.076793,19.0202787 C123.74052,19.9439039 125.961781,26.9788958 127.77783,31.353015 C128.354246,32.7402529 128.889461,34.1510914 129.383074,35.5823304" id="Fill-3" fill="#640B0D"></path>
                        <path d="M144.61981,78.6854659 C147.259082,73.1185141 148.963928,62.6206278 143.406976,57.9453003 C139.85928,54.9608189 129.872607,55.4944334 128.548971,60.8205787 C127.883753,63.4974517 133.146697,71.2328626 134.153524,74.1469421 C134.461133,75.0377664 134.816342,75.9917924 135.600764,76.5142067 C136.311583,76.9882196 137.223208,77.00302 138.078031,77.0010199 L143.996993,76.9894196" id="Fill-5" fill="#BE6C42"></path>
                        <path d="M174.650309,178.282302 C160.840332,200.606911 142.642236,216.072933 115.183487,217.758579 C108.042492,218.196991 101.108303,217.762179 94.0017091,218.583401 C92.089657,218.804207 89.4603853,220.140644 87.6507359,219.99944 C83.4026201,219.669031 83.437421,217.320967 81.5009682,213.981676 C79.4345119,210.419578 76.4824313,207.650303 73.717956,204.645021 C69.1706319,199.702886 64.1564952,195.174763 60.2443885,189.678613 C51.646154,177.599083 49.1652864,162.010258 50.4241207,147.236655 C51.6549543,132.792661 56.4726857,119.501499 62.0728384,106.413142 C70.7818759,86.059387 88.5999618,74.5034718 111.418984,77.3047482 C130.006691,79.5868105 147.21716,83.5069174 163.060392,93.7031954 C174.202696,100.873791 184.808586,110.776861 187.513859,124.30163 C191.396365,143.709759 184.703383,162.030659 174.650309,178.282302" id="Fill-7" fill="#E7B06F"></path>
                        <g id="编组" stroke-width="1" fill="none" transform="translate(85.959050, 125.265005)">
                            <mask id="mask-8" fill="white">
                                <use xlink:href="#path-7"></use>
                            </mask>
                            <g id="Clip-10"></g>
                            <path d="M99.1427038,1.85810202 C97.3614552,0.662069407 94.9685899,-0.00674883297 91.8425047,0 C81.4830222,0.024052007 71.1243397,0.446063516 60.797658,1.26528586 C74.363228,11.0379524 96.1354218,27.0987904 85.3379273,45.8281012 C80.6649999,53.9339222 75.1152485,61.6301321 68.2466612,68.0239065 C61.3708737,74.424481 53.4074565,79.374616 44.7656208,83.0247156 C34.4001381,87.4020349 20.9797721,90.3149144 9.607062,90.5817216 C9.11384855,90.593322 8.6942371,90.4797189 8.34822767,90.2825135 C5.32894533,91.1037359 2.56526996,92.3809707 0.113203087,94.3534245 C0.0756020618,94.3838253 0.0380010363,94.408226 0,94.4354267 C0.476813003,94.5810307 1.03082811,94.6834335 1.69164613,94.7346349 C3.50129549,94.8754387 6.13056719,93.5390023 8.04261933,93.3185963 C15.1492131,92.4973739 22.0834022,92.9321858 29.224397,92.4933738 C56.6831458,90.8077278 74.8812421,75.341706 88.6908187,53.0174972 C94.7381837,43.2416306 111.392238,10.0831263 99.1427038,1.85810202" id="Fill-9" fill="#E29A45" mask="url(#mask-8)"></path>
                        </g>
                        <path d="M89.4895861,138.674982 C87.5775339,138.649381 85.6210806,139.651409 83.9386347,142.170677 C79.9293253,148.174841 85.4058747,159.205542 93.1100848,156.319863 C102.902352,152.652563 96.491777,138.769784 89.4895861,138.674982" id="Fill-11" fill="#6D504A"></path>
                        <path d="M130.855354,166.926152 C130.904556,167.322163 130.990158,167.725374 131.114561,168.134185 C133.409024,175.65919 146.868591,173.173123 147.890619,165.876924 C149.559064,153.964599 129.510918,156.131458 130.855354,166.926152" id="Fill-13" fill="#6D504A"></path>
                        <path d="M107.23403,180.921854 C106.606413,180.921854 106.010797,180.815451 105.463982,180.613846 C102.700706,179.596618 100.399044,175.870116 102.226293,168.462714 C102.447899,167.56629 103.354324,167.019475 104.249149,167.240681 C105.144773,167.461887 105.692388,168.367112 105.471182,169.263136 C104.259949,174.17087 105.217175,176.962146 106.618813,177.47856 C108.192056,178.057776 111.043734,176.320529 113.225393,171.95841 C113.638205,171.133187 114.642232,170.798378 115.467055,171.211989 C116.292677,171.6244 116.626686,172.628028 116.214275,173.45365 C113.558602,178.762995 110.066507,180.921854 107.23403,180.921854" id="Fill-15" fill="#6D5049"></path>
                        <path d="M93.4695746,127.737204 C92.4391465,127.737204 91.5307217,126.992783 91.357517,125.942755 C91.1651118,124.774723 91.9555333,123.671893 93.1231652,123.479087 C94.8860132,123.18828 96.674862,123.180679 98.4397102,123.457487 C99.608942,123.640292 100.408564,124.736322 100.225359,125.905954 C100.042554,127.075586 98.9445239,127.875207 97.7768921,127.692002 C96.4632563,127.485997 95.1320199,127.491597 93.8211842,127.708403 C93.702781,127.728003 93.5855778,127.737204 93.4695746,127.737204" id="Fill-17" fill="#6D5049"></path>
                        <path d="M149.127732,151.343327 C148.614919,151.343327 148.100504,151.160522 147.690493,150.788912 L144.924818,148.285644 C144.047594,147.491222 143.979992,146.135985 144.774014,145.258761 C145.569235,144.381537 146.924072,144.313936 147.801296,145.107557 L150.566972,147.611226 C151.444196,148.405647 151.511798,149.760884 150.717776,150.638108 C150.294564,151.105721 149.712148,151.343327 149.127732,151.343327" id="Fill-19" fill="#6D5049"></path>
                        <path d="M65.6408957,142.219639 C69.0073875,137.1251 71.2914498,128.264058 71.373452,125.656787 C71.629059,117.512965 63.7848451,119.021006 61.2863769,125.123172 C59.5147286,129.45089 58.317896,134.013815 57.7382802,138.655141 C57.4710729,140.7952 57.3562697,145.152119 60.0259426,145.812537 C62.0703983,146.31815 63.9864506,144.724107 65.6408957,142.219639" id="Fill-21" fill="#FFD39F"></path>
                        <path d="M62.6781349,155.245354 C64.7281908,151.712857 60.1280653,146.745922 57.2675873,151.130042 C55.0755275,154.495733 58.2184133,159.391467 61.7685101,156.328183 C62.1565207,155.992974 62.4561288,155.627764 62.6781349,155.245354" id="Fill-23" fill="#FFD39F"></path>
                        <g id="编组" stroke-width="1" fill="none" transform="translate(55.565309, 67.276059)">
                            <path d="M132.731092,37.7406051 C110.68009,7.52618112 69.0365545,-5.21816644 33.4355836,1.94962903 C24.8465494,3.6792762 16.4215196,7.02896756 9.81773953,12.9771298 C5.24641486,17.0944421 1.59151518,22.2389824 0.633489057,28.5459544 C-0.362538106,35.1001331 -0.529742666,40.265474 2.73754644,46.022831 C2.89475073,46.3000385 3.06875547,46.5936465 3.35356324,46.7328503 C3.70117272,46.902855 4.11198392,46.7984521 4.48439408,46.6964493 C13.3610362,44.2715832 24.281734,45.0380041 33.4023827,45.6148198 C45.0547005,46.3516399 56.5954152,48.6433024 67.662517,52.3950048 C89.9763256,59.959211 109.990871,73.3715768 126.531722,90.1564346 C127.19214,90.8268528 127.91616,91.5384723 128.832585,91.6688758 C130.09102,91.8480807 131.20825,90.8772542 132.062273,89.9092278 C142.754965,77.7924974 142.912169,60.727232 137.496422,46.3580401 C136.366791,43.3603584 134.732346,40.4822799 132.731092,37.7406051" id="Fill-25" fill="#BF6D43"></path>
                        </g>
                        <path d="M71.1045247,103.250976 C72.4277608,106.70507 75.0650327,105.25383 80.2535742,105.497837 C86.8429539,105.808246 93.4299335,106.140655 100.021713,106.410662 C110.798007,106.852674 121.565901,109.030733 131.519772,113.229248 C144.725732,118.8002 156.308848,127.152828 168.065169,135.201847 C174.950557,139.915576 180.746715,137.206702 183.607593,129.850501 C191.506208,109.543547 168.525582,88.9549859 151.907528,81.6823876 C133.513427,73.6321681 112.565255,69.7716628 93.3407311,76.2910406 C86.661749,78.5559023 79.7523605,81.8115911 74.3218124,86.3669154 C70.3417039,89.7058064 69.759288,95.0975535 70.3773049,99.9480857 C70.5585098,101.372125 70.7957163,102.444954 71.1045247,103.250976" id="Fill-27" fill="#BF6F48"></path>
                        <path d="M140.079046,63.913183 C141.750291,63.5199723 142.885922,62.481944 142.587914,60.3270852 C141.897495,55.3253488 133.398064,57.6018109 130.953197,59.182654 C130.170375,59.6882678 129.651961,60.7358964 130.051172,61.5783193 C130.32358,62.1547351 130.931996,62.484344 131.515212,62.741151 C133.188458,63.4787712 137.348571,64.5556005 140.079046,63.913183" id="Fill-29" fill="#4D1930"></path>
                        <path d="M166.669611,124.611318 C166.420804,122.11805 166.083595,119.651983 165.686384,117.230717 C166.041594,117.125914 166.396003,117.021111 166.752813,116.919909 C167.835643,116.6111 168.917672,116.291091 169.999302,115.970683 C170.756122,115.746677 171.508543,115.524271 172.256963,115.306665 C172.712976,117.745531 173.118587,120.204398 173.492597,122.670865 C171.182934,123.272882 168.901672,123.9293 166.669611,124.611318 M164.409149,110.390931 C163.915536,108.002865 163.394322,105.677602 162.877907,103.441141 C162.834306,103.250736 162.786705,103.059131 162.741504,102.868325 C164.703957,102.208307 166.688411,101.58189 168.697266,100.998674 C169.505288,103.452341 170.203707,105.96321 170.817324,108.515279 C169.885299,108.783687 168.958073,109.057694 168.034448,109.331302 C166.974819,109.64531 165.91519,109.958919 164.854761,110.260927 C164.705957,110.303328 164.557953,110.348129 164.409149,110.390931 M160.955455,96.1609425 C160.229835,93.7124757 159.419413,91.2464084 158.527389,88.7675408 C159.832624,88.3011281 161.14786,87.8447157 162.471896,87.4003035 C163.891535,89.6731655 165.130369,92.0496303 166.217199,94.5096974 C164.44355,95.0317117 162.689502,95.5833267 160.955455,96.1609425 M150.51757,115.267064 C150.010757,112.891399 149.459542,110.528934 148.864325,108.18087 C151.263991,107.161242 153.704857,106.171215 156.183725,105.22519 C156.72254,107.565653 157.266154,110.00012 157.773768,112.500588 C155.340902,113.346211 152.926836,114.267036 150.51757,115.267064 M144.892217,94.1804884 C147.235881,93.1516604 149.621546,92.1576333 152.044812,91.2016072 C152.922436,93.6452738 153.718058,96.0741401 154.423677,98.4826058 C151.921609,99.4266315 149.461942,100.413858 147.044676,101.430286 C146.354657,98.9998199 145.633837,96.583354 144.892217,94.1804884 M140.696903,81.1325326 C142.606555,80.5089156 144.531807,79.973701 146.47746,79.5648899 C146.721067,79.5136885 146.951873,79.4368864 147.170679,79.3400837 C148.005502,81.146533 148.797123,82.9493822 149.543944,84.7462312 C147.260282,85.6470557 145.00942,86.5814812 142.79216,87.5455075 C142.097741,85.3970489 141.396922,83.2597906 140.696903,81.1325326 M133.194298,107.680057 C132.91669,106.734031 132.637083,105.793605 132.359075,104.86198 C131.965864,103.546744 131.568254,102.209507 131.181443,100.865071 C133.576308,99.5714355 136.033575,98.3186013 138.545244,97.1057682 C139.268464,99.4682326 139.970883,101.840697 140.638901,104.224362 C138.109232,105.365193 135.627964,106.522825 133.194298,107.680057 M127.168934,86.90349 C129.494197,85.7342581 131.843061,84.6130275 134.217926,83.5933997 C134.963546,85.8618616 135.710367,88.1411237 136.447587,90.4323862 C134.033521,91.5828176 131.668256,92.77085 129.353793,93.9940834 C128.706976,91.599218 127.966555,89.2355536 127.168934,86.90349 M116.213835,101.684693 C115.503816,99.0530213 114.631392,96.4845513 113.708167,93.9636825 C114.100177,93.7520768 114.491388,93.541271 114.894199,93.3316653 C116.483042,92.5064428 118.099486,91.6476194 119.662329,90.8171967 C120.091141,90.5895905 120.520352,90.3615843 120.949964,90.1339781 C121.759986,92.5624443 122.493206,95.006911 123.100023,97.4593779 C120.739158,98.8306153 118.442296,100.239854 116.213835,101.684693 M111.216499,87.4467048 C110.306474,85.1738428 109.328047,82.9641826 108.273218,80.8313244 C110.863689,79.5084883 113.498961,78.3032554 116.179834,77.2908278 C116.303037,77.6080365 116.425041,77.9252451 116.548244,78.2428538 C117.230263,79.9957016 117.917881,81.7657499 118.5911,83.5485985 C117.86348,83.933409 117.13786,84.3182195 116.41464,84.70223 C114.864998,85.5254524 113.262554,86.3766756 111.701312,87.1878977 C111.536907,87.2735001 111.379303,87.3607025 111.216499,87.4467048 M97.8553342,96.1005408 C96.8853078,93.5648717 95.8508796,91.0876041 94.7580497,88.6687381 C95.4940698,88.1987253 96.23329,87.7335126 96.9789103,87.2779002 C98.6949571,86.2286716 100.433405,85.182243 102.193053,84.1622152 C103.259882,86.3406746 104.245108,88.6071364 105.151533,90.9456002 C102.606264,92.5556441 100.215799,94.2584906 97.8553342,96.1005408 M189.857043,119.737985 C189.821842,119.739585 189.786641,119.741986 189.75144,119.744786 C186.614155,119.993992 183.431668,120.473605 180.259982,121.105623 C179.874771,118.587154 179.45556,116.073886 178.983147,113.575817 C182.905654,112.764995 186.783359,112.431386 190.726267,113.163006 C190.787869,113.174206 190.84907,113.179407 190.910672,113.187407 C189.75104,110.670938 188.436605,108.218471 186.985365,105.844807 C183.750477,105.769604 180.610791,106.166815 177.538707,106.804433 C176.923491,104.247563 176.227072,101.719094 175.42225,99.2350263 C176.721485,98.931018 178.029121,98.6446102 179.346757,98.382203 C179.508361,98.3502022 179.663965,98.306201 179.814369,98.2529995 C177.937918,96.218544 175.930263,94.310092 173.830206,92.5004426 C173.549799,92.5652444 173.268591,92.6284461 172.989783,92.6956479 C172.785378,92.2140348 172.573372,91.7352218 172.357366,91.2584088 C168.023648,87.6811112 163.361921,84.4682236 158.721394,81.3689391 C157.82137,81.6789475 156.921345,81.9881559 156.029321,82.3077647 C155.532907,81.1081319 155.010893,79.9060992 154.476878,78.7028663 C150.028357,77.0368209 145.498234,75.5835813 141.105714,73.7791321 C140.23289,74.0247388 139.364066,74.2819458 138.504443,74.5627534 C137.765223,73.0187113 135.982374,72.2222896 134.310328,72.7687045 C132.54388,73.3467203 131.562253,75.2095711 132.053867,76.9824194 C129.5902,78.0224478 127.170934,79.1628789 124.784469,80.3513113 C124.193653,78.799269 123.595236,77.259227 123.00122,75.7323853 C122.938018,75.5699809 122.876017,75.4075765 122.812815,75.2455721 C124.642065,74.8151603 126.490515,74.4947516 128.359766,74.3115466 C129.96421,74.1539423 131.201444,72.9235087 131.43865,71.4010672 C129.96261,71.1894614 128.48617,70.991056 127.007329,70.7730501 C125.796496,70.5950452 124.595263,70.3426383 123.460433,69.9298271 C121.434377,69.779023 119.401122,69.67022 117.369466,69.561017 C113.079749,70.8930534 108.948037,72.6995026 104.949928,74.7515586 C103.853098,72.9255088 102.706267,71.1574606 101.497434,69.4690145 C100.384603,67.9141721 98.2217442,67.5581624 96.6677018,68.6721928 C95.1128594,69.7850231 94.7548497,71.9522822 95.86808,73.5071246 C96.9157086,74.9707646 97.9141358,76.5016063 98.8717619,78.0840495 C97.0109112,79.1604788 95.1764612,80.2645089 93.3676118,81.3701391 C92.8147968,81.7077483 92.2663818,82.0517577 91.7187669,82.3965671 C90.0527214,79.1872796 88.275873,76.0947952 86.3834214,73.1347145 C85.3529933,71.5234706 83.2129349,71.0526577 81.601691,72.0826858 C79.990847,73.1123139 79.5200342,75.2531723 80.5496623,76.8644162 C82.4609144,79.8540977 84.2517632,82.9873832 85.9202087,86.2518722 C83.8233515,87.7223123 81.7696955,89.2487539 79.7600407,90.827197 C78.0211933,87.2450993 75.9419366,83.568199 73.4486686,79.6348918 C72.4250407,78.0192477 70.2861824,77.5400346 68.6713383,78.5644626 C67.0560943,79.5876905 66.5768812,81.7265488 67.6005091,83.3413928 C70.309783,87.6159094 72.4910425,91.5516167 74.2510905,95.3861213 C71.0254025,98.196198 67.9297181,101.147078 64.9804377,104.235563 C64.6920298,104.537571 64.4732238,104.87998 64.3152195,105.24119 C64.5304254,105.24359 64.7584316,105.274391 65.0008382,105.345993 C67.1452967,105.97641 69.1309509,106.864034 71.0114021,107.969264 C72.9402547,105.994011 74.928309,104.075558 76.9787649,102.222308 C77.6967845,104.336365 78.3004009,106.466423 78.8132149,108.646883 C81.1792794,108.719285 83.547744,108.751286 85.9166086,108.782887 C85.9038083,108.642483 85.8850078,108.502079 85.8542069,108.360475 C85.0349846,104.590772 83.9753557,100.996274 82.6093184,97.4065764 C84.6673746,95.7445311 86.7790322,94.1436874 88.936691,92.6024454 C90.1055229,95.2565178 91.1975526,97.9877923 92.2131803,100.789469 C90.6063365,102.198307 88.9694919,103.683548 87.2606453,105.269591 C86.2650181,106.194416 85.9394093,107.567654 86.2994191,108.787687 C88.7010846,108.820088 91.1027501,108.855689 93.5012155,108.935291 C93.8680255,108.599682 94.2328354,108.266473 94.5928452,107.940464 C94.6980481,108.286473 94.7980508,108.636883 94.9008536,108.985292 C96.1044865,109.034494 97.3069193,109.097295 98.508152,109.178497 C99.682184,109.2581 100.863016,109.351302 102.046249,109.462505 C102.067849,109.084895 102.031448,108.697284 101.921445,108.312474 C101.408231,106.519225 100.864216,104.750777 100.295401,103.003529 C102.715067,101.024675 105.105532,99.2434265 107.638801,97.5773811 C108.610428,100.306656 109.486051,103.072331 110.101668,105.861207 C109.761659,106.105614 109.42165,106.35082 109.08564,106.597227 C107.935209,107.44165 107.459596,108.862889 107.762004,110.170125 C111.148897,110.704539 114.497788,111.46896 117.710276,112.592991 C117.834279,112.21738 117.893881,111.812169 117.86908,111.378957 C117.823079,110.589336 117.747877,109.807715 117.657874,109.030493 C120.016739,107.43645 122.463605,105.884408 124.992074,104.377167 C125.236081,105.205989 125.480888,106.029612 125.724494,106.843634 C126.116105,108.15527 126.499315,109.444105 126.868925,110.72494 C126.242108,111.029348 125.616891,111.332956 124.996074,111.634564 C123.71924,112.254981 122.99682,113.557017 123.051221,114.890253 C124.066849,115.421068 125.060076,116.002684 126.028103,116.636701 C129.404195,117.386321 132.647483,118.519552 135.779568,119.934391 C135.929973,119.424377 135.967974,118.872762 135.862371,118.314747 C135.617564,117.017111 135.335956,115.738276 135.032348,114.474242 C137.451614,113.31821 139.918081,112.158579 142.43095,111.015348 C143.016966,113.385012 143.562181,115.762677 144.049794,118.149942 C143.211771,118.549153 142.372948,118.955964 141.532525,119.375976 C140.517698,119.882789 139.86448,120.821615 139.676475,121.858043 C143.512579,123.912499 147.18748,126.336565 150.746777,128.911836 C151.884408,128.210216 152.560026,126.88058 152.358021,125.473342 C152.201616,124.386112 152.030012,123.302083 151.848807,122.220053 C154.232872,121.199225 156.618937,120.2624 159.020602,119.403176 C159.398613,121.835243 159.706221,124.30171 159.913027,126.779777 C158.101777,127.384194 156.343329,127.98421 154.654083,128.561026 C153.746458,128.870634 153.05204,129.519852 152.662029,130.318274 C154.566081,131.736713 156.438932,133.187552 158.286982,134.637192 C158.913399,134.423986 159.546617,134.20838 160.189834,133.991174 C160.184634,134.451187 160.181034,134.910799 160.166234,135.370012 C160.157433,135.645219 160.184234,135.912827 160.236635,136.171234 C161.195862,136.927654 162.149888,137.680475 163.098313,138.424095 C163.304719,138.586099 163.467124,138.760104 163.595927,138.940909 C163.664329,138.941709 163.733131,138.942509 163.801133,138.939309 C165.582781,138.851707 167.028021,137.407667 167.086422,135.592818 C167.128023,134.302783 167.130023,133.013147 167.105223,131.725912 C169.513688,130.969892 171.982956,130.238672 174.478224,129.573454 C174.594627,130.426677 174.71063,131.2791 174.825833,132.129923 C175.230244,135.112805 175.648256,138.196889 176.097868,141.16617 C176.365875,142.939018 177.934318,144.193052 179.687166,144.10625 C179.803569,144.10105 179.920772,144.08905 180.038375,144.071049 C181.928827,143.785441 183.229663,142.020593 182.943655,140.130542 C182.502443,137.213662 182.106432,134.292382 181.68722,131.199898 C181.541616,130.125469 181.395212,129.049039 181.247208,127.97101 C184.296892,127.350193 187.336174,126.88258 190.299855,126.646974 C192.206307,126.49537 193.628746,124.827724 193.477142,122.921672 C193.328738,121.051221 191.718694,119.645983 189.857043,119.737985" id="Fill-31" fill="#D0845D"></path>
                        <path d="M101.343429,77.3424692 C101.586636,75.0576069 95.7340764,75.0660072 94.1740338,75.2128112 C88.9270907,75.7072246 83.3553388,76.856456 78.7088121,79.3909251 C76.7511587,80.4585542 69.6601653,84.4946643 73.8602798,87.0359336 C76.2063438,88.4547723 79.6384374,86.6039218 81.6464922,85.5138921 C84.7429766,83.8326462 88.0822677,82.7018154 91.46676,81.7629898 C93.8576252,81.0993717 98.8221606,80.7961634 100.551808,78.8197095 C101.056222,78.2436938 101.299428,77.7556805 101.343429,77.3424692" id="Fill-33" fill="#E99D79"></path>
                        <path d="M112.166204,78.1256906 C113.145431,74.4083892 108.128494,72.6075401 106.284044,75.8076274 C104.938807,78.1428911 107.384474,80.559757 109.750539,80.1305453 C111.160977,79.8745383 111.916598,79.0733164 112.166204,78.1256906" id="Fill-35" fill="#E99D79"></path>
                        <g id="编组" stroke-width="1" fill="none" transform="translate(0.000000, 28.830576)">
                            <path d="M55.8810695,14.1511961 C55.3782558,12.129941 54.3186269,10.3378921 53.4166023,8.49344183 C50.0221097,1.55285255 56.8670964,0.366020184 61.2096148,0.910835042 C68.3818104,1.81045958 74.271171,7.36341101 78.926498,13.4411768 C76.0588198,9.69747467 77.7692664,2.48007784 81.5941708,0.546425104 C86.6747093,-2.02204494 93.6644999,5.10534943 97.0369919,8.61824523 C101.283508,13.0407658 105.529624,17.4632865 109.776139,21.8858071 C108.639308,19.8925527 110.736966,17.0844761 112.787821,17.1816788 C114.838277,17.2788814 116.477122,19.0997311 117.87436,20.8469787 C121.342855,25.182697 129.347073,32.0220835 129.022264,38.6370639 C126.777803,38.1134496 124.520141,36.8046139 122.215679,36.0997947 C121.674464,35.9341902 121.006846,35.8253872 120.630035,36.3202007 C120.306827,36.7450123 120.364028,37.429831 120.06042,37.8746431 C119.722811,38.3690566 119.093993,38.3714566 118.563179,38.2918545 C115.542697,37.8402422 112.589416,36.1937973 109.576534,36.8018138 C105.432021,37.6378366 102.303536,41.0531298 97.8290135,40.255508 C95.9841632,39.9262991 94.2453158,38.1090495 94.3173177,35.9101895 C89.0327736,39.8766977 79.0313009,49.6205634 72.2935171,48.4257308 C71.7219015,48.3241281 66.6505632,45.1872425 67.4361846,44.7908317 C60.1119849,48.4893326 52.1929689,63.6305455 42.9719175,56.0827397 C38.6417994,52.538643 42.2966991,44.5212244 46.4812132,42.6191725 C40.0542379,45.5400521 33.7612663,48.5533343 27.0306827,50.3813842 C18.6156532,52.6674465 6.94613499,55.2827178 0.867169206,46.5660801 C-0.877278368,44.0648119 0.329154533,41.5899444 1.69279172,39.2806814 C7.92656173,28.7327938 19.6748821,27.1207498 29.5191506,24.4930782 C27.0178824,22.7590309 24.3842106,20.5121696 23.8577962,17.1416777 C21.0109186,-1.08801947 50.8681328,11.2207162 56.0582743,15.0196198 C56.0114731,14.7252118 55.9518714,14.4360039 55.8810695,14.1511961" id="Fill-37" fill="#E4B474"></path>
                        </g>
                        <path d="M60.4618344,55.0571015 C58.354577,55.185905 56.2521196,55.3455094 54.1572625,55.5339145 C52.1472077,55.7151194 49.7671428,55.9635262 47.9534933,57.1011572 C44.239392,59.4324208 53.7944526,59.5956253 55.2952935,59.3740192 C57.6885588,59.0216096 67.741233,58.8656054 70.4485068,58.8672054 C76.6698765,58.8712055 82.8932462,58.8644053 89.1078157,59.1376128 C98.1668627,59.5360236 107.556319,60.6316535 116.181754,63.985745 C116.510163,64.1137485 117.019777,64.1133485 117.050178,63.7057374 C117.066978,63.4841313 116.904174,63.3097266 116.75537,63.1757229 C111.498826,58.4387937 104.991849,57.2127603 98.5368728,56.1935325 C91.8390901,55.1359036 85.0653054,54.8722964 78.3059211,54.7110921 C72.3709592,54.5694882 66.3963963,54.6934916 60.4618344,55.0571015" id="Fill-39" fill="#640B0D"></path>
                    </g>
                </g>
            </g>
        </g>
    </g>
</svg>