<?xml version="1.0" encoding="UTF-8"?>
<svg width="8px" height="8px" viewBox="0 0 8 8" version="1.1" xmlns="http://www.w3.org/2000/svg" xmlns:xlink="http://www.w3.org/1999/xlink">
    <title>编组 25</title>
    <g id="页面-1" stroke="none" stroke-width="1" fill="none" fill-rule="evenodd">
        <g id="launchpad-farm-消息提示" transform="translate(-1858.000000, -146.000000)" fill="#000000">
            <g id="编组-25" transform="translate(1858.000000, 146.000000)">
                <path d="M-0.724183163,3.56153112 L8.70438827,3.56153112 C8.94108173,3.56153112 9.13295969,3.75340909 9.13295969,3.99010255 C9.13295969,4.22679602 8.94108173,4.41867398 8.70438827,4.41867398 L-0.724183163,4.41867398 C-0.960876628,4.41867398 -1.15275459,4.22679602 -1.15275459,3.99010255 C-1.15275459,3.75340909 -0.960876628,3.56153112 -0.724183163,3.56153112 Z" id="矩形" transform="translate(3.990103, 3.990103) rotate(-315.000000) translate(-3.990103, -3.990103) "></path>
                <path d="M-0.724183163,3.56153112 L8.70438827,3.56153112 C8.94108173,3.56153112 9.13295969,3.75340909 9.13295969,3.99010255 C9.13295969,4.22679602 8.94108173,4.41867398 8.70438827,4.41867398 L-0.724183163,4.41867398 C-0.960876628,4.41867398 -1.15275459,4.22679602 -1.15275459,3.99010255 C-1.15275459,3.75340909 -0.960876628,3.56153112 -0.724183163,3.56153112 Z" id="矩形备份-6" transform="translate(3.990103, 3.990103) scale(-1, 1) rotate(-315.000000) translate(-3.990103, -3.990103) "></path>
            </g>
        </g>
    </g>
</svg>