<?xml version="1.0" encoding="UTF-8"?>
<svg width="40px" height="40px" viewBox="0 0 40 40" version="1.1" xmlns="http://www.w3.org/2000/svg" xmlns:xlink="http://www.w3.org/1999/xlink">
    <title>编组 23</title>
    <defs>
        <linearGradient x1="24.1793946%" y1="9.37814817%" x2="81.3632131%" y2="82.4730447%" id="linearGradient-1">
            <stop stop-color="#D8FFA6" offset="0%"></stop>
            <stop stop-color="#04D68E" offset="100%"></stop>
        </linearGradient>
        <linearGradient x1="100%" y1="50%" x2="10.1900908%" y2="50%" id="linearGradient-2">
            <stop stop-color="#FFFFFF" stop-opacity="0.503764719" offset="0%"></stop>
            <stop stop-color="#FFFFFF" stop-opacity="0" offset="100%"></stop>
        </linearGradient>
        <linearGradient x1="50%" y1="0%" x2="50%" y2="92.4322585%" id="linearGradient-3">
            <stop stop-color="#FFFFFF" stop-opacity="0.50390625" offset="0%"></stop>
            <stop stop-color="#FFFFFF" stop-opacity="0" offset="100%"></stop>
        </linearGradient>
        <linearGradient x1="0%" y1="50%" x2="94.7085624%" y2="50%" id="linearGradient-4">
            <stop stop-color="#FFFFFF" stop-opacity="0.501443614" offset="0%"></stop>
            <stop stop-color="#FFFFFF" stop-opacity="0" offset="100%"></stop>
        </linearGradient>
        <linearGradient x1="50%" y1="100%" x2="50%" y2="11.3891921%" id="linearGradient-5">
            <stop stop-color="#FFFFFF" stop-opacity="0.496659873" offset="0%"></stop>
            <stop stop-color="#FFFFFF" stop-opacity="0" offset="100%"></stop>
        </linearGradient>
    </defs>
    <g id="页面-1" stroke="none" stroke-width="1" fill="none" fill-rule="evenodd">
        <g id="launchpad-farm-消息提示" transform="translate(-1466.000000, -130.000000)">
            <g id="编组-23" transform="translate(1466.000000, 130.000000)">
                <g id="已完成">
                    <circle id="Oval-9" fill="url(#linearGradient-1)" cx="20" cy="20" r="20"></circle>
                    <path d="M20,0 C25.5228475,-1.01453063e-15 30,4.4771525 30,10 C30,15.5228475 25.5228475,20 20,20 C14.4771525,20 10,15.5228475 10,10 C10,4.4771525 14.4771525,1.01453063e-15 20,0 Z" id="Rectangle-8" fill="url(#linearGradient-2)" style="mix-blend-mode: overlay;" opacity="0.502602145"></path>
                    <path d="M10,9.71428571 C15.5228475,9.71428571 20,14.1914382 20,19.7142857 C20,25.2371332 15.5228475,29.7142857 10,29.7142857 C4.4771525,29.7142857 6.76353751e-16,25.2371332 0,19.7142857 C-6.76353751e-16,14.1914382 4.4771525,9.71428571 10,9.71428571 Z" id="Rectangle-8" fill="url(#linearGradient-3)" style="mix-blend-mode: overlay;" opacity="0.502602145"></path>
                    <path d="M20,20 C25.5228475,20 30,24.4771525 30,30 C30,35.5228475 25.5228475,40 20,40 C14.4771525,40 10,35.5228475 10,30 C10,24.4771525 14.4771525,20 20,20 Z" id="Rectangle-8" fill="url(#linearGradient-4)" style="mix-blend-mode: overlay;" opacity="0.502602145"></path>
                    <path d="M30,9.71428571 C35.5228475,9.71428571 40,14.1914382 40,19.7142857 C40,25.2371332 35.5228475,29.7142857 30,29.7142857 C24.4771525,29.7142857 20,25.2371332 20,19.7142857 C20,14.1914382 24.4771525,9.71428571 30,9.71428571 Z" id="Rectangle-8" fill="url(#linearGradient-5)" style="mix-blend-mode: overlay;" opacity="0.502602145"></path>
                </g>
                <path d="M11.0142136,20.9761449 C10.233165,20.1950963 10.233165,18.9287664 11.0142136,18.1477178 C11.7952621,17.3666692 13.0615921,17.3666692 13.8426407,18.1477178 L17.695,22 L25.8808244,13.8142136 C26.661873,13.033165 27.928203,13.033165 28.7092516,13.8142136 C29.4903001,14.5952621 29.4903001,15.8615921 28.7092516,16.6426407 L17.6948937,27.6569986 L11.0142136,20.9761449 Z" id="Combined-Shape" fill="#FFFFFF"></path>
            </g>
        </g>
    </g>
</svg>