<?xml version="1.0" encoding="UTF-8"?>
<svg width="11px" height="16px" viewBox="0 0 11 16" version="1.1" xmlns="http://www.w3.org/2000/svg" xmlns:xlink="http://www.w3.org/1999/xlink">
    <title>编组</title>
    <defs>
        <path d="M1.9405962,0 C0.870938052,0 0,0.8707648 0,1.9405962 L0,1.9405962 L0,3.01562517 L0.96553367,3.01562517 L0.96553367,1.9405962 C0.96553367,1.40178233 1.40195558,0.96553367 1.9405962,0.96553367 L1.9405962,0.96553367 L4.04734112,0.96553367 C4.586155,0.96553367 5.02257691,1.40178233 5.02257691,1.9405962 L5.02257691,1.9405962 L5.02257691,3.01562517 L5.98793733,3.01562517 L5.98793733,1.9405962 C5.98793733,0.8707648 5.11717253,0 4.04734112,0 L4.04734112,0 L1.9405962,0 Z" id="path-1"></path>
        <linearGradient x1="0.000867426654%" y1="49.9994766%" x2="100.000857%" y2="49.9994766%" id="linearGradient-3">
            <stop stop-color="#FF8500" offset="0%"></stop>
            <stop stop-color="#FFBD00" offset="100%"></stop>
        </linearGradient>
        <path d="M1.85024081,0 L3.2778377,3.86161493 L2.77575326,5.2202575 C2.74872594,5.28921181 2.70679894,5.34569198 2.6527443,5.38761898 C2.58378999,5.44669792 2.49768372,5.4785763 2.40412761,5.4785763 L0.395789857,5.4785763 C0.120145847,5.4785763 -0.0693918951,5.20293229 0.0241642115,4.94444023 L1.85024081,0 Z" id="path-4"></path>
        <linearGradient x1="58.9893766%" y1="47.4295392%" x2="48.585005%" y2="55.8760404%" id="linearGradient-6">
            <stop stop-color="#FFFFFF" offset="0%"></stop>
            <stop stop-color="#02173B" offset="100%"></stop>
        </linearGradient>
        <path d="M0,5.05514829 C0,7.84693181 2.26336477,10.1102966 5.05514829,10.1102966 L5.05514829,10.1102966 C7.84693181,10.1102966 10.1102966,7.84693181 10.1102966,5.05514829 L10.1102966,5.05514829 C10.1102966,2.26336477 7.84693181,0 5.05514829,0 L5.05514829,0 C2.26336477,0 0,2.26336477 0,5.05514829" id="path-7"></path>
        <linearGradient x1="78.7926256%" y1="78.7917318%" x2="11.9898283%" y2="11.9889345%" id="linearGradient-9">
            <stop stop-color="#FF8500" offset="0%"></stop>
            <stop stop-color="#FFBD00" offset="100%"></stop>
        </linearGradient>
        <path d="M0,4.66637069 C0,7.24349493 2.08907321,9.33256814 4.66619744,9.33256814 L4.66619744,9.33256814 C7.24332167,9.33256814 9.33256814,7.24349493 9.33256814,4.66637069 L9.33256814,4.66637069 C9.33256814,2.08924646 7.24332167,0 4.66619744,0 L4.66619744,0 C2.08907321,0 0,2.08924646 0,4.66637069" id="path-10"></path>
        <linearGradient x1="78.7918204%" y1="78.7926643%" x2="11.9889201%" y2="11.989764%" id="linearGradient-12">
            <stop stop-color="#FFBD00" offset="0%"></stop>
            <stop stop-color="#FF8500" offset="100%"></stop>
        </linearGradient>
        <path d="M0,3.88864225 C0,6.03627465 1.74083659,7.77728449 3.88846899,7.77728449 L3.88846899,7.77728449 C6.0361014,7.77728449 7.77711124,6.03627465 7.77711124,3.88864225 L7.77711124,3.88864225 C7.77711124,1.74100984 6.0361014,0 3.88846899,0 L3.88846899,0 C1.74083659,0 0,1.74100984 0,3.88864225" id="path-13"></path>
        <linearGradient x1="78.79057%" y1="78.7911207%" x2="11.9904121%" y2="11.9894747%" id="linearGradient-15">
            <stop stop-color="#FF8500" offset="0%"></stop>
            <stop stop-color="#FFBD00" offset="100%"></stop>
        </linearGradient>
    </defs>
    <g id="页面-1" stroke="none" stroke-width="1" fill="none" fill-rule="evenodd">
        <g id="Ostrich-Invite-Quest" transform="translate(-1080.000000, -222.000000)">
            <g id="编组" transform="translate(1080.000000, 222.000000)">
                <g transform="translate(2.061180, 4.015116)">
                    <mask id="mask-2" fill="white">
                        <use xlink:href="#path-1"></use>
                    </mask>
                    <g id="Clip-2"></g>
                    <path d="M1.9405962,0 C0.870938052,0 0,0.8707648 0,1.9405962 L0,1.9405962 L0,3.01562517 L0.96553367,3.01562517 L0.96553367,1.9405962 C0.96553367,1.40178233 1.40195558,0.96553367 1.9405962,0.96553367 L1.9405962,0.96553367 L4.04734112,0.96553367 C4.586155,0.96553367 5.02257691,1.40178233 5.02257691,1.9405962 L5.02257691,1.9405962 L5.02257691,3.01562517 L5.98793733,3.01562517 L5.98793733,1.9405962 C5.98793733,0.8707648 5.11717253,0 4.04734112,0 L4.04734112,0 L1.9405962,0 Z" id="Fill-1" fill="url(#linearGradient-3)" mask="url(#mask-2)"></path>
                </g>
                <g transform="translate(3.616684, 0.000000)">
                    <path d="M1.85785579,0 L0.0248491101,4.96523048 C-0.070612769,5.22389579 0.120830745,5.49850029 0.396474756,5.49850029 L0.778495524,5.49850029 L2.80831653,0 L1.85785579,0 Z" id="Fill-3" fill="#0068C9"></path>
                    <polygon id="Fill-5" fill="#FFFFFF" points="2.02982101 0 0 5.49850029 0.950460742 5.49850029 2.98028175 0"></polygon>
                    <path d="M2.02843499,0 L0.477482648,4.20084244 L0.00242552869,5.49035744 L0,5.49780728 L0.674470228,5.49780728 C0.768026334,5.49780728 0.854132603,5.46575565 0.923086918,5.40684995 C0.977141558,5.36492296 1.0188953,5.30826954 1.04609587,5.23931522 L2.97924224,0 L2.02843499,0 Z" id="Fill-7" fill="#FF341C"></path>
                    <g transform="translate(0.195125, 0.019924)">
                        <mask id="mask-5" fill="white">
                            <use xlink:href="#path-4"></use>
                        </mask>
                        <g id="Clip-10"></g>
                        <path d="M3.2778377,3.86161493 L2.77575326,5.2202575 C2.74872594,5.28921181 2.70679894,5.34569198 2.6527443,5.38761898 C2.58378999,5.44669792 2.49768372,5.4785763 2.40412761,5.4785763 L0.395789857,5.4785763 C0.120145847,5.4785763 -0.0693918951,5.20293229 0.0241642115,4.94444023 L1.85024081,0 L3.2778377,3.86161493 Z" id="Fill-9" fill="url(#linearGradient-6)" mask="url(#mask-5)"></path>
                    </g>
                    <path d="M0.950460742,0 L0,0 L2.02618272,5.49035744 L2.0287815,5.49780728 L2.69822741,5.49780728 C2.79178352,5.49780728 2.87788979,5.46575565 2.94684411,5.40684995 L2.50141309,4.20084244 L0.950460742,0 Z" id="Fill-11" fill="#0068C9"></path>
                    <polygon id="Fill-13" fill="#FFFFFF" points="0 0 2.02982101 5.49850029 2.98028175 5.49850029 0.950460742 0"></polygon>
                    <path d="M0,0 L1.93435913,5.23966173 C1.99170556,5.39524207 2.14018256,5.49850029 2.30598478,5.49850029 L2.980455,5.49850029 L0.950460742,0 L0,0 Z" id="Fill-15" fill="#FF341C"></path>
                </g>
                <g transform="translate(0.000000, 5.889703)">
                    <mask id="mask-8" fill="white">
                        <use xlink:href="#path-7"></use>
                    </mask>
                    <g id="Clip-18"></g>
                    <path d="M-2.22044605e-14,5.05514829 C-2.22044605e-14,7.84693181 2.26336477,10.1102966 5.05514829,10.1102966 L5.05514829,10.1102966 C7.84693181,10.1102966 10.1102966,7.84693181 10.1102966,5.05514829 L10.1102966,5.05514829 C10.1102966,2.26336477 7.84693181,-2.66453526e-14 5.05514829,-2.66453526e-14 L5.05514829,-2.66453526e-14 C2.26336477,-2.66453526e-14 -2.22044605e-14,2.26336477 -2.22044605e-14,5.05514829" id="Fill-17" fill="url(#linearGradient-9)" mask="url(#mask-8)"></path>
                </g>
                <g transform="translate(0.388951, 6.278481)">
                    <mask id="mask-11" fill="white">
                        <use xlink:href="#path-10"></use>
                    </mask>
                    <g id="Clip-20"></g>
                    <path d="M0,4.66637069 C0,7.24349493 2.08907321,9.33256814 4.66619744,9.33256814 L4.66619744,9.33256814 C7.24332167,9.33256814 9.33256814,7.24349493 9.33256814,4.66637069 L9.33256814,4.66637069 C9.33256814,2.08924646 7.24332167,0 4.66619744,0 L4.66619744,0 C2.08907321,0 0,2.08924646 0,4.66637069" id="Fill-19" fill="url(#linearGradient-12)" mask="url(#mask-11)"></path>
                </g>
                <g transform="translate(1.166679, 7.056209)">
                    <mask id="mask-14" fill="white">
                        <use xlink:href="#path-13"></use>
                    </mask>
                    <g id="Clip-22"></g>
                    <path d="M0,3.88864225 C0,6.03627465 1.74083659,7.77728449 3.88846899,7.77728449 L3.88846899,7.77728449 C6.0361014,7.77728449 7.77711124,6.03627465 7.77711124,3.88864225 L7.77711124,3.88864225 C7.77711124,1.74100984 6.0361014,0 3.88846899,0 L3.88846899,0 C1.74083659,0 0,1.74100984 0,3.88864225" id="Fill-21" fill="url(#linearGradient-15)" mask="url(#mask-14)"></path>
                </g>
                <path d="M4.71171942,12.9794263 L4.71171942,9.8154974 C4.54730322,9.87561586 4.21881734,9.94682245 4.05474765,9.94682245 C4.02182976,9.94682245 4,9.78257951 4,9.64571039 C4,9.50347046 4.00519756,9.35551321 4.07120659,9.33940076 C4.41580492,9.26265011 4.83212959,9.0382887 4.93590757,9 L5.47783998,9 L5.47783998,12.9794263 C5.47783998,13.0340007 5.25902264,13.0340007 5.09460645,13.0340007 C4.93053676,13.0340007 4.71171942,13.0340007 4.71171942,12.9794263" id="Fill-23" fill="#EB3604"></path>
            </g>
        </g>
    </g>
</svg>