<?xml version="1.0" encoding="UTF-8"?>
<svg width="11px" height="16px" viewBox="0 0 11 16" version="1.1" xmlns="http://www.w3.org/2000/svg" xmlns:xlink="http://www.w3.org/1999/xlink">
    <title>编组</title>
    <defs>
        <path d="M1.94067178,0 C0.870818715,0 0,0.870992393 0,1.94067178 L0,1.94067178 L0,3.01573518 L0.965646601,3.01573518 L0.965646601,1.94067178 C0.965646601,1.40209802 1.40192435,0.965646601 1.94067178,0.965646601 L1.94067178,0.965646601 L4.04737921,0.965646601 C4.58612665,0.965646601 5.02257807,1.40209802 5.02257807,1.94067178 L5.02257807,1.94067178 L5.02257807,3.01573518 L5.98805099,3.01573518 L5.98805099,1.94067178 C5.98805099,0.870992393 5.11723228,0 4.04737921,0 L4.04737921,0 L1.94067178,0 Z" id="path-1"></path>
        <linearGradient x1="49.9997079%" y1="2.24275282%" x2="49.9997079%" y2="109.877378%" id="linearGradient-3">
            <stop stop-color="#0433D8" offset="0%"></stop>
            <stop stop-color="#0489BF" offset="100%"></stop>
        </linearGradient>
        <path d="M1.85041097,0 L3.2778659,3.86171802 L2.7757644,5.22039668 C2.74867072,5.28934663 2.70681446,5.3457918 2.65262709,5.38764806 C2.58385083,5.44669839 2.49770681,5.47865504 2.40409467,5.47865504 L0.395862357,5.47865504 C0.120062573,5.47865504 -0.0694195211,5.20302893 0.0241926224,4.94459689 L1.85041097,0 Z" id="path-4"></path>
        <linearGradient x1="58.9892056%" y1="47.4306432%" x2="48.5849661%" y2="55.8770851%" id="linearGradient-6">
            <stop stop-color="#FFFFFF" offset="0%"></stop>
            <stop stop-color="#02173B" offset="100%"></stop>
        </linearGradient>
        <path d="M0,5.05522943 C0,7.84709438 2.2631908,10.1104589 5.05522943,10.1104589 L5.05522943,10.1104589 C7.84726805,10.1104589 10.1104589,7.84709438 10.1104589,5.05522943 L10.1104589,5.05522943 C10.1104589,2.2631908 7.84726805,0 5.05522943,0 L5.05522943,0 C2.2631908,0 0,2.2631908 0,5.05522943" id="path-7"></path>
        <linearGradient x1="78.7916304%" y1="78.7919765%" x2="11.9896458%" y2="11.9899919%" id="linearGradient-9">
            <stop stop-color="#0489BF" offset="0%"></stop>
            <stop stop-color="#0433D8" offset="100%"></stop>
        </linearGradient>
        <path d="M0,4.66636563 C0,7.24356525 2.08933968,9.33273125 4.66636563,9.33273125 L4.66636563,9.33273125 C7.24339157,9.33273125 9.33273125,7.24356525 9.33273125,4.66636563 L9.33273125,4.66636563 C9.33273125,2.08933968 7.24339157,0 4.66636563,0 L4.66636563,0 C2.08933968,0 0,2.08933968 0,4.66636563" id="path-10"></path>
        <linearGradient x1="78.7915837%" y1="78.7920279%" x2="11.9895941%" y2="11.9900383%" id="linearGradient-12">
            <stop stop-color="#0433D8" offset="0%"></stop>
            <stop stop-color="#0489BF" offset="100%"></stop>
        </linearGradient>
        <path d="M0,3.88863802 C0,6.03615964 1.7411164,7.77727604 3.88863802,7.77727604 L3.88863802,7.77727604 C6.03615964,7.77727604 7.77727604,6.03615964 7.77727604,3.88863802 L7.77727604,3.88863802 C7.77727604,1.74094272 6.03615964,0 3.88863802,0 L3.88863802,0 C1.7411164,0 0,1.74094272 0,3.88863802" id="path-13"></path>
        <linearGradient x1="78.7915476%" y1="78.7919975%" x2="11.9896304%" y2="11.9900804%" id="linearGradient-15">
            <stop stop-color="#0489BF" offset="0%"></stop>
            <stop stop-color="#0433D8" offset="100%"></stop>
        </linearGradient>
    </defs>
    <g id="页面-1" stroke="none" stroke-width="1" fill="none" fill-rule="evenodd">
        <g id="Ostrich-Invite-Quest" transform="translate(-1080.000000, -314.000000)">
            <g id="编组" transform="translate(1080.000000, 314.000000)">
                <g transform="translate(2.061204, 4.014867)">
                    <mask id="mask-2" fill="white">
                        <use xlink:href="#path-1"></use>
                    </mask>
                    <g id="Clip-2"></g>
                    <path d="M1.94067178,0 C0.870818715,0 0,0.870992393 0,1.94067178 L0,1.94067178 L0,3.01573518 L0.965646601,3.01573518 L0.965646601,1.94067178 C0.965646601,1.40209802 1.40192435,0.965646601 1.94067178,0.965646601 L1.94067178,0.965646601 L4.04737921,0.965646601 C4.58612665,0.965646601 5.02257807,1.40209802 5.02257807,1.94067178 L5.02257807,1.94067178 L5.02257807,3.01573518 L5.98805099,3.01573518 L5.98805099,1.94067178 C5.98805099,0.870992393 5.11723228,0 4.04737921,0 L4.04737921,0 L1.94067178,0 Z" id="Fill-1" fill="url(#linearGradient-3)" mask="url(#mask-2)"></path>
                </g>
                <g transform="translate(3.616729, 0.000000)">
                    <path d="M1.85785768,0 L0.0248659166,4.96509083 C-0.0706566789,5.22387023 0.120909544,5.49862795 0.396535652,5.49862795 L0.778452356,5.49862795 L2.80839435,0 L1.85785768,0 Z" id="Fill-3" fill="#0068C9"></path>
                    <polygon id="Fill-5" fill="#FFFFFF" points="2.02994199 0 0 5.49862795 0.950536663 5.49862795 2.98047866 0"></polygon>
                    <path d="M2.02837889,0 L0.4774393,4.20073639 L0.00243148425,5.49029143 L0,5.49775956 L0.674389524,5.49775956 C0.768001667,5.49775956 0.854145681,5.46580291 0.922921949,5.40675258 C0.977109313,5.36489631 1.01896558,5.30827747 1.04605926,5.23932752 L2.97926291,0 L2.02837889,0 Z" id="Fill-7" fill="#FF341C"></path>
                    <g transform="translate(0.195093, 0.019764)">
                        <mask id="mask-5" fill="white">
                            <use xlink:href="#path-4"></use>
                        </mask>
                        <g id="Clip-10"></g>
                        <path d="M3.2778659,3.86171802 L2.7757644,5.22039668 C2.74867072,5.28934663 2.70681446,5.3457918 2.65262709,5.38764806 C2.58385083,5.44669839 2.49770681,5.47865504 2.40409467,5.47865504 L0.395862357,5.47865504 C0.120062573,5.47865504 -0.0694195211,5.20302893 0.0241926224,4.94459689 L1.85041097,0 L3.2778659,3.86171802 Z" id="Fill-9" fill="url(#linearGradient-6)" mask="url(#mask-5)"></path>
                    </g>
                    <path d="M0.950536663,0 L0,0 L2.02629477,5.49029143 L2.02889993,5.49775956 L2.6982528,5.49775956 C2.79186495,5.49775956 2.87800896,5.46580291 2.94695891,5.40675258 L2.50147626,4.20073639 L0.950536663,0 Z" id="Fill-11" fill="#0068C9"></path>
                    <polygon id="Fill-13" fill="#FFFFFF" points="0 0 2.02994199 5.49862795 2.98047866 5.49862795 0.950536663 0"></polygon>
                    <path d="M0,0 L1.93424572,5.2395012 C1.99173295,5.39511619 2.14005349,5.49862795 2.30591545,5.49862795 L2.98030498,5.49862795 L0.950362986,0 L0,0 Z" id="Fill-15" fill="#FF341C"></path>
                </g>
                <g transform="translate(0.000000, 5.889541)">
                    <mask id="mask-8" fill="white">
                        <use xlink:href="#path-7"></use>
                    </mask>
                    <g id="Clip-18"></g>
                    <path d="M0,5.05522943 C0,7.84709438 2.2631908,10.1104589 5.05522943,10.1104589 L5.05522943,10.1104589 C7.84726805,10.1104589 10.1104589,7.84709438 10.1104589,5.05522943 L10.1104589,5.05522943 C10.1104589,2.2631908 7.84726805,0 5.05522943,0 L5.05522943,0 C2.2631908,0 0,2.2631908 0,5.05522943" id="Fill-17" fill="url(#linearGradient-9)" mask="url(#mask-8)"></path>
                </g>
                <g transform="translate(0.388864, 6.278405)">
                    <mask id="mask-11" fill="white">
                        <use xlink:href="#path-10"></use>
                    </mask>
                    <g id="Clip-20"></g>
                    <path d="M7.01660952e-14,4.66636563 C7.01660952e-14,7.24356525 2.08933968,9.33273125 4.66636563,9.33273125 L4.66636563,9.33273125 C7.24339157,9.33273125 9.33273125,7.24356525 9.33273125,4.66636563 L9.33273125,4.66636563 C9.33273125,2.08933968 7.24339157,7.51398943e-13 4.66636563,7.51398943e-13 L4.66636563,7.51398943e-13 C2.08933968,7.51398943e-13 7.01660952e-14,2.08933968 7.01660952e-14,4.66636563" id="Fill-19" fill="url(#linearGradient-12)" mask="url(#mask-11)"></path>
                </g>
                <g transform="translate(1.166591, 7.056133)">
                    <mask id="mask-14" fill="white">
                        <use xlink:href="#path-13"></use>
                    </mask>
                    <g id="Clip-22"></g>
                    <path d="M0,3.88863802 C0,6.03615964 1.7411164,7.77727604 3.88863802,7.77727604 L3.88863802,7.77727604 C6.03615964,7.77727604 7.77727604,6.03615964 7.77727604,3.88863802 L7.77727604,3.88863802 C7.77727604,1.74094272 6.03615964,0 3.88863802,0 L3.88863802,0 C1.7411164,0 0,1.74094272 0,3.88863802" id="Fill-21" fill="url(#linearGradient-15)" mask="url(#mask-14)"></path>
                </g>
                <path d="M5.09132074,11.9988885 C5.37580439,11.9988885 5.59533269,11.8727986 5.59533269,11.6023829 L5.59533269,11.4764667 C5.59533269,11.1780889 5.46455357,11.0474834 5.10538861,11.0474834 L4.76011785,11.0474834 C4.71391965,11.0474834 4.71391965,10.9074994 4.71391965,10.7675154 C4.71391965,10.6275313 4.71391965,10.4830317 4.76011785,10.4830317 L5.10538861,10.4830317 C5.46003796,10.4830317 5.57171255,10.3338428 5.57171255,10.0540484 L5.57171255,9.94671576 C5.57171255,9.7369134 5.4273866,9.5736566 5.10538861,9.5736566 C4.87682909,9.5736566 4.60189769,9.6622321 4.34520243,9.816284 C4.27521042,9.85831394 4.01399954,9.33589218 4.08416523,9.29855153 C4.28476268,9.17732467 4.67623164,9 5.15210784,9 C5.7631051,9 6.20632994,9.32668728 6.20632994,9.88610233 L6.20632994,10.1052833 C6.20632994,10.4503804 5.98680165,10.6928341 5.70683361,10.7583105 C5.98211236,10.8283025 6.24801253,11.0987183 6.24801253,11.4531939 L6.24801253,11.6164507 C6.24801253,12.2133801 5.7631051,12.58175 5.100873,12.58175 C4.55066285,12.58175 4.06523439,12.3019556 4.01399954,12.2693042 C3.93966559,12.227448 4.18177195,11.6864427 4.26114254,11.7284727 C4.54111059,11.8823509 4.79780585,11.9988885 5.09132074,11.9988885" id="Fill-23" fill="#2C2274"></path>
            </g>
        </g>
    </g>
</svg>