<?xml version="1.0" encoding="UTF-8"?>
<svg width="11px" height="16px" viewBox="0 0 11 16" version="1.1" xmlns="http://www.w3.org/2000/svg" xmlns:xlink="http://www.w3.org/1999/xlink">
    <title>编组</title>
    <defs>
        <path d="M1.94060041,0 C0.870939938,0 0,0.870939938 0,1.94077366 L0,1.94077366 L0,3.01580495 L0.965535761,3.01580495 L0.965535761,1.94077366 C0.965535761,1.40195862 1.40195862,0.965535761 1.94060041,0.965535761 L1.94060041,0.965535761 L4.04734989,0.965535761 C4.58616493,0.965535761 5.02258778,1.40195862 5.02258778,1.94077366 L5.02258778,1.94077366 L5.02258778,3.01580495 L5.98795029,3.01580495 L5.98795029,1.94077366 C5.98795029,0.870939938 5.11718361,0 4.04734989,0 L4.04734989,0 L1.94060041,0 Z" id="path-1"></path>
        <linearGradient x1="50.0008651%" y1="3.00002758%" x2="50.0008651%" y2="112.434141%" id="linearGradient-3">
            <stop stop-color="#706E6E" offset="0%"></stop>
            <stop stop-color="#CFCFCF" offset="100%"></stop>
        </linearGradient>
        <path d="M1.85024482,0 L3.2778448,3.86162329 L2.77575927,5.2202688 C2.74873189,5.28905001 2.7068048,5.34570356 2.65275005,5.38763064 C2.58379558,5.44653647 2.49768913,5.47876142 2.40413282,5.47876142 L0.395790714,5.47876142 C0.120146107,5.47876142 -0.0693920453,5.20294356 0.0241642639,4.94445094 L1.85024482,0 Z" id="path-4"></path>
        <linearGradient x1="58.9888224%" y1="47.4278222%" x2="48.585089%" y2="55.8740727%" id="linearGradient-6">
            <stop stop-color="#FFFFFF" offset="0%"></stop>
            <stop stop-color="#02173B" offset="100%"></stop>
        </linearGradient>
        <path d="M0,5.05533249 C0,7.84712206 2.26336967,10.1104917 5.05515924,10.1104917 L5.05515924,10.1104917 C7.84694881,10.1104917 10.1103185,7.84712206 10.1103185,5.05533249 L10.1103185,5.05533249 C10.1103185,2.26336967 7.84694881,0 5.05515924,0 L5.05515924,0 C2.26336967,0 0,2.26336967 0,5.05533249" id="path-7"></path>
        <linearGradient x1="78.7916323%" y1="78.7920397%" x2="11.991144%" y2="11.9904066%" id="linearGradient-9">
            <stop stop-color="#CFCFCF" offset="0%"></stop>
            <stop stop-color="#706E6E" offset="100%"></stop>
        </linearGradient>
        <path d="M0,4.6663808 C0,7.24333736 2.08907773,9.33258835 4.66620755,9.33258835 L4.66620755,9.33258835 C7.24333736,9.33258835 9.33258835,7.24333736 9.33258835,4.6663808 L9.33258835,4.6663808 C9.33258835,2.08925099 7.24333736,0 4.66620755,0 L4.66620755,0 C2.08907773,0 0,2.08925099 0,4.6663808" id="path-10"></path>
        <linearGradient x1="78.7918345%" y1="78.7925793%" x2="11.9889129%" y2="11.9896577%" id="linearGradient-12">
            <stop stop-color="#706E6E" offset="0%"></stop>
            <stop stop-color="#CFCFCF" offset="100%"></stop>
        </linearGradient>
        <path d="M0,3.88865067 C0,6.03628772 1.74084036,7.77712808 3.88847741,7.77712808 L3.88847741,7.77712808 C6.03611447,7.77712808 7.77712808,6.03628772 7.77712808,3.88865067 L7.77712808,3.88865067 C7.77712808,1.74084036 6.03611447,0 3.88847741,0 L3.88847741,0 C1.74084036,0 0,1.74084036 0,3.88865067" id="path-13"></path>
        <linearGradient x1="78.7918272%" y1="78.7927187%" x2="11.9887525%" y2="11.989644%" id="linearGradient-15">
            <stop stop-color="#CFCFCF" offset="0%"></stop>
            <stop stop-color="#706E6E" offset="100%"></stop>
        </linearGradient>
    </defs>
    <g id="页面-1" stroke="none" stroke-width="1" fill="none" fill-rule="evenodd">
        <g id="Ostrich-Invite-Quest" transform="translate(-1080.000000, -268.000000)">
            <g id="编组" transform="translate(1080.000000, 268.000000)">
                <g transform="translate(2.061184, 4.014917)">
                    <mask id="mask-2" fill="white">
                        <use xlink:href="#path-1"></use>
                    </mask>
                    <g id="Clip-2"></g>
                    <path d="M1.94060041,0 C0.870939938,0 0,0.870939938 0,1.94077366 L0,1.94077366 L0,3.01580495 L0.965535761,3.01580495 L0.965535761,1.94077366 C0.965535761,1.40195862 1.40195862,0.965535761 1.94060041,0.965535761 L1.94060041,0.965535761 L4.04734989,0.965535761 C4.58616493,0.965535761 5.02258778,1.40195862 5.02258778,1.94077366 L5.02258778,1.94077366 L5.02258778,3.01580495 L5.98795029,3.01580495 L5.98795029,1.94077366 C5.98795029,0.870939938 5.11718361,0 4.04734989,0 L4.04734989,0 L1.94060041,0 Z" id="Fill-1" fill="url(#linearGradient-3)" mask="url(#mask-2)"></path>
                </g>
                <g transform="translate(3.616688, 0.000000)">
                    <path d="M1.85785981,0 L0.0248491639,4.96506798 C-0.0706129219,5.22373385 0.120831007,5.49851219 0.396475614,5.49851219 L0.77849721,5.49851219 L2.80832262,0 L1.85785981,0 Z" id="Fill-3" fill="#0068C9"></path>
                    <polygon id="Fill-5" fill="#FFFFFF" points="2.0298254 0 0 5.49851219 0.950462801 5.49851219 2.98028821 0"></polygon>
                    <path d="M2.02843939,0 L0.477483682,4.20067828 L0.00242553394,5.49036933 L0,5.49781919 L0.674471688,5.49781919 C0.768027998,5.49781919 0.854134453,5.46576749 0.923088917,5.40668841 C0.977143674,5.36493458 1.01889751,5.30828103 1.04609814,5.23932657 L2.97924869,0 L2.02843939,0 Z" id="Fill-7" fill="#FF341C"></path>
                    <g transform="translate(0.195130, 0.019889)">
                        <mask id="mask-5" fill="white">
                            <use xlink:href="#path-4"></use>
                        </mask>
                        <g id="Clip-10"></g>
                        <path d="M3.2778448,3.86162329 L2.77575927,5.2202688 C2.74873189,5.28905001 2.7068048,5.34570356 2.65275005,5.38763064 C2.58379558,5.44653647 2.49768913,5.47876142 2.40413282,5.47876142 L0.395790714,5.47876142 C0.120146107,5.47876142 -0.0693920453,5.20294356 0.0241642639,4.94445094 L1.85024482,0 L3.2778448,3.86162329 Z" id="Fill-9" fill="url(#linearGradient-6)" mask="url(#mask-5)"></path>
                    </g>
                    <path d="M0.950462801,0 L0,0 L2.0261871,5.49036933 L2.02878589,5.49781919 L2.69823326,5.49781919 C2.79178957,5.49781919 2.87789602,5.46576749 2.94685049,5.40668841 L2.5014185,4.20067828 L0.950462801,0 Z" id="Fill-11" fill="#0068C9"></path>
                    <polygon id="Fill-13" fill="#FFFFFF" points="0 0 2.0298254 5.49851219 2.98028821 5.49851219 0.950462801 0"></polygon>
                    <path d="M0,0 L1.93436332,5.23967307 C1.99170987,5.39525375 2.1401872,5.49851219 2.30598977,5.49851219 L2.98046146,5.49851219 L0.950462801,0 L0,0 Z" id="Fill-15" fill="#FF341C"></path>
                </g>
                <g transform="translate(0.000000, 5.889508)">
                    <mask id="mask-8" fill="white">
                        <use xlink:href="#path-7"></use>
                    </mask>
                    <g id="Clip-18"></g>
                    <path d="M-5.86197757e-14,5.05533249 C-5.86197757e-14,7.84712206 2.26336967,10.1104917 5.05515924,10.1104917 L5.05515924,10.1104917 C7.84694881,10.1104917 10.1103185,7.84712206 10.1103185,5.05533249 L10.1103185,5.05533249 C10.1103185,2.26336967 7.84694881,-6.14619466e-13 5.05515924,-6.14619466e-13 L5.05515924,-6.14619466e-13 C2.26336967,-6.14619466e-13 -5.86197757e-14,2.26336967 -5.86197757e-14,5.05533249" id="Fill-17" fill="url(#linearGradient-9)" mask="url(#mask-8)"></path>
                </g>
                <g transform="translate(0.388952, 6.278460)">
                    <mask id="mask-11" fill="white">
                        <use xlink:href="#path-10"></use>
                    </mask>
                    <g id="Clip-20"></g>
                    <path d="M6.03961325e-14,4.6663808 C6.03961325e-14,7.24333736 2.08907773,9.33258835 4.66620755,9.33258835 L4.66620755,9.33258835 C7.24333736,9.33258835 9.33258835,7.24333736 9.33258835,4.6663808 L9.33258835,4.6663808 C9.33258835,2.08925099 7.24333736,5.86197757e-14 4.66620755,5.86197757e-14 L4.66620755,5.86197757e-14 C2.08907773,5.86197757e-14 6.03961325e-14,2.08925099 6.03961325e-14,4.6663808" id="Fill-19" fill="url(#linearGradient-12)" mask="url(#mask-11)"></path>
                </g>
                <g transform="translate(1.166682, 7.056190)">
                    <mask id="mask-14" fill="white">
                        <use xlink:href="#path-13"></use>
                    </mask>
                    <g id="Clip-22"></g>
                    <path d="M0,3.88865067 C0,6.03628772 1.74084036,7.77712808 3.88847741,7.77712808 L3.88847741,7.77712808 C6.03611447,7.77712808 7.77712808,6.03628772 7.77712808,3.88865067 L7.77712808,3.88865067 C7.77712808,1.74084036 6.03611447,0 3.88847741,0 L3.88847741,0 C1.74084036,0 0,1.74084036 0,3.88865067" id="Fill-21" fill="url(#linearGradient-15)" mask="url(#mask-14)"></path>
                </g>
                <path d="M4.66234402,11.8822273 L4.66234402,11.9570724 L6.28537273,11.9570724 C6.33215089,11.9570724 6.33215089,12.0877047 6.33215089,12.2275194 C6.33215089,12.3671609 6.33215089,12.4932886 6.28537273,12.4932886 L4,12.4932886 L4,12.1109205 C4,11.3506889 4.22366888,10.9868588 4.97489139,10.660278 C5.6044907,10.3853264 5.73027196,10.2687275 5.73027196,10.0074628 C5.73027196,9.74619819 5.55320799,9.55977858 5.21709828,9.55977858 C4.9468245,9.55977858 4.66234402,9.64813732 4.37786354,9.78379397 C4.30804281,9.81653868 4.09338306,9.29851393 4.15887247,9.26126466 C4.40107936,9.13063233 4.81619217,9 5.2221226,9 C5.91703808,9 6.35987127,9.33108538 6.35987127,10.0074628 C6.35987127,10.5577125 6.11264006,10.8049438 5.45982493,11.0753908 C4.84876363,11.3274731 4.66234402,11.5183972 4.66234402,11.8822273" id="Fill-23" fill="#555454"></path>
            </g>
        </g>
    </g>
</svg>