<?xml version="1.0" encoding="UTF-8"?>
<svg width="123px" height="120px" viewBox="0 0 123 120" version="1.1" xmlns="http://www.w3.org/2000/svg" xmlns:xlink="http://www.w3.org/1999/xlink">
    <title>编组</title>
    <defs>
        <polygon id="path-1" points="-1.91016288e-14 0 42.6399512 0 42.6399512 14.4934346 -1.91016288e-14 14.4934346"></polygon>
    </defs>
    <g id="页面-1" stroke="none" stroke-width="1" fill="none" fill-rule="evenodd">
        <g id="Ostrich-launchpad-Project-缺省" transform="translate(-654.000000, -1018.000000)">
            <g id="编组" transform="translate(654.000000, 1018.000000)">
                <path d="M101.425296,120 L27.3191973,120 C25.4709805,120 23.9588032,118.487823 23.9588032,116.639606 C23.9588032,114.791389 25.4709805,113.279212 27.3191973,113.279212 L101.425296,113.279212 C103.273512,113.279212 104.78569,114.791389 104.78569,116.639606 C104.78569,118.487823 103.273512,120 101.425296,120" id="Fill-1" fill="#E7EBEB"></path>
                <path d="M9.93399695,109.875536 C5.60043276,109.875536 2.08680472,111.440135 2.08680472,113.370346 C2.08680472,115.299884 5.60043276,116.864484 9.93399695,116.864484 C14.2675611,116.864484 17.7811892,115.299884 17.7811892,113.370346 C17.7811892,111.440135 14.2675611,109.875536 9.93399695,109.875536" id="Fill-3" fill="#696066"></path>
                <path d="M9.93399695,108.161197 C3.41214414,108.161197 0,110.781633 0,113.37048 C0,115.959328 3.41214414,118.579091 9.93399695,118.579091 C16.4558498,118.579091 19.8679939,115.959328 19.8679939,113.37048 C19.8679939,110.781633 16.4558498,108.161197 9.93399695,108.161197 M9.93399695,109.87567 C14.2675611,109.87567 17.7811892,111.44027 17.7811892,113.37048 C17.7811892,115.300018 14.2675611,116.864618 9.93399695,116.864618 C5.60043276,116.864618 2.08680472,115.300018 2.08680472,113.37048 C2.08680472,111.44027 5.60043276,109.87567 9.93399695,109.87567" id="Fill-5" fill="#E7EBEB"></path>
                <path d="M6.40034096,117.536831 L13.077444,117.536831 C17.0474135,105.89777 18.5750487,90.2067462 17.6052389,70.7823243 C16.4096107,46.8334679 22.0705306,41.3835808 22.1276573,41.3311586 C22.0154201,41.4339867 21.9475402,41.4716231 21.9475402,41.4716231 L17.5837324,35.3153811 C16.0829804,36.3792819 8.66793488,43.1061188 10.0692192,71.1586884 C11.0134899,90.0662817 9.43612096,105.58727 5.51521316,116.284748 C5.292083,116.894324 5.75111283,117.536831 6.40034096,117.536831" id="Fill-7" fill="#F0C2C5"></path>
                <path d="M12.1536716,72.5147419 C10.9083096,47.5839783 16.6229958,39.5022305 18.9645183,37.2642081 L17.5833964,35.3151795 C16.0833165,36.3790803 8.66759884,43.1059171 10.0688832,71.1584868 C11.013826,90.0660801 9.43578492,105.587068 5.5155492,116.284547 C5.29174696,116.89345 5.75144887,117.53663 6.40000492,117.53663 L7.63528578,117.53663 C11.5293104,106.842511 13.0952541,91.3625201 12.1536716,72.5147419" id="Fill-9" fill="#EAA9AC"></path>
                <path d="M16.4926797,58.7088989 C16.1855397,57.8943393 15.0853466,57.3002217 14.1874493,57.2451112 C12.7397916,57.1563968 11.7901442,58.2982587 11.7901442,58.2982587 C11.3008708,57.405066 10.7128019,56.9890492 10.1664018,56.8539613 C10.0413951,58.5133239 9.95604113,60.2936607 9.9190768,62.2070691 C9.93587877,62.2070691 9.95200866,62.2124457 9.96881063,62.2111016 C10.0615575,62.206397 10.1583369,62.1956438 10.2598208,62.1795139 C11.3170007,62.0067896 11.8983489,60.9395285 11.8983489,60.9395285 C12.0764498,62.1217151 13.0724706,62.6802126 14.0873096,62.7037353 C15.8824321,62.7454042 16.350871,61.2359152 16.350871,61.2359152 C16.3898516,62.1956438 16.9080244,62.7057516 17.4517361,62.9114077 C17.4779472,61.0813371 17.5491876,59.3977797 17.6573923,57.8499821 C16.8253587,58.1006675 16.4926797,58.7088989 16.4926797,58.7088989" id="Fill-11" fill="#EAA9AC"></path>
                <path d="M29.0022843,24.1244624 C27.5559707,27.3262459 29.0836058,54.2611485 21.8392683,53.4633909 C21.1019978,53.3820694 20.0192788,54.1274048 19.3828202,56.2135374 C19.0346834,55.876826 18.5084457,55.7229199 17.7913376,55.8492707 C16.8154791,56.0213229 16.6615731,57.3762338 16.6615731,57.3762338 C16.3309103,56.6114081 14.8241096,55.7108225 14.034417,55.723592 C12.6223794,55.7450985 11.8743557,57.249883 11.8743557,57.249883 C10.751312,55.3727668 9.64910274,55.4298935 9.28281978,56.0865145 C7.87347051,38.1050459 21.5785017,26.4270044 29.0022843,24.1244624" id="Fill-13" fill="#52504D"></path>
                <path d="M23.4372701,35.9061384 C24.0112254,43.4085542 26.5698294,53.9837144 21.8390666,53.4635254 C21.1017962,53.3822038 20.0190772,54.1268671 19.3832907,56.2136719 C19.0344817,55.8769604 18.5317668,56.3783312 17.8153308,56.504682 C16.8394723,56.6767342 16.6613715,57.3756961 16.6613715,57.3756961 C16.3441503,56.6417861 14.9408497,55.7828693 14.1309947,55.7277589 C14.1309947,52.2504231 14.1309947,42.9421315 23.4372701,35.9061384" id="Fill-15" fill="#373532"></path>
                <path d="M11.790077,56.4235621 C11.790077,56.4235621 12.7397244,55.1667747 14.1873821,55.2642261 C15.0852794,55.3247132 16.1854724,55.979318 16.4926125,56.8772153 C16.4926125,56.8772153 17.0820256,55.6883079 18.6540179,55.8233957 C19.4141391,55.8395256 19.8388929,56.551257 19.7320324,57.3046574 C19.5559477,58.5500194 19.4511034,58.9875427 19.2219245,60.4210869 C19.1110315,61.1099676 18.7958266,61.4594486 18.3616636,61.5864715 C17.7050426,61.7773419 16.4126351,61.3552764 16.3508038,59.6602936 C16.3508038,59.6602936 15.8823649,61.3236887 14.0872424,61.2779873 C13.0724034,61.2524483 12.0763826,60.6368242 11.8982817,59.3350075 C11.8982817,59.3350075 11.3169335,60.5104733 10.2597535,60.6999996 C10.1582696,60.7188178 10.0614903,60.729571 9.96874342,60.7356197 C9.35849586,60.7698958 8.80403084,60.0312811 8.74959245,59.4230498 C8.63332282,58.1306423 8.60375135,57.1467189 8.58685192,55.936977 C8.57955651,55.3650379 8.99355706,54.8562743 9.56146366,54.7850339 C10.2436237,54.6983358 11.1126216,55.0612583 11.790077,56.4235621" id="Fill-17" fill="#FFFFFF"></path>
                <g transform="translate(80.344087, 3.279883)">
                    <mask id="mask-2" fill="white">
                        <use xlink:href="#path-1"></use>
                    </mask>
                    <g id="Clip-20"></g>
                    <path d="M34.6337452,4.99494476 C42.792782,6.68119051 42.7168371,3.52914087 42.6200577,3.49486485 C16.9271567,-5.76705328 3.42173297,6.23694641 1.8665426,6.88550246 C1.75027296,7.08510987 1.64542867,7.27665233 1.54730516,7.4648344 C0.129218864,10.1941465 -0.142973055,12.5759938 0.0593226677,14.4934346 C4.51050065,8.47295262 12.4047384,0.401286069 34.6337452,4.99494476" id="Fill-19" fill="#E0D5CD" mask="url(#mask-2)"></path>
                </g>
                <path d="M122.96401,6.77441178 C123.01576,5.01423737 119.851613,2.60080235 115.705559,1.53286911 C103.762719,-1.54256354 89.0986309,-0.477318621 82.7884829,9.23623647 C82.5855151,9.54808104 82.3879239,9.85790938 82.2104951,10.1650494 C83.7656855,9.51649334 85.9412046,7.22000003 90.6618862,5.59222515 C102.123518,1.64040172 114.69408,4.18892458 122.96401,6.77441178" id="Fill-21" fill="#EEE9E4"></path>
                <path d="M83.7819498,16.4572529 C89.7621071,13.4544047 83.2651212,13.6708141 96.1764273,13.5545445 C111.877533,13.4127358 115.135771,21.3163827 118.40409,18.6253791 C109.617331,5.59578716 90.0437081,7.53540662 80.1540684,17.2281273 C80.1560846,17.2590429 80.1587729,17.2899585 80.1614612,17.3202021 C80.176919,17.4620107 80.193721,17.601131 80.2132113,17.737563 C80.2239646,17.8101475 80.2374061,17.8800437 80.2488315,17.9512841 C81.4202649,17.3611989 82.6044677,16.8551235 83.7819498,16.4572529" id="Fill-23" fill="#E0D5CD"></path>
                <path d="M90.9975896,24.8312877 C91.0775669,25.8609124 89.2710191,26.0121302 88.2259365,26.0148185 C90.8147841,27.2171675 94.9373156,30.3262041 95.938713,31.0984226 C97.7492933,32.4963466 98.573934,31.6165954 98.5887198,31.5910564 C98.2305018,30.1964929 95.7236478,27.1976772 90.9975896,24.8312877" id="Fill-25" fill="#E0D5CD"></path>
                <path d="M90.9831399,25.2106762 C95.7609482,27.3727537 98.5218479,30.9750962 98.5883837,31.5907204 C99.4741836,30.521443 99.2033358,29.4978669 97.873964,27.7652477 C95.4591848,24.6172306 90.9407989,23.1520988 90.5019314,23.0149947 C90.8238572,23.5909662 90.96701,25.0238383 90.9831399,25.2106762" id="Fill-27" fill="#EEE9E4"></path>
                <path d="M81.3660281,21.1204045 C81.3848463,21.1593851 81.4036645,21.1983657 81.4231548,21.2366742 C81.45071,21.2904405 81.4782653,21.3442068 81.5064926,21.397301 C81.5488335,21.4766063 81.5931907,21.5545674 81.6368759,21.6318565 C81.6731681,21.6950319 81.7094604,21.7575352 81.7464247,21.8193665 C81.7887657,21.8899348 81.8311066,21.9591589 81.8747918,22.0270388 C81.9043632,22.0734123 81.9339347,22.1191136 81.9641782,22.1654871 C82.0098796,22.2340391 82.055581,22.3025911 82.1026265,22.3684549 C82.1389187,22.4215491 82.175211,22.4726271 82.2121753,22.523033 C82.2202403,22.5344583 82.2289773,22.5452116 82.2370422,22.5566369 C82.3089547,22.5640298 82.3808671,22.5720948 82.4521075,22.5808318 C86.7567723,21.6661325 94.2780063,23.4034562 99.5316463,26.9271655 C102.546592,28.9481065 103.541941,28.2955179 103.660227,28.0723878 C99.4496527,19.666026 88.6701806,19.6680422 81.3660281,21.1204045" id="Fill-29" fill="#E0D5CD"></path>
                <path d="M81.102842,20.5434921 C81.1398064,20.6322065 81.1774428,20.7195767 81.2164233,20.8056028 C81.2486831,20.8761711 81.2809429,20.9467394 81.3138748,21.0152914 C81.3313488,21.0509116 81.3481508,21.0858597 81.3662969,21.1201357 C88.6704495,19.6677734 100.560868,21.3876231 103.659823,28.0721189 C104.736494,26.110993 103.092589,23.5295382 101.91309,22.4226244 C99.8464481,20.4816608 96.6930543,18.6851941 90.9992026,18.3814145 C91.113456,18.3625963 87.1367656,17.9869043 81.102842,20.5434921" id="Fill-31" fill="#EEE9E4"></path>
                <path d="M84.0031309,17.6025424 C82.9217561,18.2591634 81.8235793,19.0260053 80.7368279,19.9212143 C80.763039,20.0079125 80.7892501,20.0946106 80.8168053,20.1786205 C80.8416722,20.2525491 80.8678833,20.3258057 80.8940943,20.3983902 C80.9223217,20.4776955 80.951221,20.5563288 80.9814646,20.6336178 C81.0056594,20.6961212 81.0305263,20.7579524 81.0553933,20.8191116 C88.6942411,18.3875304 97.65574,17.4190649 104.674931,22.229805 C106.72746,23.636466 108.290043,24.5605743 109.563632,23.9147066 C109.671837,23.8595961 109.772649,23.7937324 109.865396,23.7204758 C104.945107,14.0015441 92.2206386,15.0123506 84.0031309,17.6025424" id="Fill-33" fill="#E0D5CD"></path>
                <path d="M109.865665,23.7201398 C111.147319,22.716054 110.768266,20.609759 109.272891,18.9309062 C107.01269,16.3938086 101.850453,12.9245378 94.0691242,13.5583081 C91.4701954,13.6470225 89.7469853,14.1147894 84.0033998,17.6022063 C92.2202353,15.0126867 104.952768,14.9441346 109.865665,23.7201398" id="Fill-35" fill="#EEE9E4"></path>
                <path d="M80.1134748,16.6175437 C80.114819,16.6639171 80.1175073,16.7089464 80.1201956,16.7559919 C80.1255722,16.8702453 80.1329651,16.9831545 80.1417021,17.0947196 C80.1450625,17.1397489 80.149095,17.183434 80.1537995,17.2284633 C90.0441114,7.53507058 110.771022,8.1594318 118.403821,18.6250431 C123.061999,13.7712899 99.0553441,-3.62950267 80.1134748,16.6175437 Z" id="Fill-37" fill="#EEE9E4"></path>
                <path d="M90.6831911,23.0881169 C93.3076589,23.728608 95.0261644,23.2615132 95.2916355,22.1062097 C95.9186851,19.3782418 91.5246338,18.3923022 91.5246338,18.3923022 C97.5706548,19.1336051 98.9215332,17.4722263 98.3979838,15.551425 C97.9591163,13.9370917 93.9615916,13.5540068 93.9615916,13.5540068 C99.1137477,13.3073539 100.922312,10.5867789 99.6352809,8.57323073 C98.2279479,6.37015637 93.6020294,7.93206754 93.6020294,7.93206754 C98.3704286,4.16977034 93.5912761,1.27109441 91.1549904,2.11119293 C84.2661826,4.48699154 80.517327,8.12226584 80.517327,8.12226584 C80.67997,14.9263918 82.5765764,18.578468 84.2688709,25.2790938 C84.9100341,24.930957 85.7756716,24.6681742 88.8208607,26.4841311 C89.7658035,27.0480052 91.6046112,27.617256 92.2733296,26.5479786 C93.3177401,24.8805511 90.72486,23.1022305 90.6831911,23.0881169" id="Fill-39" fill="#373532"></path>
                <path d="M82.5060754,68.2683463 L85.6608133,102.746662 C85.214553,105.227977 83.9255058,107.796662 81.7325127,108.755046 C79.2800971,109.82634 72.0256784,109.217436 70.6391798,111.759238 C69.4422074,113.95492 70.4120171,116.073312 72.9121503,116.073312 L85.0445171,116.073312 C87.5097022,116.073312 85.8920084,114.301713 89.3881624,112.915214 C91.4796717,112.085197 92.9024626,110.658373 92.9024626,105.981377 L90.595216,70.5789533 L82.5060754,68.2683463 Z" id="Fill-41" fill="#ECB4B7"></path>
                <path d="M82.3492122,113.097415 C82.3492122,113.097415 74.7130527,114.084698 73.9858634,114.136448 C73.3265541,114.183494 71.7276786,114.862966 70.1577025,113.210324 C69.9634717,114.801806 70.9762945,116.07338 72.9118815,116.07338 L82.5918326,116.07338 C82.466826,114.469799 82.3492122,113.097415 82.3492122,113.097415" id="Fill-43" fill="#EAA9AC"></path>
                <path d="M71.1010323,111.759171 C67.2110402,111.759171 67.056462,116.30444 67.056462,116.30444 C67.056462,116.30444 68.2890546,115.225082 71.4229581,115.225082 C71.6958221,115.225082 72.6004402,114.723039 72.6219467,113.647041 C72.642109,112.568354 72.2113065,111.759171 71.1010323,111.759171" id="Fill-45" fill="#E9E2DC"></path>
                <path d="M81.9633045,111.759171 C81.9633045,111.759171 79.8832206,114.069778 79.1903073,117.537033 L85.7894492,117.537033 C86.6201386,117.537033 87.3715227,117.062545 87.7411661,116.318554 C88.046962,115.703602 88.9986256,112.871462 90.0820166,112.220889 C92.3932956,110.835063 85.4298871,110.372673 81.9633045,111.759171" id="Fill-47" fill="#ECB4B7"></path>
                <path d="M60.7993411,37.1997557 C53.5140067,41.5709563 55.5409964,47.7728996 59.7065409,53.8323622 C69.1821801,65.6192804 82.3838242,65.0533901 83.131848,74.2837205 C83.5082121,78.9163598 90.5946111,71.7002495 90.7034879,70.5792221 C91.267362,64.7549871 87.2617723,65.3067638 82.9779419,56.2417648 C73.3450363,35.8555981 66.3298776,33.8817026 60.7993411,37.1997557" id="Fill-49" fill="#ECB4B7"></path>
                <path d="M63.8676497,50.1327028 C60.8076748,45.6815248 58.3848307,40.3075826 60.6161324,36.2616681 C53.3966618,39.7645429 55.6293076,47.9020732 59.7068097,53.8324966 C69.1817769,65.6194149 82.6314181,65.3929243 83.0077822,74.0331695 C83.0077822,71.7064327 83.7040559,68.9246985 80.8880456,64.5541699 C79.2508616,62.0116958 75.2311583,59.3677377 63.8676497,50.1327028" id="Fill-51" fill="#EAA9AC"></path>
                <path d="M20.230446,32.1263672 C16.8216623,38.1313914 14.1864412,53.1523529 29.2295813,57.8683299 C49.1063122,64.0991726 73.4140588,45.9920252 80.0709994,35.3610825 C86.5444626,25.0251824 87.3563338,15.0676627 84.2735082,9.80797392 C77.4962655,1.70740798 57.7190022,4.72235354 49.3112963,7.81122777 C34.2809257,13.3330273 25.2246637,23.332888 20.230446,32.1263672" id="Fill-53" fill="#52504D"></path>
                <path d="M78.3659355,29.9073646 C79.0635533,24.0118892 73.7211988,23.2846999 71.4569653,22.9123683 C71.4569653,22.9123683 74.7998853,21.546032 74.5747389,19.4283117 C74.1251182,15.1901827 66.0393379,10.2927444 47.8717035,15.6485404 L51.7045689,15.7654822 C49.7757027,15.9449272 49.4517607,17.0000909 47.4745049,17.631845 C24.4732796,24.9857314 21.7291818,40.0275273 24.315341,45.0533327 C26.9512341,50.1779337 33.9845389,53.9677861 46.3682631,52.3238813 C49.3852249,51.9239944 51.9290433,51.4374094 54.0716305,50.8903372 C54.7457256,50.7176129 55.4198206,50.5603465 56.1039968,50.4239145 C57.8030121,50.0851868 60.9355714,49.3989943 64.1736472,48.4211196 L75.5143051,38.2794503 C75.0041972,36.2739672 73.2561203,35.5024207 73.2561203,35.5024207 C73.2561203,35.5024207 77.859188,34.1898508 78.3659355,29.9073646" id="Fill-55" fill="#373532"></path>
                <path d="M76.567587,5.49658833 C80.3419816,7.61229244 80.1706015,20.6566701 74.3436782,29.9602572 C68.3507514,39.5299874 46.4712256,55.8292428 28.5791434,50.220073 C21.1466238,47.8899757 18.5087145,42.7653748 18.1484802,37.7220954 C16.5731275,44.7305332 17.7862298,54.2814453 29.2290437,57.8683299 C49.1064467,64.0991726 73.4141932,45.9920252 80.0711338,35.3617546 C86.544597,25.0251824 87.3564682,15.0676627 84.2736427,9.80797392 C82.4717994,7.65396132 79.7498802,6.28628094 76.567587,5.49658833" id="Fill-57" fill="#373532"></path>
                <path d="M81.6390265,32.449301 C74.9820859,43.0795716 52.4432508,58.3008126 32.3400293,52.8395002 C18.3822965,49.0476315 17.3331814,40.0915092 22.496763,28.4732828 C22.2286035,28.9161827 20.4791824,31.6891799 20.2305132,32.1267032 C16.8217295,38.1310553 14.1865084,53.1526889 29.2296485,57.8679939 C49.1063794,64.0995086 73.414126,45.9916891 80.0710666,35.3614185 C80.9501457,33.9587901 81.7149714,32.5642265 82.3890665,31.1857929 C82.1437577,31.6065142 81.9038256,32.0265635 81.6390265,32.449301" id="Fill-59" fill="#373532"></path>
                <path d="M57.4068216,72.3651371 L49.9218799,102.74646 C49.4749475,105.227775 48.1865724,107.797132 45.9935792,108.755517 C43.5404915,109.826138 36.2867449,109.217235 34.9002463,111.759037 C33.7019298,113.954718 34.6724116,116.073111 37.1732169,116.073111 L49.3055836,116.073111 C51.7707687,116.073111 50.153075,114.301511 53.649229,112.915012 C55.7400662,112.085667 57.1635291,110.658844 57.1635291,105.981847 L65.4952901,74.6757441 L57.4068216,72.3651371 Z" id="Fill-61" fill="#F0C2C5"></path>
                <path d="M46.6095394,113.097415 C46.6095394,113.097415 38.974052,114.084698 38.2468628,114.136448 C37.5868814,114.183494 35.9886779,114.862966 34.4180298,113.210324 C34.2244711,114.801806 35.2372938,116.07338 37.1728808,116.07338 L46.852832,116.07338 C46.7271532,114.469799 46.6095394,113.097415 46.6095394,113.097415" id="Fill-63" fill="#EAA9AC"></path>
                <path d="M35.3620989,111.759171 C31.4721067,111.759171 31.3175286,116.30444 31.3175286,116.30444 C31.3175286,116.30444 32.5501211,115.225082 35.6840246,115.225082 C35.9562165,115.225082 36.8615067,114.723039 36.8823411,113.647041 C36.9025035,112.568354 36.4723731,111.759171 35.3620989,111.759171" id="Fill-65" fill="#E9E2DC"></path>
                <path d="M46.2243039,111.759171 C46.2243039,111.759171 44.1442199,114.069778 43.4506346,117.537033 L50.0497765,117.537033 C50.881138,117.537033 51.6325221,117.062545 52.0021654,116.318554 C52.3072892,115.703602 53.2589528,112.871462 54.3423439,112.220889 C56.654295,110.835063 49.6902143,110.372673 46.2243039,111.759171" id="Fill-67" fill="#F0C2C5"></path>
                <path d="M53.078298,29.8207336 C44.5832218,29.687662 43.8103312,37.9159229 45.1175245,45.1521955 C48.9120815,59.7920883 59.012754,65.4355341 57.0119753,74.7700367 C56.1530586,78.7742823 64.5406022,76.9240493 65.1723563,75.9925481 C68.2941624,71.3908245 64.2798356,71.5642208 65.306772,61.5912433 C67.5199276,40.1116044 65.7463116,30.0189968 53.078298,29.8207336" id="Fill-69" fill="#F0C2C5"></path>
                <path d="M63.3990763,48.6756359 C64.0483045,48.3080088 64.991231,47.7488392 66.0974728,47.0350915 C66.0813429,46.3341133 65.9751544,42.9152484 65.9348297,42.2579553 C63.2082059,43.653863 60.8364398,44.5880525 59.5339511,45.0618681 C57.4747016,45.9745511 54.928195,46.8811855 51.7996681,47.7589204 C51.3823071,46.2756424 51.0711346,47.4269134 50.7290465,45.7030313 C50.0771301,40.3411865 50.9226052,34.3596851 54.7729448,31.8064577 C46.7516841,31.570558 44.9646265,39.816293 45.8342965,46.9611628 C46.1669755,48.6373274 46.5897131,50.1797483 47.0695774,51.6220294 C49.3022232,57.5302743 58.0600822,68.221704 56.4874178,76.0124416 C59.3666034,67.5213979 56.0015048,62.9492457 52.975806,54.0247112 C53.6485569,53.7578959 54.3307169,53.4762949 55.031023,53.1597457 C58.5318816,51.575656 61.2712748,50.0782644 63.3990763,48.6756359" id="Fill-71" fill="#EAA9AC"></path>
                <path d="M50.3414587,49.8117851 C50.3414587,49.8117851 63.979282,47.3358468 71.5885583,39.7379958 C75.5040895,35.8278412 69.9433094,34.9863986 69.9433094,34.9863986 C69.9433094,34.9863986 76.6103312,32.54272 76.3502367,27.6923272 C76.1385319,23.7331109 69.1489122,23.5281269 66.9922113,23.3809416 C66.9922113,23.3809416 72.6141506,21.8317999 72.4313451,18.7267958 C72.1302538,13.5887533 57.9043616,14.0377019 47.3419709,15.8301361 L50.3414587,49.8117851 Z" id="Fill-73" fill="#FFFFFF"></path>
                <path d="M66.9924801,23.3808072 C66.9924801,23.3808072 72.6137473,21.8316655 72.431614,18.7266614 C72.4222049,18.5673787 72.3993542,18.4128006 72.363734,18.2649433 C69.5846881,18.5606579 61.2408296,19.5311397 47.8664612,21.767146 L48.4565464,28.4509698 C56.7748659,26.0321581 63.0359521,24.3929579 67.0811945,23.3868559 C67.0516231,23.3848397 67.0200354,23.3828234 66.9924801,23.3808072" id="Fill-75" fill="#E9E9E9"></path>
                <path d="M50.3414587,49.8117851 C50.3414587,49.8117851 63.979282,47.3358468 71.5885583,39.7379958 C72.7741053,38.554465 73.0879661,37.6532073 72.9535504,36.9703752 C72.1611694,37.7842627 56.4526713,44.2812486 49.9617341,45.5064482 L50.3414587,49.8117851 Z" id="Fill-77" fill="#E9E9E9"></path>
                <path d="M69.9433094,34.9866674 C69.9433094,34.9866674 76.6103312,32.5416447 76.3502367,27.6919239 C76.3462042,27.6119466 66.384652,30.727704 48.8904405,33.371662 L49.4133178,39.2940205 C54.6797274,38.5359156 63.5471353,36.5546273 70.1005758,35.0148947 C70.0024523,34.9960765 69.9433094,34.9866674 69.9433094,34.9866674" id="Fill-79" fill="#E9E9E9"></path>
                <path d="M58.2889251,38.3463894 C58.2889251,38.3463894 66.1710654,36.5559714 65.4673989,31.2982989 C64.8154824,26.421695 56.1100456,26.9869133 56.1100456,26.9869133 C56.1100456,26.9869133 62.5478885,25.2455571 62.8066389,21.3690065 C63.1131068,16.7800523 55.4245252,14.7322282 47.3925113,16.4003278 L50.3415931,49.8120539 C50.3415931,49.8120539 53.8955459,49.1648421 58.3850323,47.5236256 C58.60413,47.3871936 58.8245719,47.2534499 59.0315722,47.0995439 C64.4424787,43.0912658 59.8461317,38.4949188 58.2889251,38.3463894" id="Fill-81" fill="#E9E9E9"></path>
                <path d="M42.1429036,51.4556227 C68.1301751,48.0078584 59.2735205,38.1854265 56.9850922,37.967673 C56.9850922,37.967673 64.8665604,36.177255 64.163566,30.9195825 C63.5109775,26.0423065 54.8055406,26.6081969 54.8055406,26.6081969 C54.8055406,26.6081969 61.2433835,24.8668407 61.502806,20.9902901 C61.8448941,15.8603125 52.1992189,13.9018748 43.2498175,16.7635864 C20.2485921,24.1174728 17.5044943,39.1585966 20.0899815,44.1850741 C22.7265467,49.309675 29.7598515,53.0995275 42.1429036,51.4556227 Z" id="Fill-83" fill="#52504D"></path>
                <path d="M46.6030203,25.6136546 C48.1803893,24.533624 48.2193698,19.9944037 45.6358989,18.6650318 C45.6358989,18.6650318 43.6095812,16.9203152 35.6104992,19.8680529 C35.5143919,19.903001 35.420973,19.937277 35.3255378,19.971553 C39.8822321,18.8572463 41.3339224,19.9278679 41.3339224,19.9278679 C43.7856659,21.1886877 43.7480295,25.4946967 42.25131,26.5196169 C44.4066667,26.7017502 46.907472,26.4477044 47.9720448,29.590345 C48.8128154,32.0730041 46.242786,35.5570607 44.8058815,36.6760719 C46.1789385,36.8205689 49.8941902,37.7876903 49.4344883,40.658811 C48.5480164,46.1974125 41.4347342,48.5577533 41.4347342,48.5577533 C41.4347342,48.5577533 52.8439441,47.2653457 53.6598478,40.8342235 C54.0462931,37.7829857 50.7430258,36.4717599 49.295368,36.3198701 C50.8102337,35.1403718 53.5193833,31.4681332 52.6329114,28.8503862 C51.5112119,25.5383818 48.8746467,25.8058692 46.6030203,25.6136546" id="Fill-85" fill="#373532"></path>
                <path d="M17.1325659,111.981024 C17.5479106,112.407122 17.781122,112.876233 17.781122,113.370211 C17.781122,115.29975 14.2674939,116.865021 9.93392974,116.865021 C5.60036555,116.865021 2.08673751,115.29975 2.08673751,113.370211 C2.08673751,112.876233 2.31994886,112.407122 2.73529356,111.981024 L1.14985964,111.981024 C0.909255427,112.433333 0.783576689,112.901772 0.783576689,113.370211 C0.783576689,115.754075 3.9268893,118.168182 9.93392974,118.168182 C15.9416423,118.168182 19.0842828,115.754075 19.0842828,113.370211 C19.0842828,112.901772 18.9586041,112.433333 18.7179998,111.981024 L17.1325659,111.981024 Z" id="Fill-87" fill="#E7EBEB"></path>
            </g>
        </g>
    </g>
</svg>