
<svg width="500px" height="500px" viewBox="0 0 500 500" version="1.1" xmlns="http://www.w3.org/2000/svg" xmlns:xlink="http://www.w3.org/1999/xlink">
    <title>btc</title>
    <defs>
        <rect id="path-1" x="0" y="0" width="500" height="500"></rect>
    </defs>
    <g id="btc" stroke="none" stroke-width="1" fill="none" fill-rule="evenodd">
        <g id="位图备份-4">
            <mask id="mask-2" fill="white">
                <use xlink:href="#path-1"></use>
            </mask>
            <use id="蒙版" fill="#F7931A" xlink:href="#path-1"></use>
            <g id="BTC" mask="url(#mask-2)" fill-rule="nonzero">
                <path d="M500.354993,249.995 C500.354993,388.067239 388.432231,499.99 250.359993,499.99 C112.290254,499.99 0.364992676,388.067238 0.364992676,249.995 C0.364992676,111.925261 112.290254,0 250.359993,0 C388.432231,0 500.354993,111.925262 500.354993,249.995" id="路径" fill="#F7931A"></path>
                <path d="M311.058779,323.058539 C308.999126,330.050617 304.225676,335.926949 297.804044,339.375712 C291.403432,342.864583 283.872545,343.646031 276.891962,341.545669 L206.49087,320.578588 L222.175557,267.922142 L292.571648,288.891722 L292.574148,288.891722 C307.088858,293.214136 315.383692,308.541329 311.058779,323.058539 M334.803304,215.148197 C338.288222,221.551025 339.068622,229.081386 336.970761,236.062779 C332.645847,250.574989 317.311154,258.864823 302.803944,254.549909 L302.801444,254.549909 L232.402852,233.582828 L248.082539,180.926381 L318.48363,201.893462 C325.47545,203.954793 331.351988,208.72768 334.803304,215.148197 M366.317674,198.098538 C358.270335,183.226335 344.913102,172.376553 328.710926,167.551649 L319.396112,164.779205 L332.435851,120.99508 L298.979021,111.030279 L285.939281,154.814404 L257.374853,146.307074 L270.417092,102.52295 L262.402252,100.135497 L229.932901,90.4656909 L217.363153,132.669847 L177.793944,120.885083 L166.626667,158.384333 L206.195876,170.171597 L165.544189,306.663867 L125.97498,294.879103 L114.807704,332.380853 L154.374413,344.163117 L143.767125,379.784904 L151.779464,382.172356 L184.248815,391.842163 L195.328593,354.640407 L223.960521,363.167737 L212.880742,400.371993 L246.202576,410.296794 L257.282354,373.092538 L266.662167,375.884982 C272.554012,377.645557 278.670041,378.542372 284.819304,378.547429 C295.194096,378.547429 305.471391,375.969981 314.853703,370.892582 C329.725906,362.845243 340.573189,349.49051 345.400592,333.283334 C350.47549,316.236175 347.970541,298.724026 339.898202,284.309314 C354.552909,276.661967 366.230175,263.344733 371.310074,246.290074 C376.137477,230.082898 374.362513,212.968241 366.317674,198.098538" id="形状" fill="#FFFFFF"></path>
            </g>
        </g>
    </g>
</svg>