<?xml version="1.0" encoding="UTF-8"?>
<svg width="50px" height="50px" viewBox="0 0 50 50" version="1.1" xmlns="http://www.w3.org/2000/svg" xmlns:xlink="http://www.w3.org/1999/xlink">
    <title>位图备份 3</title>
    <defs>
        <rect id="path-1" x="0" y="0" width="50" height="50" rx="25"></rect>
    </defs>
    <g id="页面-1" stroke="none" stroke-width="1" fill="none" fill-rule="evenodd">
        <g id="Market-链接钱包-Solana" transform="translate(-824.000000, -283.000000)">
            <g id="位图备份-3" transform="translate(824.000000, 283.000000)">
                <mask id="mask-2" fill="white">
                    <use xlink:href="#path-1"></use>
                </mask>
                <use id="蒙版" fill="#FFFFFF" xlink:href="#path-1"></use>
                <path d="M40.8257979,17.1159847 L40.8257979,18.9246931 C40.8257979,19.0993174 40.7799199,19.270865 40.6926544,19.4220879 C40.6052957,19.5733108 40.4798049,19.6988949 40.3285819,19.7861604 L34.5009049,23.149985 L39.7057896,26.1458214 C40.046181,26.3423553 40.3287684,26.6250359 40.5251158,26.9655206 C40.7215565,27.305912 40.824858,27.6920806 40.8245783,28.0850551 L40.8245783,32.9046103 C40.8250444,33.2977713 40.7218362,33.6842196 40.5254888,34.0248907 C40.3290481,34.3655619 40.0462743,34.6484289 39.7057896,34.8450561 L26.0130281,42.7001646 C25.6729164,42.8966053 25.2870275,43 24.8942394,43 C24.5014514,43 24.1156557,42.8966053 23.7754507,42.7001646 L19.300296,40.1133387 C19.2246845,40.069706 19.1618459,40.0068673 19.1182132,39.9312559 C19.0744872,39.8556444 19.0514588,39.7698706 19.0514588,39.6826051 C19.0514588,39.5952463 19.0744872,39.5094725 19.1182132,39.4338611 C19.1618459,39.3582496 19.2246845,39.2955042 19.300296,39.2518714 L34.0931997,30.7378896 C34.1311453,30.7160732 34.1626578,30.6846539 34.1846607,30.6468015 C34.2065703,30.6089492 34.2181311,30.565969 34.2181311,30.5221498 C34.2181311,30.4784238 34.2065703,30.4354437 34.1846607,30.3975913 C34.1626578,30.3596458 34.1311453,30.3283197 34.0931997,30.3065033 L28.6011593,27.1340848 C28.4500296,27.0468192 28.278482,27.0008557 28.1039509,27.0008557 C27.9293267,27.0008557 27.7578723,27.0468192 27.6067426,27.1340848 L12.5726654,35.7885678 C12.4592761,35.854017 12.3306621,35.888513 12.1997358,35.888513 C12.0688096,35.888513 11.9401862,35.854017 11.8268063,35.7885678 L10.1262475,34.8140097 C9.78394473,34.6181284 9.49949271,34.3352613 9.30170952,33.9940308 C9.10392633,33.6528002 9,33.2654197 9,32.8710467 L9,30.8982493 C9,30.7671645 9.03433767,30.6385038 9.09980545,30.52504 C9.16527324,30.4115762 9.25947525,30.3173183 9.37292974,30.2517759 L30.9207811,17.8742437 C30.9587267,17.8525206 30.9903325,17.8211013 31.0122421,17.7832489 C31.0341517,17.7453966 31.0457125,17.7023232 31.0457125,17.6585972 C31.0457125,17.6148712 31.0341517,17.5717979 31.0122421,17.5339455 C30.9903325,17.4960932 30.9587267,17.4646739 30.9207811,17.4429507 L25.4200701,14.2605563 C25.2689404,14.1732908 25.0973928,14.1273272 24.9228618,14.1273272 C24.7482375,14.1273272 24.5767831,14.1732908 24.4256534,14.2605563 L9.75704719,22.7012575 C9.68139843,22.7448903 9.59558734,22.7679187 9.50824723,22.7678255 C9.42089781,22.7678255 9.33510536,22.744797 9.25949389,22.7010711 C9.1838731,22.6573451 9.12111838,22.5944132 9.07753224,22.5187085 C9.03393677,22.443097 9.01105754,22.35723 9.01118807,22.2698713 L9.01118807,17.0923969 C9.01134656,16.6984901 9.11544985,16.3116689 9.31298131,15.9709977 C9.5105221,15.6302333 9.79448932,15.3477392 10.1361954,15.151858 L23.8215075,7.29798937 C24.1608734,7.10275142 24.5455503,7 24.9371263,7 C25.3287024,7 25.7133792,7.10275142 26.0528383,7.29798937 L39.7120361,15.175539 C40.0515885,15.3727255 40.3333368,15.6558723 40.5288451,15.9965434 C40.7243534,16.3371213 40.8268158,16.7231967 40.8257979,17.1159847 Z" id="路径" fill="#7524F9" mask="url(#mask-2)"></path>
            </g>
        </g>
    </g>
</svg>