<?xml version="1.0" encoding="UTF-8"?>
<svg width="11px" height="16px" viewBox="0 0 11 16" version="1.1" xmlns="http://www.w3.org/2000/svg" xmlns:xlink="http://www.w3.org/1999/xlink">
    <title>Airdrop</title>
    <defs>
        <polygon id="path-1" points="0 0 10.2643475 0 10.2643475 7.8259039 0 7.8259039"></polygon>
    </defs>
    <g id="页面-1" stroke="none" stroke-width="1" fill="none" fill-rule="evenodd">
        <g id="Ostrich-connect-wallect2-未连接" transform="translate(-1132.000000, -37.000000)">
            <g id="Airdrop" transform="translate(1132.000000, 37.000000)">
                <path d="M3.05927108,15.5925987 C3.77689546,15.5760571 4.49496478,15.5850608 5.21371462,15.5923893 C5.45097718,15.5948235 5.69030745,15.601838 5.93050144,15.6097162 C5.69826419,12.3036397 5.46602693,8.99748467 5.23381585,5.69140817 C5.19136247,5.08737668 5.14922317,4.4811728 5.17408798,3.87669636 C4.8150664,3.84570696 4.45633273,3.81448201 4.09984998,3.76752679 C4.09136978,3.79048093 4.08322983,3.81346124 4.07553482,3.83633686 C3.95979571,4.18106772 3.89252988,4.53990608 3.82929476,4.89798541 C3.22623169,8.31147785 2.85506562,11.8874814 3.03262648,15.3575871 C3.03663103,15.4352961 3.0447448,15.5148897 3.05927108,15.5925987" id="Fill-3" fill="#CF5705"></path>
                <g id="编组">
                    <mask id="mask-2" fill="white">
                        <use xlink:href="#path-1"></use>
                    </mask>
                    <g id="Clip-6"></g>
                    <path d="M10.2553805,4.32558195 C10.2253857,4.2234007 10.1252983,4.12969965 10.0317805,4.06361162 C8.82329875,3.20946639 7.372058,2.70293111 5.89453909,2.61954241 C6.15692819,1.89621222 6.41934346,1.17285585 6.68173256,0.449525656 C6.73546671,0.30138378 6.76959692,0.0959219903 6.63098219,0.0210135009 C6.52011135,-0.0388714131 6.38712391,0.0401986591 6.2903344,0.12083914 C5.58375523,0.709323583 5.12739449,1.53708595 4.68736601,2.34448535 C4.21305027,1.71912248 3.67010768,1.14584482 3.0713894,0.638314942 C3.00265785,0.58002661 2.92152008,0.51904241 2.83226852,0.53139629 C2.73728498,0.544509202 2.67145868,0.641115503 2.66180067,0.736517825 C2.65216883,0.831920146 2.68569706,0.9259091 2.72063865,1.015213 C2.95727305,1.61971561 3.28538375,2.18838673 3.69028743,2.69581192 C2.3486612,3.29963402 1.18985671,4.30291572 0.400281444,5.54429753 C0.282867229,5.72889906 -0.0136259118,6.1116338 0.000481591966,6.33999739 C0.0189862398,6.63905553 0.382378786,6.43568761 0.530939438,6.30343304 C1.44371325,5.49098216 2.41291708,4.74192344 3.42923317,4.06348076 C2.78251274,5.03603479 2.36169559,6.15780382 2.2091304,7.31574458 C2.19080896,7.45475192 2.20470708,7.63932727 2.33997161,7.67625805 C2.46785521,7.71114729 2.57288937,7.57640624 2.63704056,7.46043156 C3.24499807,6.36145964 3.84607196,5.25869256 4.44026222,4.15223501 C4.86042503,5.08351348 5.36287726,5.9776256 5.93989772,6.8207518 C6.17066926,7.15797087 6.4187153,7.49252024 6.74800381,7.73446786 C6.82393306,7.79026971 6.915959,7.84311396 7.0074353,7.8205786 C7.19933923,7.77338782 7.17484086,7.49377657 7.10501002,7.30893948 C6.73703712,6.33476269 6.35911829,5.36435488 5.97135824,4.39789926 C6.93396635,4.46307122 7.89652212,4.52824318 8.85910406,4.59344131 C9.20747303,4.61704978 9.55688894,4.64063208 9.90554582,4.62173483 C10.0396849,4.61445861 10.1989243,4.58312896 10.2498056,4.45880494 C10.2682055,4.41383891 10.2681008,4.36892523 10.2553805,4.32558195" id="Fill-5" fill="#187A00" mask="url(#mask-2)"></path>
                </g>
                <path d="M3.59409514,7.46469434 C3.59296181,7.47886101 3.59126181,7.49234768 3.59012847,7.50594768 C3.59080847,7.49529434 3.59228181,7.48464101 3.59330181,7.47398768 L3.59409514,7.46469434 Z" id="Fill-7" fill="#9F6C27"></path>
                <path d="M3.59500336,7.45684652 C3.59398336,7.46919985 3.59217003,7.48234652 3.59103669,7.49537985 C3.59239669,7.48393318 3.59353003,7.47225985 3.59466336,7.46058652 C3.59489003,7.45933985 3.59489003,7.45820652 3.59500336,7.45684652" id="Fill-9" fill="#9F6C27"></path>
                <path d="M3.59647907,9.60076275 C3.61524545,9.60071001 3.63372393,9.59516124 3.64890454,9.58293822 C3.6956242,9.54540546 3.69567654,9.47581018 3.69308537,9.41592527 C3.6835844,9.19441914 3.69829389,8.95964306 3.81994821,8.7742825 C3.83984005,8.74397361 3.86530685,8.71348151 3.90071956,8.70565564 C3.96233192,8.69201926 4.01436479,8.75200887 4.04271067,8.80841271 C4.12712013,8.97623704 4.14381881,9.16955434 4.14552008,9.35745372 C4.14620059,9.42969252 4.15583243,9.51920581 4.22317679,9.54532694 C4.25584129,9.55796873 4.29572966,9.5490174 4.31983544,9.52362912 C4.35380861,9.48782381 4.35226437,9.43249308 4.35297106,9.38315608 C4.3551958,9.2281044 4.40144434,9.07391645 4.4849639,8.94325846 C4.51681702,8.89345033 4.55497795,8.84602399 4.60536189,8.8150346 C4.62172031,8.80498398 4.64140277,8.79655612 4.65967185,8.80244516 C4.684589,8.81048041 4.69422084,8.84005644 4.6996911,8.8656541 C4.73376897,9.02455328 4.74578259,9.18818985 4.73520851,9.35041306 C4.7327482,9.3882599 4.72911009,9.42673491 4.73719769,9.46382273 C4.74528529,9.50088437 4.76745423,9.53713464 4.80255286,9.55150388 C4.84330496,9.56817638 4.89539018,9.54781342 4.91399952,9.50792504 C4.92190391,9.4909908 4.92412866,9.47206738 4.92598698,9.45345803 C4.94532917,9.26042865 4.93640402,9.06457252 4.89957794,8.87408196 C4.88424028,8.79469781 4.86097206,8.71099503 4.79977847,8.65812461 C4.71830044,8.58774413 4.59012893,8.5954653 4.49752717,8.65032491 C4.40489923,8.70521069 4.34116682,8.79755072 4.28719711,8.89070212 C4.25665266,8.80378 4.22364791,8.71602034 4.16792458,8.64268226 C4.11217507,8.569318 4.02980714,8.51113436 3.93783355,8.50532385 C3.85693133,8.50019385 3.77702371,8.53641794 3.71737436,8.59135607 C3.65775118,8.64626802 3.61650178,8.71850682 3.58551238,8.79338913 C3.51850828,8.95521974 3.49647022,9.13123637 3.49353879,9.30518529 C3.49241333,9.3720847 3.47451067,9.48609636 3.50508129,9.54694969 C3.52159675,9.57984975 3.55960064,9.60086705 3.59647907,9.60076275" id="Fill-11" fill="#FA7915"></path>
                <path d="M3.48719957,11.6496038 C3.51321601,11.6479548 3.53870897,11.6358889 3.55546,11.6158138 C3.58555949,11.5797991 3.58514072,11.5281065 3.58349179,11.4812036 C3.57917317,11.3595231 3.57694842,11.2367957 3.59820128,11.1168688 C3.61948032,10.9969158 3.66585972,10.8788211 3.74822765,10.7890722 C3.80696093,10.8584319 3.83336997,10.949123 3.85286921,11.0378773 C3.88846514,11.1998911 3.90623693,11.3658309 3.90571346,11.5317184 C3.90558259,11.5775744 3.90435244,11.6250792 3.92230744,11.667297 C3.94026245,11.7094887 3.98371042,11.7449014 4.02893818,11.7372326 C4.06751789,11.730663 4.09570672,11.6948839 4.10633315,11.6571941 C4.11695959,11.6195043 4.11374025,11.5795374 4.11248392,11.5403819 C4.10861025,11.4191987 4.12441903,11.2973873 4.15909888,11.1812032 C4.18257649,11.1025258 4.21537186,11.0252617 4.26764029,10.961948 C4.29844647,10.9246246 4.34422388,10.8902589 4.39125762,10.9016705 C4.43907656,10.9132392 4.46354876,10.9652721 4.47951458,11.0118085 C4.52280551,11.1379385 4.55243389,11.2687535 4.56764068,11.4012437 C4.57161904,11.4358973 4.57481221,11.4713624 4.58920762,11.503137 C4.60357686,11.5349116 4.63181804,11.562891 4.66652407,11.5663459 C4.70730235,11.5705075 4.74486128,11.5395966 4.76286864,11.5027967 C4.78084981,11.4659445 4.78391211,11.4239361 4.78896359,11.3832625 C4.8029664,11.2706904 4.83458396,11.1603953 4.88232438,11.0574812 C4.91883638,10.9787514 4.96851364,10.9007806 5.04556835,10.8608137 C5.09001092,10.9827559 5.11422138,11.1120791 5.11691725,11.241821 C5.1181474,11.3012871 5.11922052,11.3703851 5.16638512,11.4066092 C5.20813182,11.4386456 5.27715127,11.424381 5.30272276,11.3783419 C5.31785103,11.3511476 5.31821746,11.3183784 5.31732756,11.287232 C5.31358475,11.1522554 5.29395465,11.0177237 5.25901305,10.8873013 C5.24027285,10.8173396 5.21354973,10.7436089 5.15392655,10.7024904 C5.08108576,10.6523158 4.97840721,10.6675749 4.90415306,10.7155771 C4.79972089,10.7830523 4.74122317,10.9008853 4.68759372,11.0130125 C4.66932463,10.9362457 4.63697421,10.8614942 4.58412997,10.8028656 C4.53131189,10.7442632 4.45642957,10.703197 4.37756889,10.7013125 C4.30271275,10.6994804 4.23000283,10.7326945 4.17291848,10.7810631 C4.11578178,10.8294841 4.07262172,10.8922219 4.03501043,10.9569489 C4.01558971,10.84668 3.96515342,10.7420646 3.89095162,10.658231 C3.86538013,10.6293355 3.83577793,10.6020889 3.79918741,10.5898397 C3.70915065,10.5596093 3.61623481,10.629257 3.55975245,10.705605 C3.47112906,10.8254272 3.42310073,10.971449 3.40108883,11.1188842 C3.38559414,11.2229238 3.38250567,11.328272 3.3835526,11.4333062 C3.38423311,11.5040269 3.36585933,11.6192425 3.45474446,11.6459918 C3.4652662,11.6491588 3.47628523,11.6502843 3.48719957,11.6496038" id="Fill-13" fill="#FA7915"></path>
                <path d="M5.42776654,13.8229733 C5.42648404,13.8062223 5.42373583,13.7894713 5.42096144,13.7729035 C5.40512649,13.6779985 5.38921301,13.5825961 5.35872091,13.4913554 C5.33307091,13.4145362 5.29297314,13.3364869 5.22199067,13.2974361 C5.14320851,13.2541452 5.04217889,13.269954 4.96517652,13.3163595 C4.88820033,13.3627389 4.83088041,13.4352656 4.77897841,13.5086299 C4.79750923,13.4824041 4.7507634,13.3364084 4.74353952,13.3034822 C4.72733814,13.2294374 4.70647788,13.1559161 4.67472945,13.0868967 C4.61932021,12.9664725 4.5094963,12.8273081 4.35847534,12.8597109 C4.28555603,12.8753888 4.22289673,12.9218467 4.16950284,12.9739581 C4.05648577,13.0843055 3.97419636,13.2258255 3.93415094,13.3785739 C3.90159114,13.2953161 3.88518037,13.2059598 3.84696709,13.1251099 C3.80877999,13.0442601 3.74130477,12.9692731 3.65291694,12.9557414 C3.57685681,12.9441204 3.4994095,12.9813129 3.4461203,13.036853 C3.39280493,13.0923931 3.36008808,13.1642916 3.33320792,13.2363996 C3.25091851,13.4570681 3.21417095,13.6933361 3.21233881,13.9288189 C3.2120509,13.9711937 3.21320253,14.0151914 3.23202126,14.0531429 C3.25086617,14.0910944 3.29235113,14.1211154 3.33394078,14.1131325 C3.36985079,14.1062751 3.39607661,14.0733226 3.40649366,14.0383287 C3.41688453,14.0032824 3.41465978,13.9659329 3.41350815,13.9293947 C3.40691243,13.7166567 3.44198489,13.5027147 3.5161867,13.3032466 C3.53872206,13.2426289 3.56790549,13.1796555 3.62300065,13.1458132 C3.66061194,13.1828225 3.68055613,13.2337822 3.69769975,13.283695 C3.76543671,13.4804149 3.80663376,13.6862431 3.81985137,13.8938773 C3.82322775,13.9469309 3.82843627,14.007444 3.87091582,14.0394542 C3.909417,14.0684282 3.97147432,14.057985 3.99835448,14.0179657 C4.01725173,13.9898554 4.01858657,13.9539192 4.02031402,13.9200769 C4.0313854,13.7054806 4.08525042,13.4931352 4.17779983,13.2991897 C4.21970357,13.2114301 4.27231226,13.1242724 4.35386881,13.0711926 C4.36978228,13.0608541 4.38833928,13.0516148 4.40700096,13.0550435 C4.42278357,13.0579488 4.43555623,13.0693604 4.44615649,13.0814002 C4.48813874,13.129036 4.50897283,13.1913288 4.52619498,13.2524439 C4.58110693,13.4472793 4.61010714,13.6493647 4.61207015,13.8517903 C4.61248893,13.893982 4.61196546,13.93743 4.6275125,13.9766378 C4.6431119,14.0158457 4.67944068,14.0502376 4.72163232,14.0492692 C4.78672576,14.0478035 4.82046337,13.9725024 4.83765935,13.9096861 C4.86024706,13.8270826 4.88126436,13.7434322 4.91806426,13.6661419 C4.95491652,13.5888516 5.00938352,13.5172148 5.08426584,13.4756775 C5.09633181,13.4690033 5.11077957,13.4630095 5.12360457,13.4681657 C5.13279146,13.4719085 5.13888988,13.4805458 5.14409841,13.4889474 C5.19835602,13.5772567 5.20602485,13.6851962 5.22078669,13.7877962 C5.22680659,13.8297784 5.23492037,13.8731479 5.25983752,13.9074613 C5.28478084,13.9417224 5.33123876,13.963996 5.37060367,13.9482658 C5.40127899,13.9360166 5.42038562,13.9038756 5.42611761,13.8713681 C5.428892,13.8553499 5.42902287,13.8391747 5.42776654,13.8229733" id="Fill-15" fill="#FA7915"></path>
            </g>
        </g>
    </g>
</svg>