<?xml version="1.0" encoding="UTF-8"?>
<svg width="24px" height="15px" viewBox="0 0 24 15" version="1.1" xmlns="http://www.w3.org/2000/svg" xmlns:xlink="http://www.w3.org/1999/xlink">
    <title>bridge</title>
    <defs>
        <polygon id="path-1" points="0 0 23.2232786 0 23.2232786 9.67730882 0 9.67730882"></polygon>
    </defs>
    <g id="页面-1" stroke="none" stroke-width="1" fill="none" fill-rule="evenodd">
        <g id="Ostrich-trade" transform="translate(-1239.000000, -37.000000)">
            <g id="bridge" transform="translate(1239.000000, 37.000000)">
                <path d="M11.610732,9.67720717 C11.3434895,9.67720717 11.1269681,9.46026046 11.1269681,9.19378343 L11.1269681,6.77405636 C11.1269681,6.50681384 11.3434895,6.2902924 11.610732,6.2902924 C11.8779746,6.2902924 12.0944677,6.50681384 12.0944677,6.77405636 L12.0944677,9.19378343 C12.0944677,9.46026046 11.8779746,9.67720717 11.610732,9.67720717 Z M13.5456178,9.67720717 C13.2791691,9.67720717 13.0623074,9.46026046 13.0623074,9.19378343 L13.0623074,6.56462283 C13.0623074,6.29704009 13.2791691,6.080547 13.5456178,6.080547 C13.8135124,6.080547 14.0304875,6.29704009 14.0304875,6.56462283 L14.0304875,9.19378343 C14.0304875,9.46026046 13.8136258,9.67720717 13.5456178,9.67720717 Z M9.67550608,9.67720717 C9.40826356,9.67720717 9.19131684,9.46026046 9.19131684,9.19378343 L9.19131684,6.56462283 C9.19131684,6.29704009 9.40826356,6.080547 9.67550608,6.080547 C9.9427486,6.080547 10.15927,6.29704009 10.15927,6.56462283 L10.15927,9.19378343 C10.15927,9.46026046 9.9427486,9.67720717 9.67550608,9.67720717 Z M15.4820629,9.67720717 C15.2141683,9.67720717 14.9973066,9.46026046 14.9973066,9.19378343 L14.9973066,5.86368533 C14.9973066,5.59647117 15.2141683,5.37994972 15.4820629,5.37994972 C15.7485115,5.37994972 15.9654866,5.59647117 15.9654866,5.86368533 L15.9654866,9.19378343 C15.9654866,9.46026046 15.7485115,9.67720717 15.4820629,9.67720717 Z M7.73985484,9.67720717 C7.47261232,9.67720717 7.25609088,9.46026046 7.25609088,9.19378343 L7.25609088,5.86368533 C7.25609088,5.59647117 7.47261232,5.37994972 7.73985484,5.37994972 C8.00698395,5.37994972 8.22393067,5.59647117 8.22393067,5.86368533 L8.22393067,9.19378343 C8.22393067,9.46026046 8.00698395,9.67720717 7.73985484,9.67720717 Z M17.4169486,9.67720717 C17.1498195,9.67720717 16.9336383,9.46026046 16.9336383,9.19378343 L16.9336383,4.49605912 C16.9336383,4.2288166 17.1498195,4.01198329 17.4169486,4.01198329 C17.6841911,4.01198329 17.9003724,4.2288166 17.9003724,4.49605912 L17.9003724,9.19378343 C17.9003724,9.46026046 17.6841911,9.67720717 17.4169486,9.67720717 Z M5.80451547,9.67720717 C5.53727295,9.67720717 5.32075151,9.46026046 5.32075151,9.19378343 L5.32075151,4.49605912 C5.32075151,4.2288166 5.53727295,4.01198329 5.80451547,4.01198329 C6.07175799,4.01198329 6.28825108,4.2288166 6.28825108,4.49605912 L6.28825108,9.19378343 C6.28825108,9.46026046 6.07175799,9.67720717 5.80451547,9.67720717 Z" id="Fill-1" fill="#CCD1D9"></path>
                <path d="M20.3200994,1.45157541 C20.0528853,1.45157541 19.836704,1.23505396 19.836704,0.967839794 L19.836704,0.484075831 C19.836704,0.216833311 20.0529703,0 20.3200994,0 C20.5873419,0 20.8035232,0.216833311 20.8035232,0.484075831 L20.8035232,0.967839794 C20.8035232,1.23505396 20.5873419,1.45157541 20.3200994,1.45157541 Z M2.90144971,1.45157541 C2.63423555,1.45157541 2.4177141,1.23505396 2.4177141,0.967839794 L2.4177141,0.484075831 C2.4177141,0.216833311 2.63423555,0 2.90144971,0 C3.16857883,0 3.38510027,0.216833311 3.38510027,0.484075831 L3.38510027,0.967839794 C3.38510027,1.23505396 3.16857883,1.45157541 2.90144971,1.45157541 Z" id="Fill-2" fill="#434A54"></path>
                <g id="编组" transform="translate(0.000000, 1.451474)">
                    <mask id="mask-2" fill="white">
                        <use xlink:href="#path-1"></use>
                    </mask>
                    <g id="Clip-4"></g>
                    <path d="M11.610732,5.80631821 C10.2729885,5.80631821 9.00958285,5.53731789 7.85490578,5.00617834 C6.93214508,4.58155589 6.0788459,3.99082121 5.31865349,3.2497945 C4.02689625,1.99069835 3.45209519,0.736138461 3.42796794,0.683319363 C3.37512049,0.566368865 3.37103786,0.433144528 3.41634377,0.31307535 C3.46173474,0.192921117 3.55299866,0.0957884125 3.67006256,0.0429693149 C3.91314949,-0.0668932742 4.19955771,0.0411831618 4.30973217,0.28429844 C4.31506228,0.295695797 4.84875347,1.44957903 6.02035647,2.58219853 C6.70003024,3.23961626 7.4601943,3.76225032 8.2799535,4.13657697 C9.30083921,4.6024794 10.4218345,4.83893204 11.6108454,4.83893204 C12.8001682,4.83893204 13.9207099,4.6024794 14.9420493,4.13657697 C15.7613548,3.76225032 16.521207,3.23961626 17.2016463,2.58219853 C18.3724838,1.44957903 18.9069688,0.295695797 18.911817,0.28429844 C19.0224734,0.0411831618 19.3095337,-0.0665530546 19.5518551,0.043734809 C19.7957076,0.154277837 19.9033587,0.439892217 19.7934961,0.68343277 C19.7694539,0.736138461 19.1945678,1.99069835 17.9032359,3.24990791 C17.1427316,3.99082121 16.289404,4.5816693 15.3665583,5.00617834 C14.2119946,5.53731789 12.9489009,5.80631821 11.610732,5.80631821 Z" id="Fill-3" fill="#E6E9ED" mask="url(#mask-2)"></path>
                    <path d="M22.7398548,7.25746834 L0.482034513,7.25746834 C0.214820345,7.25746834 -0.00170109815,7.47441506 -0.00170109815,7.74230967 L-0.00170109815,9.19391342 C-0.00170109815,9.4603621 0.214820345,9.67730882 0.482034513,9.67730882 L22.7398548,9.67730882 C23.0063035,9.67730882 23.2232786,9.4603621 23.2232786,9.19391342 L23.2232786,7.74230967 C23.2232786,7.47441506 23.0063035,7.25746834 22.7398548,7.25746834 Z" id="Fill-5" fill="#434A54" mask="url(#mask-2)"></path>
                    <path d="M-0.00170109815,8.22573341 L-0.00170109815,9.19391342 C-0.00170109815,9.4603621 0.214820345,9.67730882 0.482034513,9.67730882 L22.7398548,9.67730882 C23.0063035,9.67730882 23.2232786,9.4603621 23.2232786,9.19391342 L23.2232786,8.22573341 L-0.00170109815,8.22573341 Z" id="Fill-6" fill="#DA4453" mask="url(#mask-2)"></path>
                </g>
                <path d="M2.90144971,0.484075831 C2.10085622,0.484075831 1.44987431,1.13505774 1.44987431,1.93565124 L1.44987431,14.5152721 C1.44987431,14.7831667 1.66628234,15 1.93352486,15 L3.8691761,15 C4.13641862,15 4.35294006,14.7831667 4.35294006,14.5152721 L4.35294006,1.93565124 C4.35294006,1.13505774 3.70195815,0.484075831 2.90144971,0.484075831 Z M20.3200994,0.484075831 C19.5191657,0.484075831 18.868524,1.13505774 18.868524,1.93565124 L18.868524,14.5152721 C18.868524,14.7831667 19.0854707,15 19.3519478,15 L21.2883928,15 C21.5548415,15 21.7717032,14.7831667 21.7717032,14.5152721 L21.7717032,1.93565124 C21.7717032,1.13505774 21.1210331,0.484075831 20.3200994,0.484075831 Z" id="Fill-7" fill="#ED5564"></path>
                <path d="M1.44987431,2.90315081 L4.35294006,2.90315081 L4.35294006,1.93565124 L1.44987431,1.93565124 L1.44987431,2.90315081 Z M18.868524,2.90315081 L21.7717032,2.90315081 L21.7717032,1.93565124 L18.868524,1.93565124 L18.868524,2.90315081 Z M4.35294006,15 L1.44987431,15 C1.18263179,15 0.966138696,14.7831667 0.966138696,14.5152721 C0.966138696,14.2487951 1.18263179,14.0318483 1.44987431,14.0318483 L4.35294006,14.0318483 C4.62018258,14.0318483 4.83667568,14.2487951 4.83667568,14.5152721 C4.83667568,14.7831667 4.62018258,15 4.35294006,15 Z M21.7717032,15 L18.868524,15 C18.6012815,15 18.3852137,14.7831667 18.3852137,14.5152721 C18.3852137,14.2487951 18.6013949,14.0318483 18.868524,14.0318483 L21.7717032,14.0318483 C22.0389173,14.0318483 22.2549852,14.2487951 22.2549852,14.5152721 C22.2549852,14.7831667 22.0389173,15 21.7717032,15 Z" id="Fill-8" fill="#DA4453"></path>
            </g>
        </g>
    </g>
</svg>