<?xml version="1.0" encoding="utf-8"?>
<!-- Generator: Adobe Illustrator 23.0.0, SVG Export Plug-In . SVG Version: 6.00 Build 0)  -->
<svg version="1.1" width="22px" height="15px" id="图层_1" xmlns="http://www.w3.org/2000/svg" xmlns:xlink="http://www.w3.org/1999/xlink" x="0px" y="0px"
	 viewBox="0 0 22 15" style="enable-background:new 0 0 22 15;" xml:space="preserve">
<style type="text/css">
	.st0{fill:#B5D577;}
	.st1{fill:#72AA29;}
</style>
<title>lundunqiao</title>
<path class="st0" d="M5.4,8.3c0.4,1.4,0.9,3,0.3,4.4c-2.1-0.7-3.9-2.3-4.3-4.5C1.1,7.1,1.3,6,1.7,4.9c0.5-1.2,1-2.4,1.6-3.5
	C5.5,2.7,7,5,7.4,7.5C7.2,8,7,8.4,6.8,8.9c-0.2,0.7-0.4,1.3-0.5,2C6.3,10,6,9.2,5.8,8.5C5.4,6.9,4.9,5.3,4,3.9
	C3.9,3.7,3.5,4,3.7,4.2C4.5,5.5,4.9,6.9,5.4,8.3L5.4,8.3z M20.9,1.9c-0.6,2.9-1.5,5.7-2.8,8.3c-0.6,1.2-1.7,2.2-2.9,2.8
	c-1.2,0.5-2.4,0.8-3.7,0.8c-0.8,0-1.5-0.1-2.3-0.3c-0.6-0.2-1.2-0.3-1.9-0.3c0.3-1.1,1.1-2.1,1.9-2.9C9.6,9.9,10,9.5,10.4,9
	c0.1-0.1,0.2-0.3,0.3-0.4c1.5,0.1,3.3-0.5,4.7,0.4c0.2,0.1,0.5-0.2,0.3-0.3c-1.4-0.9-3.1-0.4-4.6-0.5C11,8,11.2,7.8,11.3,7.7
	c1.5-1.7,3.7-2.4,5.9-3c0.3-0.1,0.1-0.5-0.2-0.4c-2.2,0.6-4.4,1.4-6,3.1c-0.2,0.2-0.4,0.5-0.6,0.8c-0.1,0-0.1,0.1-0.1,0.2
	C10.2,8.5,10,8.7,9.9,8.8c-0.4,0.5-0.8,0.9-1.3,1.3c-0.8,0.8-1.4,1.6-1.8,2.7c-0.3-1.2-0.1-2.5,0.3-3.7c0.2-0.5,0.4-1,0.6-1.5
	c0,0,0,0,0-0.1C7.9,7.4,8,7.3,8.1,7.2c0.3-0.7,0.6-1.3,1.1-1.9c0.9-1,2.1-1.7,3.3-2.1c1.2-0.5,2.5-0.8,3.8-0.9
	c0.8-0.1,1.6,0,2.4-0.1C19.4,2.1,20.1,2,20.9,1.9L20.9,1.9z M20.9,1.9"/>
<path class="st1" d="M5.6,12.8c0.6-1.4,0.1-3-0.3-4.4C4.9,6.9,4.5,5.5,3.7,4.2C3.6,4,3.9,3.7,4,4c0.9,1.4,1.3,3,1.8,4.5
	c0.2,0.7,0.4,1.6,0.5,2.4c0.1-0.7,0.3-1.4,0.5-2C7,8.4,7.2,8,7.4,7.5C7,5,5.5,2.7,3.3,1.4C2.7,2.6,2.2,3.7,1.7,5
	C1.3,6,1.1,7.1,1.3,8.3C1.8,10.4,3.6,12.1,5.6,12.8L5.6,12.8z"/>
<path class="st1" d="M5.6,12.8"/>
</svg>
