<?xml version="1.0" encoding="utf-8"?>
<!-- Generator: Adobe Illustrator 23.0.0, SVG Export Plug-In . SVG Version: 6.00 Build 0)  -->
<svg width="39px" height="48px"  version="1.1" id="图层_1" xmlns="http://www.w3.org/2000/svg" xmlns:xlink="http://www.w3.org/1999/xlink" x="0px" y="0px"
	 viewBox="0 0 13 16" style="enable-background:new 0 0 13 16;" xml:space="preserve">
<style type="text/css">
	.st0{fill:url(#SVGID_1_);}
	.st1{fill:url(#SVGID_2_);}
	.st2{fill:url(#SVGID_3_);}
	.st3{fill:url(#SVGID_4_);}
	.st4{fill:url(#SVGID_5_);}
	.st5{fill:#FFFFFF;}
</style>
<title>编组</title>
<g>
	
		<radialGradient id="SVGID_1_" cx="6.3285" cy="5.4251" r="7.0883" gradientTransform="matrix(0.7071 0.7071 -0.7071 0.7071 7.8494 -2.1732)" gradientUnits="userSpaceOnUse">
		<stop  offset="0" style="stop-color:#FCEDAC"/>
		<stop  offset="0.3648" style="stop-color:#F3AE37"/>
		<stop  offset="1" style="stop-color:#E3241C"/>
	</radialGradient>
	<polygon class="st0" points="4.6,5.2 4.6,5.2 4.6,5.2 	"/>
	
		<radialGradient id="SVGID_2_" cx="6.3285" cy="5.4251" r="7.0883" gradientTransform="matrix(0.7071 0.7071 -0.7071 0.7071 7.8494 -2.1732)" gradientUnits="userSpaceOnUse">
		<stop  offset="0" style="stop-color:#FCEDAC"/>
		<stop  offset="0.3648" style="stop-color:#F3AE37"/>
		<stop  offset="1" style="stop-color:#E3241C"/>
	</radialGradient>
	<path class="st1" d="M11.5,6.6c-0.1,0.7-0.3,1.2-0.5,1.5c0,0-0.3,0.6-0.7,1c-0.2,0.2-0.6,0.4-0.7,0.5C9.5,9.8,9.3,9.9,9.3,10
		c0,0.1,0.3,0.2,0.6,0.2c-0.2,0.4-0.5,1-1,1.6c-0.5,0.6-1,0.9-1.8,1.3c-0.6,0.3-1.3,0.4-2,0.4C2.8,13.5,1,11.7,1,9.3
		c0-1.2,0.5-2.5,1.3-3.5C3.1,4.9,4.6,4.1,5.9,4c-0.3,0.1-0.7,0.3-1,0.7C4.8,4.9,4.7,5,4.6,5.2c0,0,0,0,0,0c0,0,0,0,0,0
		C5.1,5,5.7,4.8,6.4,4.7c0.5,0,1-0.1,1.7,0.1C8.5,4.9,8.6,5,9,5c0.6,0.1,1.1,0,1.3-0.1c0.8-0.2,1.4-0.8,1.6-1
		C11.8,4.4,11.1,6.8,9.7,7C9.3,7.1,8.9,7.1,8.7,7.1c0,0,0,0,0,0c0,0,0,0,0,0h0c0.2,0.3,0.6,0.5,1,0.5c0.2,0,0.3,0,0.4,0
		C10.7,7.5,11.2,7,11.5,6.6z"/>
	
		<radialGradient id="SVGID_3_" cx="6.3285" cy="5.4251" r="7.0883" gradientTransform="matrix(0.7071 0.7071 -0.7071 0.7071 7.8494 -2.1732)" gradientUnits="userSpaceOnUse">
		<stop  offset="0" style="stop-color:#FCEDAC"/>
		<stop  offset="0.3648" style="stop-color:#F3AE37"/>
		<stop  offset="1" style="stop-color:#E3241C"/>
	</radialGradient>
	<polygon class="st2" points="8.7,7.1 8.7,7.1 8.7,7.1 	"/>
	
		<radialGradient id="SVGID_4_" cx="6.3285" cy="5.4251" r="7.0883" gradientTransform="matrix(0.7071 0.7071 -0.7071 0.7071 7.8494 -2.1732)" gradientUnits="userSpaceOnUse">
		<stop  offset="0" style="stop-color:#FCEDAC"/>
		<stop  offset="0.3648" style="stop-color:#F3AE37"/>
		<stop  offset="1" style="stop-color:#E3241C"/>
	</radialGradient>
	<polygon class="st3" points="8.7,7.1 8.7,7.1 8.7,7.1 	"/>
	
		<radialGradient id="SVGID_5_" cx="6.3285" cy="5.4251" r="7.0883" gradientTransform="matrix(0.7071 0.7071 -0.7071 0.7071 7.8494 -2.1732)" gradientUnits="userSpaceOnUse">
		<stop  offset="0" style="stop-color:#FCEDAC"/>
		<stop  offset="0.3648" style="stop-color:#F3AE37"/>
		<stop  offset="1" style="stop-color:#E3241C"/>
	</radialGradient>
	<path class="st4" d="M8.4,4.1c0.4,0,1.1-0.1,1.8-0.4c0.9-0.4,1.5-0.9,1.8-1.2c0,0.1-0.5,1.2-1.4,1.6C9.6,4.6,8.6,4.2,8.4,4.1z"/>
</g>
<!-- <g>
	<path class="st5" d="M3.1,8.9H2.5V8.7c0-0.1,0-0.2,0-0.2c0,0,0,0-0.1,0c0,0-0.1,0-0.1,0c0,0,0,0.1,0,0.1c0,0.1,0,0.1,0,0.2
		s0,0.1,0.1,0.1c0.1,0,0.2,0.1,0.3,0.2C2.9,9.2,3,9.3,3.1,9.4c0.1,0.1,0.1,0.2,0.1,0.4c0,0.2,0,0.3-0.1,0.4
		c-0.1,0.1-0.1,0.2-0.3,0.2c-0.1,0.1-0.3,0.1-0.4,0.1c-0.2,0-0.3,0-0.5-0.1s-0.2-0.1-0.3-0.2c0-0.1-0.1-0.2-0.1-0.4V9.6h0.6v0.2
		c0,0.1,0,0.2,0,0.3c0,0,0,0.1,0.1,0.1c0.1,0,0.1,0,0.1,0c0,0,0-0.1,0-0.2c0-0.1,0-0.2,0-0.2c0,0-0.2-0.1-0.4-0.3
		C1.8,9.3,1.7,9.2,1.7,9.1c0-0.1-0.1-0.2-0.1-0.3c0-0.2,0-0.3,0.1-0.4c0.1-0.1,0.1-0.2,0.3-0.2S2.2,8,2.3,8c0.2,0,0.3,0,0.4,0.1
		c0.1,0,0.2,0.1,0.3,0.2c0.1,0.1,0.1,0.1,0.1,0.2c0,0.1,0,0.1,0,0.3V8.9z"/>
	<path class="st5" d="M5,8.9v0.6C5,9.7,5,9.9,5,10c0,0.1-0.1,0.2-0.1,0.3c-0.1,0.1-0.2,0.2-0.3,0.2c-0.1,0-0.2,0.1-0.4,0.1
		c-0.2,0-0.3,0-0.4-0.1c-0.1,0-0.2-0.1-0.3-0.2c-0.1-0.1-0.1-0.2-0.1-0.3c0-0.1,0-0.3,0-0.5V9c0-0.2,0-0.4,0.1-0.5
		c0-0.1,0.1-0.2,0.3-0.3C3.8,8.1,4,8,4.2,8c0.2,0,0.3,0,0.4,0.1c0.1,0,0.2,0.1,0.3,0.2C4.9,8.4,5,8.5,5,8.6C5,8.6,5,8.8,5,8.9z
		 M4.3,8.8c0-0.1,0-0.2,0-0.2c0,0,0,0-0.1,0c0,0-0.1,0-0.1,0c0,0,0,0.1,0,0.2v1.1c0,0.1,0,0.2,0,0.2s0,0.1,0.1,0.1c0,0,0.1,0,0.1,0
		s0-0.1,0-0.2V8.8z"/>
	<path class="st5" d="M6.9,8.9v0.6c0,0.2,0,0.4,0,0.5c0,0.1-0.1,0.2-0.1,0.3c-0.1,0.1-0.2,0.2-0.3,0.2c-0.1,0-0.2,0.1-0.4,0.1
		c-0.2,0-0.3,0-0.4-0.1c-0.1,0-0.2-0.1-0.3-0.2c-0.1-0.1-0.1-0.2-0.1-0.3c0-0.1,0-0.3,0-0.5V9c0-0.2,0-0.4,0.1-0.5
		c0-0.1,0.1-0.2,0.3-0.3C5.7,8.1,5.8,8,6,8c0.2,0,0.3,0,0.4,0.1c0.1,0,0.2,0.1,0.3,0.2c0.1,0.1,0.1,0.2,0.1,0.2
		C6.9,8.6,6.9,8.8,6.9,8.9z M6.2,8.8c0-0.1,0-0.2,0-0.2c0,0,0,0-0.1,0c0,0-0.1,0-0.1,0c0,0,0,0.1,0,0.2v1.1C6,9.9,6,10,6,10
		s0,0.1,0.1,0.1c0,0,0.1,0,0.1,0s0-0.1,0-0.2V8.8z"/>
	<path class="st5" d="M7.9,8.1l0,0.2C7.9,8.2,8,8.2,8.1,8.1C8.1,8.1,8.2,8,8.3,8c0.1,0,0.2,0,0.3,0.1c0.1,0.1,0.1,0.1,0.2,0.2
		c0,0.1,0,0.2,0,0.4v1.7H8.1V8.8c0-0.2,0-0.3,0-0.3S8,8.5,8,8.5c-0.1,0-0.1,0-0.1,0.1c0,0,0,0.2,0,0.3v1.6H7.1V8.1H7.9z"/>
</g> -->
</svg>
