<?xml version="1.0" encoding="UTF-8"?>
<svg width="14px" height="14px" viewBox="0 0 14 14" version="1.1" xmlns="http://www.w3.org/2000/svg" xmlns:xlink="http://www.w3.org/1999/xlink">
    <title>注意_attention</title>
    <g id="页面-1" stroke="none" stroke-width="1" fill="none" fill-rule="evenodd" opacity="0.5">
        <g id="Ostrich-trade" transform="translate(-236.000000, -513.000000)">
            <g id="注意_attention" transform="translate(237.000000, 514.000000)">
                <path d="M6,12 C7.65684,12 9.15684,11.32842 10.24263,10.24263 C11.32842,9.15684 12,7.65684 12,6 C12,4.34316 11.32842,2.84316 10.24263,1.757358 C9.15684,0.671574 7.65684,0 6,0 C4.34316,0 2.84316,0.671574 1.757358,1.757358 C0.671574,2.84316 0,4.34316 0,6 C0,7.65684 0.671574,9.15684 1.757358,10.24263 C2.84316,11.32842 4.34316,12 6,12 Z" id="路径" stroke="#2B1106" stroke-linejoin="round"></path>
                <path d="M6,9.9 C6.41421,9.9 6.75,9.56421 6.75,9.15 C6.75,8.73579 6.41421,8.4 6,8.4 C5.58579,8.4 5.25,8.73579 5.25,9.15 C5.25,9.56421 5.58579,9.9 6,9.9 Z" id="路径" fill="#2B1106"></path>
                <line x1="6" y1="2.4" x2="6" y2="7.2" id="路径" stroke="#2B1106" stroke-linecap="round" stroke-linejoin="round"></line>
            </g>
        </g>
    </g>
</svg>