<?xml version="1.0" encoding="UTF-8"?>
<svg width="32px" height="32px" viewBox="0 0 32 32" version="1.1" xmlns="http://www.w3.org/2000/svg" xmlns:xlink="http://www.w3.org/1999/xlink">
    <title>61e4a191df912b553a7e1ca6_Avalanche_Horizontal_Black</title>
    <defs>
        <rect id="path-1" x="0" y="0" width="32" height="32" rx="16"></rect>
    </defs>
    <g id="页面-1" stroke="none" stroke-width="1" fill="none" fill-rule="evenodd">
        <g id="个人中心" transform="translate(-631.000000, -582.000000)">
            <g id="形状" transform="translate(631.000000, 582.000000)">
                <mask id="mask-2" fill="white">
                    <use xlink:href="#path-1"></use>
                </mask>
                <use id="蒙版" fill="#FFFFFF" xlink:href="#path-1"></use>
                <path d="M32,16 C32,24.8365502 24.8365502,32 16,32 C7.16344977,32 0,24.8365502 0,16 C0,7.16344977 7.16344977,0 16,0 C24.8365502,0 32,7.16344977 32,16 Z M11.4660896,22.3668624 L8.36095209,22.3668624 C7.70848841,22.3668624 7.38616383,22.3668624 7.1896136,22.2410881 C6.97738485,22.103493 6.84765379,21.8755363 6.83192581,21.6239876 C6.82015456,21.3920742 6.98129212,21.1090696 7.30361669,20.5430603 L14.970609,7.02892117 C15.2968408,6.45504791 15.4619351,6.16813601 15.6702566,6.06199691 C15.894306,5.94804328 16.1615827,5.94804328 16.3856321,6.06199691 C16.5939536,6.16813601 16.7590479,6.45504791 17.0852798,7.02892117 L18.6614405,9.78032767 L18.6695023,9.79437403 L18.6695023,9.79437403 C19.0218485,10.4100402 19.200544,10.7222257 19.278541,11.0498918 C19.3649954,11.4075796 19.3649954,11.7849026 19.278541,12.1425904 C19.1999505,12.472779 19.0230355,12.7872396 18.6653478,13.412204 L14.6380958,20.531289 L14.62766,20.5495394 C14.2729397,21.1702504 14.0932056,21.4848099 13.8440804,21.7222628 C13.5728964,21.9816754 13.2466646,22.1703122 12.8889768,22.2764513 C12.562745,22.3668624 12.1971932,22.3668624 11.4660896,22.3668624 Z M19.3076229,22.3672087 L23.7570572,22.3672087 L23.7570572,22.3672087 C24.4134776,22.3672087 24.7436167,22.3672087 24.9401669,22.237527 C25.1523957,22.099932 25.286034,21.8680185 25.2978547,21.6164699 C25.3092303,21.3922226 25.1515549,21.1201484 24.8425842,20.5870788 C24.8320495,20.5688779 24.8213168,20.5504297 24.8104359,20.5316352 L22.5818114,16.7189861 L22.5564389,16.6761051 C22.2432643,16.1464482 22.0850943,15.8790232 21.8821638,15.7756538 C21.6581144,15.6616507 21.3947944,15.6616507 21.170745,15.7756538 C20.9663308,15.8817434 20.8012365,16.1608408 20.4750046,16.7228934 L18.2542442,20.5355425 L18.2466275,20.5486986 C17.9215332,21.1098609 17.7590603,21.3902937 17.7707821,21.6204266 C17.78651,21.8719753 17.9161917,22.1038887 18.1284699,22.2414343 C18.3210634,22.3672087 18.6512025,22.3672087 19.3076229,22.3672087 Z" fill="#000000" mask="url(#mask-2)"></path>
            </g>
        </g>
    </g>
</svg>