<?xml version="1.0" encoding="UTF-8"?>
<svg width="16px" height="18px" viewBox="0 0 16 18" version="1.1" xmlns="http://www.w3.org/2000/svg" xmlns:xlink="http://www.w3.org/1999/xlink">
    <title>编组 14</title>
    <g id="页面-1" stroke="none" stroke-width="1" fill="none" fill-rule="evenodd">
        <g id="launchpad-swap" transform="translate(-1082.000000, -304.000000)">
            <g id="编组-7" transform="translate(1031.000000, 292.000000)">
                <g id="编组-14" transform="translate(52.000000, 12.000000)">
                    <rect id="矩形" fill="#232120" x="1.34201586" y="15.5454545" width="1" height="2.45454545" rx="0.5"></rect>
                    <path d="M1.75494382,4.90909091 C1.98299763,4.90909091 2.16787178,5.09396505 2.16787178,5.32201887 L2.16787178,7.36363636 L2.16787178,7.36363636 L1.34201586,7.36363636 L1.34201586,5.32201887 C1.34201586,5.09396505 1.52689001,4.90909091 1.75494382,4.90909091 Z" id="矩形备份-15" fill="#232120"></path>
                    <rect id="矩形备份-7" fill="#232120" x="11.9353602" y="11.4545455" width="1" height="6.54545455" rx="0.5"></rect>
                    <path d="M12.3482882,0 C12.576342,-4.1892806e-17 12.7612161,0.184874144 12.7612161,0.412927958 L12.7612161,3.27272727 L12.7612161,3.27272727 L11.9353602,3.27272727 L11.9353602,0.412927958 C11.9353602,0.184874144 12.1202344,4.1892806e-17 12.3482882,0 Z" id="矩形备份-14" fill="#232120"></path>
                    <rect id="矩形备份-9" fill="#232120" x="6.65579646" y="13.4495223" width="1" height="2.45454545" rx="0.5"></rect>
                    <rect id="矩形备份-13" fill="#232120" x="6.65579646" y="3.63134051" width="1" height="2.45454545" rx="0.5"></rect>
                    <rect id="矩形" stroke="#232120" stroke-width="0.850305035" x="0" y="7.53470726" width="3.50988764" height="7.84896956" rx="0.212576259"></rect>
                    <rect id="矩形备份-8" stroke="#232120" stroke-width="0.850305035" x="10.6965763" y="3.59362301" width="3.30342366" height="7.84896956" rx="0.212576259"></rect>
                    <rect id="矩形备份-10" stroke="#232120" stroke-width="0.850305035" x="5.41701258" y="5.75990624" width="3.30342366" height="7.84896956" rx="0.212576259"></rect>
                </g>
            </g>
        </g>
    </g>
</svg>