<?xml version="1.0" encoding="UTF-8"?>
<svg width="12px" height="12px" viewBox="0 0 12 12" version="1.1" xmlns="http://www.w3.org/2000/svg" xmlns:xlink="http://www.w3.org/1999/xlink">
    <title>感叹号</title>
    <g id="页面-1" stroke="none" stroke-width="1" fill="none" fill-rule="evenodd">
        <g id="launchpad-swap-选择-Settings" transform="translate(-907.000000, -378.000000)" fill="#2B1106">
            <path d="M913.141783,381.1422 L912.864622,381.1422 C912.693853,381.1422 912.554446,381.281607 912.554446,381.453178 L912.554446,384.894287 C912.554446,385.065921 912.692987,385.206933 912.864622,385.206933 L913.141783,385.206933 C913.314204,385.206933 913.453611,385.065921 913.453611,384.894287 L913.453611,381.453178 C913.453611,381.281607 913.314204,381.1422 913.141783,381.1422 Z M913.000771,378 C909.68615,378 907,380.68615 907,384.000771 C907,387.312198 909.68615,390 913.000771,390 C916.312985,390 919.001605,387.312198 919.001605,384.000771 C919.001605,380.68615 916.312985,378 913.000771,378 Z M912.945993,389.252296 C910.062402,389.252296 907.725957,386.914985 907.725957,384.031378 C907.725957,381.147047 910.062402,378.811342 912.945993,378.811342 C915.831993,378.811342 918.167714,381.147047 918.167714,384.031378 C918.167714,386.914985 915.831993,389.252296 912.945993,389.252296 Z M913.12408,386.294634 L912.864622,386.294634 C912.693853,386.294634 912.554446,386.433978 912.554446,386.608791 L912.554446,386.935143 C912.554446,387.107565 912.692987,387.248577 912.864622,387.248577 L913.12408,387.248577 C913.296501,387.248577 913.435845,387.107565 913.435845,386.935143 L913.435845,386.608791 C913.435845,386.433175 913.297304,386.294634 913.12408,386.294634 Z" id="感叹号"></path>
        </g>
    </g>
</svg>