<?xml version="1.0" encoding="UTF-8"?>
<svg width="12px" height="15px" viewBox="0 0 12 15" version="1.1" xmlns="http://www.w3.org/2000/svg" xmlns:xlink="http://www.w3.org/1999/xlink">
    <title>Home</title>
    <defs>
        <polygon id="path-1" points="0 0 11.2928727 0 11.2928727 15 0 15"></polygon>
    </defs>
    <g id="页面-1" stroke="none" stroke-width="1" fill="none" fill-rule="evenodd">
        <g id="Ostrich-connect-wallect2-未连接" transform="translate(-701.000000, -38.000000)">
            <g id="Home" transform="translate(701.000000, 38.000000)">
                <g id="编组">
                    <mask id="mask-2" fill="white">
                        <use xlink:href="#path-1"></use>
                    </mask>
                    <g id="Clip-2"></g>
                    <path d="M11.2930717,8.20851519 C11.2930717,12.3504552 8.76479332,15.0001706 5.64639367,15.0001706 C2.52799402,15.0001706 0,12.3504552 0,8.20851519 C0,4.06629076 2.52799402,0 5.64639367,0 C8.76479332,0 11.2930717,4.06629076 11.2930717,8.20851519" id="Fill-1" fill="#E5A867" mask="url(#mask-2)"></path>
                </g>
                <path d="M1.79331442,7.21284559 C1.79331442,10.6935655 3.91775085,12.9201 6.53845789,12.9201 C8.40011262,12.9201 10.0106459,11.7961679 10.7873307,9.89725729 C11.1780905,8.94225628 11.2915644,7.89653303 11.160458,6.87327704 C10.7830648,3.92807441 9.18447616,1.24991942 7.10924021,0.369714505 C6.92210779,0.334165033 6.73156262,0.31482612 6.53845789,0.31482612 C3.91775085,0.31482612 1.79331442,3.73212573 1.79331442,7.21284559" id="Fill-3" fill="#F6C485"></path>
                <path d="M9.27090404,5.5531403 C9.09514745,5.5531403 8.93218867,5.44023518 8.87701589,5.26334101 C8.48426533,4.00858686 7.74682709,2.98533087 6.90416242,2.5254629 C6.70394779,2.41653932 6.63000489,2.16570225 6.73949726,1.96548762 C6.84842085,1.7655574 7.09982671,1.69189889 7.29947254,1.80082247 C8.34092986,2.36876083 9.20321784,3.54104021 9.66507658,5.01676987 C9.73304717,5.23433264 9.61189457,5.4658308 9.3943318,5.53437018 C9.35337881,5.54716799 9.31185703,5.5531403 9.27090404,5.5531403" id="Fill-5" fill="#FCEDDA"></path>
                <path d="M9.57142505,7.35643701 C9.33822052,7.35359306 9.15563843,7.16646064 9.15848239,6.93837523 C9.16047316,6.76375622 9.15023491,6.58544007 9.12748325,6.4088303 L9.11354786,6.30644782 C9.08084234,6.08092197 9.23726002,5.87132229 9.46278587,5.83861677 C9.69001809,5.80477368 9.89819579,5.96232894 9.93061691,6.18813918 L9.94654307,6.30474145 C9.97412946,6.51860707 9.98664288,6.73531665 9.98408332,6.94832908 C9.98123936,7.17470812 9.7969509,7.35643701 9.57142505,7.35643701" id="Fill-7" fill="#FCEDDA"></path>
            </g>
        </g>
    </g>
</svg>