<?xml version="1.0" encoding="UTF-8"?>
<svg width="17px" height="15px" viewBox="0 0 17 15" version="1.1" xmlns="http://www.w3.org/2000/svg" xmlns:xlink="http://www.w3.org/1999/xlink">
    <title>Launch</title>
    <defs>
        <polygon id="path-1" points="1.98614513e-15 0 1.18934285 0 1.18934285 5.21885898 1.98614513e-15 5.21885898"></polygon>
    </defs>
    <g id="页面-1" stroke="none" stroke-width="1" fill="none" fill-rule="evenodd">
        <g id="Ostrich-connect-wallect2-未连接" transform="translate(-1010.000000, -38.000000)">
            <g id="Launch" transform="translate(1010.000000, 38.000000)">
                <path d="M0.120213264,14.9697559 C3.01008327,11.504204 6.35683702,8.39602486 10.2003068,5.88421252 C11.2742422,5.18232505 12.3789253,4.52991352 13.5080668,3.9266984 C13.649227,3.85122663 13.5298698,3.6775018 13.3898277,3.75227475 C9.36480638,5.90419856 5.66263649,8.70615793 2.52091439,11.9757628 C1.62531604,12.9078391 0.793728937,13.8756947 0.0173480354,14.8900912 C-0.0398148429,14.9645846 0.0573201214,15.0452276 0.120213264,14.9697559" id="Fill-1" fill="#1D1D1B"></path>
                <path d="M16.8769729,2.42947823 C16.8769729,2.42947823 16.8319694,2.46106457 16.7500686,2.5127767 C16.6681677,2.56434908 16.5497888,2.63758465 16.403737,2.72186146 C16.1109345,2.89027532 15.7096762,3.10536987 15.2540503,3.29265167 C14.7984245,3.48035276 14.369074,3.60683786 14.0490177,3.69055562 C13.8891294,3.73220485 13.756914,3.76197427 13.6649503,3.78210008 C13.572707,3.8018066 13.5201563,3.81033211 13.5201563,3.81033211 C13.5201563,3.81033211 13.5588705,3.77217694 13.6312675,3.70760665 C13.7036645,3.64275683 13.8107226,3.55260999 13.9478297,3.44932548 C14.2216245,3.24289621 14.620367,2.98643195 15.0933234,2.79160297 C15.5665594,2.59719328 16.0177129,2.50397166 16.3444777,2.46344053 C16.5081396,2.44289544 16.6413333,2.4340904 16.7337163,2.43143491 C16.8258199,2.42822037 16.8769729,2.42947823 16.8769729,2.42947823" id="Fill-3" fill="#1D1D1B"></path>
                <path d="M16.6501383,2.57838124 C16.6501383,2.57838124 16.6210677,2.60046372 16.567958,2.63666222 C16.5148482,2.67258119 16.4379788,2.72331499 16.3426608,2.78131645 C16.1517451,2.89717959 15.8877337,3.04183382 15.5857069,3.16007293 C14.9819327,3.39501375 14.472638,3.54148489 14.433784,3.4440704 C14.39493,3.34763425 14.8561464,3.03708189 15.4782295,2.79473365 C15.7886421,2.67328 16.0841001,2.61835333 16.2990548,2.59501298 C16.406672,2.58313317 16.4944429,2.57894029 16.5552396,2.57810172 C16.616176,2.57698361 16.6501383,2.57838124 16.6501383,2.57838124" id="Fill-5" fill="#3C3C3B"></path>
                <path d="M15.2974187,3.95363064 C15.2974187,3.95363064 15.2728205,3.97529384 15.2264193,4.00953566 C15.1800181,4.04419677 15.1113947,4.08934007 15.0230648,4.13490266 C14.9348746,4.18088453 14.8271177,4.22490973 14.7059436,4.25705511 C14.5849092,4.28822216 14.4505974,4.30653105 14.3147483,4.29996221 C14.1790388,4.29269456 14.0557683,4.26110823 13.9513657,4.21862042 C13.8471028,4.17487474 13.7612886,4.12078664 13.6954604,4.06711782 C13.6293528,4.01372854 13.5822528,3.96257545 13.5523436,3.92400099 C13.5220151,3.88584581 13.5076196,3.86222594 13.5076196,3.86222594 C13.5076196,3.86222594 13.5394855,3.85314138 13.5931543,3.84154109 C13.6464038,3.83036008 13.7224346,3.81428739 13.810485,3.79905328 C13.8985354,3.78409868 13.9995837,3.76802599 14.1056635,3.75810285 C14.2121626,3.74706161 14.3239726,3.7418904 14.4384381,3.74817971 C14.5527639,3.75363045 14.659822,3.77012243 14.7589136,3.7915061 C14.8582848,3.81191143 14.949969,3.83790726 15.0293541,3.86124761 C15.1085995,3.885147 15.1758253,3.90862711 15.223065,3.92483956 C15.2703047,3.94161107 15.2974187,3.95363064 15.2974187,3.95363064" id="Fill-7" fill="#1D1D1B"></path>
                <path d="M15.1687113,4.05298783 C15.1687113,4.05298783 15.1516603,4.06794242 15.1197945,4.09128277 C15.0880684,4.11518216 15.0413877,4.14634921 14.9821284,4.17793554 C14.8645881,4.24110821 14.693938,4.30483993 14.5125262,4.30456202 C14.3315337,4.30483993 14.175419,4.26878119 14.072973,4.21944502 C13.9703873,4.16968955 13.9211909,4.10749522 13.9406179,4.05354688 C13.9601847,3.99903949 14.042365,3.96256147 14.1569703,3.93950065 C14.2718551,3.91616031 14.4194444,3.90567812 14.5793327,3.90539859 C14.7389415,3.90567812 14.880521,3.943414 14.9891165,3.98003179 C15.0430648,3.99834068 15.0879286,4.01678933 15.1193752,4.02992701 C15.1509615,4.04348398 15.1687113,4.05298783 15.1687113,4.05298783" id="Fill-9" fill="#3C3C3B"></path>
                <path d="M14.3379069,1.62174859 C14.3379069,1.62174859 14.3408419,1.76332804 14.3141473,1.9757671 C14.2871731,2.18890497 14.2335043,2.47136506 14.1137278,2.76682307 C13.9942308,3.0625606 13.8290315,3.32028272 13.6934618,3.50924168 C13.5578922,3.69764158 13.450275,3.81462282 13.450275,3.81462282 C13.450275,3.81462282 13.4163127,3.68128936 13.4135175,3.46703339 C13.4103029,3.25333647 13.44147,2.9566206 13.5672563,2.64550919 C13.6933221,2.3346773 13.8874522,2.07402017 14.0490177,1.89694103 C14.2105832,1.71902332 14.3379069,1.62174859 14.3379069,1.62174859" id="Fill-11" fill="#1D1D1B"></path>
                <path d="M14.3347762,1.79562717 C14.3347762,1.79562717 14.3370124,1.81910727 14.337292,1.86019746 C14.3374317,1.90114788 14.3363136,1.95984815 14.3301641,2.03028847 C14.3174457,2.17130887 14.2853003,2.35873043 14.2028404,2.5528606 C14.0373615,2.94000283 13.8368023,3.24440564 13.7252718,3.22609675 C13.6143003,3.20806738 13.6388985,2.861037 13.8113655,2.45768231 C13.8969002,2.25642426 14.028836,2.08884897 14.1382701,1.97396417 C14.1929172,1.91652176 14.2419739,1.87193751 14.2777531,1.8417488 C14.3132528,1.8115601 14.3347762,1.79562717 14.3347762,1.79562717" id="Fill-13" fill="#3C3C3B"></path>
                <path d="M11.7347038,4.70511984 C11.7347038,4.70511984 11.7830617,3.77374228 12.1839006,2.68904522 C12.5845998,1.60434816 13.1861378,0.777093691 13.1861378,0.777093691 C13.1861378,0.777093691 13.13778,1.70833149 12.7370808,2.79302855 C12.3362418,3.87772561 11.7347038,4.70511984 11.7347038,4.70511984" id="Fill-15" fill="#1D1D1B"></path>
                <path d="M11.7600847,4.41413423 C11.7600847,4.41413423 11.7744803,3.79708262 12.0386315,3.08219724 C12.3027827,2.36717209 12.6063469,1.80448811 12.7166195,1.82531273 C12.8270319,1.84599759 12.702224,2.44236434 12.4382126,3.15724972 C12.1739216,3.87213511 11.7600847,4.41413423 11.7600847,4.41413423" id="Fill-17" fill="#3C3C3B"></path>
                <path d="M15.3567898,5.24492469 C15.3567898,5.24492469 15.3109477,5.26602883 15.2261118,5.29915255 C15.1837638,5.31606382 15.1316323,5.33521129 15.0706959,5.35338042 C15.0098992,5.37182908 14.9395986,5.39405132 14.8620304,5.41040354 C14.7843224,5.42829314 14.698648,5.44590322 14.6071035,5.45750351 C14.515,5.47175929 14.4175855,5.47790884 14.3147203,5.48280053 C14.1103875,5.48811151 13.887606,5.47203882 13.6672005,5.42046644 C13.447354,5.36749644 13.2526648,5.28447749 13.0895619,5.19181493 C13.0090587,5.14345709 12.9341459,5.09635711 12.8697154,5.04478473 C12.803468,4.99586785 12.7468641,4.94457499 12.6969689,4.89621716 C12.6459556,4.84953647 12.6054245,4.8008991 12.569785,4.75952939 C12.533866,4.71843921 12.5059135,4.68014427 12.4839708,4.64799889 C12.4400854,4.58426717 12.4187017,4.5472301 12.4187017,4.5472301 C12.4187017,4.5472301 12.4655222,4.55575561 12.544488,4.57476332 C12.5837613,4.5845467 12.63156,4.59628675 12.6874651,4.60830633 C12.7432303,4.62060543 12.8036077,4.63737693 12.87293,4.65149295 C12.9408545,4.66714636 13.0138106,4.6848962 13.0929162,4.70138818 C13.1706242,4.71899826 13.2533636,4.73772644 13.3400164,4.75729319 C13.5134617,4.79460979 13.6994856,4.83625903 13.8930567,4.88321924 C14.0874664,4.9285023 14.2715337,4.97462394 14.442044,5.01906843 C14.5278582,5.04031233 14.6098988,5.06085743 14.6870477,5.08000489 C14.7643364,5.10068975 14.837572,5.11760102 14.9053568,5.134093 C14.9727223,5.15240189 15.0349167,5.16498052 15.0899831,5.17881701 C15.1449098,5.19321255 15.1929881,5.20425379 15.2326807,5.21305883 C15.311926,5.23178701 15.3567898,5.24492469 15.3567898,5.24492469" id="Fill-19" fill="#1D1D1B"></path>
                <path d="M15.1210803,5.34046636 C15.1210803,5.34046636 15.0896337,5.35444262 15.0323311,5.37554676 C15.0036797,5.38602895 14.9683198,5.3988871 14.9272296,5.41188502 C14.886419,5.42376483 14.8395985,5.43648323 14.7876069,5.44892209 C14.5811776,5.49839803 14.2890739,5.53403748 13.9906809,5.48428201 C13.6924276,5.43578441 13.4430912,5.33990731 13.2815257,5.24500855 C13.1198205,5.14871216 13.0444885,5.05535078 13.0750965,5.00531579 C13.106543,4.95388318 13.2356836,4.95388318 13.4218473,4.97792234 C13.6089894,5.00070363 13.8541329,5.04640598 14.1263903,5.09085047 C14.3976694,5.13599377 14.6397381,5.19888691 14.8218487,5.24948095 C14.8674113,5.26178005 14.9086412,5.27407916 14.9451192,5.28553968 C14.9818768,5.29644116 15.0136029,5.30566549 15.0397385,5.31335243 C15.0920097,5.32942512 15.1210803,5.34046636 15.1210803,5.34046636" id="Fill-21" fill="#3C3C3B"></path>
                <g id="编组" transform="translate(10.914829, 0.000000)">
                    <mask id="mask-2" fill="white">
                        <use xlink:href="#path-1"></use>
                    </mask>
                    <g id="Clip-24"></g>
                    <path d="M1.98614513e-15,5.21885898 C1.98614513e-15,5.21885898 0.00880503993,5.14324744 0.0296296582,5.00851636 C0.0402516111,4.94129057 0.0531097647,4.85897044 0.0680643563,4.76379215 C0.0838575231,4.66875362 0.101607366,4.56085694 0.121034358,4.4416395 C0.16184502,4.20404318 0.20922452,3.92256143 0.266666924,3.61214883 C0.322571939,3.30159647 0.387421757,2.96225303 0.462194715,2.60655737 C0.535570048,2.25058218 0.611600869,1.91165803 0.684976202,1.60166472 C0.756534621,1.29181117 0.826136365,1.01116799 0.884137819,0.773990962 C0.914047002,0.65547233 0.941021172,0.547715412 0.964920566,0.453096174 C0.989518773,0.35819741 1.01062292,0.276296563 1.02809323,0.209210544 C1.06317363,0.0748987444 1.08581516,-0.000153738792 1.08581516,-0.000153738792 C1.08581516,-0.000153738792 1.09993118,0.0708456308 1.11991722,0.200405504 C1.13025965,0.265255322 1.14144065,0.344780206 1.15052522,0.437722295 C1.16016883,0.530664383 1.17162936,0.636744149 1.17721986,0.754983257 C1.19203469,0.990902422 1.19482994,1.27462038 1.17680057,1.59188134 C1.15681453,1.90900254 1.1151653,2.25994627 1.03927424,2.62752175 C0.962125316,2.99495746 0.858561274,3.34352523 0.747030769,3.6574319 C0.633823112,3.97119879 0.514046617,4.25044435 0.401817298,4.48189111 C0.347449671,4.59789402 0.292522993,4.70145806 0.244724205,4.79230371 C0.197204942,4.88328912 0.153319505,4.96071757 0.116422195,5.02375047 C0.043326387,5.15009581 1.98614513e-15,5.21885898 1.98614513e-15,5.21885898" id="Fill-23" fill="#1D1D1B" mask="url(#mask-2)"></path>
                </g>
                <path d="M10.9675053,4.84270208 C10.9675053,4.84270208 10.9709994,4.79308638 10.9813418,4.70433717 C10.9869323,4.66003244 10.9936409,4.60594434 11.0017472,4.54319096 C11.0092943,4.48043758 11.0187982,4.40929845 11.0305382,4.33103143 C11.0763804,4.01740429 11.1489171,3.58987068 11.2607271,3.12180594 C11.3733757,2.65360144 11.4766603,2.2295619 11.5661083,1.92068669 C11.6548575,1.61195124 11.7311678,1.41851989 11.7898681,1.41655038 C11.84759,1.4147463 11.8765209,1.60608121 11.8629639,1.91998787 C11.8485684,2.23347525 11.7902874,2.66967413 11.6748435,3.1491994 C11.5600985,3.6290042 11.3821808,4.05611851 11.2336132,4.35870441 C11.1962966,4.43445571 11.1612162,4.50265982 11.1297696,4.56233843 C11.0974845,4.62187727 11.0682741,4.67275083 11.0443747,4.71426031 C10.9961567,4.79741902 10.9675053,4.84270208 10.9675053,4.84270208" id="Fill-25" fill="#3C3C3B"></path>
                <path d="M14.5190252,6.64377999 C14.5190252,6.64377999 14.4625611,6.65188621 14.3605345,6.66111054 C14.3093814,6.66600223 14.2470473,6.67061439 14.1756286,6.67173249 C14.1039304,6.67326988 14.0216103,6.67578561 13.9331406,6.67089392 C13.8438324,6.66753962 13.7462781,6.66152983 13.6438322,6.64811262 C13.5402681,6.63735091 13.4329305,6.61750463 13.3201421,6.59458357 C13.0968016,6.54496787 12.858786,6.46963586 12.6287368,6.35936322 C12.3995263,6.24769295 12.2014828,6.11212329 12.0367027,5.97417766 C11.9556405,5.90331806 11.8803085,5.83497418 11.8161574,5.76467362 C11.7500498,5.69660926 11.6938652,5.62812562 11.644529,5.56453366 C11.5937952,5.50219957 11.5541027,5.44070405 11.5187428,5.38745453 C11.4831033,5.33448452 11.4557099,5.28654597 11.4343262,5.24643413 C11.3909998,5.167049 11.3701752,5.12134665 11.3701752,5.12134665 C11.3701752,5.12134665 11.4195114,5.1413327 11.5037882,5.18018668 C11.5454374,5.20003296 11.596311,5.22407212 11.6561293,5.25048724 C11.7155284,5.27718188 11.7802385,5.30988632 11.8545921,5.34231123 C11.9992464,5.40953701 12.170176,5.4886426 12.3587156,5.57599419 C12.546836,5.66194815 12.7494917,5.75656739 12.9599741,5.85943262 C13.171295,5.96048093 13.3708759,6.06013162 13.5538251,6.15377253 C13.7385912,6.24685438 13.9060267,6.33141071 14.0478857,6.40268961 C14.1187453,6.44042549 14.184853,6.47103349 14.2422954,6.50080291 C14.299598,6.53085185 14.3497727,6.55572959 14.3911425,6.57627468 C14.4736024,6.61764439 14.5190252,6.64377999 14.5190252,6.64377999" id="Fill-27" fill="#1D1D1B"></path>
                <path d="M14.2341891,6.67299036 C14.2341891,6.67299036 14.1961737,6.67802181 14.1278298,6.68333278 C14.0937278,6.68598827 14.0519388,6.68892329 14.0040002,6.69060044 C13.9563412,6.69129925 13.9021133,6.69101972 13.8425745,6.68948234 C13.6053975,6.68207492 13.281987,6.63944735 12.9679405,6.50974771 C12.6540339,6.38116618 12.3995263,6.21834282 12.237262,6.07788147 C12.0751374,5.93616225 12.0037188,5.8184822 12.0422932,5.77277985 C12.0819858,5.72581963 12.2223074,5.75810478 12.4242643,5.83203916 C12.6270597,5.90513497 12.8921892,6.01890168 13.1875075,6.13993603 C13.4817076,6.26152944 13.7384514,6.3937448 13.9278296,6.49633051 C13.9750694,6.52162753 14.017697,6.54580645 14.0550136,6.56774917 C14.0926097,6.58885331 14.1253141,6.60730196 14.1520088,6.62253608 C14.2052583,6.65356336 14.2341891,6.67299036 14.2341891,6.67299036" id="Fill-29" fill="#3C3C3B"></path>
                <path d="M9.722878,5.91781143 C9.722878,5.91781143 9.71029937,5.59579854 9.74076761,5.07462404 C9.77109608,4.55344953 9.84642809,3.83241459 10.0215505,3.03926219 C10.1968128,2.24624954 10.4381827,1.53318107 10.636366,1.02025256 C10.8344095,0.507044514 10.9875892,0.19299809 10.9875892,0.19299809 C10.9875892,0.19299809 10.9773865,0.518505042 10.9227394,1.04009884 C10.8680922,1.56183239 10.7713766,2.27909374 10.5970927,3.0672147 C10.4232281,3.85519589 10.2043599,4.56658721 10.0297965,5.08245074 C9.85523313,5.59831427 9.722878,5.91781143 9.722878,5.91781143" id="Fill-31" fill="#1D1D1B"></path>
                <path d="M9.71960756,5.51258393 C9.71960756,5.51258393 9.70758798,5.29986534 9.7239402,4.9560495 C9.74001289,4.61223365 9.78431761,4.13690126 9.89654693,3.61418937 C10.1204465,2.56820653 10.4154852,1.72753486 10.5296712,1.73508204 C10.6441368,1.74234969 10.5355413,2.59112758 10.3127598,3.63165968 C10.2010895,4.15213538 10.0529412,4.62173751 9.93260567,4.96191953 C9.81213036,5.30210154 9.71960756,5.51258393 9.71960756,5.51258393" id="Fill-33" fill="#3C3C3B"></path>
                <path d="M14.4052026,7.92798807 C14.4052026,7.92798807 14.3293115,7.92784831 14.1936021,7.92239757 C14.1258173,7.91974208 14.0429381,7.91554921 13.9480393,7.90744298 C13.8530008,7.89933675 13.7442655,7.89053171 13.6264457,7.87501807 C13.3894084,7.8469258 13.1117003,7.80038487 12.8107915,7.7305036 C12.5105816,7.65908495 12.1880097,7.56348737 11.8641799,7.43602394 C11.5413284,7.30772193 11.2485259,7.15999292 10.99304,7.01156511 C10.7383926,6.86187943 10.5202233,6.71219375 10.3448213,6.5773229 C10.2562118,6.51107546 10.1797617,6.44664493 10.112536,6.39046038 C10.0453102,6.33455537 9.9892654,6.28396133 9.94426186,6.24189281 C9.85397526,6.15789552 9.80617647,6.10911839 9.80617647,6.10911839 C9.80617647,6.10911839 9.87689632,6.12784657 10.0003066,6.16600175 C10.0619419,6.18514922 10.1372739,6.20862932 10.224346,6.23602278 C10.310859,6.26397529 10.4091121,6.29570138 10.5175678,6.33078178 C10.7332214,6.40261973 10.9884278,6.48745559 11.2665552,6.58696651 C11.5458008,6.68494005 11.8485265,6.79675008 12.1618741,6.92141827 C12.4757807,7.04496835 12.771099,7.16949677 13.0387442,7.28773588 C13.3069485,7.4044376 13.5470606,7.51540906 13.7499958,7.60918972 C13.8510441,7.65698851 13.9425886,7.70017513 14.0233713,7.73833031 C14.1037348,7.77732406 14.173057,7.81100683 14.2298006,7.83854005 C14.3432878,7.8943053 14.4052026,7.92798807 14.4052026,7.92798807" id="Fill-35" fill="#1D1D1B"></path>
                <path d="M14.0261805,7.91652826 C14.0261805,7.91652826 13.9757263,7.91666731 13.8855794,7.91303348 C13.7952928,7.9099587 13.6661522,7.90171271 13.5091989,7.88354358 C13.195432,7.84790414 12.7699948,7.77145403 12.3370105,7.61436094 C11.9037466,7.45796665 11.5337952,7.27753322 11.2820829,7.12449324 C11.0305103,6.97061468 10.8966178,6.84524769 10.9293222,6.79563198 C10.9966878,6.69556201 11.6950812,6.9339969 12.5417626,7.23867923 C12.9648238,7.39227826 13.3333776,7.56097165 13.5993457,7.69192914 C13.7321202,7.75733801 13.838759,7.81380208 13.9126934,7.85279583 C13.9862085,7.89234862 14.0261805,7.91652826 14.0261805,7.91652826" id="Fill-37" fill="#3C3C3B"></path>
                <path d="M8.60628713,6.72485623 C8.60628713,6.72485623 8.4187258,5.38676969 8.54954354,3.70682398 C8.68022151,2.02701803 9.07966285,0.641691743 9.07966285,0.641691743 C9.07966285,0.641691743 9.26708441,1.97977829 9.13640644,3.65958424 C9.0055887,5.33952995 8.60628713,6.72485623 8.60628713,6.72485623" id="Fill-39" fill="#1D1D1B"></path>
                <path d="M8.558097,6.30324856 C8.558097,6.30324856 8.4159585,5.42274457 8.50219199,4.31554574 C8.58828571,3.20834691 8.75306575,2.30338447 8.86990723,2.29388062 C8.98702824,2.28451653 9.01204573,3.17438461 8.92595201,4.28144368 C8.83985828,5.38864251 8.558097,6.30324856 8.558097,6.30324856" id="Fill-41" fill="#3C3C3B"></path>
                <path d="M13.5288216,8.79767444 C13.5288216,8.79767444 13.450275,8.80060946 13.3092546,8.80019017 C13.2385348,8.80032993 13.1523013,8.79907207 13.0534892,8.79320204 C12.9545373,8.7877513 12.8409104,8.78258009 12.7181988,8.76860384 C12.6567033,8.76175547 12.5922728,8.75462758 12.525047,8.74735993 C12.4581008,8.73911394 12.3896171,8.72765341 12.3181985,8.71661217 C12.1748021,8.69536827 12.0253959,8.66364217 11.8684426,8.62870154 C11.5567722,8.55448763 11.2223204,8.45148264 10.8903844,8.31088152 C10.5594267,8.16832373 10.2635494,8.00214607 10.0087623,7.8341515 C9.88283623,7.7483373 9.76445736,7.66559788 9.65977522,7.58104155 C9.60708474,7.53911278 9.55579189,7.49942022 9.50855215,7.45874932 C9.46201122,7.41751938 9.41728721,7.37810634 9.37451987,7.34023069 C9.2889852,7.26531797 9.21728702,7.19138359 9.15397459,7.12751211 C9.09024287,7.06392015 9.03839097,7.00633799 8.99702126,6.95811991 C8.91372278,6.8626621 8.8703964,6.80787518 8.8703964,6.80787518 C8.8703964,6.80787518 8.93957885,6.83456983 9.05977464,6.88656149 C9.119593,6.91297661 9.19282857,6.94498223 9.27836325,6.98062168 C9.36375816,7.01654065 9.45809787,7.06028633 9.5654355,7.10445129 C9.98667979,7.28390639 10.5643184,7.53016798 11.2006572,7.80116754 C11.8361575,8.07328521 12.413237,8.32038538 12.8342018,8.50067905 C12.9397225,8.5474995 13.0374165,8.58579444 13.1222523,8.62255198 C13.2069484,8.65972882 13.2810226,8.69033681 13.3415398,8.71549407 C13.4622946,8.7665074 13.5288216,8.79767444 13.5288216,8.79767444" id="Fill-43" fill="#1D1D1B"></path>
                <path d="M13.1349148,8.80013426 C13.1349148,8.80013426 13.0826436,8.80167165 12.9890027,8.80055355 C12.9421823,8.79985474 12.8848797,8.7988764 12.818772,8.79608115 C12.7533631,8.79188828 12.6788697,8.78643754 12.5968291,8.77916988 C12.270204,8.74828236 11.8254796,8.67295035 11.3774009,8.5045365 C10.9290427,8.33724074 10.5522429,8.13668149 10.2998317,7.96714954 C10.0475604,7.79608019 9.91814024,7.65771527 9.95350017,7.60991649 C9.98969866,7.5609996 10.1824312,7.6106153 10.4722987,7.71348053 C10.7631446,7.81508789 11.1521037,7.96854716 11.5859266,8.13039218 C12.0187712,8.29293601 12.4022796,8.45967272 12.6823637,8.58601806 C12.7523848,8.6171851 12.8155574,8.646675 12.8707636,8.67336964 C12.9263891,8.69908595 12.9746072,8.72158772 13.0138805,8.73975685 C13.0921475,8.77721321 13.1349148,8.80013426 13.1349148,8.80013426" id="Fill-45" fill="#3C3C3B"></path>
                <path d="M7.20196712,7.81838629 C7.20196712,7.81838629 7.17205793,7.72754064 7.12509772,7.56038464 C7.07813751,7.39322865 7.0151046,7.1497623 6.95710315,6.84116662 C6.8991017,6.53257093 6.84794861,6.15744828 6.84054119,5.72697966 C6.83285425,5.29734962 6.87450349,4.80957836 7.00825624,4.29706913 C7.07757846,4.03948677 7.16912292,3.79056969 7.27576174,3.55534934 C7.38156198,3.3197097 7.51000375,3.10000299 7.64221911,2.89692802 C7.67674046,2.84689303 7.71098228,2.79727733 7.74466505,2.74863996 C7.77834783,2.69986284 7.81622347,2.65388096 7.85116411,2.60775933 C7.91992728,2.514957 7.99679667,2.4302609 8.06793581,2.34766124 C8.10371502,2.30643129 8.14298829,2.26855564 8.17932655,2.23026071 C8.21692267,2.19252482 8.25116449,2.15422989 8.2891799,2.11970854 C8.32691579,2.08518719 8.3638131,2.0512249 8.39987184,2.01810118 C8.4179012,2.0016092 8.43565104,1.98539674 8.45340089,1.96932405 C8.4719893,1.95408993 8.4902982,1.93913534 8.50846733,1.92418075 C8.58156314,1.86534072 8.64836963,1.80761879 8.71853042,1.76009953 C8.78771288,1.71216098 8.84948792,1.66380314 8.91363893,1.62634678 C8.97667183,1.58777232 9.03411424,1.55115453 9.08862163,1.52026701 C9.14396759,1.49119641 9.19456163,1.46450176 9.24012422,1.44060237 C9.26290551,1.42900208 9.28386989,1.41754155 9.30441498,1.40789793 C9.32509984,1.39881337 9.34452683,1.39042761 9.3625562,1.38246115 C9.39833541,1.36708727 9.42866388,1.35394959 9.45312233,1.3434674 C9.50203921,1.32278255 9.52775552,1.31202083 9.52775552,1.31202083 C9.52775552,1.31202083 9.50567304,1.32963091 9.46388404,1.36303416 C9.44305942,1.37952614 9.41734312,1.39979171 9.38687488,1.42383086 C9.37164077,1.43571068 9.35542831,1.44842907 9.33795799,1.4621258 C9.32090696,1.47624181 9.30343665,1.49231451 9.2845687,1.50866672 C9.24725211,1.54123139 9.20574263,1.57756965 9.16045957,1.61712245 C9.11629461,1.65793311 9.0704525,1.70433428 9.02041751,1.75213306 C8.96926442,1.79867399 8.92146563,1.85569711 8.86765705,1.91160212 C8.8130099,1.96680832 8.76269539,2.03165814 8.70693013,2.09608867 C8.6932334,2.11230113 8.67925715,2.12865334 8.66514113,2.14528509 C8.65200345,2.16247588 8.63858625,2.1799462 8.62516905,2.19769604 C8.59819488,2.23263667 8.57052189,2.26855564 8.54242962,2.30503367 C8.51391807,2.3410924 8.48890057,2.38078496 8.46122759,2.41921966 C8.43439318,2.45849293 8.40490329,2.49678787 8.37904722,2.53829734 C8.32733508,2.62117653 8.2701722,2.70419548 8.22041674,2.79462184 C8.19497995,2.83934585 8.16688768,2.88337105 8.14242924,2.93005174 C8.11797079,2.9764529 8.0929533,3.02355288 8.06765628,3.07107214 C7.97149965,3.26310587 7.87562255,3.46562179 7.79525909,3.68015728 C7.71377753,3.89413373 7.64054196,4.11747427 7.57834763,4.34766317 C7.45731327,4.81153503 7.3829596,5.2608716 7.33655844,5.67400966 C7.28973799,6.08700796 7.26653741,6.46338848 7.25074424,6.78106873 C7.2363487,7.1001466 7.22460865,7.35898682 7.21650242,7.5381624 C7.20853596,7.71803679 7.20196712,7.81838629 7.20196712,7.81838629" id="Fill-47" fill="#1D1D1B"></path>
                <path d="M7.06670493,7.35473804 C7.06670493,7.35473804 7.04699841,7.29422086 7.01639042,7.18324941 C6.98648123,7.07213819 6.94539105,6.91029317 6.9075154,6.70568081 C6.86894094,6.50148775 6.83455936,6.25382853 6.81974453,5.97206725 C6.80534899,5.69072526 6.81177806,5.37444263 6.85943709,5.03831373 C6.90695635,4.7019053 6.98396551,4.38073099 7.08487406,4.08918633 C7.18536333,3.79848025 7.30765555,3.54327385 7.42533561,3.33572648 C7.45622313,3.2845734 7.48557326,3.23551674 7.51324624,3.18925534 C7.54133851,3.14327347 7.57208627,3.10134471 7.5992002,3.06193167 C7.62687319,3.0226584 7.65272926,2.98632014 7.67760699,2.95347594 C7.70402211,2.92091127 7.72834079,2.8917009 7.75098232,2.86584483 C7.84043035,2.76158198 7.90555969,2.71308438 7.92987837,2.72496419 C7.95391753,2.73670424 7.93532911,2.80714456 7.89158343,2.92608248 C7.88026267,2.95543262 7.86712499,2.98799729 7.85203064,3.02307769 C7.83819415,3.05857737 7.82309979,3.09687231 7.80688734,3.13824202 C7.79081464,3.1793322 7.7708286,3.22237907 7.75335828,3.26891999 C7.73546868,3.31532115 7.71646097,3.36409828 7.69675446,3.41539113 C7.61946577,3.62084206 7.53337205,3.86500722 7.45985695,4.13768393 C7.38648162,4.40994136 7.32540539,4.7119682 7.28040185,5.02853035 C7.19151288,5.66165465 7.15042269,6.24055109 7.1198147,6.66445087 C7.10416129,6.87675016 7.0914429,7.04907737 7.0824981,7.16843458 C7.0735533,7.28793155 7.06670493,7.35473804 7.06670493,7.35473804" id="Fill-49" fill="#3C3C3B"></path>
                <path d="M14.1944686,7.30547175 C14.1944686,7.30547175 14.1085147,7.37046133 13.9498842,7.48297017 C13.7912537,7.59533925 13.560366,7.75564689 13.2644887,7.9402732 C12.9686114,8.12448022 12.6063469,8.33328546 12.1788133,8.52350227 C11.7529568,8.71357932 11.256101,8.88087508 10.7224876,8.95732519 C10.4520471,8.99352369 10.1898526,8.99883467 9.94331148,8.98066554 C9.69649083,8.96291569 9.46769956,8.91371928 9.25805575,8.85264305 C8.84142362,8.7222446 8.51088522,8.52126607 8.29327495,8.30100031 C8.18314207,8.19240482 8.09858573,8.08213218 8.03499378,7.979826 C8.00494483,7.92727528 7.97629351,7.87947649 7.95309293,7.83391391 C7.93352617,7.78639464 7.91563657,7.74306826 7.89956388,7.70407451 C7.89187694,7.68436799 7.88405023,7.66647839 7.87818021,7.64886831 C7.87314876,7.63069918 7.86867635,7.61364815 7.86448348,7.59785498 C7.85651701,7.56654817 7.84980841,7.53999329 7.84421791,7.51833009 C7.83387548,7.47584228 7.82842474,7.45348028 7.82842474,7.45348028 C7.82842474,7.45348028 7.84198171,7.47164941 7.86783778,7.50645028 C7.88041641,7.52378083 7.89606981,7.54530426 7.9143787,7.57046152 C7.92346327,7.58304015 7.93310688,7.59659712 7.94344931,7.61113242 C7.95477008,7.62482915 7.96832704,7.63866564 7.98174425,7.65362023 C8.00843889,7.68338965 8.03820831,7.71623385 8.07077299,7.75229258 C8.10585338,7.78597536 8.14638452,7.8204967 8.18747471,7.85823259 C8.2732889,7.93090911 8.37713247,8.00596159 8.49984398,8.07626215 C8.74289103,8.21979828 9.06993537,8.33328546 9.44980995,8.39967266 C9.64156416,8.42860351 9.84463913,8.45152456 10.0598734,8.45264267 C10.2748282,8.45404029 10.4987278,8.44146166 10.7279384,8.41099343 C11.194885,8.34390741 11.6451999,8.22720569 12.0573596,8.09499033 C12.4696591,7.96361354 12.844083,7.82217385 13.1603656,7.70058045 C13.4780458,7.57786894 13.7360475,7.47835801 13.9145242,7.40945508 C14.0939793,7.34125096 14.1944686,7.30547175 14.1944686,7.30547175" id="Fill-51" fill="#1D1D1B"></path>
                <path d="M13.7551111,7.62239728 C13.7551111,7.62239728 13.6983675,7.66572367 13.5934058,7.74049663 C13.4880249,7.8148503 13.3347054,7.92106983 13.138339,8.04308252 C12.9426715,8.16565427 12.7029787,8.30332037 12.4254103,8.43749241 C12.1482612,8.57124516 11.8314195,8.70038574 11.4876037,8.79584355 C11.1429493,8.89130137 10.811153,8.94944258 10.5029766,8.96607433 C10.1970364,8.98228678 9.92925137,8.95601142 9.71317848,8.91534053 C9.60598061,8.89213994 9.50968423,8.87061651 9.42946053,8.84112662 C9.38892939,8.82756965 9.35161279,8.81443197 9.31779026,8.80171358 C9.28424725,8.78801685 9.25489712,8.7729225 9.22834223,8.75978482 C9.17579152,8.73253113 9.1370773,8.70863173 9.1131779,8.68808664 C9.09011708,8.66558487 9.08159157,8.6475555 9.08816041,8.63441782 C9.09486901,8.62128014 9.1165322,8.61373297 9.15105355,8.61121724 C9.18627371,8.60674484 9.23505084,8.60618579 9.29528849,8.60940033 C9.32505791,8.61149677 9.35804187,8.61401249 9.39410061,8.61638846 C9.43057863,8.61764632 9.46971214,8.61960299 9.51150114,8.62225848 C9.5941008,8.62980566 9.68983814,8.63064423 9.79382147,8.63483711 C10.0031857,8.63791189 10.2522426,8.63357925 10.5288327,8.59989648 C10.8044444,8.56635347 11.1113629,8.50248199 11.4291829,8.41429182 C12.0651025,8.2367934 12.6420422,8.02239767 13.0651034,7.8689384 C13.2765642,7.792069 13.4488914,7.72917586 13.5686679,7.68710734 C13.6881648,7.64434 13.7551111,7.62239728 13.7551111,7.62239728" id="Fill-53" fill="#3C3C3B"></path>
                <path d="M6.62189668,8.29254468 C6.62189668,8.29254468 6.56724952,8.21301979 6.47290981,8.06403293 C6.4494297,8.02657657 6.42329411,7.98478757 6.39478255,7.93922498 C6.36808791,7.89268405 6.34279089,7.84013334 6.31386004,7.78422832 C6.25823455,7.67157972 6.18807376,7.5448151 6.13398565,7.3944306 C6.10519457,7.31965765 6.07500586,7.24125086 6.04341953,7.15962954 C6.01323082,7.0773094 5.99100858,6.9881409 5.96375488,6.89701573 C5.95075697,6.85117362 5.93761929,6.80449293 5.92434185,6.75711343 C5.91791277,6.73321403 5.91050536,6.7094544 5.90491485,6.68499596 C5.90002317,6.66025799 5.89499171,6.63552002 5.88996026,6.61050253 C5.87053327,6.50959397 5.85068699,6.40602993 5.83028166,6.29967064 C5.76627042,5.86962131 5.74251078,5.38101147 5.7939434,4.86095507 C5.85096651,4.3407589 5.97745161,3.84348379 6.13244827,3.40085583 C6.17549513,3.29100247 6.21714437,3.18366484 6.25795503,3.07954175 C6.26829745,3.05368568 6.27863988,3.02796937 6.28870278,3.00225307 C6.2994645,2.97695605 6.31204313,2.95207832 6.32336389,2.92720058 C6.346844,2.87772465 6.36990482,2.82894752 6.39268611,2.78100897 C6.4393668,2.68569092 6.48045699,2.59302835 6.5285353,2.50623582 C6.57745219,2.41986257 6.62455217,2.33726291 6.66927618,2.25801755 C6.75550966,2.09952683 6.85320368,1.96339812 6.93314785,1.84306257 C6.97409827,1.78310444 7.0105763,1.7269199 7.04747361,1.67674515 C7.0859083,1.62740898 7.1209887,1.58212591 7.1527148,1.54159478 C7.27947942,1.37988952 7.35145713,1.29323675 7.35145713,1.29323675 C7.35145713,1.29323675 7.30994765,1.39470435 7.23140111,1.57387992 C7.21183435,1.61846417 7.18989163,1.66807987 7.16599224,1.72216798 C7.14321095,1.77667537 7.12182728,1.83705278 7.09680978,1.9007845 C7.04901099,2.02894675 6.98625761,2.17136478 6.93622263,2.3332098 C6.90882917,2.41343349 6.88003809,2.49701149 6.8501289,2.58422331 C6.82049924,2.67129538 6.79771795,2.76339889 6.76892687,2.85731931 C6.75495061,2.90427953 6.7408346,2.95207832 6.72629929,3.00057592 C6.7191714,3.0248946 6.71120494,3.04893376 6.70477586,3.07367172 C6.69876607,3.09854946 6.69275628,3.12356695 6.68660673,3.14858445 C6.66158924,3.24879419 6.63601269,3.35179918 6.60959757,3.45745966 C6.51525786,3.88052086 6.43279796,4.34285534 6.37954843,4.82755182 C6.33188941,5.31182902 6.31833244,5.77038991 6.32504104,6.18744132 C6.32951345,6.29142465 6.33384608,6.39275249 6.33831849,6.49114532 C6.33915706,6.51602305 6.33985587,6.54062126 6.34069445,6.56493994 C6.34209207,6.58911886 6.34530661,6.61273873 6.34726329,6.63649836 C6.35173569,6.68401762 6.35620809,6.73069831 6.36040097,6.77654042 C6.36976506,6.86836441 6.37367841,6.95893053 6.38541846,7.04348687 C6.39743804,7.12846249 6.40889857,7.20994405 6.41980005,7.28779179 C6.43657155,7.44572346 6.47011456,7.58283051 6.49163799,7.7070794 C6.50365757,7.76857492 6.51274213,7.82713542 6.52420266,7.87968614 C6.53706082,7.93181757 6.54880087,7.97947659 6.55942282,8.02224393 C6.60121182,8.19443138 6.62189668,8.29254468 6.62189668,8.29254468" id="Fill-55" fill="#1D1D1B"></path>
                <path d="M6.35834646,7.87898733 C6.35834646,7.87898733 6.32508297,7.82364136 6.26819962,7.72063637 C6.24024711,7.66906399 6.20488719,7.60617085 6.16771036,7.5309786 C6.13430711,7.45438873 6.09713027,7.36633833 6.05743771,7.26794551 C6.03815048,7.21846957 6.01564871,7.16731648 5.99720006,7.1123898 C5.98028879,7.05648479 5.96267871,6.99848333 5.94450958,6.9385252 C5.92717903,6.87786826 5.90914966,6.81525464 5.89056124,6.75082411 C5.8862286,6.73461166 5.88161644,6.71811968 5.87714404,6.7016277 C5.87364997,6.6848562 5.87029567,6.66808469 5.86680161,6.65103366 C5.86023277,6.6169316 5.85352417,6.58227049 5.84653604,6.5471901 C5.82067997,6.40658898 5.7892334,6.2591395 5.77931026,6.10120784 C5.77232213,6.02266129 5.76575329,5.94257735 5.76002303,5.86109579 L5.75569039,5.79960028 L5.75555063,5.73712642 C5.75569039,5.69533742 5.75583015,5.65312914 5.75610968,5.61078109 C5.75792659,4.93167491 5.88594908,4.30511945 6.02599114,3.86263125 C6.17050561,3.41860567 6.32061057,3.15752925 6.37399986,3.16605476 C6.43186155,3.17527909 6.38448205,3.44851485 6.31921295,3.88052086 C6.25771743,4.31252687 6.18280471,4.9048405 6.18112756,5.5495651 C6.17567682,6.19401016 6.21662724,6.77318612 6.26484532,7.19457017 C6.277983,7.29939208 6.28888448,7.39512942 6.29754975,7.47996528 C6.31096696,7.56312399 6.32256725,7.63496193 6.3320711,7.69380196 C6.35010047,7.81204107 6.35834646,7.87898733 6.35834646,7.87898733" id="Fill-57" fill="#3C3C3B"></path>
                <path d="M12.2975695,9.94772447 C12.2975695,9.94772447 12.202531,9.96910814 12.0314616,10.0023716 C11.8601128,10.0354953 11.6127331,10.0804989 11.3066531,10.1246638 C11.0008527,10.1685493 10.6359327,10.2108973 10.2313201,10.2313027 C9.82684735,10.2518478 9.38198319,10.2483537 8.9245404,10.196362 C8.46723738,10.1426932 8.04431594,10.0423437 7.68093334,9.9118055 C7.31685192,9.78154681 7.01202983,9.62403443 6.77666971,9.46847872 C6.54089031,9.31348207 6.37093906,9.16631212 6.26234357,9.05757686 C6.20657832,9.00502615 6.16842314,8.95876475 6.14088992,8.92969414 C6.11433504,8.89978495 6.10021903,8.88413155 6.10021903,8.88413155 C6.10021903,8.88413155 6.18002343,8.91991076 6.3234198,8.98462082 C6.46625711,9.04835253 6.67715878,9.13179077 6.94158951,9.21816402 C7.20574071,9.30509632 7.52677526,9.38951289 7.88903976,9.46288822 C8.25130426,9.53682261 8.65577704,9.59706026 9.08582637,9.64779406 C9.9471829,9.7457676 10.7548706,9.79664116 11.3435504,9.84849307 C11.6377506,9.87351056 11.8767445,9.89754972 12.0416643,9.91599837 C12.2067239,9.93458679 12.2975695,9.94772447 12.2975695,9.94772447" id="Fill-59" fill="#1D1D1B"></path>
                <path d="M11.820546,10.0446218 C11.820546,10.0446218 11.7577926,10.0595764 11.6444452,10.0826372 C11.5312375,10.1056981 11.3674358,10.1365856 11.1650597,10.1669141 C10.7611459,10.2272915 10.1993005,10.2865508 9.59035516,10.2527283 C9.28623188,10.2355375 8.99957891,10.2026933 8.74297489,10.1571307 C8.4866504,10.1117079 8.26149295,10.0538462 8.0781245,9.99458685 C7.98630051,9.96439814 7.90467918,9.93490824 7.83507744,9.90457977 C7.76491665,9.87578869 7.70663567,9.84671808 7.66065379,9.82002344 C7.56799123,9.76803177 7.52536365,9.72386681 7.53850133,9.69787098 C7.56519598,9.6451805 7.80866232,9.67201491 8.18923571,9.71911488 C8.38001158,9.74175642 8.60572808,9.76901011 8.8578597,9.79290951 C9.10971179,9.81708842 9.38825853,9.83791304 9.68217915,9.85440502 C10.2696011,9.88724922 10.8041928,9.92805988 11.1925929,9.96733315 C11.3867231,9.98717943 11.5438162,10.0059076 11.6522719,10.0204429 C11.7607276,10.0346987 11.820546,10.0446218 11.820546,10.0446218" id="Fill-61" fill="#3C3C3B"></path>
                <path d="M5.20611614,9.43903076 C5.20611614,9.43903076 5.14727611,9.35461418 5.04538922,9.1971018 C5.0200922,9.157549 4.99186017,9.11352381 4.96097264,9.06544549 C4.93162251,9.0165286 4.90297119,8.96160193 4.87068604,8.90304142 C4.80807243,8.7852216 4.73134279,8.65272672 4.66593393,8.49675172 C4.63197163,8.41904375 4.59633218,8.33770195 4.55901558,8.25314562 C4.52281709,8.16775071 4.49304767,8.07564719 4.45866608,7.98144724 C4.38724742,7.79388592 4.33260027,7.58508068 4.27403977,7.36481492 C4.16963715,6.92078934 4.09514372,6.4165261 4.08452177,5.87410769 C4.0787915,5.33099046 4.13749177,4.80520379 4.22819766,4.32973163 C4.27977003,4.09185579 4.32784835,3.86655858 4.39339698,3.65691477 C4.42470378,3.55209287 4.45153819,3.45090479 4.4850812,3.35432888 C4.51946279,3.25803249 4.55244674,3.16564945 4.58403308,3.07745929 C4.64427073,2.90135849 4.71680749,2.74468468 4.77550776,2.60729811 C4.80597599,2.5386747 4.8328104,2.47494299 4.86048338,2.41666201 C4.88969375,2.35894008 4.91652816,2.30610984 4.94056731,2.25859058 C5.03728299,2.06921234 5.09318801,1.96620735 5.09318801,1.96620735 C5.09318801,1.96620735 5.07138505,2.07689928 5.02735985,2.27382469 C5.01617885,2.32302111 5.00373998,2.37766826 4.99004325,2.4372071 C4.97760439,2.49716523 4.96684267,2.56243433 4.95328571,2.63203608 C4.92840797,2.77151909 4.89220948,2.92889171 4.86886913,3.10359488 C4.85489288,3.19038742 4.84049734,3.28137283 4.82526322,3.3762716 C4.81016887,3.47089084 4.80150359,3.56956319 4.78780686,3.67103079 C4.75775791,3.87424552 4.74308285,4.09059793 4.72030155,4.31729277 C4.68745736,4.77068244 4.66747131,5.26460326 4.67292205,5.77934868 C4.68312472,6.2933953 4.71778583,6.77865084 4.76418699,7.21904259 C4.79381665,7.43735168 4.81478103,7.64811359 4.85083976,7.84042684 C4.86747151,7.93728228 4.8790718,8.03260033 4.8969614,8.12176883 C4.91499077,8.21135662 4.93218156,8.29717082 4.94867354,8.37921143 C4.97704534,8.54552885 5.01771624,8.69060236 5.04692661,8.82128034 C5.06244025,8.88626992 5.07515864,8.94776543 5.08927466,9.00325116 C5.10464853,9.0583176 5.11862479,9.10877188 5.13120342,9.15391518 C5.18095888,9.335886 5.20611614,9.43903076 5.20611614,9.43903076" id="Fill-63" fill="#1D1D1B"></path>
                <path d="M4.92100056,9.00227282 C4.92100056,9.00227282 4.88410325,8.94427137 4.82121011,8.83665422 C4.79004306,8.7829854 4.75090955,8.71701748 4.70898079,8.63889022 C4.67026656,8.55936534 4.62694018,8.4681004 4.58025949,8.36607375 C4.39758985,7.9581069 4.19758966,7.35936418 4.13106269,6.65384289 C4.06118142,5.94985898 4.10870068,5.29143766 4.18808581,4.81806194 C4.27124452,4.34286931 4.38081835,4.05258252 4.4365836,4.05300135 C4.49640197,4.05314157 4.49262838,4.34077288 4.4873174,4.79737709 C4.48591978,5.25370178 4.48717764,5.87913914 4.55426366,6.55628864 C4.61813514,7.23371766 4.7074434,7.84182447 4.78515137,8.28403314 C4.80569646,8.39416602 4.82302702,8.49465528 4.83756232,8.58354426 C4.85573145,8.67089585 4.87152462,8.74636762 4.88424301,8.8080029 C4.90912074,8.93211203 4.92100056,9.00227282 4.92100056,9.00227282" id="Fill-65" fill="#3C3C3B"></path>
                <path d="M12.4755431,10.9900735 C12.4755431,10.9900735 12.3627548,11.0237563 12.1571641,11.0796613 C12.1055917,11.093358 12.0481493,11.1088716 11.9855357,11.1255034 C11.9227823,11.141017 11.8544384,11.1554126 11.7807835,11.1717648 C11.6338931,11.2027921 11.4654793,11.2426244 11.2795951,11.2702974 C11.1862337,11.2851122 11.0886795,11.3007656 10.9870721,11.3169781 C10.8851852,11.3322122 10.7796645,11.3419956 10.6699509,11.3544344 C10.4501044,11.3819676 10.2169805,11.3937077 9.97085867,11.4062863 C9.48043193,11.4215204 8.9440233,11.4043296 8.39657344,11.3315134 C7.85038144,11.2550633 7.34793511,11.1305348 6.90726383,10.9881168 C6.68909451,10.9122257 6.48224595,10.8406673 6.29706058,10.7579279 C6.2041185,10.7176763 6.11327285,10.6811983 6.02899604,10.6405274 C5.94541804,10.5990179 5.8653341,10.5591856 5.78874423,10.5211702 C5.63500544,10.4469563 5.50446723,10.3667326 5.38846432,10.2996465 C5.33088216,10.265265 5.27693382,10.2343774 5.22857598,10.2036297 C5.18133624,10.1719036 5.13800985,10.142833 5.0990161,10.1166974 C4.94401945,10.0115959 4.8610005,9.95121853 4.8610005,9.95121853 C4.8610005,9.95121853 4.96568264,9.98070843 5.15016919,10.0381508 C5.19601131,10.0528259 5.24716439,10.0688986 5.30306941,10.0865087 C5.35967324,10.1024416 5.42116876,10.1199119 5.48727644,10.1386401 C5.61977132,10.1751181 5.76666175,10.2223579 5.93507561,10.2627492 C6.01809456,10.2845522 6.10502686,10.3074732 6.19559298,10.3313726 C6.28601934,10.355272 6.3824555,10.3749785 6.48028927,10.3988779 C6.67511825,10.4486334 6.88853565,10.4891645 7.10950022,10.5379417 C7.55576201,10.6255728 8.04744662,10.7112472 8.56931994,10.784343 C9.09231136,10.8536652 9.59531673,10.90384 10.057791,10.9401783 C10.2897968,10.9531762 10.5100625,10.9719044 10.7191473,10.9770756 C10.8234102,10.9808492 10.9237597,10.987977 11.0211742,10.9896542 C11.1187284,10.9916109 11.2123693,10.9931483 11.3018173,10.9949652 C11.4805736,11.0019533 11.643956,10.9970616 11.7874921,10.9983195 C11.8596096,10.9984592 11.9264161,10.998599 11.9883309,10.9987388 C12.050106,10.9970616 12.1067098,10.9955242 12.1577231,10.9942664 C12.3616367,10.989794 12.4755431,10.9900735 12.4755431,10.9900735" id="Fill-67" fill="#1D1D1B"></path>
                <path d="M11.9033972,11.1477116 C11.9033972,11.1477116 11.8280652,11.1682567 11.6909582,11.2017998 C11.6226143,11.2182917 11.538617,11.2389766 11.4407832,11.2603603 C11.3433687,11.2788089 11.2321178,11.299354 11.1088472,11.3205979 C10.6171626,11.4026385 9.9302297,11.4693053 9.19661614,11.4132605 C8.46300257,11.3600109 7.82428777,11.2231834 7.38221886,11.0876138 C6.94028972,10.9491091 6.69304979,10.8157756 6.71764799,10.7644828 C6.74350406,10.7101151 7.0343499,10.7468727 7.49388913,10.8124213 C7.95468622,10.8753145 8.58613337,10.9637841 9.29570778,11.0154963 C10.0041641,11.0694446 10.6518237,11.1035467 11.1275754,11.1215761 C11.2466531,11.1253496 11.35441,11.129822 11.4493087,11.134574 C11.5446268,11.1366704 11.6268072,11.1384873 11.6938932,11.1398849 C11.8286243,11.1436585 11.9033972,11.1477116 11.9033972,11.1477116" id="Fill-69" fill="#3C3C3B"></path>
                <path d="M3.10081711,11.2989347 C3.10081711,11.2989347 3.07468152,11.1790185 3.03331181,10.9600106 C3.01304624,10.8504367 2.99138305,10.7155659 2.96622579,10.5586125 C2.94428307,10.4012399 2.91744866,10.2220644 2.89648428,10.0219244 C2.80493982,9.22402007 2.75155053,8.09809306 2.87803563,6.83589757 C2.94036972,6.20556852 3.03974088,5.60263293 3.15616308,5.05602164 C3.21486335,4.78152802 3.2728648,4.53876049 3.28166984,4.32352618 C3.28390604,4.26985736 3.2840458,4.2178657 3.28027221,4.16797047 C3.27649862,4.11905358 3.27048884,4.07181385 3.26014641,4.02639102 C3.23932179,3.9358249 3.20689688,3.85252642 3.16259216,3.78264515 C3.11926577,3.71178555 3.06447885,3.65434314 3.00270381,3.61115652 C2.97209582,3.58907404 2.93883233,3.57216277 2.90556885,3.55706842 C2.87258489,3.54435003 2.83862259,3.53372807 2.80326267,3.52799781 C2.66112417,3.50479723 2.51535184,3.53652332 2.4095516,3.58767641 C2.30039706,3.63715235 2.23023626,3.70661433 2.1894256,3.75623003 C2.17978198,3.76908819 2.17013837,3.78026919 2.16342977,3.79047186 C2.15700069,3.80109381 2.15154995,3.80989885 2.14735708,3.81702674 C2.13841227,3.83128252 2.13393987,3.83868993 2.13393987,3.83868993 C2.13393987,3.83868993 2.1364556,3.83072347 2.14120752,3.81534959 C2.14372325,3.80752289 2.14679803,3.79773951 2.15057161,3.78613922 C2.15462473,3.77467869 2.16147309,3.76168077 2.16832146,3.74672618 C2.19753183,3.68830544 2.25553328,3.59787908 2.36916022,3.51709633 C2.48013168,3.43533525 2.6442129,3.3612611 2.84295523,3.35357416 C2.89257093,3.35175725 2.94358426,3.35622965 2.99557592,3.36531421 C3.04533139,3.37607593 3.0956459,3.39005218 3.14400374,3.41101656 C3.24099894,3.45196699 3.33198435,3.51472037 3.40801517,3.59578264 C3.48530386,3.6761461 3.54763795,3.77453893 3.59501745,3.88551038 C3.61863732,3.94099611 3.6373655,4.00067471 3.65232009,4.06258952 C3.66699516,4.12366575 3.67677854,4.18697818 3.68376666,4.25154847 C3.71088059,4.5110875 3.67649901,4.78683899 3.64672959,5.05378544 C3.58621241,5.59159169 3.52499642,6.18124984 3.46392019,6.79969907 C3.33995082,8.03617825 3.24630992,9.15763286 3.19068443,9.97356656 C3.16287168,10.3818129 3.14050967,10.7130502 3.1251358,10.9419812 C3.11143907,11.1711918 3.10081711,11.2989347 3.10081711,11.2989347" id="Fill-71" fill="#1D1D1B"></path>
                <path d="M2.98384985,10.690213 C2.98384985,10.690213 2.97979673,10.6700871 2.97197003,10.6322115 C2.96428309,10.5941961 2.95296232,10.5381513 2.94094275,10.465335 C2.91592525,10.319982 2.88224248,10.108661 2.85247306,9.84478936 C2.79125707,9.31788459 2.74862949,8.57798171 2.80257783,7.74877057 C2.9075395,6.0888109 3.2653316,4.73297451 3.37057279,4.74104458 C3.43178878,4.73828549 3.4242416,5.07427463 3.38426952,5.61250017 C3.36330514,5.88154305 3.33814788,6.2014595 3.31033514,6.55659611 C3.28392002,6.9114532 3.25289273,7.30139068 3.22675714,7.71005635 C3.17364737,8.52710815 3.10991566,9.27022556 3.06491212,9.81110659 C3.04157177,10.0815471 3.02200502,10.3012538 3.00732995,10.4534552 C2.99237536,10.6057964 2.98384985,10.690213 2.98384985,10.690213" id="Fill-73" fill="#3C3C3B"></path>
                <path d="M9.97101241,12.1313744 C9.97101241,12.1313744 9.87583412,12.1617028 9.70210929,12.2113185 C9.65850338,12.2236176 9.61000578,12.2371746 9.55703577,12.2521292 C9.50392601,12.2658259 9.44620408,12.2784046 9.38400975,12.2928001 C9.25948133,12.3203333 9.11692354,12.3551342 8.95955092,12.3788938 C8.88044532,12.3914725 8.7977059,12.4048897 8.71161218,12.4188659 C8.62523893,12.4318638 8.53593067,12.4396905 8.44298858,12.4501727 C8.25654535,12.472954 8.05920065,12.4812 7.8508147,12.4897255 C7.43585973,12.4981113 6.98247005,12.47533 6.52279106,12.4004173 C6.06409041,12.3220105 5.64550161,12.199299 5.28142019,12.0609341 C5.10154581,11.9876985 4.93117527,11.917957 4.78023173,11.8388514 C4.70434067,11.8002769 4.629987,11.7650568 4.56178288,11.7262028 C4.49413781,11.68665 4.429288,11.6486346 4.36723343,11.6122963 C4.24284477,11.5415765 4.13872168,11.4655456 4.04591935,11.4018139 C3.99993748,11.3695288 3.95689062,11.3400389 3.91859568,11.311108 C3.88127908,11.2810591 3.84703726,11.2536656 3.8162895,11.2289277 C3.69413704,11.129836 3.62942699,11.0729527 3.62942699,11.0729527 C3.62942699,11.0729527 3.71733762,11.0999268 3.87107642,11.1524776 C3.90937135,11.165755 3.95199893,11.1804301 3.99853985,11.1966425 C4.04563983,11.2113176 4.09707244,11.2272505 4.15213888,11.2443015 C4.26269105,11.2779843 4.38442422,11.3213107 4.52488557,11.3587671 C4.59392827,11.3788929 4.6661855,11.4001368 4.74151751,11.4222193 C4.81656999,11.444162 4.89707321,11.4626106 4.97827525,11.4849726 C5.1399805,11.531234 5.31761869,11.569529 5.50084738,11.6155108 C5.87149763,11.6988093 6.27918496,11.7816885 6.71202954,11.8557626 C7.14599222,11.9263427 7.56346292,11.9812694 7.94822919,12.023897 C8.14152078,12.040948 8.32488923,12.0628907 8.49931288,12.0725343 C8.58624518,12.0784044 8.66996294,12.0874889 8.75130474,12.0914023 C8.8327863,12.0954554 8.91119308,12.0993688 8.98582628,12.1032821 C9.13537219,12.1141836 9.27233948,12.1140438 9.39281479,12.1190753 C9.45319221,12.1211717 9.50937675,12.1231284 9.56108889,12.1249453 C9.61308055,12.1253646 9.66059981,12.1256441 9.70350691,12.1259236 C9.87499555,12.1277405 9.97101241,12.1313744 9.97101241,12.1313744" id="Fill-75" fill="#1D1D1B"></path>
                <path d="M9.48757379,12.2720873 C9.48757379,12.2720873 9.42384207,12.2906757 9.3076994,12.3205849 C9.24969795,12.3353997 9.17841906,12.3538484 9.09567963,12.3725766 C9.01294021,12.3890685 8.91874026,12.4069581 8.81419788,12.4254068 C8.39742599,12.4965459 7.81377763,12.5504943 7.19574768,12.4877409 C6.57757798,12.427084 6.0439646,12.2906757 5.67876509,12.157482 C5.3138451,12.0214931 5.11496301,11.8924922 5.14165765,11.8417584 C5.16974992,11.7882294 5.41559223,11.8216326 5.80021874,11.8846655 C6.18624287,11.9451827 6.71258859,12.0326741 7.30532151,12.0906755 C7.89665681,12.1509132 8.43739808,12.1971746 8.83628036,12.2261054 C8.93593105,12.2326743 9.02621765,12.2398021 9.10602206,12.2466505 C9.18596623,12.2514024 9.25486916,12.2553158 9.31133323,12.2585303 C9.42454089,12.2659377 9.48757379,12.2720873 9.48757379,12.2720873" id="Fill-77" fill="#3C3C3B"></path>
                <path d="M2.51897169,11.9383763 C2.51897169,11.9383763 2.4327382,11.8701722 2.27899941,11.7404725 C2.20268906,11.6750637 2.11869178,11.587153 2.01666513,11.487083 C1.96635061,11.4363492 1.91925064,11.3773695 1.86572158,11.3168523 C1.81331063,11.2553568 1.75586823,11.1914853 1.70471514,11.1182497 C1.48444938,10.834951 1.26250647,10.464161 1.08375018,10.0162221 C0.906671045,9.56870244 0.772359245,9.04235672 0.742030774,8.46429886 C0.70932634,7.88693981 0.775294258,7.31936414 0.903176981,6.81146708 C0.919529198,6.74801489 0.935462128,6.68540127 0.951255294,6.62362623 C0.969284662,6.56310905 0.987174267,6.50329068 1.00464458,6.44431089 C1.04140213,6.3290068 1.07704158,6.21691724 1.11156293,6.10846151 C1.1803261,5.89406578 1.24070351,5.69728012 1.28389014,5.51782502 C1.32749605,5.33836992 1.35321236,5.17666467 1.36299573,5.03494545 C1.36369455,4.96534371 1.36844647,4.89853721 1.36229692,4.83955742 C1.35978119,4.80992776 1.36048001,4.78015834 1.35572808,4.75374322 C1.35139544,4.72676905 1.34748209,4.70133227 1.3437085,4.67715335 C1.34189159,4.66485425 1.33993491,4.65297443 1.33825776,4.64137414 C1.33532275,4.6303329 1.3325275,4.61957119 1.32973225,4.60922876 C1.32414175,4.58812462 1.31897053,4.56855786 1.31407884,4.55024897 C1.30583285,4.51265285 1.29283494,4.48386176 1.28347085,4.45954308 C1.26460291,4.41090572 1.25467977,4.38518941 1.25467977,4.38518941 C1.25467977,4.38518941 1.27242961,4.40601403 1.30611238,4.44584635 C1.32288388,4.46611192 1.34524589,4.4904306 1.36439336,4.52383385 C1.37473579,4.54018607 1.38591679,4.55793591 1.39793637,4.57680385 C1.40380639,4.5863077 1.40981618,4.59637061 1.4161055,4.60657327 C1.42127671,4.61733499 1.42658769,4.62837623 1.43189866,4.63983676 C1.44266038,4.66303734 1.45412091,4.68749578 1.46614049,4.71321209 C1.47857935,4.7389284 1.485847,4.767999 1.49674848,4.79762866 C1.51925025,4.85674822 1.53196864,4.92439328 1.54887991,4.99748909 C1.57431669,5.14479881 1.58451936,5.31824412 1.57557455,5.51041761 C1.56690928,5.7025911 1.53965558,5.91307348 1.50331732,6.13459711 C1.46865621,6.3558412 1.41890075,6.58938441 1.39122777,6.824465 C1.32456103,7.29867929 1.29954354,7.81552116 1.32945272,8.34801643 C1.3888518,9.41370579 1.67312881,10.329989 1.96649037,10.9548673 C1.99947433,11.0352308 2.03902713,11.1070687 2.07410753,11.1768102 C2.11030603,11.2458529 2.14091402,11.3136377 2.17543537,11.3733163 C2.24587569,11.4915554 2.30164094,11.5981943 2.35447118,11.6805144 C2.46124976,11.8443161 2.51897169,11.9383763 2.51897169,11.9383763" id="Fill-79" fill="#1D1D1B"></path>
                <path d="M2.0983144,11.5728693 C2.0983144,11.5728693 2.08447791,11.5605702 2.05848208,11.5370901 C2.03332482,11.5127714 1.99209487,11.4799272 1.94848896,11.4304513 C1.9032059,11.3822332 1.84827922,11.3224148 1.78524631,11.2519745 C1.75254188,11.2173134 1.72137483,11.1779004 1.68922945,11.1352728 C1.65680454,11.0926452 1.62256272,11.0476417 1.58664375,11.0004019 C1.56875414,10.9763628 1.55058501,10.9520441 1.53185683,10.9270266 C1.51396723,10.9014501 1.49747525,10.8744759 1.47972541,10.8472222 C1.4450643,10.7921558 1.40900556,10.7348531 1.37168896,10.6755938 C1.33283498,10.6168935 1.30124864,10.5514847 1.26616825,10.485377 C1.23206619,10.4185705 1.19530864,10.3505061 1.16190539,10.2785284 C1.03276481,9.98880068 0.916063087,9.65504774 0.844364905,9.28747226 C0.705161416,8.55036463 0.734232025,7.84218785 0.835979153,7.33540888 C0.862953323,7.20836474 0.889088917,7.09403898 0.914385937,6.993969 C0.945273458,6.89375926 0.974204303,6.80808483 1.00061942,6.73848308 C1.05205204,6.59872054 1.09971106,6.52548497 1.12780333,6.52686296 C1.1570137,6.52869951 1.16358254,6.60654725 1.16288373,6.74449287 C1.16162587,6.8133958 1.1570137,6.89739309 1.14904724,6.993969 C1.14653151,7.09082444 1.14191935,7.20053803 1.13451193,7.32129287 C1.11201017,7.80417244 1.13213597,8.46189495 1.26295371,9.15791239 C1.3308783,9.50508253 1.41571416,9.82891234 1.50180789,10.1224137 C1.52444942,10.1953697 1.54960667,10.2649715 1.57168916,10.3340141 C1.59488974,10.4024978 1.61417697,10.4708417 1.64031256,10.5333155 C1.66435172,10.5970472 1.68769206,10.658403 1.70991431,10.7176623 C1.72123507,10.747292 1.73115821,10.7767819 1.74261874,10.8050139 C1.75463832,10.8326869 1.76637837,10.8598008 1.77797866,10.8864955 C1.80075996,10.9400245 1.82228339,10.9910378 1.84296824,11.0392559 C1.86281452,11.088033 1.88210175,11.1338752 1.9032059,11.1748256 C1.94317798,11.2589626 1.97741981,11.3313596 2.00551208,11.3906189 C2.03178743,11.4515554 2.0587616,11.4944625 2.07385596,11.5257693 C2.08978889,11.5566568 2.0983144,11.5728693 2.0983144,11.5728693" id="Fill-81" fill="#3C3C3B"></path>
                <path d="M11.2580856,13.2403342 C11.2580856,13.2403342 11.128945,13.3012707 10.891768,13.4070709 C10.8322292,13.433486 10.7661215,13.4628362 10.6937245,13.494702 C10.6207685,13.5250305 10.5408243,13.5541011 10.4548703,13.5870851 C10.2826829,13.6509565 10.086596,13.7304814 9.86563146,13.794912 C9.75507929,13.8288743 9.63921615,13.8645137 9.51874084,13.9015508 C9.39756672,13.9376095 9.27080209,13.965562 9.13942531,13.999105 C9.07359715,14.0151777 9.00679066,14.0313902 8.9387263,14.0478822 C8.90476401,14.0559884 8.87052218,14.0649332 8.83586107,14.0720611 C8.80119996,14.0787697 8.76639909,14.0853385 8.73117893,14.0920471 C8.59015853,14.1179032 8.44508502,14.1447376 8.29651744,14.1721311 C7.70126879,14.2640948 7.04354628,14.3191612 6.36583773,14.3004331 C5.68938704,14.2758349 5.06227253,14.1799578 4.51174789,14.0512365 C4.37617823,14.0147584 4.24368334,13.9792588 4.11510181,13.9447374 C4.08295642,13.9359324 4.05137009,13.9271273 4.01978376,13.918462 C3.98833719,13.909098 3.95828824,13.8980567 3.92782001,13.8879938 C3.86744259,13.867309 3.80790375,13.8470434 3.74948301,13.8270573 C3.63334034,13.7856876 3.51943387,13.7499084 3.41461197,13.7067218 C3.31048887,13.6625568 3.21055866,13.6199293 3.11510085,13.5793981 C2.92292735,13.5018299 2.76164139,13.4108445 2.61726668,13.3369101 C2.54584803,13.2988947 2.47848248,13.2652119 2.41880388,13.2306906 C2.36024337,13.1943523 2.30685408,13.1613684 2.25863601,13.131599 C2.06730109,13.0118225 1.96443587,12.9436183 1.96443587,12.9436183 C1.96443587,12.9436183 2.08896429,12.9812145 2.30895052,13.0526331 C2.36359768,13.0706625 2.42453414,13.0907883 2.49106111,13.1125913 C2.55842665,13.1331363 2.63347914,13.1520043 2.71244497,13.1745061 C2.87191403,13.2172734 3.04787506,13.2744363 3.2522079,13.3176229 C3.35269716,13.3418018 3.45793835,13.3668193 3.56779171,13.3932344 C3.67736554,13.4192303 3.79518536,13.4376789 3.91426304,13.4624169 C3.97394164,13.4742967 4.03459859,13.4863163 4.09637363,13.4986154 C4.12726115,13.5046252 4.15786915,13.5116133 4.18945548,13.5169243 C4.22132134,13.521816 4.25346672,13.5265679 4.28575187,13.5314596 C4.41447317,13.5517251 4.54682829,13.57241 4.68267748,13.5936539 C5.22928877,13.667169 5.8343208,13.7246114 6.47792729,13.7482313 C7.12279164,13.7658414 7.74333731,13.7473927 8.31259013,13.7095171 C8.45514792,13.6972179 8.59421164,13.6850586 8.72936202,13.6733186 C8.76318455,13.6705233 8.79700709,13.6678678 8.83027057,13.6650726 C8.86367382,13.6619978 8.89679754,13.6568266 8.92964174,13.6529132 C8.99560966,13.644807 9.06031971,13.6367008 9.12391167,13.6287343 C9.25151486,13.6119628 9.37534447,13.6010613 9.49400287,13.5823331 C9.61294079,13.5634652 9.72698702,13.5452961 9.8360018,13.5278258 C10.0551495,13.4981961 10.2517954,13.452913 10.4264985,13.4207676 C10.5135706,13.4035769 10.5953317,13.3896006 10.6699649,13.3736677 C10.7445981,13.3563371 10.8126624,13.3404042 10.8741579,13.3260086 C11.12014,13.2694048 11.2580856,13.2403342 11.2580856,13.2403342" id="Fill-83" fill="#1D1D1B"></path>
                <path d="M10.5987139,13.5355546 C10.5987139,13.5355546 10.5116419,13.5728712 10.352033,13.6368825 C10.2722286,13.6684688 10.1745346,13.7084409 10.0600691,13.7509287 C9.9451843,13.7895032 9.81380751,13.8326898 9.66789542,13.8792307 C9.59479961,13.9018722 9.51848927,13.9278681 9.43826557,13.9499505 C9.35790211,13.9704956 9.27418435,13.9920191 9.18767134,14.0142413 C9.10073904,14.035625 9.01101149,14.0577075 8.91848869,14.0806285 C8.89528811,14.0860793 8.871808,14.0918095 8.84832789,14.0975398 C8.82484779,14.1020122 8.80108815,14.1064846 8.77718876,14.110957 C8.72938997,14.1200416 8.68089237,14.1289864 8.63183572,14.1382107 C8.43546935,14.1731513 8.2286208,14.2146608 8.01492388,14.2346468 C7.90786577,14.2462471 7.79899075,14.2579872 7.68857835,14.269867 C7.6607656,14.2725225 7.63309262,14.2754575 7.60541964,14.278113 L7.5219814,14.2824456 C7.46621615,14.2849614 7.41031113,14.2874771 7.35370731,14.289853 C7.2410587,14.2941857 7.12966796,14.2983786 7.0198146,14.3024317 C6.91024077,14.3046679 6.80332243,14.3003352 6.69794147,14.2989376 C6.59270028,14.2964219 6.489276,14.2940459 6.38808793,14.2915302 C6.2874589,14.2859397 6.18990465,14.2768551 6.09430707,14.2693079 C5.99926854,14.2609222 5.90632646,14.2529557 5.81603986,14.2449893 C5.72589302,14.2374421 5.64049811,14.2212296 5.55719963,14.2099089 C5.47418069,14.196911 5.39409675,14.1844721 5.31708759,14.1724525 C5.24035796,14.1598739 5.16628381,14.1491122 5.09793993,14.1320611 C4.54350194,14.0152197 4.22945552,13.8813271 4.25055966,13.8300343 C4.27348072,13.7739895 4.62442445,13.809629 5.18682891,13.8526758 C5.75049123,13.89139 6.52840951,13.93262 7.40038799,13.89139 C8.27138813,13.8539337 9.06761532,13.7675604 9.65014558,13.6853801 C9.79563838,13.6637169 9.92771398,13.6451285 10.0442759,13.629475 C10.1604186,13.6090697 10.2606283,13.5915994 10.3425292,13.5773436 C10.5068899,13.5492513 10.5987139,13.5355546 10.5987139,13.5355546" id="Fill-85" fill="#3C3C3B"></path>
                <path d="M10.9284697,12.4174543 C10.9284697,12.4174543 10.8131656,12.4728003 10.6007265,12.5689569 C10.5473372,12.5928563 10.4882177,12.6194112 10.4233678,12.6484818 C10.3580987,12.676015 10.2864006,12.7024301 10.2093914,12.7323393 C10.0552333,12.790201 9.87941204,12.8621787 9.68122876,12.9205995 C9.58213713,12.9513472 9.47829356,12.9836324 9.37025712,13.0171754 C9.26152186,13.0498798 9.14789492,13.0753166 9.0300751,13.1055053 C8.97095554,13.1199008 8.91099741,13.1347157 8.85006095,13.1496703 C8.81945295,13.1567981 8.78870519,13.1650441 8.75767791,13.1714732 C8.72651086,13.1773432 8.69520406,13.183353 8.66375748,13.1893628 C8.53727239,13.2128429 8.40715346,13.2368821 8.27368024,13.26162 C7.73950782,13.3444992 7.14901109,13.3931366 6.54118381,13.3745482 C5.93461439,13.350509 5.37276899,13.261061 4.88038557,13.1421231 C4.75893192,13.1083005 4.64055305,13.0754563 4.52552848,13.0435905 C4.49687716,13.0354843 4.46850536,13.0272383 4.44027333,13.0192718 C4.41246059,13.0107463 4.38548642,13.0005436 4.35823272,12.9913193 C4.30428438,12.9723116 4.25117462,12.9535834 4.19904319,12.9352745 C4.09519962,12.8972591 3.99359226,12.8641354 3.89995136,12.8244428 C3.80728879,12.7837719 3.71812029,12.7447782 3.63314467,12.7073218 C3.4617958,12.6359032 3.31811991,12.5527444 3.1898179,12.4848199 C3.12622594,12.450019 3.06640758,12.4189917 3.01329781,12.3872656 C2.96144591,12.3541419 2.91392665,12.3238134 2.87129907,12.2965597 C2.70148759,12.1869859 2.61036241,12.1242325 2.61036241,12.1242325 C2.61036241,12.1242325 2.72301102,12.1560984 2.92147382,12.2175939 C2.97081,12.2332473 3.02573668,12.2504381 3.08583457,12.269306 C3.14635175,12.2869161 3.21399682,12.3031286 3.28513595,12.3224158 C3.42867208,12.3591733 3.58688327,12.408789 3.77025172,12.4458261 C3.86067808,12.4666507 3.9550178,12.4883139 4.05369015,12.5109555 C4.15194321,12.5334572 4.25760369,12.5493901 4.36424251,12.5707738 C4.4176318,12.5809765 4.47213919,12.5914587 4.52734539,12.6020806 C4.55487861,12.6072518 4.5825516,12.6134014 4.61078363,12.6180136 C4.63929519,12.6222064 4.66808627,12.6262595 4.69701711,12.6304524 C4.81204168,12.6480625 4.93070008,12.6660919 5.05215372,12.6846803 C5.54104308,12.748412 6.0812253,12.7992856 6.65550957,12.8222066 C7.23077218,12.8398167 7.78409207,12.8276574 8.29212889,12.7988663 C8.41945257,12.7890829 8.54370146,12.779579 8.66431653,12.7703547 C8.69464501,12.7682583 8.72455419,12.7661618 8.75432361,12.7639256 C8.78423279,12.7615497 8.81372269,12.7573568 8.84321258,12.7541423 C8.90205261,12.7475734 8.9599143,12.7410046 9.01679766,12.7347153 C9.13070413,12.7211583 9.24139606,12.7129123 9.34747582,12.6976782 C9.45383511,12.6821646 9.55600153,12.6673497 9.65341602,12.6532337 C9.8493631,12.6296138 10.0257434,12.5917382 10.1821377,12.5656026 C10.260265,12.5514866 10.3335005,12.5403056 10.4005866,12.5271679 C10.467393,12.5127724 10.528609,12.4996347 10.5835357,12.4877549 C10.8043605,12.4409344 10.9284697,12.4174543 10.9284697,12.4174543" id="Fill-87" fill="#1D1D1B"></path>
                <path d="M10.3383084,12.6857844 C10.3383084,12.6857844 10.2603209,12.7198865 10.1174836,12.778447 C10.0459251,12.8072381 9.95829402,12.8437161 9.85570832,12.8822905 C9.75284309,12.9175107 9.63502327,12.956784 9.50406577,12.999132 C9.4386569,13.0198169 9.3700335,13.0434367 9.29819555,13.0634228 C9.22593832,13.082151 9.1510256,13.101578 9.07331763,13.1217038 C8.99533013,13.1411308 8.91454738,13.1611168 8.8316682,13.1818017 C8.81070382,13.1868331 8.7898792,13.1918646 8.76877506,13.1970358 C8.74753115,13.2012287 8.72628724,13.205142 8.70476381,13.2093349 C8.66199648,13.2174411 8.61839056,13.2254076 8.57450513,13.2337933 C8.39826457,13.2652399 8.21252015,13.3024167 8.02076595,13.3203063 C7.92460932,13.3303692 7.82691531,13.3408514 7.72782367,13.3513336 L7.65319047,13.3584615 L7.57841751,13.3620953 C7.52852229,13.3641918 7.47806801,13.3661484 7.42747397,13.3683846 C6.6162922,13.4036048 5.9018261,13.3196075 5.40622814,13.213947 C4.91063018,13.1043732 4.63138463,12.9788665 4.65276829,12.9274338 C4.67568935,12.8716686 4.99183221,12.8987825 5.49595569,12.9348413 C6.00119727,12.9669866 6.6965159,13.0034647 7.47597157,12.9696421 C8.25416939,12.9391739 8.96584024,12.87083 9.48757379,12.8051416 C9.61797224,12.7876713 9.73621135,12.7729962 9.84075373,12.7606971 C9.94501658,12.7443449 10.0347441,12.7302289 10.1082592,12.7187684 C10.2557087,12.6964064 10.3383084,12.6857844 10.3383084,12.6857844" id="Fill-89" fill="#3C3C3B"></path>
                <path d="M2.78825217,11.4766428 C2.78825217,11.4766428 2.72577832,11.3980962 2.61676354,11.251066 C2.56001995,11.1786691 2.50243778,11.083351 2.4318577,10.9734976 C2.35918118,10.8649022 2.29167587,10.7329663 2.21340885,10.587753 C2.06679795,10.2929938 1.90956509,9.92849314 1.7953791,9.49802453 C1.68091358,9.06853424 1.60264656,8.57601106 1.59370176,8.0453327 C1.58433767,7.51493387 1.64569342,6.99948962 1.74702126,6.53491894 C1.77273757,6.41877628 1.7964972,6.30556862 1.8293414,6.19599479 C1.86078797,6.08656072 1.88860071,5.98034119 1.92214372,5.87817478 C1.95722412,5.77670717 1.99118642,5.67859387 2.02375109,5.58411439 C2.05631576,5.48935539 2.09307331,5.40214357 2.12284273,5.32094153 C2.18405872,5.15923628 2.22263318,5.01821588 2.22654653,4.89620318 C2.23087917,4.77684597 2.19887355,4.67481932 2.15498811,4.60368019 C2.11096291,4.53184224 2.05519766,4.48907491 2.01257008,4.46685266 C1.99104665,4.45595118 1.9737161,4.44826424 1.96127723,4.44463042 C1.94911789,4.44015802 1.94282858,4.43806158 1.94282858,4.43806158 C1.94282858,4.43806158 1.9498167,4.43820134 1.9636532,4.43848087 C1.97762945,4.4383411 1.99775525,4.44015802 2.02431014,4.44435089 C2.07672109,4.45315593 2.15373025,4.47873248 2.22948154,4.54288348 C2.30481355,4.60647544 2.37762983,4.70766352 2.41187166,4.85175869 C2.44583395,4.99333814 2.43758796,5.16678345 2.40809807,5.34512045 C2.3945411,5.43470824 2.37483458,5.5251346 2.36127762,5.61667907 C2.34618326,5.70850305 2.33052986,5.80410063 2.31417764,5.90305251 C2.29852424,6.00172486 2.28818181,6.10389128 2.27322722,6.20857342 C2.25701476,6.31325556 2.2490483,6.42073295 2.2378673,6.53086583 C2.1949602,6.97125759 2.173297,7.45106239 2.18210204,7.94959536 C2.1904878,8.44812834 2.22808392,8.91842928 2.28398893,9.34330739 C2.33919514,9.76846504 2.41983812,10.1448456 2.49307369,10.4616872 C2.53472293,10.617802 2.5661695,10.7632948 2.60558253,10.8857268 C2.64289913,11.0092769 2.67015283,11.1191302 2.70118011,11.2046649 C2.75876228,11.3779704 2.78825217,11.4766428 2.78825217,11.4766428" id="Fill-91" fill="#1D1D1B"></path>
                <path d="M2.48716174,11.0667752 C2.48716174,11.0667752 2.44746917,11.0126871 2.37898553,10.912058 C2.34320632,10.8624423 2.30826569,10.7971732 2.26396096,10.7226798 C2.22217196,10.647208 2.16920196,10.5632107 2.12405866,10.4638396 C1.92769229,10.0747407 1.71776896,9.49486589 1.64173814,8.80737396 C1.56123492,8.12155919 1.61546278,7.47529721 1.69987936,7.01254344 C1.72294017,6.89654054 1.74446361,6.79199816 1.76752442,6.70017417 C1.79352026,6.60835018 1.81811846,6.52952411 1.84103952,6.46537311 C1.86396058,6.40108234 1.88506472,6.3516064 1.90421219,6.31806339 C1.92475728,6.28466014 1.94264689,6.26732959 1.95690266,6.26760579 C1.97143797,6.26788864 1.9817804,6.28577824 1.98862876,6.31932125 C1.99673499,6.35286426 2.0019062,6.40220044 2.00442193,6.46523334 C2.00665813,6.52826625 2.0063786,6.60513564 2.0030243,6.69416438 C2.00274478,6.78305336 2.00260501,6.88396191 1.99911095,6.99521289 C1.99254211,7.43965776 1.98751066,8.04958148 2.06465958,8.70534731 C2.13719634,9.3612529 2.23516988,9.950352 2.32727339,10.3760687 C2.34600157,10.4841051 2.37325527,10.5778858 2.39114487,10.663141 C2.41127068,10.7475575 2.42412883,10.8227498 2.44117986,10.8811705 C2.47206738,10.9996891 2.48716174,11.0667752 2.48716174,11.0667752" id="Fill-93" fill="#3C3C3B"></path>
                <path d="M5.85511746,8.78772335 C5.85511746,8.78772335 5.80284627,8.71798184 5.71269943,8.58716411 C5.69033743,8.55431991 5.6654597,8.51770213 5.638206,8.47773004 C5.61234993,8.43691938 5.58663362,8.39135679 5.55812207,8.34257967 C5.50263634,8.2443266 5.43485151,8.13363467 5.37657053,8.00323622 C5.34624206,7.93824664 5.31465572,7.87018229 5.28167177,7.79932268 C5.24952638,7.72776426 5.22269197,7.65047558 5.19208398,7.57150974 C5.12863179,7.41413712 5.07915585,7.23859537 5.02660513,7.05313049 C4.93226542,6.67940546 4.8640613,6.253549 4.85190196,5.79498811 C4.84379573,5.33572841 4.89257286,4.8903052 4.96972178,4.48792885 C5.01360722,4.28653103 5.05483717,4.09589493 5.11102171,3.91839651 C5.13785611,3.8296473 5.16105669,3.74411262 5.18984778,3.6624913 C5.21947744,3.5811495 5.24784923,3.50288248 5.27510293,3.42824928 C5.32723435,3.27940218 5.38942868,3.14704706 5.44016248,3.03118391 C5.46643784,2.9730427 5.48977819,2.91937388 5.51381734,2.87017747 C5.5389746,2.8215401 5.56203542,2.77681609 5.58286004,2.73670424 C5.66643803,2.57695566 5.71521516,2.49030289 5.71521516,2.49030289 C5.71521516,2.49030289 5.70081962,2.58422331 5.67007186,2.75109979 C5.6621054,2.7924695 5.65344012,2.83887066 5.6437965,2.88932494 C5.63513123,2.93977921 5.62800334,2.99498542 5.61877901,3.05382544 C5.60172798,3.1715055 5.57587191,3.30427991 5.56077756,3.4513101 C5.55113394,3.52454567 5.5412108,3.60127531 5.53086837,3.68093995 C5.52038618,3.76046484 5.51535473,3.84348379 5.50627017,3.92873894 C5.48544555,4.09952876 5.47761884,4.2810803 5.46238473,4.47129711 C5.44281797,4.85145122 5.43275507,5.26514833 5.44016248,5.69673505 C5.45176278,6.12762295 5.48013457,6.53475123 5.51647283,6.90554124 C5.53995294,7.08932898 5.55588587,7.26682741 5.58397814,7.429511 C5.59683629,7.51113232 5.60550157,7.59163555 5.61933806,7.66724708 C5.63317455,7.74299838 5.64645199,7.81581466 5.65917038,7.88527664 C5.68069381,8.02629704 5.71228015,8.14942784 5.73436263,8.26067882 C5.74610268,8.31588502 5.75560653,8.36815621 5.76650801,8.41553571 C5.77824807,8.46249592 5.78887002,8.50526326 5.7986534,8.54397748 C5.83652904,8.69925366 5.85511746,8.78772335 5.85511746,8.78772335" id="Fill-95" fill="#1D1D1B"></path>
                <path d="M5.6024827,8.42534704 C5.6024827,8.42534704 5.56935898,8.37740849 5.51303467,8.28823999 C5.48508216,8.24323645 5.45042105,8.1885893 5.41296469,8.12345996 C5.37830358,8.05693299 5.3394496,7.98076241 5.2976606,7.89550726 C5.13455772,7.55448666 4.95524238,7.05092224 4.89542401,6.45427596 C4.83295016,5.85902731 4.8723632,5.30137478 4.94196494,4.90039606 C5.01478122,4.49815947 5.11303429,4.25245693 5.16935859,4.25231692 C5.22889743,4.25203764 5.23658437,4.49410636 5.24161582,4.877475 C5.24972205,5.26084364 5.25880661,5.78579174 5.31862498,6.35476503 C5.3756481,6.92359856 5.44413174,7.43750542 5.50269224,7.81304736 C5.51806612,7.90668826 5.53092428,7.99208317 5.54140647,8.06769471 C5.55496343,8.1423279 5.56656372,8.20675843 5.57606758,8.25944891 C5.59423671,8.36524915 5.6024827,8.42534704 5.6024827,8.42534704" id="Fill-97" fill="#3C3C3B"></path>
                <path d="M4.3649553,10.2163201 C4.3649553,10.2163201 4.319812,10.1205828 4.24308237,9.94434222 C4.22407466,9.90003749 4.20311028,9.85098084 4.18004946,9.79717226 C4.15796698,9.74280464 4.1358845,9.68326579 4.11170558,9.61911479 C4.06418632,9.49067302 4.00730296,9.34490069 3.95712821,9.17900255 C3.9314119,9.09612337 3.9045775,9.00933083 3.87648523,8.91890447 C3.84923153,8.82805882 3.82575143,8.73204196 3.79961583,8.63295032 C3.74566749,8.43518632 3.70220134,8.2192532 3.65691828,7.99158003 C3.57403909,7.534277 3.51184476,7.02162801 3.49479373,6.47431791 C3.48067772,5.92644876 3.5128231,5.39744755 3.56900764,4.91624513 C3.60073374,4.67515475 3.63162126,4.44650324 3.67382955,4.23224726 C3.69395535,4.1250494 3.71170519,4.02190464 3.73350815,3.92253348 C3.75628944,3.82330208 3.77795264,3.72812379 3.79863749,3.63727814 C3.8388891,3.4557266 3.88682765,3.2919249 3.92652022,3.14852854 C3.94706531,3.0766906 3.9653742,3.0098841 3.98410238,2.94866811 C4.00394866,2.88745212 4.02197803,2.8315471 4.03833025,2.78123259 C4.1041584,2.58025406 4.14343168,2.46998142 4.14343168,2.46998142 C4.14343168,2.46998142 4.14021714,2.58193121 4.12875661,2.78290974 C4.12568183,2.83322425 4.12246729,2.88884974 4.11855394,2.95006574 C4.11617798,3.01086244 4.11338273,3.07710988 4.11044772,3.14824902 C4.10513674,3.29024775 4.09381597,3.45167349 4.09046167,3.62931167 C4.08724713,3.71820065 4.08389283,3.81114274 4.08039877,3.90785841 C4.07662518,4.00471385 4.07690471,4.10492359 4.07410946,4.20904668 C4.06670204,4.41687358 4.06851895,4.63769839 4.0646056,4.87012349 C4.06446584,5.33413512 4.06935753,5.8416129 4.0829145,6.37271054 C4.099686,6.9033889 4.12358539,7.40737262 4.15028004,7.86691184 C4.16733107,8.09570312 4.17823255,8.31499054 4.19738002,8.51834503 C4.20604529,8.62023193 4.21149603,8.71960309 4.22072036,8.81422233 C4.22966516,8.90898133 4.23833044,8.99982698 4.24643667,9.08661952 C4.25985387,9.26146245 4.2802592,9.41729768 4.2936764,9.55608188 C4.30066453,9.6254041 4.30709361,9.69011416 4.3131034,9.749653 C4.32023129,9.80877255 4.32680013,9.86286066 4.33267015,9.91149802 C4.35531168,10.1067463 4.3649553,10.2163201 4.3649553,10.2163201" id="Fill-99" fill="#1D1D1B"></path>
                <path d="M4.14875663,9.72702544 C4.14875663,9.72702544 4.11982578,9.6630142 4.07118842,9.54505462 C4.0470095,9.48607483 4.0175196,9.41395736 3.98523446,9.32898173 C3.95504575,9.24358682 3.9216425,9.14575305 3.88600306,9.03687803 C3.74568147,8.60137796 3.59208244,7.97971419 3.5381341,7.26385046 C3.48222908,6.54882532 3.50724658,5.88718946 3.56105515,5.40752443 C3.61696017,4.92688106 3.69858149,4.62820851 3.75574437,4.62387587 C3.81556274,4.61926371 3.84016094,4.90815288 3.86140485,5.37202474 C3.88474519,5.83561708 3.90738672,6.47419212 3.96203388,7.1734241 C4.01402554,7.87433323 4.06112552,8.50997326 4.09522758,8.97188845 C4.10459167,9.08761183 4.11171956,9.19285302 4.11717029,9.28579511 C4.12471747,9.37817815 4.13100679,9.45770303 4.136178,9.52297214 C4.14582161,9.65378987 4.14875663,9.72702544 4.14875663,9.72702544" id="Fill-101" fill="#3C3C3B"></path>
                <path d="M11.6282327,10.308186 C11.6282327,10.308186 11.6090853,10.3304083 11.5728868,10.3727563 C11.5544381,10.3938605 11.5315171,10.4201358 11.5044031,10.4510233 C11.4908462,10.4666768 11.4760313,10.4833085 11.4602382,10.5011981 C11.4440257,10.5185287 11.4255771,10.5358592 11.4064296,10.5550067 C11.3675756,10.5928823 11.3242492,10.6349508 11.2770095,10.6810725 C11.2279528,10.7253772 11.1720478,10.7710796 11.112509,10.8215338 C11.0538087,10.873805 10.9843467,10.9195074 10.9129281,10.9731762 C10.8417889,11.0276836 10.7610062,11.0752028 10.6772884,11.1291512 C10.656324,11.1424286 10.6349404,11.1557061 10.6132772,11.169263 C10.5911947,11.1815621 10.5686929,11.194001 10.5461912,11.2065796 C10.5004888,11.2315971 10.4539479,11.2573134 10.4062889,11.283449 C10.3586298,11.3098641 10.3083153,11.3315273 10.2574418,11.3564051 C10.2065682,11.3797454 10.1549958,11.4067196 10.1010475,11.4283828 C9.99357009,11.4717092 9.88203958,11.5202068 9.76491857,11.5578029 C9.70635807,11.5770901 9.64709875,11.5997317 9.58644181,11.6166429 C9.52550534,11.6338337 9.46400983,11.651304 9.40153597,11.6690539 C9.15122127,11.7326458 8.88539292,11.7867339 8.61103905,11.813149 C8.33682495,11.8404027 8.05394558,11.8480897 7.76966857,11.8310387 C7.2054472,11.7927437 6.69699109,11.673666 6.26163078,11.5281732 C5.82515237,11.3825407 5.45729737,11.2151051 5.15708744,11.0643014 C4.85701727,10.9133578 4.62319454,10.7797448 4.46260738,10.6854051 C4.30243952,10.5910654 4.21564698,10.535999 4.21564698,10.535999 C4.21564698,10.535999 4.32144722,10.5590598 4.5095676,10.6051814 C4.6968494,10.6524212 4.96742967,10.720765 5.30090309,10.8050419 C5.63297888,10.8895982 6.02655019,10.9881308 6.46484551,11.0779981 C6.90286131,11.1680052 7.38671922,11.2447348 7.9009056,11.2796754 C8.15653128,11.2949096 8.40908219,11.2961674 8.65478473,11.2859648 C8.90048727,11.2768802 9.13906193,11.2482289 9.36701463,11.2149654 C9.42403774,11.2053218 9.48036204,11.1958179 9.53570801,11.1863141 C9.59161303,11.177509 9.64570113,11.163393 9.69978923,11.1527711 C9.80838472,11.1323657 9.91194876,11.1023168 10.0135561,11.0772993 C10.0645695,11.0650002 10.1130671,11.0473901 10.1618442,11.0332741 C10.210202,11.01804 10.2588394,11.0056011 10.3048213,10.9886898 C10.3512224,10.9721979 10.3966452,10.9559854 10.4412295,10.9400525 C10.4635915,10.9322258 10.485674,10.9243991 10.5076167,10.9167121 C10.5291401,10.9077673 10.550384,10.899102 10.5713484,10.8904368 C10.6547867,10.8547973 10.7373863,10.8250279 10.8109014,10.7874318 C10.8851153,10.750814 10.9587702,10.7210446 11.0222224,10.6838677 C11.0866529,10.6485078 11.1482882,10.616642 11.2039137,10.5850556 C11.2584211,10.5515126 11.3083163,10.5209046 11.3531801,10.4933714 C11.3755421,10.4793951 11.3976245,10.4668165 11.4171913,10.4538186 C11.4364785,10.4404014 11.4545079,10.4278228 11.4711396,10.4162225 C11.5049622,10.3927424 11.5336135,10.3730359 11.5566743,10.3571029 C11.6036345,10.3250973 11.6282327,10.308186 11.6282327,10.308186" id="Fill-103" fill="#1D1D1B"></path>
                <path d="M11.2134595,10.7401641 C11.2134595,10.7401641 11.1986446,10.7537211 11.1704126,10.7792976 C11.1417613,10.8043151 11.1009506,10.8442872 11.0439275,10.8895702 C10.9862056,10.933875 10.9160448,10.990339 10.8307896,11.0507164 C10.7871837,11.0795075 10.740503,11.1102553 10.6911668,11.1430995 C10.6661494,11.1590324 10.6407126,11.1766425 10.6138782,11.1924357 C10.5866245,11.2080891 10.558672,11.2238822 10.5301604,11.2402344 C10.4725782,11.2719605 10.4128996,11.3088579 10.3483293,11.3397454 C10.2834795,11.3710522 10.2158345,11.4036169 10.1460929,11.4372996 C10.0750936,11.4676281 10.0011592,11.497677 9.92456932,11.5287043 C9.84797945,11.5595919 9.76803528,11.5841901 9.68599467,11.6127016 C9.35769246,11.7187814 8.98774102,11.7964894 8.60423262,11.8254202 C8.22142303,11.8551896 7.85873924,11.8385579 7.54483258,11.7964894 C7.22966805,11.7551196 6.9571311,11.6909686 6.73518819,11.6255598 C6.68012175,11.6082292 6.6277108,11.591877 6.57823486,11.5760838 C6.52931797,11.5593123 6.48389515,11.5422613 6.4415471,11.5261886 C6.35657147,11.4944625 6.28599139,11.4624569 6.22966709,11.4339453 C6.11631967,11.3777608 6.06223157,11.3312199 6.07453067,11.3050843 C6.08738882,11.2783896 6.16579561,11.274616 6.2982905,11.2843994 C6.36439818,11.2895706 6.44336401,11.299354 6.53504824,11.3098362 C6.62617341,11.3215762 6.72959769,11.3349935 6.84364392,11.3495288 C7.29940956,11.4059928 7.92750241,11.4837008 8.63763587,11.427656 C9.34609217,11.3751053 9.99640727,11.2332463 10.4622358,11.0635746 C10.4915859,11.0536515 10.5202373,11.0438681 10.54805,11.0342245 C10.5760025,11.0245809 10.6024176,11.0129806 10.6285532,11.0029177 C10.6811039,10.982093 10.7307196,10.962666 10.776981,10.9443572 C10.8689448,10.9056429 10.9474913,10.8680468 11.0131797,10.8395353 C11.0783091,10.8099056 11.1269464,10.7825121 11.161328,10.7661599 C11.1954301,10.7491089 11.2134595,10.7401641 11.2134595,10.7401641" id="Fill-105" fill="#3C3C3B"></path>
                <path d="M12.5420142,9.17110597 C12.5420142,9.17110597 12.4529855,9.20255254 12.2903019,9.25426468 C12.1276183,9.30318157 11.8910003,9.37222426 11.5961013,9.43553669 C11.0081203,9.56425799 10.1793285,9.67718612 9.29533042,9.61778704 C9.07422608,9.60492889 8.86178703,9.57907282 8.65843253,9.54916364 C8.55682517,9.53337047 8.4585721,9.51590015 8.36129737,9.49759126 C8.26318407,9.47802451 8.16786602,9.45622155 8.07590227,9.43162334 C7.89197477,9.3821474 7.72118495,9.32260856 7.56954259,9.25118991 C7.41776048,9.18005077 7.28512583,9.09828969 7.17513271,9.01177668 C7.06402149,8.92638177 6.98142183,8.82966609 6.91657201,8.74301332 C6.88806046,8.69563381 6.85857056,8.65510268 6.83942309,8.61233534 C6.82083467,8.56928848 6.80028958,8.53322974 6.79008692,8.49591315 C6.7793252,8.45957489 6.76968159,8.4274295 6.7614356,8.399477 C6.75584509,8.37054615 6.75249079,8.34594794 6.74941602,8.32624143 C6.74382552,8.28710791 6.7408905,8.26642306 6.7408905,8.26642306 C6.7408905,8.26642306 6.75207151,8.28333433 6.77345517,8.31547971 C6.7837976,8.33113311 6.79665576,8.35056011 6.81175011,8.37348116 C6.82936019,8.39444554 6.84962576,8.41862446 6.87254681,8.44587816 C6.89379072,8.47341138 6.92565658,8.49828911 6.95500671,8.52791877 C6.98491589,8.55740866 7.02488798,8.58326473 7.06220458,8.61387273 C7.14592234,8.66796083 7.24096087,8.72568276 7.35919997,8.7718044 C7.59288294,8.86698269 7.89546883,8.93476752 8.24767043,8.97432032 C8.33572083,8.98452298 8.42670624,8.99332802 8.52006762,9.00115472 C8.61538567,9.00856214 8.71293992,9.01624908 8.81203156,9.02393602 C9.01077389,9.03791227 9.21580554,9.05412473 9.42698673,9.06656359 C10.2686367,9.12316742 11.0408248,9.15098017 11.6107764,9.16090331 C11.8951932,9.16705286 12.1281773,9.16677333 12.2898826,9.16886977 C12.4517276,9.16845048 12.5420142,9.17110597 12.5420142,9.17110597" id="Fill-107" fill="#1D1D1B"></path>
                <path d="M12.0898404,9.31592791 C12.0898404,9.31592791 12.0301618,9.33731158 11.9219856,9.36861839 C11.8135299,9.40118306 11.6562971,9.44367087 11.4611886,9.48699726 C11.0715306,9.57239217 10.5264567,9.65429302 9.93805641,9.64436988 C9.64441531,9.63919867 9.36754572,9.6189331 9.11918769,9.58972273 C8.87110919,9.55911473 8.65112295,9.5208198 8.47054975,9.4779127 C8.28899821,9.4361237 8.1428066,9.3887442 8.04944522,9.34304185 C7.95496575,9.29929617 7.91094055,9.25764693 7.92226131,9.23179087 C7.94644023,9.17742324 8.18277868,9.18916329 8.55706276,9.19824786 C8.74406504,9.20537575 8.96586819,9.21390126 9.21212978,9.22326535 C9.45825161,9.2316511 9.72827284,9.24031638 10.0125498,9.24534783 C10.5805448,9.25485168 11.0957095,9.27385939 11.4739069,9.28839469 C11.6630057,9.29608163 11.8168842,9.30237095 11.9236628,9.30698311 C12.0303016,9.31271338 12.0898404,9.31592791 12.0898404,9.31592791" id="Fill-109" fill="#3C3C3B"></path>
                <path d="M9.31287062,6.15160621 C9.31287062,6.15160621 9.28491811,6.0841009 9.23949529,5.95845438 C9.22831428,5.92700781 9.21587542,5.89206717 9.20231845,5.85363247 C9.18960006,5.81505801 9.17799977,5.77243044 9.16472233,5.72658833 C9.13942531,5.6349041 9.10797874,5.53036172 9.08561673,5.41128404 C9.07387668,5.3517452 9.06157757,5.28941111 9.04871942,5.22456129 C9.03669984,5.15915242 9.0290129,5.09024949 9.01922952,5.01897059 C8.99826514,4.87669233 8.9894601,4.7219752 8.98093459,4.5581735 C8.97115121,4.23001106 8.98932034,3.86299464 9.05444968,3.47669098 C9.12237428,3.09038732 9.23055048,2.72379019 9.35326199,2.3961868 C9.41797205,2.23266462 9.48016638,2.07808726 9.55004765,1.93608852 C9.58428947,1.86494939 9.6158758,1.79618622 9.65039715,1.73105687 C9.68547755,1.66634682 9.71930008,1.60429225 9.75158523,1.54475341 C9.81475789,1.42609501 9.88212344,1.32197192 9.93900679,1.23056722 C9.96793764,1.18500464 9.99435276,1.14251682 10.0202088,1.10394236 C10.0469035,1.06578719 10.0713619,1.03084656 10.0934444,0.999539747 C10.1819141,0.874592038 10.2333467,0.807366257 10.2333467,0.807366257 C10.2333467,0.807366257 10.2144788,0.885493516 10.1764633,1.02385843 C10.16668,1.05824001 10.156058,1.09639519 10.1441782,1.13832395 C10.1335562,1.18039247 10.121956,1.22595506 10.1093773,1.27473219 C10.0849189,1.37256596 10.0526337,1.48227956 10.0251005,1.60457178 C10.0100062,1.66522872 9.99421299,1.72882067 9.97772101,1.79506812 C9.96108927,1.86103603 9.94739254,1.93021849 9.93048128,2.0010781 C9.89526112,2.14251779 9.86619051,2.2942999 9.8304113,2.4525111 C9.76570124,2.76977206 9.69903451,3.11568434 9.63516303,3.47892718 C9.57394704,3.84217002 9.52139633,4.1880823 9.47681208,4.50548303 C9.45822366,4.66369422 9.43502308,4.81533658 9.42146611,4.95705579 C9.4140587,5.02805516 9.40371627,5.09709785 9.39756672,5.16320553 C9.39141716,5.22931321 9.38526761,5.29290517 9.37953735,5.35370187 C9.36486228,5.47613386 9.35941154,5.58584745 9.35018722,5.68368123 C9.34571481,5.73273788 9.3416617,5.77830047 9.33802788,5.82036899 C9.33537239,5.86229775 9.33299642,5.90045292 9.33076022,5.93497427 C9.32125637,6.07333918 9.31287062,6.15160621 9.31287062,6.15160621" id="Fill-111" fill="#1D1D1B"></path>
                <path d="M9.18349244,5.8037093 C9.18349244,5.8037093 9.16574259,5.75800695 9.13765032,5.67345061 C9.12381383,5.63138209 9.10662304,5.57953018 9.08915272,5.51845395 C9.07349932,5.45723796 9.05672781,5.38679764 9.03939726,5.30839086 C8.972451,4.99546253 8.92087863,4.54514764 8.97734269,4.03613247 C9.03212961,3.52753659 9.15372302,3.06590093 9.27461761,2.73899635 C9.39788817,2.41153272 9.51738514,2.21824113 9.57217206,2.22606783 C9.62905541,2.23431382 9.61200438,2.43976475 9.56644179,2.76261622 C9.52269612,3.08602673 9.45239556,3.52739683 9.40012437,4.0136307 C9.34617603,4.49944529 9.29124935,4.94249253 9.25169656,5.26925735 C9.24233247,5.35073891 9.23268885,5.42495282 9.22332476,5.49064121 C9.21563782,5.55605008 9.20920874,5.61251414 9.20389777,5.65863578 C9.19215771,5.75143811 9.18349244,5.8037093 9.18349244,5.8037093" id="Fill-113" fill="#3C3C3B"></path>
                <path d="M7.73864129,7.27886096 C7.73864129,7.27886096 7.73011577,7.20646397 7.7203324,7.07648481 C7.71572023,7.01135546 7.71012973,6.93197034 7.70356089,6.83986683 C7.69797039,6.74790308 7.69154131,6.6433607 7.68455319,6.5280566 C7.67239385,6.29744842 7.65827783,6.02407289 7.6490535,5.72162676 C7.63843155,5.41918062 7.63186271,5.08752412 7.6334001,4.7383973 C7.63381938,4.38941024 7.64220514,4.0556573 7.65450424,3.74985686 C7.66540572,3.44433595 7.68119889,3.16690731 7.69461609,2.93238577 C7.70216327,2.815125 7.70901163,2.70848619 7.71516118,2.61484529 C7.72228907,2.5207851 7.72843862,2.43958306 7.73333031,2.37319586 C7.7438125,2.24000216 7.75275731,2.1652292 7.75275731,2.1652292 C7.75275731,2.1652292 7.78029053,2.23007902 7.82459525,2.34943623 C7.84709702,2.40911483 7.87323261,2.48262993 7.90020678,2.56900317 C7.92760024,2.65537642 7.95890705,2.75376925 7.98741861,2.86432142 C8.04765626,3.0848667 8.10579748,3.35195292 8.15038173,3.65397976 C8.19356835,3.95642589 8.22221967,4.29381266 8.22180493,4.65272286 C8.220263,5.01177282 8.18979476,5.35782487 8.14479123,5.67298939 C8.09852983,5.98829368 8.03885122,6.27257068 7.97749547,6.51072605 C7.9482851,6.62966397 7.91627948,6.73742089 7.88846673,6.83190036 C7.86107327,6.92624008 7.83451839,7.00730235 7.81159733,7.07341003 C7.7665938,7.20604468 7.73864129,7.27886096 7.73864129,7.27886096" id="Fill-115" fill="#1D1D1B"></path>
                <path d="M7.70574119,6.91688996 C7.70574119,6.91688996 7.69805425,6.86978999 7.68841063,6.7846746 C7.67932607,6.69955922 7.66632815,6.57670794 7.65444834,6.42534511 C7.63096823,6.12233993 7.61014361,5.70710543 7.62411986,5.24546976 C7.65430857,4.32275748 7.69232398,3.56678191 7.81028357,3.54176442 C7.86842478,3.5298846 7.93523128,3.70542635 7.98484698,4.00353985 C8.0336241,4.30165334 8.06395257,4.72247834 8.04885822,5.19403715 C8.0347422,5.66573572 7.94864848,6.09941887 7.86590906,6.41178815 C7.82481887,6.56818243 7.78484678,6.694388 7.75437855,6.78159983 C7.72460913,6.86867189 7.70574119,6.91688996 7.70574119,6.91688996" id="Fill-117" fill="#3C3C3B"></path>
                <path d="M14.1817782,6.89546437 C14.1817782,6.89546437 14.1200031,6.90930086 14.0074943,6.92886761 C13.95117,6.93921004 13.8821273,6.95025128 13.8027422,6.95821775 C13.723357,6.96688302 13.6318126,6.97792426 13.5324414,6.9811388 C13.4824064,6.98309548 13.4301352,6.98519192 13.3756279,6.98714859 C13.3212602,6.98854622 13.2653552,6.98658954 13.207214,6.9856112 C13.0902327,6.98463287 12.9680803,6.97387115 12.8394988,6.96087323 C12.5840128,6.930405 12.3090999,6.87436022 12.0376811,6.78057956 C11.7673803,6.68512174 11.5282466,6.56171142 11.3254512,6.43229131 C11.2256607,6.36534506 11.1321596,6.30077476 11.0509575,6.23271041 C11.0100071,6.1991674 10.9701748,6.16758106 10.9339763,6.13459711 C10.8984766,6.1010541 10.8643746,6.06890871 10.8316701,6.03816095 C10.766401,5.97750401 10.7135708,5.9160085 10.6667503,5.86331802 C10.6195106,5.81090707 10.5820542,5.76282875 10.5525643,5.72257714 C10.4930255,5.64291249 10.4631163,5.59693062 10.4631163,5.59693062 C10.4631163,5.59693062 10.5194406,5.61523951 10.6158768,5.65157777 C10.6639551,5.67002643 10.7225156,5.6925282 10.7912788,5.71656735 C10.8597624,5.7410258 10.9348149,5.77191332 11.0206291,5.80112369 C11.0626976,5.81663733 11.1067228,5.83284978 11.1524252,5.84990081 C11.198407,5.86611327 11.2462058,5.88302454 11.2956818,5.90049485 C11.3928167,5.93739216 11.4993158,5.97177375 11.6077715,6.01174583 C11.8262203,6.08791642 12.0650745,6.17121489 12.3158085,6.25856648 C12.566263,6.34619759 12.8051172,6.42977559 13.023566,6.50608593 C13.1339784,6.54256396 13.2379618,6.5815577 13.3377522,6.61342356 C13.3872281,6.63047459 13.4353065,6.64710633 13.4814281,6.66303926 C13.5281088,6.67827338 13.5729726,6.69308821 13.6157399,6.70720423 C13.700995,6.73767246 13.7799609,6.76073328 13.8490036,6.78421338 C13.9179065,6.80811278 13.9782839,6.82726025 14.0277599,6.84277389 C14.1267117,6.87477951 14.1817782,6.89546437 14.1817782,6.89546437" id="Fill-119" fill="#1D1D1B"></path>
                <path d="M13.8684026,6.95360558 C13.8684026,6.95360558 13.8267534,6.96227086 13.7515611,6.97429044 C13.7141048,6.98016046 13.6678434,6.98742812 13.6145938,6.99371743 C13.5617636,6.99888864 13.5013862,7.00378033 13.4347195,7.00797321 C13.1698694,7.02306756 12.8042506,7.00965036 12.4363956,6.90510798 C12.0686804,6.80182346 11.7626004,6.65563185 11.5614821,6.52467435 C11.3606434,6.3920397 11.2632289,6.27673561 11.297331,6.22837777 C11.3322716,6.17862231 11.4900635,6.20377956 11.7233272,6.26583413 C11.9575692,6.32705012 12.2682613,6.42362604 12.6152917,6.52118029 C12.9614835,6.61957311 13.2695201,6.72746979 13.4974728,6.81048874 C13.5544959,6.83075431 13.6059286,6.85046083 13.6510719,6.8684902 C13.6966345,6.88554123 13.7361872,6.90021629 13.7684724,6.91237563 C13.8329029,6.93753289 13.8684026,6.95360558 13.8684026,6.95360558" id="Fill-121" fill="#3C3C3B"></path>
                <path d="M14.8891863,6.07940488 C14.8891863,6.07940488 14.8343993,6.08387728 14.7369849,6.08681229 C14.6394306,6.09016659 14.4999476,6.08918826 14.3308349,6.07688915 C14.1614427,6.06486958 13.9636787,6.03901351 13.7509601,5.99303163 C13.5392199,5.94607142 13.3130841,5.87828659 13.0903026,5.78226972 C12.8680802,5.68555405 12.6711548,5.57011019 12.5026012,5.45256989 C12.3347463,5.33377174 12.1949838,5.21357595 12.0851305,5.10456117 C11.9749976,4.99610544 11.8932365,4.90120668 11.839987,4.83244351 C11.7861784,4.76409963 11.7590644,4.72412754 11.7590644,4.72412754 C11.7590644,4.72412754 11.8106368,4.73502902 11.8995258,4.75878865 C11.9881353,4.78296757 12.1155987,4.81748892 12.2680796,4.86402984 C12.4204208,4.91071053 12.5991771,4.96703483 12.7914903,5.03537872 C12.9846422,5.10274426 13.1914907,5.18157033 13.4026719,5.27353408 C13.6145519,5.36479902 13.811058,5.46053636 13.9884167,5.55347845 C14.1661947,5.6454422 14.3245456,5.73516975 14.4582984,5.81217891 C14.5917716,5.88960735 14.6993887,5.95669337 14.7741617,6.0032343 C14.8486551,6.05033427 14.8891863,6.07940488 14.8891863,6.07940488" id="Fill-123" fill="#1D1D1B"></path>
                <path d="M14.6164816,6.09142446 C14.6164816,6.09142446 14.5797241,6.09477876 14.5145947,6.09701496 C14.4493256,6.09967045 14.3562438,6.09994997 14.2435951,6.09282208 C14.018857,6.07898559 13.715153,6.03412182 13.4160612,5.91616223 C13.1169693,5.79890146 12.8673534,5.6577413 12.7031324,5.53475027 C12.5390512,5.41092066 12.4596661,5.30595899 12.4941875,5.25718186 C12.5654663,5.15934809 13.0544955,5.31923643 13.6303171,5.54411436 C13.9180882,5.65760154 14.1616943,5.79359049 14.3369565,5.90204622 C14.4244479,5.95613432 14.4941894,6.00365358 14.5425472,6.03691707 C14.5904858,6.0707396 14.6164816,6.09142446 14.6164816,6.09142446" id="Fill-125" fill="#3C3C3B"></path>
                <path d="M14.8430506,4.63469349 C14.8430506,4.63469349 14.8125824,4.65412049 14.7563979,4.68402967 C14.7002133,4.71421838 14.6178932,4.75265308 14.5143292,4.78899134 C14.4109049,4.82588865 14.2865162,4.85831356 14.1489899,4.87634292 C14.0120226,4.89367348 13.8623369,4.89563015 13.7136296,4.871591 C13.565062,4.84671327 13.4329864,4.7980759 13.3218752,4.74007445 C13.2111832,4.68095489 13.1213159,4.61317006 13.0531118,4.54804072 C12.9846282,4.4831909 12.9361306,4.42323277 12.9059419,4.37864852 C12.8751941,4.33448356 12.8607986,4.30764915 12.8607986,4.30764915 C12.8607986,4.30764915 12.8960187,4.30331652 12.9554178,4.29954293 C13.0145374,4.29618863 13.0989539,4.29115717 13.197207,4.28878121 C13.2953203,4.2869643 13.408528,4.28542691 13.5278852,4.29059812 C13.6476617,4.294791 13.7737275,4.30527319 13.9018897,4.32679662 C14.0303315,4.34748148 14.1494092,4.37753042 14.2591228,4.41121319 C14.3688364,4.44377787 14.4689063,4.48053541 14.5552796,4.51296032 C14.6415131,4.54552499 14.713351,4.57655228 14.7640848,4.59779618 C14.8145391,4.6197389 14.8430506,4.63469349 14.8430506,4.63469349" id="Fill-127" fill="#1D1D1B"></path>
                <path d="M14.6865026,4.72190532 C14.6865026,4.72190532 14.6655382,4.73532252 14.6271036,4.75558809 C14.5888086,4.77641271 14.5330434,4.80268807 14.4637211,4.82812485 C14.3257755,4.87899841 14.1303875,4.92372242 13.9308066,4.90108089 C13.7315052,4.87913817 13.5635106,4.8219753 13.4551947,4.75768453 C13.3467389,4.69283471 13.2975425,4.62211487 13.3228395,4.56956415 C13.3485558,4.51659415 13.4419172,4.4910176 13.570918,4.48347043 C13.7004779,4.4753642 13.8660965,4.48486805 14.0454119,4.50471433 C14.2241682,4.5249799 14.379025,4.57948729 14.4957268,4.62854394 C14.5537282,4.65314215 14.6013872,4.67676202 14.6346507,4.693254 C14.6679142,4.71044479 14.6865026,4.72190532 14.6865026,4.72190532" id="Fill-129" fill="#3C3C3B"></path>
                <path d="M12.6240408,4.21581119 C12.6240408,4.21581119 12.6157948,4.17318362 12.6065705,4.09631422 C12.5970667,4.0191653 12.5881219,3.90749503 12.587423,3.76899035 C12.5857459,3.49254005 12.6218046,3.10693521 12.7605888,2.69281881 C12.8996526,2.27870241 13.1129302,1.92049102 13.2908479,1.67213299 C13.3795971,1.5474648 13.4589822,1.44949126 13.5167042,1.38282453 C13.5741466,1.3161578 13.6086679,1.28037859 13.6086679,1.28037859 C13.6086679,1.28037859 13.6076896,1.3251026 13.600981,1.40434796 C13.5939928,1.48345356 13.5828118,1.59722027 13.5631053,1.73488637 C13.523273,2.01091738 13.4533917,2.38184716 13.3197787,2.77975111 C13.1864453,3.17751529 13.0127204,3.53237238 12.8728181,3.79288975 C12.8027971,3.92272915 12.740463,4.02838963 12.6962981,4.10190472 C12.6517138,4.17514029 12.6240408,4.21581119 12.6240408,4.21581119" id="Fill-131" fill="#1D1D1B"></path>
                <path d="M12.5937403,4.00112195 C12.5937403,4.00112195 12.5875908,3.97288992 12.5806026,3.92159707 C12.573335,3.87016446 12.5659276,3.79595055 12.5638311,3.70426632 C12.5593587,3.52089787 12.5773881,3.26666981 12.6633421,2.99301476 C12.8348307,2.44458656 13.0974445,2.02501942 13.2063195,2.04863929 C13.3158933,2.07225916 13.2358094,2.51656427 13.0699113,3.04780168 C12.9863333,3.31363003 12.8678146,3.54996848 12.7697013,3.72229569 C12.7206447,3.80824965 12.6766195,3.87799116 12.6451729,3.92620923 C12.6135866,3.97456707 12.5937403,4.00112195 12.5937403,4.00112195" id="Fill-133" fill="#3C3C3B"></path>
            </g>
        </g>
    </g>
</svg>