<?xml version="1.0" encoding="UTF-8"?>
<svg width="18px" height="18px" viewBox="0 0 18 18" version="1.1" xmlns="http://www.w3.org/2000/svg" xmlns:xlink="http://www.w3.org/1999/xlink">
    <title>liebiaoxingshi (1)备份 2</title>
    <g id="页面-1" stroke="none" stroke-width="1" fill="none" fill-rule="evenodd" opacity="0.600000024">
        <g id="launchpad-farm-列表" transform="translate(-347.000000, -739.000000)" fill="#2B1106">
            <g id="liebiaoxingshi-(1)备份-2" transform="translate(347.000000, 739.000000)">
                <path d="M17.3078806,3.46078648 L11.0746411,3.46078648 C10.6912901,3.46078648 10.3824406,3.15201803 10.3824406,2.76866704 C10.3824406,2.38531606 10.6912901,2.07643944 11.0746411,2.07643944 L17.3040946,2.07643944 C17.6874186,2.07643944 17.9963282,2.38531606 17.9963282,2.76866704 C18,3.15201803 17.6911234,3.46078648 17.3078806,3.46078648 Z" id="Fill-1"></path>
                <path d="M17.3078806,6.92165408 L11.0746411,6.92165408 C10.6912901,6.92165408 10.3824406,6.61277746 10.3824406,6.22945352 C10.3824406,5.8462107 10.6912901,5.53733408 11.0746411,5.53733408 L17.3040946,5.53733408 C17.6874186,5.53733408 17.9962952,5.8462107 17.9962952,6.22945352 C17.9962952,6.61277746 17.6911234,6.92165408 17.3078806,6.92165408 Z" id="Fill-2"></path>
                <path d="M17.3078806,12.462693 L11.0746411,12.462693 C10.6912901,12.462693 10.3824406,12.1538163 10.3824406,11.7705735 C10.3824406,11.3872225 10.6912901,11.0783459 11.0746411,11.0783459 L17.3040946,11.0783459 C17.6874186,11.0783459 17.9962952,11.3872225 17.9962952,11.7705735 C17.9962952,12.1538163 17.6911234,12.462693 17.3078806,12.462693 Z" id="Fill-3"></path>
                <path d="M17.3078806,15.9235606 L11.0746411,15.9235606 C10.6912901,15.9235606 10.3824406,15.6146839 10.3824406,15.231333 C10.3824406,14.8481172 10.6912901,14.5392406 11.0746411,14.5392406 L17.3040946,14.5392406 C17.6874186,14.5392406 17.9962952,14.8481172 17.9962952,15.231333 C17.9962952,15.6146839 17.6911234,15.9235606 17.3078806,15.9235606 Z" id="Fill-4"></path>
                <path d="M6.22942648,8.30600113 L2.07643944,8.30600113 C0.930307606,8.30600113 0,7.37566648 0,6.22945352 L0,2.07643944 C0,0.930334648 0.930307606,0 2.07643944,0 L6.22942648,0 C7.37566648,0 8.30597408,0.930334648 8.30597408,2.07643944 L8.30597408,6.22945352 C8.30597408,7.37566648 7.37566648,8.30600113 6.22942648,8.30600113 Z M2.07643944,1.38434704 C1.69690141,1.38434704 1.38432,1.69690141 1.38432,2.07643944 L1.38432,6.22945352 C1.38432,6.60909972 1.69690141,6.92165408 2.07643944,6.92165408 L6.22942648,6.92165408 C6.60907268,6.92165408 6.92165408,6.60909972 6.92165408,6.22945352 L6.92165408,2.07643944 C6.92165408,1.69690141 6.60907268,1.38434704 6.22942648,1.38434704 L2.07643944,1.38434704 Z" id="Fill-5"></path>
                <path d="M6.22942648,18 L2.07643944,18 C0.930307606,18 0,17.0696924 0,15.9235606 L0,11.7667606 C0,10.6206287 0.930307606,9.69032113 2.07643944,9.69032113 L6.22942648,9.69032113 C7.37566648,9.69032113 8.30597408,10.6206287 8.30597408,11.7667606 L8.30597408,15.9197476 C8.30597408,17.0659876 7.37566648,18 6.22942648,18 Z M2.07643944,11.0746411 C1.69690141,11.0746411 1.38432,11.3835177 1.38432,11.7667606 L1.38432,15.9197476 C1.38432,16.3030986 1.69690141,16.6119752 2.07643944,16.6119752 L6.22942648,16.6119752 C6.60907268,16.6119752 6.92165408,16.3030986 6.92165408,15.9197476 L6.92165408,11.7667606 C6.92165408,11.3835177 6.60907268,11.0746411 6.22942648,11.0746411 L2.07643944,11.0746411 Z" id="Fill-6"></path>
            </g>
        </g>
    </g>
</svg>