<?xml version="1.0" encoding="UTF-8"?>
<svg width="16px" height="16px" viewBox="0 0 16 16" version="1.1" xmlns="http://www.w3.org/2000/svg" xmlns:xlink="http://www.w3.org/1999/xlink">
    <title>Fill 1</title>
    <g id="页面-1" stroke="none" stroke-width="1" fill="none" fill-rule="evenodd" opacity="0.300000012">
        <g id="launchpad-swap-选择-弹窗" transform="translate(-1108.000000, -252.000000)" fill="#2B1106">
            <path d="M1119.90467,262.972572 C1119.93817,262.996 1119.97114,263.022201 1120.00065,263.053084 L1123.80365,266.855399 C1124.05945,267.111198 1124.06352,267.540278 1123.80164,267.802137 C1123.67656,267.928542 1123.50629,267.999927 1123.32848,268.00046 C1123.15068,268.00093 1122.98001,267.930548 1122.85422,267.804832 L1119.05122,264.001829 C1119.02187,263.972401 1118.99527,263.940279 1118.972,263.905855 C1117.77238,264.892701 1116.26657,265.431112 1114.71311,265.428653 C1111.00484,265.428653 1107.99882,262.422634 1107.99882,258.714287 C1107.99882,255.006019 1111.00484,252 1114.71311,252 C1118.42145,252 1121.42747,255.006019 1121.42747,258.714287 C1121.42747,260.330443 1120.8567,261.813684 1119.90467,262.972572 Z M1114.71311,264.085745 C1117.67973,264.085745 1120.08454,261.680906 1120.08454,258.714287 C1120.08454,255.747767 1117.67973,253.34285 1114.71311,253.34285 C1111.74657,253.34285 1109.34167,255.747767 1109.34167,258.714287 C1109.34167,261.680906 1111.74657,264.085745 1114.71311,264.085745 Z" id="Fill-1"></path>
        </g>
    </g>
</svg>