<svg t="1666015269393" class="icon" viewBox="0 0 1024 1024" version="1.1" xmlns="http://www.w3.org/2000/svg" p-id="4196" width="200" height="200"><path d="M896 307.2l-768 0c-14.1312 0-25.6-11.4688-25.6-25.6s11.4688-25.6 25.6-25.6l768 0c14.1312 0 25.6 11.4688 25.6 25.6s-11.4688 25.6-25.6 25.6z" p-id="4197" fill="#ffffff"></path><path d="M896 563.2l-768 0c-14.1312 0-25.6-11.4688-25.6-25.6s11.4688-25.6 25.6-25.6l768 0c14.1312 0 25.6 11.4688 25.6 25.6s-11.4688 25.6-25.6 25.6z" p-id="4198" fill="#ffffff"></path><path d="M896 819.2l-768 0c-14.1312 0-25.6-11.4688-25.6-25.6s11.4688-25.6 25.6-25.6l768 0c14.1312 0 25.6 11.4688 25.6 25.6s-11.4688 25.6-25.6 25.6z" p-id="4199" fill="#ffffff"></path></svg>