<?xml version="1.0" encoding="UTF-8"?>
<svg width="58px" height="58px" viewBox="0 0 58 58" version="1.1" xmlns="http://www.w3.org/2000/svg" xmlns:xlink="http://www.w3.org/1999/xlink">
    <title>编组 4备份</title>
    <defs>
        <rect id="path-1" x="0" y="0" width="56" height="56" rx="28"></rect>
    </defs>
    <g id="页面-1" stroke="none" stroke-width="1" fill="none" fill-rule="evenodd">
        <g id="Ostrich-trade" transform="translate(-282.000000, -744.000000)">
            <g id="编组-14" transform="translate(263.000000, 735.000000)">
                <g id="编组-4备份" transform="translate(20.000000, 10.000000)">
                    <rect id="矩形" fill="#F68731" fill-rule="nonzero" x="0" y="0" width="56" height="56" rx="28"></rect>
                    <g id="Clipped">
                        <mask id="mask-2" fill="white">
                            <use xlink:href="#path-1"></use>
                        </mask>
                        <use id="矩形" stroke="#FFFFFF" xlink:href="#path-1"></use>
                        <g id="编组" mask="url(#mask-2)" fill-rule="nonzero">
                            <g transform="translate(9.250182, 13.800303)" id="路径">
                                <path d="M8.59854545,32.391212 C8.63248485,30.651818 8.62060606,28.8360605 7.79927273,27.3003029 C7.0169697,25.840909 5.6110303,24.8481817 4.42145455,23.6942423 C3.23442424,22.5403029 2.18060606,20.9790908 2.4529697,19.3499999 C2.68630303,17.9584847 3.82072727,16.8978787 4.98993939,16.1087877 C6.15915152,15.3196968 7.45563636,14.6578787 8.34315152,13.5633332 C9.22981818,12.4687877 9.56157576,10.7463635 8.62484848,9.68575744 C7.28933333,8.18393926 4.25175758,8.82030289 3.44824242,6.97909077 C3.06048485,6.08818168 3.47284848,5.03606047 4.07357576,4.2724241 C5.86133333,1.98999986 8.98290909,1.31969683 11.8465455,0.853030166 C15.4415758,0.276060469 19.0883636,-0.216060744 22.7147879,0.0978786504 C26.3420606,0.420302893 29.9888485,1.61666653 32.6895758,4.06030289 C33.5592727,4.8493938 34.3441212,6.19848471 33.5957576,7.1063635 C32.9704242,7.86151501 31.7995152,7.65787865 30.8220606,7.59848471 C29.6087273,7.53060592 28.334303,7.82757562 27.4179394,8.62515138 C26.5015758,9.42272714 26.0306667,10.7803029 26.4591515,11.9172726 C26.8333333,12.901515 27.7802424,13.5633332 28.7424242,13.9960605 C29.7054545,14.4372726 30.745697,14.7257574 31.6315152,15.3027271 C33.3505455,16.431212 34.2753939,18.7390908 33.5813333,20.6736362 C33.1019394,22.0057574 31.9895758,22.9984847 31.1198788,24.1184847 C28.9044848,26.9778787 28.2715152,30.7196968 27.7115152,34.291818 C27.2686061,37.1172726 26.8231515,39.9596968 26.9300606,42.8190908 C26.9648485,43.7524241 27.0437576,44.7536362 26.5745455,45.5596968 C26.0747879,46.4081817 25.0532121,46.840909 24.0681212,46.9257574 C23.0830303,47.0106059 22.0979394,46.8069696 21.1153939,46.6966665 C19.7620606,46.5439393 18.3985455,46.560909 17.0375758,46.5778787 C15.4050909,46.5778787 13.7726061,46.6203029 12.1418182,46.6372726 C11.2398788,46.6542423 9.744,46.3063635 9.12460606,45.5342423 C8.58666667,44.8639393 8.02157576,43.7693938 8.0809697,43.0142423 C8.21163636,41.3427271 8.31939394,39.6796968 8.40424242,38.0081817 C8.4950303,36.141515 8.56206061,34.2663635 8.59854545,32.391212 Z" fill="#FAE5CD"></path>
                                <path d="M8.83272727,17.5851514 C8.49757576,17.9245453 8.04448485,18.2978787 7.59309091,18.1366665 C7.20448485,18.000909 7.04327273,17.5342423 7.02630303,17.1269696 C6.99406061,16.2954544 7.34193939,15.480909 7.89006061,14.861515 C8.43648485,14.2421211 9.17042424,13.8093938 9.94593939,13.520909 C10.4414545,13.3427271 10.9709091,13.2069696 11.3798788,12.8760605 C11.6929697,12.621515 11.9076364,12.2651514 12.1155152,11.9172726 C12.5753939,11.1536362 13.0361212,10.3984847 13.4951515,9.63484835 C13.7318788,9.23606047 13.9932121,8.82878774 14.4098182,8.62515138 C15.0224242,8.33666653 15.734303,8.61666653 16.3978182,8.7524241 C17.2335758,8.91363623 18.1151515,8.84575744 18.9118788,8.54030289 C19.6585455,8.26030289 20.5061818,7.79363623 21.1815758,8.2093938 C21.4505455,8.37909077 21.6244848,8.65909077 21.7882424,8.93060592 C22.2294545,9.66030289 22.6681212,10.4069696 23.269697,11.0178787 C24.2038788,11.9681817 25.4562424,12.5196968 26.6373333,13.1306059 C27.8184242,13.7499999 29.008,14.5051514 29.6324848,15.6760605 C29.7741818,15.9475756 29.8853333,16.2699999 29.7682424,16.5499999 C29.6587879,16.8130302 29.373697,16.9572726 29.0945455,16.9996968 C28.813697,17.0336362 28.530303,16.9742423 28.253697,16.9233332 C27.6869091,16.8299999 27.1124848,16.7790908 26.5380606,16.7706059 C26.3072727,16.7621211 26.0527273,16.7790908 25.8889697,16.9403029 C25.6420606,17.1778787 25.7413333,17.5851514 25.788,17.9330302 C25.8338182,18.2724241 25.6904242,18.7390908 25.3467879,18.7221211 C25.1889697,18.7051514 25.061697,18.5948483 24.9437576,18.4845453 C24.3718788,17.9669696 23.7024242,17.5681817 23.0244848,17.1948483 C22.5595152,16.9403029 22.0818182,16.6942423 21.5684848,16.5669696 C21.0526061,16.431212 20.5121212,16.4227271 19.9801212,16.4057574 C18.0871515,16.3633332 16.1933333,16.320909 14.3003636,16.2784847 C13.9830303,16.2699999 13.6614545,16.2699999 13.3517576,16.3378787 C12.4981818,16.541515 11.9135758,17.2966665 11.3170909,17.941515 C11.058303,18.221515 10.7324848,18.5099999 10.3523636,18.4760605 C9.96206061,18.4506059 9.65236364,18.0263635 9.74145455,17.6445453 C9.80169697,17.3899999 10.5203636,16.6942423 10.1156364,16.5330302 C9.74909091,16.3803029 9.04909091,17.3645453 8.83272727,17.5851514 Z" fill="#EF6E69"></path>
                                <path d="M9.20945455,15.0651514 C9.77793939,14.7257574 10.4346667,14.5645453 11.058303,14.3269696 C11.6793939,14.0893938 12.3038788,13.741515 12.6254545,13.1560605 C13.6164848,13.7160605 14.6117576,14.2675756 15.6859394,14.640909 C16.7601212,15.0057574 17.9250909,15.1839393 19.0357576,14.9463635 C20.0471515,14.7427271 20.9711515,14.2081817 21.9927273,14.0469696 C22.8590303,13.911212 23.7406061,14.0554544 24.6043636,14.1996968 C25.453697,14.3439393 26.3115152,14.4881817 27.1065455,14.8106059 C27.9015758,15.141515 28.6414545,15.6760605 29.0546667,16.431212 C28.6355152,16.2784847 28.3385455,15.9136362 27.9940606,15.6251514 C26.9750303,14.7851514 25.5631515,14.6663635 24.2446061,14.5730302 C23.5386667,14.5306059 22.8301818,14.4796968 22.1267879,14.5475756 C20.3,14.7172726 18.5317576,15.6251514 16.716,15.3706059 C15.7953939,15.2433332 14.9435152,14.8190908 14.1247273,14.3778787 C13.8133333,14.2166665 13.497697,14.0384847 13.1498182,13.9875756 C12.684,13.9027271 12.2113939,14.0469696 11.761697,14.191212 C11.2356364,14.360909 10.7121212,14.5475756 10.1945455,14.7427271 C9.492,15.0057574 8.75806061,15.3366665 8.33551515,15.9560605 C8.14290909,16.2360605 8.05636364,16.5499999 7.93927273,16.8639393 C7.70254545,16.2530302 8.764,15.3366665 9.20945455,15.0651514 Z" fill="#1B1A1A"></path>
                                <path d="M10.8130909,10.2881817 C10.7995152,8.7693938 10.3073939,7.25909077 9.42751515,6.02030289 C8.75806061,5.08696956 7.84169697,4.2893938 6.74545455,3.93303017 C6.14472727,3.73787865 5.47527273,3.67848471 4.89066667,3.92454532 C4.30606061,4.15363623 3.83684848,4.73060592 3.8529697,5.36696956 C3.86739394,5.89303017 4.20339394,6.35969683 4.62169697,6.68212107 C5.04,6.99606047 5.53806061,7.19121198 6.02169697,7.39484835 C6.96012121,7.79363623 7.88072727,8.27727259 8.64266667,8.95606047 C9.33248485,9.56696956 9.89333333,10.3645453 10.1215758,11.2639393 C10.2047273,11.5948483 10.2327273,12.0699999 10.5661818,11.6033332 C10.8258182,11.2469696 10.8173333,10.7039393 10.8130909,10.2881817 Z" fill="#F2D7B8"></path>
                                <path d="M25.3993939,10.3306059 C25.4681212,9.95727259 25.6335758,9.6093938 25.8075152,9.27848471 C26.1452121,8.62515138 26.5380606,7.9633332 27.1489697,7.55606047 C27.777697,7.13181804 28.5625455,7.02151501 29.3193939,6.96212107 C29.9464242,6.91969683 30.5751515,6.90272714 31.2047273,6.91121198 C31.4516364,6.91969683 31.7078788,6.92818168 31.9327273,6.8263635 C32.2644848,6.66515138 32.4528485,6.29181804 32.4486762,5.92696956 C32.4443636,5.56212107 32.2763636,5.21424229 32.0540606,4.92575744 C31.4677576,4.16212107 30.4945455,3.75484835 29.5357576,3.7463635 C28.5769697,3.7463635 27.6402424,4.11121198 26.8579394,4.66272714 C25.1626667,5.85909077 24.1673939,8.02272714 24.4745455,10.0760605 C24.5254545,10.4154544 24.638303,10.8227271 24.9420606,11.0263635 C25.5750303,11.4590908 25.3306667,10.7039393 25.3993939,10.3306059 Z" fill="#F2D7B8"></path>
                                <path d="M17.2378182,8.32818168 C18.1516364,8.38757562 19.0824242,8.21787865 19.9113939,7.82757562 C20.3144242,7.64090895 20.7267879,7.3524241 20.8260606,6.91969683 C20.86,6.77545441 20.8464242,6.59727259 20.7386667,6.49545441 C20.6198788,6.36818168 20.4332121,6.36818168 20.2652121,6.34272714 C20.0997576,6.31727259 19.9071515,6.2324241 19.8910303,6.06272714 C19.8833939,5.9693938 19.9300606,5.88454532 19.9597576,5.80818168 C20.1175758,5.3924241 19.9258182,4.93424229 19.7374545,4.52696956 C19.6322424,4.3063635 19.5270303,4.07727259 19.3615758,3.89909077 C19.0764848,3.57666653 18.6166061,3.38999986 18.4876364,2.98272714 C18.4426667,2.84696956 18.4452121,2.69424229 18.4146667,2.54999986 C18.3153939,2.09181804 17.8444848,1.76090895 17.3829091,1.81181804 C16.9094545,1.86272714 16.5420606,2.26999986 16.3655758,2.71121198 C16.1899394,3.16090895 16.1636364,3.64454532 16.0864242,4.11121198 C15.9998788,4.64575744 15.8437576,5.18030289 15.5544242,5.63848471 C15.2710303,6.08818168 13.5842424,7.51363623 14.4157576,8.04818168 C14.7050909,8.23484835 15.2124848,8.12454532 15.5340606,8.13303017 C16.1084848,8.14999986 16.6667879,8.28575744 17.2378182,8.32818168 Z" fill="#CFA483" opacity="0.6"></path>
                                <path d="M21.6609697,16.6687877 C21.3317576,16.5584847 20.9940606,16.4651514 20.6478788,16.4227271 C20.2490909,16.3803029 19.8443636,16.4227271 19.4438788,16.4481817 C17.7494545,16.5499999 16.0482424,16.3293938 14.3546667,16.4481817 C13.8998788,16.4821211 13.4391515,16.541515 13.021697,16.7281817 C12.5389091,16.9403029 12.1401212,17.3136362 11.8007273,17.720909 C11.5495758,18.0263635 11.3128485,18.3827271 11.3391515,18.7730302 C11.3713939,19.2142423 11.8007273,19.5960605 12.2453333,19.5706059 C12.628,19.5536362 13.0522424,19.2906059 13.357697,19.5196968 C13.5986667,19.7063635 13.5740606,20.071212 13.5095758,20.3681817 C13.4450909,20.6651514 13.3780606,21.0130302 13.5766061,21.2421211 C13.718303,21.4033332 13.9584242,21.4542423 14.112,21.6069696 C14.3368485,21.8275756 14.3164848,22.1924241 14.4505455,22.480909 C14.642303,22.8966665 15.1233939,23.091818 15.4432727,23.4142423 C15.8335758,23.821515 15.9608485,24.3984847 16.072,24.9499999 C16.2705455,25.9342423 16.4690909,26.9184847 16.6667879,27.8942423 C16.7058182,28.0893938 16.770303,28.3099999 16.9544242,28.3693938 C17.2149091,28.4457574 17.417697,28.131818 17.4804848,27.8603029 C17.6196364,27.2578787 17.5890909,26.6299999 17.5958788,26.0106059 C17.6035152,25.1366665 17.6909091,24.2627271 17.8521212,23.3972726 C17.976,22.7439393 18.1516364,22.0736362 18.537697,21.5221211 C18.9246061,20.9790908 19.5575758,20.5633332 20.2270303,20.6057574 C20.8294545,20.6396968 21.3538182,21.0130302 21.9341818,21.1742423 C22.6647273,21.3863635 23.4996364,21.2336362 24.078303,20.741515 C24.6408485,20.2578787 25.1991515,19.0784847 24.7316364,18.391212 C24.106303,17.4748483 22.6562424,17.0081817 21.6609697,16.6687877 Z" fill="#CFA483" opacity="0.6"></path>
                                <path d="M12.2996364,40.6554544 C13.0140606,37.6857574 14.2927273,34.851818 14.8077576,31.831212 C15.0410909,30.4736362 15.1038788,29.0142423 14.5167273,27.7584847 C13.9321212,26.511212 12.5363636,25.5524241 11.1898182,25.8578787 C10.9997576,25.9003029 10.8012121,25.9851514 10.7002424,26.1463635 C10.6069091,26.2990908 10.6153939,26.4942423 10.6332121,26.6724241 C10.722303,27.5378787 10.9632727,28.3778787 11.1210909,29.2263635 C11.424,30.880909 11.4138182,32.5948483 11.086303,34.2493938 C10.9106667,35.131818 10.6476364,35.9972726 10.528,36.8881817 C10.4024242,37.8299999 10.4414545,38.7803029 10.4770909,39.7306059 C10.5135758,40.6384847 10.5526061,41.5633332 10.8393939,42.4287877 C10.9564848,42.7766665 11.9415758,44.6772726 12.2614545,43.7524241 C12.3564848,43.4724241 12.0493333,42.5899999 12.0612121,42.2336362 C12.0798788,41.7075756 12.1749091,41.181515 12.2996364,40.6554544 Z" fill="#F2D7B8"></path>
                                <path d="M24.612,38.5003029 C24.6832727,37.6687877 24.753697,36.8457574 24.9276364,36.031212 C25.2033939,34.7499999 25.7328485,33.5366665 25.9186667,32.2384847 C26.0204848,31.5427271 26.0145455,30.8130302 25.7353939,30.1681817 C25.4562424,29.5233332 24.8555152,28.9803029 24.1555152,28.9293938 C23.2391515,28.861515 22.4602424,29.5827271 21.9265455,30.3293938 C20.5749091,32.221515 19.9597576,34.631212 20.2372121,36.9390908 C20.3806061,38.1354544 20.7505455,39.2893938 21.1187879,40.4348483 C21.5031515,41.631212 21.8875152,42.8275756 22.2718788,44.0239393 C22.4984242,44.7281817 22.6647273,45.6954544 23.4716364,44.9403029 C24.1572121,44.3039393 24.1996364,43.2942423 24.274303,42.4372726 C24.388,41.1221211 24.5008485,39.8069696 24.612,38.5003029 Z" fill="#F2D7B8"></path>
                                <path d="M6.83030303,10.0336362 C6.3670303,9.41424229 5.66533333,8.94757562 4.89490909,8.87121198 C5.03660606,8.53181804 5.41248485,8.33666653 5.7790303,8.31121198 C6.14472727,8.28575744 6.5070303,8.39606047 6.85236364,8.51484835 C7.65757576,8.79484835 8.48739394,9.17666653 8.95830303,9.8893938 C9.46824242,10.661515 9.44957576,11.6966665 9.08218182,12.5451514 C8.87939394,13.0033332 8.57987879,13.461515 8.21587879,13.8178787 C7.75515152,14.2675756 7.68981818,13.6821211 7.70593939,13.2748483 C7.7449697,12.1548483 7.51248485,10.9499999 6.83030303,10.0336362 Z" fill="#A6514E"></path>
                                <path d="M27.9338182,11.6796968 C27.8608485,10.9584847 27.9253333,10.1948483 28.253697,9.54999986 C28.7670303,8.5233332 29.8836364,7.89545441 31.0180606,7.75969683 C30.7151515,7.52212107 30.3019394,7.47969683 29.9158788,7.49666653 C29.0809697,7.53060592 28.2469091,7.78515138 27.5698182,8.27727259 C26.8944242,8.76090895 26.3844848,9.49909077 26.2326061,10.3221211 C26.0832727,11.1281817 26.2852121,11.9936362 26.7764848,12.6469696 C27.0539394,13.011818 28.2087273,14.0724241 28.7203636,13.7330302 C28.28,13.1051514 28.0127273,12.4603029 27.9338182,11.6796968 Z" fill="#A6514E"></path>
                                <path d="M8.09284848,12.5536362 C8.1089697,12.2651514 8.1089697,11.9766665 8.05466667,11.6881817 C7.89006061,10.831212 7.26727273,10.1524241 6.64618182,9.54999986 C6.42981818,9.33787865 6.20751515,9.12575744 5.93854545,8.98999986 C5.66957576,8.84575744 5.34545455,8.79484835 5.06290909,8.90515138 C4.89236364,8.96454532 4.75151515,9.09181804 4.62763636,9.21909077 C4.0150303,9.8893938 3.86315152,10.8906059 4.08545455,11.7645453 C4.30606061,12.6384847 4.85842424,13.3936362 5.49987879,14.0299999 C5.98945455,14.5136362 6.72763636,14.9124241 7.40133333,14.4966665 C7.9630303,14.1487877 8.06230303,13.1390908 8.09284848,12.5536362 Z" fill="#333333"></path>
                                <path d="M29.568,13.9027271 C29.8556364,13.7924241 30.0957576,13.6142423 30.3189091,13.4190908 C30.8424242,12.9778787 31.2955152,12.4687877 31.6612121,11.9172726 C32.0846061,11.280909 32.396,10.551212 32.3145455,9.82151501 C32.2585455,9.3124241 32.0090909,8.82030289 31.6153939,8.43848471 C31.2123636,8.05666653 30.6099394,7.78515138 30.0210909,7.88696956 C29.6002424,7.95484835 29.2481212,8.2093938 28.9494545,8.48090895 C27.8167273,9.49909077 27.1710303,10.9160605 27.1973333,12.3330302 C27.2032727,12.6130302 27.2355152,12.9099999 27.3916364,13.1560605 C27.7615758,13.741515 28.84,14.1657574 29.568,13.9027271 Z" fill="#333333"></path>
                                <path d="M30.605697,11.2384847 C30.7618182,10.8736362 30.8848485,10.4748483 30.8178182,10.0845453 C30.7516364,9.68575744 30.436,9.32090895 30.0397576,9.30393926 C29.6452121,9.28696956 29.3210909,9.61787865 29.1208485,9.95727259 C28.868,10.381515 28.726303,10.8736362 28.6312727,11.3657574 C28.5345455,11.8663635 28.6049697,12.8675756 29.3635152,12.7827271 C30.0168485,12.6978787 30.3893333,11.7560605 30.605697,11.2384847 Z" fill="#1B1A1A"></path>
                                <path d="M27.7938182,9.98272714 C27.9821818,9.6093938 28.2087273,9.25303017 28.4675152,8.93060592 C28.7042424,8.63363623 28.9715152,8.35363623 29.2947879,8.14999986 C30.1186667,7.6493938 31.1555152,7.73424229 32.1109091,7.58999986 C33.290303,7.41181804 34.410303,6.85181804 35.2621818,6.01181804 C35.1204848,6.5463635 34.8328485,7.03848471 34.4391515,7.42030289 C34.6368485,7.42030289 34.8353939,7.45424229 35.0195152,7.53060592 C34.7726061,7.85303017 34.3984242,8.06515138 34.0081212,8.1924241 C33.6178182,8.31969683 33.2071515,8.35363623 32.7981818,8.39606047 C33.3038788,8.71848471 33.9597576,8.8033332 34.5282424,8.60818168 C34.4145455,8.76090895 34.2227879,8.82030289 34.0403636,8.86272714 C33.4922424,8.98151501 32.9118788,8.93909077 32.3773333,8.76090895 C32.9721212,9.28696956 33.5592727,9.86393926 33.8401212,10.6021211 C33.1910303,10.1184847 32.565697,9.60090895 31.9709091,9.05787865 C31.554303,8.67606047 31.1029091,8.25181804 30.5386667,8.2093938 C30.0881212,8.17545441 29.6570909,8.38757562 29.2744242,8.62515138 C28.5226667,9.10030289 27.8201212,9.71969683 27.4824242,10.5427271" fill="#1B1A1A"></path>
                                <path d="M4.58690909,8.37060592 C3.8190303,8.18393926 3.01381818,8.26030289 2.2230303,8.2433332 C1.43224242,8.2263635 0.592242424,8.09060592 0,7.56454532 C0.0016969697,8.03969683 0.339393939,8.45545441 0.752606061,8.69303017 C1.1649697,8.93060592 1.64181818,9.01545441 2.11187879,9.10030289 C1.47466667,9.26151501 0.798424242,9.26999986 0.155272727,9.13424229 C1.0249697,9.83848471 2.33163636,9.94030289 3.29890909,9.38030289 C3.12072727,9.73666653 2.80509091,10.0251514 2.43345455,10.1693938 C2.81527273,10.2881817 3.22593939,10.101515 3.556,9.8724241 C3.88521212,9.6433332 4.19490909,9.3633332 4.5809697,9.26151501 C5.56606061,8.98999986 6.20581818,9.82999986 7.00848485,10.1524241 C7.12557576,9.74515138 6.42218182,9.32090895 6.15066667,9.12575744 C5.67975758,8.77787865 5.15793939,8.5063635 4.58690909,8.37060592 Z" fill="#1B1A1A"></path>
                                <path d="M6.48836364,11.2130302 C6.29236364,10.9754544 6.04545455,10.7633332 5.75018182,10.661515 C5.45490909,10.5596968 5.1070303,10.5851514 4.85842424,10.771818 C4.55127273,11.000909 4.45793939,11.4421211 4.5529697,11.8154544 C4.648,12.1887877 4.90254545,12.5027271 5.18424242,12.7657574 C5.53975758,13.1051514 6.40181818,13.7669696 6.81672727,13.2069696 C7.24521212,12.6299999 6.88545455,11.7051514 6.48836364,11.2130302 Z" fill="#1B1A1A"></path>
                                <path d="M5.54993939,11.2045453 C5.58472727,11.2130302 5.62121212,11.2130302 5.65769697,11.2045453 C5.82739394,11.1706059 5.96909091,11.051818 6.04969697,10.8990908 C6.13030303,10.7463635 6.15490909,10.5681817 6.14472727,10.3984847 C6.13878788,10.2881817 6.11672727,10.1778787 6.04375758,10.1099999 C5.98521212,10.0506059 5.90036364,10.0251514 5.81721212,10.0166665 C5.64072727,9.99969683 5.45745455,10.0506059 5.32339394,10.1693938 C5.19018182,10.2796968 5.10957576,10.4578787 5.12569697,10.6360605 C5.13757576,10.8142423 5.37006061,11.1536362 5.54993939,11.2045453 Z" fill="#FFFFFF"></path>
                                <path d="M29.8590303,9.75363623 C29.9345455,9.69424229 30.0109091,9.63484835 30.0618182,9.55848471 C30.0957576,9.49909077 30.1186667,9.43969683 30.1364848,9.37181804 C30.2841212,8.85424229 29.4907879,8.76090895 29.2218182,9.0833332 C28.8620606,9.51606047 29.398303,10.101515 29.8590303,9.75363623 Z" fill="#FFFFFF"></path>
                                <path d="M25.649697,16.3378787 C25.6726061,16.151212 25.6658182,15.9475756 25.5792727,15.7863635 C25.4621818,15.5657574 25.2254545,15.4384847 24.9989091,15.3451514 C23.5666667,14.7172726 21.9121212,14.6239393 20.4196364,15.0821211 C20.0047273,15.2093938 19.598303,15.3706059 19.1689697,15.4384847 C18.8007273,15.4978787 18.4265455,15.480909 18.0566061,15.4639393 C17.2191515,15.421515 16.3757576,15.3790908 15.5629091,15.1754544 C15.0105455,15.0396968 14.4785455,14.8275756 13.9261818,14.691818 C13.3738182,14.5560605 12.7858182,14.4881817 12.2393939,14.6493938 C11.6929697,14.8190908 11.201697,15.2433332 11.0820606,15.7948483 C11.0701818,15.8542423 11.061697,15.9221211 11.0981818,15.9730302 C11.1227879,16.0069696 11.1652121,16.0324241 11.2059394,16.040909 C11.6929697,16.2275756 12.2309091,16.0239393 12.7450909,15.9306059 C13.3475152,15.8287877 13.9643636,15.8796968 14.5752727,15.9221211 C15.4916364,15.981515 16.4122424,15.9899999 17.330303,15.9475756 C18.6658182,15.8966665 20.0250909,15.7439393 21.3173333,16.0833332 C21.8493333,16.2190908 22.3550303,16.4396968 22.8590303,16.6603029 C23.182303,16.8045453 23.5081212,16.9403029 23.8313939,17.0845453 C24.0842424,17.1948483 24.4202424,17.4239393 24.6993939,17.4239393 C25.2313939,17.4324241 25.5953939,16.7960605 25.649697,16.3378787 Z" fill="#654B3D" opacity="0.52"></path>
                                <path d="M19.1367273,10.9839393 C19.069697,10.7972726 18.9288485,10.6360605 18.7710303,10.5172726 C18.3781818,10.211818 17.8665455,10.0590908 17.3710303,10.101515 C16.8755152,10.1524241 16.3978182,10.3899999 16.0686061,10.7633332 C15.9574545,10.8906059 15.8658182,11.0942423 15.9871515,11.2130302 C16.0889697,11.3063635 16.2544242,11.2554544 16.3757576,11.1875756 C16.4987879,11.1281817 16.6404848,11.0433332 16.7686061,11.1027271 C16.7092121,11.2554544 16.8373333,11.4166665 16.9866667,11.4760605 C17.136,11.5269696 17.302303,11.5099999 17.4618182,11.5099999 C17.7027879,11.501515 17.9437576,11.5524241 18.172,11.6372726 C18.3238788,11.6881817 18.4774545,11.7560605 18.6395152,11.7475756 C19.0298182,11.7390908 19.2580606,11.331818 19.1367273,10.9839393 Z" fill="#FFC0BD" opacity="0.49"></path>
                            </g>
                        </g>
                    </g>
                </g>
            </g>
        </g>
    </g>
</svg>