<?xml version="1.0" encoding="UTF-8"?>
<svg width="18px" height="16px" viewBox="0 0 18 16" version="1.1" xmlns="http://www.w3.org/2000/svg" xmlns:xlink="http://www.w3.org/1999/xlink">
    <title>编组</title>
    <defs>
        <polygon id="path-1" points="-3.01703392e-16 0 17.1802883 0 17.1802883 16 -3.01703392e-16 16"></polygon>
    </defs>
    <g id="页面-1" stroke="none" stroke-width="1" fill="none" fill-rule="evenodd">
        <g id="launchpad-swap" transform="translate(-1632.000000, -245.000000)">
            <g id="编组" transform="translate(1632.000000, 245.000000)">
                <mask id="mask-2" fill="white">
                    <use xlink:href="#path-1"></use>
                </mask>
                <g id="Clip-2"></g>
                <path d="M8.07927033,16 C6.32628706,16 4.65361571,15.4488808 3.24209149,14.406209 C1.50757269,13.1210244 0.385195603,11.2454381 0.0818058521,9.12500967 C-0.221462582,7.0152814 0.3245128,4.91130357 1.61911161,3.20058717 C2.39461891,2.1761615 3.37478811,1.37338212 4.53237142,0.814595658 C5.63633257,0.281673994 6.87146175,0 8.10418885,0 C9.86156379,0 11.5337014,0.550051636 12.9398148,1.59066101 C14.0535541,2.41287538 14.9387321,3.51596305 15.4998236,4.78074213 L15.5983573,5.00289796 L16.160759,3.42499951 C16.2341558,3.21563049 16.4323394,3.07526663 16.6540585,3.07526663 C16.714256,3.07526663 16.7737985,3.08574843 16.8310359,3.10639659 C17.1067653,3.2058766 17.2466682,3.50543273 17.1494932,3.78834416 L16.0279896,6.92570087 C15.953695,7.13494857 15.7542983,7.27540948 15.5317542,7.27540948 C15.5292308,7.27519111 15.5203989,7.27291035 15.5139691,7.27126044 C15.503269,7.26851867 15.4899726,7.26509753 15.4752932,7.26301088 L15.4684995,7.26204034 L15.4616087,7.26204034 C15.448652,7.26204034 15.4379033,7.26383583 15.4307699,7.26502474 L15.4285619,7.26536443 C15.3621529,7.26500048 15.2991651,7.25284451 15.2412969,7.22918768 L12.0879263,5.99660615 C11.8168797,5.8892648 11.6825817,5.58327887 11.7889282,5.31463433 C11.8694342,5.11128264 12.0626438,4.97989624 12.2811359,4.97989624 C12.3462589,4.97989624 12.4103871,4.99190663 12.4717978,5.01556346 L14.8084375,5.92684883 L14.7385589,5.7275734 C14.2748365,4.40514445 13.435298,3.26702041 12.3106402,2.43621679 C11.0843914,1.52888635 9.62727625,1.04927142 8.09690983,1.04927142 C7.02449111,1.04927142 5.95001001,1.29450176 4.98961549,1.758394 C3.98251389,2.24485123 3.1300673,2.94344349 2.45598109,3.83478434 C1.33154161,5.31822531 0.857701362,7.1439503 1.12178438,8.97557129 C1.38594019,10.8183777 2.36123245,12.4467926 3.86799057,13.560726 C5.09394818,14.4688086 6.5516214,14.9488846 8.08307968,14.9488846 L8.08375906,14.9488846 C9.15603219,14.9487875 10.2305133,14.7037998 11.1909563,14.2404171 C12.1983976,13.7543966 13.051281,13.0563624 13.7259495,12.1656524 C14.3345245,11.3643531 14.7516126,10.4641561 14.9654704,9.49005276 C15.0175396,9.25100959 15.2330473,9.07759895 15.477938,9.07759895 C15.5157646,9.07759895 15.5538339,9.08177226 15.5910783,9.08994903 C15.8733346,9.15206338 16.0528353,9.43276683 15.991182,9.71570252 C15.7435253,10.8384678 15.2629884,11.8761413 14.562916,12.7996797 C13.7868507,13.8241782 12.8070212,14.6268362 11.6506268,15.1853558 C10.5471751,15.7183017 9.3122158,16 8.07927033,16" id="Fill-1" fill="#232120" mask="url(#mask-2)"></path>
            </g>
        </g>
    </g>
</svg>