<?xml version="1.0" encoding="UTF-8"?>
<svg width="17px" height="16px" viewBox="0 0 17 16" version="1.1" xmlns="http://www.w3.org/2000/svg" xmlns:xlink="http://www.w3.org/1999/xlink">
    <title>shezhi</title>
    <defs>
        <polygon id="path-1" points="0 0 16.0185425 0 16.0185425 16 0 16"></polygon>
    </defs>
    <g id="页面-1" stroke="none" stroke-width="1" fill="none" fill-rule="evenodd">
        <g id="launchpad-swap" transform="translate(-1559.000000, -245.000000)">
            <g id="shezhi" transform="translate(1559.000000, 245.000000)">
                <mask id="mask-2" fill="white">
                    <use xlink:href="#path-1"></use>
                </mask>
                <g id="Clip-2"></g>
                <path d="M7.9585486,10.9499637 C6.35851271,10.9499637 5.05857776,9.65002206 5.05857776,8.0499929 C5.05857776,6.44995701 6.35851271,5.15002206 7.9585486,5.15002206 C9.55857776,5.15002206 10.8585194,6.44995701 10.8585194,8.0499929 C10.8585194,9.65002206 9.55857776,10.9499637 7.9585486,10.9499637 Z M7.9585486,5.95005196 C6.79853156,5.95005196 5.85860767,6.88997585 5.85860767,8.0499929 C5.85860767,9.21003387 6.79853156,10.1500535 7.9585486,10.1500535 C9.11858958,10.1500535 10.0586092,9.21003387 10.0586092,8.0499929 C10.0586092,6.88997585 9.11858958,5.95005196 7.9585486,5.95005196 Z" id="Fill-1" fill="#232120" mask="url(#mask-2)"></path>
                <path d="M8.8585643,16 L7.25855234,16 C6.34851174,16 5.6086073,15.2599759 5.6086073,14.3499593 L5.6086073,13.9100361 C5.6086073,13.8900342 5.59860632,13.8700322 5.57860438,13.8600313 L5.56860341,13.8600313 C5.54860146,13.8500303 5.52859952,13.8600313 5.50859758,13.8700322 L5.22859429,14.1600365 C4.91858808,14.469947 4.51857313,14.6399635 4.08855526,14.6399635 C3.65856131,14.6399635 3.25854636,14.469947 2.95854113,14.1700375 L1.82859877,13.0400233 C1.20858636,12.4200109 1.20858636,11.4099845 1.82859877,10.7799711 L2.1285083,10.4899669 C2.14851025,10.4699649 2.14851025,10.449963 2.13850927,10.429961 L2.13850927,10.4199601 C2.1285083,10.3999581 2.10853028,10.3899572 2.08852834,10.3899572 L1.6486052,10.3899572 C0.738588529,10.3899572 -0.00143554622,9.65002879 -0.00143554622,8.74001211 L-0.00143554622,7.23998594 C0.00856542577,6.33997024 0.748589501,5.60004187 1.65860617,5.60004187 L2.0685264,5.60004187 C2.08852834,5.60004187 2.10853028,5.5900409 2.11850733,5.56003798 C2.1285083,5.54003604 2.13850927,5.51003312 2.14851025,5.49003118 C2.15851122,5.47002923 2.14851025,5.45002729 2.13850927,5.43002535 L1.82859877,5.11001817 C1.20858636,4.5 1.20858636,3.48000329 1.82859877,2.85996695 L2.95854113,1.73004852 C3.25854636,1.43004329 3.65856131,1.26002677 4.08855526,1.26002677 C4.51857313,1.26002677 4.91858808,1.43004329 5.21859331,1.73004852 L5.50859758,2.03005376 C5.51859855,2.04996 5.54860146,2.04996 5.56860341,2.04005473 L5.57860438,2.04005473 C5.59860632,2.03005376 5.6086073,2.01005181 5.6086073,1.99004987 L5.6086073,1.65004075 C5.6086073,0.740024075 6.34851174,0 7.25855234,0 L8.8585643,0 C9.70859907,0 10.4085236,0.700020187 10.4085236,1.55003103 L10.4085236,1.96004695 C10.4085236,1.9800489 10.4185245,2.00005084 10.4485274,2.01005181 C10.4785304,2.02005279 10.4985084,2.03005376 10.5185103,2.04005473 C10.5385123,2.04996 10.5585142,2.04005473 10.5785162,2.03005376 L10.8985233,1.72004755 C11.5185357,1.10003514 12.5285621,1.10003514 13.1585755,1.73004852 L14.2886136,2.85996695 C14.5885231,3.15999611 14.7585157,3.55998714 14.7585157,3.99000501 C14.7585157,4.42002288 14.5885231,4.82001391 14.2886136,5.12001914 L13.9886083,5.43002535 C13.9786074,5.44002632 13.9686064,5.47002923 13.9786074,5.48003021 C13.9886083,5.50003215 13.9986093,5.53003507 14.0085864,5.55003701 C14.0185873,5.57003895 14.0385893,5.5900409 14.0585912,5.5900409 L14.4685114,5.5900409 C15.3185223,5.5900409 16.0185425,6.28996538 16.0185425,7.13997622 L16.0185425,8.84002183 C16.0185425,9.69003267 15.3185223,10.3899572 14.4685114,10.3899572 L14.0285883,10.3899572 C14.0085864,10.3899572 13.9886083,10.3999581 13.9786074,10.4199601 C13.9686064,10.449963 13.9686064,10.4699649 13.9886083,10.4899669 L14.2786126,10.7699702 C14.5885231,11.0799764 14.7585157,11.4799913 14.7485147,11.9099853 C14.7485147,12.3400031 14.5785221,12.7400181 14.2786126,13.0400233 L13.1485745,14.1700375 C12.8485693,14.469947 12.4485544,14.6399635 12.0185604,14.6399635 C11.5885425,14.6399635 11.1885276,14.469947 10.8885224,14.1700375 L10.5785162,13.8700322 C10.5685152,13.8600313 10.5385123,13.8500303 10.5285113,13.8600313 C10.5085093,13.8700322 10.4785304,13.8800332 10.4585284,13.8900342 C10.4385265,13.9000351 10.4185245,13.9200371 10.4185245,13.940039 L10.4185245,14.449969 C10.4085236,15.2999798 9.70859907,16 8.8585643,16 Z M5.90861253,13.140033 C6.21852303,13.2800227 6.40851757,13.580028 6.40851757,13.9200371 L6.40851757,14.3599602 C6.40851757,14.8299581 6.78853058,15.2099711 7.25855234,15.2099711 L8.8585643,15.2099711 C9.26858023,15.2099711 9.60858935,14.8699619 9.60858935,14.4599699 L9.60858935,13.95004 C9.60858935,13.6000299 9.81860976,13.2900237 10.148594,13.1600111 C10.1685959,13.150034 10.1785969,13.150034 10.1985988,13.140033 C10.5185103,13.0000194 10.8785214,13.0700262 11.1285457,13.3100309 L11.4385519,13.6100309 C11.7585591,13.9300381 12.2685608,13.9300381 12.578567,13.6100309 L13.7085811,12.4800167 C13.8585957,12.3300022 13.9386035,12.1300067 13.9386035,11.9099853 C13.9386035,11.6999888 13.8585957,11.4999933 13.7085811,11.3399777 L13.4285778,11.0699754 C13.1685765,10.819975 13.0885687,10.439962 13.2385833,10.1100496 L13.2385833,10.1000486 C13.368572,9.80004337 13.6786021,9.60004785 14.0185873,9.60004785 L14.4585105,9.60004785 C14.8685264,9.60004785 15.2085355,9.26003873 15.2085355,8.8500228 L15.2085355,7.1499772 C15.2085355,6.73996127 14.8685264,6.39997607 14.4585105,6.39997607 L14.0485902,6.39997607 C13.6985802,6.39997607 13.3885739,6.18995566 13.2585852,5.86004322 C13.2485843,5.84004127 13.2485843,5.8300403 13.2385833,5.81003088 C13.0985697,5.49003118 13.1685765,5.13002011 13.4085759,4.88001974 L13.7085811,4.57001353 C13.8585957,4.42002288 13.9486045,4.21000247 13.9486045,4.00000598 C13.9486045,3.78000852 13.8685967,3.57998908 13.7185821,3.42999843 L12.588568,2.29996037 C12.2785618,1.99004987 11.76856,1.99004987 11.4585299,2.29996037 L11.1285457,2.60996658 C10.8785214,2.84998991 10.5085093,2.90997181 10.1985988,2.7799831 C10.1885979,2.76998213 10.1685959,2.76998213 10.148594,2.75998116 C9.81860976,2.62996852 9.60858935,2.31996232 9.60858935,1.97004793 L9.60858935,1.560032 C9.60858935,1.15004 9.26858023,0.810030879 8.8585643,0.810030879 L7.25855234,0.810030879 C6.78853058,0.810030879 6.40851757,1.19004389 6.40851757,1.66004172 L6.40851757,2.00005084 C6.40851757,2.33996426 6.20852206,2.63996949 5.89861156,2.7799831 C5.56860341,2.92997376 5.1885904,2.84998991 4.93859002,2.59996561 L4.64858576,2.29996037 C4.49857118,2.14996972 4.29857567,2.06996194 4.08855526,2.06996194 C3.87855877,2.06996194 3.67856326,2.14996972 3.52854868,2.29996037 L2.39853455,3.41999746 C2.08852834,3.73000366 2.08852834,4.24000538 2.39853455,4.55001159 L2.70854075,4.88001974 C2.94854015,5.13002011 3.01854696,5.50003215 2.87853335,5.81003088 C2.86853238,5.82003933 2.86853238,5.84004127 2.85853141,5.86004322 C2.7285427,6.18995566 2.41853649,6.39997607 2.0685264,6.39997607 L1.65860617,6.39997607 C1.18858442,6.39997607 0.808571407,6.77996516 0.808571407,7.24998692 L0.808571407,8.75001308 C0.808571407,9.22003484 1.18858442,9.60004785 1.65860617,9.60004785 L2.09852931,9.60004785 C2.43851451,9.60004785 2.73854367,9.80004337 2.87853335,10.1100496 L2.87853335,10.1200505 C3.01854696,10.439962 2.94854015,10.829976 2.69853978,11.0699754 L2.39853455,11.3599797 C2.08852834,11.6699859 2.08852834,12.1700105 2.39853455,12.4800167 L3.52854868,13.6100309 C3.67856326,13.7600455 3.87855877,13.8400293 4.08855526,13.8400293 C4.29857567,13.8400293 4.49857118,13.7600455 4.65858673,13.6000299 L4.92858905,13.3200266 C5.17858943,13.0600253 5.55860244,12.9800175 5.88861059,13.1300321 L5.90861253,13.140033 Z" id="Fill-3" fill="#232120" mask="url(#mask-2)"></path>
            </g>
        </g>
    </g>
</svg>