<?xml version="1.0" encoding="UTF-8"?>
<svg width="16px" height="16px" viewBox="0 0 16 16" version="1.1" xmlns="http://www.w3.org/2000/svg" xmlns:xlink="http://www.w3.org/1999/xlink">
    <title>shijian (2)</title>
    <g id="页面-1" stroke="none" stroke-width="1" fill="none" fill-rule="evenodd">
        <g id="launchpad-swap" transform="translate(-1596.000000, -245.000000)" fill="#232120">
            <g id="shijian-(2)" transform="translate(1596.000000, 245.000000)">
                <path d="M7.98787092,0 C10.1844801,0 12.1812116,0.900243774 13.6289082,2.35008907 C15.0767384,3.8000681 15.975669,5.79996697 15.975669,8.0000365 C15.975669,10.2136564 15.080757,12.2100224 13.6381208,13.6547869 C12.1896376,15.1054072 10.1890344,16 7.98787092,16 C5.79122447,16 3.79448296,15.0997653 2.34678136,13.6499407 C0.898933433,12.1999695 0,10.2000805 0,8.0000365 C0,5.79996024 0.898930083,3.80005578 2.34677405,2.35007574 C3.79447615,0.900237793 5.79122072,0 7.98787092,0 Z M7.98787092,0.985363786 C6.06150799,0.985363786 4.31010747,1.77425724 3.04041656,3.04582138 C1.77086363,4.31724734 0.983151835,6.07102261 0.983151835,8.0000365 C0.983151835,9.92902324 1.77087178,11.682814 3.04043755,12.9542574 C4.31012697,14.2258247 6.06151898,15.0147335 7.98787092,15.0147335 C9.91419576,15.0147335 11.6656033,14.2258165 12.9353101,12.9542364 C14.2048789,11.6827945 14.9926143,9.92901224 14.9926143,8.0000365 C14.9926143,6.0710336 14.2048871,4.31726687 12.9353311,3.0458424 C11.6656228,1.77426541 9.91420674,0.985363786 7.98787092,0.985363786 Z" id="Fill-1"></path>
                <path d="M6.89141185,3.89844878 C7.37336962,3.75364689 7.49603643,3.8093291 7.5850426,3.89846657 C7.67418674,3.98774224 7.72980641,4.11079922 7.72980641,4.24631662 L7.72980641,4.24631662 L7.72980641,8.25810101 L10.9863355,8.25810101 C11.1214966,8.25810101 11.2441775,8.31375857 11.333184,8.40289636 C11.4223285,8.49217233 11.4779235,8.61524342 11.4779235,8.75079507 C11.4779235,8.88630136 11.4223269,9.0093365 11.3331913,9.09858917 C11.2441821,9.18771526 11.1214985,9.24336747 10.9863355,9.24336747 L10.9863355,9.24336747 L7.23824264,9.24336747 C7.10307961,9.24336747 6.98039603,9.18771526 6.89138682,9.09858917 C6.80225119,9.0093365 6.74665457,8.88630136 6.74665457,8.75079507 L6.74665457,8.75079507 L6.74665457,4.24631662 C6.74665457,4.11079233 6.80226265,3.98772662 6.89141185,3.89844878 Z" id="Fill-2"></path>
            </g>
        </g>
    </g>
</svg>