<?xml version="1.0" encoding="UTF-8"?>
<svg width="18px" height="18px" viewBox="0 0 18 18" version="1.1" xmlns="http://www.w3.org/2000/svg" xmlns:xlink="http://www.w3.org/1999/xlink">
    <title>qiapianxingshi备份 2</title>
    <g id="页面-1" stroke="none" stroke-width="1" fill="none" fill-rule="evenodd">
        <g id="launchpad-farm-列表" transform="translate(-383.000000, -739.000000)" fill="#F68731">
            <g id="qiapianxingshi备份-2" transform="translate(383.000000, 739.000000)">
                <path d="M6.22942648,8.30600113 L2.07643944,8.30600113 C0.930307606,8.30600113 0,7.37566648 0,6.22945352 L0,2.07643944 C0,0.930334648 0.930307606,0 2.07643944,0 L6.22942648,0 C7.37566648,0 8.30597408,0.930334648 8.30597408,2.07643944 L8.30597408,6.22945352 C8.30597408,7.37566648 7.37566648,8.30600113 6.22942648,8.30600113 Z M2.07643944,1.38434704 C1.69690141,1.38434704 1.38432,1.69690141 1.38432,2.07643944 L1.38432,6.22945352 C1.38432,6.60909972 1.69690141,6.92165408 2.07643944,6.92165408 L6.22942648,6.92165408 C6.60907268,6.92165408 6.92165408,6.60909972 6.92165408,6.22945352 L6.92165408,2.07643944 C6.92165408,1.69690141 6.60907268,1.38434704 6.22942648,1.38434704 L2.07643944,1.38434704 Z" id="Fill-1"></path>
                <path d="M6.22942648,18 L2.07643944,18 C0.930307606,18 0,17.0696924 0,15.9235606 L0,11.7667606 C0,10.6206287 0.930307606,9.69032113 2.07643944,9.69032113 L6.22942648,9.69032113 C7.37566648,9.69032113 8.30597408,10.6206287 8.30597408,11.7667606 L8.30597408,15.9197476 C8.30597408,17.0659876 7.37566648,18 6.22942648,18 Z M2.07643944,11.0746411 C1.69690141,11.0746411 1.38432,11.3835177 1.38432,11.7667606 L1.38432,15.9197476 C1.38432,16.3030986 1.69690141,16.6119752 2.07643944,16.6119752 L6.22942648,16.6119752 C6.60907268,16.6119752 6.92165408,16.3030986 6.92165408,15.9197476 L6.92165408,11.7667606 C6.92165408,11.3835177 6.60907268,11.0746411 6.22942648,11.0746411 L2.07643944,11.0746411 Z" id="Fill-2"></path>
                <path d="M15.9235606,18 L11.7667606,18 C10.6206287,18 9.69032113,17.0696924 9.69032113,15.9235606 L9.69032113,14.5392406 C9.69032113,13.3930006 10.6206287,12.462693 11.7667606,12.462693 L15.9197476,12.462693 C17.0659876,12.462693 17.9963062,13.3930006 17.9963062,14.5392406 L17.9963062,15.9235606 C18,17.0659876 17.0659876,18 15.9235606,18 Z M11.7667606,13.847013 C11.3835177,13.847013 11.0746411,14.1558896 11.0746411,14.5392406 L11.0746411,15.9235606 C11.0746411,16.3068034 11.3835177,16.61568 11.7667606,16.61568 L15.9197476,16.61568 C16.3030986,16.61568 16.6119752,16.3068034 16.6119752,15.9235606 L16.6119752,14.5392406 C16.6119752,14.1558896 16.3030986,13.847013 15.9197476,13.847013 L11.7667606,13.847013 Z" id="Fill-3"></path>
                <path d="M15.9235606,11.0746411 L11.7667606,11.0746411 C10.6206287,11.0746411 9.69032113,10.1443335 9.69032113,8.99809352 L9.69032113,2.07643944 C9.69032113,0.930334648 10.6206287,0 11.7667606,0 L15.9197476,0 C17.0659876,0 17.9963062,0.930334648 17.9963062,2.07643944 L17.9963062,8.99809352 C18,10.1443335 17.0659876,11.0746411 15.9235606,11.0746411 Z M11.7667606,1.38434704 C11.3835177,1.38434704 11.0746411,1.69690141 11.0746411,2.07643944 L11.0746411,8.99809352 C11.0746411,9.37773972 11.3835177,9.69032113 11.7667606,9.69032113 L15.9197476,9.69032113 C16.3030986,9.69032113 16.6119752,9.37773972 16.6119752,8.99809352 L16.6119752,2.07643944 C16.6119752,1.69690141 16.3030986,1.38434704 15.9197476,1.38434704 L11.7667606,1.38434704 Z" id="Fill-4"></path>
            </g>
        </g>
    </g>
</svg>