<?xml version="1.0" encoding="UTF-8"?>
<svg width="14px" height="15px" viewBox="0 0 14 15" version="1.1" xmlns="http://www.w3.org/2000/svg" xmlns:xlink="http://www.w3.org/1999/xlink">
    <title>swap</title>
    <defs>
        <linearGradient x1="47.71013%" y1="59.1127129%" x2="79.9184395%" y2="-4.0194749%" id="linearGradient-1">
            <stop stop-color="#3D4663" offset="14%"></stop>
            <stop stop-color="#38415C" offset="54%"></stop>
            <stop stop-color="#2F364D" offset="100%"></stop>
        </linearGradient>
        <linearGradient x1="47.2799508%" y1="-12.3702467%" x2="51.9458667%" y2="93.2456752%" id="linearGradient-2">
            <stop stop-color="#616B8C" offset="0%"></stop>
            <stop stop-color="#5C6687" offset="30%"></stop>
            <stop stop-color="#505978" offset="66%"></stop>
            <stop stop-color="#3D4663" offset="100%"></stop>
        </linearGradient>
        <linearGradient x1="73.3379277%" y1="-11.0235724%" x2="30.9508633%" y2="106.903722%" id="linearGradient-3">
            <stop stop-color="#616B8C" offset="0%"></stop>
            <stop stop-color="#747E9F" offset="51%"></stop>
            <stop stop-color="#7E87A8" offset="91%"></stop>
        </linearGradient>
        <linearGradient x1="34.405793%" y1="85.6418491%" x2="72.6429775%" y2="25.2091083%" id="linearGradient-4">
            <stop stop-color="#FBDE21" offset="0%"></stop>
            <stop stop-color="#FBA317" offset="84%"></stop>
        </linearGradient>
        <linearGradient x1="0%" y1="50%" x2="100%" y2="50%" id="linearGradient-5">
            <stop stop-color="#FBA317" offset="16%"></stop>
            <stop stop-color="#FBDE21" offset="100%"></stop>
        </linearGradient>
        <linearGradient x1="-0.00991768323%" y1="50.0085208%" x2="100%" y2="50.0085208%" id="linearGradient-6">
            <stop stop-color="#FBA317" offset="0%"></stop>
            <stop stop-color="#FBDE21" offset="82%"></stop>
        </linearGradient>
        <linearGradient x1="36.8248341%" y1="85.3953647%" x2="64.5985113%" y2="9.97216542%" id="linearGradient-7">
            <stop stop-color="#FBA317" offset="0%"></stop>
            <stop stop-color="#FBDE21" offset="74%"></stop>
        </linearGradient>
        <linearGradient x1="39.1559983%" y1="107.325411%" x2="58.4452077%" y2="5.35398327%" id="linearGradient-8">
            <stop stop-color="#000000" offset="0%"></stop>
            <stop stop-color="#676A70" offset="82%"></stop>
        </linearGradient>
        <linearGradient x1="56.4538219%" y1="30.6512225%" x2="27.6682605%" y2="84.1983456%" id="linearGradient-9">
            <stop stop-color="#7E87A8" offset="0%"></stop>
            <stop stop-color="#3D4663" offset="100%"></stop>
        </linearGradient>
    </defs>
    <g id="页面-1" stroke="none" stroke-width="1" fill="none" fill-rule="evenodd">
        <g id="Ostrich-trade" transform="translate(-805.000000, -37.000000)" fill-rule="nonzero">
            <g id="swap" transform="translate(805.000000, 37.000000)">
                <polygon id="路径" fill="#2F364D" points="5.96584754 14.3145132 7.23850751 14.9146866 7.245143 15 5.97275386 14.3839827"></polygon>
                <path d="M11.3090423,11.1923119 C12.14701,9.92181858 12.7725065,8.13050701 12.7834754,7.3091958 L11.9861332,7.11784992 C11.5823162,10.2105301 9.14749747,13.512296 7.30635202,14.8667485 C7.2838726,14.8832695 7.26112235,14.8988426 7.23864293,14.9146866 L7.24527842,15 C7.36458183,14.9274159 9.46573017,13.9886971 11.3090423,11.1923119 Z" id="路径" fill="url(#linearGradient-1)"></path>
                <polygon id="路径" fill="url(#linearGradient-2)" points="12.8945183 7.91370251 13.6177867 7.64422035 12.4435758 4.01704463 11.3982829 4.19065073"></polygon>
                <path d="M12.8945183,7.91370251 L11.3982829,4.19065073 L9.23944641,6.14473494 L10.3324065,6.67611585 C9.85708869,9.67346165 8.19279936,12.7210476 6.01256681,14.2812003 L5.96571212,14.3143778 L7.23864293,14.9145511 L7.30635202,14.8666131 C9.47669905,13.3132313 11.4157518,10.6438683 12.0522172,7.49187491 L12.8945183,7.91370251 Z" id="路径" fill="url(#linearGradient-3)"></path>
                <path d="M11.3982829,4.19065073 C11.4649086,4.34407952 11.5290969,4.49845623 11.5945038,4.65229128 L11.7867976,5.11555684 C11.9149032,5.42444569 12.0400296,5.7345533 12.1659685,6.04466091 C12.2919074,6.35476853 12.4143254,6.66555323 12.5356601,6.97715044 L12.7173913,7.44461397 C12.776569,7.60102196 12.837101,7.75688827 12.8951954,7.91370251 C12.8285696,7.76040914 12.7643814,7.60589701 12.6989744,7.45206197 L12.5066806,6.9887964 C12.378575,6.67990755 12.2533132,6.36979994 12.1275098,6.05982775 C12.0017063,5.74985555 11.8791528,5.43880001 11.7579536,5.1272028 L11.576087,4.65973927 C11.5169092,4.50333129 11.4563773,4.3469233 11.3982829,4.19065073 Z" id="路径" fill="#95A0C7"></path>
                <path d="M7.3062166,14.8667485 C7.38015492,14.8096021 7.45517659,14.7534035 7.52803156,14.6954445 L7.63758486,14.6079644 C7.67401235,14.5788495 7.71071067,14.5500054 7.7459194,14.5196717 L7.85330601,14.4297541 C7.87104579,14.4147227 7.88919182,14.3999621 7.90679619,14.3846598 L7.95947386,14.3384822 C8.02948505,14.2767315 8.10017334,14.2166059 8.16828868,14.1520114 C8.44445147,13.9011267 8.70869746,13.6381446 8.96102665,13.3630651 C9.21276903,13.0881663 9.45394879,12.8036527 9.68104507,12.5081702 C9.90814134,12.2126878 10.1241333,11.9088094 10.3250939,11.5951809 C10.5260545,11.2815524 10.7156399,10.9602051 10.8895168,10.6303264 C11.0633938,10.3004478 11.2230518,9.96366279 11.3686263,9.62051314 C11.5142009,9.2773635 11.6436606,8.92717211 11.7574119,8.57183483 L11.7997978,8.43844793 C11.8133396,8.39403077 11.8281002,8.34947819 11.8404232,8.30451936 L11.8792882,8.17004911 C11.8920176,8.12509028 11.9063719,8.0805377 11.9172053,8.03463094 C11.9406327,7.9441716 11.9648725,7.8539831 11.9874874,7.7637946 L12.0522172,7.49187491 L11.9989979,7.76718005 C11.9794977,7.85858732 11.9583725,7.94958833 11.9376535,8.04099559 C11.9279034,8.08676694 11.9154449,8.13172577 11.9042052,8.17722627 L11.8696736,8.31264445 C11.8585693,8.35814495 11.84584,8.4032392 11.8329752,8.44806262 L11.7950581,8.58348079 C11.6898834,8.94288062 11.5671042,9.29663802 11.4267207,9.644753 C11.2873754,9.99264228 11.1288007,10.3328127 10.9570905,10.6659414 C10.7853803,10.9990701 10.595524,11.3231258 10.3930738,11.6386502 C10.1906236,11.9541745 9.97246497,12.2596779 9.74130615,12.5548895 C9.51014733,12.8501011 9.26598837,13.1355626 9.00733966,13.406399 C8.74970338,13.6783972 8.47852311,13.9372388 8.19483064,14.1819388 C8.12454861,14.2438249 8.05169363,14.3025964 7.97951574,14.362045 L7.92534848,14.4065976 C7.90720244,14.4213582 7.88865015,14.4355771 7.87023328,14.4500668 L7.75986747,14.536599 C7.72330456,14.5658493 7.68565831,14.5936101 7.64814748,14.6215062 L7.5357504,14.7054655 C7.45964538,14.7605807 7.38259245,14.8128521 7.3062166,14.8667485 Z" id="路径" fill="#95A0C7"></path>
                <g id="_" transform="translate(3.479018, 2.273807)">
                    <polygon id="路径" fill="#FBA317" points="3.29595266 11.4099289 2.0330428 10.6867958 2.03087611 9.90922469 3.4251416 10.4809602"></polygon>
                    <path d="M2.75170703,8.92744294 L2.00541749,8.3711451 C2.13704395,8.44752094 2.32337936,8.452396 2.56130908,8.3219883 C2.56984043,8.31738408 2.57823635,8.31250903 2.58663228,8.30776939 C3.04705406,8.0418081 3.29080677,7.57041745 3.29080677,7.21318431 C3.29080677,6.98717139 3.20698292,6.85852412 3.07318977,6.78065867 L4.33461004,7.50338545 C4.46840319,7.58111548 4.65216565,7.69473133 4.65271186,7.92074426 C4.65379067,8.27797739 4.46081977,8.75898274 4.00026257,9.02494403 C3.99200206,9.02968366 3.78291641,9.15819551 3.77452048,9.16293514 C3.53699701,9.29347826 2.88319808,9.00395421 2.75170703,8.92744294 Z" id="路径" fill="url(#linearGradient-4)"></path>
                    <path d="M1.76599816,10.7050773 L0.503088298,9.98153799 C0.174563814,9.79059837 -0.0115007533,9.42185469 0.000551463952,8.91877618 L1.46618233,9.52693919 C1.45426553,10.0304239 1.43747368,10.5141377 1.76599816,10.7050773 Z" id="路径" fill="#FBA317"></path>
                    <polygon id="路径" fill="#FBDE21" points="1.26346133 9.64245089 0.000551463952 8.91918244 1.77317533 7.89582731 3.03594977 8.61896035"></polygon>
                    <path d="M3.23298321,2.97906435 L4.61546732,3.66793659 C4.82211545,3.78805251 4.73734368,4.17846309 4.73287488,4.43805973 L3.47010043,3.71479128 C3.47456923,3.45533006 3.43949592,3.09918027 3.23298321,2.97906435 Z" id="路径" fill="#FBA317"></path>
                    <path d="M3.43611047,5.31787159 L2.23210751,4.46189333 C2.43902647,4.58214466 2.7641655,4.5973115 3.09133581,4.64213491 C3.28823383,4.66921855 3.4859895,4.69702441 3.68460281,4.72555251 C4.04319013,4.77443847 4.4066525,4.83226203 4.68669728,4.9953055 L5.95014882,5.71857396 C5.66956237,5.55539506 5.36934028,5.59886429 5.01075297,5.54997833 C4.81222993,5.52167594 4.56143547,5.50826954 4.36453745,5.48091507 C4.03736715,5.43582081 3.64289402,5.43812292 3.43611047,5.31787159 Z" id="路径" fill="url(#linearGradient-5)"></path>
                    <path d="M4.65148856,1.5284649 L5.91439842,2.25173335 C5.58682187,2.0613354 5.10730612,2.20501408 4.45188217,2.46339195 L3.18355558,1.59509064 C3.8380316,1.33671277 4.323912,1.33806695 4.65148856,1.5284649 Z" id="路径" fill="url(#linearGradient-6)"></path>
                    <polygon id="路径" fill="#FBA317" points="3.27198365 2.98204355 2.00907378 2.2587751 2.00704251 1.5388921 3.87215698 1.84236422"></polygon>
                    <polygon id="路径" fill="#FBDE21" points="3.26995237 2.26216055 2.00704251 1.5388921 3.18111805 0.861124151 4.44402792 1.58425719"></polygon>
                    <path d="M1.98280266,7.02657807 L0.71989279,6.30330962 C0.371326417,6.10018236 0.205303739,5.74376174 0.234147809,5.06071248 C0.275992024,4.10073306 0.944009863,3.01291889 2.00907378,2.2587751 L3.27198365,2.98204355 C2.20691973,3.73605193 1.65861155,4.77823017 1.61676734,5.73820959 C1.58751701,6.42125885 1.63423628,6.82385707 1.98280266,7.02657807 Z" id="路径" fill="url(#linearGradient-7)"></path>
                    <path d="M4.44402792,1.58425719 L4.44605919,2.31835909 C5.808366,1.78074895 6.43914384,2.36751589 6.43562296,3.44084031 L4.73287488,4.43805973 C4.74005204,4.03546151 4.65162398,3.4004857 3.9758873,3.77451069 L3.9535433,3.78724 C3.51654886,4.03952405 3.28186917,4.47421638 3.27374408,4.74965694 C3.26020227,5.29904846 3.80390622,5.28943377 4.35424567,5.36540337 C4.55114369,5.392487 4.74889936,5.42024772 4.94751268,5.44868554 C5.69800019,5.55106168 6.46920667,5.69243825 6.45986282,6.75574173 C6.44401889,7.87768128 5.63706201,9.05785064 4.4677261,9.92818323 L4.47002821,10.7321609 L3.29595266,11.4099289 L3.29365055,10.6324931 C2.08544963,11.1625199 1.23840897,10.6992543 1.26346133,9.64299256 L3.03594977,8.61896035 C3.0279601,8.9680684 3.30150481,9.33058284 3.82367728,9.04525675 C3.83220862,9.04051712 3.84060455,9.03577748 3.84886506,9.03090243 C4.30928684,8.76507656 4.55303955,8.2936859 4.55303955,7.93645277 C4.55168537,7.44420771 4.15870183,7.41360321 3.70478012,7.36525892 C3.48738882,7.34052253 3.27049405,7.31628268 3.05409581,7.29253936 C1.98889647,7.17404846 1.4465467,6.97349415 1.49678684,5.78384551 C1.53849564,4.8238661 2.20664889,3.73605193 3.27171281,2.98204355 L3.26995237,2.26270222 L4.44402792,1.58425719 Z" id="路径" fill="#FBCB21"></path>
                    <path d="M4.44402792,1.58425719 C4.44953492,1.70667521 4.45404886,1.82900296 4.45756974,1.95124043 C4.45964615,2.01244944 4.46136145,2.07361332 4.46271563,2.13473205 L4.46731984,2.31822367 L4.4379341,2.29845262 L4.5221642,2.26527517 L4.56482093,2.24916041 L4.60761307,2.23399357 C4.63605089,2.22410805 4.6644887,2.21368085 4.69319735,2.20420157 L4.7800004,2.17711794 C4.89642874,2.14291361 5.01518663,2.11720687 5.13533768,2.10020042 C5.25653819,2.08395496 5.37917229,2.08127518 5.50096675,2.09221075 C5.516269,2.09302326 5.53143583,2.09600246 5.54660267,2.09803373 L5.59223859,2.10494005 C5.62243685,2.1104922 5.65249968,2.11848187 5.68256251,2.12471111 L5.72684426,2.13825293 L5.74905284,2.14515925 L5.76002171,2.14854471 L5.77085516,2.15274267 L5.81405356,2.16966994 C5.82123072,2.17264914 5.8285433,2.17522209 5.83558505,2.1783367 L5.85643945,2.18862848 L5.89814824,2.20907663 C5.91169006,2.21625379 5.92523188,2.22492055 5.93877369,2.23277481 L5.95868017,2.24482703 L5.96856569,2.25092084 L5.97804496,2.25769175 L6.0155558,2.28477539 C6.02819986,2.29372151 6.04027538,2.30344524 6.05171245,2.31389029 L6.08678576,2.34435938 L6.11928612,2.37740142 C6.13041761,2.38810387 6.14090816,2.39945357 6.15070313,2.41139138 C6.23018216,2.50529258 6.29318475,2.61197575 6.33703854,2.72691572 C6.3793608,2.84081588 6.40808773,2.95931444 6.42262282,3.07995089 C6.43740915,3.19955122 6.44193959,3.32019704 6.43616464,3.44056948 C6.43171585,3.32087983 6.41891023,3.20164724 6.39784129,3.0837426 C6.37720917,2.96677122 6.34364528,2.85245416 6.29776727,2.74289506 C6.25219312,2.63463781 6.18910172,2.53462489 6.11102561,2.44687094 C6.1015548,2.43584226 6.09147288,2.42535345 6.08082736,2.41545392 L6.04968118,2.38484941 L6.0155558,2.35749494 C6.00472457,2.34774594 5.99328095,2.3386996 5.981295,2.33041131 L5.94608628,2.3057652 L5.93714868,2.29953597 L5.92780482,2.29411924 L5.9089817,2.28315037 C5.89638781,2.27597321 5.88406475,2.26825437 5.87120003,2.26161888 L5.83192876,2.24266034 L5.81242854,2.23318106 C5.80579305,2.23033728 5.79888672,2.22789975 5.79211581,2.22532681 L5.75149036,2.20948288 L5.741334,2.20555576 L5.73077138,2.20244114 L5.70991698,2.1962119 L5.66807277,2.18375343 C5.63949954,2.17779503 5.61119714,2.17021161 5.58248849,2.16574281 L5.53901925,2.15951358 C5.52452951,2.15761772 5.51017518,2.15477394 5.49555002,2.15409685 C5.37834454,2.14289311 5.26025672,2.14475526 5.14346277,2.159649 C5.02580286,2.17483454 4.90930356,2.19795343 4.79476098,2.22884768 C4.67979096,2.25904593 4.5668522,2.29750469 4.45459054,2.33826556 L4.42479854,2.34909902 L4.42479854,2.31835909 L4.42831941,2.13486747 C4.42940276,2.07365846 4.43075694,2.01249458 4.43238196,1.95137585 C4.43527088,1.82895782 4.43915287,1.70658493 4.44402792,1.58425719 Z" id="路径" fill="#FBE553"></path>
                    <path d="M3.26995237,2.26270222 C3.36135964,2.19499314 3.45601694,2.13297162 3.55135133,2.07216886 C3.64668573,2.0113661 3.74364514,1.95340712 3.84141706,1.89680233 C3.93918898,1.84019753 4.03817966,1.78562401 4.13825369,1.73308176 C4.23832772,1.68053951 4.33962051,1.63002853 4.44402792,1.58412177 C4.35275607,1.65183085 4.25809877,1.71398779 4.16276438,1.77479055 C4.06742998,1.83559331 3.97033516,1.89355229 3.87256324,1.95002167 C3.77479132,2.00649104 3.67580063,2.06119999 3.57626828,2.11374224 C3.47673592,2.16628449 3.37422437,2.21679546 3.26995237,2.26270222 Z" id="路径" fill="#FBE553"></path>
                    <path d="M3.05368955,7.29253936 L2.96092811,7.2853622 L2.86830208,7.27723711 L2.77567605,7.26735158 L2.68318544,7.25611187 C2.5594548,7.24059575 2.43680252,7.21744015 2.31593136,7.18677777 C2.30076452,7.18285064 2.28559769,7.17892352 2.27056627,7.17472555 L2.22560744,7.16118374 L2.2029926,7.15427741 L2.18078402,7.14642315 L2.13623144,7.13057923 C2.12160628,7.12489167 2.10698112,7.11866243 2.09235596,7.11283945 L2.07041821,7.10376643 C2.06324105,7.10065181 2.05606389,7.09713094 2.04888672,7.09374549 L2.00595916,7.07343276 L1.96397953,7.05068251 C1.9570732,7.04675538 1.95043771,7.04323451 1.94312513,7.03903654 L1.92281241,7.02630724 C1.90927059,7.01764047 1.89572877,7.0096508 1.88218695,7.00017153 L1.84345736,6.9715983 C1.8368851,6.96697266 1.83059921,6.96195298 1.82463423,6.95656688 L1.80635278,6.94099379 L1.78874842,6.92487903 C1.78279002,6.91959772 1.77723787,6.91363932 1.77141489,6.90808717 C1.76003976,6.89671205 1.74825838,6.88560776 1.73715409,6.87396179 C1.71537585,6.85013006 1.69485472,6.82517926 1.67567424,6.79921096 C1.5971317,6.69602232 1.54621447,6.57509389 1.51195367,6.45240503 C1.50707862,6.43710277 1.50437026,6.42152968 1.50044313,6.40609201 C1.496516,6.39065434 1.49285971,6.37508125 1.48960968,6.35950816 C1.48419295,6.32822656 1.47769288,6.29708038 1.47322408,6.26566337 L1.46699484,6.21867326 C1.46496357,6.20296476 1.46279688,6.18725625 1.46157811,6.17154774 L1.45751557,6.1242868 C1.45602597,6.10857829 1.45453637,6.09286978 1.45413011,6.07716127 C1.45277593,6.04574426 1.45047382,6.01419182 1.45020299,5.98236855 L1.45020299,5.88757583 L1.4525051,5.79278311 C1.45358844,5.7613661 1.45602597,5.72967825 1.45778641,5.69799039 C1.46761364,5.57216082 1.48676012,5.44723342 1.51506829,5.32423624 C1.5736309,5.07952481 1.66085609,4.8425759 1.77493576,4.61830131 C1.88843553,4.39497269 2.02326221,4.18314107 2.17753399,3.98576304 C2.48434318,3.59210394 2.85453372,3.25225539 3.27293157,2.9801477 C2.88021888,3.28240105 2.52664203,3.6329987 2.23549296,4.02950311 C2.21694067,4.05401379 2.19960715,4.07933699 2.18200279,4.10438935 L2.15491915,4.14217102 L2.12932512,4.18049437 C2.0949289,4.23127618 2.06161603,4.28314134 2.02965734,4.33514192 C1.96546913,4.43968475 1.90683306,4.54747761 1.85361372,4.65743717 C1.74467661,4.87632089 1.66142783,5.10707269 1.60552763,5.34509064 C1.57755401,5.4635343 1.55840749,5.58389035 1.54824574,5.70516756 C1.54634989,5.73550123 1.54377694,5.76556406 1.54255818,5.79603315 L1.5397144,5.88771125 L1.5397144,5.97938935 C1.5397144,6.00985844 1.54147484,6.04019211 1.54215193,6.0706612 C1.54598209,6.19168642 1.56231918,6.31199098 1.59090247,6.42965477 C1.59929839,6.45836343 1.60593388,6.48788459 1.61663192,6.51578073 L1.63125708,6.55816662 L1.64859061,6.59879207 C1.65143439,6.6056984 1.65414275,6.61233389 1.65712195,6.61937563 L1.6671429,6.6392821 C1.67391381,6.65282392 1.68068472,6.66636574 1.68732021,6.67909505 C1.70262246,6.70441824 1.71684137,6.73068937 1.73458115,6.75438755 C1.75140868,6.77873634 1.76948876,6.80219525 1.78874842,6.82466958 C1.79863394,6.83577387 1.80919656,6.84620107 1.81935292,6.85703452 C1.82449881,6.86231583 1.82950929,6.86800339 1.83492601,6.87301387 L1.85144703,6.88804528 C1.89573661,6.92836573 1.94380624,6.96432726 1.99499029,6.99543189 L2.03385531,7.0185884 L2.07448076,7.03957822 C2.08125167,7.04309909 2.08802257,7.04675538 2.09465807,7.05000542 L2.11537705,7.05948469 C2.12891886,7.06571392 2.14246068,7.072214 2.15681501,7.07830781 L2.19920089,7.0953705 L2.22046155,7.10390185 L2.24212845,7.11148527 L2.28532685,7.12678752 L2.32920234,7.14032934 C2.44705551,7.17638071 2.56686959,7.20567864 2.68806049,7.22808031 L2.77919692,7.24500758 L2.8707396,7.26058067 L2.96241771,7.27561209 L3.05368955,7.29253936 Z" id="路径" fill="#FBDE21"></path>
                    <path d="M3.03594977,8.61896035 C3.04229847,8.7223548 3.0732667,8.82273457 3.12627369,8.91173444 C3.15213007,8.95412514 3.1848503,8.99192502 3.22309769,9.02358985 C3.26048219,9.05420279 3.30349567,9.07720465 3.34971368,9.09129893 C3.3610888,9.0948198 3.37287018,9.09712191 3.38438073,9.09996569 C3.39589127,9.10280948 3.40780807,9.10416366 3.41986029,9.10511158 C3.44379694,9.10755148 3.46789727,9.1079592 3.49190276,9.10633035 C3.54068984,9.10284793 3.58885848,9.09334156 3.6353106,9.07802795 C3.73010332,9.04796512 3.81853139,8.99745414 3.90398025,8.94166185 C3.92483465,8.92717211 3.94541821,8.91214069 3.96627261,8.89751553 L3.9818457,8.88641124 C3.98685617,8.88261953 3.99173123,8.87842157 3.9967417,8.87449444 L4.02626286,8.85025459 L4.05605486,8.82628557 L4.08422184,8.80055612 C4.10304496,8.78322259 4.12240976,8.76656616 4.13974329,8.74787845 L4.16682692,8.72079481 C4.17576452,8.71158638 4.18497296,8.7027842 4.19309805,8.69289867 L4.24333819,8.63507511 L4.29046371,8.57454319 C4.30576597,8.55395963 4.31984946,8.53256356 4.33461004,8.51170916 C4.39189202,8.42612925 4.43991906,8.33470536 4.47788246,8.23897696 C4.51660963,8.14215217 4.54176471,8.04043815 4.55263329,7.9367236 C4.56066089,8.043292 4.54998244,8.15044318 4.52108086,8.25333129 C4.49246517,8.35727852 4.45064115,8.45712825 4.39663156,8.55043875 C4.3428173,8.64433064 4.27789074,8.73139952 4.20325441,8.80976455 C4.18551463,8.83034811 4.1652019,8.84835873 4.14570169,8.86718186 L4.11631594,8.89521342 L4.08516977,8.92148454 C4.04454431,8.95709952 3.99985632,8.9882457 3.95557458,9.01966272 C3.91009213,9.04945335 3.86308298,9.07684522 3.81473968,9.10172613 C3.76551132,9.12680641 3.71405639,9.14725238 3.66104005,9.16279973 C3.60707859,9.17865382 3.55124822,9.18726063 3.49501737,9.18839376 C3.43756182,9.18982001 3.38035574,9.18035459 3.32642175,9.16049762 C3.27279054,9.14034703 3.22388236,9.10937031 3.18274307,9.06949661 C3.1428993,9.0304313 3.11034074,8.98457418 3.08659617,8.93407843 C3.04091555,8.8357384 3.02338454,8.72666177 3.03594977,8.61896035 L3.03594977,8.61896035 Z" id="路径" fill="#FBE553"></path>
                    <path d="M1.26346133,9.64299256 C1.40145245,9.54102268 1.5441832,9.44717789 1.68826813,9.3556352 C1.83235307,9.26409252 1.97874011,9.17634154 2.12648134,9.09102809 C2.27422256,9.00571465 2.42345339,8.92310956 2.57458006,8.84375451 C2.72570674,8.76439947 2.87859386,8.68815904 3.03594977,8.61963744 C2.89795866,8.72174274 2.75536332,8.81572295 2.61114297,8.90726564 C2.46692262,8.99880832 2.32080641,9.08642388 2.17306519,9.17173732 C2.02532396,9.25705077 1.87595772,9.33952044 1.72483104,9.41887549 C1.57370436,9.49823054 1.42081724,9.57379388 1.26346133,9.64299256 Z" id="路径" fill="#FBE553"></path>
                    <path d="M4.35424567,5.36540337 L4.56360216,5.38774736 L4.77282324,5.41117471 L4.9819089,5.43541456 C5.05164925,5.44340423 5.12152503,5.45180016 5.19126539,5.46155027 C5.26100575,5.47130038 5.33061069,5.48281092 5.39994479,5.4960819 C5.46927889,5.50935288 5.538613,5.52492597 5.60713459,5.54388452 C5.64153081,5.55295753 5.67484368,5.56365557 5.70951073,5.57462444 L5.76002171,5.59249964 C5.77681356,5.59832262 5.79333458,5.60604146 5.80999101,5.61213527 C5.87683669,5.63900101 5.94141361,5.67119889 6.00309733,5.70841759 C6.06509441,5.74643161 6.12311862,5.79057357 6.17629717,5.84017947 C6.22974421,5.89031274 6.27685846,5.94679527 6.31659039,6.00836884 C6.32661134,6.0236711 6.33690312,6.03883793 6.34543446,6.05508811 C6.35396581,6.07133829 6.3635805,6.08677596 6.3725181,6.10316156 L6.39581002,6.15272461 L6.401633,6.16518309 L6.40650806,6.17791239 L6.41639358,6.20337101 C6.4299354,6.23709013 6.43995635,6.27216344 6.45119605,6.30683049 C6.45593569,6.32429944 6.45986282,6.34203922 6.46473787,6.35964358 L6.47110253,6.38672721 C6.4731338,6.39552939 6.47448798,6.40446699 6.47624842,6.41381085 L6.48586311,6.46716561 C6.48911314,6.48490539 6.49060274,6.502916 6.49290485,6.52133288 C6.49520696,6.53974975 6.49764449,6.55708327 6.49872783,6.57550014 L6.50224871,6.62966741 L6.50400914,6.65675105 C6.50400914,6.66568865 6.50400914,6.67476166 6.50468623,6.68383468 L6.50549874,6.73800195 C6.50549874,6.75601257 6.50549874,6.77388777 6.50549874,6.79216922 L6.5037383,6.84633649 C6.49606869,6.98764116 6.4771404,7.12810897 6.44713351,7.26640365 C6.38529407,7.54437466 6.28813211,7.813288 6.15801571,8.06658963 C6.09380605,8.19282836 6.02306715,8.31563832 5.94608628,8.4345208 C5.92753399,8.46458363 5.90695042,8.4934277 5.88745021,8.52294887 C5.86794999,8.55247003 5.84682476,8.5813141 5.82678287,8.61002275 C5.80674098,8.6387314 5.78615742,8.66744005 5.76394884,8.69547162 C5.74174025,8.72350318 5.72169837,8.75207641 5.69948979,8.7795663 C5.52472815,9.00122671 5.33283815,9.20882833 5.12558758,9.40045862 C5.02185726,9.49525134 4.91596025,9.58841904 4.80613611,9.67617001 C4.77905248,9.69824317 4.75075008,9.71963925 4.72312477,9.74130615 C4.69549946,9.76297306 4.66760332,9.78423371 4.63930092,9.80508811 C4.5832378,9.84733858 4.52554966,9.88755778 4.46840319,9.92818323 C4.90621014,9.57717933 5.30799585,9.18175827 5.64166623,8.73528456 C5.8068764,8.51116749 5.95840933,8.27662321 6.07987943,8.02704752 C6.20456567,7.7796865 6.29765111,7.51762779 6.35694501,7.24703886 C6.3862969,7.1122869 6.40472843,6.97538635 6.4120602,6.83766972 C6.42007577,6.70102735 6.41253423,6.56391666 6.38958079,6.42897768 C6.38809119,6.42058176 6.38714326,6.41205041 6.38524741,6.4037899 L6.37942442,6.37941463 C6.37563271,6.36302903 6.37211184,6.3463726 6.3680493,6.329987 C6.35802835,6.29775748 6.34990326,6.26471544 6.33730937,6.23356926 L6.32850719,6.20987108 L6.32417381,6.19795428 L6.31902792,6.18644374 L6.29817352,6.14013072 C6.29072552,6.12496389 6.28246501,6.11047414 6.27461076,6.09557815 C6.2667978,6.08078119 6.25820938,6.06640687 6.24888131,6.05251517 C6.17585655,5.93864236 6.07879256,5.84213302 5.96450315,5.76976203 C5.84775325,5.6973259 5.72176028,5.6409798 5.58993648,5.60224975 C5.52385242,5.58139535 5.456685,5.56365557 5.3888405,5.54808248 C5.320996,5.53250939 5.25260982,5.51883215 5.18381739,5.50637368 C5.04636795,5.48064423 4.9074289,5.46046692 4.76916695,5.43649791 L4.56157089,5.4014246 L4.35424567,5.36540337 Z" id="路径" fill="#FBE553"></path>
                    <path d="M1.60444428,12.2057815 L0.877113287,12.3986169 L4.01475232,0.811831937 L4.74208331,0.618996461 L1.60444428,12.2057815 Z M7.07723426,-8.8817842e-16 L5.39290305,0.446879965 L2.2551286,12.0332587 L3.93959523,11.5863787 L7.07723426,-8.8817842e-16 Z" id="形状" fill="url(#linearGradient-8)" style="mix-blend-mode: screen;"></path>
                </g>
                <path d="M8.05927705,0.984219269 C7.89424744,1.06276181 7.72813448,1.15028709 7.56093818,1.2467951 C6.8881807,1.63517442 6.23031923,2.15044056 5.60631229,2.77796837 C5.00288892,3.38437094 4.44645566,4.07933699 3.95231475,4.84363715 C3.46544785,5.59528777 3.05433707,6.39337703 2.72501986,7.22618446 C2.48108003,7.83955805 2.2897665,8.47257343 2.15314892,9.11838257 L0.29399285,8.03720389 L0,8.14066337 L1.42297414,11.8195688 L1.48553734,11.801152 L3.18544164,9.71828506 L2.46393363,9.29848873 C3.53265384,5.80050195 5.81553337,3.77952116 7.34250867,2.97202261 C7.51516684,2.88088618 7.8882439,2.74600968 8.05399574,2.66841507 L8.05927705,0.984219269 Z" id="路径" fill="#616B8C"></path>
                <path d="M6.39282103,0 C6.229597,0.0780008667 6.0651542,0.164758775 5.89949263,0.260273725 C5.22714141,0.648653041 4.5690091,1.16378376 3.94459591,1.79131157 C3.34130796,2.39784956 2.65419616,3.26222375 2.22085801,4.06254514 C1.10555395,6.12604723 0.816842409,7.83989961 0.68941391,8.53852196 L0,8.14066337 L1.42297414,11.8195688 L2.84486494,9.78274411 L2.10724216,9.35739564 C2.23480608,8.66026289 2.44172505,7.94525495 2.72474902,7.22672613 C3.05406623,6.39391871 3.46517701,5.59582944 3.95204391,4.84417882 C4.44618482,4.07933699 5.00261808,3.38437094 5.60631229,2.77796837 C6.23059006,2.15044056 6.88845154,1.63517442 7.56120901,1.2467951 C7.72831504,1.15037737 7.89442799,1.06285209 8.05954788,0.984219269 L6.39282103,0 Z" id="路径" fill="url(#linearGradient-9)"></path>
                <path d="M3.95204391,4.84363715 C4.07744114,4.64172866 4.21015095,4.44428896 4.34705872,4.24969305 C4.48396649,4.05509714 4.62832226,3.86591795 4.77674057,3.67985339 C4.92515889,3.49378882 5.08034811,3.31314098 5.24000614,3.13655568 C5.39966416,2.95997039 5.56500975,2.7886664 5.73577206,2.62196663 C5.90653438,2.45526686 6.08379676,2.29696302 6.2659342,2.1432634 C6.44807165,1.98956377 6.6348133,1.84195797 6.8292738,1.7043731 C7.02373429,1.56678824 7.22198649,1.43556803 7.42714502,1.31409793 C7.63202025,1.19313695 7.84301256,1.08284962 8.05927705,0.983677596 C7.84667052,1.09038712 7.63866821,1.20522172 7.43716597,1.33116062 C7.23566373,1.45709952 7.03822404,1.58845515 6.847149,1.72956088 C6.46488564,2.01099203 6.10266991,2.31868309 5.76312653,2.65040445 C5.42213602,2.980821 5.1006521,3.33079084 4.80030334,3.69854109 C4.64926694,3.88180702 4.50337643,4.06913549 4.36263181,4.26052651 C4.22057815,4.45146613 4.08475372,4.64646829 3.95204391,4.84363715 Z" id="路径" fill="#9BA6CF"></path>
                <path d="M1.42297414,11.8195688 C1.53537123,11.6456016 1.6497093,11.4729434 1.76598837,11.3015943 C1.88190633,11.1300195 1.99972014,10.9597989 2.11807562,10.7898491 L2.29655677,10.5355337 C2.35681785,10.4513036 2.41626643,10.3665319 2.47706919,10.282708 C2.59777192,10.1145186 2.72050592,9.94750289 2.8452712,9.78166077 C2.73296439,9.95580854 2.61862632,10.1285118 2.50225697,10.2997707 C2.44456883,10.3856258 2.38552651,10.4706684 2.32716127,10.5562527 L2.15030514,10.8113805 C2.03140799,10.9809241 1.91224,11.149926 1.79117615,11.3181153 C1.67011231,11.4863047 1.5478297,11.6542232 1.42297414,11.8195688 Z" id="路径" fill="#9BA6CF"></path>
            </g>
        </g>
    </g>
</svg>