<svg width="500px" height="500px" viewBox="0 0 500 500" version="1.1" xmlns="http://www.w3.org/2000/svg" xmlns:xlink="http://www.w3.org/1999/xlink">
    <title>画板</title>
    <defs>
        <polygon id="path-1" points="0.0392156863 0.269934641 499.729412 0.269934641 499.729412 499.999346 0.0392156863 499.999346"></polygon>
    </defs>
    <g id="画板" stroke="none" stroke-width="1" fill="none" fill-rule="evenodd">
        <rect fill="#2775CA" x="0" y="0" width="500" height="500"></rect>
        <g id="usdc" transform="translate(0.000000, 0.000000)">
            <g id="编组">
                <mask id="mask-2" fill="white">
                    <use xlink:href="#path-1"></use>
                </mask>
                <g id="Clip-2"></g>
                <path d="M249.864706,499.999346 C387.844444,499.999346 499.729412,388.115033 499.729412,250.134641 C499.729412,112.154902 387.844444,0.269934641 249.864706,0.269934641 C111.884967,0.269934641 0,112.154902 0,250.134641 C0,388.115033 111.884967,499.999346 249.864706,499.999346 Z" id="Fill-1" fill="#2775CA" mask="url(#mask-2)"></path>
            </g>
            <path d="M318.359477,289.876471 C318.359477,253.387582 296.149673,241.091503 253.237255,235.222222 C221.586275,230.621569 215.438562,223.204575 215.438562,208.411765 C215.438562,194.372549 226.146405,184.415686 246.849673,184.415686 C265.571242,184.415686 276.320261,190.961438 280.759477,205.991503 C281.752941,209.364052 284.765359,211.743791 288.255556,211.743791 L304.677124,211.743791 C309.237255,211.743791 312.806536,207.538562 311.854248,203.05817 C306.658824,179.260784 290.637908,164.98366 265.492157,160.500654 L265.492157,135.633333 C265.492157,131.311111 262.001961,127.820915 257.677124,127.820915 L242.052288,127.820915 C237.730065,127.820915 234.239869,131.311111 234.239869,135.633333 L234.239869,159.826144 C203.262745,164.228105 183.27451,184.813725 183.27451,211.266667 C183.27451,245.496078 203.936601,258.741176 247.605229,264.611111 C277.231373,269.44902 285.638562,275.834641 285.638562,292.69281 C285.638562,309.548366 271.320915,320.771895 251.17451,320.771895 C223.927451,320.771895 214.922876,308.833333 211.632026,293.404575 C210.837908,289.756209 207.705229,287.060131 203.977778,287.060131 L186.169935,287.060131 C181.686275,287.060131 178.15817,291.104575 178.949673,295.508497 C183.471242,321.486275 200.168627,340.563399 234.239869,345.201961 L234.239869,369.873203 C234.239869,374.195425 237.730065,377.685621 242.052288,377.685621 L257.677124,377.685621 C262.001961,377.685621 265.492157,374.195425 265.492157,369.873203 L265.492157,345.201961 C297.735294,340.085621 318.359477,317.639216 318.359477,289.876471 Z" id="Fill-3" fill="#FFFFFF"></path>
            <path d="M196.323529,399.420261 C136.514379,377.526797 93.7196078,320.018301 93.7196078,252.713725 C93.7196078,185.408497 136.514379,127.937908 196.323529,106.00719 C200.05098,104.658824 203.02549,100.137255 203.02549,96.1699346 L203.02549,81.6143791 C203.02549,75.7065359 198.424837,72.3751634 192.79281,74.1594771 C117.197386,98.3529412 62.4666667,169.147712 62.4666667,252.751634 C62.4666667,336.35817 117.197386,407.153595 192.79281,431.308497 C198.424837,433.09281 203.02549,429.760784 203.02549,423.850327 L203.02549,409.295425 C203.02549,405.289542 200.05098,400.80915 196.323529,399.420261 Z M306.977778,74.1980392 C301.345752,72.4130719 296.745098,75.745098 296.745098,81.6555556 L296.745098,96.2104575 C296.745098,100.175817 299.718954,104.697386 303.446405,106.045098 C363.255556,127.937908 406.05098,185.447059 406.05098,252.751634 C406.05098,320.056863 363.255556,377.526797 303.446405,399.45817 C299.361438,400.96732 296.745098,404.973203 296.745098,409.295425 L296.745098,423.850327 C296.745098,429.760784 301.345752,433.09281 306.977778,431.308497 C382.569935,407.153595 437.303268,336.35817 437.303268,252.751634 C437.303268,169.147712 382.531373,98.3529412 306.977778,74.1980392 Z" id="Fill-4" fill="#FFFFFF"></path>
        </g>
    </g>
</svg>