<svg width="500px" height="500px" viewBox="0 0 500 500" version="1.1" xmlns="http://www.w3.org/2000/svg" xmlns:xlink="http://www.w3.org/1999/xlink">
    <title>usdt</title>
    <defs>
        <rect id="path-1" x="0" y="0" width="500" height="500"></rect>
        <polygon id="path-3" points="0.0365853659 0.487804878 499.511585 0.487804878 499.511585 499.99939 0.0365853659 499.99939"></polygon>
    </defs>
    <g id="usdt" stroke="none" stroke-width="1" fill="none" fill-rule="evenodd">
        <g id="位图备份-5">
            <mask id="mask-2" fill="white">
                <use xlink:href="#path-1"></use>
            </mask>
            <use id="蒙版" fill="#26A17B" xlink:href="#path-1"></use>
            <g id="tether-usdt-logo" mask="url(#mask-2)">
                <g id="编组">
                    <mask id="mask-4" fill="white">
                        <use xlink:href="#path-3"></use>
                    </mask>
                    <g id="Clip-2"></g>
                    <path d="M0,250.245122 C0,388.180488 111.818902,499.99939 249.757317,499.99939 C387.692683,499.99939 499.511585,388.180488 499.511585,250.245122 C499.511585,112.306707 387.692683,0.487804878 249.757317,0.487804878 C111.818902,0.487804878 0,112.306707 0,250.245122 Z" id="Fill-1" fill="#26A17B" mask="url(#mask-4)"></path>
                </g>
                <path d="M279.759146,271.831707 L279.759146,271.80061 C278.041463,271.926829 269.190854,272.455488 249.445122,272.455488 C233.676829,272.455488 222.579878,271.989024 218.67622,271.80061 L218.67622,271.848171 C157.986585,269.178049 112.685976,258.609756 112.685976,245.967073 C112.685976,233.338415 157.986585,222.770122 218.67622,220.054878 L218.67622,261.327439 C222.642073,261.608537 234.006098,262.278049 249.709146,262.278049 C268.55,262.278049 277.993902,261.49939 279.759146,261.342073 L279.759146,220.085976 C340.325,222.786585 385.513415,233.354878 385.513415,245.967073 C385.513415,258.609756 340.325,269.147561 279.759146,271.831707 M279.759146,215.793902 L279.759146,178.860366 L364.269512,178.860366 L364.269512,122.541463 L134.165244,122.541463 L134.165244,178.860366 L218.67622,178.860366 L218.67622,215.776829 C149.995122,218.930488 98.3420732,232.542683 98.3420732,248.839634 C98.3420732,265.135976 149.995122,278.731707 218.67622,281.9 L218.67622,400.254268 L279.759146,400.254268 L279.759146,281.868902 C348.332927,278.715244 399.859756,265.119512 399.859756,248.839634 C399.859756,232.557317 348.332927,218.961585 279.759146,215.793902" id="Fill-3" fill="#FFFFFF"></path>
            </g>
        </g>
    </g>
</svg>