<?xml version="1.0" encoding="UTF-8"?>
<svg width="16px" height="14px" viewBox="0 0 16 14" version="1.1" xmlns="http://www.w3.org/2000/svg" xmlns:xlink="http://www.w3.org/1999/xlink">
    <title>qianbao (2)</title>
    <g id="页面-1" stroke="none" stroke-width="1" fill="none" fill-rule="evenodd">
        <g id="launchpad-swap" transform="translate(-1540.000000, -309.000000)" fill="#2B1106">
            <g id="编组" transform="translate(1540.000000, 309.000000)">
                <path d="M12.7333523,0 C13.5079574,0 14.2120516,0.316983126 14.7225417,0.827473231 C15.1866402,1.29157173 15.4907966,1.91567718 15.5422623,2.60726716 L15.5500285,2.81667616 L15.5500285,10.9833238 C15.5500285,11.7579428 15.2330624,12.4620488 14.7225698,12.9725413 C14.2584857,13.4366255 13.6343904,13.7407704 12.9427713,13.7922341 L12.7333523,13.8 L2.81667616,13.8 C2.04209834,13.8 1.33798158,13.4830215 0.827473231,12.9725132 C0.363391318,12.5084313 0.0592325269,11.884346 0.00776631632,11.1927391 L0,10.9833238 L0,2.81667616 C0,2.04211222 0.316995474,1.33800731 0.82750139,0.82750139 C1.29159768,0.363405103 1.91569314,0.0592348005 2.60727089,0.00776661578 L2.81667616,0 L12.7333523,0 Z M12.7333523,0.966647678 L2.81667616,0.966647678 L2.64892112,0.974241925 C2.20672599,1.0144493 1.80811646,1.21194286 1.51002966,1.51002966 C1.17468201,1.84537731 0.966647678,2.30794904 0.966647678,2.81667616 L0.966647678,2.81667616 L0.966647678,10.9833238 L0.97424154,11.1510919 C1.01444688,11.5933164 1.2119304,11.9919138 1.5100015,12.2899849 C1.84535113,12.6253345 2.3079342,12.8333523 2.81667616,12.8333523 L2.81667616,12.8333523 L12.7333523,12.8333523 L12.9011226,12.8257589 C13.3433537,12.7855561 13.7419626,12.5880834 14.0400386,12.2900074 C14.3753702,11.9546759 14.5833808,11.4921082 14.5833808,10.9833238 L14.5833808,10.9833238 L14.5833808,9.71667616 L9.23340929,9.71667616 L9.02399032,9.70891024 C8.33237117,9.65744656 7.70827592,9.35330162 7.24419179,8.8892175 C6.73369925,8.37872496 6.41673313,7.67461895 6.41673313,6.9 C6.41673313,6.12542218 6.7337116,5.42130542 7.24421995,4.91079707 C7.75471006,4.40030697 8.45880422,4.08332384 9.23340929,4.08332384 L9.23340929,4.08332384 L14.5833808,4.08332384 L14.5833808,2.81667616 L14.575787,2.64891727 C14.5355819,2.20671219 14.3380987,1.80809534 14.0400105,1.51000713 C13.704677,1.17467361 13.2421157,0.966647678 12.7333523,0.966647678 L12.7333523,0.966647678 Z M14.5833808,5.04997152 L9.23340929,5.04997152 L9.06564121,5.05756538 C8.62341672,5.09777072 8.22481932,5.29525424 7.92674822,5.59332534 C7.59139859,5.92867497 7.38338081,6.39125804 7.38338081,6.9 C7.38338081,7.40877827 7.59139019,7.87135082 7.92672569,8.20668632 C8.26205726,8.54201789 8.72462492,8.75002848 9.23340929,8.75002848 L9.23340929,8.75002848 L14.5833808,8.75002848 L14.5833808,5.04997152 Z" id="Fill-1"></path>
            </g>
        </g>
    </g>
</svg>