<?xml version="1.0" encoding="UTF-8"?>
<svg width="20px" height="20px" viewBox="0 0 20 20" version="1.1" xmlns="http://www.w3.org/2000/svg" xmlns:xlink="http://www.w3.org/1999/xlink">
    <title>yuyan</title>
    <g id="é¡µé¢-1" stroke="none" stroke-width="1" fill="none" fill-rule="evenodd">
        <g id="kepler-passport-Explore" transform="translate(-1432.000000, -49.000000)" fill="#ffff">
            <g id="yuyan" transform="translate(1432.000000, 49.000000)">
                <path d="M9.99996005,0 C15.5227697,0 20.0000266,4.47723033 20.0000266,9.99993342 C20.0000266,15.5227697 15.5227697,20 9.99996005,20 C4.47723033,20 0,15.5227697 0,9.99993342 C0,4.47723033 4.47723033,0 9.99996005,0 Z M9.99996005,1.81813824 C5.48131458,1.81813824 1.81816487,5.48128794 1.81816487,9.99993342 C1.81816487,14.5187121 5.48131458,18.1818618 9.99996005,18.1818618 C14.5187121,18.1818618 18.1818618,14.5187121 18.1818618,9.99993342 C18.1818618,5.48128794 14.5187121,1.81813824 9.99996005,1.81813824 Z" id="Fill-1"></path>
                <path d="M9.99996005,0 C13.0300306,2.98450061 14.5454521,6.31816687 14.5454521,9.99993342 C14.5454521,13.6818331 13.0300306,17.0154994 9.99996005,20 C6.96996936,17.0154994 5.45457451,13.6818331 5.45457451,9.99993342 C5.45457451,6.31816687 6.96996936,2.98450061 9.99996005,0 Z M9.99996005,2.69456796 L9.78002032,2.97275523 C8.09451709,5.15358894 7.27271275,7.48183926 7.27271275,9.99993342 C7.27271275,12.5181607 8.09451709,14.8463045 9.78002032,17.0272448 L9.99996005,17.3044999 L10.2200063,17.0272448 C11.8318412,14.9408802 12.6545777,12.7190575 12.7227063,10.3272596 L12.7272873,9.99993342 C12.7272873,7.48277143 11.9055095,5.15358894 10.2200063,2.97275523 L9.99996005,2.69456796 Z" id="Fill-2"></path>
                <polygon id="Fill-3" points="0.909082435 10.909149 19.0909442 10.909149 19.0909442 9.09087761 0.909082435 9.09087761"></polygon>
            </g>
        </g>
    </g>
</svg>