<?xml version="1.0" encoding="UTF-8"?>
<svg width="16px" height="15px" viewBox="0 0 16 15" version="1.1" xmlns="http://www.w3.org/2000/svg" xmlns:xlink="http://www.w3.org/1999/xlink">
    <title>Clipped</title>
    <defs>
        <path d="M7.48520325,0 C3.36759144,0 0,3.49509491 0,7.73270997 C0,11.1003014 2.12255764,13.9728794 5.1151389,14.9704065 C5.49014908,15.0904098 5.61015234,14.842903 5.61015234,14.5953963 C5.61015234,14.4678929 5.61015234,13.845376 5.61015234,13.2228591 C3.49509491,13.7178725 3.12008472,12.3453352 3.12008472,12.3453352 C2.74507454,11.4753116 2.24256089,11.2278049 2.24256089,11.2278049 C1.62004399,10.7252912 2.24256089,10.7252912 2.24256089,10.7252912 C2.99258126,10.7252912 3.36759144,11.4753116 3.36759144,11.4753116 C3.99010835,12.6003422 5.1151389,12.3453352 5.49014908,12.0978285 C5.49014908,11.6028151 5.7376558,11.2278049 5.98516252,11.1003014 C4.36511853,10.972798 2.61757108,10.2302778 2.61757108,7.35769979 C2.61757108,6.48767617 2.8650778,5.86515926 3.36759144,5.23514216 C3.24008798,4.98763543 2.99258126,4.23761507 3.49509491,3.24008798 C3.49509491,3.24008798 4.11761181,2.99258126 5.61015234,3.99010835 C6.23266924,3.87010509 6.86268635,3.74260163 7.48520325,3.74260163 C8.10772016,3.74260163 8.73023706,3.87010509 9.35275397,3.99010835 C10.7252912,2.99258126 11.4753116,3.24008798 11.4753116,3.24008798 C11.8503218,4.23761507 11.6028151,5.1151389 11.6028151,5.23514216 C12.0978285,5.7376558 12.3453352,6.48767617 12.3453352,7.35769979 C12.3453352,10.3502811 10.605288,10.972798 8.97774378,11.1003014 C9.23275071,11.3478081 9.48025743,11.8503218 9.48025743,12.4728387 C9.48025743,13.4703658 9.48025743,14.3403894 9.48025743,14.5953963 C9.48025743,14.842903 9.60026069,15.0904098 9.97527087,14.9704065 C12.9678521,13.9728794 15.0904098,11.1003014 15.0904098,7.73270997 C14.9704065,3.49509491 11.6028151,0 7.48520325,0 Z" id="path-1"></path>
    </defs>
    <g id="页面-1" stroke="none" stroke-width="1" fill="none" fill-rule="evenodd">
        <g id="Ostrich-Ostrich-Evolution3-Verify-错误提示" transform="translate(-897.000000, -1057.000000)">
            <g id="Clipped" transform="translate(897.000000, 1057.000000)">
                <mask id="mask-2" fill="white">
                    <use xlink:href="#path-1"></use>
                </mask>
                <g id="路径"></g>
                <g mask="url(#mask-2)" fill="#FFFFFF" fill-rule="nonzero" id="路径">
                    <g transform="translate(-1.245034, -1.245034)">
                        <polygon points="17.4604741 0 0 0 0 17.4604741 17.4604741 17.4604741"></polygon>
                    </g>
                </g>
            </g>
        </g>
    </g>
</svg>