<?xml version="1.0" encoding="UTF-8"?>
<svg width="16px" height="12px" viewBox="0 0 16 12" version="1.1" xmlns="http://www.w3.org/2000/svg" xmlns:xlink="http://www.w3.org/1999/xlink">
    <title>Clipped 2</title>
    <defs>
        <path d="M15.0002716,1.40363308 C14.4365636,1.59529383 13.8728555,1.78131749 13.2189542,1.87714786 C13.8728555,1.49946346 14.3407332,0.93575539 14.5323939,0.281854033 C13.9686859,0.563708066 13.3091474,0.845562099 12.5594157,0.93575539 C12.0013447,0.377684404 11.251613,0 10.3102205,0 C8.62473341,0 7.31129362,1.31343979 7.31129362,2.81290325 C7.31129362,2.99892691 7.31129362,3.28078095 7.40712399,3.46680461 C4.87607477,3.37661132 2.62687959,2.24919518 1.12177905,0.467877695 C0.845562099,0.845562099 0.749731728,1.40363308 0.749731728,1.87714786 C0.749731728,2.90873362 1.31343979,3.74865864 2.06317152,4.21653634 C1.59529383,4.21653634 1.12177905,4.03051267 0.653901357,3.84448901 C0.653901357,5.2481221 1.68548712,6.37553823 3.09475728,6.65739226 C2.81290325,6.74758555 2.53104922,6.74758555 2.24919518,6.74758555 C2.06317152,6.74758555 1.87714786,6.74758555 1.68548712,6.65739226 C2.06317152,7.77917131 3.18495057,8.62473341 4.49839037,8.62473341 C3.46680461,9.37446514 2.15336481,9.84234284 0.749731728,9.84234284 C0.467877695,9.84234284 0.281854033,9.84234284 0,9.84234284 C1.31343979,10.6879049 2.90309654,11.1557826 4.68441403,11.1557826 C10.3102205,11.1557826 13.3091474,6.84341592 13.3091474,3.09475728 C13.3091474,2.99892691 13.3091474,2.81290325 13.3091474,2.71707288 C14.0588792,2.53104922 14.6225872,1.96734115 15.0002716,1.40363308 Z" id="path-1"></path>
    </defs>
    <g id="页面-1" stroke="none" stroke-width="1" fill="none" fill-rule="evenodd">
        <g id="Ostrich-Ostrich-Evolution3-Verify-错误提示" transform="translate(-970.000000, -1058.000000)">
            <g id="Clipped" transform="translate(970.334661, 1058.666697)">
                <mask id="mask-2" fill="white">
                    <use xlink:href="#path-1"></use>
                </mask>
                <g id="路径"></g>
                <g mask="url(#mask-2)" fill="#FFFFFF" fill-rule="nonzero" id="路径">
                    <g transform="translate(-0.749732, -0.845562)">
                        <polygon points="16.6857588 0 0 0 0 13.1287609 16.6857588 13.1287609"></polygon>
                    </g>
                </g>
            </g>
        </g>
    </g>
</svg>