<?xml version="1.0" encoding="UTF-8"?>
<svg width="16px" height="10px" viewBox="0 0 16 10" version="1.1" xmlns="http://www.w3.org/2000/svg" xmlns:xlink="http://www.w3.org/1999/xlink">
    <title>编组 8</title>
    <defs>
        <path d="M14.2732512,0.656946203 C13.835287,0.656946203 13.5462307,2.3299692 13.5462307,4.37088207 C13.5462307,6.4074153 13.9097409,8.08481794 14.2732512,8.08481794 C14.7112153,8.08481794 15.0002716,6.4074153 15.0002716,4.37088207 C15.0002716,2.3299692 14.7112153,0.656946203 14.2732512,0.656946203 Z M10.9972794,0.293435971 C9.83229484,0.293435971 8.88191267,2.11098713 8.88191267,4.37088207 C8.88191267,6.62639737 9.83229484,8.44832817 10.9972794,8.44832817 C12.162264,8.44832817 13.1082666,6.62639737 13.1082666,4.37088207 C13.1082666,2.11098713 12.162264,0.293435971 10.9972794,0.293435971 Z M4.22197427,0 C1.89200507,0 0,1.96645897 0,4.37088207 C0,6.77530518 1.89200507,8.74176415 4.22197427,8.74176415 C6.55194347,8.74176415 8.44832817,6.77530518 8.44832817,4.37088207 C8.44832817,1.96645897 6.55194347,0 4.22197427,0 Z" id="path-1"></path>
    </defs>
    <g id="页面-1" stroke="none" stroke-width="1" fill="none" fill-rule="evenodd">
        <g id="Ostrich-Ostrich-Evolution3-Verify-错误提示" transform="translate(-933.000000, -1060.000000)">
            <g id="Clipped" transform="translate(933.667331, 1060.333394)">
                <mask id="mask-2" fill="white">
                    <use xlink:href="#path-1"></use>
                </mask>
                <g id="形状"></g>
                <g mask="url(#mask-2)" fill="#FFFFFF" fill-rule="nonzero" id="路径">
                    <g transform="translate(-0.731400, -0.727020)">
                        <polygon points="16.4630719 0 0 0 0 10.1958051 16.4630719 10.1958051"></polygon>
                    </g>
                </g>
            </g>
        </g>
    </g>
</svg>