<?xml version="1.0" encoding="UTF-8"?>
<svg width="15px" height="14px" viewBox="0 0 15 14" version="1.1" xmlns="http://www.w3.org/2000/svg" xmlns:xlink="http://www.w3.org/1999/xlink">
    <title>Group</title>
    <g id="页面-1" stroke="none" stroke-width="1" fill="none" fill-rule="evenodd">
        <g id="Ostrich-farm-Active展开Boost--" transform="translate(-475.000000, -1115.000000)" fill-rule="nonzero">
            <g id="编组-3" transform="translate(467.000000, 1109.000000)">
                <g id="Group" transform="translate(8.000000, 6.000000)">
                    <path d="M13.2633567,5.1583918 L14.2633567,5.1583918 L14.2633567,5.89503508 L13.2633567,5.89503508 L13.2633567,5.1583918 Z M13.2633567,4.42174852 L14.2633567,4.42174852 L14.2633567,5.1583918 L13.2633567,5.1583918 L13.2633567,4.42174852 Z M13.2633567,3.68510523 L14.2633567,3.68510523 L14.2633567,4.42174852 L13.2633567,4.42174852 L13.2633567,3.68510523 Z M13.2633567,2.94846195 L14.2633567,2.94846195 L14.2633567,3.68510523 L13.2633567,3.68510523 L13.2633567,2.94846195 Z" id="形状" fill="#2B1106"></path>
                    <path d="M13.2633567,2.21181867 L14,2.21181867 L14,2.94846195 L13.2633567,2.94846195 L13.2633567,2.21181867 Z M13.2633567,1.47328656 L14,1.47328656 L14,2.20992984 L13.2633567,2.20992984 L13.2633567,1.47328656 Z M13.2633567,0.736643281 L14,0.736643281 L14,1.47328656 L13.2633567,1.47328656 L13.2633567,0.736643281 Z M12.5267134,6.63167836 L13.2633567,6.63167836 L13.2633567,7.36832164 L12.5267134,7.36832164 L12.5267134,6.63167836 Z M12.5267134,5.89503508 L13.2633567,5.89503508 L13.2633567,6.63167836 L12.5267134,6.63167836 L12.5267134,5.89503508 Z" id="形状" fill="#2B1106"></path>
                    <path d="M12.5267134,5.1583918 L13.5267134,5.1583918 L13.5267134,5.89503508 L12.5267134,5.89503508 L12.5267134,5.1583918 Z M12.5267134,4.42174852 L13.5267134,4.42174852 L13.5267134,5.1583918 L12.5267134,5.1583918 L12.5267134,4.42174852 Z M12.5267134,3.68510523 L13.5267134,3.68510523 L13.5267134,4.42174852 L12.5267134,4.42174852 L12.5267134,3.68510523 Z M12.5267134,2.94846195 L13.5267134,2.94846195 L13.5267134,3.68510523 L12.5267134,3.68510523 L12.5267134,2.94846195 Z" id="形状" fill="#FFCAA0"></path>
                    <path d="M12.5267134,2.21181867 L13.5267134,2.21181867 L13.5267134,2.94846195 L12.5267134,2.94846195 L12.5267134,2.21181867 Z M12.5267134,1.47328656 L13.5267134,1.47328656 L13.5267134,2.20992984 L12.5267134,2.20992984 L12.5267134,1.47328656 Z M12.5267134,0.736643281 L13.5267134,0.736643281 L13.5267134,1.47328656 L12.5267134,1.47328656 L12.5267134,0.736643281 Z" id="形状" fill="#FFCAA0"></path>
                    <path d="M12.5267134,0 L13.2633567,0 L13.2633567,0.736643281 L12.5267134,0.736643281 L12.5267134,0 Z M11.7881813,10.3167836 L12.5248246,10.3167836 L12.5248246,11.0534269 L11.7881813,11.0534269 L11.7881813,10.3167836 Z M11.7881813,9.57825148 L12.5248246,9.57825148 L12.5248246,10.3148948 L11.7881813,10.3148948 L11.7881813,9.57825148 Z M11.7881813,7.36832164 L12.5248246,7.36832164 L12.5248246,8.10496492 L11.7881813,8.10496492 L11.7881813,7.36832164 Z" id="形状" fill="#2B1106"></path>
                    <path d="M11.7881813,6.63167836 L12.7881813,6.63167836 L12.7881813,7.36832164 L11.7881813,7.36832164 L11.7881813,6.63167836 Z M11.7881813,5.89503508 L12.7881813,5.89503508 L12.7881813,6.63167836 L11.7881813,6.63167836 L11.7881813,5.89503508 Z" id="形状" fill="#FFCAA0"></path>
                    <path d="M11.7881813,5.1583918 L12.7881813,5.1583918 L12.7881813,5.89503508 L11.7881813,5.89503508 L11.7881813,5.1583918 Z M11.7881813,4.42174852 L12.7881813,4.42174852 L12.7881813,5.1583918 L11.7881813,5.1583918 L11.7881813,4.42174852 Z M11.7881813,3.68510523 L12.7881813,3.68510523 L12.7881813,4.42174852 L11.7881813,4.42174852 L11.7881813,3.68510523 Z M11.7881813,2.94846195 L12.7881813,2.94846195 L12.7881813,3.68510523 L11.7881813,3.68510523 L11.7881813,2.94846195 Z" id="形状" fill="#F68731"></path>
                    <path d="M11.7881813,2.21181867 L12.7881813,2.21181867 L12.7881813,2.94846195 L11.7881813,2.94846195 L11.7881813,2.21181867 Z M11.7881813,1.47328656 L12.7881813,1.47328656 L12.7881813,2.20992984 L11.7881813,2.20992984 L11.7881813,1.47328656 Z" id="形状" fill="#F68731"></path>
                    <polygon id="路径" fill="#FFCAA0" points="12.5248246 0.736643281 11.7881813 0.736643281 11.7881813 1.47328656 12.5248246 1.47328656"></polygon>
                    <path d="M11.7881813,0 L12.5248246,0 L12.5248246,0.736643281 L11.7881813,0.736643281 L11.7881813,0 Z M11.0534269,11.0534269 L11.7900702,11.0534269 L11.7900702,11.7900702 L11.0534269,11.7900702 L11.0534269,11.0534269 Z" id="形状" fill="#2B1106"></path>
                    <path d="M11.0534269,10.3167836 L12.0534269,10.3167836 L12.0534269,11.0534269 L11.0534269,11.0534269 L11.0534269,10.3167836 Z M11.0534269,9.57825148 L12.0534269,9.57825148 L12.0534269,10.3148948 L11.0534269,10.3148948 L11.0534269,9.57825148 Z" id="形状" fill="#FFCAA0"></path>
                    <path d="M11.0534269,8.8416082 L12.0534269,8.8416082 L12.0534269,9.57825148 L11.0534269,9.57825148 L11.0534269,8.8416082 Z M11.0534269,8.10496492 L12.0534269,8.10496492 L12.0534269,8.8416082 L11.0534269,8.8416082 L11.0534269,8.10496492 Z" id="形状" fill="#2B1106"></path>
                    <polygon id="路径" fill="#FFCAA0" points="11.7900702 7.36832164 11.0534269 7.36832164 11.0534269 8.10496492 11.7900702 8.10496492"></polygon>
                    <path d="M11.0534269,6.63167836 L12.0534269,6.63167836 L12.0534269,7.36832164 L11.0534269,7.36832164 L11.0534269,6.63167836 Z M11.0534269,5.89503508 L12.0534269,5.89503508 L12.0534269,6.63167836 L11.0534269,6.63167836 L11.0534269,5.89503508 Z" id="形状" fill="#F68731"></path>
                    <path d="M11.0534269,5.1583918 L12.0534269,5.1583918 L12.0534269,5.89503508 L11.0534269,5.89503508 L11.0534269,5.1583918 Z M11.0534269,4.42174852 L12.0534269,4.42174852 L12.0534269,5.1583918 L11.0534269,5.1583918 L11.0534269,4.42174852 Z M11.0534269,3.68510523 L12.0534269,3.68510523 L12.0534269,4.42174852 L11.0534269,4.42174852 L11.0534269,3.68510523 Z" id="形状" fill="#2B1106"></path>
                    <polygon id="路径" fill="#F68731" points="11.7900702 2.94846195 11.0534269 2.94846195 11.0534269 3.68510523 11.7900702 3.68510523"></polygon>
                    <path d="M11.0534269,2.21181867 L12.0534269,2.21181867 L12.0534269,2.94846195 L11.0534269,2.94846195 L11.0534269,2.21181867 Z M11.0534269,1.47328656 L12.0534269,1.47328656 L12.0534269,2.20992984 L11.0534269,2.20992984 L11.0534269,1.47328656 Z" id="形状" fill="#F68731"></path>
                    <polygon id="路径" fill="#FFCAA0" points="11.7900702 0.736643281 11.0534269 0.736643281 11.0534269 1.47328656 11.7900702 1.47328656"></polygon>
                    <path d="M11.0534269,0 L11.7900702,0 L11.7900702,0.736643281 L11.0534269,0.736643281 L11.0534269,0 Z M10.3167836,11.7881813 L11.0534269,11.7881813 L11.0534269,12.5248246 L10.3167836,12.5248246 L10.3167836,11.7881813 Z" id="形状" fill="#2B1106"></path>
                    <polygon id="路径" fill="#FFCAA0" points="11.0534269 11.0534269 10.3167836 11.0534269 10.3167836 11.7900702 11.0534269 11.7900702"></polygon>
                    <path d="M10.3167836,10.3167836 L11.3167836,10.3167836 L11.3167836,11.0534269 L10.3167836,11.0534269 L10.3167836,10.3167836 Z M10.3167836,9.57825148 L11.3167836,9.57825148 L11.3167836,10.3148948 L10.3167836,10.3148948 L10.3167836,9.57825148 Z" id="形状" fill="#F68731"></path>
                    <path d="M10.3167836,8.8416082 L11.3167836,8.8416082 L11.3167836,9.57825148 L10.3167836,9.57825148 L10.3167836,8.8416082 Z M10.3167836,8.10496492 L11.3167836,8.10496492 L11.3167836,8.8416082 L10.3167836,8.8416082 L10.3167836,8.10496492 Z" id="形状" fill="#FFCAA0"></path>
                    <path d="M10.3167836,7.36832164 L11.3167836,7.36832164 L11.3167836,8.10496492 L10.3167836,8.10496492 L10.3167836,7.36832164 Z M10.3167836,6.63167836 L11.3167836,6.63167836 L11.3167836,7.36832164 L10.3167836,7.36832164 L10.3167836,6.63167836 Z" id="形状" fill="#F68731"></path>
                    <polygon id="路径" fill="#2B1106" points="11.0534269 5.89503508 10.3167836 5.89503508 10.3167836 6.63167836 11.0534269 6.63167836"></polygon>
                    <path d="M10.3167836,5.1583918 L11.3167836,5.1583918 L11.3167836,5.89503508 L10.3167836,5.89503508 L10.3167836,5.1583918 Z M10.3167836,4.42174852 L11.3167836,4.42174852 L11.3167836,5.1583918 L10.3167836,5.1583918 L10.3167836,4.42174852 Z M10.3167836,3.68510523 L11.3167836,3.68510523 L11.3167836,4.42174852 L10.3167836,4.42174852 L10.3167836,3.68510523 Z" id="形状" fill="#2B1106"></path>
                    <polygon id="路径" fill="#2B1106" points="11.0534269 2.94846195 10.3167836 2.94846195 10.3167836 3.68510523 11.0534269 3.68510523"></polygon>
                    <path d="M10.3167836,2.21181867 L11.3167836,2.21181867 L11.3167836,2.94846195 L10.3167836,2.94846195 L10.3167836,2.21181867 Z M10.3167836,1.47328656 L11.3167836,1.47328656 L11.3167836,2.20992984 L10.3167836,2.20992984 L10.3167836,1.47328656 Z" id="形状" fill="#F68731"></path>
                    <polygon id="路径" fill="#FFCAA0" points="11.0534269 0.736643281 10.3167836 0.736643281 10.3167836 1.47328656 11.0534269 1.47328656"></polygon>
                    <path d="M10.3167836,0 L11.0534269,0 L11.0534269,0.736643281 L10.3167836,0.736643281 L10.3167836,0 Z M9.57825148,12.5267134 L10.3148948,12.5267134 L10.3148948,13.2633567 L9.57825148,13.2633567 L9.57825148,12.5267134 Z" id="形状" fill="#2B1106"></path>
                    <polygon id="路径" fill="#FFCAA0" points="10.3148948 11.7881813 9.57825148 11.7881813 9.57825148 12.5248246 10.3148948 12.5248246"></polygon>
                    <polygon id="路径" fill="#F68731" points="10.3148948 11.0534269 9.57825148 11.0534269 9.57825148 11.7900702 10.3148948 11.7900702"></polygon>
                    <path d="M9.57825148,10.3167836 L10.5782515,10.3167836 L10.5782515,11.0534269 L9.57825148,11.0534269 L9.57825148,10.3167836 Z M9.57825148,9.57825148 L10.5782515,9.57825148 L10.5782515,10.3148948 L9.57825148,10.3148948 L9.57825148,9.57825148 Z M9.57825148,8.8416082 L10.5782515,8.8416082 L10.5782515,9.57825148 L9.57825148,9.57825148 L9.57825148,8.8416082 Z M9.57825148,8.10496492 L10.5782515,8.10496492 L10.5782515,8.8416082 L9.57825148,8.8416082 L9.57825148,8.10496492 Z M9.57825148,7.36832164 L10.5782515,7.36832164 L10.5782515,8.10496492 L9.57825148,8.10496492 L9.57825148,7.36832164 Z M9.57825148,6.63167836 L10.5782515,6.63167836 L10.5782515,7.36832164 L9.57825148,7.36832164 L9.57825148,6.63167836 Z" id="形状" fill="#F68731"></path>
                    <polygon id="路径" fill="#2B1106" points="10.3148948 5.89503508 9.57825148 5.89503508 9.57825148 6.63167836 10.3148948 6.63167836"></polygon>
                    <path d="M9.57825148,5.1583918 L10.5782515,5.1583918 L10.5782515,5.89503508 L9.57825148,5.89503508 L9.57825148,5.1583918 Z M9.57825148,4.42174852 L10.5782515,4.42174852 L10.5782515,5.1583918 L9.57825148,5.1583918 L9.57825148,4.42174852 Z M9.57825148,3.68510523 L10.5782515,3.68510523 L10.5782515,4.42174852 L9.57825148,4.42174852 L9.57825148,3.68510523 Z" id="形状" fill="#2B1106"></path>
                    <polygon id="路径" fill="#F68731" points="10.3148948 2.94846195 9.57825148 2.94846195 9.57825148 3.68510523 10.3148948 3.68510523"></polygon>
                    <polygon id="路径" fill="#2B1106" points="10.3148948 2.21181867 9.57825148 2.21181867 9.57825148 2.94846195 10.3148948 2.94846195"></polygon>
                    <polygon id="路径" fill="#F68731" points="10.3148948 1.47328656 9.57825148 1.47328656 9.57825148 2.20992984 10.3148948 2.20992984"></polygon>
                    <polygon id="路径" fill="#FFCAA0" points="10.3148948 0.736643281 9.57825148 0.736643281 9.57825148 1.47328656 10.3148948 1.47328656"></polygon>
                    <path d="M9.57825148,0 L10.3148948,0 L10.3148948,0.736643281 L9.57825148,0.736643281 L9.57825148,0 Z M8.8416082,13.2633567 L9.57825148,13.2633567 L9.57825148,14 L8.8416082,14 L8.8416082,13.2633567 Z" id="形状" fill="#2B1106"></path>
                    <polygon id="路径" fill="#FFCAA0" points="9.57825148 12.5267134 8.8416082 12.5267134 8.8416082 13.2633567 9.57825148 13.2633567"></polygon>
                    <path d="M8.8416082,11.7881813 L9.8416082,11.7881813 L9.8416082,12.5248246 L8.8416082,12.5248246 L8.8416082,11.7881813 Z M8.8416082,11.0534269 L9.8416082,11.0534269 L9.8416082,11.7900702 L8.8416082,11.7900702 L8.8416082,11.0534269 Z" id="形状" fill="#F68731"></path>
                    <path d="M8.8416082,10.3167836 L9.8416082,10.3167836 L9.8416082,11.0534269 L8.8416082,11.0534269 L8.8416082,10.3167836 Z M8.8416082,9.57825148 L9.8416082,9.57825148 L9.8416082,10.3148948 L8.8416082,10.3148948 L8.8416082,9.57825148 Z M8.8416082,8.8416082 L9.8416082,8.8416082 L9.8416082,9.57825148 L8.8416082,9.57825148 L8.8416082,8.8416082 Z M8.8416082,8.10496492 L9.8416082,8.10496492 L9.8416082,8.8416082 L8.8416082,8.8416082 L8.8416082,8.10496492 Z M8.8416082,7.36832164 L9.8416082,7.36832164 L9.8416082,8.10496492 L8.8416082,8.10496492 L8.8416082,7.36832164 Z M8.8416082,6.63167836 L9.8416082,6.63167836 L9.8416082,7.36832164 L8.8416082,7.36832164 L8.8416082,6.63167836 Z" id="形状" fill="#F68731"></path>
                    <polygon id="路径" fill="#2B1106" points="9.57825148 5.89503508 8.8416082 5.89503508 8.8416082 6.63167836 9.57825148 6.63167836"></polygon>
                    <path d="M8.8416082,5.1583918 L9.8416082,5.1583918 L9.8416082,5.89503508 L8.8416082,5.89503508 L8.8416082,5.1583918 Z M8.8416082,4.42174852 L9.8416082,4.42174852 L9.8416082,5.1583918 L8.8416082,5.1583918 L8.8416082,4.42174852 Z" id="形状" fill="#2B1106"></path>
                    <path d="M8.8416082,3.68510523 L9.8416082,3.68510523 L9.8416082,4.42174852 L8.8416082,4.42174852 L8.8416082,3.68510523 Z M8.8416082,2.94846195 L9.8416082,2.94846195 L9.8416082,3.68510523 L8.8416082,3.68510523 L8.8416082,2.94846195 Z" id="形状" fill="#F68731"></path>
                    <polygon id="路径" fill="#2B1106" points="9.57825148 2.21181867 8.8416082 2.21181867 8.8416082 2.94846195 9.57825148 2.94846195"></polygon>
                    <polygon id="路径" fill="#F68731" points="9.57825148 1.47328656 8.8416082 1.47328656 8.8416082 2.20992984 9.57825148 2.20992984"></polygon>
                    <polygon id="路径" fill="#FFCAA0" points="9.57825148 0.736643281 8.8416082 0.736643281 8.8416082 1.47328656 9.57825148 1.47328656"></polygon>
                    <path d="M8.8416082,0 L9.57825148,0 L9.57825148,0.736643281 L8.8416082,0.736643281 L8.8416082,0 Z M8.10496492,13.2633567 L8.8416082,13.2633567 L8.8416082,14 L8.10496492,14 L8.10496492,13.2633567 Z" id="形状" fill="#2B1106"></path>
                    <path d="M8.10496492,12.5267134 L9.10496492,12.5267134 L9.10496492,13.2633567 L8.10496492,13.2633567 L8.10496492,12.5267134 Z M8.10496492,11.7881813 L9.10496492,11.7881813 L9.10496492,12.5248246 L8.10496492,12.5248246 L8.10496492,11.7881813 Z" id="形状" fill="#FFCAA0"></path>
                    <polygon id="路径" fill="#2B1106" points="8.8416082 11.0534269 8.10496492 11.0534269 8.10496492 11.7900702 8.8416082 11.7900702"></polygon>
                    <path d="M8.10496492,10.3167836 L9.10496492,10.3167836 L9.10496492,11.0534269 L8.10496492,11.0534269 L8.10496492,10.3167836 Z M8.10496492,9.57825148 L9.10496492,9.57825148 L9.10496492,10.3148948 L8.10496492,10.3148948 L8.10496492,9.57825148 Z" id="形状" fill="#FFCAA0"></path>
                    <path d="M8.10496492,8.8416082 L9.10496492,8.8416082 L9.10496492,9.57825148 L8.10496492,9.57825148 L8.10496492,8.8416082 Z M8.10496492,8.10496492 L9.10496492,8.10496492 L9.10496492,8.8416082 L8.10496492,8.8416082 L8.10496492,8.10496492 Z M8.10496492,7.36832164 L9.10496492,7.36832164 L9.10496492,8.10496492 L8.10496492,8.10496492 L8.10496492,7.36832164 Z M8.10496492,6.63167836 L9.10496492,6.63167836 L9.10496492,7.36832164 L8.10496492,7.36832164 L8.10496492,6.63167836 Z M8.10496492,5.89503508 L9.10496492,5.89503508 L9.10496492,6.63167836 L8.10496492,6.63167836 L8.10496492,5.89503508 Z" id="形状" fill="#F68731"></path>
                    <polygon id="路径" fill="#2B1106" points="8.8416082 5.1583918 8.10496492 5.1583918 8.10496492 5.89503508 8.8416082 5.89503508"></polygon>
                    <path d="M8.10496492,4.42174852 L9.10496492,4.42174852 L9.10496492,5.1583918 L8.10496492,5.1583918 L8.10496492,4.42174852 Z M8.10496492,3.68510523 L9.10496492,3.68510523 L9.10496492,4.42174852 L8.10496492,4.42174852 L8.10496492,3.68510523 Z M8.10496492,2.94846195 L9.10496492,2.94846195 L9.10496492,3.68510523 L8.10496492,3.68510523 L8.10496492,2.94846195 Z" id="形状" fill="#F68731"></path>
                    <polygon id="路径" fill="#2B1106" points="8.8416082 2.21181867 8.10496492 2.21181867 8.10496492 2.94846195 8.8416082 2.94846195"></polygon>
                    <polygon id="路径" fill="#F68731" points="8.8416082 1.47328656 8.10496492 1.47328656 8.10496492 2.20992984 8.8416082 2.20992984"></polygon>
                    <polygon id="路径" fill="#FFCAA0" points="8.8416082 0.736643281 8.10496492 0.736643281 8.10496492 1.47328656 8.8416082 1.47328656"></polygon>
                    <path d="M8.10496492,0 L8.8416082,0 L8.8416082,0.736643281 L8.10496492,0.736643281 L8.10496492,0 Z M7.36832164,12.5267134 L8.10496492,12.5267134 L8.10496492,13.2633567 L7.36832164,13.2633567 L7.36832164,12.5267134 Z M7.36832164,11.7881813 L8.10496492,11.7881813 L8.10496492,12.5248246 L7.36832164,12.5248246 L7.36832164,11.7881813 Z M7.36832164,10.3167836 L8.10496492,10.3167836 L8.10496492,11.0534269 L7.36832164,11.0534269 L7.36832164,10.3167836 Z M7.36832164,9.57825148 L8.10496492,9.57825148 L8.10496492,10.3148948 L7.36832164,10.3148948 L7.36832164,9.57825148 Z" id="形状" fill="#2B1106"></path>
                    <polygon id="路径" fill="#FFCAA0" points="8.10496492 8.8416082 7.36832164 8.8416082 7.36832164 9.57825148 8.10496492 9.57825148"></polygon>
                    <path d="M7.36832164,8.10496492 L8.36832164,8.10496492 L8.36832164,8.8416082 L7.36832164,8.8416082 L7.36832164,8.10496492 Z M7.36832164,7.36832164 L8.36832164,7.36832164 L8.36832164,8.10496492 L7.36832164,8.10496492 L7.36832164,7.36832164 Z M7.36832164,6.63167836 L8.36832164,6.63167836 L8.36832164,7.36832164 L7.36832164,7.36832164 L7.36832164,6.63167836 Z M7.36832164,5.89503508 L8.36832164,5.89503508 L8.36832164,6.63167836 L7.36832164,6.63167836 L7.36832164,5.89503508 Z M7.36832164,5.1583918 L8.36832164,5.1583918 L8.36832164,5.89503508 L7.36832164,5.89503508 L7.36832164,5.1583918 Z" id="形状" fill="#F68731"></path>
                    <path d="M7.36832164,4.42174852 L8.36832164,4.42174852 L8.36832164,5.1583918 L7.36832164,5.1583918 L7.36832164,4.42174852 Z M7.36832164,3.68510523 L8.36832164,3.68510523 L8.36832164,4.42174852 L7.36832164,4.42174852 L7.36832164,3.68510523 Z M7.36832164,2.94846195 L8.36832164,2.94846195 L8.36832164,3.68510523 L7.36832164,3.68510523 L7.36832164,2.94846195 Z" id="形状" fill="#2B1106"></path>
                    <polygon id="路径" fill="#F68731" points="8.10496492 2.21181867 7.36832164 2.21181867 7.36832164 2.94846195 8.10496492 2.94846195"></polygon>
                    <polygon id="路径" fill="#FFCAA0" points="8.10496492 1.47328656 7.36832164 1.47328656 7.36832164 2.20992984 8.10496492 2.20992984"></polygon>
                    <path d="M7.36832164,0.736643281 L8.10496492,0.736643281 L8.10496492,1.47328656 L7.36832164,1.47328656 L7.36832164,0.736643281 Z M6.63167836,10.3167836 L7.36832164,10.3167836 L7.36832164,11.0534269 L6.63167836,11.0534269 L6.63167836,10.3167836 Z" id="形状" fill="#2B1106"></path>
                    <polygon id="路径" fill="#F68731" points="7.36832164 9.57825148 6.63167836 9.57825148 6.63167836 10.3148948 7.36832164 10.3148948"></polygon>
                    <polygon id="路径" fill="#2B1106" points="7.36832164 8.8416082 6.63167836 8.8416082 6.63167836 9.57825148 7.36832164 9.57825148"></polygon>
                    <polygon id="路径" fill="#FFCAA0" points="7.36832164 8.10496492 6.63167836 8.10496492 6.63167836 8.8416082 7.36832164 8.8416082"></polygon>
                    <path d="M6.63167836,7.36832164 L7.63167836,7.36832164 L7.63167836,8.10496492 L6.63167836,8.10496492 L6.63167836,7.36832164 Z M6.63167836,6.63167836 L7.63167836,6.63167836 L7.63167836,7.36832164 L6.63167836,7.36832164 L6.63167836,6.63167836 Z M6.63167836,5.89503508 L7.63167836,5.89503508 L7.63167836,6.63167836 L6.63167836,6.63167836 L6.63167836,5.89503508 Z M6.63167836,5.1583918 L7.63167836,5.1583918 L7.63167836,5.89503508 L6.63167836,5.89503508 L6.63167836,5.1583918 Z M6.63167836,4.42174852 L7.63167836,4.42174852 L7.63167836,5.1583918 L6.63167836,5.1583918 L6.63167836,4.42174852 Z M6.63167836,3.68510523 L7.63167836,3.68510523 L7.63167836,4.42174852 L6.63167836,4.42174852 L6.63167836,3.68510523 Z M6.63167836,2.94846195 L7.63167836,2.94846195 L7.63167836,3.68510523 L6.63167836,3.68510523 L6.63167836,2.94846195 Z" id="形状" fill="#F68731"></path>
                    <polygon id="路径" fill="#F68731" points="7.36832164 2.21181867 6.63167836 2.21181867 6.63167836 2.94846195 7.36832164 2.94846195"></polygon>
                    <polygon id="路径" fill="#FFCAA0" points="7.36832164 1.47328656 6.63167836 1.47328656 6.63167836 2.20992984 7.36832164 2.20992984"></polygon>
                    <path d="M6.63167836,0.736643281 L7.36832164,0.736643281 L7.36832164,1.47328656 L6.63167836,1.47328656 L6.63167836,0.736643281 Z M5.89503508,10.3167836 L6.63167836,10.3167836 L6.63167836,11.0534269 L5.89503508,11.0534269 L5.89503508,10.3167836 Z" id="形状" fill="#2B1106"></path>
                    <polygon id="路径" fill="#2B1106" points="6.63167836 9.57825148 5.89503508 9.57825148 5.89503508 10.3148948 6.63167836 10.3148948"></polygon>
                    <polygon id="路径" fill="#F68731" points="6.63167836 8.8416082 5.89503508 8.8416082 5.89503508 9.57825148 6.63167836 9.57825148"></polygon>
                    <polygon id="路径" fill="#2B1106" points="6.63167836 8.10496492 5.89503508 8.10496492 5.89503508 8.8416082 6.63167836 8.8416082"></polygon>
                    <polygon id="路径" fill="#FFCAA0" points="6.63167836 7.36832164 5.89503508 7.36832164 5.89503508 8.10496492 6.63167836 8.10496492"></polygon>
                    <path d="M5.89503508,6.63167836 L6.89503508,6.63167836 L6.89503508,7.36832164 L5.89503508,7.36832164 L5.89503508,6.63167836 Z M5.89503508,5.89503508 L6.89503508,5.89503508 L6.89503508,6.63167836 L5.89503508,6.63167836 L5.89503508,5.89503508 Z M5.89503508,5.1583918 L6.89503508,5.1583918 L6.89503508,5.89503508 L5.89503508,5.89503508 L5.89503508,5.1583918 Z M5.89503508,4.42174852 L6.89503508,4.42174852 L6.89503508,5.1583918 L5.89503508,5.1583918 L5.89503508,4.42174852 Z M5.89503508,3.68510523 L6.89503508,3.68510523 L6.89503508,4.42174852 L5.89503508,4.42174852 L5.89503508,3.68510523 Z M5.89503508,2.94846195 L6.89503508,2.94846195 L6.89503508,3.68510523 L5.89503508,3.68510523 L5.89503508,2.94846195 Z" id="形状" fill="#F68731"></path>
                    <polygon id="路径" fill="#FFCAA0" points="6.63167836 2.21181867 5.89503508 2.21181867 5.89503508 2.94846195 6.63167836 2.94846195"></polygon>
                    <path d="M5.89503508,1.47328656 L6.63167836,1.47328656 L6.63167836,2.20992984 L5.89503508,2.20992984 L5.89503508,1.47328656 Z M5.1583918,11.7881813 L5.89503508,11.7881813 L5.89503508,12.5248246 L5.1583918,12.5248246 L5.1583918,11.7881813 Z M5.1583918,9.57825148 L5.89503508,9.57825148 L5.89503508,10.3148948 L5.1583918,10.3148948 L5.1583918,9.57825148 Z" id="形状" fill="#2B1106"></path>
                    <polygon id="路径" fill="#2B1106" points="5.89503508 8.8416082 5.1583918 8.8416082 5.1583918 9.57825148 5.89503508 9.57825148"></polygon>
                    <polygon id="路径" fill="#F68731" points="5.89503508 8.10496492 5.1583918 8.10496492 5.1583918 8.8416082 5.89503508 8.8416082"></polygon>
                    <polygon id="路径" fill="#2B1106" points="5.89503508 7.36832164 5.1583918 7.36832164 5.1583918 8.10496492 5.89503508 8.10496492"></polygon>
                    <polygon id="路径" fill="#FFCAA0" points="5.89503508 6.63167836 5.1583918 6.63167836 5.1583918 7.36832164 5.89503508 7.36832164"></polygon>
                    <path d="M5.1583918,5.89503508 L6.1583918,5.89503508 L6.1583918,6.63167836 L5.1583918,6.63167836 L5.1583918,5.89503508 Z M5.1583918,5.1583918 L6.1583918,5.1583918 L6.1583918,5.89503508 L5.1583918,5.89503508 L5.1583918,5.1583918 Z M5.1583918,4.42174852 L6.1583918,4.42174852 L6.1583918,5.1583918 L5.1583918,5.1583918 L5.1583918,4.42174852 Z M5.1583918,3.68510523 L6.1583918,3.68510523 L6.1583918,4.42174852 L5.1583918,4.42174852 L5.1583918,3.68510523 Z" id="形状" fill="#F68731"></path>
                    <polygon id="路径" fill="#FFCAA0" points="5.89503508 2.94846195 5.1583918 2.94846195 5.1583918 3.68510523 5.89503508 3.68510523"></polygon>
                    <path d="M5.1583918,2.21181867 L5.89503508,2.21181867 L5.89503508,2.94846195 L5.1583918,2.94846195 L5.1583918,2.21181867 Z M4.42174852,12.5267134 L5.1583918,12.5267134 L5.1583918,13.2633567 L4.42174852,13.2633567 L4.42174852,12.5267134 Z M4.42174852,8.8416082 L5.1583918,8.8416082 L5.1583918,9.57825148 L4.42174852,9.57825148 L4.42174852,8.8416082 Z" id="形状" fill="#2B1106"></path>
                    <polygon id="路径" fill="#2B1106" points="5.1583918 8.10496492 4.42174852 8.10496492 4.42174852 8.8416082 5.1583918 8.8416082"></polygon>
                    <polygon id="路径" fill="#F68731" points="5.1583918 7.36832164 4.42174852 7.36832164 4.42174852 8.10496492 5.1583918 8.10496492"></polygon>
                    <polygon id="路径" fill="#2B1106" points="5.1583918 6.63167836 4.42174852 6.63167836 4.42174852 7.36832164 5.1583918 7.36832164"></polygon>
                    <polygon id="路径" fill="#FFCAA0" points="5.1583918 5.89503508 4.42174852 5.89503508 4.42174852 6.63167836 5.1583918 6.63167836"></polygon>
                    <path d="M4.42174852,5.1583918 L5.42174852,5.1583918 L5.42174852,5.89503508 L4.42174852,5.89503508 L4.42174852,5.1583918 Z M4.42174852,4.42174852 L5.42174852,4.42174852 L5.42174852,5.1583918 L4.42174852,5.1583918 L4.42174852,4.42174852 Z M4.42174852,3.68510523 L5.42174852,3.68510523 L5.42174852,4.42174852 L4.42174852,4.42174852 L4.42174852,3.68510523 Z" id="形状" fill="#F68731"></path>
                    <polygon id="路径" fill="#FFCAA0" points="5.1583918 2.94846195 4.42174852 2.94846195 4.42174852 3.68510523 5.1583918 3.68510523"></polygon>
                    <path d="M4.42174852,2.21181867 L5.1583918,2.21181867 L5.1583918,2.94846195 L4.42174852,2.94846195 L4.42174852,2.21181867 Z M3.68510523,13.2633567 L4.42174852,13.2633567 L4.42174852,14 L3.68510523,14 L3.68510523,13.2633567 Z M3.68510523,11.0534269 L4.42174852,11.0534269 L4.42174852,11.7900702 L3.68510523,11.7900702 L3.68510523,11.0534269 Z" id="形状" fill="#2B1106"></path>
                    <path d="M3.68510523,10.3167836 L4.68510523,10.3167836 L4.68510523,11.0534269 L3.68510523,11.0534269 L3.68510523,10.3167836 Z M3.68510523,8.10496492 L4.68510523,8.10496492 L4.68510523,8.8416082 L3.68510523,8.8416082 L3.68510523,8.10496492 Z" id="形状" fill="#2B1106"></path>
                    <polygon id="路径" fill="#2B1106" points="4.42174852 7.36832164 3.68510523 7.36832164 3.68510523 8.10496492 4.42174852 8.10496492"></polygon>
                    <polygon id="路径" fill="#F68731" points="4.42174852 6.63167836 3.68510523 6.63167836 3.68510523 7.36832164 4.42174852 7.36832164"></polygon>
                    <polygon id="路径" fill="#2B1106" points="4.42174852 5.89503508 3.68510523 5.89503508 3.68510523 6.63167836 4.42174852 6.63167836"></polygon>
                    <polygon id="路径" fill="#FFCAA0" points="4.42174852 5.1583918 3.68510523 5.1583918 3.68510523 5.89503508 4.42174852 5.89503508"></polygon>
                    <path d="M3.68510523,4.42174852 L4.68510523,4.42174852 L4.68510523,5.1583918 L3.68510523,5.1583918 L3.68510523,4.42174852 Z M3.68510523,3.68510523 L4.68510523,3.68510523 L4.68510523,4.42174852 L3.68510523,4.42174852 L3.68510523,3.68510523 Z M3.68510523,2.94846195 L4.68510523,2.94846195 L4.68510523,3.68510523 L3.68510523,3.68510523 L3.68510523,2.94846195 Z" id="形状" fill="#F68731"></path>
                    <polygon id="路径" fill="#FFCAA0" points="4.42174852 2.21181867 3.68510523 2.21181867 3.68510523 2.94846195 4.42174852 2.94846195"></polygon>
                    <path d="M3.68510523,1.47328656 L4.42174852,1.47328656 L4.42174852,2.20992984 L3.68510523,2.20992984 L3.68510523,1.47328656 Z M2.94846195,11.7881813 L3.68510523,11.7881813 L3.68510523,12.5248246 L2.94846195,12.5248246 L2.94846195,11.7881813 Z" id="形状" fill="#2B1106"></path>
                    <polygon id="路径" fill="#FFCAA0" points="3.68510523 11.0534269 2.94846195 11.0534269 2.94846195 11.7900702 3.68510523 11.7900702"></polygon>
                    <polygon id="路径" fill="#F68731" points="3.68510523 10.3167836 2.94846195 10.3167836 2.94846195 11.0534269 3.68510523 11.0534269"></polygon>
                    <path d="M2.94846195,9.57825148 L3.94846195,9.57825148 L3.94846195,10.3148948 L2.94846195,10.3148948 L2.94846195,9.57825148 Z M2.94846195,7.36832164 L3.94846195,7.36832164 L3.94846195,8.10496492 L2.94846195,8.10496492 L2.94846195,7.36832164 Z M2.94846195,6.63167836 L3.94846195,6.63167836 L3.94846195,7.36832164 L2.94846195,7.36832164 L2.94846195,6.63167836 Z M2.94846195,5.89503508 L3.94846195,5.89503508 L3.94846195,6.63167836 L2.94846195,6.63167836 L2.94846195,5.89503508 Z" id="形状" fill="#2B1106"></path>
                    <polygon id="路径" fill="#FFCAA0" points="3.68510523 5.1583918 2.94846195 5.1583918 2.94846195 5.89503508 3.68510523 5.89503508"></polygon>
                    <path d="M2.94846195,4.42174852 L3.94846195,4.42174852 L3.94846195,5.1583918 L2.94846195,5.1583918 L2.94846195,4.42174852 Z M2.94846195,3.68510523 L3.94846195,3.68510523 L3.94846195,4.42174852 L2.94846195,4.42174852 L2.94846195,3.68510523 Z M2.94846195,2.94846195 L3.94846195,2.94846195 L3.94846195,3.68510523 L2.94846195,3.68510523 L2.94846195,2.94846195 Z" id="形状" fill="#F68731"></path>
                    <polygon id="路径" fill="#FFCAA0" points="3.68510523 2.21181867 2.94846195 2.21181867 2.94846195 2.94846195 3.68510523 2.94846195"></polygon>
                    <path d="M2.94846195,1.47328656 L3.68510523,1.47328656 L3.68510523,2.20992984 L2.94846195,2.20992984 L2.94846195,1.47328656 Z M2.21181867,12.5267134 L2.94846195,12.5267134 L2.94846195,13.2633567 L2.21181867,13.2633567 L2.21181867,12.5267134 Z" id="形状" fill="#2B1106"></path>
                    <polygon id="路径" fill="#FFCAA0" points="2.94846195 11.7881813 2.21181867 11.7881813 2.21181867 12.5248246 2.94846195 12.5248246"></polygon>
                    <polygon id="路径" fill="#F68731" points="2.94846195 11.0534269 2.21181867 11.0534269 2.21181867 11.7900702 2.94846195 11.7900702"></polygon>
                    <polygon id="路径" fill="#FFCAA0" points="2.94846195 10.3167836 2.21181867 10.3167836 2.21181867 11.0534269 2.94846195 11.0534269"></polygon>
                    <path d="M2.21181867,9.57825148 L3.21181867,9.57825148 L3.21181867,10.3148948 L2.21181867,10.3148948 L2.21181867,9.57825148 Z M2.21181867,5.1583918 L3.21181867,5.1583918 L3.21181867,5.89503508 L2.21181867,5.89503508 L2.21181867,5.1583918 Z" id="形状" fill="#2B1106"></path>
                    <path d="M2.21181867,4.42174852 L3.21181867,4.42174852 L3.21181867,5.1583918 L2.21181867,5.1583918 L2.21181867,4.42174852 Z M2.21181867,3.68510523 L3.21181867,3.68510523 L3.21181867,4.42174852 L2.21181867,4.42174852 L2.21181867,3.68510523 Z" id="形状" fill="#F68731"></path>
                    <polygon id="路径" fill="#FFCAA0" points="2.94846195 2.94846195 2.21181867 2.94846195 2.21181867 3.68510523 2.94846195 3.68510523"></polygon>
                    <path d="M2.21181867,2.21181867 L2.94846195,2.21181867 L2.94846195,2.94846195 L2.21181867,2.94846195 L2.21181867,2.21181867 Z M1.47328656,13.2633567 L2.20992984,13.2633567 L2.20992984,14 L1.47328656,14 L1.47328656,13.2633567 Z" id="形状" fill="#2B1106"></path>
                    <polygon id="路径" fill="#FFCAA0" points="2.20992984 12.5267134 1.47328656 12.5267134 1.47328656 13.2633567 2.20992984 13.2633567"></polygon>
                    <polygon id="路径" fill="#F68731" points="2.20992984 11.7881813 1.47328656 11.7881813 1.47328656 12.5248246 2.20992984 12.5248246"></polygon>
                    <polygon id="路径" fill="#FFCAA0" points="2.20992984 11.0534269 1.47328656 11.0534269 1.47328656 11.7900702 2.20992984 11.7900702"></polygon>
                    <path d="M1.47328656,10.3167836 L2.47328656,10.3167836 L2.47328656,11.0534269 L1.47328656,11.0534269 L1.47328656,10.3167836 Z M1.47328656,8.10496492 L2.47328656,8.10496492 L2.47328656,8.8416082 L1.47328656,8.8416082 L1.47328656,8.10496492 Z M1.47328656,5.89503508 L2.47328656,5.89503508 L2.47328656,6.63167836 L1.47328656,6.63167836 L1.47328656,5.89503508 Z" id="形状" fill="#2B1106"></path>
                    <polygon id="路径" fill="#FFCAA0" points="2.20992984 5.1583918 1.47328656 5.1583918 1.47328656 5.89503508 2.20992984 5.89503508"></polygon>
                    <polygon id="路径" fill="#F68731" points="2.20992984 4.42174852 1.47328656 4.42174852 1.47328656 5.1583918 2.20992984 5.1583918"></polygon>
                    <polygon id="路径" fill="#FFCAA0" points="2.20992984 3.68510523 1.47328656 3.68510523 1.47328656 4.42174852 2.20992984 4.42174852"></polygon>
                    <path d="M1.47328656,2.94846195 L2.20992984,2.94846195 L2.20992984,3.68510523 L1.47328656,3.68510523 L1.47328656,2.94846195 Z M0.736643281,13.2633567 L1.47328656,13.2633567 L1.47328656,14 L0.736643281,14 L0.736643281,13.2633567 Z" id="形状" fill="#2B1106"></path>
                    <polygon id="路径" fill="#F68731" points="1.47328656 12.5267134 0.736643281 12.5267134 0.736643281 13.2633567 1.47328656 13.2633567"></polygon>
                    <polygon id="路径" fill="#FFCAA0" points="1.47328656 11.7881813 0.736643281 11.7881813 0.736643281 12.5248246 1.47328656 12.5248246"></polygon>
                    <path d="M0.736643281,11.0534269 L1.73664328,11.0534269 L1.73664328,11.7900702 L0.736643281,11.7900702 L0.736643281,11.0534269 Z M0.736643281,8.8416082 L1.73664328,8.8416082 L1.73664328,9.57825148 L0.736643281,9.57825148 L0.736643281,8.8416082 Z M0.736643281,5.89503508 L1.73664328,5.89503508 L1.73664328,6.63167836 L0.736643281,6.63167836 L0.736643281,5.89503508 Z" id="形状" fill="#2B1106"></path>
                    <path d="M0.736643281,5.1583918 L1.73664328,5.1583918 L1.73664328,5.89503508 L0.736643281,5.89503508 L0.736643281,5.1583918 Z M0.736643281,4.42174852 L1.73664328,4.42174852 L1.73664328,5.1583918 L0.736643281,5.1583918 L0.736643281,4.42174852 Z" id="形状" fill="#FFCAA0"></path>
                    <path d="M0.736643281,3.68510523 L1.47328656,3.68510523 L1.47328656,4.42174852 L0.736643281,4.42174852 L0.736643281,3.68510523 Z M0,12.5267134 L0.736643281,12.5267134 L0.736643281,13.2633567 L0,13.2633567 L0,12.5267134 Z M0,11.7881813 L0.736643281,11.7881813 L0.736643281,12.5248246 L0,12.5248246 L0,11.7881813 Z M0,9.57825148 L0.736643281,9.57825148 L0.736643281,10.3148948 L0,10.3148948 L0,9.57825148 Z M0,5.1583918 L0.736643281,5.1583918 L0.736643281,5.89503508 L0,5.89503508 L0,5.1583918 Z M0,4.42174852 L0.736643281,4.42174852 L0.736643281,5.1583918 L0,5.1583918 L0,4.42174852 Z" id="形状" fill="#2B1106"></path>
                </g>
            </g>
        </g>
    </g>
</svg>