<?xml version="1.0" encoding="UTF-8"?>
<svg xmlns="http://www.w3.org/2000/svg" xmlns:xlink="http://www.w3.org/1999/xlink" width="18px" height="18px" viewBox="0 0 615 616" version="1.1">
<g id="surface1">
<path style=" stroke:none;fill-rule:nonzero;fill:rgb(19.993591%,19.993591%,19.993591%);fill-opacity:1;" d="M 186.695312 435 C 226.359375 475.308594 230.949219 518.640625 186.984375 563.324219 C 159.746094 590.988281 115.648438 607.609375 54.957031 614.726562 C 51.816406 615.101562 48.644531 615.085938 45.484375 614.710938 C 24.152344 612.117188 8.570312 593.15625 9.59375 571.496094 L 9.816406 568.664062 L 10.6875 561.496094 C 18.128906 503.640625 34.238281 461.28125 60.402344 434.691406 C 104.367188 390.027344 147.015625 394.703125 186.695312 435 Z M 550.0625 11.523438 L 556.921875 13.621094 L 563.628906 15.859375 C 580.359375 21.722656 593.457031 34.960938 599.144531 51.75 C 625.890625 129.878906 617.390625 209.035156 574.28125 287.507812 C 556.511719 319.832031 533.78125 350.433594 506.117188 379.292969 L 498.453125 387.125 L 491.199219 394.226562 L 490.996094 396.429688 C 485.960938 443.429688 450.308594 505.585938 384.617188 585.953125 L 378.917969 592.898438 L 368.421875 605.441406 C 356.542969 619.539062 334.425781 615.613281 327.496094 598.957031 L 326.675781 596.722656 L 289.949219 479.507812 L 286.621094 477.203125 C 265.984375 462.503906 246.328125 446.472656 227.777344 429.214844 L 218.644531 420.507812 L 209.703125 411.632812 C 183.285156 384.753906 159.511719 355.402344 138.703125 323.980469 L 136.671875 320.824219 L 17.070312 282.148438 C 0.242188 276.6875 -5.183594 255.882812 5.5 242.8125 L 6.914062 241.207031 L 8.453125 239.773438 C 106.824219 153.824219 179.410156 111.210938 231.394531 114.757812 L 234.738281 115.050781 L 236.683594 115.289062 L 241.070312 110.851562 C 264.65625 87.402344 289.351562 67.449219 315.171875 51.050781 L 323.808594 45.707031 L 331.746094 41.066406 C 403.800781 0.207031 476.949219 -9.84375 550.0625 11.539062 Z M 329.578125 176.574219 C 299.660156 206.511719 299.761719 255.132812 329.816406 285.1875 C 359.871094 315.242188 408.496094 315.34375 438.429688 285.425781 C 468.347656 255.492188 468.246094 206.867188 438.191406 176.8125 C 408.136719 146.757812 359.511719 146.65625 329.578125 176.574219 Z M 329.578125 176.574219 "/>
</g>
</svg>
