<?xml version="1.0" encoding="UTF-8"?>
<svg width="500px" height="500px" viewBox="0 0 500 500" version="1.1" xmlns="http://www.w3.org/2000/svg" xmlns:xlink="http://www.w3.org/1999/xlink">
    <title>cake</title>
    <defs>
        <rect id="path-1" x="0" y="0" width="500" height="500"></rect>
    </defs>
    <g id="cake" stroke="none" stroke-width="1" fill="none" fill-rule="evenodd">
        <g id="位图备份-5">
            <mask id="mask-2" fill="white">
                <use xlink:href="#path-1"></use>
            </mask>
            <use id="蒙版" fill="#4CD6DC" xlink:href="#path-1"></use>
            <g id="tether-usdt-logo" mask="url(#mask-2)">
                <g id="pancake">
                    <path d="M0,250.315675 C0,339.518142 47.5892598,421.946299 124.841074,466.547896 C202.092888,511.149492 297.272134,511.149492 374.526851,466.547896 C451.778665,421.946299 499.367925,339.518142 499.367925,250.315675 C499.367925,112.420174 387.580552,0.632801161 249.682148,0.632801161 C111.787373,0.632801161 0,112.420174 0,250.315675 Z" id="Fill-1" fill="#4CD6DC"></path>
                    <path d="M132.687954,123.642961 C129.260522,105.475327 136.4209,86.9361393 151.169811,75.787373 C165.916546,64.637881 185.708273,62.8069666 202.251814,71.0616836 C218.795356,79.3134978 229.235849,96.2256894 229.198839,114.713353 L229.198839,174.722061 C242.567489,173.777939 255.986938,173.75762 269.361393,174.662554 L269.361393,114.713353 C269.34688,96.2423803 279.793179,79.3534107 296.325109,71.1153846 C312.859942,62.8751814 332.632075,64.703193 347.373004,75.8381713 C362.113208,86.9702467 369.282293,105.486212 365.880987,123.642961 L352.719158,194.185051 C397.912917,213.923077 432.09434,248.20029 432.09434,291.277213 L432.09434,317.325109 C432.09434,352.759071 408.67344,382.41074 375.904209,402.432511 C342.888244,422.62119 298.230044,434.606676 249.682148,434.606676 C201.12627,434.606676 156.46807,422.62119 123.438316,402.432511 C90.6944848,382.421626 67.2706821,352.759071 67.2706821,317.325109 L67.2706821,291.288099 C67.2706821,248.439042 101.097242,214.277213 145.923077,194.50508 L132.676343,123.642961 L132.687954,123.642961 Z M335.835269,203.446299 L351.245283,120.896226 C353.58926,108.304064 348.608853,95.4658926 338.38389,87.7496372 C328.158926,80.0333817 314.44775,78.766328 302.981132,84.4782293 C291.514514,90.1872279 284.263425,101.891872 284.25762,114.702467 L284.25762,191.058055 C272.793904,189.578374 261.245283,188.84688 249.682148,188.870102 C237.853411,188.880987 226.046444,189.655298 214.325109,191.177068 L214.325109,114.702467 C214.274311,101.923077 207.017417,90.2641509 195.570392,84.5805515 C184.124093,78.8940493 170.452104,80.1552975 160.238752,87.8403483 C150.024673,95.5224964 145.024673,108.312772 147.312046,120.884615 L162.780842,203.709724 C114.437591,221.67344 82.1444122,254.156023 82.1444122,291.265602 L82.1444122,317.314224 C82.1444122,373.875181 157.156749,419.709724 249.671263,419.709724 C342.196662,419.709724 417.22061,373.875181 417.22061,317.314224 L417.22061,291.277213 C417.22061,253.966618 384.58418,221.3418 335.835269,203.434688 L335.835269,203.446299 Z" id="Fill-3" fill="#633001"></path>
                    <path d="M417.208999,317.325109 C417.208999,373.886792 342.196662,419.721335 249.682148,419.721335 C157.156749,419.721335 82.158926,373.886792 82.158926,317.325109 L82.158926,291.288099 L417.208999,291.288099 L417.208999,317.325109 Z" id="Fill-4" fill="#FEDC90"></path>
                    <path d="M147.312046,120.910015 C144.996372,108.32656 149.985486,95.5137881 160.204644,87.8149492 C170.423803,80.1124819 184.115385,78.8483309 195.570392,84.5435414 C207.028302,90.2409289 214.282293,101.920174 214.310595,114.713353 L214.310595,191.188679 C237.524673,188.144412 261.035559,188.107402 284.25762,191.081277 L284.25762,114.727866 C284.25762,101.914369 291.505806,90.2046444 302.972424,84.4927431 C314.441945,78.777939 328.15312,80.0449927 338.380987,87.7612482 C348.608853,95.4767779 353.58926,108.312772 351.245283,120.910015 L335.835269,203.460087 C384.58418,221.352685 417.22061,253.989115 417.22061,291.277213 C417.22061,347.824383 342.196662,393.658926 249.682148,393.658926 C157.156749,393.658926 82.158926,347.824383 82.158926,291.265602 C82.158926,254.167634 114.437591,221.684325 162.769956,203.732221 L147.312046,120.921626 L147.312046,120.910015 Z" id="Fill-5" fill="#D1884F"></path>
                    <path d="M203.148041,283.844702 C203.148041,299.253991 194.813498,311.749637 184.515239,311.749637 C174.244557,311.749637 165.907837,299.253991 165.907837,283.82148 C165.907837,268.400581 174.244557,255.90566 184.515239,255.90566 C194.813498,255.90566 203.148041,268.400581 203.148041,283.82148 L203.148041,283.844702 Z M331.580552,283.844702 C331.580552,299.253991 323.246734,311.749637 312.973149,311.749637 C302.688679,311.749637 294.351959,299.253991 294.351959,283.82148 C294.351959,268.400581 302.674891,255.90566 312.973149,255.90566 C323.246734,255.90566 331.580552,268.400581 331.580552,283.82148 L331.580552,283.844702 Z" id="Fill-6" fill="#633001"></path>
                </g>
            </g>
        </g>
    </g>
</svg>