<?xml version="1.0" encoding="UTF-8"?>
<svg width="166px" height="56px" viewBox="0 0 166 56" version="1.1" xmlns="http://www.w3.org/2000/svg" xmlns:xlink="http://www.w3.org/1999/xlink">
    <title>编组 15</title>
    <defs>
        <rect id="path-1" x="0" y="0" width="56" height="56" rx="28"></rect>
    </defs>
    <g id="页面-1" stroke="none" stroke-width="1" fill="none" fill-rule="evenodd">
        <g id="Ostrich-Swap" transform="translate(-40.000000, -17.000000)">
            <g id="编组-15" transform="translate(40.000000, 17.000000)">
                <rect id="矩形" fill="#F68731" fill-rule="nonzero" x="0" y="0" width="56" height="56" rx="28"></rect>
                <g id="编组-10">
                    <g id="Clipped">
                        <mask id="mask-2" fill="white">
                            <use xlink:href="#path-1"></use>
                        </mask>
                        <g id="F68731"></g>
                        <g id="编组" mask="url(#mask-2)" fill-rule="nonzero">
                            <g transform="translate(9.249927, 13.799504)" id="路径">
                                <path d="M8.5986303,32.3953198 C8.63299394,30.6557562 8.62086061,28.8332956 7.79961212,27.3000834 C7.01688485,25.8416228 5.6110303,24.8465198 4.42170909,23.6935138 C3.23433939,22.5405925 2.18052121,20.9809925 2.45356364,19.3486774 C2.68613333,17.9570774 3.82089697,16.901138 4.99010909,16.1123016 C6.15923636,15.3234653 7.45580606,14.6619865 8.34374545,13.5656592 C9.22973333,12.4693319 9.56149091,10.743938 8.62493333,9.68808345 C7.28992727,8.1871986 4.25175758,8.82237436 3.44875152,6.98167133 C3.0604,6.08762284 3.47301818,5.03779254 4.07374545,4.27118648 C5.86184242,1.98757436 8.98290909,1.32007133 11.8471394,0.856798599 C15.4415758,0.276350115 19.0885333,-0.219249885 22.715297,0.100374357 C26.3420606,0.419913751 29.9890182,1.61738042 32.6894061,4.06084708 C33.5591879,4.84968345 34.3440364,6.20089557 33.5955879,7.10504102 C32.9705939,7.85951375 31.7994303,7.65528345 30.8224,7.59860466 C29.6088121,7.52987739 28.3344727,7.82718648 27.4181939,8.62620466 C26.5018303,9.42513799 26.0305818,10.7783865 26.4594061,11.9151016 C26.8335879,12.9063016 27.7802424,13.5616713 28.7430182,14.0005925 C29.7058788,14.4395138 30.7455273,14.7287622 31.6315152,15.3072592 C33.3508848,16.4278531 34.2752242,18.7398047 33.5814182,20.6715501 C33.1020242,22.0065562 31.9895758,22.995635 31.1197939,24.1163138 C28.9049091,26.9763865 28.2717697,30.7184592 27.7114303,34.2926168 C27.2685212,37.1184107 26.8234909,39.9643986 26.9306545,42.8204834 C26.965103,43.7529683 27.0439273,44.7501925 26.5747152,45.5572713 C26.0750424,46.4108471 25.0535515,46.8396713 24.0685455,46.9246047 C23.0834545,47.0096228 22.0983636,46.8093804 21.1153091,46.6980592 C19.7621455,46.5463501 18.3988,46.5625562 17.0374909,46.5787622 C15.4051758,46.5787622 13.7727758,46.619235 12.142497,46.6394289 C11.240303,46.6515622 9.74391515,46.3049562 9.12494545,45.5342774 C8.58692121,44.8667744 8.0221697,43.767138 8.0808,43.0126653 C8.21231515,41.3459016 8.31947879,39.6771865 8.40441212,38.006435 C8.49545455,36.1414653 8.5622303,34.2683501 8.5986303,32.3953198 Z" fill="#FAE5CD"></path>
                                <path d="M8.83323636,17.5848471 C8.49749091,17.9267016 8.0444,18.2988471 7.59334545,18.1390774 C7.20499394,18.0035744 7.04310303,17.5363138 7.02698182,17.1236107 C6.9945697,16.2983744 7.34253333,15.483235 7.89065455,14.8642653 C8.43682424,14.2452956 9.17110303,13.8103622 9.9457697,13.5251865 C10.4413697,13.3431865 10.9713333,13.209635 11.3798788,12.8759259 C11.6933939,12.6190047 11.9078061,12.2670531 12.1161939,11.9211259 C12.5753091,11.1585925 13.0365455,10.3960592 13.4956606,9.63547739 C13.732303,9.24101678 13.993297,8.82636224 14.4099879,8.63019254 C15.0228485,8.33890769 15.7348121,8.61602284 16.3983273,8.74948951 C17.2336606,8.91740466 18.1155758,8.84460466 18.9125576,8.54525921 C19.6589697,8.26407133 20.5064364,7.79273799 21.1820848,8.21350163 C21.4510545,8.38141678 21.6250788,8.66048345 21.7889212,8.93157436 C22.2298788,9.66381678 22.6688,10.4101441 23.2695273,11.0190168 C24.2040485,11.9677077 25.4560727,12.5178653 26.6374182,13.1327622 C27.8186788,13.7476592 29.008,14.5041683 29.6330788,15.6794047 C29.7746061,15.9484592 29.8859273,16.270035 29.7685818,16.5491865 C29.6593818,16.8100956 29.3741212,16.9618047 29.0949697,16.9982047 C28.8138667,17.0346047 28.5306424,16.9759744 28.2535273,16.927441 C27.6871636,16.8303744 27.1127394,16.7757319 26.5382303,16.7676713 C26.307697,16.7635986 26.0528121,16.7777683 25.8889697,16.9395744 C25.6422303,17.1823259 25.7413333,17.588835 25.7878303,17.9306895 C25.8343273,18.2745804 25.6907636,18.741841 25.3468727,18.7196107 C25.1891394,18.7094289 25.061697,18.5921683 24.9443515,18.4849198 C24.3718788,17.965138 23.7024242,17.568641 23.0247394,17.1984471 C22.5595152,16.9436471 22.0821576,16.6988592 21.5684,16.5674289 C21.0526061,16.4359138 20.5125455,16.4217441 19.9805455,16.4096107 C18.0873212,16.3671016 16.1940121,16.3246774 14.300703,16.2821683 C13.9831152,16.2741077 13.6615394,16.2679986 13.352097,16.3408834 C12.4984364,16.5430774 11.9139152,17.2995865 11.3171758,17.9428228 C11.058303,18.2219744 10.7326545,18.5091865 10.3523636,18.4809319 C9.96197576,18.4525925 9.65244848,18.0297925 9.74145455,17.6495865 C9.80212121,17.3885925 10.5201939,16.6988592 10.1157212,16.5309441 C9.7496,16.379235 9.04968485,17.3643259 8.83323636,17.5848471 Z" fill="#EF6E69"></path>
                                <path d="M9.20945455,15.0685804 C9.77785455,14.722738 10.4352606,14.5629683 11.058303,14.326241 C11.6792242,14.0895986 12.304303,13.7417198 12.6258788,13.1591501 C13.6170788,13.7133804 14.6121818,14.2716834 15.6862788,14.6397562 C16.7603758,15.0099501 17.9254303,15.1838895 19.0359273,14.9513198 C20.0473212,14.7408956 20.9717455,14.2049077 21.9931515,14.0471744 C22.8589455,13.9115865 23.7408606,14.0572713 24.6045333,14.200835 C25.4541212,14.3424471 26.3116848,14.4860956 27.1066303,14.8137804 C27.9015758,15.1434168 28.6418788,15.6774531 29.0545818,16.4339622 C28.6358545,16.2781804 28.3385455,15.9120592 27.9946545,15.6289198 C26.9752,14.7874774 25.5633212,14.6641077 24.2445212,14.5770531 C23.5385818,14.5305562 22.8306061,14.4840592 22.126703,14.5487986 C20.3001697,14.7146774 18.5322667,15.6228107 16.7158303,15.3699622 C15.7955636,15.2426047 14.9439394,14.8238774 14.1247273,14.3829198 C13.8132485,14.217041 13.497697,14.0431016 13.1498182,13.9844713 C12.6845939,13.9075986 12.2112242,14.045138 11.7622061,14.190738 C11.2363152,14.362641 10.7123758,14.5467622 10.1945455,14.7429319 C9.49267879,15.0099501 8.7584,15.3335622 8.33568485,15.9545683 C8.14350303,16.2357562 8.05653333,16.5513077 7.93918788,16.8648228 C7.70254545,16.2499259 8.76450909,15.3396713 9.20945455,15.0685804 Z" fill="#1B1A1A"></path>
                                <path d="M10.8135152,10.2849077 C10.7993455,8.76781678 10.3078182,7.25887133 9.42793939,6.0229683 C8.7584,5.08445921 7.84212121,4.28951375 6.74579394,3.93348951 C6.14506667,3.73935618 5.47552727,3.68267739 4.89092121,3.92135618 C4.3064,4.1579986 3.83710303,4.73445921 3.85330909,5.36556224 C3.86747879,5.89153799 4.20322424,6.36278648 4.62195152,6.68241072 C5.04067879,6.9999986 5.5382303,7.19014405 6.02169697,7.39641072 C6.96020606,7.79689557 7.88055758,8.27425314 8.64309091,8.95388951 C9.33290909,9.56887133 9.89316364,10.3637319 10.1217455,11.2679622 C10.2046424,11.5936107 10.2329818,12.0668956 10.5667758,11.6077804 C10.8256485,11.2517562 10.8175879,10.703635 10.8135152,10.2849077 Z" fill="#F2D7B8"></path>
                                <path d="M25.3994788,10.3313198 C25.4682061,9.95917436 25.6340848,9.61324708 25.8080242,9.27750163 C26.1458909,8.6241683 26.5382303,7.96472587 27.1491394,7.55414405 C27.7782061,7.12930769 28.5630545,7.02010769 29.3195636,6.96546527 C29.9465939,6.9189683 30.5756606,6.90276224 31.2047273,6.91489557 C31.4514667,6.9189683 31.7083879,6.92711375 31.932897,6.82393799 C32.2646545,6.67019254 32.4527636,6.28990163 32.4487557,5.92581678 C32.4446182,5.56173193 32.2767879,5.21385314 32.0542303,4.92460466 C31.4676727,4.16605921 30.4947152,3.75946527 29.5359273,3.75140466 C28.5772242,3.74325921 27.6406667,4.10938042 26.8578545,4.66157436 C25.1628364,5.85904102 24.1676485,8.02335618 24.4750545,10.076435 C24.5256242,10.4203259 24.638897,10.8228471 24.9423152,11.0291986 C25.5754545,11.4580228 25.3306667,10.7035501 25.3994788,10.3313198 Z" fill="#F2D7B8"></path>
                                <path d="M17.2377333,8.32677436 C18.1519758,8.39151375 19.0825091,8.21952587 19.9118182,7.82913799 C20.3143394,7.63899254 20.7269576,7.35585314 20.8260606,6.92295618 C20.8604242,6.77328345 20.8462545,6.60138042 20.7390909,6.49209557 C20.6197091,6.3727986 20.4336364,6.36872587 20.2658061,6.34242284 C20.0999273,6.31815618 19.9077455,6.22915011 19.8915394,6.06131981 C19.8834788,5.97231375 19.9299758,5.88933193 19.9603515,5.80643496 C20.1180848,5.38974405 19.9259879,4.93258042 19.7377939,4.53005921 C19.6326667,4.30758648 19.5274545,4.07900466 19.3615758,3.89691981 C19.0764,3.5813683 18.6172,3.39325921 18.4878061,2.98675011 C18.4432606,2.84513799 18.445297,2.6934289 18.4150061,2.54978042 C18.3158182,2.09668951 17.8445697,1.75890769 17.3833333,1.81151375 C16.9100485,1.86615618 16.5418909,2.27266527 16.3659152,2.71565921 C16.1899394,3.15865314 16.1636364,3.64407133 16.0867636,4.11540466 C15.9997939,4.64944102 15.844097,5.18135618 15.5548485,5.64055618 C15.2716242,6.09161072 13.5846667,7.51562284 14.4160121,8.04965921 C14.7052606,8.23369557 15.2129939,8.12245921 15.5345697,8.13255618 C16.1090788,8.14672587 16.667297,8.28630163 17.2377333,8.32677436 Z" fill="#CFA483" opacity="0.6"></path>
                                <path d="M21.6614788,16.6725562 C21.3317576,16.5613198 20.9939758,16.4622168 20.6480485,16.4258168 C20.2496,16.3833077 19.8450424,16.4258168 19.4445576,16.4480471 C17.7494545,16.5471501 16.0483273,16.3287501 14.3553455,16.4500834 C13.9002182,16.4824956 13.4390667,16.5431622 13.0223758,16.7271986 C12.5389091,16.9416107 12.1404606,17.3157925 11.8006424,17.7223865 C11.5498303,18.0237683 11.313103,18.3818289 11.3394061,18.7722168 C11.3718182,19.2171622 11.8006424,19.5974531 12.2455879,19.5731865 C12.6279152,19.5529925 13.0526667,19.2919986 13.3581212,19.5246531 C13.5988364,19.7086895 13.5745697,20.0727744 13.5098303,20.3701683 C13.4450909,20.665441 13.3783152,21.0134047 13.5766061,21.2419865 C13.7181333,21.4058289 13.9588485,21.4543622 14.1125939,21.6060713 C14.337103,21.8285441 14.3169091,22.1946653 14.4503758,22.4839138 C14.6425576,22.9006047 15.1239879,23.0907501 15.4435273,23.418435 C15.8339152,23.8209562 15.9613576,24.4014895 16.0726788,24.9516471 C16.2708848,25.9347016 16.4690909,26.9157198 16.667297,27.8987744 C16.7057333,28.0868834 16.7704727,28.3074047 16.9545091,28.366035 C17.215503,28.4469804 17.4177818,28.1293925 17.4804848,27.8623744 C17.6200606,27.2596107 17.5896848,26.6345319 17.5957939,26.0156471 C17.6038545,25.1377198 17.6908242,24.2619138 17.8526303,23.4001925 C17.976,22.7427865 18.1519758,22.0752834 18.5383758,21.5271622 C18.9246909,20.979041 19.5578303,20.566338 20.2273697,20.602738 C20.8301333,20.6371865 21.3539879,21.0134047 21.9345212,21.1792834 C22.6647273,21.3875865 23.5001455,21.2318047 24.0786424,20.7402774 C24.6409333,20.2609683 25.1992364,19.0816592 24.7319758,18.3898895 C24.1069818,17.4756471 22.6566667,17.0083865 21.6614788,16.6725562 Z" fill="#CFA483" opacity="0.6"></path>
                                <path d="M12.3002303,40.660241 C13.0142303,37.6828228 14.2926424,34.8510047 14.8084364,31.8330289 C15.0410061,30.4717198 15.1037091,29.0153804 14.5171515,27.7632713 C13.9325455,26.5112471 12.5368727,25.5544956 11.1897333,25.8619016 C10.9995879,25.9044107 10.8013818,25.9833198 10.7002424,26.1471622 C10.6072485,26.2988713 10.6153091,26.4909683 10.6334667,26.6689804 C10.7224727,27.5347744 10.9631879,28.3762168 11.1210061,29.2297925 C11.4244242,30.8844228 11.4142424,32.5956471 11.0865576,34.2462047 C10.9105818,35.1301562 10.6476364,35.9979016 10.5283394,36.8919501 C10.4029333,37.8324956 10.4413697,38.7851744 10.4777697,39.7338653 C10.5141697,40.6420834 10.5526061,41.5664228 10.8398182,42.4281441 C10.9571636,42.7800956 11.9422545,44.675441 12.2617939,43.7489804 C12.3569091,43.475938 12.0494182,42.5879138 12.0615515,42.2339259 C12.0797939,41.708035 12.1748242,41.1780713 12.3002303,40.660241 Z" fill="#F2D7B8"></path>
                                <path d="M24.6125939,38.4978774 C24.6834424,37.6705198 24.7542061,36.8432471 24.9281455,36.0320956 C25.2032242,34.7537683 25.7331879,33.5340713 25.9193455,32.2414895 C26.0204848,31.5457319 26.0143758,30.8134895 25.7352242,30.1682168 C25.4560727,29.5229441 24.8553455,28.9849198 24.1555152,28.9302774 C23.2391515,28.8595138 22.4604121,29.5856471 21.9264606,30.3320592 C20.5752485,32.2253683 19.9603515,34.632435 20.2374667,36.9423501 C20.3810303,38.1377804 20.7512242,39.2928228 21.1193818,40.439635 C21.5036606,41.6351501 21.8880242,42.8305804 22.272303,44.0260107 C22.4988485,44.7319501 22.6647273,45.6967622 23.4718061,44.9443259 C24.1575515,44.3031259 24.1999758,43.2958047 24.2748121,42.4340834 C24.3880848,41.1213077 24.5013576,39.8086168 24.6125939,38.4978774 Z" fill="#F2D7B8"></path>
                                <path d="M6.83072727,10.0359622 C6.36753939,9.41495618 5.66567273,8.94574405 4.89499394,8.87082284 C5.03660606,8.53100466 5.41282424,8.33687133 5.77894545,8.3105683 C6.14506667,8.28426527 6.50711515,8.39550163 6.85304242,8.51691981 C7.65808485,8.79802284 8.48739394,9.17831375 8.95864242,9.89036224 C9.46841212,10.6589198 9.4501697,11.6945804 9.08209697,12.5421319 C8.87981818,13.0073562 8.58038788,13.4645198 8.21630303,13.8204592 C7.75515152,14.2715986 7.69041212,13.6809683 7.70661818,13.2743744 C7.74505455,12.1517441 7.5124,10.9502047 6.83072727,10.0359622 Z" fill="#A6514E"></path>
                                <path d="M27.9339879,11.6825319 C27.861103,10.9583501 27.9258424,10.1998047 28.2535273,9.54850769 C28.7673697,8.52701678 29.8838909,7.89591375 31.0186545,7.76041072 C30.7152364,7.51969557 30.3026182,7.48125921 29.9162182,7.49746527 C29.0808848,7.5318289 28.247503,7.78467739 27.569903,8.2741683 C26.8942545,8.76569557 26.3845697,9.50201072 26.2328606,10.3231744 C26.0831879,11.1283016 26.2854667,11.9919744 26.7769939,12.6453077 C27.0541091,13.0134653 28.2090667,14.0693198 28.7207879,13.7356107 C28.2798303,13.1024713 28.0128121,12.459235 27.9339879,11.6825319 Z" fill="#A6514E"></path>
                                <path d="M8.09293333,12.5543501 C8.10913939,12.2651016 8.10913939,11.9738168 8.05449697,11.688641 C7.89065455,10.8350653 7.26769697,10.1533925 6.64669091,9.54655618 C6.43024242,9.33621678 6.2077697,9.12579254 5.93871515,8.98825314 C5.66974545,8.85071375 5.34604848,8.79411981 5.06290909,8.90331981 C4.89295758,8.96805921 4.75134545,9.08939254 4.62797576,9.22294405 C4.01511515,9.88637436 3.86340606,10.8876713 4.08587879,11.7634774 C4.3064,12.6392834 4.85859394,13.3978289 5.49979394,14.0330047 C5.98928485,14.5184228 6.72763636,14.9149198 7.40116364,14.4982289 C7.96345455,14.1462774 8.06264242,13.1409925 8.09293333,12.5543501 Z" fill="#333333"></path>
                                <path d="M29.5683394,13.899538 C29.8555515,13.7943259 30.0962667,13.6123259 30.3187394,13.4221804 C30.8426788,12.9771501 31.2957697,12.4673804 31.6618909,11.9151865 C32.0846061,11.2780592 32.3960848,10.5538774 32.3152242,9.82171981 C32.2585455,9.31195011 32.0097697,8.82042284 31.6153091,8.4421683 C31.2127879,8.05585314 30.6100242,7.78476224 30.0214303,7.88590163 C29.6006667,7.95870163 29.2487152,8.2095986 28.9493697,8.4785683 C27.8166424,9.49598648 27.1713697,10.9160107 27.1976727,12.3339138 C27.2037818,12.617138 27.2361091,12.908338 27.3918909,13.1551622 C27.762,13.7417198 28.8401697,14.1665562 29.5683394,13.899538 Z" fill="#333333"></path>
                                <path d="M30.6059515,11.2394531 C30.7617333,10.8733319 30.885103,10.4748834 30.8184121,10.0824592 C30.7516364,9.69003496 30.4360848,9.31788951 30.0395879,9.30371981 C29.6452121,9.28955011 29.3215152,9.6151986 29.1212727,9.95501678 C28.8684242,10.383841 28.726897,10.8712956 28.6317818,11.3628228 C28.5347152,11.8705562 28.6054788,12.8698168 29.3640242,12.7808107 C30.0173576,12.7019016 30.3895879,11.7552471 30.6059515,11.2394531 Z" fill="#1B1A1A"></path>
                                <path d="M27.7944121,9.98140466 C27.9825212,9.60722284 28.2090667,9.25527133 28.4679394,8.92758648 C28.7045818,8.63019254 28.9716,8.35307739 29.295297,8.15487133 C30.118497,7.65121072 31.1561939,7.73410769 32.1109091,7.58850769 C33.2901333,7.41049557 34.4107273,6.85219254 35.2623515,6.01685921 C35.1207394,6.54885921 34.8335273,7.04038648 34.4390667,7.4226289 C34.6372727,7.41855618 34.8355636,7.45699254 35.0196,7.5318289 C34.7728606,7.85756224 34.3985939,8.06993799 34.0082061,8.19330769 C33.6178182,8.31667739 33.2072364,8.35715011 32.7986061,8.39762284 C33.304303,8.72123496 33.9596727,8.80218042 34.5280727,8.60796224 C34.4148,8.75763496 34.2226182,8.82237436 34.0406182,8.86081072 C33.4924121,8.97815618 32.9118788,8.94370769 32.3779273,8.76578042 C32.9726303,9.2875986 33.5591879,9.86609557 33.8403758,10.6063986 C33.1910303,10.1230168 32.5660364,9.60518648 31.9713333,9.05698042 C31.5546424,8.67270163 31.1035879,8.25193799 30.5392606,8.20747739 C30.0882061,8.17311375 29.6573455,8.38947739 29.2750182,8.62815618 C28.5225818,9.09948951 27.8207152,9.72049557 27.4828485,10.5417441" fill="#1B1A1A"></path>
                                <path d="M4.58750303,8.36724708 C3.81894545,8.18117436 3.01381818,8.26008345 2.22294545,8.24387739 C1.43207273,8.22571981 0.592666667,8.09013193 0,7.56424102 C0.00203636364,8.03956224 0.339818182,8.46032587 0.752436364,8.6969683 C1.16505455,8.93361072 1.64241212,9.0186289 2.11170909,9.09948951 C1.47458182,9.25934405 0.798933333,9.27147739 0.15569697,9.13385314 C1.02547879,9.83580466 2.3322303,9.93898042 3.29907879,9.37864102 C3.12106667,9.73670163 2.80551515,10.0259501 2.4333697,10.1715501 C2.81561212,10.2909319 3.22627879,10.1047744 3.55591515,9.87627739 C3.88563636,9.64769557 4.19516364,9.36650769 4.58147879,9.25934405 C5.5665697,8.98825314 6.20573333,9.82969557 7.00873939,10.1553441 C7.12608485,9.74883496 6.42218182,9.3239986 6.15109091,9.12375618 C5.67984242,8.78190163 5.15793939,8.50478648 4.58750303,8.36724708 Z" fill="#1B1A1A"></path>
                                <path d="M6.48895758,11.2172228 C6.29270303,10.9745562 6.04596364,10.7641319 5.75060606,10.661041 C5.45533333,10.5599016 5.1073697,10.5821319 4.85859394,10.770241 C4.55110303,11.0028107 4.45810909,11.4437683 4.55313939,11.818035 C4.64825455,12.1901804 4.90305455,12.5057319 5.18424242,12.7686774 C5.54026667,13.1024713 6.40190303,13.767938 6.81655758,13.209635 C7.24538182,12.6331744 6.8853697,11.7027259 6.48895758,11.2172228 Z" fill="#1B1A1A"></path>
                                <path d="M5.55036364,11.2071259 C5.58472727,11.2172228 5.62112727,11.2131501 5.65761212,11.2071259 C5.82747879,11.1747138 5.96909091,11.0513441 6.04995152,10.8975986 C6.13089697,10.7458895 6.15516364,10.5679622 6.14506667,10.3959744 C6.13895758,10.2927986 6.11672727,10.1815622 6.04392727,10.1087622 C5.98529697,10.0501319 5.90027879,10.0258653 5.81738182,10.0177198 C5.64140606,9.99956224 5.45728485,10.0520834 5.32381818,10.1673925 C5.19035152,10.2827016 5.10940606,10.4627501 5.12561212,10.6387259 C5.13774545,10.8126653 5.37031515,11.1545198 5.55036364,11.2071259 Z" fill="#FFFFFF"></path>
                                <path d="M29.8596242,9.75282284 C29.9344606,9.69614405 30.0113333,9.63751375 30.061903,9.5565683 C30.0962667,9.50201072 30.118497,9.43930769 30.1367394,9.37660466 C30.2843758,8.85470163 29.4914667,8.75763496 29.2224121,9.08124708 C28.8624,9.51414405 29.3983879,10.102738 29.8596242,9.75282284 Z" fill="#FFFFFF"></path>
                                <path d="M25.6502909,16.3368956 C25.6725212,16.1508228 25.666497,15.9526168 25.5795273,15.786738 C25.4621818,15.5662168 25.2255394,15.4408107 24.9989939,15.3417077 C23.5668364,14.7187501 21.9122909,14.6256713 20.4194667,15.0787622 C20.0048121,15.2062047 19.598303,15.3720834 19.1694788,15.4408107 C18.8013212,15.4995259 18.4271394,15.4812834 18.0569455,15.4631259 C17.2194909,15.4226531 16.3760121,15.3821804 15.5629091,15.1799016 C15.0107152,15.0423622 14.4787152,14.8299865 13.9265212,14.6924471 C13.3743273,14.5549077 12.7856485,14.4922047 12.2395636,14.6540107 C11.6933939,14.8158168 11.2018667,15.2405683 11.0825697,15.796835 C11.0704364,15.8575016 11.0622909,15.9242774 11.0986909,15.9748471 C11.1230424,16.0092107 11.1654667,16.0294895 11.2059394,16.0456107 C11.6933939,16.2297319 12.2314182,16.0233804 12.7452606,15.932338 C13.3480242,15.8272107 13.9649576,15.8838047 14.5757818,15.922241 C15.4921455,15.9789198 16.412497,15.9869804 17.3308121,15.9505804 C18.6658182,15.895938 20.0250909,15.7462653 21.3175879,16.0840471 C21.8495879,16.2236228 22.3552848,16.4421077 22.8589455,16.6605077 C23.1825576,16.8021198 23.5082061,16.9416956 23.8318182,17.0833077 C24.0846667,17.1925077 24.420497,17.4210895 24.6995636,17.4251622 C25.2315636,17.4332228 25.5956485,16.7960956 25.6502909,16.3368956 Z" fill="#654B3D" opacity="0.52"></path>
                                <path d="M19.1370667,10.9845683 C19.0702909,10.7944228 18.9287636,10.6407622 18.7709455,10.5173077 C18.3785212,10.2099016 17.8668,10.0581925 17.3712,10.1046895 C16.8756848,10.1512713 16.3983273,10.3919016 16.0686061,10.7661683 C15.9573697,10.8915744 15.8663273,11.0958895 15.9876606,11.2111138 C16.0888,11.3062289 16.2546788,11.2576956 16.3760121,11.1909198 C16.4994667,11.1261804 16.6409939,11.0472713 16.7684364,11.1059865 C16.7098061,11.2536228 16.8372485,11.421538 16.9869212,11.4760956 C17.1365939,11.530738 17.3024727,11.5085077 17.4622424,11.5085077 C17.7029576,11.5064713 17.9436727,11.557041 18.1722545,11.6339138 C18.3239636,11.6865198 18.4777091,11.7532107 18.6395152,11.7492228 C19.029903,11.7410774 19.2584848,11.3284592 19.1370667,10.9845683 Z" fill="#FFC0BD" opacity="0.49"></path>
                            </g>
                        </g>
                    </g></g>
            </g>
        </g>
    </g>
</svg>