<?xml version="1.0" encoding="utf-8"?>
<!-- Generator: Adobe Illustrator 23.0.0, SVG Export Plug-In . SVG Version: 6.00 Build 0)  -->
<svg version="1.1" id="图层_1" xmlns="http://www.w3.org/2000/svg" xmlns:xlink="http://www.w3.org/1999/xlink" x="0px" y="0px"
	 viewBox="0 0 708.7 708.7" style="enable-background:new 0 0 708.7 708.7;" xml:space="preserve">
<style type="text/css">
	.st0{fill:#2559A8;}
	.st1{fill:#FFFFFF;}
</style>
<g>
	<circle class="st0" cx="350.4" cy="351.7" r="326.3"/>
	<path class="st1" d="M371.7,129v126c20.6,3.6,34.4,11.8,43.5,21.5c12.4,13.2,2.9,34.9-15.2,34.9h-1.6c-7,0-13.4-3.7-17.2-9.5
		c-4.7-7.2-14.3-13.6-35.8-13.6c-21.7,0-32.7,7.3-32.7,20.3c0,11.5,7.7,17.4,42.9,24.1c71.2,13.6,82.4,36.5,82.4,65.5
		c0,30.3-19.5,55.4-66.3,61.3v27.7c0,12.6-10.2,22.8-22.8,22.8s-22.8-10.2-22.8-22.8v-27.9c0-0.1,0-0.2,0-0.3
		c-25.4-3.9-42.8-14.4-53.6-28.8c-10.3-13.7-0.6-33.3,16.5-33.3h2.2c7.2,0,13.9,3.8,17.7,10c7.1,11.5,20.4,18.6,45,18.6
		c29.1,0,37.6-9.5,37.6-22.4c0-13.8-8.6-21.5-48.1-28.7c-65.1-11.9-76.9-34.4-76.9-61.2c0-33.4,25.3-53.2,59.7-58.7V129
		c-114.2,11.4-203.3,107.8-203.3,225c0,124.9,101.2,226.1,226.1,226.1S575,478.9,575,354C575,236.8,485.8,140.4,371.7,129z"/>
</g>
</svg>
