<?xml version="1.0" encoding="UTF-8"?>
<svg width="78px" height="40px" viewBox="0 0 78 40" version="1.1" xmlns="http://www.w3.org/2000/svg" xmlns:xlink="http://www.w3.org/1999/xlink">
    <title>编组</title>
    <defs>
        <polygon id="path-1" points="0 0 17.1848297 0 17.1848297 22.8260329 0 22.8260329"></polygon>
        <polygon id="path-3" points="0 0 28.5376478 0 28.5376478 37.9049161 0 37.9049161"></polygon>
    </defs>
    <g id="页面-1" stroke="none" stroke-width="1" fill="none" fill-rule="evenodd">
        <g id="Ostrich-Swap" transform="translate(-1594.000000, -189.000000)">
            <g id="编组" transform="translate(1594.000000, 189.000000)">
                <path d="M74.4296846,40 L63.0937012,40 C62.3744371,40 61.7863024,39.4118653 61.7863024,38.6926011 C61.7863024,37.973337 62.3744371,37.3847695 63.0937012,37.3847695 L74.4296846,37.3847695 C75.1489487,37.3847695 75.7370834,37.973337 75.7370834,38.6926011 C75.7370834,39.4118653 75.1489487,40 74.4296846,40" id="Fill-1" fill="#E7EBEB"></path>
                <g transform="translate(60.169386, 15.079056)">
                    <mask id="mask-2" fill="white">
                        <use xlink:href="#path-1"></use>
                    </mask>
                    <g id="Clip-4"></g>
                    <path d="M17.1848729,12.4910471 C17.1848729,18.7939127 13.3375456,22.8260329 8.59222009,22.8260329 C3.84689455,22.8260329 0,18.7939127 0,12.4910471 C0,6.18774871 3.84689455,0 8.59222009,0 C13.3375456,0 17.1848729,6.18774871 17.1848729,12.4910471" id="Fill-3" fill="#E5A867" mask="url(#mask-2)"></path>
                </g>
                <path d="M62.8983055,26.0549748 C62.8983055,31.3516496 66.1310991,34.7398077 70.1190767,34.7398077 C72.9519906,34.7398077 75.4027684,33.0294998 76.5846639,30.139893 C77.1792902,28.6866506 77.3519655,27.0953544 77.1524585,25.5382472 C76.5781724,21.0564787 74.1455709,16.9810814 70.9876466,15.6416576 C70.7028838,15.5875613 70.4129277,15.5581329 70.1190767,15.5581329 C66.1310991,15.5581329 62.8983055,20.7583 62.8983055,26.0549748" id="Fill-5" fill="#F6C485"></path>
                <path d="M74.2770898,23.529371 C74.0096378,23.529371 73.7616605,23.3575613 73.677703,23.0883782 C73.0800473,21.1789959 71.9578741,19.6218887 70.675576,18.9220992 C70.3709057,18.7563482 70.2583855,18.3746449 70.425002,18.0699746 C70.590753,17.7657371 70.9733219,17.6536497 71.2771266,17.8194007 C72.8619312,18.6836428 74.1740905,20.4675217 74.8769093,22.7131664 C74.9803414,23.0442356 74.7959813,23.3965106 74.4649121,23.5008082 C74.4025932,23.5202829 74.3394087,23.529371 74.2770898,23.529371" id="Fill-7" fill="#FCEDDA"></path>
                <path d="M74.7343981,26.2734805 C74.3795265,26.2691528 74.101688,25.98439 74.1060157,25.6373083 C74.1090451,25.3715873 74.0934654,25.1002404 74.0588438,24.8314901 L74.037638,24.6756928 C73.9878695,24.332506 74.2258931,24.0135544 74.5690799,23.9637858 C74.9148633,23.9122861 75.2316511,24.1520408 75.2809869,24.4956604 L75.305222,24.6730962 C75.3472007,24.9985394 75.3662426,25.3283103 75.3623477,25.6524552 C75.35802,25.9969403 75.0775849,26.2734805 74.7343981,26.2734805" id="Fill-9" fill="#FCEDDA"></path>
                <path d="M25.7747128,40 L2.76302152,40 C1.78149864,40 0.978277098,39.1972112 0.978277098,38.2152556 C0.978277098,37.2337327 1.78149864,36.4305112 2.76302152,36.4305112 L25.7747128,36.4305112 C26.7566684,36.4305112 27.5594572,37.2337327 27.5594572,38.2152556 C27.5594572,39.1972112 26.7566684,40 25.7747128,40" id="Fill-11" fill="#E7EBEB"></path>
                <g>
                    <mask id="mask-4" fill="white">
                        <use xlink:href="#path-3"></use>
                    </mask>
                    <g id="Clip-14"></g>
                    <path d="M28.5376478,20.7425472 C28.5376478,31.2099606 22.1495264,37.9049161 14.2687806,37.9049161 C6.38846754,37.9049161 -8.65540454e-05,31.2099606 -8.65540454e-05,20.7425472 C-8.65540454e-05,10.2751337 6.38846754,-0.000129831068 14.2687806,-0.000129831068 C22.1495264,-0.000129831068 28.5376478,10.2751337 28.5376478,20.7425472" id="Fill-13" fill="#DACDC3" mask="url(#mask-4)"></path>
                </g>
                <path d="M4.53240259,18.2270702 C4.53240259,27.0231251 9.90091726,32.649138 16.5231673,32.649138 C21.2273796,32.649138 25.2967181,29.808867 27.2597638,25.0103108 C28.2469127,22.5967512 28.5342722,19.954689 28.2027702,17.3684541 C27.2489446,9.92610448 23.2094673,3.15887644 17.9651577,0.934437474 C17.4921398,0.843988497 17.0113321,0.795951002 16.5231673,0.795951002 C9.90091726,0.795951002 4.53240259,9.43101534 4.53240259,18.2270702" id="Fill-15" fill="#F0EBE7"></path>
                <path d="M19.5350317,12.7595377 C19.5350317,13.6778761 18.7902341,14.4226737 17.8718957,14.4226737 C16.9535573,14.4226737 16.2087597,13.6778761 16.2087597,12.7595377 C16.2087597,11.8411993 16.9535573,11.0964017 17.8718957,11.0964017 C18.7902341,11.0964017 19.5350317,11.8411993 19.5350317,12.7595377" id="Fill-17" fill="#DACDC3"></path>
                <path d="M10.7258206,13.5236801 C10.7258206,14.4420185 9.98102303,15.1868161 9.0626846,15.1868161 C8.14434618,15.1868161 7.39954862,14.4420185 7.39954862,13.5236801 C7.39954862,12.6053417 8.14434618,11.8605441 9.0626846,11.8605441 C9.98102303,11.8605441 10.7258206,12.6053417 10.7258206,13.5236801" id="Fill-19" fill="#FBF9F8"></path>
                <path d="M11.5763439,8.00793701 C11.3140852,8.00793701 11.1011622,8.22085996 11.1011622,8.48355149 C11.1011622,8.74537747 11.3140852,8.95830042 11.5763439,8.95830042 C11.8386027,8.95830042 12.0515256,8.74537747 12.0515256,8.48355149 C12.0515256,8.22085996 11.8386027,8.00793701 11.5763439,8.00793701" id="Fill-21" fill="#FBF9F8"></path>
                <path d="M17.304231,1.59964859 C16.9761911,1.59964859 16.7100375,1.86580228 16.7100375,2.19384211 C16.7100375,2.52188194 16.9761911,2.78760286 17.304231,2.78760286 C17.6322708,2.78760286 17.8979917,2.52188194 17.8979917,2.19384211 C17.8979917,1.86580228 17.6322708,1.59964859 17.304231,1.59964859" id="Fill-23" fill="#FBF9F8"></path>
                <path d="M9.75503041,23.6481232 C9.75503041,24.5664616 9.01023285,25.3112592 8.09189443,25.3112592 C7.17355601,25.3112592 6.42875845,24.5664616 6.42875845,23.6481232 C6.42875845,22.7297848 7.17355601,21.9849872 8.09189443,21.9849872 C9.01023285,21.9849872 9.75503041,22.7297848 9.75503041,23.6481232" id="Fill-25" fill="#DACDC3"></path>
                <path d="M14.9024428,29.3497844 C14.9024428,31.0553318 13.5197419,32.4384655 11.8137617,32.4384655 C10.1082142,32.4384655 8.72551332,31.0553318 8.72551332,29.3497844 C8.72551332,27.6442369 10.1082142,26.261536 11.8137617,26.261536 C13.5197419,26.261536 14.9024428,27.6442369 14.9024428,29.3497844" id="Fill-27" fill="#DACDC3"></path>
                <path d="M22.6092583,21.2298464 C22.0189597,21.2298464 21.5403158,21.7084903 21.5403158,22.2992217 C21.5403158,22.8895203 22.0189597,23.3681641 22.6092583,23.3681641 C23.1995568,23.3681641 23.6782007,22.8895203 23.6782007,22.2992217 C23.6782007,21.7084903 23.1995568,21.2298464 22.6092583,21.2298464" id="Fill-29" fill="#DACDC3"></path>
                <path d="M23.4278864,13.7430081 C23.1067709,13.7430081 22.8094578,13.5365767 22.7086223,13.2141628 C21.6946417,9.97401215 19.7792006,7.32545836 17.5854883,6.12841591 C17.2202303,5.92890883 17.085206,5.4714707 17.284713,5.10577986 C17.4842201,4.73965625 17.942091,4.60506471 18.3077819,4.80500455 C20.8745421,6.20501624 23.0029061,9.10587507 24.1475833,12.763649 C24.2722211,13.1609321 24.0506428,13.5841814 23.6533597,13.7088192 C23.5784905,13.7321888 23.5023229,13.7430081 23.4278864,13.7430081" id="Fill-31" fill="#FFFFFF"></path>
                <path d="M24.1871385,18.3005979 C23.7617254,18.2954046 23.4280595,17.9539489 23.43282,17.537624 C23.438446,17.0823497 23.4116143,16.6179872 23.3523247,16.1583852 L23.3164048,15.8935299 C23.2575481,15.4810998 23.5440419,15.0993965 23.9560392,15.0405398 C24.3736625,14.9838469 24.7506053,15.2681769 24.8090293,15.6801741 L24.8479786,15.9662353 C24.9159236,16.4955133 24.947083,17.0299845 24.9410242,17.5553675 C24.935831,17.9686631 24.5991358,18.3005979 24.1871385,18.3005979" id="Fill-33" fill="#FFFFFF"></path>
                <path d="M50.5780728,40 L37.6083819,40 C36.7856857,40 36.1122952,39.3266095 36.1122952,38.5039133 C36.1122952,37.6816499 36.7856857,37.0082594 37.6083819,37.0082594 L50.5780728,37.0082594 C51.400769,37.0082594 52.0741595,37.6816499 52.0741595,38.5039133 C52.0741595,39.3266095 51.400769,40 50.5780728,40" id="Fill-35" fill="#E7EBEB"></path>
                <path d="M54.4518857,25.4459805 C54.4518857,33.0445602 49.8143199,37.9050026 44.0930975,37.9050026 C38.3723079,37.9050026 33.7347421,33.0445602 33.7347421,25.4459805 C33.7347421,17.8469681 38.3723079,10.3877405 44.0930975,10.3877405 C49.8143199,10.3877405 54.4518857,17.8469681 54.4518857,25.4459805" id="Fill-37" fill="#DFCCBB"></path>
                <path d="M37.0250509,23.61982 C37.0250509,30.0053447 40.9221468,34.0893973 45.7297913,34.0893973 C49.1447811,34.0893973 52.0993035,32.02768 53.523983,28.5438797 C54.2406505,26.7920258 54.4492458,24.8735554 54.2086255,22.9961981 C53.5161932,17.5934946 50.5837421,12.680687 46.7766624,11.0660213 C46.4334756,11.000673 46.0842301,10.9656186 45.7297913,10.9656186 C40.9221468,10.9656186 37.0250509,17.2342953 37.0250509,23.61982" id="Fill-39" fill="#F0E7D9"></path>
                <path d="M50.7422659,20.4454504 C50.4748139,20.4454504 50.2272693,20.2736406 50.1428791,20.0044575 C49.4123629,17.671826 48.0365864,15.7659059 46.4626011,14.9077226 C46.1579308,14.7415388 46.0454106,14.3598355 46.2115943,14.0551652 C46.3777781,13.750495 46.7590487,13.6388403 47.0637189,13.8045913 C48.9449711,14.8302567 50.5042422,16.9534274 51.3420854,19.6292457 C51.4455175,19.960315 51.2611574,20.3125899 50.9300881,20.4168876 C50.8677692,20.4363622 50.8045848,20.4454504 50.7422659,20.4454504" id="Fill-41" fill="#FFFFFF"></path>
                <path d="M51.2935718,23.7541952 C50.939133,23.7498675 50.6612945,23.4651047 50.6651895,23.1184557 C50.6690844,22.7895503 50.6496097,22.45675 50.6071983,22.1282774 L50.5812321,21.936993 C50.532329,21.5933734 50.7712182,21.2748545 51.1148377,21.2259515 C51.457159,21.1783468 51.7765434,21.4163704 51.8254465,21.7595572 L51.8535765,21.969018 C51.9033451,22.3541835 51.9262819,22.7462733 51.9215214,23.1327371 C51.9176265,23.477655 51.6367586,23.7541952 51.2935718,23.7541952" id="Fill-43" fill="#FFFFFF"></path>
            </g>
        </g>
    </g>
</svg>