<svg t="1690560826598" class="icon" viewBox="0 0 1024 1024" version="1.1" xmlns="http://www.w3.org/2000/svg" p-id="7074" width="200" height="200"><path d="M448.469333 49.052444h126.03992v41.837899h-126.03992z" fill="#232120" p-id="7075"></path><path d="M498.782384 70.234505h25.420283v873.283232h-25.420283z" fill="#232120" p-id="7076"></path><path d="M448.469333 932.926061h126.041212v41.839192h-126.041212v-41.839192zM111.656081 133.254465h126.041212v41.839192H111.656081v-41.839192z m0 0" fill="#232120" p-id="7077"></path><path d="M162.495354 140.669414h24.888888v679.990303H162.495354z" fill="#232120" p-id="7078"></path><path d="M111.656081 806.886141h126.041212v41.836606H111.656081v-41.836606z m673.631677-631.262383h126.039919v41.837899h-126.039919v-41.837899z m0 0" fill="#232120" p-id="7079"></path><path d="M835.595636 185.68404h25.41899v558.712243h-25.41899z" fill="#232120" p-id="7080"></path><path d="M785.287758 722.684121h126.039919v41.836606h-126.039919v-41.836606zM69.818182 402.284606h210.241939v329.399596H69.818182v-329.399596z m336.288323-55.074909h210.241939v494.100687H406.106505V347.209697z m336.813253 55.074909h210.241939v219.778586H742.919758V402.284606z m0 0" fill="#232120" p-id="7081"></path><path d="M69.818182 237.583515h210.241939v164.701091H69.818182V237.583515z m336.288323-54.546101h210.241939v164.702384H406.106505V183.037414z m336.813253 109.62101h210.241939v109.626182H742.919758v-109.626182z m0 0" fill="#232120" p-id="7082"></path></svg>