<?xml version="1.0" encoding="UTF-8"?>
<svg width="82px" height="80px" viewBox="0 0 82 80" version="1.1" xmlns="http://www.w3.org/2000/svg" xmlns:xlink="http://www.w3.org/1999/xlink">
    <title>quesheng</title>
    <defs>
        <polygon id="path-1" points="-1.27344192e-14 0 28.4266342 0 28.4266342 9.66228976 -1.27344192e-14 9.66228976"></polygon>
    </defs>
    <g id="页面-1" stroke="none" stroke-width="1" fill="none" fill-rule="evenodd">
        <g id="Ostrich-connect-wallect2-未连接" transform="translate(-1651.000000, -495.000000)">
            <g id="quesheng" transform="translate(1651.000000, 495.000000)">
                <path d="M67.6168637,80 L18.2127982,80 C16.9806537,80 15.9725355,78.9918818 15.9725355,77.7597373 C15.9725355,76.5275928 16.9806537,75.5194746 18.2127982,75.5194746 L67.6168637,75.5194746 C68.8490082,75.5194746 69.8571265,76.5275928 69.8571265,77.7597373 C69.8571265,78.9918818 68.8490082,80 67.6168637,80" id="Fill-1" fill="#E7EBEB"></path>
                <path d="M6.62266463,73.2503573 C3.73362184,73.2503573 1.39120314,74.2934236 1.39120314,75.5802305 C1.39120314,76.8665893 3.73362184,77.9096557 6.62266463,77.9096557 C9.51170743,77.9096557 11.8541261,76.8665893 11.8541261,75.5802305 C11.8541261,74.2934236 9.51170743,73.2503573 6.62266463,73.2503573" id="Fill-3" fill="#696066"></path>
                <path d="M6.62266463,72.1074649 C2.27476276,72.1074649 0,73.8544217 0,75.5803201 C0,77.3062185 2.27476276,79.0527273 6.62266463,79.0527273 C10.9705665,79.0527273 13.2453293,77.3062185 13.2453293,75.5803201 C13.2453293,73.8544217 10.9705665,72.1074649 6.62266463,72.1074649 M6.62266463,73.2504469 C9.51170743,73.2504469 11.8541261,74.2935132 11.8541261,75.5803201 C11.8541261,76.866679 9.51170743,77.9097453 6.62266463,77.9097453 C3.73362184,77.9097453 1.39120314,76.866679 1.39120314,75.5803201 C1.39120314,74.2935132 3.73362184,73.2504469 6.62266463,73.2504469" id="Fill-5" fill="#E7EBEB"></path>
                <path d="M4.26689397,78.3578874 L8.71829598,78.3578874 C11.3649424,70.5985135 12.3833658,60.1378308 11.736826,47.1882162 C10.9397405,31.2223119 14.7136871,27.5890538 14.7517715,27.5541057 C14.6769467,27.6226578 14.6316934,27.6477487 14.6316934,27.6477487 L11.7224883,23.5435874 C10.721987,24.2528546 5.77862325,28.7374125 6.7128128,47.4391256 C7.34232663,60.0441878 6.29074731,70.3915132 3.67680877,77.5231655 C3.52805533,77.9295492 3.83407522,78.3578874 4.26689397,78.3578874" id="Fill-7" fill="#F0C2C5"></path>
                <path d="M8.10244776,48.3431612 C7.2722064,31.7226522 11.0819972,26.3348204 12.6430122,24.8428054 L11.7222643,23.543453 C10.722211,24.2527202 5.77839923,28.7372781 6.71258878,47.4389912 C7.34255065,60.0440534 6.29052328,70.3913788 3.6770328,77.5230311 C3.5278313,77.9289667 3.83429924,78.357753 4.26666995,78.357753 L5.09019052,78.357753 C7.68620695,71.228341 8.73016938,60.9083467 8.10244776,48.3431612" id="Fill-9" fill="#EAA9AC"></path>
                <path d="M10.9951198,39.1392659 C10.7903598,38.5962262 10.0568978,38.2001478 9.45829956,38.1634075 C8.49319439,38.1042645 7.86009614,38.8655058 7.86009614,38.8655058 C7.53391389,38.270044 7.14186792,37.9926995 6.7776012,37.9026409 C6.69426343,39.0088826 6.63736075,40.1957738 6.61271786,41.4713794 C6.62391918,41.4713794 6.63467244,41.4749638 6.64587375,41.4740677 C6.707705,41.4709313 6.77222457,41.4637625 6.8398805,41.4530092 C7.54466715,41.3378597 7.9322326,40.6263523 7.9322326,40.6263523 C8.05096653,41.4144767 8.71498039,41.7868084 9.39153973,41.8024902 C10.5882881,41.8302695 10.9005807,40.8239435 10.9005807,40.8239435 C10.9265677,41.4637625 11.2720163,41.8038344 11.6344908,41.9409385 C11.6519648,40.7208914 11.6994584,39.5985198 11.7715948,38.5666548 C11.2169058,38.7337784 10.9951198,39.1392659 10.9951198,39.1392659" id="Fill-11" fill="#EAA9AC"></path>
                <path d="M19.3348562,16.0829749 C18.3706471,18.2174972 19.3890705,36.174099 14.5595122,35.6422606 C14.0679985,35.5880463 13.3461859,36.0849365 12.9218801,37.4756916 C12.6897889,37.2512173 12.3389638,37.1486133 11.8608917,37.2328472 C11.2103194,37.3475486 11.1077154,38.2508225 11.1077154,38.2508225 C10.8872735,37.7409387 9.88273974,37.1405483 9.356278,37.1490613 C8.41491961,37.163399 7.91623713,38.1665886 7.91623713,38.1665886 C7.16754133,36.9151779 6.43273516,36.9532624 6.18854652,37.3910097 C5.24898034,25.4033639 14.3856678,17.6180029 19.3348562,16.0829749" id="Fill-13" fill="#52504D"></path>
                <path d="M15.6248467,23.9374256 C16.0074836,28.9390361 17.7132196,35.9891429 14.5593778,35.6423502 C14.0678641,35.5881359 13.3460515,36.0845781 12.9221938,37.4757812 C12.6896545,37.2513069 12.3545112,37.5855541 11.8768872,37.669788 C11.2263149,37.7844894 11.107581,38.2504641 11.107581,38.2504641 C10.8961002,37.7611907 9.96056646,37.1885796 9.42066315,37.1518393 C9.42066315,34.8336154 9.42066315,28.6280877 15.6248467,23.9374256" id="Fill-15" fill="#373532"></path>
                <path d="M7.86005134,37.615708 C7.86005134,37.615708 8.49314958,36.7778498 9.45825476,36.8428174 C10.056853,36.8831421 10.790315,37.3195453 10.995075,37.9181435 C10.995075,37.9181435 11.3880171,37.1255386 12.436012,37.2155971 C12.9427594,37.2263504 13.2259286,37.700838 13.1546882,38.2031049 C13.0372985,39.0333463 12.9674023,39.3250285 12.8146164,40.2807246 C12.7406877,40.7399784 12.530551,40.9729657 12.2411091,41.0576477 C11.8033618,41.1848946 10.9417567,40.9035176 10.9005359,39.7735291 C10.9005359,39.7735291 10.5882433,40.8824591 9.39149493,40.8519916 C8.71493559,40.8349656 8.05092172,40.4245494 7.9321878,39.5566717 C7.9321878,39.5566717 7.54462235,40.3403156 6.8398357,40.4666664 C6.77217976,40.4792118 6.7076602,40.4863807 6.64582895,40.4904132 C6.23899724,40.5132638 5.86935389,40.0208541 5.83306164,39.6153665 C5.75554855,38.7537615 5.73583423,38.0978126 5.72456795,37.291318 C5.71970434,36.9100253 5.99570471,36.5708495 6.37430911,36.5233559 C6.82908244,36.4655572 7.40841438,36.7075055 7.86005134,37.615708" id="Fill-17" fill="#FFFFFF"></path>
                <g id="编组" transform="translate(53.562725, 2.186589)">
                    <mask id="mask-2" fill="white">
                        <use xlink:href="#path-1"></use>
                    </mask>
                    <g id="Clip-20"></g>
                    <path d="M23.0891634,3.32996317 C28.5285213,4.454127 28.4778914,2.35276058 28.4133718,2.3299099 C11.2847712,-3.84470219 2.28115532,4.15796427 1.24436173,4.59033498 C1.16684864,4.72340658 1.09695245,4.85110156 1.03153677,4.97655627 C0.0861459096,6.79609764 -0.0953153702,8.38399585 0.0395484452,9.66228976 C3.00700043,5.64863508 8.2698256,0.267524046 23.0891634,3.32996317" id="Fill-19" fill="#E0D5CD" mask="url(#mask-2)"></path>
                </g>
                <path d="M81.9760068,4.51627452 C82.0105069,3.34282491 79.9010755,1.73386823 77.1370394,1.02191274 C69.1751457,-1.02837569 59.3990873,-0.318212414 55.1923219,6.15749098 C55.0570101,6.36538736 54.9252826,6.57193959 54.8069967,6.7766996 C55.8437903,6.34432889 57.2941364,4.81333336 60.4412575,3.7281501 C68.0823455,1.09360115 76.4627203,2.79261639 81.9760068,4.51627452" id="Fill-21" fill="#EEE9E4"></path>
                <path d="M55.8546332,10.9715019 C59.8414047,8.96960316 55.5100808,9.11387607 64.1176182,9.03636298 C74.5850217,8.9418239 76.7571804,14.2109218 78.9360599,12.4169194 C73.078221,3.73052478 60.0291387,5.02360441 53.4360456,11.4854182 C53.4373897,11.5060286 53.4391819,11.526639 53.4409742,11.5468014 C53.4512794,11.6413405 53.4624807,11.7340873 53.4754742,11.825042 C53.482643,11.8734317 53.4916041,11.9200291 53.499221,11.9675227 C54.2801766,11.5741326 55.0696451,11.236749 55.8546332,10.9715019" id="Fill-23" fill="#E0D5CD"></path>
                <path d="M60.6650597,16.5541918 C60.718378,17.2406083 59.5140127,17.3414201 58.817291,17.3432123 C60.5431894,18.1447783 63.2915437,20.2174694 63.959142,20.7322818 C65.1661956,21.664231 65.715956,21.0777303 65.7258132,21.0607043 C65.4870012,20.1309952 63.8157652,18.1317848 60.6650597,16.5541918" id="Fill-25" fill="#E0D5CD"></path>
                <path d="M60.6554266,16.8071175 C63.8406321,18.2485025 65.681232,20.6500641 65.7255892,21.0604802 C66.3161224,20.3476286 66.1355572,19.6652446 65.2493093,18.5101652 C63.6394565,16.4114871 60.6271993,15.4347325 60.334621,15.3433298 C60.5492381,15.7273108 60.6446733,16.6825588 60.6554266,16.8071175" id="Fill-27" fill="#EEE9E4"></path>
                <path d="M54.2440187,14.0802697 C54.2565642,14.1062567 54.2691097,14.1322438 54.2821032,14.1577828 C54.3004733,14.193627 54.3188435,14.2294712 54.3376617,14.2648673 C54.365889,14.3177375 54.3954605,14.3697116 54.4245839,14.4212377 C54.4487787,14.4633546 54.4729736,14.5050235 54.4976165,14.5462443 C54.5258438,14.5932898 54.5540711,14.6394393 54.5831945,14.6846926 C54.6029088,14.7156082 54.6226231,14.7460758 54.6427855,14.7769914 C54.6732531,14.8226927 54.7037206,14.8683941 54.7350843,14.9123032 C54.7592792,14.9476994 54.783474,14.9817514 54.8081169,15.0153553 C54.8134935,15.0229722 54.8193182,15.0301411 54.8246948,15.037758 C54.8726364,15.0426865 54.9205781,15.0480632 54.9680716,15.0538879 C57.8378482,14.4440883 62.8520042,15.6023042 66.3544309,17.9514436 C68.3643946,19.2987376 69.0279604,18.8636786 69.1068177,18.7149252 C66.2997685,13.110684 59.1134538,13.1120281 54.2440187,14.0802697" id="Fill-29" fill="#E0D5CD"></path>
                <path d="M54.0685614,13.6956614 C54.0932042,13.7548043 54.1182952,13.8130511 54.1442822,13.8704019 C54.1657888,13.9174474 54.1872953,13.9644929 54.2092498,14.0101943 C54.2208992,14.033941 54.2321005,14.0572398 54.2441979,14.0800905 C59.113633,13.1118489 67.0405786,14.2584154 69.1065488,18.714746 C69.824329,17.4073286 68.7283925,15.6863588 67.9420603,14.9484163 C66.5642987,13.6544405 64.4620362,12.4567961 60.666135,12.2542763 C60.742304,12.2417309 58.0911771,11.9912695 54.0685614,13.6956614" id="Fill-31" fill="#EEE9E4"></path>
                <path d="M56.0020873,11.7350283 C55.2811708,12.1727756 54.5490529,12.6840035 53.8245519,13.2808095 C53.842026,13.3386083 53.8595,13.3964071 53.8778702,13.4524136 C53.8944481,13.5016994 53.9119222,13.5505372 53.9293962,13.5989268 C53.9482144,13.651797 53.9674807,13.7042192 53.9876431,13.7557452 C54.003773,13.7974141 54.0203509,13.8386349 54.0369288,13.8794077 C59.129494,12.2583536 65.1038266,11.6127099 69.7832874,14.81987 C71.1516399,15.757644 72.193362,16.3737162 73.0424216,15.9431377 C73.1145581,15.9063974 73.1817659,15.8624883 73.2435972,15.8136505 C69.9634045,9.33436273 61.4804257,10.0082338 56.0020873,11.7350283" id="Fill-33" fill="#E0D5CD"></path>
                <path d="M73.2437764,15.8134265 C74.0982126,15.144036 73.845511,13.7398394 72.8485941,12.6206041 C71.3417934,10.9292058 67.9003018,8.61635853 62.7127494,9.03887208 C60.9801303,9.09801501 59.8313235,9.40985958 56.0022665,11.7348042 C61.4801569,10.0084578 69.9685123,9.96275642 73.2437764,15.8134265" id="Fill-35" fill="#EEE9E4"></path>
                <path d="M53.4089832,11.0783624 C53.4098793,11.1092781 53.4116715,11.1392976 53.4134637,11.1706613 C53.4170481,11.2468302 53.4219767,11.322103 53.4278014,11.3964798 C53.4300417,11.4264993 53.43273,11.4556227 53.4358664,11.4856422 C60.0294076,5.02338039 73.847348,5.4396212 78.9358807,12.4166954 C82.0413329,9.18085993 66.0368961,-2.41966845 53.4089832,11.0783624 Z" id="Fill-37" fill="#EEE9E4"></path>
                <path d="M60.4554607,15.3920779 C62.2051059,15.819072 63.3507763,15.5076755 63.527757,14.7374731 C63.94579,12.9188279 61.0164225,12.2615348 61.0164225,12.2615348 C65.0471032,12.7557368 65.9476888,11.6481509 65.5986559,10.3676167 C65.3060776,9.29139449 62.641061,9.03600454 62.641061,9.03600454 C66.0758318,8.87156926 67.2815412,7.05785257 66.4235206,5.71548715 C65.4852986,4.24677092 62.4013529,5.28804502 62.4013529,5.28804502 C65.5802857,2.77984689 62.3941841,0.847396275 60.7699936,1.40746195 C56.1774551,2.99132769 53.678218,5.41484389 53.678218,5.41484389 C53.7866467,9.95092783 55.051051,12.3856454 56.1792473,16.8527292 C56.6066894,16.620638 57.1837811,16.4454494 59.2139071,17.6560874 C59.843869,18.0320035 61.0697408,18.411504 61.5155531,17.6986524 C62.2118267,16.587034 60.48324,15.401487 60.4554607,15.3920779" id="Fill-39" fill="#373532"></path>
                <path d="M55.0040503,45.5122309 L57.1072089,68.4977743 C56.809702,70.1519843 55.9503372,71.8644412 54.4883418,72.5033641 C52.8533981,73.2175598 48.0171189,72.8116242 47.0927865,74.5061589 C46.2948049,75.9699466 46.9413448,77.3822082 48.6081002,77.3822082 L56.6963447,77.3822082 C58.3398014,77.3822082 57.261339,76.2011417 59.5921083,75.2768093 C60.9864478,74.7234644 61.934975,73.7722489 61.934975,70.6542512 L60.3968107,47.0526355 L55.0040503,45.5122309 Z" id="Fill-41" fill="#ECB4B7"></path>
                <path d="M54.8994748,75.3982764 C54.8994748,75.3982764 49.8087018,76.0564655 49.323909,76.0909656 C48.8843694,76.1223293 47.8184524,76.5753104 46.7718017,75.4735492 C46.6423145,76.5345376 47.3175297,77.382253 48.607921,77.382253 L55.0612218,77.382253 C54.977884,76.3131997 54.8994748,75.3982764 54.8994748,75.3982764" id="Fill-43" fill="#EAA9AC"></path>
                <path d="M47.4006882,74.5061141 C44.8073601,74.5061141 44.704308,77.5362935 44.704308,77.5362935 C44.704308,77.5362935 45.5260364,76.8167211 47.6153054,76.8167211 C47.7972147,76.8167211 48.4002934,76.4820259 48.4146311,75.7646937 C48.4280727,75.0455694 48.140871,74.5061141 47.4006882,74.5061141" id="Fill-45" fill="#E9E2DC"></path>
                <path d="M54.642203,74.5061141 C54.642203,74.5061141 53.2554804,76.0465188 52.7935382,78.3580218 L57.1929661,78.3580218 C57.7467591,78.3580218 58.2476818,78.0416968 58.4941107,77.5457026 C58.6979746,77.1357345 59.332417,75.2476411 60.0546777,74.8139262 C61.5955304,73.8900419 56.953258,73.5817817 54.642203,74.5061141" id="Fill-47" fill="#ECB4B7"></path>
                <path d="M40.532894,24.7998371 C35.6760045,27.7139709 37.0273309,31.8485997 39.8043606,35.8882415 C46.1214534,43.746187 54.9225495,43.3689267 55.421232,49.5224803 C55.6721414,52.6109065 60.3964074,47.8001664 60.4689919,47.0528147 C60.844908,43.1699914 58.1745149,43.5378425 55.3186279,37.4945098 C48.8966909,23.9037321 44.2199184,22.5878017 40.532894,24.7998371" id="Fill-49" fill="#ECB4B7"></path>
                <path d="M42.5784331,33.4218018 C40.5384499,30.4543498 38.9232205,26.8717217 40.4107549,24.1744454 C35.5977745,26.5096953 37.0862051,31.9347154 39.8045398,35.8883311 C46.1211846,43.7462766 55.0876121,43.5952829 55.3385215,49.3554464 C55.3385215,47.8042885 55.8027039,45.949799 53.9253638,43.0361133 C52.8339078,41.3411305 50.1541055,39.5784918 42.5784331,33.4218018" id="Fill-51" fill="#EAA9AC"></path>
                <path d="M13.486964,21.4175781 C11.2144415,25.4209276 9.45762748,35.4349019 19.4863875,38.5788866 C32.7375415,42.7327817 48.9427058,30.6613501 53.3806663,23.574055 C57.6963084,16.6834549 58.2375558,10.0451085 56.1823388,6.53864928 C51.664177,1.13827199 38.4793348,3.14823569 32.8741975,5.20748518 C22.8539505,8.88868487 16.8164424,15.5552586 13.486964,21.4175781" id="Fill-53" fill="#52504D"></path>
                <path d="M52.243957,19.938243 C52.7090355,16.0079261 49.1474659,15.5231333 47.6379768,15.2749122 C47.6379768,15.2749122 49.8665902,14.3640214 49.7164926,12.9522078 C49.4167454,10.1267885 44.0262253,6.86182958 31.914469,10.4323603 L34.4697126,10.5103214 C33.1838018,10.6299515 32.9678405,11.333394 31.6496699,11.7545633 C16.3155197,16.6571543 14.4861212,26.6850182 16.2102274,30.0355551 C17.9674894,33.4519558 22.6563593,35.9785241 30.9121754,34.8825875 C32.9234833,34.6159963 34.6193622,34.2916062 36.0477537,33.9268915 C36.4971504,33.811742 36.9465471,33.7068977 37.4026646,33.615943 C38.5353414,33.3901245 40.6237143,32.9326629 42.7824314,32.2807464 L50.34287,25.5196336 C50.0027982,24.1826448 48.8374135,23.6682805 48.8374135,23.6682805 C48.8374135,23.6682805 51.9061254,22.7932338 52.243957,19.938243" id="Fill-55" fill="#373532"></path>
                <path d="M51.045058,3.66439222 C53.5613211,5.07486162 53.4470677,13.7711134 49.5624521,19.9735048 C45.5671676,26.3533249 30.9808171,37.2194952 19.0527623,33.4800487 C14.0977492,31.9266505 12.339143,28.5102499 12.0989868,25.1480636 C11.0487517,29.8203555 11.8574865,36.1876302 19.4860291,38.5788866 C32.7376311,42.7327817 48.9427955,30.6613501 53.3807559,23.5745031 C57.696398,16.6834549 58.2376455,10.0451085 56.1824284,6.53864928 C54.9811996,5.10264088 53.1665868,4.19085396 51.045058,3.66439222" id="Fill-57" fill="#373532"></path>
                <path d="M54.4260177,21.6328674 C49.9880572,28.7197144 34.9621672,38.8672084 21.5600195,35.2263334 C12.2548643,32.698421 11.5554543,26.7276728 14.997842,18.9821885 C14.819069,19.2774551 13.6527882,21.1261199 13.4870088,21.4178021 C11.2144863,25.4207036 9.45767229,35.4351259 19.4864323,38.5786626 C32.7375863,42.7330057 48.9427507,30.6611261 53.3807111,23.574279 C53.9667638,22.6391934 54.4766476,21.7094843 54.9260443,20.7905286 C54.7625051,21.0710095 54.6025504,21.3510423 54.4260177,21.6328674" id="Fill-59" fill="#373532"></path>
                <path d="M38.2712144,48.2434247 L33.2812533,68.4976399 C32.9832983,70.1518499 32.1243816,71.8647548 30.6623861,72.5036777 C29.0269944,73.2174254 24.1911633,72.8114898 23.2668309,74.5060245 C22.4679532,75.9698122 23.1149411,77.3820738 24.7821446,77.3820738 L32.8703891,77.3820738 C34.5138458,77.3820738 33.4353833,76.2010073 35.7661527,75.2766749 C37.1600441,74.7237781 38.1090194,73.7725625 38.1090194,70.6545649 L43.6635268,49.7838294 L38.2712144,48.2434247 Z" id="Fill-61" fill="#F0C2C5"></path>
                <path d="M31.0730263,75.3982764 C31.0730263,75.3982764 25.9827014,76.0564655 25.4979085,76.0909656 C25.0579209,76.1223293 23.992452,76.5753104 22.9453532,75.4735492 C22.816314,76.5345376 23.4915292,77.382253 24.7819205,77.382253 L31.2352213,77.382253 C31.1514355,76.3131997 31.0730263,75.3982764 31.0730263,75.3982764" id="Fill-63" fill="#EAA9AC"></path>
                <path d="M23.5747326,74.5061141 C20.9814045,74.5061141 20.8783524,77.5362935 20.8783524,77.5362935 C20.8783524,77.5362935 21.7000807,76.8167211 23.7893497,76.8167211 C23.970811,76.8167211 24.5743378,76.4820259 24.5882274,75.7646937 C24.601669,75.0455694 24.3149154,74.5061141 23.5747326,74.5061141" id="Fill-65" fill="#E9E2DC"></path>
                <path d="M30.8162026,74.5061141 C30.8162026,74.5061141 29.42948,76.0465188 28.9670897,78.3580218 L33.3665176,78.3580218 C33.9207586,78.3580218 34.4216814,78.0416968 34.6681103,77.5457026 C34.8715261,77.1357345 35.5059685,75.2476411 36.2282292,74.8139262 C37.76953,73.8900419 33.1268095,73.5817817 30.8162026,74.5061141" id="Fill-67" fill="#F0C2C5"></path>
                <path d="M35.385532,19.8804891 C29.7221479,19.7917747 29.2068875,25.2772819 30.0783496,30.1014637 C32.6080543,39.8613922 39.341836,43.6236894 38.0079835,49.8466912 C37.4353724,52.5161882 43.0270681,51.2826996 43.4482375,50.6616987 C45.5294416,47.593883 42.8532237,47.7094805 43.537848,41.0608289 C45.0132851,26.7410696 43.8308744,20.0126646 35.385532,19.8804891" id="Fill-69" fill="#F0C2C5"></path>
                <path d="M42.2660509,32.4504239 C42.6988696,32.2053392 43.3274874,31.8325595 44.0649818,31.3567277 C44.0542286,30.8894089 43.9834363,28.6101656 43.9565531,28.1719702 C42.138804,29.1025753 40.5576265,29.7253684 39.6893007,30.0412454 C38.3164677,30.6497008 36.6187966,31.2541236 34.5331121,31.8392803 C34.2548714,30.8504283 34.0474231,31.6179423 33.8193644,30.4686875 C33.3847534,26.8941243 33.9484035,22.9064567 36.5152965,21.2043051 C31.1677894,21.0470387 29.9764177,26.5441953 30.5561977,31.3074419 C30.7779837,32.4248849 31.0598087,33.4531655 31.3797183,34.4146863 C32.8681488,38.3535162 38.7067215,45.481136 37.6582785,50.6749611 C39.5777356,45.0142653 37.3343365,41.9661638 35.317204,36.0164741 C35.7657046,35.8385972 36.2204779,35.6508632 36.6873487,35.4398305 C39.0212544,34.3837706 40.8475165,33.3855096 42.2660509,32.4504239" id="Fill-71" fill="#EAA9AC"></path>
                <path d="M33.5609725,33.2078567 C33.5609725,33.2078567 42.6528546,31.5572312 47.7257055,26.4919972 C50.3360596,23.8852275 46.6288729,23.3242657 46.6288729,23.3242657 C46.6288729,23.3242657 51.0735541,21.6951467 50.9001578,18.4615515 C50.7590212,15.8220739 46.0992748,15.6854179 44.6614742,15.5872944 C44.6614742,15.5872944 48.4094337,14.5545333 48.2875634,12.4845305 C48.0868359,9.05916886 38.6029077,9.35846796 31.561314,10.5534241 L33.5609725,33.2078567 Z" id="Fill-73" fill="#FFFFFF"></path>
                <path d="M44.6616534,15.5872048 C44.6616534,15.5872048 48.4091649,14.5544437 48.2877426,12.4844409 C48.2814699,12.3782525 48.2662361,12.2752004 48.2424893,12.1766288 C46.3897921,12.373772 40.8272198,13.0207598 31.9109742,14.5114306 L32.3043643,18.9673132 C37.8499106,17.3547721 42.0239681,16.2619719 44.7207964,15.5912373 C44.701082,15.5898931 44.6800236,15.588549 44.6616534,15.5872048" id="Fill-75" fill="#E9E9E9"></path>
                <path d="M33.5609725,33.2078567 C33.5609725,33.2078567 42.6528546,31.5572312 47.7257055,26.4919972 C48.5160702,25.7029767 48.7253108,25.1021382 48.6357002,24.6469168 C48.1074463,25.1895084 37.6351142,29.5208324 33.3078228,30.3376322 L33.5609725,33.2078567 Z" id="Fill-77" fill="#E9E9E9"></path>
                <path d="M46.6288729,23.3244449 C46.6288729,23.3244449 51.0735541,21.6944298 50.9001578,18.4612826 C50.8974695,18.4079644 44.2564347,20.485136 32.593627,22.2477747 L32.9422119,26.1960137 C36.4531516,25.6906104 42.3647569,24.3697515 46.7337172,23.3432631 C46.6683015,23.3307177 46.6288729,23.3244449 46.6288729,23.3244449" id="Fill-79" fill="#E9E9E9"></path>
                <path d="M38.8592834,25.5642596 C38.8592834,25.5642596 44.1140436,24.3706476 43.6449326,20.8655326 C43.2103216,17.6144633 37.406697,17.9912755 37.406697,17.9912755 C37.406697,17.9912755 41.6985923,16.8303714 41.8710926,14.2460043 C42.0754045,11.1867016 36.9496834,9.82148546 31.5950075,10.9335519 L33.5610621,33.208036 C33.5610621,33.208036 35.9303639,32.7765614 38.9233549,31.6824171 C39.06942,31.5914624 39.2163813,31.5022999 39.3543814,31.3996959 C42.9616525,28.7275105 39.8974211,25.6632792 38.8592834,25.5642596" id="Fill-81" fill="#E9E9E9"></path>
                <path d="M28.0952691,34.3037485 C45.4201168,32.0052389 39.5156804,25.456951 37.9900614,25.311782 C37.9900614,25.311782 43.2443736,24.11817 42.7757107,20.613055 C42.3406516,17.3615377 36.5370271,17.7387979 36.5370271,17.7387979 C36.5370271,17.7387979 40.8289224,16.5778938 41.0018706,13.9935267 C41.2299294,10.5735416 34.7994793,9.26791654 28.8332116,11.1757243 C13.4990614,16.0783152 11.6696629,26.1057311 13.393321,29.4567161 C15.1510311,32.8731167 19.839901,35.399685 28.0952691,34.3037485 Z" id="Fill-83" fill="#52504D"></path>
                <path d="M31.0686802,17.0757698 C32.1202595,16.3557493 32.1462465,13.3296024 30.4239326,12.4433545 C30.4239326,12.4433545 29.0730542,11.2802101 23.7403328,13.2453686 C23.6762613,13.2686673 23.613982,13.291518 23.5503585,13.3143687 C26.5881548,12.5714975 27.5559483,13.2852452 27.5559483,13.2852452 C29.1904439,14.1257918 29.165353,16.9964645 28.16754,17.6797446 C29.6044445,17.8011668 31.271648,17.631803 31.9813632,19.7268967 C32.5418769,21.3820027 30.828524,23.7047071 29.8705877,24.4507146 C30.785959,24.5470459 33.2627935,25.1917935 32.9563255,27.105874 C32.3653442,30.798275 27.6231561,32.3718355 27.6231561,32.3718355 C27.6231561,32.3718355 35.2292961,31.5102305 35.7732319,27.2228157 C36.0308621,25.1886571 33.8286838,24.3145066 32.8635787,24.2132468 C33.8734891,23.4269145 35.6795889,20.9787555 35.0886076,19.2335908 C34.3408079,17.0255879 32.5830978,17.2039128 31.0686802,17.0757698" id="Fill-85" fill="#373532"></path>
                <path d="M11.4217106,74.6540163 C11.6986071,74.9380816 11.8540813,75.2508223 11.8540813,75.5801409 C11.8540813,76.8664997 9.51166262,77.9100141 6.62261983,77.9100141 C3.73357703,77.9100141 1.39115834,76.8664997 1.39115834,75.5801409 C1.39115834,75.2508223 1.54663257,74.9380816 1.82352904,74.6540163 L0.766573095,74.6540163 C0.606170285,74.9555556 0.522384459,75.2678483 0.522384459,75.5801409 C0.522384459,77.1693833 2.6179262,78.778788 6.62261983,78.778788 C10.6277615,78.778788 12.7228552,77.1693833 12.7228552,75.5801409 C12.7228552,75.2678483 12.6390694,74.9555556 12.4786666,74.6540163 L11.4217106,74.6540163 Z" id="Fill-87" fill="#E7EBEB"></path>
            </g>
        </g>
    </g>
</svg>