<?xml version="1.0" encoding="UTF-8"?>
<svg width="57px" height="72px" viewBox="0 0 57 72" version="1.1" xmlns="http://www.w3.org/2000/svg" xmlns:xlink="http://www.w3.org/1999/xlink">
    <title>编组</title>
    <g id="页面-1" stroke="none" stroke-width="1" fill="none" fill-rule="evenodd">
        <g id="harwell-launchpad-未连接钱包" transform="translate(-1663.000000, -498.000000)">
            <g id="编组" transform="translate(1664.000000, 499.000000)">
                <path d="M39.6081558,65.9494775 C42.2566479,58.8306939 44.4187119,52.5418592 41.9430655,43.8836542 C40.364842,38.3262708 38.0839297,35.2363935 34.8841583,31.3712881 C33.5762833,29.7881805 32.64648,29.2531818 31.3926023,27.8446384 C31.5006874,24.0451078 31.5979188,19.9508078 27.7063123,20.2237792 C26.3875835,21.5339154 26.7551633,22.7458253 25.760509,24.3727097 L21.2419184,25.4099649 C21.1663041,25.2134218 21.0797456,24.9622483 21.0473652,25.0277325 C21.0258387,25.0933072 20.9176631,24.8203358 20.8744291,24.7547611 C20.8420488,24.7002211 20.7771977,24.5583085 20.7338732,24.4818801 C18.4746684,20.6059211 16.5287747,25.9776152 15.1775751,27.5061828 C12.7994315,30.2030645 13.6966735,28.2704666 10.8643915,32.386655 C8.99420258,35.1161884 5.77281416,41.186863 6.57282484,45.7178449 C7.43759614,45.1283062 8.70241801,44.7243664 9.99962019,44.9535611 C9.85906432,46.4057908 8.87535418,47.1809283 8.28084087,48.2509257 C9.22122652,49.9105521 11.0157106,50.9258286 13.9127533,51.1223716 C13.8479022,52.2579436 12.3021495,55.0529611 11.923716,56.9091306 C11.3184394,59.7915207 11.696692,61.7022302 12.4102346,64.0823638 C9.68612815,62.9578264 6.3458009,59.22378 4.69187265,56.8545002 C-2.92916752,45.9690184 -0.334763168,31.2402293 5.84851896,21.1845156 C7.85917328,17.9199836 10.1508489,15.0266493 12.3993809,12.76654 C20.1717402,4.97093556 33.3816396,-1.13239072 45.5536507,0.177835934 C40.2892276,5.50593423 41.1324724,9.40378165 45.9104672,17.1774977 C49.3371721,22.7349716 52.2774488,26.1851024 54.428659,33.5986554 C56.3960793,40.3461508 56.2123798,48.5020992 53.0450792,54.2013952 C50.5695232,58.6560392 44.0726586,64.8903339 39.6081558,65.9494775" id="Fill-1" fill="#2B1106"></path>
                <path d="M39.6081558,65.9494775 C42.2566479,58.8306939 44.4187119,52.5418592 41.9430655,43.8836542 C40.364842,38.3262708 38.0839297,35.2363935 34.8841583,31.3712881 C33.5762833,29.7881805 32.64648,29.2531818 31.3926023,27.8446384 C31.5006874,24.0451078 31.5979188,19.9508078 27.7063123,20.2237792 C26.3875835,21.5339154 26.7551633,22.7458253 25.760509,24.3727097 L21.2419184,25.4099649 C21.1663041,25.2134218 21.0797456,24.9622483 21.0473652,25.0277325 C21.0258387,25.0933072 20.9176631,24.8203358 20.8744291,24.7547611 C20.8420488,24.7002211 20.7771977,24.5583085 20.7338732,24.4818801 C18.4746684,20.6059211 16.5287747,25.9776152 15.1775751,27.5061828 C12.7994315,30.2030645 13.6966735,28.2704666 10.8643915,32.386655 C8.99420258,35.1161884 5.77281416,41.186863 6.57282484,45.7178449 C7.43759614,45.1283062 8.70241801,44.7243664 9.99962019,44.9535611 C9.85906432,46.4057908 8.87535418,47.1809283 8.28084087,48.2509257 C9.22122652,49.9105521 11.0157106,50.9258286 13.9127533,51.1223716 C13.8479022,52.2579436 12.3021495,55.0529611 11.923716,56.9091306 C11.3184394,59.7915207 11.696692,61.7022302 12.4102346,64.0823638 C9.68612815,62.9578264 6.3458009,59.22378 4.69187265,56.8545002 C-2.92916752,45.9690184 -0.334763168,31.2402293 5.84851896,21.1845156 C7.85917328,17.9199836 10.1508489,15.0266493 12.3993809,12.76654 C20.1717402,4.97093556 33.3816396,-1.13239072 45.5536507,0.177835934 C40.2892276,5.50593423 41.1324724,9.40378165 45.9104672,17.1774977 C49.3371721,22.7349716 52.2774488,26.1851024 54.428659,33.5986554 C56.3960793,40.3461508 56.2123798,48.5020992 53.0450792,54.2013952 C50.5695232,58.6560392 44.0726586,64.8903339 39.6081558,65.9494775 Z" id="Stroke-3" stroke="#2B1106" stroke-width="0.2"></path>
                <path d="M36.062503,50.6201693 C37.5758754,53.4043331 38.5163515,55.2495584 35.6950137,57.7825487 C32.6681784,58.1646906 32.3222157,56.8327565 29.8467501,56.2976674 C30.235947,59.0927754 31.0574842,57.5860961 31.3168885,59.2237438 L27.0469389,59.5513457 C26.5172766,61.7677687 28.571165,63.8203908 29.8467501,64.5737304 C32.1817502,65.9384971 33.9545269,64.6392146 36.3652318,64.5518421 C34.7653009,67.4233784 31.0898645,69.3777742 26.1930213,69.9345708 C23.1120983,70.2839706 22.1716222,69.1812312 20.4744599,67.8820392 C19.2637258,66.9430102 17.545037,65.075987 16.8207311,63.2199079 C18.5178029,63.5365657 19.7070104,63.9623034 21.3177046,62.9687344 C22.5824361,62.1935969 23.6309973,61.2000279 23.2958882,59.649572 C22.1500956,59.2019459 22.5716728,59.4639731 21.2636169,59.3111163 C19.9014732,59.1473154 20.2691434,59.1910921 19.6313056,58.6560935 C20.7122471,57.5969499 20.6257791,58.0773181 21.4474068,56.8217219 C19.0583189,56.4942104 12.9074171,59.3220605 16.8098773,51.5154215 C17.8152045,49.5175203 18.5502737,48.5566935 20.4636966,47.5739782 C22.7986967,48.8187207 23.0904813,49.6920845 27.0577022,50.8276565 C30.6359071,51.8431138 32.8086439,51.3189689 36.062503,50.6201693" id="Fill-5" fill="#2B1106"></path>
                <path d="M36.062503,50.6201693 C37.5758754,53.4043331 38.5163515,55.2495584 35.6950137,57.7825487 C32.6681784,58.1646906 32.3222157,56.8327565 29.8467501,56.2976674 C30.235947,59.0927754 31.0574842,57.5860961 31.3168885,59.2237438 L27.0469389,59.5513457 C26.5172766,61.7677687 28.571165,63.8203908 29.8467501,64.5737304 C32.1817502,65.9384971 33.9545269,64.6392146 36.3652318,64.5518421 C34.7653009,67.4233784 31.0898645,69.3777742 26.1930213,69.9345708 C23.1120983,70.2839706 22.1716222,69.1812312 20.4744599,67.8820392 C19.2637258,66.9430102 17.545037,65.075987 16.8207311,63.2199079 C18.5178029,63.5365657 19.7070104,63.9623034 21.3177046,62.9687344 C22.5824361,62.1935969 23.6309973,61.2000279 23.2958882,59.649572 C22.1500956,59.2019459 22.5716728,59.4639731 21.2636169,59.3111163 C19.9014732,59.1473154 20.2691434,59.1910921 19.6313056,58.6560935 C20.7122471,57.5969499 20.6257791,58.0773181 21.4474068,56.8217219 C19.0583189,56.4942104 12.9074171,59.3220605 16.8098773,51.5154215 C17.8152045,49.5175203 18.5502737,48.5566935 20.4636966,47.5739782 C22.7986967,48.8187207 23.0904813,49.6920845 27.0577022,50.8276565 C30.6359071,51.8431138 32.8086439,51.3189689 36.062503,50.6201693 Z" id="Stroke-7" stroke="#2B1106" stroke-width="0.2"></path>
                <path d="M30.3872571,46.3292901 C32.0844194,47.0608318 32.7221667,47.4320295 33.9437545,48.1198849 C31.7276933,50.1507091 24.0957994,48.2617975 23.7174563,46.1654891 L28.927882,45.8379777 C29.0792012,43.1957264 29.0792012,42.813675 27.3712756,40.990338 C28.0198767,40.1058491 27.8684671,39.9966786 29.468398,39.9203407 C30.7764539,42.5188152 30.3656401,43.3813253 30.3872571,46.3292901" id="Fill-9" fill="#2B1106"></path>
                <path d="M30.3872571,46.3292901 C32.0844194,47.0608318 32.7221667,47.4320295 33.9437545,48.1198849 C31.7276933,50.1507091 24.0957994,48.2617975 23.7174563,46.1654891 L28.927882,45.8379777 C29.0792012,43.1957264 29.0792012,42.813675 27.3712756,40.990338 C28.0198767,40.1058491 27.8684671,39.9966786 29.468398,39.9203407 C30.7764539,42.5188152 30.3656401,43.3813253 30.3872571,46.3292901 Z" id="Stroke-11" stroke="#2B1106" stroke-width="0.2"></path>
                <path d="M21.3392945,35.9242127 C21.2635897,38.5773177 19.4151083,39.6254266 16.9720231,38.621004 C16.4639779,34.5375577 19.4799593,33.0854184 21.3392945,35.9242127" id="Fill-13" fill="#2B1106"></path>
                <path d="M21.3392945,35.9242127 C21.2635897,38.5773177 19.4151083,39.6254266 16.9720231,38.621004 C16.4639779,34.5375577 19.4799593,33.0854184 21.3392945,35.9242127 Z" id="Stroke-15" stroke="#2B1106" stroke-width="0.2"></path>
            </g>
        </g>
    </g>
</svg>