<?xml version="1.0" encoding="UTF-8"?>
<svg width="41px" height="40px" viewBox="0 0 41 40" version="1.1" xmlns="http://www.w3.org/2000/svg" xmlns:xlink="http://www.w3.org/1999/xlink">
    <title>Airdrop2-灰</title>
    <defs>
        <polygon id="path-1" points="0 0 40.7008164 0 40.7008164 40 0 40"></polygon>
        <polygon id="path-3" points="-2.76196352e-15 0 8.69392046 0 8.69392046 8.93734823 -2.76196352e-15 8.93734823"></polygon>
        <polygon id="path-5" points="1.7262272e-16 0 8.69377234 0 8.69377234 8.93734823 1.7262272e-16 8.93734823"></polygon>
        <polygon id="path-7" points="0 25 28.3751846 25 28.3751846 0 0 0"></polygon>
    </defs>
    <g id="页面-1" stroke="none" stroke-width="1" fill="none" fill-rule="evenodd" opacity="0.400000006">
        <g id="编组">
            <mask id="mask-2" fill="white">
                <use xlink:href="#path-1"></use>
            </mask>
            <g id="Clip-2"></g>
            <path d="M20.2901273,39.8284744 C28.233366,40.0106579 35.3922559,40.3718581 37.9259025,38.8327492 C40.7811657,37.0987901 40.9394011,25.1155514 40.5380235,17.5542943 C40.1956255,11.119982 39.9919679,5.88643778 38.6450373,3.17070672 C37.1959811,0.24448993 29.2651123,0.114556801 20.7812607,0.0296500029 C12.1391737,-0.0568401383 2.94153102,-0.0566422204 1.3723386,1.52630549 C-0.0552435207,2.96714812 0.211450908,10.7040574 0.0562832403,17.1393593 C-0.124910637,24.7147676 0.0719187578,35.5872908 1.53581883,37.9476602 C3.20911608,40.6448859 11.6667435,39.6309523 20.2901273,39.8284744 Z" id="Fill-1" fill="#E0CB90" mask="url(#mask-2)"></path>
            <g mask="url(#mask-2)">
                <g transform="translate(6.000000, 8.000000)">
                    <g id="编组" stroke="none" stroke-width="1" fill="none" fill-rule="evenodd" transform="translate(19.681242, 0.000000)">
                        <mask id="mask-4" fill="white">
                            <use xlink:href="#path-3"></use>
                        </mask>
                        <g id="Clip-2"></g>
                        <path d="M0.496078243,2.87982003 C-0.971406014,4.79782127 1.10091382,4.94757249 3.01891506,6.41505675 C4.93623606,7.88254101 5.97312481,10.1117061 7.44109496,8.19389917 C8.90867639,6.27638381 9.05638688,1.27142774 8.04408415,0.463101532 C6.35279907,-0.888352251 1.9635625,0.961915961 0.496078243,2.87982003" id="Fill-1" fill="#8C8C8C" mask="url(#mask-4)"></path>
                    </g>
                    <path d="M21.5809006,4.04552787 C20.7314682,5.15510573 21.9305469,5.24217717 23.0407078,6.09170683 C24.1502857,6.94055625 24.7504567,8.23039921 25.5995977,7.12082135 C26.4483499,6.01114631 27.0320007,3.38539804 25.9218398,2.5357712 C24.8122619,1.68633872 22.4297501,2.93595001 21.5809006,4.04552787" id="Fill-3" stroke="none" fill="#595959" fill-rule="evenodd"></path>
                    <g id="编组" stroke="none" stroke-width="1" fill="none" fill-rule="evenodd" transform="translate(0.000004, 0.000000)">
                        <mask id="mask-6" fill="white">
                            <use xlink:href="#path-5"></use>
                        </mask>
                        <g id="Clip-6"></g>
                        <path d="M8.19795725,2.87982003 C9.66495562,4.79782127 7.59263579,4.94757249 5.67512043,6.41505675 C3.75711919,7.88254101 2.72032762,10.1117061 1.25284336,8.19389917 C-0.214640897,6.27638381 -0.362254207,1.27142774 0.64917392,0.463101532 C2.34075054,-0.888352251 6.72998711,0.961915961 8.19795725,2.87982003" id="Fill-5" fill="#8C8C8C" mask="url(#mask-6)"></path>
                    </g>
                    <path d="M6.79418681,4.04552787 C7.64303623,5.15510573 6.44424901,5.24217717 5.33457397,6.09170683 C4.22412151,6.94055625 3.6247279,8.23039921 2.77529542,7.12082135 C1.92634883,6.01114631 1.34328112,3.38539804 2.4527618,2.5357712 C3.56253401,1.68633872 5.94485151,2.93595001 6.79418681,4.04552787" id="Fill-7" stroke="none" fill="#595959" fill-rule="evenodd"></path>
                    <path d="M0.452761797,14.7483868 C0.452761797,21.3694123 6.65038288,24.9999806 14.2952752,24.9999806 C21.939876,24.9999806 28.1375943,21.3694123 28.1375943,14.7483868 C28.1375943,8.12726425 21.939876,1.02122366 14.2952752,1.02122366 C6.65038288,1.02122366 0.452761797,8.12726425 0.452761797,14.7483868" id="Fill-9" stroke="none" fill="#8C8C8C" fill-rule="evenodd"></path>
                    <path d="M0.452761797,14.7483868 C0.452761797,21.3694123 6.65038288,24.9999806 14.2952752,24.9999806 C21.939876,24.9999806 28.1375943,21.3694123 28.1375943,14.7483868 C28.1375943,8.12726425 16.7420217,10.5020019 15.3421733,17.5421558 C14.8867002,17.5421558 14.3185979,17.8907331 13.1821989,17.4823914 C12.8305119,9.89794371 0.452761797,8.52170955 0.452761797,14.7483868" id="Fill-11" stroke="none" fill="#FFFFFF" fill-rule="evenodd"></path>
                    <path d="M9.99878528,15.4018697 C10.3162656,17.1854738 7.08607051,18.1365545 5.75619024,18.9482819 C4.91676708,19.4603125 3.75276957,20.2114981 2.61199759,20.6676514 C1.24664736,19.0950206 0.452800669,17.1136593 0.452800669,14.748348 C0.452800669,14.5884902 0.462809998,14.435435 0.478650004,14.2856837 C3.48300358,12.4068452 9.32466182,11.6174687 9.99878528,15.4018697" id="Fill-13" stroke="none" fill="#666666" fill-rule="evenodd"></path>
                    <path d="M22.4880471,18.9482527 C21.1580697,18.1365253 17.9277773,17.185056 18.2456464,15.4018406 C18.9478543,11.4567072 25.2659761,12.4818374 28.1317539,14.5306402 C28.1350579,14.6024547 28.1375845,14.6742692 28.1375845,14.748416 C28.1375845,17.1634825 27.310503,19.1781758 25.8921908,20.7662579 C24.6705667,20.3274994 23.3915105,19.4992517 22.4880471,18.9482527" id="Fill-15" stroke="none" fill="#666666" fill-rule="evenodd"></path>
                    <path d="M21.0654008,16.1597897 C21.0654008,17.0619898 21.7740224,17.7931567 22.648624,17.7931567 C23.522934,17.7931567 24.2315556,17.0619898 24.2315556,16.1597897 C24.2315556,15.2575896 23.522934,14.5263255 22.648624,14.5263255 C21.7740224,14.5263255 21.0654008,15.2575896 21.0654008,16.1597897" id="Fill-17" stroke="none" fill="#FFFFFF" fill-rule="evenodd"></path>
                    <path d="M21.5265199,16.3453219 C21.5265199,17.1528706 22.0287355,17.8074613 22.6483421,17.8074613 C23.2680459,17.8074613 23.7702616,17.1528706 23.7702616,16.3453219 C23.7702616,15.5369956 23.2680459,14.8823078 22.6483421,14.8823078 C22.0287355,14.8823078 21.5265199,15.5369956 21.5265199,16.3453219" id="Fill-19" stroke="none" fill="#441F04" fill-rule="evenodd"></path>
                    <path d="M22.5839909,15.6720536 C22.5839909,16.0071231 22.7925348,16.2792214 23.0494733,16.2792214 C23.3063146,16.2792214 23.5155388,16.0071231 23.5155388,15.6720536 C23.5155388,15.336984 23.3063146,15.0656631 23.0494733,15.0656631 C22.7925348,15.0656631 22.5839909,15.336984 22.5839909,15.6720536" id="Fill-21" stroke="none" fill="#FFFFFF" fill-rule="evenodd"></path>
                    <path d="M12.5903269,17.8907331 C12.5903269,18.4423152 13.3643493,18.8899168 14.3185396,18.8899168 C15.273313,18.8899168 16.0468495,18.4423152 16.0468495,17.8907331 C16.0468495,17.3387623 15.273313,16.8915494 14.3185396,16.8915494 C13.3643493,16.8915494 12.5903269,17.3387623 12.5903269,17.8907331" id="Fill-23" stroke="none" fill="#441F04" fill-rule="evenodd"></path>
                    <path d="M20.9480098,20.5332737 C20.9480098,21.4415961 21.6836469,22.1772331 22.5911918,22.1772331 C23.4988339,22.1772331 24.2345681,21.4415961 24.2345681,20.5332737 C24.2345681,19.6256317 23.4988339,18.8898974 22.5911918,18.8898974 C21.6836469,18.8898974 20.9480098,19.6256317 20.9480098,20.5332737" id="Fill-25" stroke="none" fill="#FFBDBD" fill-rule="evenodd"></path>
                    <path d="M4.2930887,20.5332737 C4.2930887,21.4415961 5.02882298,22.1772331 5.93597917,22.1772331 C6.84410713,22.1772331 7.57974423,21.4415961 7.57974423,20.5332737 C7.57974423,19.6256317 6.84410713,18.8898974 5.93597917,18.8898974 C5.02882298,18.8898974 4.2930887,19.6256317 4.2930887,20.5332737" id="Fill-27" stroke="none" fill="#FFBDBD" fill-rule="evenodd"></path>
                    <mask id="mask-8" fill="white">
                        <use xlink:href="#path-7"></use>
                    </mask>
                    <g id="Clip-30" stroke="none" fill="none"></g>
                    <polygon id="Fill-29" stroke="none" fill="#441F04" fill-rule="evenodd" mask="url(#mask-8)" points="14.1804983 21.2929527 14.4567752 21.2929527 14.4567752 18.7619529 14.1804983 18.7619529"></polygon>
                    <path d="M12.839909,20.3076071 C12.839909,20.3076071 13.1113271,21.3654863 14.2953432,21.3654863 C14.9359403,21.3654863 15.885952,21.005442 15.885952,20.1893415 C15.885952,20.1893415 15.3776141,20.9454832 14.2953432,20.9454832 C13.4497979,20.9454832 12.839909,20.3076071 12.839909,20.3076071" id="Fill-31" stroke="none" fill="#441F04" fill-rule="evenodd" mask="url(#mask-8)"></path>
                    <path d="M4.35306694,16.1597897 C4.35306694,17.0619898 5.06188292,17.7931567 5.93658167,17.7931567 C6.81030864,17.7931567 7.51941615,17.0619898 7.51941615,16.1597897 C7.51941615,15.2575896 6.81030864,14.5263255 5.93658167,14.5263255 C5.06188292,14.5263255 4.35306694,15.2575896 4.35306694,16.1597897" id="Fill-32" stroke="none" fill="#FFFFFF" fill-rule="evenodd" mask="url(#mask-8)"></path>
                    <path d="M4.81438039,16.3453219 C4.81438039,17.1528706 5.31669323,17.8074613 5.93600832,17.8074613 C6.5558093,17.8074613 7.0578306,17.1528706 7.0578306,16.3453219 C7.0578306,15.5369956 6.5558093,14.8823078 5.93600832,14.8823078 C5.31669323,14.8823078 4.81438039,15.5369956 4.81438039,16.3453219" id="Fill-33" stroke="none" fill="#441F04" fill-rule="evenodd" mask="url(#mask-8)"></path>
                    <path d="M5.87176397,15.6720536 C5.87176397,16.0071231 6.08030786,16.2792214 6.33724637,16.2792214 C6.59418487,16.2792214 6.803409,16.0071231 6.803409,15.6720536 C6.803409,15.336984 6.59418487,15.0656631 6.33724637,15.0656631 C6.08030786,15.0656631 5.87176397,15.336984 5.87176397,15.6720536" id="Fill-34" stroke="none" fill="#FFFFFF" fill-rule="evenodd" mask="url(#mask-8)"></path>
                </g>
            </g>
        </g>
    </g>
</svg>