<?xml version="1.0" encoding="UTF-8"?>
<svg width="41px" height="40px" viewBox="0 0 41 40" version="1.1" xmlns="http://www.w3.org/2000/svg" xmlns:xlink="http://www.w3.org/1999/xlink">
    <title>Airdrop3</title>
    <defs>
        <polygon id="path-1" points="-1.31274385e-15 0 40.2797379 0 40.2797379 40 -1.31274385e-15 40"></polygon>
        <polygon id="path-3" points="0 0 7.03913399 0 7.03913399 12.3184845 0 12.3184845"></polygon>
        <polygon id="path-5" points="-2.26353101e-15 0 7.03913399 0 7.03913399 12.3184845 -2.26353101e-15 12.3184845"></polygon>
        <polygon id="path-7" points="0 -2.1642367e-15 7.03913399 -2.1642367e-15 7.03913399 6.15924224 0 6.15924224"></polygon>
        <polygon id="path-9" points="0 -2.1642367e-15 7.03913399 -2.1642367e-15 7.03913399 6.15924224 0 6.15924224"></polygon>
        <polygon id="path-11" points="-0.267198993 29.9163194 26.1295535 29.9163194 26.1295535 0 -0.267198993 0"></polygon>
    </defs>
    <g id="页面-1" stroke="none" stroke-width="1" fill="none" fill-rule="evenodd">
        <g id="Airdrop3" transform="translate(-0.000000, 0.000000)">
            <g id="编组">
                <mask id="mask-2" fill="white">
                    <use xlink:href="#path-1"></use>
                </mask>
                <g id="Clip-2"></g>
                <path d="M1.49014614,37.686893 C3.47374507,40.7222497 12.066253,39.6910857 20.6526518,39.885987 C28.5617241,40.065714 35.2648321,40.2338139 37.787415,38.7153966 C40.6304322,37.0047384 40.4557305,25.4188495 40.0560744,17.9592918 C39.7151448,11.6114993 39.9412816,5.91098028 38.6001279,3.231826 C37.1572866,0.344960898 29.1600259,0.0918256523 20.7126593,0.00797275453 C12.1076375,-0.0773581614 3.35195637,0.515819799 1.81590135,2.09897433 C-0.299930937,4.27974088 0.660091134,11.1533137 0.505588968,17.5019929 C0.325172216,24.9756411 -0.981001712,33.9056298 1.49014614,37.686893" id="Fill-1" fill="#DDD8CA" mask="url(#mask-2)"></path>
            </g>
            <g id="编组" transform="translate(7.000000, 5.000000)">
                <g transform="translate(3.252368, 0.000000)">
                    <mask id="mask-4" fill="white">
                        <use xlink:href="#path-3"></use>
                    </mask>
                    <g id="Clip-2"></g>
                    <path d="M6.93428542,10.7817996 C7.19120936,11.3187087 6.95977074,11.9606035 6.41685367,12.214792 C5.87433481,12.4689804 5.2259722,12.2397773 4.9691279,11.7027894 L0.104855337,1.53674855 C-0.1520686,0.999760652 0.0793700113,0.358102279 0.621968518,0.103756183 C1.16464667,-0.150511096 1.81308892,0.0786132 2.07001285,0.6156011 L6.93428542,10.7817996 Z" id="Fill-1" fill="#722E00" mask="url(#mask-4)"></path>
                </g>
                <path d="M7.7307785,5.96487051 C7.484535,6.49449018 7.15615294,5.79844351 6.58058029,5.57157682 C6.00440494,5.34494776 5.73749765,4.73175814 5.98365505,4.20198005 L7.23476144,1.51292849 C7.48100494,0.983308821 8.14767047,0.737589377 8.72324312,0.964297645 C9.29898797,1.1909267 9.56623966,1.80419554 9.31999616,2.33397363 L7.7307785,5.96487051 Z" id="Fill-3" fill="#722E00"></path>
                <path d="M5.94642134,6.42445774 C6.52063576,6.6356633 7.8556481,7.8798021 7.62541782,8.40621653 C7.62541782,8.40621653 7.47005917,9.33701899 5.11287881,8.33256376 L2.19645836,7.26100962 C1.62232903,7.04988209 1.34300678,6.45184346 1.57332214,5.92519497 C1.80329718,5.39815636 2.45570141,5.1422442 3.03008598,5.35337173 L5.94642134,6.42445774 Z" id="Fill-5" fill="#722E00"></path>
                <g transform="translate(14.690961, 0.000000)">
                    <mask id="mask-6" fill="white">
                        <use xlink:href="#path-5"></use>
                    </mask>
                    <g id="Clip-8"></g>
                    <path d="M0.104958166,10.7817996 C-0.152202356,11.3187087 0.0794730726,11.9606035 0.622066642,12.214792 C1.16481949,12.4689804 1.81325584,12.2397773 2.0700978,11.7027894 L6.93432611,1.53674855 C7.19124771,0.999760652 6.95957228,0.358102279 6.41689907,0.103756183 C5.87398694,-0.150511096 5.22610807,0.0786132 4.96902719,0.6156011 L0.104958166,10.7817996 Z" id="Fill-7" fill="#722E00" mask="url(#mask-6)"></path>
                </g>
                <path d="M17.2517447,5.96487051 C17.4983693,6.49449018 17.8264558,5.79844351 18.4023725,5.57157682 C18.9780308,5.34494776 19.245064,4.73175814 18.9986977,4.20198005 L17.7480939,1.51292849 C17.5015554,0.983308821 16.8351351,0.737589377 16.2589601,0.964297645 C15.6831295,1.1909267 15.4162686,1.80419554 15.6625487,2.33397363 L17.2517447,5.96487051 Z" id="Fill-9" fill="#722E00"></path>
                <path d="M19.0359709,6.42445774 C18.4616732,6.6356633 17.12675,7.8798021 17.3570647,8.40621653 C17.3570647,8.40621653 17.5124228,9.33701899 19.869596,8.33256376 L22.7857523,7.26100962 C23.3601351,7.04988209 23.6393714,6.45184346 23.4092269,5.92519497 C23.1792526,5.39815636 22.5268504,5.1422442 21.9522123,5.35337173 L19.0359709,6.42445774 Z" id="Fill-11" fill="#722E00"></path>
                <g transform="translate(-0.267199, 9.678809)">
                    <mask id="mask-8" fill="white">
                        <use xlink:href="#path-7"></use>
                    </mask>
                    <g id="Clip-14"></g>
                    <path d="M6.68701926,4.64735603 C5.89350183,6.02333791 4.01665107,6.55758743 2.49391674,5.8409651 C0.971182411,5.12419048 -0.578603651,2.14576463 0.214745234,0.769858901 C1.00767275,-0.606122976 3.8429638,0.141948189 5.36586667,0.858646663 C6.88860101,1.57526899 7.47994678,3.27137415 6.68701926,4.64735603" id="Fill-13" fill="#C28241" mask="url(#mask-8)"></path>
                </g>
                <path d="M4.84971525,14.9908336 C4.48439381,15.7618293 3.61894958,16.0613587 2.91711233,15.6596233 C2.21520008,15.2580527 1.20422738,13.4864277 1.56999891,12.7152671 C1.93547038,11.9440242 3.53890892,12.4654395 4.2408962,12.8672573 C4.94265842,13.2687454 5.21548678,14.2195082 4.84971525,14.9908336" id="Fill-15" fill="#FFBDBD"></path>
                <g transform="translate(19.090419, 9.678809)">
                    <mask id="mask-10" fill="white">
                        <use xlink:href="#path-9"></use>
                    </mask>
                    <g id="Clip-18"></g>
                    <path d="M0.352318836,4.64735603 C1.14541568,6.02333791 3.0225211,6.55758743 4.5453412,5.8409651 C6.06782421,5.12419048 7.6176118,2.14576463 6.82451495,0.769858901 C6.03133384,-0.606122976 3.19595573,0.141948189 1.6732199,0.858646663 C0.150484074,1.57526899 -0.440946556,3.27137415 0.352318836,4.64735603" id="Fill-17" fill="#C28241" mask="url(#mask-10)"></path>
                </g>
                <path d="M21.0125924,14.9908336 C21.3781967,15.7618293 22.2433754,16.0613587 22.9453298,15.6596233 C23.6472842,15.2580527 24.6579095,13.4864277 24.2924552,12.7152671 C23.9269258,11.9440242 22.3235623,12.4654395 21.6216079,12.8672573 C20.9196535,13.2687454 20.646913,14.2195082 21.0125924,14.9908336" id="Fill-19" fill="#FFBDBD"></path>
                <path d="M24.36977,21.264132 C24.36977,26.8521227 19.2483344,29.9163194 12.931378,29.9163194 C6.61410034,29.9163194 1.4925845,26.8521227 1.4925845,21.264132 C1.4925845,15.6758133 6.61410034,9.67880923 12.931378,9.67880923 C19.2483344,9.67880923 24.36977,15.6758133 24.36977,21.264132" id="Fill-21" fill="#C28241"></path>
                <path d="M24.36977,21.2631689 C24.36977,26.8517816 19.2483344,29.9163194 12.931378,29.9163194 C6.61410034,29.9163194 1.4925845,26.8517816 1.4925845,21.2631689 C2.80478272,15.1249884 10.1400358,17.1629827 12.9118649,23.9153668 C14.0130321,18.4218212 22.5465363,15.3486707 24.36977,21.2631689" id="Fill-23" fill="#FFCA85"></path>
                <path d="M6.771935,22.437461 C6.771935,23.1661818 6.37818036,23.7570772 5.89212536,23.7570772 C5.40623461,23.7570772 5.0121515,23.1661818 5.0121515,22.437461 C5.0121515,21.7080316 5.40623461,21.117402 5.89212536,21.117402 C6.37818036,21.117402 6.771935,21.7080316 6.771935,22.437461" id="Fill-25" fill="#441F04"></path>
                <path d="M5.89204325,22.4369551 C5.89204325,22.68001 5.69529174,22.8771855 5.45244359,22.8771855 C5.20959545,22.8771855 5.0121515,22.68001 5.0121515,22.4369551 C5.0121515,22.1941135 5.20959545,21.9972937 5.45244359,21.9972937 C5.69529174,21.9972937 5.89204325,22.1941135 5.89204325,22.4369551" id="Fill-27" fill="#FFFFFF"></path>
                <path d="M20.850203,22.437461 C20.850203,23.1661818 20.4564851,23.7570772 19.9703112,23.7570772 C19.48463,23.7570772 19.0904195,23.1661818 19.0904195,22.437461 C19.0904195,21.7080316 19.48463,21.117402 19.9703112,21.117402 C20.4564851,21.117402 20.850203,21.7080316 20.850203,22.437461" id="Fill-29" fill="#441F04"></path>
                <path d="M19.9703112,22.4369551 C19.9703112,22.68001 19.773164,22.8771855 19.5303159,22.8771855 C19.2874677,22.8771855 19.0904195,22.68001 19.0904195,22.4369551 C19.0904195,22.1941135 19.2874677,21.9972937 19.5303159,21.9972937 C19.773164,21.9972937 19.9703112,22.1941135 19.9703112,22.4369551" id="Fill-31" fill="#FFFFFF"></path>
                <path d="M14.6909607,23.7569916 C14.6909607,24.2431102 14.1000872,24.636969 13.3713457,24.636969 C12.6422332,24.636969 12.0512855,24.2431102 12.0512855,23.7569916 C12.0512855,23.2710442 12.6422332,22.8771855 13.3713457,22.8771855 C14.1000872,22.8771855 14.6909607,23.2710442 14.6909607,23.7569916" id="Fill-33" fill="#441F04"></path>
                <path d="M7.65182674,25.9564554 C7.65182674,26.6858096 7.06105269,27.2766442 6.3321452,27.2766442 C5.60323772,27.2766442 5.0121515,26.6858096 5.0121515,25.9564554 C5.0121515,25.2277255 5.60323772,24.636969 6.3321452,24.636969 C7.06105269,24.636969 7.65182674,25.2277255 7.65182674,25.9564554" id="Fill-35" fill="#FF6464"></path>
                <path d="M21.7300947,25.9564554 C21.7300947,26.6858096 21.1392077,27.2766442 20.4101791,27.2766442 C19.6813065,27.2766442 19.0904195,26.6858096 19.0904195,25.9564554 C19.0904195,25.2277255 19.6813065,24.636969 20.4101791,24.636969 C21.1392077,24.636969 21.7300947,25.2277255 21.7300947,25.9564554" id="Fill-37" fill="#FF6464"></path>
                <mask id="mask-12" fill="white">
                    <use xlink:href="#path-11"></use>
                </mask>
                <g id="Clip-40"></g>
                <polygon id="Fill-39" fill="#441F04" mask="url(#mask-12)" points="12.8871826 26.3967525 12.9871826 26.3967525 12.9871826 24.636969 12.8871826 24.636969"></polygon>
                <path d="M14.6909607,26.4849015 C14.6909607,26.4849015 14.4558289,27.2766442 13.4298219,27.2766442 C12.8745839,27.2766442 12.0512855,27.0068921 12.0512855,26.3967525 C12.0512855,26.3967525 12.4916524,26.9622726 13.4298219,26.9622726 C14.1625878,26.9622726 14.6909607,26.4849015 14.6909607,26.4849015" id="Fill-41" fill="#441F04" mask="url(#mask-12)"></path>
            </g>
        </g>
    </g>
</svg>