<?xml version="1.0" encoding="UTF-8"?>
<svg width="40px" height="40px" viewBox="0 0 40 40" version="1.1" xmlns="http://www.w3.org/2000/svg" xmlns:xlink="http://www.w3.org/1999/xlink">
    <title>Airdrop1-灰</title>
    <defs>
        <polygon id="path-1" points="0 -5.00419966e-15 1.83219909 -5.00419966e-15 1.83219909 3.17493146 0 3.17493146"></polygon>
        <polygon id="path-3" points="0 -2.50209983e-15 25.5968873 -2.50209983e-15 25.5968873 22.1701587 0 22.1701587"></polygon>
        <polygon id="path-5" points="0 28 25.5969138 28 25.5969138 0 0 0"></polygon>
    </defs>
    <g id="页面-1" stroke="none" stroke-width="1" fill="none" fill-rule="evenodd" opacity="0.400000006">
        <g id="Airdrop1-灰">
            <g id="编组-4" fill="#EAE7E1">
                <path d="M19.7998318,39.5730476 C11.8785314,39.6468461 4.7908185,40.125155 2.28995757,38.5635475 C-0.528296026,36.8041245 -0.159106285,26.0231329 0.363205445,18.5242993 C0.808561537,12.1431969 -0.284504511,5.15789418 1.10207823,2.48092324 C2.59393235,-0.403729269 10.6389537,0.0065034803 19.0977596,0.036496447 C27.7143246,0.066884058 36.1444201,0.513029438 37.6832369,2.1051232 C39.0829416,3.55435573 39.2032094,12.629892 39.2540199,19.0186899 C39.3122299,26.539525 39.4345696,36.1535534 37.9370918,38.4764297 C36.2254208,41.13061 28.3995257,39.4931321 19.7998318,39.5730476 Z" id="Fill-1备份"></path>
            </g>
            <g id="编组" transform="translate(7.000000, 6.000000)">
                <path d="M8.45486329,6.56817164 C9.28538371,8.31980029 7.6332344,8.09029353 5.88204593,8.92072591 C4.13068139,9.75142239 3.22436301,11.7825616 2.39349045,10.0312851 C1.56288201,8.27965641 2.23441155,3.70915311 2.93446437,3.40622532 C3.89430792,2.84456322 7.62399074,4.81671907 8.45486329,6.56817164" id="Fill-1" fill="#C14E00"></path>
                <path d="M7.31659959,7.40011822 C7.84331187,8.51111754 6.79543351,8.365596 5.68469829,8.89230827 C4.57396308,9.41928465 4.24999497,10.3434741 3.72310662,9.23256282 C3.19604221,8.1215635 3.37114345,5.58668914 3.81519104,5.39459718 C4.42403979,5.03849637 6.78971125,6.28929497 7.31659959,7.40011822" id="Fill-3" fill="#FFBDBD"></path>
                <g transform="translate(1.031020, 0.000000)">
                    <mask id="mask-2" fill="white">
                        <use xlink:href="#path-1"></use>
                    </mask>
                    <g id="Clip-6"></g>
                    <path d="M1.62300037,1.34213472 C1.8807663,2.67903137 1.82768131,3.17493146 1.82768131,3.17493146 C1.82768131,3.17493146 1.30537077,2.83450084 0.512353189,1.88214025 C-0.086987808,1.16219156 -0.167539661,0.280346857 0.307848321,0.049255477 C0.783148269,-0.181923938 1.44622647,0.425956435 1.62300037,1.34213472" id="Fill-5" fill="#441F04" mask="url(#mask-2)"></path>
                </g>
                <path d="M3.92063913,1.9371444 C3.40176195,2.89487512 3.11723344,3.17438564 3.11723344,3.17438564 C3.11723344,3.17438564 2.96695802,2.69882159 2.9598272,1.70781372 C2.95454511,0.958285333 3.35219836,0.372149559 3.76323289,0.470484443 C4.17461956,0.568643258 4.27621174,1.28093292 3.92063913,1.9371444" id="Fill-7" fill="#441F04"></path>
                <path d="M1.57774228,2.312921 C2.4123123,3.01262168 2.62967025,3.347242 2.62967025,3.347242 C2.62967025,3.347242 2.13368212,3.39962271 1.16098549,3.20858717 C0.425630707,3.06429811 -0.0693890384,2.55765777 0.109057524,2.17444224 C0.287416053,1.79105063 1.00569208,1.83365948 1.57774228,2.312921" id="Fill-9" fill="#441F04"></path>
                <path d="M16.6531931,6.56817164 C15.8228488,8.31980029 17.4749101,8.09029353 19.2260105,8.92072591 C20.9774631,9.75142239 21.8836934,11.7825616 22.714566,10.0312851 C23.5452625,8.27965641 22.873821,3.70915311 22.1737681,3.40622532 C21.2137485,2.84456322 17.4840657,4.81671907 16.6531931,6.56817164" id="Fill-11" fill="#C14E00"></path>
                <path d="M17.7915361,7.40011822 C17.2647358,8.51111754 18.3127022,8.365596 19.4233493,8.89230827 C20.5341726,9.41928465 20.8580527,10.3434741 21.3850291,9.23256282 C21.9120054,8.1215635 21.7369922,5.58668914 21.2929446,5.39459718 C20.6840959,5.03849637 18.3184244,6.28929497 17.7915361,7.40011822" id="Fill-13" fill="#FFBDBD"></path>
                <path d="M22.4477589,1.38692683 C22.1972998,2.6854403 22.2488882,3.16725482 22.2488882,3.16725482 C22.2488882,3.16725482 22.7564089,2.83659607 23.5265375,1.91152627 C24.1087117,1.21208969 24.1870627,0.355510979 23.7254081,0.131110245 C23.2635775,-0.0933785245 22.6193387,0.496982921 22.4477589,1.38692683" id="Fill-15" fill="#441F04"></path>
                <path d="M21.2174196,1.96499862 C21.7215069,2.8950864 21.9977601,3.16667379 21.9977601,3.16667379 C21.9977601,3.16667379 22.1437219,2.7046671 22.1507646,1.74200644 C22.1558707,1.01404658 21.7696619,0.444549388 21.370248,0.540155193 C20.970746,0.635584928 20.872059,1.32745051 21.2174196,1.96499862" id="Fill-17" fill="#441F04"></path>
                <path d="M23.4932515,2.32985889 C22.6824509,3.00957567 22.4714314,3.3346002 22.4714314,3.3346002 C22.4714314,3.3346002 22.9531579,3.38539628 23.8980356,3.19990693 C24.612262,3.05975551 25.0931962,2.56764092 24.9198556,2.19542974 C24.7466031,1.82286641 24.0488392,1.86433081 23.4932515,2.32985889" id="Fill-19" fill="#441F04"></path>
                <g transform="translate(0.000000, 5.829832)">
                    <mask id="mask-4" fill="white">
                        <use xlink:href="#path-3"></use>
                    </mask>
                    <g id="Clip-22"></g>
                    <path d="M25.5968873,12.6921548 C25.5968873,18.8139196 19.8666134,22.1701587 12.7982104,22.1701587 C5.72980733,22.1701587 -2.64104434e-05,18.8139196 -2.64104434e-05,12.6921548 C-2.64104434e-05,6.56994995 5.72980733,-2.50209983e-15 12.7982104,-2.50209983e-15 C19.8666134,-2.50209983e-15 25.5968873,6.56994995 25.5968873,12.6921548" id="Fill-21" fill="#FFA300" mask="url(#mask-4)"></path>
                </g>
                <path d="M5.69681188,19.9982959 C5.69681188,20.7375242 5.26605755,21.3366011 4.73406318,21.3366011 C4.20268506,21.3366011 3.77149056,20.7375242 3.77149056,19.9982959 C3.77149056,19.2581872 4.20268506,18.6590223 4.73406318,18.6590223 C5.26605755,18.6590223 5.69681188,19.2581872 5.69681188,19.9982959" id="Fill-23" fill="#441F04"></path>
                <path d="M4.78955153,19.3817881 C4.78955153,19.6885014 4.61048872,19.9377279 4.38996152,19.9377279 C4.16943431,19.9377279 3.99045954,19.6885014 3.99045954,19.3817881 C3.99045954,19.0748988 4.16943431,18.8268167 4.38996152,18.8268167 C4.61048872,18.8268167 4.78955153,19.0748988 4.78955153,19.3817881" id="Fill-25" fill="#FFFFFF"></path>
                <path d="M21.4407727,19.9982959 C21.4407727,20.7375242 21.0097543,21.3366011 20.4778479,21.3366011 C19.9463818,21.3366011 19.5151873,20.7375242 19.5151873,19.9982959 C19.5151873,19.2581872 19.9463818,18.6590223 20.4778479,18.6590223 C21.0097543,18.6590223 21.4407727,19.2581872 21.4407727,19.9982959" id="Fill-27" fill="#441F04"></path>
                <path d="M20.533257,19.3817881 C20.533257,19.6885014 20.3542823,19.9377279 20.1337551,19.9377279 C19.9132279,19.9377279 19.734077,19.6885014 19.734077,19.3817881 C19.734077,19.0748988 19.9132279,18.8268167 20.1337551,18.8268167 C20.3542823,18.8268167 20.533257,19.0748988 20.533257,19.3817881" id="Fill-29" fill="#FFFFFF"></path>
                <path d="M6.38372111,23.1602422 C6.38372111,23.9998302 5.70365219,24.6801632 4.86476847,24.6801632 C4.02535654,24.6801632 3.34493548,23.9998302 3.34493548,23.1602422 C3.34493548,22.3210944 4.02535654,21.6407614 4.86476847,21.6407614 C5.70365219,21.6407614 6.38372111,22.3210944 6.38372111,23.1602422" id="Fill-31" fill="#FF6161"></path>
                <path d="M22.1010338,23.1602422 C22.1010338,23.9998302 21.4204367,24.6801632 20.5814649,24.6801632 C19.742053,24.6801632 19.0619841,23.9998302 19.0619841,23.1602422 C19.0619841,22.3210944 19.742053,21.6407614 20.5814649,21.6407614 C21.4204367,21.6407614 22.1010338,22.3210944 22.1010338,23.1602422" id="Fill-33" fill="#FF6161"></path>
                <path d="M14.2349825,21.19218 C13.722796,21.19218 13.07037,21.7604447 12.7459617,22.0531604 C12.4216415,21.7604447 11.7692155,21.19218 11.257117,21.19218 C10.2756169,21.19218 9.6720502,21.7677516 9.6720502,22.5962472 C9.6720502,23.4246548 10.4677088,24.0963604 11.4491209,24.0963604 C11.9741605,24.5728048 12.7605755,24.6955253 14.0428025,24.0963604 C15.0242146,24.0963604 15.8198732,23.4246548 15.8198732,22.5962472 C15.8198732,21.7677516 15.2163066,21.19218 14.2349825,21.19218" id="Fill-35" fill="#FFFFFF"></path>
                <mask id="mask-6" fill="white">
                    <use xlink:href="#path-5"></use>
                </mask>
                <g id="Clip-38"></g>
                <polygon id="Fill-37" fill="#441F04" mask="url(#mask-6)" points="12.5928516 24.5728048 12.8478004 24.5728048 12.8478004 22.2322233 12.5928516 22.2322233"></polygon>
                <path d="M14.2860515,21.6409462 C14.2860515,22.1406318 13.5849423,22.5459441 12.7202644,22.5459441 C11.8556745,22.5459441 11.1546533,22.1406318 11.1546533,21.6409462 C11.1546533,21.1409966 11.8556745,20.7355962 12.7202644,20.7355962 C13.5849423,20.7355962 14.2860515,21.1409966 14.2860515,21.6409462" id="Fill-39" fill="#441F04" mask="url(#mask-6)"></path>
                <path d="M11.065386,24.1847649 C11.057991,24.1829162 11.0512124,24.1802752 11.0441696,24.1779863 C10.9331577,24.3212189 10.8663393,24.5003697 10.8663393,24.6955429 L10.8663393,25.307825 C10.8663393,25.7752899 11.2455052,26.1543678 11.7130581,26.1543678 C12.180611,26.1543678 12.5596889,25.7752899 12.5596889,25.307825 L12.5596889,24.6955429 C12.5596889,24.6054833 12.5453392,24.5188571 12.5193689,24.4376009 C12.0206517,24.4082853 11.5211422,24.3068692 11.065386,24.1847649" id="Fill-40" fill="#FFFFFF" mask="url(#mask-6)"></path>
                <path d="M12.7980607,24.4457706 C12.7737631,24.5247378 12.7605579,24.608635 12.7605579,24.6955253 L12.7605579,25.3078074 C12.7605579,25.7753603 13.1396358,26.1543502 13.6071006,26.1543502 C14.0747416,26.1543502 14.4537314,25.7753603 14.4537314,25.3078074 L14.4537314,24.6955253 C14.4537314,24.4811606 14.3734437,24.2859874 14.2420957,24.1368564 C13.8016576,24.3616093 13.3047891,24.4462988 12.7980607,24.4457706" id="Fill-41" fill="#FFFFFF" mask="url(#mask-6)"></path>
                <path d="M14.9601517,23.6614508 C14.9601517,23.6614508 14.5521984,24.6402218 12.7731909,24.6402218 C11.8101781,24.6402218 10.3828697,24.306746 10.3828697,23.5525518 C10.3828697,23.5525518 11.1462195,24.2518123 12.7731909,24.2518123 C14.0432691,24.2518123 14.9601517,23.6614508 14.9601517,23.6614508" id="Fill-42" fill="#441F04" mask="url(#mask-6)"></path>
            </g>
        </g>
    </g>
</svg>