<?xml version="1.0" encoding="UTF-8"?>
<svg width="15px" height="10px" viewBox="0 0 15 10" version="1.1" xmlns="http://www.w3.org/2000/svg" xmlns:xlink="http://www.w3.org/1999/xlink">
    <title>箭头</title>
    <defs>
        <polygon id="path-1" points="0 0 8.46914766 0 8.46914766 4.56428679 0 4.56428679"></polygon>
    </defs>
    <g id="页面-1" stroke="none" stroke-width="1" fill="none" fill-rule="evenodd">
        <g id="launchpad--Airdrop-1备份-3" transform="translate(-845.000000, -139.000000)">
            <g id="箭头" transform="translate(852.234574, 144.000000) rotate(-270.000000) translate(-852.234574, -144.000000) translate(848.000000, 137.000000)">
                <g id="编组" transform="translate(0.000000, 6.597241)">
                    <mask id="mask-2" fill="white">
                        <use xlink:href="#path-1"></use>
                    </mask>
                    <g id="Clip-2"></g>
                    <path d="M8.46915092,3.63822355 C8.47322043,4.06748331 8.13580342,4.61535114 7.66195089,4.56046773 C7.17626172,4.50418325 6.84676801,4.37127457 5.88824088,3.42603347 C3.56009249,1.1302547 4.73462642,2.54644955 1.83310101,4.28807983 C1.17652925,4.68216782 0.714368436,4.59047001 0.31892768,4.29218642 C0.0893449712,4.11903313 -0.0601833292,3.60435624 0.0234462308,3.33148521 C0.160896316,2.88328681 2.21409622,1.21016417 2.75809902,0.752061634 C3.86286918,-0.178299103 4.10931308,0.190424642 4.21154309,0.058530535 C4.27488125,-0.0230698848 4.33884747,-0.00707832828 4.41687274,0.0325382166 C5.54787678,0.606156798 8.45689069,2.36711222 8.46915092,3.63822355" id="Fill-1" fill="#CAA056" mask="url(#mask-2)"></path>
                </g>
                <path d="M4.68165137,0.31655868 C5.26300001,0.492707366 5.64351209,0.686103743 6.61928692,1.11632976 C8.76534414,2.0624888 8.15940425,3.49206631 7.25136406,3.46104946 C6.91834352,3.44969594 6.78920324,3.36553494 5.4094846,2.54991724 C4.41269368,1.96064529 4.0562414,1.77290152 3.54924625,2.14930701 C3.00321431,2.55470021 2.24006438,3.10672295 1.59011148,3.29649586 C0.441279997,3.63183542 0.120627548,2.39932606 1.09930114,1.62941233 C3.75713649,-0.461713175 4.09300749,0.138187603 4.68165137,0.31655868" id="Fill-3" fill="#CAA056"></path>
                <path d="M3.83822962,3.31086893 C4.69017859,3.27163889 6.05105522,3.9122191 6.77980639,4.2890594 C7.52078072,4.672277 7.89926366,4.90591799 8.14677044,5.41759949 C8.36770515,5.87439758 8.03748675,6.62580748 7.51793026,6.56039187 C6.6066531,6.4455522 6.43625365,6.25887131 5.36800801,5.65211011 C3.76513227,4.74165427 3.84967977,5.06192022 3.03425533,5.91473881 C0.947526296,8.09717562 -0.14028605,7.17000353 0.0827744223,6.39342263 C0.185052746,6.03735685 0.75432317,5.124582 1.75072759,4.41626716 C2.22158472,4.08150736 2.72413508,3.79810412 3.20943776,3.486921 C3.40863168,3.35918179 3.61980718,3.24390731 3.83822962,3.31086893" id="Fill-5" fill="#CAA056"></path>
                <path d="M3.75415558,11.6311067 C3.64965487,2.37170559 3.51553837,0.656067638 3.75855206,0.148927551 C3.87585568,-0.0958253953 4.30593675,-0.0572234205 4.35801802,0.402231874 C4.47614296,1.44540314 4.58687603,6.55216902 4.58653784,6.66275716 C4.58479858,7.14414649 4.69132843,9.05854355 4.68504776,9.46021666 C4.64900637,11.7629042 5.0807784,13.9724928 4.23897513,13.999693 C3.75729592,14.015298 3.77454361,13.4388773 3.75415558,11.6311067" id="Fill-7" fill="#776149"></path>
                <path d="M7.63353541,10.0120606 C7.63188097,10.117431 7.52206584,10.1923642 7.41234734,10.1536173 C7.35214951,10.132263 7.31118021,10.0862209 7.26779526,10.0436089 C6.12084797,8.91738787 4.66890161,8.17452934 4.84519523,7.86315296 C4.92544289,7.72145134 5.10965982,7.78908935 5.2267702,7.89856629 C5.84773538,8.47904529 7.63883802,9.674547 7.63353541,10.0120606" id="Fill-9" fill="#B78F4E"></path>
                <path d="M1.32197511,10.3067498 C1.20288392,10.3131754 1.11761172,10.1847598 1.16621445,10.0684707 C1.19771444,9.99310267 1.2595549,9.94295393 1.31883478,9.89188723 C2.81073588,8.60695842 3.12815137,8.12300851 3.38445109,8.00599476 C3.53871405,7.93560292 3.71408973,8.14532905 3.573451,8.2849049 C3.48421714,8.37341406 3.11844048,8.68619151 2.94552876,8.87818681 C2.69227275,9.1595126 1.50126414,10.2970872 1.32197511,10.3067498" id="Fill-11" fill="#B78F4E"></path>
                <path d="M4.6996769,1.03577773 C4.85577575,1.03833831 7.199191,2.30428017 7.32031134,2.45950939 C7.4328803,2.6038199 7.27513882,2.7691465 7.14957369,2.72638962 C6.94095877,2.65541803 6.2013372,2.14388147 4.77939312,1.44083274 C4.43458424,1.27033666 4.53396379,1.0747662 4.6996769,1.03577773" id="Fill-13" fill="#B78F4E"></path>
                <path d="M4.86513878,4.15492841 C5.01993318,4.14985556 6.81891082,5.14819249 7.19120972,5.36671155 C7.35658463,5.4638204 7.54258914,5.55933493 7.4413737,5.72297058 C7.26474189,6.00854789 6.81451435,5.44734572 5.32493226,4.76579621 C5.21337787,4.71472951 4.78522931,4.5181928 4.71734974,4.41683242 C4.64048398,4.30204107 4.70507827,4.16019451 4.86513878,4.15492841" id="Fill-15" fill="#B78F4E"></path>
                <path d="M1.12438035,5.96123511 C1.62639927,5.52158809 2.8606479,4.47798201 3.18381261,4.29743685 C3.3610725,4.19849212 3.51142212,4.41251808 3.39759702,4.54987154 C3.26893987,4.70510076 3.48610618,4.4647926 2.03203404,5.65266088 C1.59601048,6.00877496 1.38048682,6.25188527 1.2406694,6.2955601 C1.10041717,6.33937986 0.892671875,6.16414912 1.12438035,5.96123511" id="Fill-17" fill="#B78F4E"></path>
                <path d="M3.35542955,1.20623999 C3.36257986,1.29639179 3.16826554,1.4324408 3.1143967,1.46712943 C2.03310659,2.16510531 1.575922,2.62514036 1.42779477,2.65963574 C1.24947201,2.70103986 1.13699967,2.50783674 1.25304716,2.38285137 C1.33348807,2.29622641 2.11031054,1.69980416 3.03004245,1.08893637 C3.24508298,0.946123553 3.34639505,1.09304296 3.35542955,1.20623999" id="Fill-19" fill="#B78F4E"></path>
            </g>
        </g>
    </g>
</svg>