<?xml version="1.0" encoding="UTF-8"?>
<svg width="102px" height="40px" viewBox="0 0 102 40" version="1.1" xmlns="http://www.w3.org/2000/svg" xmlns:xlink="http://www.w3.org/1999/xlink">
    <title>编组 9备份</title>
    <defs>
        <linearGradient x1="1.16399945e-13%" y1="46.9795315%" x2="94.9200706%" y2="56.7867036%" id="linearGradient-1">
            <stop stop-color="#F2F6A1" offset="0%"></stop>
            <stop stop-color="#DC849E" offset="100%"></stop>
        </linearGradient>
    </defs>
    <g id="页面-1" stroke="none" stroke-width="1" fill="none" fill-rule="evenodd">
        <g id="launchpad--Airdrop-1备份-2" transform="translate(-801.000000, -750.000000)">
            <g id="编组-9备份" transform="translate(803.142857, 752.000000)">
                <rect id="矩形" stroke="#FFFFFF" stroke-width="3" fill="url(#linearGradient-1)" x="0" y="0" width="97.7142857" height="36" rx="18"></rect>
                <text id="Owned" font-family="Quicksand-Bold, Quicksand" font-size="14" font-weight="bold" fill="#2B1106">
                    <tspan x="37.0751429" y="23">Owned</tspan>
                </text>
                <path d="M16.2222126,7.4676785 C16.9119678,6.65363098 18.1674966,6.65363098 18.8572518,7.4676785 L19.6883424,8.44866939 C20.1113128,8.94785909 20.7800015,9.16514621 21.4156227,9.00989302 L22.6645898,8.70478277 C23.7010789,8.45159625 24.7168467,9.18959717 24.7963641,10.2535676 L24.8921131,11.5357404 C24.9408941,12.1881802 25.3541947,12.7570448 25.9595975,13.0050165 L27.149423,13.4923347 C28.1367857,13.8966906 28.5247892,15.090833 27.9636778,15.9983329 L27.287564,17.0918914 C26.9435066,17.6484269 26.9435066,18.3515645 27.287564,18.9080999 L27.9636778,20.0016585 C28.5247892,20.9091584 28.1367857,22.1033008 27.149423,22.5076222 L25.9595975,22.9950008 C25.3541947,23.2429639 24.9408941,23.8118457 24.8921131,24.4642165 L24.7963641,25.7464237 C24.7168467,26.8103683 23.7010789,27.5483865 22.6645898,27.2952431 L21.4156227,26.9901242 C20.7800015,26.834802 20.1113128,27.052115 19.6883424,27.551322 L18.8572518,28.5322956 C18.1674966,29.3463777 16.9119678,29.3463777 16.2222126,28.5322956 L15.3911219,27.551322 C14.9681515,27.052115 14.2994629,26.834802 13.6638417,26.9901242 L12.4148573,27.2952431 C11.3783942,27.5483865 10.3626176,26.8103683 10.2831261,25.7464237 L10.1873426,24.4642165 C10.1385961,23.8118457 9.72529559,23.2429639 9.11984095,22.9950008 L7.9300327,22.5076222 C6.94269595,22.1033008 6.55470111,20.9091584 7.1157866,20.0016585 L7.79192626,18.9080999 C8.13599226,18.3515645 8.13599226,17.6484269 7.79192626,17.0918914 L7.1157866,15.9983329 C6.55470111,15.090833 6.94269595,13.8966906 7.9300327,13.4923347 L9.11984095,13.0050165 C9.72529559,12.7570448 10.1385961,12.1881802 10.1873426,11.5357404 L10.2831261,10.2535676 C10.3626176,9.18959717 11.3783942,8.45159625 12.4148573,8.70478277 L13.6638417,9.00989302 C14.2994629,9.16514621 14.9681515,8.94785909 15.3911219,8.44866939 L16.2222126,7.4676785 Z" id="路径" fill="#FFFFFF"></path>
                <path d="M16.6697025,19.4265837 L14.3425519,17.099433 C14.0027543,16.7596354 13.4517886,16.7596354 13.1119911,17.099433 C12.7721935,17.4392064 12.7721935,17.9900995 13.1119911,18.3299938 L15.8860823,21.1039883 C16.3188837,21.5367898 17.0205455,21.5367898 17.4533228,21.1039883 L22.5005703,16.0568376 C22.8403678,15.7169433 22.8403678,15.1660502 22.5005703,14.8262768 C22.1607727,14.4864792 21.6098795,14.4864792 21.2700094,14.8262768 L16.6697025,19.4265837 Z" id="Fill-1" fill="#2B1106"></path>
            </g>
        </g>
    </g>
</svg>