<svg width="16" height="12" viewBox="0 0 16 12" fill="none" xmlns="http://www.w3.org/2000/svg">
<mask id="mask0_428_61" style="mask-type:luminance" maskUnits="userSpaceOnUse" x="0" y="0" width="16" height="12">
<path d="M15.7281 0H0V12H15.7281V0Z" fill="white"/>
</mask>
<g mask="url(#mask0_428_61)">
<path d="M13.3325 1.01401C13.3275 1.00566 13.3208 0.998968 13.3124 0.995624C12.2926 0.527527 11.216 0.194844 10.111 0.0025902C10.0909 -0.000753352 10.0692 0.0092773 10.0592 0.0276668C9.91204 0.293479 9.77997 0.565978 9.66127 0.846836C8.46929 0.666285 7.25726 0.666285 6.06528 0.846836C5.94491 0.565978 5.81117 0.293479 5.66071 0.0276668C5.65068 0.0092773 5.62895 0.000918423 5.60889 0.0025902C4.50384 0.193173 3.42722 0.527527 2.40744 0.995624C2.39908 0.998968 2.39072 1.00566 2.38571 1.01401C0.347812 4.05832 -0.210561 7.02906 0.0636101 9.96135C0.0652819 9.9764 0.0719689 9.98977 0.0836714 9.99813C1.27063 10.8775 2.59969 11.5479 4.01067 11.9825C4.03073 11.9892 4.05247 11.9809 4.06584 11.9641C4.36843 11.5512 4.63759 11.1149 4.86996 10.6585C4.87665 10.6451 4.87665 10.6317 4.87163 10.6184C4.86662 10.605 4.85659 10.595 4.84321 10.5899C4.42026 10.4278 4.009 10.2322 3.61613 10.0048C3.60109 9.99646 3.59273 9.98141 3.59106 9.9647C3.58938 9.94798 3.59774 9.93126 3.61112 9.92123C3.69303 9.85938 3.77495 9.79585 3.8552 9.73065C3.87024 9.71895 3.88863 9.7156 3.90535 9.72396C6.47988 10.8992 9.26673 10.8992 11.8095 9.72396C11.8262 9.7156 11.8463 9.71895 11.8613 9.73065C11.9416 9.79585 12.0218 9.86105 12.1054 9.9229C12.1188 9.93293 12.1271 9.94965 12.1255 9.96637C12.1238 9.98309 12.1154 9.99813 12.1004 10.0065C11.7092 10.2355 11.2979 10.4311 10.8733 10.5899C10.8599 10.595 10.8499 10.605 10.8449 10.6184C10.8399 10.6317 10.8399 10.6468 10.8466 10.6585C11.0823 11.1132 11.3498 11.5495 11.649 11.9641C11.6607 11.9809 11.6841 11.9892 11.7042 11.9825C13.1185 11.5495 14.4492 10.8792 15.6379 9.99813C15.6496 9.98977 15.6563 9.9764 15.6579 9.96135C15.9873 6.57099 15.1096 3.62533 13.3325 1.01401ZM5.25447 8.1759C4.47877 8.1759 3.84015 7.46539 3.84015 6.59106C3.84015 5.71839 4.46706 5.00621 5.25447 5.00621C6.04856 5.00621 6.68049 5.7234 6.66712 6.59106C6.66712 7.46539 6.04188 8.1759 5.25447 8.1759ZM10.4804 8.1759C9.70474 8.1759 9.06779 7.46539 9.06779 6.59106C9.06779 5.71839 9.6947 5.00621 10.4804 5.00621C11.2745 5.00621 11.9065 5.7234 11.8948 6.59106C11.8931 7.46539 11.2745 8.1759 10.4804 8.1759Z" fill="white"/>
</g>
</svg>
