<?xml version="1.0" encoding="UTF-8"?>
<svg width="30px" height="16px" viewBox="0 0 30 16" version="1.1" xmlns="http://www.w3.org/2000/svg" xmlns:xlink="http://www.w3.org/1999/xlink">
    <title>MediumLogo</title>
    <g id="页面-1" stroke="none" stroke-width="1" fill="none" fill-rule="evenodd">
        <g id="harwell-launchpad" transform="translate(-1450.000000, -42.000000)" fill="#ffffff">
            <path d="M1458.36549,42 C1460.45115,42 1462.31314,42.8961315 1463.66021,44.3273984 C1465.03448,45.7875813 1465.87383,47.8038886 1465.87383,50.0000792 C1465.87383,52.1962424 1465.03449,54.2125043 1463.66022,55.6726511 C1462.31315,57.1038925 1460.45116,58 1458.36549,58 C1456.2798,58 1454.41781,57.1038971 1453.07075,55.6726613 C1451.69648,54.2125136 1450.85714,52.1962474 1450.85714,50.0000792 C1450.85714,47.8038836 1451.69649,45.787572 1453.07077,44.3273882 C1454.34299,42.9756414 1456.07451,42.1012213 1458.02,42.0082356 L1458.36549,42 L1458.36549,42 Z M1458.36549,43.2502009 C1456.65183,43.2502009 1455.06953,44.0042589 1453.92361,45.2456813 C1452.80873,46.4534901 1452.10734,48.1229611 1452.10734,50.0000792 C1452.10734,51.8771252 1452.80873,53.5465535 1453.92363,54.7543349 C1455.06954,55.995717 1456.65184,56.7497595 1458.36549,56.7497595 C1460.07912,56.7497595 1461.66141,55.9957151 1462.80732,54.7543291 C1463.92221,53.5465483 1464.62359,51.8771222 1464.62359,50.0000792 C1464.62359,48.1229641 1463.92221,46.4534954 1462.80733,45.2456871 C1461.66142,44.0042609 1460.07913,43.2502009 1458.36549,43.2502009 Z M1472.13194,42.4917339 C1472.77278,42.4917339 1473.30825,42.8066236 1473.71908,43.2123591 C1474.16054,43.648299 1474.51342,44.2352475 1474.79194,44.8861689 C1475.37374,46.244055 1475.70701,48.0531889 1475.70701,50.0000792 C1475.70701,51.9467768 1475.37374,53.7559101 1474.79194,55.1138301 C1474.51341,55.7639001 1474.16036,56.3508358 1473.71931,56.7874139 C1473.30764,57.1931982 1472.77292,57.5083849 1472.13194,57.5083849 C1471.49109,57.5083849 1470.95563,57.1933764 1470.54481,56.7876516 C1470.10334,56.3516699 1469.75045,55.7647162 1469.47193,55.1138266 C1468.89009,53.7559043 1468.55687,51.9467734 1468.55687,50.0000792 C1468.55687,48.0531923 1468.89009,46.2440608 1469.47193,44.8861699 C1469.75041,44.236244 1470.1033,43.648338 1470.54457,43.2125861 C1470.95623,42.8068018 1471.49097,42.4917339 1472.13194,42.4917339 Z M1471.42352,44.1023947 C1471.16616,44.3555235 1470.88097,44.7730463 1470.62082,45.3785716 C1470.13595,46.5108494 1469.80707,48.1432257 1469.80707,50.0000792 C1469.80707,51.8567308 1470.13595,53.4891094 1470.62065,54.6209993 C1470.89487,55.2592864 1471.17394,55.7239414 1472.84025,55.8978307 C1473.09782,55.6447095 1473.38308,55.2269264 1473.64309,54.6213087 C1474.12807,53.4891398 1474.45677,51.8567489 1474.45677,50.0000792 C1474.45677,48.1432075 1474.12807,46.5108191 1473.64321,45.3789209 C1473.3693,44.7396887 1473.0902,44.2762775 1471.42352,44.1023947 Z M1478.57337,42.6746422 C1479.18099,42.4917339 1479.33998,42.5575001 1479.4572,42.6747238 C1479.57446,42.7920071 1479.64028,42.9509721 1479.64028,43.1168343 L1479.64028,43.1168343 L1479.64028,56.8832845 C1479.64028,57.0558753 1479.5703,57.2121528 1479.45716,57.3252824 C1479.34404,57.4384015 1479.18777,57.5083849 1479.01514,57.5083849 C1478.84253,57.5083849 1478.68627,57.4384063 1478.57315,57.3252929 C1478.46002,57.2121612 1478.39004,57.0558789 1478.39004,56.8832845 L1478.39004,56.8832845 L1478.39004,43.1168343 C1478.39004,42.9509712 1478.45598,42.7920271 1478.57337,42.6746422 Z" id="MediumLogo"></path>
        </g>
    </g>
</svg>