<svg width="16" height="12" viewBox="0 0 16 12" fill="none" xmlns="http://www.w3.org/2000/svg">
<mask id="mask0_428_43" style="mask-type:luminance" maskUnits="userSpaceOnUse" x="0" y="0" width="16" height="12">
<path d="M15.9646 1.49668C15.3659 1.69624 14.7673 1.8958 14.0688 1.99558C14.7673 1.59646 15.2662 0.997776 15.4657 0.299324C14.867 0.598661 14.1686 0.89801 13.3704 0.997788C12.7717 0.399115 11.9735 0 10.9757 0C9.17965 0 7.78275 1.3969 7.78275 2.99337C7.78275 3.19292 7.78275 3.49221 7.88252 3.69177C5.1885 3.59199 2.79381 2.39469 1.19735 0.498894C0.89801 0.89801 0.79823 1.49668 0.79823 1.99558C0.79823 3.09314 1.3969 3.99115 2.19513 4.49005C1.69624 4.49005 1.19735 4.29047 0.698452 4.09091C0.698452 5.58759 1.79602 6.78494 3.2927 7.08427C2.99336 7.18405 2.69403 7.18403 2.39469 7.18403C2.19513 7.18403 1.99558 7.18405 1.79602 7.08427C2.19513 8.28162 3.39248 9.1796 4.78938 9.1796C3.69182 9.97783 2.29491 10.4768 0.79823 10.4768C0.498893 10.4768 0.299336 10.4768 0 10.4768C1.3969 11.3748 3.09315 11.8736 4.98894 11.8736C10.9757 11.8736 14.1686 7.28384 14.1686 3.29269C14.1686 3.19291 14.1686 2.99333 14.1686 2.89355C14.9668 2.69399 15.5655 2.09536 15.9646 1.49668Z" fill="white"/>
</mask>
<g mask="url(#mask0_428_43)">
<mask id="mask1_428_43" style="mask-type:luminance" maskUnits="userSpaceOnUse" x="-63" y="-891" width="1597" height="998">
<path d="M1533.8 -890.928H-62.6577V106.86H1533.8V-890.928Z" fill="white"/>
</mask>
<g mask="url(#mask1_428_43)">
<path d="M16.9647 -0.898438H-0.795898V13.0706H16.9647V-0.898438Z" fill="white"/>
</g>
</g>
</svg>
