<?xml version="1.0" encoding="UTF-8"?>
<svg width="25px" height="18px" viewBox="0 0 25 18" version="1.1" xmlns="http://www.w3.org/2000/svg" xmlns:xlink="http://www.w3.org/1999/xlink">
    <title>编组 16</title>
    <g id="页面-1" stroke="none" stroke-width="1" fill="none" fill-rule="evenodd">
        <g id="harwell-launchpad" transform="translate(-1337.000000, -41.000000)">
            <g id="编组-16" transform="translate(1340.000000, 42.000000)">
                <path d="M17.6093583,3.97631298 C17.6567046,4.07100559 17.6567046,4.26039081 17.6567046,4.49701139 C17.6567046,6.34323991 17.2306988,8.14198344 16.3313132,9.84617305 C15.3845812,11.6449166 14.1064252,13.1123747 12.4496928,14.2011178 C10.6508383,15.3845812 8.52064293,16 6.20117326,16 C3.92893894,16 1.89346388,15.3845812 0,14.2011178 C0.283966883,14.2484641 0.615418753,14.2484641 0.94673194,14.2484641 C2.84016808,14.2484641 4.49701139,13.6804194 5.96444173,12.4969559 C5.0650561,12.4969559 4.26039081,12.212989 3.59762575,11.6922629 C2.93486069,11.1715645 2.46150859,10.5087994 2.17754171,9.70413413 C2.41416229,9.75148044 2.69824012,9.75148044 2.88751439,9.75148044 C3.26631256,9.75148044 3.59762575,9.70413413 3.97628524,9.65678783 C3.07692734,9.46737487 2.27223432,8.99402277 1.65681557,8.23667605 C1.04142455,7.47924612 0.757346721,6.62720679 0.757346721,5.68047485 L0.757346721,5.58578224 C1.32539143,5.91709543 1.94081018,6.10650838 2.5562012,6.10650838 C2.03550279,5.72782115 1.56212296,5.25446905 1.23080977,4.6390503 C0.899385635,4.07100559 0.710111362,3.40824053 0.710111362,2.69826785 C0.710111362,1.98815649 0.899385635,1.32541917 1.27804513,0.662765057 C2.27223432,1.94081018 3.50293314,2.93488843 4.97036349,3.64497206 C6.43779383,4.35497247 7.95259822,4.78108921 9.60941379,4.87569861 C9.56206748,4.591704 9.51472118,4.26039081 9.51472118,3.97631298 C9.51472118,3.26631256 9.7041064,2.60357524 10.0354196,1.94081018 C10.3668715,1.27815607 10.8875699,0.804693026 11.5028777,0.473379838 C12.165615,0.189412956 12.82838,1.39921549e-13 13.585699,1.39921549e-13 C14.1537715,1.39921549e-13 14.7218162,0.0946926096 15.2425423,0.331340924 C15.7632407,0.568072448 16.1892743,0.85203933 16.5679338,1.27807286 C17.5146657,1.08877085 18.366816,0.757346721 19.124135,0.331340924 C18.8401681,1.27807286 18.2247493,2.03550279 17.3727377,2.55622894 C18.1300567,2.46153633 18.8875144,2.22488801 19.6922074,1.89346388 C19.0767887,2.69826785 18.4141623,3.40824053 17.6093583,3.97631298 Z" id="Fill-1" stroke="#ffffff"></path>
                <g id="Twitter"></g>
            </g>
        </g>
    </g>
</svg>