<?xml version="1.0" encoding="UTF-8"?>
<svg width="19px" height="14px" viewBox="0 0 19 14" version="1.1" xmlns="http://www.w3.org/2000/svg" xmlns:xlink="http://www.w3.org/1999/xlink">
    <title>shandianjiaji</title>
    <defs>
        <polygon id="path-1" points="0 0 18.0495569 0 18.0495569 14 0 14"></polygon>
    </defs>
    <g id="页面-1" stroke="none" stroke-width="1" fill="none" fill-rule="evenodd">
        <g id="launchpad-Marketplac-explore" transform="translate(-1213.000000, -1139.000000)">
            <g id="编组-6备份-4" transform="translate(1126.000000, 925.000000)">
                <g id="编组-6备份" transform="translate(87.000000, 211.000000)">
                    <g id="shandianjiaji" transform="translate(0.000000, 3.000000)">
                        <mask id="mask-2" fill="white">
                            <use xlink:href="#path-1"></use>
                        </mask>
                        <g id="Clip-2"></g>
                        <path d="M12.9833821,13.703921 L17.9320239,6.3021272 C18.1435826,6.00604822 18.0589849,5.62537156 17.762906,5.41389026 C17.6783083,5.32929258 17.5514505,5.28703246 17.4244894,5.28703246 L13.53328,5.28703246 L13.53328,0.634392264 C13.53328,0.296053165 13.237201,0 12.8987845,0 C12.687329,0 12.4758477,0.1268578 12.39125,0.296053165 L7.44260826,7.6978728 C7.23115278,7.99395178 7.3156472,8.37462844 7.61172618,8.58608392 C7.69634968,8.67070742 7.82328492,8.71304499 7.95016854,8.71304499 L11.8414554,8.71304499 L11.8414554,13.3656077 C11.8414554,13.703921 12.1375344,14 12.4758477,14 C12.687329,14 12.8987845,13.8731422 12.9833821,13.703921 Z" id="Fill-1" fill="#232120" mask="url(#mask-2)"></path>
                        <path d="M2.95918924,1.05743231 L7.1887894,1.05743231 C7.90780516,1.05743231 8.457703,1.60720107 8.457703,2.3263201 C8.457703,3.04531005 7.90780516,3.59520789 7.1887894,3.59520789 L2.95918924,3.59520789 C2.24017348,3.59520789 1.69027564,3.04531005 1.69027564,2.3263201 C1.69027564,1.60720107 2.24017348,1.05743231 2.95918924,1.05743231 Z M2.95918924,11.208483 L7.1887894,11.208483 C7.90780516,11.208483 8.457703,11.7583808 8.457703,12.4773966 C8.457703,13.1963866 7.90780516,13.7462844 7.1887894,13.7462844 L2.95918924,13.7462844 C2.24017348,13.7462844 1.69027564,13.1963866 1.69027564,12.4773966 C1.69027564,11.7583808 2.24017348,11.208483 2.95918924,11.208483 Z M1.26733886,6.13290602 L4.65101382,6.13290602 C5.37010702,6.13290602 5.91990161,6.68280387 5.91990161,7.40179381 C5.91990161,8.12091284 5.37010702,8.67070742 4.65101382,8.67070742 L1.26733886,8.67070742 C0.548348909,8.67070742 -0.00154893529,8.12091284 -0.00154893529,7.40179381 C-0.00154893529,6.68280387 0.548348909,6.13290602 1.26733886,6.13290602 Z" id="Fill-3" fill="#232120" mask="url(#mask-2)"></path>
                    </g>
                </g>
            </g>
        </g>
    </g>
</svg>