<?xml version="1.0" encoding="UTF-8"?>
<svg width="16px" height="16px" viewBox="0 0 16 16" version="1.1" xmlns="http://www.w3.org/2000/svg" xmlns:xlink="http://www.w3.org/1999/xlink">
    <title>xing</title>
    <g id="页面-1" stroke="none" stroke-width="1" fill="none" fill-rule="evenodd">
        <g id="launchpad-Marketplac-explore" transform="translate(-1304.000000, -859.000000)" fill="#000000">
            <g id="编组-24" transform="translate(1282.000000, 846.000000)">
                <g id="编组-23" transform="translate(22.000000, 12.000000)">
                    <g id="xing" transform="translate(0.000000, 1.000000)">
                        <path d="M7.95556641,4.68151042 C8.16295573,4.59264323 8.29632161,4.3851237 8.29632161,4.14811198 C8.29632161,3.91106771 8.16295573,3.70367839 7.95556641,3.6148112 L5.73336589,2.57773438 L4.69628906,0.355533854 C4.59264323,0.133398438 4.3851237,0 4.14811198,0 C3.91106771,0 3.70367839,0.133398438 3.6148112,0.34078776 L2.57773437,2.56295573 L0.355533854,3.6000651 C0.133398437,3.70367839 0,3.91106771 0,4.14811198 C0,4.3851237 0.133398437,4.59264323 0.34078776,4.68151042 L2.56295573,5.71848958 L3.6000651,7.94078776 C3.70367839,8.16295573 3.91106771,8.29632161 4.14811198,8.29632161 C4.3851237,8.29632161 4.59264323,8.16295573 4.68151042,7.95556641 L5.71848958,5.73336589 L7.95556641,4.68151042 Z M4.74078776,5.02216797 L4.14811198,6.29628906 L3.55556641,5.02216797 C3.49628906,4.88893229 3.39254557,4.80003255 3.27402344,4.74078776 L2.00003255,4.14811198 L3.27402344,3.55556641 C3.40742187,3.49628906 3.49628906,3.39254557 3.55556641,3.27402344 L4.14811198,2.00003255 L4.74078776,3.27402344 C4.80003255,3.40742188 4.90367839,3.49628906 5.02216797,3.55556641 L6.29628906,4.14811198 L5.02216797,4.74078776 C4.90367839,4.80003255 4.80003255,4.90367839 4.74078776,5.02216797 Z M11.5407227,11.9258789 L9.77783203,10.9629232 L8.8296224,9.20003255 C8.72587891,9.00738932 8.53336589,8.88886719 8.31106771,8.88886719 C8.08893229,8.88886719 7.89628906,9.00738932 7.79254557,9.20003255 L6.81484375,10.9629232 L5.05179036,11.9111328 C4.85927734,12.0147786 4.74078776,12.2074219 4.74078776,12.4296875 C4.74078776,12.6518229 4.85927734,12.8444661 5.05179036,12.948112 L6.81484375,13.925944 L7.76292318,15.6888346 C7.86666667,15.8814779 8.07405599,16 8.28144531,16 C8.48883464,16 8.69622396,15.8814779 8.8,15.6888346 L9.77783203,13.925944 L11.5407227,12.9777344 C11.7333659,12.8740885 11.851888,12.6814453 11.851888,12.4593099 C11.851888,12.2370443 11.7333659,12.0296549 11.5407227,11.9258789 Z M9.05188802,12.9629883 C8.94814453,13.0222331 8.85924479,13.096224 8.8148763,13.2 L8.29632161,14.1629557 L7.77779948,13.2 C7.71852214,13.096224 7.64440104,13.0073568 7.54075521,12.9629883 L6.57779948,12.4444336 L7.54075521,11.9258789 C7.64440104,11.8666341 7.73326823,11.7926432 7.77779948,11.6888672 L8.29632161,10.7259115 L8.8148763,11.6888672 C8.87412109,11.7926432 8.94814453,11.8815104 9.05188802,11.9258789 L10.0148437,12.4444336 L9.05188802,12.9629883 Z M15.6888346,5.11106771 L14.5037435,4.45924479 L13.8517904,3.27402344 C13.7481771,3.08151042 13.5555339,2.96298828 13.3333984,2.96298828 C13.1111003,2.96298828 12.918457,3.08151042 12.8148438,3.27402344 L12.1629232,4.45924479 L10.9777995,5.11106771 C10.7851563,5.2148112 10.6666667,5.40745443 10.6666667,5.62958984 C10.6666667,5.85188802 10.7851563,6.04440104 10.9777995,6.14814453 L12.1629232,6.79996745 L12.8148438,7.9851888 C12.918457,8.17783203 13.1111003,8.29632161 13.3333984,8.29632161 C13.5555339,8.29632161 13.7481771,8.17783203 13.8517904,7.9851888 L14.5037435,6.79996745 L15.6888346,6.14814453 C15.8814779,6.04440104 16,5.85188802 16,5.62958984 C16,5.40745443 15.8814779,5.2148112 15.6888346,5.11106771 Z M13.7925456,5.85188802 C13.6888997,5.91113281 13.6147786,5.9851237 13.5555339,6.08889974 L13.3333984,6.48893229 L13.1111003,6.08889974 C13.0518555,5.9851237 12.9777344,5.91113281 12.8740885,5.85188802 L12.474056,5.62958984 L12.8740885,5.40745443 C12.9777344,5.34820964 13.0518555,5.27408854 13.1111003,5.1703125 L13.3333984,4.77041016 L13.5555339,5.1703125 C13.6147786,5.27408854 13.6888997,5.34820964 13.7925456,5.40745443 L14.1925781,5.62958984 L13.7925456,5.85188802 Z" id="Fill-1"></path>
                        <path d="M1.4815103,11.2592122 C1.48138021,11.4710612 1.59440104,11.6666016 1.77776693,11.772526 C1.96113281,11.8784505 2.18710937,11.8784505 2.37044271,11.772526 C2.55380859,11.6666016 2.66673177,11.4710612 2.66673177,11.2592122 C2.66673177,11.0474935 2.55380859,10.8517904 2.37044271,10.7459961 C2.18710937,10.6400716 1.96113281,10.6400716 1.77776693,10.7459961 C1.59440104,10.8517904 1.48138021,11.0474935 1.4815103,11.2592122 Z" id="Fill-2"></path>
                        <path d="M11.1110677,1.18522135 C11.1110677,1.3969401 11.2239909,1.59264323 11.4073568,1.6984375 C11.5906901,1.80436198 11.8166667,1.80436198 12.0000326,1.6984375 C12.1833659,1.59264323 12.2962891,1.3969401 12.2962891,1.18522135 C12.2962891,0.973372396 12.1833659,0.777832031 12.0000326,0.671907552 C11.8166667,0.565983073 11.5906901,0.565983073 11.4073568,0.671907552 C11.2239909,0.777832031 11.1110677,0.973372396 11.1110677,1.18522135 Z" id="Fill-3"></path>
                        <path d="M14.074056,12.7407227 C14.074056,13.0680013 14.3394531,13.3333984 14.6666341,13.3333984 C14.9939128,13.3333984 15.2593099,13.0680013 15.2593099,12.7407227 C15.2593099,12.4134115 14.9939128,12.1481445 14.6666341,12.1481445 C14.3394531,12.1481445 14.074056,12.4134115 14.074056,12.7407227 Z" id="Fill-4"></path>
                    </g>
                </g>
            </g>
        </g>
    </g>
</svg>