<?xml version="1.0" encoding="UTF-8"?>
<svg width="18px" height="18px" viewBox="0 0 18 18" version="1.1" xmlns="http://www.w3.org/2000/svg" xmlns:xlink="http://www.w3.org/1999/xlink">
    <title>编组 7</title>
    <defs>
        <linearGradient x1="14.3105709%" y1="46.215438%" x2="82.290272%" y2="19.1193966%" id="linearGradient-1">
            <stop stop-color="#2253FF" offset="0%"></stop>
            <stop stop-color="#A6E5FF" offset="100%"></stop>
            <stop stop-color="#A6E5FF" offset="100%"></stop>
        </linearGradient>
    </defs>
    <g id="页面-1" stroke="none" stroke-width="1" fill="none" fill-rule="evenodd">
        <g id="launchpad-collection" transform="translate(-342.000000, -1478.000000)">
            <g id="编组-7" transform="translate(342.000000, 1478.000000)">
                <path d="M7.56409479,0.49312494 C8.12120474,-0.16437498 9.13528571,-0.16437498 9.69239566,0.49312494 L10.3636612,1.28546374 C10.7052911,1.68865542 11.2453858,1.86415656 11.7587722,1.73875975 L12.7675533,1.49232454 C13.6047175,1.28782774 14.4251454,1.8839054 14.489371,2.74326615 L14.5667067,3.77886723 C14.6061068,4.30583787 14.9399265,4.7653054 15.4289057,4.96559022 L16.3899186,5.35919339 C17.1874038,5.68578855 17.5007912,6.6502882 17.0475859,7.38326888 L16.501494,8.26652769 C16.2236015,8.71603711 16.2236015,9.28395592 16.501494,9.73346534 L17.0475859,10.6167241 C17.5007912,11.3497048 17.1874038,12.3142045 16.3899186,12.6407717 L15.4289057,13.0344237 C14.9399265,13.2347016 14.6061068,13.694183 14.5667067,14.2210979 L14.489371,15.2567269 C14.4251454,16.1160667 13.6047175,16.7121583 12.7675533,16.5076964 L11.7587722,16.2612542 C11.2453858,16.1358016 10.7052911,16.3113237 10.3636612,16.7145293 L9.69239566,17.5068541 C9.13528571,18.164382 8.12120474,18.164382 7.56409479,17.5068541 L6.89282926,16.7145293 C6.55119931,16.3113237 6.01110461,16.1358016 5.49771828,16.2612542 L4.48892319,16.5076964 C3.65177989,16.7121583 2.83134501,16.1160667 2.76714034,15.2567269 L2.68977674,14.2210979 C2.65040457,13.694183 2.3165849,13.2347016 1.82756384,13.0344237 L0.866564872,12.6407717 C0.0691005782,12.3142045 -0.24427987,11.3497048 0.208904562,10.6167241 L0.75501736,9.73346534 C1.03291683,9.28395592 1.03291683,8.71603711 0.75501736,8.26652769 L0.208904562,7.38326888 C-0.24427987,6.6502882 0.0691005782,5.68578855 0.866564872,5.35919339 L1.82756384,4.96559022 C2.3165849,4.7653054 2.65040457,4.30583787 2.68977674,3.77886723 L2.76714034,2.74326615 C2.83134501,1.8839054 3.65177989,1.28782774 4.48892319,1.49232454 L5.49771828,1.73875975 C6.01110461,1.86415656 6.55119931,1.68865542 6.89282926,1.28546374 L7.56409479,0.49312494 Z" id="路径" fill="url(#linearGradient-1)"></path>
                <g id="dagou1" transform="translate(4.881424, 6.276117)" fill="#FFFFFF">
                    <path d="M7.78246994,0.98519325 L3.42968612,5.40965209 C3.3268467,5.51407773 3.18481851,5.5787703 3.02797012,5.5787703 C2.87112173,5.5787703 2.72915574,5.51407773 2.62625412,5.40965209 L0.166381213,2.90866208 C0.0636039966,2.80471853 0,2.66038878 0,2.50092781 C0,2.18206806 0.254338231,1.92402867 0.56749072,1.92402867 C0.724339108,1.92402867 0.866429504,1.98865904 0.969268924,2.09314688 L3.02797012,4.18531404 L6.97964444,0.168573918 C7.08249941,0.0646303691 7.22451205,0 7.38129823,0 C7.69445072,0 7.94891336,0.258537028 7.94891336,0.576852481 C7.94891336,0.736313455 7.88532491,0.880705413 7.78246994,0.98519325 Z" id="Fill-1"></path>
                </g>
            </g>
        </g>
    </g>
</svg>