<?xml version="1.0" encoding="UTF-8"?>
<svg width="310px" height="289px" viewBox="0 0 310 289" version="1.1" xmlns="http://www.w3.org/2000/svg" xmlns:xlink="http://www.w3.org/1999/xlink">
    <title>编组</title>
    <defs>
        <polygon id="path-1" points="0 0 310 0 310 289 0 289"></polygon>
    </defs>
    <g id="页面-1" stroke="none" stroke-width="1" fill="none" fill-rule="evenodd">
        <g id="harwell-launchpad" transform="translate(69.000000, -895.000000)">
            <g id="编组" transform="translate(86.000000, 1039.500000) scale(-1, 1) translate(-86.000000, -1039.500000) translate(-69.000000, 895.000000)">
                <mask id="mask-2" fill="white">
                    <use xlink:href="#path-1"></use>
                </mask>
                <g id="Clip-2"></g>
                <path d="M167.95899,32.7027638 C169.021732,31.5640647 170.936101,29.7364151 172.440405,28.4273472 C173.315421,27.6645807 173.363132,27.5966823 173.573622,26.9024371 C175.739957,19.7385368 174.996225,8.36556095 170.186132,3.23425114 C168.146404,1.05776598 166.498655,2.41947078 162.681141,6.10591587 C159.47327,9.20463522 158.587028,9.97425383 154.595197,13.1442976 C149.237206,17.398535 148.57424,18.148843 147.504326,20.9252009 C149.955368,22.7301138 150.243506,22.9353662 155.22698,25.3323653 C158.974642,27.135098 162.300388,28.8082632 164.755172,31.2656856 C167.506514,34.0196183 166.288788,34.4983329 167.95899,32.7027638 L167.95899,32.7027638 Z M74.8271842,74.5835957 C78.1276715,73.4934844 80.3439001,69.5133321 83.4045844,66.7488098 C87.3861246,63.1514423 88.1666537,61.8738319 87.3487041,60.2800891 C86.3034251,58.2356631 80.4832914,57.5629087 76.7203492,57.5644633 C72.8981579,57.5663348 65.1090828,57.7734559 63.411128,60.8939775 C60.8868041,65.5331799 67.8254986,76.8924515 74.8271842,74.5835957 L74.8271842,74.5835957 Z M53.9028932,88.8098602 C57.3352877,88.4669423 60.8752661,87.4260417 62.022516,86.4231393 C62.7559576,85.7790392 62.736,85.39532 61.9311476,84.6253899 C60.3407768,83.1054633 57.1029688,82.0169092 54.0697262,81.0052859 C49.3519379,85.6183256 46.0031158,85.3187007 47.6203047,85.7918091 C49.5845686,86.3667649 50.7798414,87.5661989 51.381064,89.0126209 L53.9028932,88.8098602 Z M2.98732623,89.5726267 C8.06902886,84.7150905 7.41167557,78.0202496 6.74465533,77.8044075 C6.53447691,77.7368206 5.52287631,78.7774098 4.90138432,79.6965294 C1.93892881,84.0912354 1.57033698,90.2774615 2.14536519,90.2774615 C2.20617348,90.2774615 2.58318493,89.9585261 2.98732623,89.5726267 L2.98732623,89.5726267 Z M70.8721502,91.4877965 C73.0110431,90.9281022 74.3924829,90.3039356 74.3924829,89.8981028 C74.3924829,87.9060021 64.8196977,84.5711958 64.6668973,84.7172707 C64.4885263,84.8882625 65.3607356,85.9571945 63.6518665,87.9617535 C70.6791229,91.9387912 67.5891258,92.3499189 70.8721502,91.4877965 L70.8721502,91.4877965 Z M24.263058,96.7225112 C25.0236295,96.1693576 26.3947787,94.7462951 26.9040092,93.9835286 C27.2810206,93.4132446 27.287881,93.386459 27.1584685,92.9557093 C26.5612998,90.9548878 23.7981084,87.8228422 19.8028474,84.6191607 C16.8803071,82.2701265 13.9275185,80.5234567 10.4205949,79.0723628 C8.48127793,78.2709752 8.74914628,78.1706849 8.96150756,79.278861 C9.58892446,82.5641451 8.24802354,86.778827 5.57651234,89.9074466 C4.6144939,91.036179 4.87581366,90.6197565 7.5560563,91.0601614 C14.4626315,92.1954345 19.249336,94.3183485 23.0378488,97.5391603 L24.263058,96.7225112 Z M59.8468263,97.9297317 C61.4693164,97.8362935 68.0104182,97.0869199 68.5701664,95.8510451 C69.315146,94.2068457 64.6703276,90.6331493 62.494326,89.5411692 L61.6835487,89.1350248 C58.4198583,90.2204642 56.400711,90.7549303 52.3624163,90.9620514 C49.4280262,91.1124868 51.193026,90.7736179 54.6572279,93.9156302 C59.6809288,98.4719842 56.6083947,98.1178537 59.8468263,97.9297317 L59.8468263,97.9297317 Z M53.7472863,101.848526 C57.2055633,101.119709 58.1055261,100.042679 53.6855425,95.796228 C51.9155533,94.0959658 51.2538343,93.705083 49.4598336,92.5791537 C42.0627381,97.4139533 39.7008815,94.3379705 42.6879721,97.3326621 C44.5006831,99.1500334 45.2812121,100.320813 45.9398128,101.912687 C48.4391897,102.117317 51.8865524,102.242524 53.7472863,101.848526 L53.7472863,101.848526 Z M65.8415889,108.344967 C67.6779995,108.107011 68.5982317,107.669409 68.9303386,106.873005 C69.974994,104.373536 65.6576048,100.065104 65.4542868,99.7019412 C65.3454556,99.5163108 65.3021102,99.5163108 63.7815909,99.7393165 C57.4890236,100.672452 59.0547593,99.4393801 58.4716233,101.167051 C58.0515783,102.412581 56.5613072,102.971341 56.5613072,103.106203 C56.5613072,103.160709 56.7680554,103.472481 57.016278,103.797957 C58.2605093,105.419419 58.9936391,106.7995 59.8368475,108.493222 L65.8415889,108.344967 Z M178.621335,71.1048947 C180.308063,70.8712994 183.007328,69.6877499 185.138737,68.2503603 C191.84636,63.724218 197.297278,55.469272 200.260669,45.3517929 C201.856029,39.9003018 202.51806,33.7059777 201.852599,30.3904819 C201.540138,28.8241477 200.498601,25.9696133 200.16244,25.7628036 C200.074814,25.7092324 199.282123,27.6471389 198.258673,29.1564759 C192.949017,36.9853441 185.060154,36.2253808 180.281245,44.6575477 C175.199855,53.6229348 178.18102,60.7703277 172.650895,69.1218264 C171.504581,70.8523003 171.186195,70.7859593 173.740455,71.1117468 C174.680957,71.2341508 177.735093,71.2272986 178.621335,71.1048947 L178.621335,71.1048947 Z M173.665614,73.1325018 C165.336749,71.5565122 170.050171,70.8096302 171.808623,67.3184708 C175.674159,59.644087 173.287979,47.4557078 181.499594,39.4935346 C186.484627,34.6596694 192.699547,33.3752068 196.591902,28.1090346 C198.908854,24.9741859 199.075375,21.5110579 200.474589,23.0063792 C201.126018,23.7049848 202.324409,25.9157306 202.8405,27.3761684 C207.771273,41.3261675 194.688134,72.7385044 175.698794,73.1430914 C174.724926,73.1627134 173.808436,73.1595988 173.665614,73.1325018 L173.665614,73.1325018 Z M182.671167,108.527171 C184.459867,99.5128848 184.388768,89.6673106 182.484065,82.1542632 L182.049675,80.4350019 C180.62832,80.4680167 179.122146,80.6087968 178.152955,80.2798947 C175.785173,79.4760154 177.290724,79.3137446 178.383091,79.1402611 C182.480323,78.492735 184.547805,77.7134611 187.752558,75.6079889 C198.978394,68.240705 205.522302,53.3871593 207.450704,40.2435312 C209.402183,26.9155185 206.619034,16.8970838 199.473591,11.5405881 C197.133563,9.78332861 196.949891,10.2199961 193.743267,13.4931332 C189.35166,17.9787857 187.626264,19.4635173 180.701602,24.7150508 C169.279621,33.3801902 162.785295,38.9382007 161.00751,54.3433427 C160.878721,55.4518302 160.861258,55.5197286 160.743072,55.2278902 C159.958489,53.3089828 159.785419,49.4207114 160.358888,46.765823 C161.174031,43.0301672 163.179769,38.7105232 165.627381,35.421813 C166.004704,34.9107065 165.758665,34.7590253 164.287104,33.3060626 C157.257041,26.3661023 146.740012,26.2848112 142.080226,16.9821125 C141.842917,16.5074468 141.625878,16.121236 141.595318,16.121236 C141.432227,16.121236 140.698474,17.4907273 140.440584,18.2771647 C139.548106,20.9902961 140.420003,26.1222289 142.304437,28.0716594 C142.957112,28.746594 141.74157,28.5665699 139.968463,26.4442789 C137.359007,23.3250032 132.908152,20.3792108 128.461662,18.8296954 C127.40578,18.4637295 124.914511,17.7894178 124.615459,17.7894178 C124.222232,17.7894178 128.973699,22.4124242 129.670344,25.6067619 C129.81909,26.2888602 130.315847,26.5956486 126.42817,25.0782137 C121.435341,23.1322092 118.278923,22.5348282 112.921867,22.5348282 C108.587327,22.5317136 105.88931,22.9285141 101.886877,24.1528649 C100.439639,24.5963844 100.36854,24.422901 103.471634,25.1258671 C107.443819,26.0244303 109.194787,26.7018566 112.006001,28.4345107 C112.915631,28.990779 114.805677,30.472396 114.721481,30.5574247 L107.504628,28.0716594 L106.265386,28.3525967 C94.315464,31.0763177 81.7340713,41.5192729 75.1764422,51.4215329 C74.4127523,52.5739363 73.0375493,54.9235934 73.0375493,55.0724715 C73.0375493,55.103306 74.4567214,55.1263541 76.1911611,55.1297802 L81.4216102,55.4044882 C84.5271991,51.9622281 87.4672023,48.9413738 90.3997214,46.5079339 C102.422925,36.5337265 128.141717,28.495557 142.874476,35.5479544 C147.982996,37.9919841 150.95699,41.687773 152.090519,47.0037788 C152.37242,48.3184531 152.480627,51.7329932 152.294149,53.2750336 C150.912709,64.6841389 143.073428,72.4700256 143.841483,79.4619997 C144.486987,85.300636 148.828387,89.4268632 156.873481,91.8543854 C163.40897,93.8231265 168.735777,94.3753458 173.665614,97.8786521 C183.749501,105.045044 181.331514,115.291468 182.671167,108.527171 L182.671167,108.527171 Z M57.294437,112.857405 C60.2983669,111.375165 55.6310962,105.791303 54.2156661,103.73691 C54.2053755,103.722895 53.7098658,103.788301 53.1120735,103.879248 L46.5887465,103.862118 C45.9569638,103.680536 47.0714708,104.477875 44.6572255,106.760879 L47.063363,110.324609 C47.7409857,111.51065 47.3181342,111.154028 48.9272153,111.761999 C51.5067344,112.73687 55.510727,113.71797 57.294437,112.857405 L57.294437,112.857405 Z M45.9840937,117.291355 C48.6506155,115.934945 44.725206,110.042737 42.8002336,107.591544 C37.1743747,108.938299 33.5835668,107.163909 33.7716047,107.625493 C36.8728279,115.246306 33.4741118,113.471605 38.0241317,115.528801 C40.3173841,116.565341 44.2116098,118.200819 45.9840937,117.291355 L45.9840937,117.291355 Z M17.9255861,123.305966 C19.3684579,122.411764 20.1340187,117.117249 20.7502095,114.735511 C21.2257615,112.896337 20.3526168,113.202814 19.0294906,111.185486 C18.6381346,110.585924 18.2012504,109.39272 18.3262972,109.266578 C18.5785737,109.013984 26.6632707,116.585897 31.4215979,116.915734 C32.8304794,117.013532 33.3054078,116.491213 33.387421,114.752018 C33.6506118,109.235121 27.894093,102.154692 29.585811,101.96034 C30.3307906,101.874689 31.3545529,103.41268 32.2030625,104.723928 C32.7494017,105.567363 32.6608398,105.526562 34.5752098,105.889413 C37.6926485,106.481188 43.9568386,106.539431 44.4258421,104.052108 C45.0760231,100.596767 35.8110215,94.2492043 35.8110215,93.4876837 C35.8110215,93.1727972 37.0328005,93.4876837 38.3362809,94.1420619 C40.9837806,95.4710634 49.5755253,91.6102005 49.5755253,89.4200111 C49.5755253,87.1410554 39.8159495,85.9347694 38.2754726,85.1480204 C39.5805122,84.4257438 42.8691497,84.9935361 43.8932238,84.7780055 C45.7798402,84.1581993 52.0727194,80.662368 52.3624163,79.7912133 C52.6786195,78.8487342 38.6917756,77.981317 26.4764801,85.3850418 L25.0710288,86.236263 L28.594168,90.5923479 L30.0236307,86.5277899 C30.3541784,86.5277899 31.768673,92.4402424 26.9482901,97.254797 C24.9381861,99.2621592 21.9002659,101.044958 19.7451575,101.478823 C16.8475641,102.063434 14.674681,100.49087 16.6327082,100.231424 C17.5660376,100.105594 21.004357,98.8376387 21.004357,98.6171247 C21.004357,98.1898011 15.2874415,95.0680337 14.5009875,95.0680337 C14.3039063,95.0680337 12.1824763,97.2790909 11.1502944,98.5563899 C3.2829481,108.307592 2.16501094,122.483711 4.05942328,122.858398 C4.89764228,123.024095 9.01701463,116.555685 9.14112592,115.768937 C9.14143776,115.768314 8.72295194,112.918451 9.00828318,111.429359 C10.0757027,105.85671 9.09279112,116.276928 14.7991041,121.98662 C16.1303381,123.319048 17.1862196,123.763502 17.9255861,123.305966 L17.9255861,123.305966 Z M52.0736549,124.899709 C55.5419107,123.866907 54.0603711,118.555573 52.7322555,115.921552 C52.0879994,114.64363 52.3122105,115.043234 50.0202055,114.298221 C48.3291111,113.748182 48.5888717,113.756591 48.7438549,114.890618 C49.2427948,118.54218 46.3283622,119.863083 43.1841055,119.342322 C42.3147027,119.198427 42.8975269,119.397139 44.1071443,123.519628 C46.6561033,124.320393 49.9728062,125.526367 52.0736549,124.895972 L52.0736549,124.899709 Z M40.7838928,128.090309 C43.6219252,126.781864 39.866779,118.44407 39.8602304,118.437218 L35.318942,116.419889 C35.0841284,116.428921 34.8555516,118.45684 32.6003434,118.925588 C31.64768,119.123988 32.3293566,118.838067 32.5323628,122.770877 C32.5660413,123.431173 32.610634,124.065618 32.63371,124.187088 C32.6714423,124.376144 38.3920998,129.165159 40.7838928,128.090309 L40.7838928,128.090309 Z M29.6029621,128.435407 C31.0346077,127.000509 30.2964885,121.662701 29.8296679,118.735597 C20.3887899,115.760527 24.4367515,111.431539 21.2017501,122.159481 C22.5719637,123.773157 25.0348557,126.354229 26.3676488,127.299511 C27.9770417,128.435407 29.1779277,128.858994 29.6029621,128.435407 L29.6029621,128.435407 Z M12.1279048,134.392087 C12.4032572,134.24975 12.704804,134.022384 12.7971079,133.883472 C13.8243003,132.325548 14.3541121,128.302725 14.613249,124.828385 C12.7849462,123.023783 11.6049534,121.924017 10.4580154,119.484659 C9.89639616,118.291454 10.1065746,118.403268 8.97055085,120.152741 C6.99069505,123.203496 6.19301493,124.11296 4.73486314,124.675458 C4.73486314,130.735231 9.12584589,135.910768 12.1279048,134.392087 L12.1279048,134.392087 Z M33.7775296,136.949177 C36.1172458,135.891458 36.4434278,129.435507 36.2525833,129.435507 L32.5323628,126.852254 C32.1909008,127.232547 32.0817577,132.57129 26.6938307,130.317251 C26.5338582,130.249353 26.5070401,130.269598 26.5612998,130.404771 C26.6189898,130.560813 26.88717,132.378184 27.0090984,133.453346 C27.121048,134.411709 30.669446,136.243408 31.2697331,136.528394 C32.6748725,137.192739 33.0883689,137.264063 33.7775296,136.949177 L33.7775296,136.949177 Z M23.7129768,138.240492 C24.1716897,138.002536 24.6194882,136.982815 24.7685465,135.843181 C25.1705049,132.745085 23.931263,129.430523 23.9231553,128.669003 L20.2241397,124.136631 C18.7940533,125.592709 18.6621461,125.60579 16.6492355,125.709195 L15.5462666,132.652581 C17.4986807,135.054875 21.6648286,139.293228 23.7129768,138.240492 L23.7129768,138.240492 Z M14.0937279,144.099062 C15.6962604,142.607789 15.7417886,136.384811 15.1015864,135.464134 C13.9664982,133.83177 14.8935908,136.788463 10.940116,136.775382 C8.23804474,136.76635 7.65303774,134.596717 8.8526763,138.243918 C10.2883758,142.606855 12.7490849,145.353313 14.0937279,144.099062 L14.0937279,144.099062 Z M39.7011933,173.8183 C40.7876349,173.07609 42.6436912,172.282177 46.4453012,170.940406 C49.0800156,170.010697 50.9301471,169.29901 50.9301471,169.213981 C50.9301471,169.000008 40.7907533,169.320189 37.8407712,164.000757 C37.4275867,163.255121 37.3879833,162.125143 37.8136414,161.399129 C40.2671782,157.215281 50.4879616,160.64446 57.3075342,160.253577 C59.5312468,160.124944 61.4861556,159.646852 62.1824886,159.060061 C63.512787,157.939738 64.387491,153.530393 64.9017109,150.642221 C65.5918071,146.759556 66.1677709,143.342836 69.9622086,143.342836 C75.8394085,143.342836 73.0749698,151.637337 74.8303026,155.869461 C75.2135508,156.792318 75.6516824,157.280065 76.2591417,157.462892 C79.2293931,158.354915 96.9121342,139.08891 100.070735,135.501198 C101.417873,133.970058 101.190855,134.528195 101.190855,133.171785 C101.190855,130.473293 100.040175,125.865548 98.2006464,121.211084 C93.845525,110.193173 84.5808351,97.8605874 74.3890527,92.8541732 C70.3654144,94.6541028 70.3348543,93.5073057 70.6887898,94.4946351 C71.7147349,97.3591362 68.122056,98.8173937 67.7490984,98.8173937 C67.0006886,98.8173937 71.2111175,101.92826 71.2111175,106.157892 C71.2111175,109.124552 69.3544375,110.141159 65.8278681,110.486568 C60.0457786,111.053738 60.4789208,109.458126 60.4000259,111.439949 C60.2911946,114.167096 58.3266189,115.37307 55.6407632,115.375874 C54.0082943,115.377431 55.2434823,115.233225 55.9432455,119.315536 C57.5096048,128.447243 50.1935871,127.940185 44.416487,125.726948 C44.0744013,125.595823 44.431767,129.32743 41.4627629,130.398854 C40.131529,130.879437 38.2233958,130.265549 38.1666414,130.364593 C38.0556272,130.56019 37.8130177,138.970866 33.1161225,138.948753 C31.5815705,138.941901 29.7011909,138.08445 27.1618987,136.232818 C26.6448723,135.856885 26.8703307,140.237576 23.2991686,140.637802 C20.5811936,140.942099 17.7266338,138.080713 17.6639545,138.080713 C17.4715508,138.080713 17.7175905,143.342836 15.6516676,145.566663 C14.0937279,147.242943 12.8392059,144.812617 16.0791967,150.370316 C20.8160072,158.496629 27.7849499,166.078821 35.7059323,171.780415 C36.5644207,172.397729 39.1373913,174.102975 39.2328135,174.113318 C39.2527711,174.116679 39.4629495,173.983997 39.7011933,173.8183 L39.7011933,173.8183 Z M71.4387588,178.903514 C75.0398574,177.987197 75.2908865,177.396357 78.82494,177.401963 C81.1166332,177.405389 81.0311898,177.391685 84.5652433,178.374965 C95.1221874,181.313594 95.8244452,173.0954 95.7536581,173.02501 C95.6953445,172.968013 91.8934227,173.221853 88.0007562,173.550444 C80.909885,174.147513 76.6395833,175.408617 71.0311873,178.568382 C69.6329083,179.35482 69.646941,179.365409 71.4387588,178.903514 L71.4387588,178.903514 Z M20.5500099,191.255098 C23.2165317,189.731434 23.9116173,185.067315 24.2839511,185.192522 C24.6765545,185.324269 24.5992188,187.914997 24.4298911,189.18669 C30.7149743,189.938243 27.0667883,190.508839 29.6500495,187.016745 C31.8821818,183.996514 34.7881947,185.066692 30.15928,183.341824 C26.4627592,181.964546 19.4249004,182.149554 17.2367372,186.566685 C15.5381588,189.995241 18.1201727,192.637359 20.5500099,191.255098 L20.5500099,191.255098 Z M42.5863131,202.8598 C40.8135174,200.214879 36.3579843,194.909151 34.8131417,195.201301 C32.4307038,195.652607 29.8490018,194.70421 28.8018517,192.478514 C28.5096601,191.861823 28.4722396,191.827562 27.9561486,191.681799 L23.597597,190.919032 C22.8903497,191.949343 22.2245768,192.66103 20.8281688,193.346554 C15.171438,196.122912 17.126035,203.7213 21.1272209,202.965074 C25.872451,202.068068 25.9345066,195.82391 26.2148485,195.533941 C26.5818811,195.15427 26.9417415,197.587088 26.9482901,198.879337 C41.1970774,199.676052 45.3042881,206.913769 42.5863131,202.8598 L42.5863131,202.8598 Z M60.3021089,218.071837 C64.3946633,216.690822 66.9043309,213.373146 69.3747069,208.772253 C71.4627703,204.883981 72.3593029,203.912536 76.4936434,201.636384 C76.6049694,193.623443 77.0618112,187.700089 79.9790503,181.531616 C80.6376509,180.13752 80.7464822,180.158699 78.5539533,181.263137 C64.8362251,188.177246 60.3654119,202.393544 52.1110754,196.526565 C47.2414222,193.065617 42.1263529,185.887701 36.1577847,185.887701 C32.1812339,185.887701 28.7560116,190.067499 31.2931209,192.468236 C32.5591808,193.668916 35.4614517,193.45868 37.8442015,191.987341 C38.6562261,191.484956 40.4034512,190.648062 40.4817224,190.725304 C40.6005324,190.844282 38.5134046,193.380504 37.9458605,193.80409 C36.8709569,194.608592 37.6327757,193.64213 41.5887452,198.381312 C43.7132936,200.926877 44.7551424,202.554569 48.6796164,209.477711 C51.1300348,213.798912 53.2209048,217.324021 56.7711738,218.231616 C57.6031561,218.444966 59.442685,218.359938 60.3021089,218.071837 L60.3021089,218.071837 Z M97.7088788,235.892043 C94.0631875,226.783384 95.2026414,215.721245 100.830683,208.175806 C106.652064,200.371543 114.500388,197.552204 115.389749,186.596585 C115.765825,181.961432 114.172959,175.784549 114.921369,170.133101 C115.180818,168.17308 115.382888,168.451215 113.825572,169.06448 C109.141774,170.910194 104.60797,171.6985 98.1364079,172.716042 C97.5417339,175.296491 97.3299963,176.658507 95.5971158,178.48678 C90.9781799,183.361135 82.914376,180.024459 82.7353813,180.233138 C82.6443247,180.3381 81.7917612,182.284105 81.3982224,183.283892 C77.9970116,191.912902 77.9305903,203.880145 80.5394221,213.589922 C82.701391,221.638993 85.9261018,227.52466 90.8621763,232.447291 C93.1501275,234.725624 95.0027536,236.061477 97.175325,236.986826 C98.5601949,237.578601 98.4541702,237.748658 97.7088788,235.892043 L97.7088788,235.892043 Z M302.067168,258.949143 C306.288823,250.467454 308.702756,238.391512 307.979605,227.680701 C307.352188,218.340004 304.968191,211.302246 299.778905,203.477115 C294.883681,196.099553 289.000868,190.268391 281.227697,185.087248 C273.241228,179.771242 265.233555,176.625492 255.573144,175.008079 C248.294858,173.790891 239.28837,172.951506 233.264918,174.794728 L230.314936,175.629131 C228.800965,176.194743 228.723006,176.130582 229.751758,175.157579 C232.018816,173.013798 236.519253,170.948815 239.697189,170.257996 C240.026489,170.186983 240.297788,170.092299 240.297788,170.048072 C240.297788,169.848426 237.609749,168.959829 235.813877,168.563029 C228.125837,166.860898 218.852416,168.003957 209.313309,171.831806 C200.630508,175.313621 192.239899,181.385541 185.851285,188.803593 C182.697985,192.468236 180.403486,195.777503 175.698794,203.436002 C169.747377,213.130518 165.151517,220.599026 155.963851,221.428134 C154.340426,225.880772 152.968965,228.865497 150.105362,232.687738 C149.256228,233.82052 149.269949,233.738917 149.52472,235.91914 C150.417511,243.570164 155.719371,248.817026 163.916641,252.053722 C170.301824,254.575928 178.026973,255.16272 185.970407,253.728133 C198.419581,251.481881 205.661069,245.359193 216.261671,236.040921 C223.794104,229.420207 227.894766,226.137726 232.320986,223.198786 C241.54732,217.068623 250.688834,213.616708 260.006224,212.752405 C261.836086,212.582971 266.156282,212.613805 267.965563,212.807222 C275.437187,213.607364 281.852619,216.034886 287.20219,220.086363 C294.055753,225.273112 299.32331,234.027018 301.190905,243.326602 C303.718035,255.938256 299.353559,264.396897 302.067168,258.949143 L302.067168,258.949143 Z M114.60579,62.6123044 C115.848773,62.0211526 115.779234,59.8253569 114.02546,59.8253569 C111.626807,59.8253569 112.491844,63.6018141 114.60579,62.6123044 L114.60579,62.6123044 Z M124.096873,62.6496797 C127.031575,59.5954992 128.893245,54.2461671 126.744685,50.9259994 C123.672774,46.1793431 117.987355,48.6448635 114.731148,53.7088979 C116.682627,52.6661285 117.378648,52.7256175 119.283663,53.4419764 C115.931722,54.5479722 116.176203,58.3104136 118.94033,58.299824 C120.120011,58.2951521 120.589638,57.7908977 121.408211,57.0387209 C121.692607,58.543386 121.319961,60.4062305 120.542862,62.0195953 C119.79913,63.5641274 119.985297,62.7714607 123.206889,63.4941492 C123.24088,63.5012124 123.641591,63.1243453 124.096873,62.6496797 L124.096873,62.6496797 Z M129.948191,64.7177766 C133.582344,62.9038313 136.554155,59.3192338 137.650263,55.7502093 C138.038813,54.4856801 138.10461,51.8401356 137.664296,50.61049 C135.570931,44.7687391 127.69423,44.0243488 122.620323,46.4272656 C120.980994,47.2037363 124.00644,46.0220557 126.836053,48.5828829 C130.930167,52.2892615 129.406841,58.7140663 125.865303,63.2436346 C124.879897,64.5034919 125.46927,63.6824823 128.149824,64.9585355 C128.753542,65.2497509 128.940644,65.2267029 129.948191,64.7177766 L129.948191,64.7177766 Z M133.153568,70.210069 C130.778302,68.9670306 130.684439,68.1151865 125.99378,66.5856045 C114.651318,62.886701 105.362928,67.8105782 105.362928,67.1723959 C105.362928,66.6024234 109.01891,64.7984449 110.18986,64.270208 C110.221667,61.5807476 110.135288,60.3193331 111.031821,57.6426426 C116.08577,42.5505182 132.576045,39.7134256 138.234335,48.0303522 C140.664796,51.600934 140.135296,56.6384943 136.873164,61.0085949 C135.607416,62.7069884 133.401166,64.7143506 131.652382,65.7655293 C130.58621,66.4068263 130.620512,66.2155896 131.408525,66.8911472 C132.674897,67.9772095 134.515673,70.9295425 133.153568,70.210069 L133.153568,70.210069 Z M135.013054,118.111742 C131.043987,113.192225 129.378776,111.050623 123.21718,110.582498 C116.981991,110.108456 113.81154,112.558091 113.81154,111.466734 C113.81154,111.144996 114.46328,110.595268 115.464278,110.083227 C117.53519,109.019279 120.162109,108.530597 123.24431,108.635871 C127.179074,108.771668 129.887694,109.737818 132.039061,111.779441 C135.307429,114.877225 136.546359,120.052763 135.013054,118.111742 L135.013054,118.111742 Z M86.5981114,279.982686 C87.3115954,279.894854 89.2796014,279.593361 90.974126,279.3118 C96.9614045,278.314504 98.5096773,278.159086 105.519159,277.853854 C112.067121,277.566376 121.081717,276.821052 125.223854,275.043236 C126.397922,274.538047 128.923805,272.222339 129.897985,270.760967 C131.818903,267.869057 133.119265,262.956393 133.675583,256.501999 C134.409337,248.004737 136.841981,244.988243 143.736394,237.336596 C150.847223,229.44419 154.267456,223.631093 155.542559,213.278462 C155.753361,211.562626 155.718747,206.189312 155.484869,204.371941 C154.551851,197.157584 152.480627,191.247934 147.701719,182.179142 C143.868613,174.915263 141.54979,172.746565 139.992786,164.902123 C137.377405,151.721743 142.694545,140.008652 142.694545,129.53424 C142.694545,125.350081 141.805809,121.013929 140.016486,116.48405 C138.492848,112.622252 141.117895,116.114035 142.379278,118.918735 C144.648207,123.964082 145.48549,130.642104 144.195419,136.961947 C144.140535,137.243196 144.147708,137.246622 144.629808,137.246622 C148.225918,137.246622 155.423749,134.717875 158.319783,132.24924 C159.779806,131.004644 160.431546,129.129341 160.773632,127.167452 C164.146465,131.372167 162.610666,138.080713 163.04412,138.080713 C163.136112,138.080713 164.789162,136.186099 165.410342,135.365089 C168.067821,131.849948 170.24008,127.336887 170.943274,123.861612 C172.103621,118.116413 170.053602,115.206128 171.587842,116.267273 C176.160626,119.429219 176.137862,126.208466 176.279748,126.208466 C176.612166,126.208466 181.177466,119.255424 179.972526,111.836438 C179.035143,106.056356 175.291847,100.973323 169.955061,98.2415035 C163.914146,95.1511936 155.648272,95.0621159 148.438279,90.4369292 C144.117148,87.6664891 141.653008,83.3306491 141.653008,78.5067507 C141.653008,71.1357293 148.864249,63.8120498 150.260657,53.1971685 C151.141909,46.5001473 148.407719,40.5288289 142.206208,37.4762057 C128.79065,30.8729341 104.146139,37.764618 91.4930234,48.2882414 C89.4872851,49.9564232 84.0903149,55.4857794 84.0903149,55.8694986 C84.0903149,56.1090116 87.8691608,56.7752254 89.2119327,59.5070444 C91.346148,63.8497365 85.139336,67.3393387 81.7718036,71.3590464 C78.2854613,75.5226488 76.3031108,76.7940301 73.0855722,76.9192371 C68.8785736,77.0805736 65.950732,74.4098008 63.3503197,70.9930804 C61.4596495,73.5523504 60.1973316,75.7596701 59.3712742,79.184177 C58.8910446,81.1762776 59.2808414,80.2562237 62.1615955,82.0997577 C63.422666,82.9067515 63.9724354,82.5544898 65.8244379,82.9920917 C66.9610853,83.2605705 66.7325084,83.4891824 66.8191992,82.0589564 C66.9077611,80.5944696 67.7490984,77.4652272 68.455722,77.4652272 C68.6131999,77.4652272 68.4451196,81.7334803 68.7946893,83.0830381 L69.0220188,83.9613564 C71.8765786,85.0742043 77.7179171,87.4777441 76.5332468,90.6948184 C76.2709915,91.4086856 76.1450092,91.4139804 76.7611999,91.7354076 C78.1731998,92.4707655 81.2893911,94.7220012 83.0855747,96.2989251 C84.9774923,97.9646152 88.6144522,98.190424 91.1740138,98.190424 C95.7630133,98.190424 101.530446,96.5932551 104.999638,94.3625759 C106.591256,93.3360025 109.222852,91.1149785 109.222852,90.7929284 C109.222852,90.5867417 106.845092,87.5238403 107.860746,83.8423785 C108.359374,82.0352854 108.145765,83.1649522 108.638469,85.0907117 C110.070738,90.6895236 113.088077,91.8385009 118.530263,92.0166563 C120.199529,92.0711618 120.379459,92.0945214 120.379459,92.2605298 C120.379459,93.0964894 115.927045,94.6790196 111.49334,92.4508321 C110.683498,92.0437533 110.965088,91.9303818 109.554647,93.1865015 C103.327254,98.7320536 95.2328897,101.224671 86.8525708,99.9364709 C92.8704093,106.189038 98.2564653,115.232602 100.868104,123.044963 C101.826068,125.902923 102.860745,130.310399 102.860745,131.524471 C102.860745,131.744051 102.905338,131.951484 102.956479,131.981695 C103.115516,132.079805 106.340227,127.967594 107.728839,125.895759 C110.218237,122.185643 112.907211,115.463082 118.160112,114.162424 C118.397109,114.104181 118.32944,114.192947 117.803682,114.630549 C115.951368,116.173524 113.278609,120.460464 111.78179,123.238379 C110.433717,125.737226 109.616079,127.005181 107.739441,129.486586 C103.024459,135.726384 82.7026383,158.17053 77.3789499,159.613215 C76.2790993,159.911594 74.84683,159.55466 74.0900006,158.798746 C72.2445467,156.957081 72.1185644,150.816328 71.5204602,148.184176 C71.0218322,145.963463 70.0164683,145.231532 68.8832511,146.25499 C68.0447203,147.010905 67.5049297,148.594681 66.9348909,151.984927 C66.1094573,156.89728 65.4748681,158.470155 63.6250485,160.22648 C61.2806548,162.452176 58.6181869,162.501387 54.6840459,162.501387 C52.033116,162.501387 51.4898952,162.471175 49.6232364,162.216712 C47.6199928,161.94543 39.1158745,160.82573 39.8879839,162.847108 C40.4312047,164.267679 43.2146655,165.834324 46.2896944,166.451327 C49.8371569,167.159588 53.6830478,167.26455 59.5349889,166.810441 C63.700825,166.484342 62.9262209,168.049119 56.174317,168.861719 C55.8275538,168.902521 55.1115751,169.17318 54.1950849,169.607355 C51.6389535,170.814576 49.6023433,171.699435 47.5080432,172.512969 C44.7055603,173.600278 40.0878717,175.32826 40.0878717,176.262329 C40.0878717,176.658819 41.6938344,177.178023 43.4925127,177.361162 C48.5074821,177.868842 55.6420105,175.456581 58.8046656,175.47963 C56.6663964,177.296378 49.9812258,179.324608 46.6904055,179.324608 C45.6329648,179.324608 47.8629142,180.423129 50.2306957,180.68351 C53.1984525,181.00992 59.7567053,179.673444 60.6688298,179.761898 C61.7212811,179.864057 57.5451543,181.729082 54.5892474,182.321168 C53.3540593,182.568779 53.5208924,182.594942 54.5278154,182.769048 C55.9875264,183.022577 58.5536365,182.666578 60.725896,181.910975 C61.8697157,181.510437 63.5804558,180.619349 65.3969088,179.470371 C74.3834396,173.791514 78.2708049,172.199329 90.3492038,171.255292 C104.337919,170.162378 114.193229,168.305451 125.620823,160.705195 C126.527334,160.10065 127.291024,159.636574 127.321896,159.666786 C127.40578,159.751815 126.445633,160.856876 125.529143,161.724916 C123.845844,163.3252 121.425674,165.119211 119.096872,166.488703 C117.436338,167.467934 117.11764,167.775657 116.493341,170.234637 C115.609282,173.716141 117.296323,183.077706 116.842599,187.454035 C115.57155,199.715919 105.855008,202.234699 100.488598,211.61028 C98.514043,215.059704 97.0063091,220.666613 97.1622278,225.307062 C97.6137684,238.750938 104.740813,242.757253 109.297381,251.867157 C111.320894,255.912405 112.653375,260.180969 109.808794,263.150433 C107.681128,265.366785 104.229711,266.404882 100.030508,266.086258 C93.759146,265.607855 91.6112098,263.191545 84.8739623,262.994079 C83.0381754,262.940197 82.6302921,262.959819 81.4830422,263.156973 C78.2689339,263.705766 75.5091727,265.181154 74.7077505,266.774586 C74.043225,268.099538 74.6609749,269.309562 74.7685588,269.309562 C74.8028609,269.309562 75.1187522,269.049492 75.4714404,268.730245 C80.2026377,264.445173 92.3817601,266.509844 91.8899925,266.974232 C91.4347098,267.40467 79.1392721,267.290675 76.1431382,271.116966 C74.1052806,273.719529 76.2794111,275.973879 79.1576705,276.314617 C79.8614876,275.174672 80.2809089,274.510327 81.4250404,273.636369 C83.8555013,271.781623 86.7100611,270.84257 90.7698725,270.564747 C92.7285233,270.429262 96.0174726,270.412131 96.2385653,270.534535 C96.782098,270.834783 92.8956682,271.855127 91.7272133,272.073461 C90.9404475,272.219225 89.7794768,272.439738 89.1473824,272.558716 C85.4917123,273.246732 82.0833292,275.21267 81.1609141,277.161789 C80.6716412,278.196149 80.7636333,278.572082 81.71349,279.389665 C82.8470191,280.360487 84.4916496,280.24151 86.5981114,279.982686 L86.5981114,279.982686 Z M213.549621,286.59717 C223.767286,286.034673 234.201678,283.342721 243.268039,278.938671 C259.816315,270.899255 260.771162,260.99793 272.799667,252.964744 C275.138135,251.40277 277.415796,250.358443 279.796051,249.754521 C281.312204,249.370802 284.537851,249.311002 286.017831,249.768849 C290.307155,251.095047 292.092736,254.105312 292.48721,258.284487 C292.544588,258.894638 292.412681,260.783334 292.270172,261.343339 C292.182857,261.682208 295.253832,258.936374 295.779902,254.528275 C295.93582,253.215781 295.786762,251.731672 295.409751,250.849928 C295.087311,250.094636 298.755143,251.538567 299.64575,257.772758 C299.717161,258.274832 299.792002,258.664469 299.812895,258.644224 C299.903952,258.556392 300.169013,255.664171 300.243543,253.948336 C300.739052,242.770334 296.622175,231.684524 289.205121,224.215393 C284.123731,219.099656 277.415796,215.851747 269.653227,214.746063 C257.922215,213.074455 245.484579,216.437604 233.363147,224.564852 C214.292729,237.356218 204.238779,255.654827 178.824965,256.260306 C170.790162,256.451854 163.374668,254.715462 156.79178,250.331035 C148.172281,244.589574 147.784979,236.110065 147.565758,235.922566 C147.538316,235.894846 145.135609,238.573094 144.544677,239.285715 C144.174526,239.736087 144.154568,239.79433 144.154568,240.512869 C144.154568,252.139685 153.34317,264.491892 162.141351,271.568272 C176.365191,283.007589 194.703102,287.630284 213.549621,286.59717 L213.549621,286.59717 Z M204.843432,288.926271 C187.274823,288.152603 169.344483,281.971984 156.628689,269.520732 C149.07318,262.122925 142.939026,252.353035 142.121076,242.936965 C142.034697,241.944341 142.069623,241.990126 141.669224,242.455136 C137.490291,247.310492 136.033074,250.732819 135.552533,256.304845 C134.907653,263.841875 133.438275,269.109916 131.092634,272.313597 C129.914824,273.917618 127.738511,275.813166 126.113214,276.647257 C121.78304,278.870772 111.902783,279.639145 104.632605,279.935656 C99.0591348,280.162399 96.8360458,280.389765 91.4390756,281.288017 C86.3205761,282.139861 80.8019893,283.648886 78.926599,279.036469 L78.6824303,278.433171 C74.4585924,277.606866 72.2273957,274.951355 73.6752568,270.879945 C72.6567958,268.826798 71.9174293,267.156436 74.2290801,264.74729 C77.1341575,261.719272 82.6296684,260.858707 87.0568243,261.448302 C92.0159748,262.108598 95.2578366,264.041209 100.107844,264.434895 C103.808419,264.734832 108.350019,263.856202 109.561507,260.593343 C110.999702,256.720956 106.369228,249.709048 103.50313,245.723913 L99.8870632,240.340008 C99.7370694,240.209818 95.0928746,238.526686 92.3521355,236.457966 C83.048466,229.436092 77.806479,216.459095 76.7409305,204.503688 C76.7007035,204.06048 76.6289809,203.697629 76.5815816,203.697629 C76.3268104,203.697629 74.4392585,205.093906 73.7067524,205.826461 C70.3423384,209.182446 69.3806318,216.077868 62.3895487,219.360971 C59.8907954,220.533931 57.2033805,220.68935 54.7252085,219.533521 C47.9327658,216.365345 49.3425827,209.478022 40.0342357,204.297501 C36.3982113,202.27332 31.4493514,200.883584 27.9059428,200.88701 C26.4624474,200.88701 26.2454085,200.951171 25.9335711,201.446082 C22.8750697,206.300815 16.3763778,205.744235 15.5836871,199.510355 C15.2406659,196.810928 16.1986305,195.247397 17.7727858,193.506334 C10.8662105,190.355912 15.4502206,178.233562 28.9814701,180.951677 C34.2081771,182.001921 34.41742,184.047282 35.6547909,183.860094 C37.0764577,183.644875 39.4741757,184.32635 41.1262903,185.118394 C47.4275891,188.140183 52.4921407,195.886202 55.9840962,195.886202 C57.7525262,195.886202 59.1105782,194.920052 64.0185873,190.156266 C68.6359641,185.674039 73.4706915,181.673331 78.0952404,179.67687 C79.4364532,179.097553 75.9142495,179.788061 74.8094095,180.107619 C71.6430123,181.023001 68.0238272,181.720673 66.4256604,181.720673 C64.9244751,181.720673 63.5056148,183.656399 58.9718105,184.606665 C56.2619433,185.174457 52.2189711,185.016858 50.6416974,183.233747 C49.652861,182.115293 46.9857155,183.020397 44.721464,180.741753 L43.8863634,179.385031 C41.1290969,179.043359 38.1133172,178.403308 38.1058331,176.299705 C38.1058331,175.936853 38.0684126,175.906642 36.7649321,175.075665 C26.7702309,168.723431 17.3405791,158.076781 12.029676,147.282498 C10.7776487,144.737867 10.4408643,145.925777 8.53678499,142.928905 C6.0919796,139.082058 5.95726584,134.184343 5.95383563,134.175311 C5.78138953,133.696596 3.27639952,131.631302 2.52830154,125.394308 C2.24016376,122.990768 1.28656492,124.126353 1.28656492,119.698944 C1.28656492,113.131179 4.18883581,104.441745 8.17318256,99.078709 L12.3755037,94.3460685 C10.777025,93.7275082 6.23636033,92.7077869 3.69270248,92.5592203 C1.59809051,92.4368163 0.362590642,92.506272 0.0370323729,90.2435123 C-0.0752290991,89.4605009 0.0778830753,87.4936286 0.359472268,86.110433 C1.02150312,82.8357386 2.83078384,79.1471132 4.67748506,77.3026449 C5.65478354,76.326528 6.19083207,76.0720649 7.36926569,76.0244114 C11.763055,75.8487478 19.6282184,81.4170365 22.9630078,84.3207817 C23.9138001,85.1483319 23.7900007,85.0390093 24.6369511,84.3986468 C28.2283827,81.6696309 34.0528821,79.3093841 39.8262401,78.2488615 C43.186912,77.628121 44.3790665,77.5231588 47.8551182,77.5265849 C50.4006471,77.5315682 53.3708986,77.5044712 54.1950849,78.7705576 C54.5873763,79.3732335 55.6912808,79.2333878 57.192778,79.8049176 C57.7232135,80.0070554 57.9430588,73.9229882 62.5152191,69.4578922 C60.6769375,65.8203464 59.834041,61.4642615 62.6546105,58.6623638 C65.0601243,56.2728398 70.3270584,55.7293414 70.4037704,55.512565 C70.600228,54.9805907 72.0565087,52.2951792 72.7631323,51.1704958 C79.3357297,40.6951487 90.9067691,31.2828159 101.863177,27.4169697 C103.529324,26.8295554 103.263951,26.9575656 101.245427,26.5455035 C98.6244335,26.0172667 98.0752878,25.7836714 97.7148037,25.0476905 C95.9547933,21.4577982 114.532196,17.6006728 125.203272,22.4136701 C125.760214,22.6647071 126.217991,22.8406823 126.217991,22.803307 L122.205891,18.8742343 C120.468645,17.6034759 120.084149,15.7702201 121.883451,15.3958447 C123.200964,15.1205137 127.565753,16.0196999 130.389752,17.1443833 C133.65968,18.4465992 135.76926,19.9450351 138.187247,22.0405405 C138.260217,19.7628308 138.186935,18.3397683 139.191676,16.3510937 C139.971893,14.8090534 140.783606,14.0391233 141.625878,14.0391233 C142.498088,14.0391233 142.884766,14.3888933 143.584529,15.8088412 C144.310799,17.2839176 145.701905,19.3211799 145.858448,19.1311891 C146.730969,18.1700224 145.896492,16.8173499 154.215379,10.3305645 C156.271947,8.72654353 157.752239,7.48257076 159.534078,5.85799341 C163.412712,2.3272785 166.54356,-0.996938167 169.901425,0.278180641 C172.223366,1.15930207 174.486994,4.99711691 175.909285,10.4657383 C177.920636,18.192136 175.904295,25.4301639 176.078924,25.366003 C176.167486,25.3361028 177.517742,24.30112 181.218005,21.4406678 C186.119777,17.6467689 188.007329,15.9882424 192.069635,11.9099801 C195.657637,8.310121 195.728736,8.25873004 197.344989,8.25873004 C198.308567,8.25873004 198.369687,8.2724343 199.22225,8.69975794 C201.709778,9.94435363 204.90081,13.2526858 206.63525,16.388469 C208.427691,19.6267226 209.53409,23.2536787 210.080741,27.6820225 C210.284371,29.3604825 210.250381,35.6158528 210.026793,37.7851744 C208.94347,48.1290851 205.33863,58.4253425 199.993113,66.4267597 C195.732478,72.8070257 190.199546,77.6387106 185.029906,79.4890967 C183.724242,79.9559759 183.95812,79.6734813 184.544375,81.9446504 C187.142604,92.0113615 186.211769,107.645738 182.531776,116.366006 C181.232973,119.443235 181.916521,121.381453 178.142352,126.93666 C177.232723,128.275628 176.502711,129.164536 176.028407,129.516798 C175.328955,130.032576 174.320785,129.676577 174.086283,128.832208 L173.824963,124.903135 C173.655012,123.54143 173.105866,119.959325 173.051295,122.32985 C172.925624,127.77916 169.417765,134.26252 165.811053,138.304653 C163.709893,140.661162 162.74538,141.251379 161.737209,140.806925 C159.968468,140.024848 161.113846,135.500263 160.892442,132.239585 C157.223986,137.116431 150.427802,139.098565 143.770384,139.667603 C141.644901,151.447969 140.14278,159.348785 143.275187,168.756757 C143.760717,170.20754 145.603988,173.983997 147.857949,178.127666 C155.210764,191.654079 159.834066,203.198046 157.019421,217.184175 L156.635549,219.143884 C164.434915,218.45431 168.777563,211.058995 174.035765,202.44587 C178.774447,194.685834 181.180273,191.194052 184.232537,187.644338 C188.919766,182.19565 194.768588,177.313508 200.932991,173.713338 C210.03646,168.390168 221.543573,165.345643 230.521684,165.887896 C234.948217,166.152637 238.661888,167.010399 241.614989,168.451215 C248.278643,171.703172 237.063722,172.255392 241.933998,172.062286 C244.127463,171.977569 248.878618,172.285603 252.810264,172.774285 C264.266547,174.198593 273.433944,177.554579 282.629718,183.697823 C292.287323,190.149102 299.948544,198.611481 304.792003,208.186396 C307.721092,213.970215 309.195148,219.360971 309.869964,226.768434 C310.043345,228.666785 310.043345,235.175995 309.869964,236.973745 C309.300237,242.892738 308.169514,248.425831 306.516776,253.378986 C304.775476,258.596882 301.808655,264.139319 300.352374,264.893053 C299.754581,265.197662 298.896093,265.010785 298.570223,264.499056 C297.814953,263.323916 297.857986,256.41043 297.236182,255.267682 C297.048456,254.922584 297.138889,260.145151 292.287323,263.797959 C291.202128,264.614919 290.000307,264.558545 290.460891,262.177119 C290.92584,259.776694 290.517957,256.762069 289.490453,254.938468 C289.00804,254.083821 287.625977,252.761983 286.804909,252.365494 C282.9085,250.48147 278.314823,251.997036 274.177988,254.711413 C266.168756,259.966373 260.912736,269.263154 253.865522,274.863835 C241.648667,284.572989 222.027857,289.684054 204.843432,288.926271 L204.843432,288.926271 Z" id="Fill-1" fill="#2B2824" mask="url(#mask-2)"></path>
            </g>
        </g>
    </g>
</svg>