<?xml version="1.0" encoding="UTF-8"?>
<svg width="34px" height="38px" viewBox="0 0 34 38" version="1.1" xmlns="http://www.w3.org/2000/svg" xmlns:xlink="http://www.w3.org/1999/xlink">
    <title>编组</title>
    <defs>
        <filter x="-75.9%" y="-60.0%" width="251.8%" height="220.0%" filterUnits="objectBoundingBox" id="filter-1">
            <feOffset dx="0" dy="2" in="SourceAlpha" result="shadowOffsetOuter1"></feOffset>
            <feGaussianBlur stdDeviation="2" in="shadowOffsetOuter1" result="shadowBlurOuter1"></feGaussianBlur>
            <feColorMatrix values="0 0 0 0 0.866666667   0 0 0 0 0.545098039   0 0 0 0 0.619607843  0 0 0 1 0" type="matrix" in="shadowBlurOuter1" result="shadowMatrixOuter1"></feColorMatrix>
            <feMerge>
                <feMergeNode in="shadowMatrixOuter1"></feMergeNode>
                <feMergeNode in="SourceGraphic"></feMergeNode>
            </feMerge>
        </filter>
        <polygon id="path-2" points="0 2.53229129e-15 3.56420611 2.53229129e-15 3.56420611 5.55582879 0 5.55582879"></polygon>
        <polygon id="path-4" points="-1.26614565e-15 0 3.16081299 0 3.16081299 5.43229791 -1.26614565e-15 5.43229791"></polygon>
        <polygon id="path-6" points="-6.33072823e-16 2.53229129e-15 1.08495537 2.53229129e-15 1.08495537 0.982557563 -6.33072823e-16 0.982557563"></polygon>
        <polygon id="path-8" points="0 0 14.700913 0 14.700913 10.6782092 0 10.6782092"></polygon>
        <polygon id="path-10" points="0 0 14.1191696 0 14.1191696 11.723296 0 11.723296"></polygon>
        <polygon id="path-12" points="0 0 11.560701 0 11.560701 10.7576438 0 10.7576438"></polygon>
        <polygon id="path-14" points="0 1.26614565e-15 3.32515026 1.26614565e-15 3.32515026 1.55222258 0 1.55222258"></polygon>
    </defs>
    <g id="页面-1" stroke="none" stroke-width="1" fill="none" fill-rule="evenodd">
        <g id="harwell-launchpad" transform="translate(-473.000000, -1598.000000)">
            <g id="编组" filter="url(#filter-1)" transform="translate(482.000000, 1607.000000)">
                <g transform="translate(3.885276, 0.000000)">
                    <mask id="mask-3" fill="white">
                        <use xlink:href="#path-2"></use>
                    </mask>
                    <g id="Clip-2"></g>
                    <path d="M0.850709612,5.3255908 C0.748682319,5.35428006 0.652245868,5.3812542 0.564106583,5.40600091 L0.563427217,5.4059675 C0.231774478,5.49801592 0.0113483041,5.55582879 0.0113483041,5.55582879 L0.016382289,5.49001946 C-0.00243946892,5.13023431 0.507886326,4.88431524 0.576546762,4.51121008 C0.644516696,4.13807152 0.343101278,3.22507147 0.0753200068,2.77314881 C-0.19243899,2.32123729 0.311560912,1.98055234 0.681369476,1.41323782 C1.02947176,0.880426151 1.29808832,0.436900892 1.36014444,0.0843437499 C1.36200434,0.0756679218 1.36321828,0.0663127285 1.3644211,0.0569241238 L1.36453247,0.0549194395 C1.36528979,0.0536052576 1.3653232,0.0529258924 1.36540116,0.0515894362 C1.36565732,0.0468784281 1.36663739,0.0415437405 1.36691581,0.0368438696 C1.36694922,0.0361645044 1.3669715,0.0355074134 1.36768428,0.0348614596 L1.36790702,0.0308298168 C1.3681409,0.026798174 1.36905414,0.0227999425 1.36928802,0.0187794368 C1.36946622,0.015404885 1.370992,0.0127987954 1.37313033,0.0108832082 C1.37385425,0.0102483915 1.37460044,0.00894534674 1.3759703,0.00902330668 C1.42310266,-0.0274508101 1.71669981,0.0476246162 1.98531636,0.215706256 C1.98664168,0.216452444 1.98728764,0.217165221 1.98861296,0.217911409 C1.98993828,0.218657597 1.9906065,0.218702145 1.99193182,0.219448333 C2.18721035,0.342959159 2.3681331,0.51558475 2.42782815,0.730665099 C2.44382107,0.786851944 2.45145001,0.845923307 2.44866572,0.907812366 C2.44776362,0.923950074 2.44117043,0.944475814 2.42819567,0.96871022 C2.37375736,1.0749028 2.21556549,1.25352017 2.02690243,1.4513491 C2.02549915,1.45193936 2.0247641,1.45325355 2.02399563,1.45455659 C1.70833582,1.78619819 1.30984913,2.16986135 1.17661559,2.35392478 C0.944216996,2.67471882 1.75841952,3.92115354 1.97832224,4.04404069 C2.14056803,4.13537633 2.9854088,3.97826477 3.45790175,4.20157546 C3.48252596,4.21306898 3.50574688,4.22515277 3.52817707,4.23921898 C3.84587498,4.43363994 1.98894707,5.00283663 0.850709612,5.3255908" id="Fill-1" fill="#2D1301" mask="url(#mask-3)"></path>
                </g>
                <g transform="translate(4.182360, 0.000000)">
                    <mask id="mask-5" fill="white">
                        <use xlink:href="#path-4"></use>
                    </mask>
                    <g id="Clip-4"></g>
                    <path d="M3.16081299,4.20157769 C2.54721255,4.55972567 1.1557946,5.09829524 0.553620854,5.32559302 C0.375705124,5.39252721 0.26691759,5.43229791 0.26691759,5.43229791 L0.267017824,5.40600314 L0.266338459,5.40596973 L0.266327322,5.3695513 C0.218415368,5.02904453 0.671674483,4.7529661 0.704083546,4.39334801 C0.736503745,4.03305056 0.379191047,3.1910943 0.0932116974,2.78400975 C-0.193502703,2.37757115 0.245645663,2.01168285 0.541826628,1.44226342 C0.831793071,0.885985809 1.05068232,0.428205017 1.06306681,0.0843348402 C1.06352344,0.0762715545 1.06393551,0.0688876341 1.06365708,0.061448028 C1.06384641,0.0580846133 1.0653722,0.0554785237 1.06540561,0.0547991585 C1.06622976,0.0521596575 1.06717642,0.0474820609 1.06891381,0.0408331913 C1.06899177,0.0394967351 1.0697491,0.0381825532 1.06982706,0.036846097 C1.06986047,0.0361667318 1.06989388,0.0355096409 1.07059552,0.034863687 C1.07070689,0.0328478656 1.07155331,0.0301972275 1.07170923,0.0275020409 C1.07183174,0.0254862195 1.07256679,0.0241720375 1.07336866,0.0222007647 C1.07423736,0.0188930356 1.07513947,0.0148836671 1.07605271,0.0108854356 C1.07676549,0.0102506189 1.07751168,0.00894757416 1.07888155,0.00902553411 C1.1260139,-0.0274485826 1.41961105,0.0476268436 1.68822761,0.215697346 C1.68955293,0.216454671 1.69019888,0.217167448 1.6915242,0.217913636 C1.69284952,0.218659824 1.69351775,0.218704373 1.69484306,0.219450561 C1.89012159,0.342961386 2.07104434,0.515586977 2.13075052,0.730667326 C2.14673231,0.786854171 2.15437239,0.845925535 2.1515881,0.907814593 C2.150686,0.923952302 2.14408167,0.944478041 2.13110691,0.968712447 C2.0766686,1.07490503 1.91847673,1.2535224 1.72982481,1.45135132 C1.72842153,1.45193046 1.72767534,1.45325577 1.72690688,1.45455882 C1.41124706,1.78620042 1.01276038,2.16986358 0.879526832,2.35392701 C0.647128238,2.67472104 1.46133076,3.92115577 1.68123349,4.04403178 C1.8434904,4.13537856 2.68832005,3.97826699 3.16081299,4.20157769" id="Fill-3" fill="#602D00" mask="url(#mask-5)"></path>
                </g>
                <path d="M5.33105022,0.601367417 C5.21141512,0.604508089 5.2214274,0.957532991 5.01155923,1.37370545 C4.76785645,1.85694573 4.47127454,1.94223391 4.49762501,2.25134509 C4.51213669,2.42166529 4.61914228,2.59495911 4.7185078,2.59905758 C4.81238271,2.6029333 4.85262118,2.44821622 5.06849227,2.17768408 C5.14237602,2.08510108 5.23649595,1.97290558 5.36228988,1.83486079 C5.80525829,1.34874713 6.05165626,1.2053231 6.00508076,1.08858366 C5.97082293,1.00271635 5.82738777,1.05946005 5.63179741,0.923865432 C5.424346,0.780062747 5.4167282,0.599128853 5.33105022,0.601367417" id="Fill-5" fill="#8C4B01"></path>
                <path d="M5.05107713,3.10434048 C5.00393364,3.01239229 4.98394248,2.96777693 4.96447477,2.96850304 C4.87356234,2.97193108 4.81696342,3.42295163 5.01062705,3.82814287 C5.11172996,4.03968161 5.12974985,4.1124071 5.12452653,4.28739377 C5.11704238,4.53803499 4.99424433,4.68986755 5.04566448,4.73017284 C5.09319777,4.76743769 5.20295424,4.64135419 5.47682752,4.51152861 C5.67632702,4.41694092 5.8733318,4.36285899 6.02124408,4.32224186 C6.24330742,4.26128832 6.36904567,4.24570747 6.36744192,4.21964657 C6.36547065,4.18736002 6.17003621,4.17052067 6.06075864,4.16654472 C5.82282489,4.15788002 5.79332262,4.20286291 5.7051722,4.17365021 C5.59004763,4.13550552 5.59971467,4.045317 5.38773044,3.66140883 C5.21340087,3.34570446 5.19672858,3.38834855 5.05107713,3.10434048" id="Fill-7" fill="#8C4B01"></path>
                <path d="M5.24380191,1.40389377 C5.40554652,1.11163307 5.60777461,1.11381595 5.71841091,1.15493425 C5.82906948,1.19605255 5.7092005,1.44032333 5.3840073,1.69161051 C5.01433238,1.97726688 4.82267342,2.16481623 5.24380191,1.40389377" id="Fill-9" fill="#A96B1C"></path>
                <path d="M5.22078813,3.71501297 C5.08761027,3.50790681 5.07813257,3.49963192 5.0714837,3.50203754 C5.03717019,3.5144109 5.08999362,3.80658249 5.24185959,4.06993118 C5.3110212,4.18985585 5.40275778,4.34898324 5.52846262,4.34653307 C5.58820221,4.3453748 5.65652853,4.30769788 5.66383449,4.26124489 C5.67390246,4.19735114 5.5601589,4.17045496 5.4307454,4.03243245 C5.38999462,3.98898649 5.39297937,3.98279424 5.22078813,3.71501297" id="Fill-11" fill="#A96B1C"></path>
                <path d="M5.4751692,1.3521562 C5.27778576,1.47081124 5.03362635,1.81314449 5.21704383,1.7763474 C5.4004613,1.7395503 5.83743792,1.13436953 5.4751692,1.3521562" id="Fill-13" fill="#CEA040"></path>
                <g transform="translate(5.249553, 0.000000)">
                    <mask id="mask-7" fill="white">
                        <use xlink:href="#path-6"></use>
                    </mask>
                    <g id="Clip-16"></g>
                    <path d="M1.08439256,0.90781348 C1.08349045,0.923951188 1.07688613,0.944476928 1.06391137,0.968711333 C0.947762189,1.0303331 0.620920692,0.877876861 0.393712003,0.677720273 C0.176961084,0.486228376 -0.00594408225,0.202242573 0.000147930535,0.0569252375 L0.000248164749,0.0549205532 C0.000515455986,0.0502095452 0.000771610088,0.0454985371 0.00171826655,0.0408320776 C0.0017962265,0.0394956214 0.00255355167,0.0381814395 0.00263151161,0.0368449833 C0.00274288296,0.0348291619 0.00285425431,0.0328133405 0.00363385375,0.0308309305 C0.0037118137,0.0294833372 0.00443572746,0.0288485205 0.00451368741,0.0275009272 C0.00463619589,0.0254851058 0.00537124679,0.0241709238 0.00618425764,0.022199651 C0.00778800506,0.01757774 0.00942516389,0.0129446919 0.0116971394,0.0090244204 C0.0588183571,-0.0274496963 0.352415507,0.0476257299 0.6210432,0.215696232 C0.622368519,0.216453558 0.623003336,0.217166334 0.624328655,0.217912522 C0.625665111,0.21865871 0.626322202,0.218703259 0.627647521,0.219449447 C0.822926044,0.342960273 1.00385994,0.515585863 1.06355498,0.730666212 C1.07953677,0.786853058 1.08717684,0.845924421 1.08439256,0.90781348" id="Fill-15" fill="#2D1301" mask="url(#mask-7)"></path>
                </g>
                <path d="M6.30538581,0.930044315 C6.2323262,1.00635596 5.90560721,0.8469947 5.67641611,0.650312898 C5.44401752,0.450880223 5.22706613,0.13696894 5.29806537,0.0510904926 C5.36488818,-0.0297205581 5.67668341,0.103568672 5.83574397,0.205228439 C5.95814108,0.283455675 6.04795093,0.379958949 6.06402182,0.397410839 C6.12846128,0.46745228 6.16760831,0.527269832 6.17535976,0.539231114 C6.22579984,0.617101962 6.36887861,0.863711539 6.30538581,0.930044315" id="Fill-17" fill="#8C4B01"></path>
                <path d="M6.18084368,0.728183745 C6.12732975,0.793536452 5.84481405,0.667452948 5.65481453,0.526868895 C5.465383,0.386730327 5.26256464,0.154231499 5.31097776,0.0851255768 C5.35895654,0.0165987858 5.65392356,0.10859152 5.86430403,0.267061812 C6.06581935,0.418849824 6.23313253,0.664323413 6.18084368,0.728183745" id="Fill-19" fill="#A96B1C"></path>
                <path d="M5.56056875,0.124102208 C5.50136374,0.0874053483 5.40208732,0.0848438073 5.37842091,0.127989068 C5.36655986,0.149572835 5.37750767,0.175611457 5.38992557,0.205147138 C5.42900578,0.298142215 5.52349323,0.359518965 5.53479742,0.348136813 C5.53725873,0.345653232 5.53699144,0.340340819 5.53313799,0.331854322 C5.51301319,0.287383742 5.4585526,0.196838836 5.4859945,0.167915696 C5.48970316,0.163995425 5.49658591,0.162046426 5.51116442,0.158827794 C5.55667075,0.148782099 5.58824453,0.164385225 5.5919532,0.157101538 C5.59477089,0.151566382 5.57985827,0.136063491 5.56056875,0.124102208" id="Fill-21" fill="#CEA040"></path>
                <g transform="translate(0.000000, 3.991283)">
                    <mask id="mask-9" fill="white">
                        <use xlink:href="#path-8"></use>
                    </mask>
                    <g id="Clip-24"></g>
                    <path d="M14.6692538,4.46935714 C14.6636073,4.50950652 14.6586624,4.5489988 14.6523142,4.58911476 C14.652214,4.59114171 14.6513787,4.59379235 14.6512674,4.59580817 C14.6448635,4.63724945 14.6371121,4.67794454 14.6293383,4.719319 C14.2200598,6.83602058 12.0815294,8.98488621 9.05560326,10.0484046 C5.10716597,11.4366485 1.14372695,10.4531615 0.20234949,7.85235096 C-0.292373179,6.4868714 0.144770503,4.94690635 1.24378297,3.59092677 C1.48081461,3.29737417 1.75011054,3.01302084 2.04675926,2.74032809 C2.31388344,2.49496587 2.6043956,2.2590034 2.9160906,2.03502448 C2.99222405,1.98061957 3.06968283,1.92696086 3.14842237,1.87471656 C3.88303892,1.37969319 4.72309073,0.953965068 5.6455462,0.629918991 C7.79501324,-0.125880394 9.94889057,-0.178804058 11.617445,0.349363426 C11.6470029,0.358451328 11.6785099,0.368975921 11.7120327,0.38029125 C11.7415015,0.390693334 11.7729639,0.401897291 11.8050946,0.413814026 C13.1074488,0.870280636 14.0894212,1.69387176 14.4988445,2.82531557 C14.6905814,3.35456335 14.7422021,3.90971612 14.6692538,4.46935714" id="Fill-23" fill="#2C1603" mask="url(#mask-9)"></path>
                </g>
                <path d="M14.6692538,8.46063969 C14.6634848,8.50279375 14.6577158,8.54495894 14.6512674,8.58709072 C14.6448635,8.628532 14.6371121,8.66922709 14.6293383,8.71060155 C13.9937755,8.86321371 12.7263695,8.36823489 10.3693397,8.4624105 C9.79704688,8.48504116 8.36103584,8.55043841 6.84751035,9.01271861 C3.34305494,10.0832089 1.94514404,12.5101465 1.01446937,12.0029725 C0.272680497,11.5994073 0.599978617,9.75189025 0.643045917,9.51896821 C0.733089653,9.03243134 0.892851853,8.56933813 1.10856702,8.13163759 C1.35379559,7.63016582 1.67300815,7.16182702 2.04675926,6.73161064 C2.31388344,6.48624842 2.6043956,6.25028595 2.9160906,6.02630703 C3.70369764,5.46344737 4.62413729,4.9801514 5.6455462,4.62120154 C7.79501324,3.86540216 9.94889057,3.81247849 11.617445,4.34064598 C11.6470029,4.34973388 11.6785099,4.36025847 11.7120327,4.3715738 C11.7414458,4.38166404 11.7728192,4.39293482 11.8050389,4.40475132 C13.1075045,4.86154091 14.0890871,5.6853325 14.4988445,6.81659812 C14.6905814,7.3458459 14.7422021,7.90099867 14.6692538,8.46063969" id="Fill-25" fill="#602D00"></path>
                <path d="M14.6692538,8.46063969 C14.6636073,8.50078907 14.6586624,8.54028135 14.6523142,8.58039731 C14.1736847,8.39383916 13.6891414,8.28853755 13.0149327,8.14229583 C12.0707932,7.9378069 11.3066744,7.93354138 10.8777388,7.93317385 C10.1284323,7.93309589 9.5733798,8.01401831 8.90064116,8.11059955 C8.42348176,8.1783356 7.85405119,8.25980374 7.20514602,8.43121538 C6.22415377,8.6899533 5.89491779,8.93453592 4.95386331,9.31011352 C3.32597057,9.96087859 2.21720197,10.4039695 1.78236368,9.99598284 C1.22869216,9.47752693 1.74642414,7.55905521 2.69288014,6.41504872 C2.78301297,6.30544818 2.97130851,6.08941003 3.14842237,5.86599911 C3.88303892,5.37097574 4.72309073,4.94524762 5.6455462,4.62120154 C7.79501324,3.86540216 9.94889057,3.81247849 11.617445,4.34064598 C11.6470029,4.34973388 11.6785099,4.36025847 11.7120327,4.3715738 C11.7415015,4.38197588 11.7729639,4.39317984 11.8050946,4.40509658 C13.1074488,4.86156319 14.0894212,5.68515431 14.4988445,6.81659812 C14.6905814,7.3458459 14.7422021,7.90099867 14.6692538,8.46063969" id="Fill-27" fill="#8C4B01"></path>
                <path d="M13.9602839,7.50400993 C13.8333651,7.63766668 13.5697268,7.65642162 13.061996,7.57411819 C11.914292,7.38807235 11.6070407,7.3670343 11.0381558,7.31719562 C10.8614318,7.30170387 10.1728673,7.24677552 9.29159692,7.3334447 C9.10247723,7.35203258 8.68924498,7.39830738 8.05408304,7.53689788 C6.71045454,7.83004955 6.28824576,8.11855703 4.81912402,8.45768279 C3.90816207,8.66797417 3.39014052,8.71409304 3.18046168,8.44811599 C3.13163648,8.38619352 3.06873394,8.27030049 3.08917058,8.04340364 C3.15881109,7.2699519 4.08215753,5.98217613 5.72007368,5.0724504 C6.30977384,4.7449184 7.51397655,4.09119086 9.20712175,4.0816352 C11.1681039,4.07056489 12.6373036,4.92872568 13.2532094,5.51254543 C13.3659284,5.61940623 13.7108009,5.96422307 13.9115255,6.50977562 C14.0011349,6.7533559 14.1887956,7.26338099 13.9602839,7.50400993" id="Fill-29" fill="#A96B1C"></path>
                <path d="M12.8743698,6.11525041 C12.8743698,6.11525041 12.8160223,6.29223062 12.6522173,6.43616695 C12.2412682,6.79727742 10.6109364,6.48206309 9.25267375,6.38583824 C8.07925408,6.3027218 7.16436072,6.38696309 7.00299478,5.96457612 C6.99006456,5.93077491 6.97558629,5.8636514 6.98178967,5.78568032 C6.99355049,5.63831375 7.08574369,5.40965723 7.63737712,5.11323125 C8.173942,4.82492424 8.66589152,4.73003585 8.90158671,4.6893519 C9.56716416,4.57446121 10.0240651,4.49558802 10.6440249,4.56267812 C11.7334149,4.68054242 12.7256445,5.18381841 12.8670527,5.65567654 C12.9426738,5.90805516 12.8743698,6.11523928 12.8743698,6.11525041" id="Fill-31" fill="#CEA040"></path>
                <path d="M1.11710697,12.830485 C0.856509154,10.8619741 0.997906219,8.55752274 2.14219114,6.87280835 C2.2522149,6.71372552 2.37157157,6.56070128 2.4988913,6.41513893 C2.37205047,6.56112449 2.25326179,6.71443829 2.14379489,6.87388865 C1.02401166,8.53451342 0.878404761,10.7862082 1.12545982,12.7250498 C1.12547096,12.7250609 1.13265441,12.7773163 1.13265441,12.7773163 L1.13625171,12.8034997 L1.1379891,12.8167195 L1.13879097,12.8234241 C1.13908054,12.8256069 1.13922532,12.8290929 1.13933669,12.831866 L1.11710697,12.830485 Z" id="Fill-33" fill="#2D1301"></path>
                <path d="M2.38465214,11.9648445 C2.23368827,9.98421645 2.50351878,7.69130312 3.73945118,6.0719303 C3.85810622,5.91912881 3.98573779,5.77288709 4.12089805,5.63451933 C3.98619441,5.77334371 3.85910856,5.91989727 3.74098811,6.0730997 C2.53086044,7.6697639 2.25977144,9.90979812 2.39884085,11.8600218 C2.39885198,11.8600329 2.40313978,11.9126225 2.40313978,11.9126225 L2.40526697,11.938973 L2.40625818,11.9522596 L2.40669253,11.9590087 C2.40685958,11.9611915 2.40681504,11.9646886 2.40677049,11.9674506 L2.38465214,11.9648445 Z" id="Fill-35" fill="#2D1301"></path>
                <path d="M3.94830476,10.7026073 C3.87231609,9.74949131 3.92247775,8.78176339 4.13484063,7.84834898 C4.34885182,6.91950079 4.74916499,6.00827155 5.42551206,5.3229925 C4.75221657,6.01057694 4.35594617,6.92200664 4.14569934,7.85083256 C3.94384991,8.75503426 3.89363257,9.69080975 3.96367401,10.6135993 L3.96732699,10.6582927 L3.96914234,10.6806894 L3.96998876,10.6920048 L3.97036743,10.6977515 C3.97051221,10.6996114 3.9704788,10.7027855 3.97042311,10.7052134 L3.94830476,10.7026073 Z" id="Fill-37" fill="#2D1301"></path>
                <path d="M5.23456811,9.69595845 C5.25141859,8.73944562 5.39543288,7.78066081 5.69759449,6.87178151 C6.0009255,5.96759094 6.48790786,5.09917284 7.2271686,4.48157417 C6.49071441,5.10174552 6.00774142,5.97076502 5.70815249,6.87530084 C5.4193109,7.75610343 5.27834818,8.68309171 5.25849067,9.60881036 L5.25780017,9.65365961 L5.25744378,9.67615662 L5.25717649,9.68749422 L5.2569983,9.6932744 C5.25696489,9.6951343 5.2566085,9.69828611 5.25633007,9.700714 L5.23456811,9.69595845 Z" id="Fill-39" fill="#2D1301"></path>
                <path d="M6.69063935,9.05077643 C6.70626475,8.17072003 6.83897485,7.28859212 7.11710252,6.4524049 C7.39633276,5.62050547 7.84454676,4.82154969 8.52482523,4.25341103 C7.84736445,4.82411123 7.40315983,5.62367955 7.12767166,6.45593537 C6.86207327,7.26630671 6.73252611,8.11914396 6.71441713,8.97078952 L6.71377118,9.01205261 L6.7134482,9.03275654 L6.71320318,9.04320317 L6.71304726,9.04852672 C6.71301385,9.05024184 6.71267974,9.05324887 6.71240131,9.05552084 L6.69063935,9.05077643 Z" id="Fill-41" fill="#2D1301"></path>
                <path d="M7.95696611,8.84881785 C8.01964591,7.24141745 8.44287931,5.3681625 9.67669566,4.2485686 C8.46584408,5.35753767 8.0490368,7.187781 7.98177965,8.77295169 C7.98179078,8.77295169 7.98058797,8.81226577 7.98058797,8.81226577 L7.97997543,8.83196736 L7.97961904,8.84192396 L7.97938516,8.84699136 C7.97932948,8.84862852 7.97899536,8.85145735 7.97871694,8.85361795 L7.95696611,8.84881785 Z" id="Fill-43" fill="#2D1301"></path>
                <path d="M9.49187824,8.54959533 C9.61160244,7.2465951 9.93063681,5.79734201 10.6361075,4.68190227 C10.7420328,4.51958966 10.8574135,4.36353613 10.9837197,4.21653709 C10.8581151,4.36413753 10.7435363,4.52069224 10.6384574,4.68340578 C9.95889172,5.77176001 9.65363399,7.14257426 9.52659269,8.40837646 C9.52660383,8.40837646 9.52019998,8.48068988 9.52019998,8.48068988 L9.51717068,8.51686329 C9.51603469,8.52920324 9.51542215,8.54029582 9.51359566,8.55456249 L9.49187824,8.54959533 Z" id="Fill-45" fill="#2D1301"></path>
                <path d="M11.2108583,8.56780121 C11.3100679,7.41255734 11.5920601,6.12880208 12.2297502,5.14716387 C12.3253959,5.00463082 12.4295727,4.86794476 12.543383,4.73950019 C12.4302632,4.86856844 12.3268771,5.00575567 12.232089,5.1487008 C11.618444,6.10665032 11.3490144,7.32101009 11.2433007,8.44302075 L11.238044,8.50705927 L11.2355716,8.53912308 C11.2346249,8.55008202 11.2341906,8.55977133 11.2325757,8.57275723 L11.2108583,8.56780121 Z" id="Fill-47" fill="#2D1301"></path>
                <path d="M13.0438202,8.37378229 C13.081731,8.14504782 13.1261459,7.91534441 13.1762853,7.6891492 C13.331704,7.01100906 13.5180171,6.32826928 13.8555391,5.71562663 C13.6315379,6.12388058 13.4825231,6.5681743 13.3574196,7.01525231 C13.2417827,7.43532276 13.1504694,7.86227596 13.0795147,8.29212482 L13.0654708,8.37900561 L13.0438202,8.37378229 Z" id="Fill-49" fill="#2D1301"></path>
                <path d="M14.6195076,7.73894444 C13.6018407,6.2230356 12.085453,4.61943296 10.2570696,4.17409235 C12.0476758,4.60733804 13.5081886,6.11100716 14.5357229,7.57604157 C14.5357118,7.57606385 14.6356453,7.72359747 14.6356453,7.72359747 C14.6401336,7.72863146 14.6406013,7.7372516 14.6342866,7.74119415 C14.6294976,7.74443505 14.6230492,7.74337702 14.6195076,7.73894444" id="Fill-51" fill="#2D1301"></path>
                <path d="M13.4855635,8.5688236 C12.3234146,6.92616302 10.6729246,5.17281047 8.77299623,4.42231236 C8.64099891,4.37171635 8.50729761,4.32561975 8.37199256,4.28456827 C8.50743125,4.32517427 8.64129961,4.37082538 8.77348627,4.42100931 C10.6285988,5.14974546 12.2170327,6.79837554 13.3793152,8.3821318 C13.3793041,8.38214294 13.5016566,8.55342094 13.5016566,8.55342094 L13.5031156,8.55547017 C13.5066684,8.5604262 13.5055101,8.56730895 13.5005541,8.57086169 C13.4957874,8.57425852 13.4892165,8.57330072 13.4855635,8.5688236" id="Fill-53" fill="#2D1301"></path>
                <path d="M11.4971506,8.30375199 C10.3522865,6.83391748 8.69408963,5.30971147 6.80152289,4.98575449 C8.65483123,5.30024491 10.2487,6.72677824 11.3998343,8.14425708 C11.3998231,8.14426822 11.5121857,8.28731358 11.5121857,8.28731358 L11.5191575,8.29618987 L11.5047127,8.31199347 L11.4971506,8.30375199 Z" id="Fill-55" fill="#2D1301"></path>
                <path d="M9.72817261,8.47305983 C8.5726169,6.98957119 6.89895055,5.45117647 4.98875372,5.12424588 C6.85929121,5.44168763 8.46798352,6.88152984 9.6297983,8.31221733 C9.62978716,8.31222846 9.74320774,8.45662142 9.74320774,8.45662142 C9.74801898,8.46131015 9.74909928,8.46988574 9.74308523,8.47427378 C9.73854128,8.4778488 9.73202606,8.47723625 9.72817261,8.47305983" id="Fill-57" fill="#2D1301"></path>
                <path d="M8.24408479,8.78580171 C7.16284719,7.37668686 5.59273391,5.93506271 3.77992019,5.65465193 C5.55385417,5.92577434 7.06569796,7.2750605 8.15347306,8.63286658 C8.15346192,8.63288885 8.2591422,8.76938558 8.2591422,8.76938558 L8.24408479,8.78580171 Z" id="Fill-59" fill="#2D1301"></path>
                <path d="M6.72388704,9.20618512 C5.72740303,7.9266731 4.2877947,6.60192205 2.64041198,6.31898314 C4.25270159,6.59211023 5.63957559,7.8327091 6.64131632,9.06550083 C6.64130518,9.06551197 6.73893331,9.18974671 6.73893331,9.18974671 L6.72388704,9.20618512 Z" id="Fill-61" fill="#2D1301"></path>
                <path d="M5.37526131,9.85110542 C4.57558161,8.82347084 3.51637326,7.83032798 2.2674995,7.39849671 C2.08586397,7.33894645 1.90015224,7.29243777 1.71178988,7.25949413 C1.90029703,7.29152453 2.08630945,7.33714223 2.2683682,7.39585721 C3.48427604,7.81116097 4.50448214,8.73963049 5.30278083,9.72335134 C5.30276969,9.72336248 5.39029644,9.83466701 5.39029644,9.83466701 L5.37526131,9.85110542 Z" id="Fill-63" fill="#2D1301"></path>
                <path d="M2.08967064,12.7712533 C1.60648604,12.0985926 0.968996444,11.3355429 0.236295477,10.9347509 C0.819335625,11.2463902 1.28190539,11.7383954 1.70542835,12.2372165 C1.84558919,12.4062671 1.98089425,12.5791266 2.10803578,12.758646 L2.08967064,12.7712533 Z" id="Fill-65" fill="#2D1301"></path>
                <path d="M2.60224502,11.7771994 C2.40593075,11.4315584 2.1573499,11.1160211 1.88847719,10.8238272 C1.4363652,10.3376467 0.902150247,9.92654169 0.309420791,9.6261843 C0.547165209,9.74502866 0.776278348,9.881169 0.99476666,10.0327343 C1.43072981,10.3376022 1.82433843,10.7030896 2.16252866,11.113738 C2.33124512,11.3199866 2.48945926,11.5347328 2.62189093,11.7666971 C2.62189093,11.7666971 2.60224502,11.7771994 2.60224502,11.7771994" id="Fill-67" fill="#2D1301"></path>
                <path d="M3.71962374,10.6971579 C3.45319007,10.3088283 3.14205193,9.95149332 2.80753694,9.6203863 C2.304183,9.1256525 1.73160062,8.69164949 1.09115968,8.3903343 C1.03066276,8.36030859 0.937689958,8.32187434 0.875644979,8.29457722 C0.93853638,8.32166273 1.03125303,8.35960695 1.09174994,8.38907581 C1.87803167,8.75428473 2.56202994,9.3136362 3.14599447,9.94934386 C3.35778937,10.1824552 3.55937151,10.4253339 3.7382339,10.6849071 L3.71962374,10.6971579 Z" id="Fill-69" fill="#2D1301"></path>
                <g transform="translate(1.687265, 8.276704)">
                    <mask id="mask-11" fill="white">
                        <use xlink:href="#path-10"></use>
                    </mask>
                    <g id="Clip-72"></g>
                    <path d="M14.1077317,4.7782856 C14.1064064,4.80190747 14.1047804,4.83093084 14.1021966,4.86530004 C14.077138,5.20305593 13.984065,6.18143095 13.3711662,7.57755991 C13.335015,7.6601529 13.3006347,7.73540652 13.2687157,7.80334304 C12.9320512,8.51493914 12.7829807,8.51947195 12.1288076,9.51320509 C12.0201649,9.67840221 11.8975785,9.8719322 11.7579188,10.1010565 C11.7436076,10.1239322 11.7292629,10.1475206 11.7149072,10.1710756 C11.6401436,10.2941744 11.5600787,10.426439 11.4752472,10.5699299 C11.2064413,11.0240354 10.9877414,11.41594 10.5192021,11.6158516 C10.0879054,11.7995698 9.70679265,11.7112634 9.16401324,11.6193153 C9.09408317,11.6072871 9.02134655,11.5957714 8.94588132,11.5841219 C8.74258406,11.5531273 8.55858745,11.5326906 8.38997123,11.5192035 L8.38244253,11.5187803 C7.60688587,11.4578379 7.15120999,11.5501536 6.62659526,11.5262422 C5.8454923,11.4907148 4.83940808,11.1989218 3.84893813,10.6642837 C3.2538476,10.3433337 2.66364628,9.93464541 2.13096825,9.44184947 C1.37589278,8.74437526 0.737289466,7.87673676 0.364006117,6.85061684 C0.192861765,6.37938239 0.0689054535,5.88574002 0,5.3762161 C0.14961627,4.92019498 0.394443906,4.46543235 0.722098414,4.0261392 C0.875545859,3.82013562 1.0473473,3.61717247 1.23605491,3.41854167 C1.31986185,3.32980098 1.40705448,3.24195126 1.4983233,3.15497024 C1.94676004,2.72581188 2.47617488,2.3201306 3.0721007,1.95133552 C4.08859814,1.32105165 5.30065252,0.798497277 6.64159698,0.448323482 C6.8893314,0.383650139 7.13597439,0.326360717 7.38154822,0.275775851 C8.78345735,-0.0121079487 10.138145,-0.0684061656 11.3402428,0.0779914725 C11.9102971,0.147754485 12.4462494,0.26299042 12.936662,0.42038041 C13.7552526,1.66228232 14.1974191,3.17353584 14.1077317,4.7782856" id="Fill-71" fill="#994313" mask="url(#mask-11)"></path>
                </g>
                <g transform="translate(4.245733, 8.276704)">
                    <mask id="mask-13" fill="white">
                        <use xlink:href="#path-12"></use>
                    </mask>
                    <g id="Clip-74"></g>
                    <path d="M11.5492632,4.7782856 C11.5479379,4.80190747 11.5463119,4.83093084 11.543728,4.86530004 C11.5186695,5.20305593 11.4255965,6.18143095 10.8126977,7.57755991 C10.7765465,7.6601529 10.7421662,7.73540652 10.7102471,7.80334304 C10.3735827,8.51493914 10.2245121,8.51947195 9.57033912,9.51320509 C8.48070411,10.3607633 7.11389924,10.8299931 5.65651604,10.7485361 C2.34455487,10.563448 -0.18341883,7.60202819 0.0104452765,4.13342322 C0.0537687312,3.35804475 0.229234291,2.62320546 0.513632168,1.95133552 C1.53012961,1.32105165 2.74218399,0.798497277 4.08312845,0.448323482 C4.33086287,0.383650139 4.57750586,0.326360717 4.82307969,0.275775851 C6.22498882,-0.0121079487 7.57967649,-0.0684061656 8.78177428,0.0779914725 C9.35182853,0.147754485 9.88778087,0.26299042 10.3781935,0.42038041 C11.196784,1.66228232 11.6389506,3.17353584 11.5492632,4.7782856" id="Fill-73" fill="#E27115" mask="url(#mask-13)"></path>
                </g>
                <path d="M15.5718952,12.7893511 C15.430242,15.3240182 13.3631452,17.2690854 10.9541941,17.1344597 C8.54594458,16.9998675 6.7077716,14.8365347 6.84942482,12.3018676 C6.93996973,10.6816038 7.81801031,9.30165709 9.06881079,8.55247317 C10.4707199,8.26460051 11.8254076,8.20830229 13.0275054,8.35469993 C14.6193361,9.11043249 15.6808164,10.8404416 15.5718952,12.7893511" id="Fill-75" fill="#FC972A"></path>
                <path d="M13.2649313,8.99479673 C12.5988081,8.65232983 10.493923,8.60754741 10.3693542,9.62817673 C10.2447742,10.648806 12.4852539,9.96234646 13.3918167,12.9923265 C14.2983683,16.0222954 14.6632877,13.0682038 14.6410468,12.8358498 C14.6410468,12.8358498 14.8671195,14.2407436 14.1661594,15.6063457 C14.1661594,15.6063457 15.3308587,14.5620166 14.6185609,11.260825 C14.3594443,10.0599412 14.0164651,9.38116621 13.2649313,8.99479673" id="Fill-77" fill="#FFC353"></path>
                <path d="M13.2707282,9.38911033 C12.655201,9.1124639 12.4186594,9.66641385 12.7719516,9.97046877 C13.1252438,10.2745348 13.4966449,10.2546773 13.739802,10.5661162 C13.9829702,10.877555 13.9931495,9.71379123 13.2707282,9.38911033" id="Fill-79" fill="#FFEEAB"></path>
                <path d="M7.04826723,11.1719006 C7.04826723,11.1719006 6.67517321,13.5424397 8.3826185,15.6280576 C8.3826185,15.6280576 6.96466076,13.2069335 7.27871682,10.5639578 L7.30173728,10.1521511 L7.05242138,10.9099329 L7.04826723,11.1719006 Z" id="Fill-81" fill="#E27115"></path>
                <path d="M7.86224589,13.4057002 C7.86224589,13.4057002 8.14850367,15.1546536 9.68169734,16.4317489 C9.68169734,16.4317489 8.13454884,14.4227768 7.86224589,13.4057002" id="Fill-83" fill="#E27115"></path>
                <path d="M13.2499117,8.46850251 C13.2499117,8.46850251 14.7845867,9.47740442 15.0051465,12.4645622 C15.0051465,12.4645622 14.9872602,10.748519 14.4067148,9.39385364 L14.0944407,8.88313804 L13.2499117,8.46850251 Z" id="Fill-85" fill="#E27115"></path>
                <path d="M5.53620627,18.9409877 C4.9411046,18.6200377 4.35091441,18.2113494 3.81823639,17.7185535 C3.06314978,17.0210793 2.42455761,16.1534408 2.05127426,15.1273208 C1.8801299,14.6560864 1.75617359,14.162444 1.68726814,13.6529201 C1.83687327,13.196899 2.08171204,12.7421363 2.40936655,12.3028432 C2.36017383,13.2322371 2.42229677,16.5743688 5.53620627,18.9409877" id="Fill-87" fill="#692F0B"></path>
                <g transform="translate(10.077026, 18.447777)">
                    <mask id="mask-15" fill="white">
                        <use xlink:href="#path-14"></use>
                    </mask>
                    <g id="Clip-90"></g>
                    <path d="M3.32515026,1.26614565e-15 C3.25037553,0.123098752 3.17032181,0.255363366 3.08547911,0.398854212 C2.81668436,0.852959749 2.59798445,1.24486439 2.12944518,1.4447871 C1.69813736,1.62850527 1.3170246,1.54018779 0.774256335,1.44823961 C0.704326265,1.4362115 0.631589637,1.42469571 0.556113274,1.41304626 C0.352816014,1.38205162 0.168830545,1.36161497 0.0002031861,1.3481279 C-0.0114685313,1.34719238 0.480993299,1.32118717 1.14551273,1.33293685 C1.51841741,1.33950776 1.77903751,1.3516361 2.08498574,1.20943716 C2.24885754,1.13325916 2.35761166,1.04448506 2.38340527,1.0230238 C2.71505801,0.747067871 2.75372614,0.430227521 3.17447596,0.119523732 C3.17632472,0.118153864 3.17783937,0.117051288 3.17875262,0.116371922 C3.22754441,0.0775812816 3.27634733,0.0387906408 3.32515026,1.26614565e-15" id="Fill-89" fill="#692F0B" mask="url(#mask-15)"></path>
                </g>
                <path d="M4.37027632,16.3068481 C2.99989642,14.116196 2.91543239,12.2410922 2.92331749,11.6952501 C3.00713556,11.6065094 3.09432819,11.5186486 3.18558587,11.4316787 C3.01502065,13.1097554 4.33028287,16.21255 4.37027632,16.3068481" id="Fill-91" fill="#692F0B"></path>
                <path d="M2.8665181,13.8368733 C2.8665181,13.8368733 3.93234191,18.2044344 7.93802407,19.4933461 C7.93802407,19.4933461 3.81252861,18.9505667 2.8665181,13.8368733" id="Fill-93" fill="#692F0B"></path>
                <path d="M5.58818328,18.0110692 C5.58818328,18.0110692 7.51629975,19.7766503 10.1012956,19.3615248 C10.1012956,19.3615248 8.20474175,19.60437 5.58818328,18.0110692" id="Fill-95" fill="#692F0B"></path>
            </g>
        </g>
    </g>
</svg>