<?xml version="1.0" encoding="UTF-8"?>
<svg width="13px" height="14px" viewBox="0 0 13 14" version="1.1" xmlns="http://www.w3.org/2000/svg" xmlns:xlink="http://www.w3.org/1999/xlink">
    <title>tixing (1)</title>
    <defs>
        <polygon id="path-1" points="0 0 12.2603389 0 12.2603389 14 0 14"></polygon>
    </defs>
    <g id="页面-1" stroke="none" stroke-width="1" fill="none" fill-rule="evenodd">
        <g id="harwell-launchpad" transform="translate(-1047.000000, -1415.000000)">
            <g id="编组-9" transform="translate(1047.000000, 1413.000000)">
                <g id="tixing-(1)" transform="translate(0.000000, 2.000000)">
                    <mask id="mask-2" fill="white">
                        <use xlink:href="#path-1"></use>
                    </mask>
                    <g id="Clip-2"></g>
                    <path d="M8.3156708,13.1250614 L3.94176418,13.1250614 C3.69997276,13.1250614 3.5043342,13.3198744 3.5043342,13.56257 C3.5043342,13.8035162 3.69997276,14 3.94176418,14 L8.3156708,14 C8.5583664,14 8.75315974,13.8035162 8.75315974,13.56257 C8.75315974,13.3198744 8.5583664,13.1250614 8.3156708,13.1250614 Z" id="Fill-1" fill="#FFFFFF" mask="url(#mask-2)"></path>
                    <path d="M11.984626,10.1969106 C11.8239952,9.9961221 11.642863,9.75686635 11.4429197,9.47829811 C11.2566571,9.22200039 11.0780605,8.93154012 10.9088989,8.61104512 C10.7431379,8.30092862 10.599549,7.96854159 10.4825354,7.62247382 C10.3800281,7.32593978 10.328745,7.01497806 10.328745,6.69794255 C10.328745,6.20069864 10.2492748,5.73838386 10.093794,5.3274505 C9.94420997,4.92243367 9.73744598,4.55157938 9.47599833,4.2226322 C9.21109117,3.89370467 8.89666995,3.61513643 8.54293625,3.39469169 C8.34898812,3.27252816 8.1405337,3.1657358 7.92093418,3.07512053 L7.58339722,2.92133011 L7.44757259,2.888858 C7.71246009,2.58125749 7.87908604,2.18652087 7.87908604,1.74985749 C7.87908604,0.783556712 7.09550967,0 6.12913027,0 C5.16275086,0 4.37919415,0.783556712 4.37919415,1.74985749 C4.37919415,2.19167081 4.54925994,2.59155736 4.81931703,2.89913821 C4.76716902,2.9127993 4.72272626,2.92478961 4.70650987,2.92986092 C4.35277616,3.03926755 3.99988768,3.20673872 3.65038007,3.42800902 C3.30608136,3.65444891 3.00441704,3.9235625 2.75494003,4.22862735 C2.49264716,4.54650807 2.28157845,4.91390286 2.12947846,5.31463463 C1.96546679,5.73248699 1.88253712,6.20238908 1.88253712,6.71160364 C1.88253712,7.03801517 1.83125398,7.35074595 1.73043713,7.64043963 C1.61173309,7.98135746 1.46814425,8.30943977 1.30415224,8.61873071 C1.14352144,8.92462113 0.970919996,9.21256539 0.776028372,9.49710913 C0.561578789,9.80814948 0.378775753,10.0900986 0.248002786,10.3002631 C-0.105730917,10.7992564 -0.0305654539,11.3051098 0.160866672,11.6135358 C0.418913796,12.0228574 0.815340853,12.2671845 1.22206778,12.2671845 L10.7670202,12.2671845 C11.0217061,12.2671845 11.4617307,12.0937378 11.5727688,12.0348477 C11.7932135,11.9254214 11.9461587,11.7545104 12.0324693,11.6348825 C12.1657583,11.4537503 12.243538,11.2341508 12.2580443,11.0026592 C12.2768553,10.7121203 12.179498,10.4301712 11.984626,10.1969106 Z M6.12913027,0.874938574 C6.6119465,0.874938574 7.00406884,1.26713954 7.00406884,1.74985749 C7.00406884,2.23267373 6.6119465,2.62487469 6.12913027,2.62487469 C5.64641231,2.62487469 5.25421135,2.23267373 5.25421135,1.74985749 C5.25421135,1.26713954 5.64641231,0.874938574 6.12913027,0.874938574 Z M11.2925101,11.0966357 C11.2464359,11.1598305 11.1985336,11.199143 11.1575307,11.2196444 C11.0857265,11.2572665 10.83965,11.3410414 10.756799,11.351243 L1.22214641,11.351243 C1.13668107,11.351243 1.01874363,11.2589569 0.936737794,11.1291078 C0.910260838,11.084665 0.88207379,10.9889981 1.01023248,10.8078659 C1.14949694,10.5822712 1.3246537,10.3140028 1.52972726,10.0149331 C1.74586728,9.69874284 1.93645418,9.38178597 2.11412694,9.04593944 C2.29869904,8.69735567 2.46017505,8.32648173 2.59430924,7.94204498 C2.72936727,7.55412907 2.79771201,7.14058143 2.79771201,6.71160364 C2.79771201,6.31686702 2.85921639,5.95890723 2.98230377,5.64356216 C3.1010078,5.33260044 3.26254279,5.05234176 3.46248607,4.80880094 C3.65383957,4.57552068 3.88625495,4.36791147 4.14685739,4.19615524 C4.42281135,4.0218437 4.70314865,3.88939995 4.95429643,3.80992977 C4.97994783,3.8030894 5.38150516,3.69376139 5.45161897,3.67495037 C5.45499985,3.67410515 5.45843969,3.67325993 5.46013012,3.67325993 C5.46013012,3.67325993 5.45843969,3.67325993 5.45843969,3.67410515 C5.66606856,3.62457142 5.88566807,3.5997849 6.11293353,3.5997849 C6.70507777,3.5997849 7.15196239,3.77154113 7.19127488,3.78604744 C7.53048262,3.88939995 7.80474614,4.01164211 8.05768264,4.17058247 C8.32595101,4.33718876 8.56351633,4.54819851 8.76084533,4.79427498 C8.95994339,5.04467583 9.11972897,5.33091 9.23674257,5.64786688 C9.35468001,5.95806201 9.41364873,6.31179571 9.41364873,6.69802118 C9.41364873,7.11671876 9.48199348,7.5268069 9.61612766,7.91816265 C9.74941663,8.30943977 9.91266171,8.68882487 10.1014599,9.04002291 C10.2894325,9.39629227 10.4910662,9.72439424 10.7012897,10.0132427 C10.9097442,10.3053934 11.1011763,10.5583889 11.2754682,10.7762193 C11.3249822,10.8343428 11.3472528,10.8907169 11.3437933,10.9463048 C11.340432,11.0026592 11.324137,11.0539423 11.2925101,11.0966357 Z" id="Fill-3" fill="#FFFFFF" mask="url(#mask-2)"></path>
                </g>
            </g>
        </g>
    </g>
</svg>