<?xml version="1.0" encoding="UTF-8"?>
<svg width="15px" height="14px" viewBox="0 0 15 14" version="1.1" xmlns="http://www.w3.org/2000/svg" xmlns:xlink="http://www.w3.org/1999/xlink">
    <title>xin</title>
    <defs>
        <polygon id="path-1" points="0 0 14.860555 0 14.860555 14 0 14"></polygon>
    </defs>
    <g id="页面-1" stroke="none" stroke-width="1" fill="none" fill-rule="evenodd">
        <g id="harwell-launchpad" transform="translate(-383.000000, -1655.000000)">
            <g id="编组-10" transform="translate(383.000000, 1653.000000)">
                <g id="xin" transform="translate(0.000000, 2.000000)">
                    <mask id="mask-2" fill="white">
                        <use xlink:href="#path-1"></use>
                    </mask>
                    <g id="Clip-2"></g>
                    <path d="M12.749553,2.16003874 C11.4542354,0.648909813 9.14235361,0.918331019 7.87242424,2.44209785 L7.4303225,2.97293475 L6.98813081,2.44209785 C5.71820144,0.918331019 3.40631968,0.648909813 2.11048486,2.16003874 C1.34362049,3.05523854 1.0903677,3.96597711 1.16345166,4.87433202 C1.23828964,5.8046571 1.65853365,6.7787426 2.32867983,7.75737055 C3.59280746,9.60529285 5.64678155,11.3294447 7.4303225,12.5964732 C9.21429071,11.3299843 11.2677476,9.60529285 12.5319652,7.75737055 C13.2014142,6.7787426 13.6228726,5.8046571 13.6971034,4.87433202 C13.7701873,3.96597711 13.5169346,3.05523854 12.7500702,2.16066838 L12.749553,2.16003874 Z M7.4303225,1.24412807 C9.12389147,-0.298100893 11.9118984,-0.585961745 13.6245366,1.4116365 C14.5842077,2.53195739 14.9428588,3.74373441 14.8449938,4.96709243 C14.7482981,6.16904248 14.2157971,7.33600217 13.4824164,8.40784028 C12.0184435,10.5471315 9.64550856,12.4663837 7.75787356,13.7731924 L7.4303225,14 L7.10214179,13.7731924 C5.21504649,12.4663837 2.84211151,10.5471315 1.37822855,8.40784028 C0.644757936,7.33600217 0.111739752,6.16904248 0.0155387742,4.96709243 C-0.0823037823,3.74373441 0.276347317,2.53195739 1.23601841,1.4116365 C2.94917389,-0.585961745 5.73718078,-0.298100893 7.4303225,1.24358837 L7.4303225,1.24412807 Z" id="Fill-1" fill="#000000" mask="url(#mask-2)"></path>
                </g>
            </g>
        </g>
    </g>
</svg>