<?xml version="1.0" encoding="UTF-8"?>
<svg width="14px" height="14px" viewBox="0 0 14 14" version="1.1" xmlns="http://www.w3.org/2000/svg" xmlns:xlink="http://www.w3.org/1999/xlink">
    <title>yonghu1</title>
    <defs>
        <polygon id="path-1" points="0 0 13.9986328 0 13.9986328 14 0 14"></polygon>
    </defs>
    <g id="页面-1" stroke="none" stroke-width="1" fill="none" fill-rule="evenodd">
        <g id="harwell-launchpad" transform="translate(-456.000000, -1655.000000)">
            <g id="编组-10" transform="translate(383.000000, 1653.000000)">
                <g id="yonghu1" transform="translate(73.000000, 2.000000)">
                    <mask id="mask-2" fill="white">
                        <use xlink:href="#path-1"></use>
                    </mask>
                    <g id="Clip-2"></g>
                    <path d="M6.99863281,0 C5.06560568,0 3.49868977,1.56702984 3.49868977,3.50005697 C3.49868977,5.43299295 5.06560568,7 6.99863281,7 C8.93165993,7 10.4986898,5.43299295 10.4986898,3.50005697 C10.4986898,1.56702984 8.93165993,0 6.99863281,0 Z M4.66533745,3.50005697 C4.66533745,2.21136462 5.70996325,1.16664768 6.99863281,1.16664768 C8.28732515,1.16664768 9.3320421,2.21136462 9.3320421,3.50005697 C9.3320421,4.78863538 8.28732515,5.83335232 6.99863281,5.83335232 C5.70996325,5.83335232 4.66533745,4.78863538 4.66533745,3.50005697 Z M2.91530897,8.16664768 C1.3045062,8.16664768 -0.00136719195,9.47252107 -0.00136719195,11.0833238 L-0.00136719195,14 L13.9986328,14 L13.9986328,11.0833238 C13.9986328,9.47252107 12.6928733,8.16664768 11.0819566,8.16664768 L2.91530897,8.16664768 Z M1.16528049,11.0833238 C1.16528049,10.1168558 1.94884098,9.33340929 2.91530897,9.33340929 L11.0819566,9.33340929 C12.0485158,9.33340929 12.8319851,10.1168558 12.8319851,11.0833238 L12.8319851,12.8333523 L1.16528049,12.8333523 L1.16528049,11.0833238 Z" id="Fill-1" fill="#000000" mask="url(#mask-2)"></path>
                </g>
            </g>
        </g>
    </g>
</svg>