<?xml version="1.0" encoding="UTF-8"?>
<svg width="24px" height="24px" viewBox="0 0 24 24" version="1.1" xmlns="http://www.w3.org/2000/svg" xmlns:xlink="http://www.w3.org/1999/xlink">
    <title>shangjiantou_huaban备份 2</title>
    <g id="页面-1" stroke="none" stroke-width="1" fill="none" fill-rule="evenodd" opacity="0.400000006">
        <g id="launchpad-farm-Active展开" transform="translate(-1607.000000, -1764.000000)" fill="#2B1106">
            <g id="shangjiantou_huaban备份-2" transform="translate(1619.000000, 1776.000000) scale(1, -1) translate(-1619.000000, -1776.000000) translate(1607.000000, 1764.000000)">
                <path d="M17.2248567,14.4218501 C17.3989331,14.4218501 17.5730016,14.3554021 17.7058661,14.2225376 C17.8387265,14.0896772 17.9051786,13.9156423 17.9051786,13.7415962 C17.9051786,13.5675501 17.8387265,13.3935152 17.7058675,13.2606562 L17.7058675,13.2606562 L12.7890567,8.34394751 C12.5715561,8.12640334 12.2858858,8.0177099 12.0002594,8.0177099 C11.7146362,8.0177099 11.4289758,8.1264011 11.2114721,8.34396287 L11.2114721,8.34396287 L6.29442846,13.2608701 C6.16141815,13.3934555 6.09492347,13.5676624 6.09492347,13.7415452 C6.09492347,13.9154072 6.16152498,14.0894184 6.29437202,14.2222655 C6.42723346,14.3551269 6.60127673,14.421578 6.77533042,14.421578 C6.9493841,14.421578 7.12342738,14.3551269 7.25629229,14.222262 L7.25629229,14.222262 L11.9999145,9.47888488 L16.7438472,14.2225376 C16.8767118,14.3554021 17.0507802,14.4218501 17.2248567,14.4218501 Z" id="Fill-1"></path>
                <path d="M11.999915,24 C15.3136049,24 18.3136258,22.6568231 20.4852244,20.4852244 C22.6568231,18.3136258 24,15.3136049 24,11.999915 C24,8.68630036 22.6568154,5.68631494 20.4852067,3.51473653 C18.3136093,1.34316947 15.3135958,0 11.999915,0 C8.68630946,0 5.68633143,1.34317718 3.5147543,3.5147543 C1.34317718,5.68633143 0,8.68630946 0,11.999915 C0,15.3135958 1.34316947,18.3136093 3.51473653,20.4852067 C5.68631494,22.6568154 8.68630036,24 11.999915,24 Z M11.999915,22.6394922 C9.06661222,22.6394922 6.40670535,21.446358 4.48015885,19.5197801 C2.5536262,17.5932161 1.36050777,14.9332834 1.36050777,11.999915 C1.36050777,9.06662224 2.55363396,6.40672352 4.48017874,4.48017874 C6.40672352,2.55363396 9.06662224,1.36050777 11.999915,1.36050777 C14.9332834,1.36050777 17.5932161,2.5536262 19.5197801,4.48015885 C21.446358,6.40670535 22.6394922,9.06661222 22.6394922,11.999915 C22.6394922,14.9332934 21.4463657,17.5932343 19.5198,19.5198 C17.5932343,21.4463657 14.9332934,22.6394922 11.999915,22.6394922 Z" id="Fill-3"></path>
            </g>
        </g>
    </g>
</svg>