<?xml version="1.0" encoding="UTF-8"?>
<svg width="193px" height="54px" viewBox="0 0 193 54" version="1.1" xmlns="http://www.w3.org/2000/svg" xmlns:xlink="http://www.w3.org/1999/xlink">
    <title>harwell</title>
    <g id="页面-1" stroke="none" stroke-width="1" fill="none" fill-rule="evenodd">
        <g id="harwell-launchpad" transform="translate(-240.000000, -4743.000000)" fill-rule="nonzero">
            <g id="harwell" transform="translate(240.000000, 4743.000000)">
                <g id="编组">
                    <path d="M58.7504385,17.0837515 C58.7504385,17.0837515 55.8292366,12.7195464 47.4527783,13.7402073 C47.4527783,13.7402073 50.6203466,19.4418302 44.1444292,20.7440527 L44.1444292,24.791501 L45.3164295,25.4672489 L45.2636367,42.825523 L41.6455698,50.202752 C41.6455698,50.202752 52.9080348,50.4136088 53.8583053,39.8902431 L53.8583053,30.2186013 C55.3470624,29.9370397 63.7340792,27.8534837 58.7504385,17.0837515 Z" id="路径" fill="#AC947C"></path>
                    <path d="M49.1597457,13.5325556 C49.1597457,13.5325556 54.0518789,13.2826696 55.4174528,15.2360034 C55.4174528,15.2360034 58.6483724,18.8575898 55.1781254,23.0563775 C55.1781254,23.0563775 53.5380289,20.3252297 52.1478184,19.6917161 C52.1478184,19.6917161 48.9661721,18.2451932 48.0334992,18.5795477" id="路径" fill="#D5BA9D"></path>
                    <path d="M56.8006242,15.5140455 C56.8006242,15.5140455 59.8062946,17.1013491 60.1652857,21.7295183 C60.1652857,21.7295183 59.8485288,24.5732908 55.9277832,23.668774 L54.6220412,23.7074888 C54.6220412,23.7074888 56.2762157,22.018119 56.6422458,19.3116079 C56.6422458,19.3116079 57.096264,16.4396793 54.938798,14.4793065 L56.8006242,15.5140455 Z" id="路径" fill="#AB875C"></path>
                    <path d="M45.1615706,25.3335071 L45.1228559,20.976341 C45.1228559,20.976341 47.4985321,19.4418302 47.9349526,18.7203285 C47.9349526,18.7203285 53.0171399,17.9284364 55.2344377,23.5596689 C55.2344377,23.5596689 53.640095,24.4923418 53.7175245,25.6115492 L53.0558546,25.6924982 L51.3136921,25.3898195 L45.1615706,25.4707684 L45.1615706,25.3335071 L45.1615706,25.3335071 Z" id="路径" fill="#AB875C"></path>
                    <path d="M45.0946997,33.4143258 L53.9075786,33.4389624 C53.9075786,33.4389624 53.7175245,42.0089943 53.295182,42.6354689 C52.8728396,43.2619436 52.591278,43.1282018 52.591278,43.1282018 L45.2812343,43.1985922 L45.0946997,33.4143258 Z" id="路径" fill="#AB875C"></path>
                    <path d="M47.139541,19.2552956 C47.139541,19.2552956 51.6410075,23.5244737 55.4420894,23.2781073 C55.4420894,23.2781073 54.2524915,18.5267549 48.1074091,18.4035717" id="路径" fill="#DDA66B"></path>
                    <path d="M53.5415484,30.5705533 L53.4500409,29.8736883 C53.471158,29.8701688 54.4073504,29.7399466 55.5441555,29.2612918 C56.582414,28.8213518 58.0113392,27.990745 58.9123364,26.5195855 C60.0772977,24.615525 60.1195319,22.0955485 59.0355196,19.0230072 C58.4266426,17.3054813 57.2018496,15.9187903 55.5793507,15.1233787 C53.4535604,14.0780812 50.8526349,13.7014925 47.8399256,14.0006518 C48.2129947,14.8629342 48.8429888,16.7564362 48.0686944,18.4352473 C47.484454,19.6987551 46.2350243,20.5610376 44.3520809,20.9939386 L44.3520809,24.7563058 L43.6481769,24.7563058 L43.6481769,20.4202568 L43.9297385,20.3639445 C45.7352524,20.0014339 46.9107722,19.2552956 47.4281417,18.1431272 C48.2974632,16.2637033 47.0128383,13.8985857 47.0022797,13.873949 L46.7488743,13.4164114 L47.2662437,13.35306 C49.0928748,13.1313302 50.8139202,13.1454083 52.3730677,13.3952943 C53.6541731,13.602946 54.8367319,13.9689761 55.8890685,14.4863456 C57.6769848,15.3627061 59.0284806,16.8901779 59.6971895,18.7836799 C60.8586312,22.0673923 60.7917603,24.791501 59.5071354,26.8856156 C58.7117238,28.1807991 57.4270989,29.2260966 55.7940414,29.9124031 C54.5727679,30.4297725 53.5837827,30.5635143 53.5415484,30.5705533 Z M53.5535604,30.2221208 L53.4535604,29.8736883 C53.4535604,29.8736883 53.4535604,29.8736883 53.4535604,29.8736883 L53.5535604,30.2221208 Z" id="形状" fill="#000000"></path>
                    <path d="M41.5681404,50.4839992 C41.5294257,50.4839992 41.5083085,50.4839992 41.49775,50.4839992 C41.3041764,50.4804797 41.1493175,50.3185818 41.1527782,50.1250081 C41.1563565,49.9314345 41.3182544,49.7730561 41.5118281,49.7800952 L41.5118281,49.7800952 C41.5399842,49.7800952 44.3063272,49.8152904 47.1360215,48.5904973 C50.8843106,46.9679984 52.9819447,44.0151209 53.3655724,39.8057746 L53.3655724,25.1962458 L53.369092,25.1786482 C53.3726115,25.1575311 53.4254043,24.6577592 53.7386416,24.1685459 C54.0342813,23.7039692 54.6255607,23.1549241 55.7306901,23.1760412 C55.9242637,23.1795607 56.0791226,23.3414586 56.0756619,23.5350323 C56.0720835,23.7286059 55.9101856,23.8834648 55.716612,23.8799453 C55.0901374,23.8658672 54.6220412,24.094636 54.329921,24.5486541 C54.1328279,24.8583719 54.0800351,25.1716092 54.0694765,25.2384801 L54.0694765,39.8374503 L54.0694765,39.8515284 C53.8477467,42.3222316 53.0417766,44.4233853 51.6832417,46.0916379 C50.59571,47.4290556 49.1527066,48.4884312 47.396466,49.2451281 C44.6442011,50.4276869 42.0327171,50.4839992 41.5681404,50.4839992 Z" id="路径" fill="#000000"></path>
                    <g transform="translate(23.981097, 0.327315)">
                        <circle id="椭圆形" fill="#FFFFFF" cx="5.40598318" cy="5.40598318" r="5.05403115"></circle>
                        <path d="M5.40598318,10.8119664 C2.42494949,10.8119664 -8.00246267e-15,8.38701688 -8.00246267e-15,5.40598318 C-8.00246267e-15,2.42494949 2.42494949,0 5.40598318,0 C8.38701688,0 10.8119664,2.42494949 10.8119664,5.40598318 C10.8119664,8.38701688 8.38701688,10.8119664 5.40598318,10.8119664 Z M5.40598318,0.70390406 C2.81209672,0.70390406 0.70390406,2.81209672 0.70390406,5.40598318 C0.70390406,7.99986965 2.81209672,10.1080623 5.40598318,10.1080623 C7.99986965,10.1080623 10.1080623,7.99986965 10.1080623,5.40598318 C10.1080623,2.81209672 7.99986965,0.70390406 5.40598318,0.70390406 Z" id="形状" fill="#000000"></path>
                    </g>
                    <circle id="椭圆形" fill="#000000" cx="29.3870806" cy="5.73329857" r="1.57322558"></circle>
                    <circle id="椭圆形" fill="#1E1306" cx="29.4715491" cy="5.92335267" r="1"></circle>
                    <path d="M8.75213308,15.6337092 C8.75213308,15.6337092 10.0297189,21.7823112 14.3340923,25.1962458 C14.3340923,25.1962458 12.6693592,18.4246888 13.5633173,15.8730366 C13.5633173,15.8730366 10.5365299,16.7036434 8.75213308,15.6337092 Z" id="路径" fill="#FFFFFF"></path>
                    <path d="M8.75213308,15.6337092 C8.75213308,15.6337092 10.0297189,21.7823112 14.3340923,25.1962458 C14.3340923,25.1962458 12.6693592,18.4246888 13.5633173,15.8730366 C13.5633173,15.8730366 10.5365299,16.7036434 8.75213308,15.6337092 Z" id="路径" fill="#FFFFFF"></path>
                    <path d="M8.75213308,15.6337092 C8.75213308,15.6337092 10.0297189,21.7823112 14.3340923,25.1962458 C14.3340923,25.1962458 12.6693592,18.4246888 13.5633173,15.8730366 C13.5633173,15.8730366 10.5365299,16.7036434 8.75213308,15.6337092 Z" id="路径" fill="#FFFFFF"></path>
                    <path d="M8.98442142,17.0837515 C8.98442142,17.0837515 10.3746319,18.716809 13.2887947,19.5720524 L13.5668369,15.8730366 C13.5668369,15.8730366 11.1876411,16.7071629 9.96284806,16.0701297 C9.96284806,16.0666102 8.45649337,15.429577 8.98442142,17.0837515 Z" id="路径" fill="#EAEAEA"></path>
                    <path d="M14.9218522,26.1113211 L14.115882,25.4707684 C11.8352329,23.661735 10.4063076,21.1030437 9.60737651,19.2764127 C8.74509404,17.3019618 8.42129817,15.7709705 8.40722009,15.7076191 L8.24532216,14.9192466 L8.93514814,15.3310304 C10.5682056,16.3129766 13.4436536,15.5386821 13.4718098,15.5316431 L14.1194015,15.3556671 L13.8976718,15.9891807 C13.0494674,18.4176497 14.6614077,25.048426 14.6790053,25.1152969 L14.9218522,26.1113211 Z M9.27302208,16.2566643 C9.4489981,16.8831389 9.76223541,17.8791631 10.2584878,19.0089292 C10.9236771,20.5328814 12.0464041,22.5847618 13.7533714,24.2213387 C13.3591852,22.3665515 12.6623201,18.5373134 13.0776235,16.3411328 C12.2329387,16.5065502 10.6139593,16.7106824 9.27302208,16.2566643 Z" id="形状" fill="#000000"></path>
                    <path d="M3.11034204,12.3077625 C3.11034204,12.3077625 3.40598174,17.6539138 7.26689551,20.3850616 C7.26689551,20.3850616 6.04914149,16.0490126 6.55243289,14.6236069 L3.11034204,12.3077625 Z" id="路径" fill="#FFFFFF"></path>
                    <path d="M3.10682252,13.35306 C3.10682252,13.35306 5.3065227,16.4889526 6.63690138,16.7493971 L6.42924968,14.8770123 L3.10682252,13.35306 Z" id="路径" fill="#EAEAEA"></path>
                    <path d="M7.87577252,21.2473441 L7.06628286,20.6736623 C5.42618639,19.5122206 4.16267861,17.6996676 3.40950126,15.4330965 C2.84285849,13.7296487 2.76542905,12.3851919 2.76190953,12.3288796 L2.7231948,11.621456 L6.98181437,14.4863456 L6.89030684,14.7432705 C6.50667913,15.8272828 7.28097359,19.1145148 7.6118085,20.2900345 L7.87577252,21.2473441 Z M3.55028207,13.0257446 C3.63475056,13.5642312 3.78960945,14.3526038 4.08172964,15.2289643 C4.50055255,16.4783941 5.2713275,18.1396076 6.66505754,19.4383106 C6.57355001,19.0546829 6.47148392,18.5936258 6.3799764,18.1044124 C6.08785621,16.5839797 6.01394628,15.4682917 6.1547271,14.7749462 L3.55028207,13.0257446 Z" id="形状" fill="#000000"></path>
                    <path d="M23.6960163,52.3845402 L5.92243876,52.5957114 C5.92243876,52.5957114 5.61976001,40.0415825 23.6960163,52.3845402 Z" id="路径" fill="#EBAF6C"></path>
                    <path d="M16.9913301,48.9213322 C16.9913301,48.9213322 15.2843628,52.3141498 12.2575753,52.4197354 L23.6608211,52.3845402 C23.6608211,52.3845402 17.7128318,49.1465815 16.9913301,48.9213322 Z" id="路径" fill="#CC985E"></path>
                    <path d="M23.4637279,52.9476634 L5.56696721,52.9476634 L5.57048673,52.5921919 C5.57048673,52.5534772 5.58456481,51.6630385 5.9470754,50.5790263 C6.4327692,49.1289839 7.3161688,48.0308936 8.50576666,47.404419 C9.93117238,46.6547611 11.7894791,46.5562146 14.0349331,47.1122988 C16.7168075,47.7774881 19.9934809,49.3964674 23.7734457,51.923483 C23.9775779,52.0607443 24.0690854,52.3141498 23.998695,52.5499576 C23.9247851,52.789285 23.7100944,52.9476634 23.4637279,52.9476634 Z M6.29902743,52.2437594 L22.9780341,52.2437594 C19.4373967,49.9173564 16.3718945,48.4215603 13.8624766,47.7986052 C11.7894791,47.2847553 10.1001094,47.3621847 8.83308205,48.0308936 C6.83399452,49.0832301 6.397574,51.3638793 6.29902743,52.2437594 Z" id="形状" fill="#000000"></path>
                    <path d="M23.7136139,15.6583458 L17.7761831,26.3506485 L17.9134444,28.1526429 C17.9134444,28.1526429 13.9645426,30.3558626 11.3073048,33.463599 C9.26598304,35.8498338 8.79788684,39.2109757 10.1529022,42.0441895 C11.5219956,44.9090791 14.5769392,48.460275 21.3977695,50.3432184 L40.4137377,50.3432184 C40.4137377,50.3432184 45.8373185,49.7484195 45.0946997,44.6415955 L45.2143634,18.628821 L23.7136139,15.6583458 Z" id="路径" fill="#EBAF6C"></path>
                    <path d="M30.8089668,41.6253666 C30.8089668,41.6253666 34.1454721,40.2105195 36.4472383,38.8906993 C38.4111307,37.7644528 40.9205486,38.9470117 41.2443445,41.1854266 C41.3499301,41.9245258 41.2091493,42.7621717 40.6495456,43.684286 C39.6042481,45.3982924 39.2698936,47.4466532 39.6429628,49.4175846 C39.685197,49.6463534 39.7203922,49.8856808 39.7450289,50.1320472 C39.7450289,50.1320472 44.3204053,50.7796389 45.1826877,45.7220882 L45.1826877,20.5152838 L40.7868069,26.7166786 L35.9756226,36.4587108 C35.9756226,36.4587108 32.8467691,39.9993482 30.066348,39.7529818 L30.8089668,41.6253666 Z" id="路径" fill="#CC985E"></path>
                    <path d="M14.2285067,30.6092681 C14.2285067,30.6092681 8.58671563,38.1058463 13.3978999,46.4083947 C13.3978999,46.4048752 3.95150739,38.8167894 14.2285067,30.6092681 Z" id="路径" fill="#EEC794"></path>
                    <path d="M18.2020451,31.7742293 C18.2020451,31.7742293 11.6522178,47.1193378 23.9951755,50.4065698 L29.7038374,50.4065698 C29.7038374,50.4065698 30.0065162,47.6331878 32.7411835,46.6829173 L29.6088104,38.8414261 C29.6088104,38.8449456 18.6736608,30.4860849 18.2020451,31.7742293 Z" id="路径" fill="#F7DDAD"></path>
                    <path d="M17.3538407,45.8135958 C17.3538407,45.8135958 24.3260104,52.3704621 29.4363539,47.4959265 C29.4363539,47.4959265 32.1710212,45.4933194 25.7619747,42.9663039 C24.9067313,42.6284299 24.1781906,42.0301115 23.7030553,41.2452584 C23.2842324,40.5519129 23.0765807,39.2004171 23.7699262,38.5563449 L30.0346723,39.9289578 L33.6597783,48.5517826 L30.1754532,50.6634948 L23.9459022,50.7690804 C23.9423827,50.7655608 18.8214807,49.5513263 17.3538407,45.8135958 Z" id="路径" fill="#D4C298"></path>
                    <path d="M45.4924055,4.20230724 C45.4924055,4.20230724 56.7971047,-0.418822916 47.4140636,10.3579483 L44.2253782,9.98135958 L45.4924055,4.20230724 Z" id="路径" fill="#EBAF6C"></path>
                    <path d="M47.0621116,6.76451802 C47.0621116,6.76451802 49.0647186,4.07208499 50.8631935,3.87499185 C50.8631935,3.87499185 51.6234099,4.50498599 50.5077219,6.28938278 C50.5851514,6.34921463 47.4175831,10.3614678 47.4175831,10.3614678 C47.4175831,10.3614678 45.0524655,9.18242847 47.0621116,6.76451802 Z" id="路径" fill="#B68A57"></path>
                    <path d="M47.5548444,10.7310174 L43.7959967,10.2875578 L45.1862073,3.94538226 L45.3586637,3.87499185 C45.4044175,3.85739425 46.523625,3.39985661 47.7836132,3.10773643 C49.6137638,2.67835495 50.7470493,2.8085772 51.2433017,3.50544222 C52.0457523,4.62464968 50.9124668,6.87714267 47.6780276,10.5902366 L47.5548444,10.7310174 Z M44.6512402,9.67868083 L47.2662437,9.98839862 C51.0884428,5.56788112 50.9195058,4.26917813 50.6696199,3.9172261 C50.1346528,3.16756827 47.5583639,3.76940624 45.7950843,4.46275174 L44.6512402,9.67868083 Z" id="形状" fill="#000000"></path>
                    <g transform="translate(19.652087, 5.543244)">
                        <path d="M28.5890634,0.242846901 C28.5890634,0.242846901 24.7879815,2.35103956 27.7584566,4.81470377 C27.7584566,4.81470377 34.6496774,13.8704295 22.1764974,15.7428143 L0.080948967,8.91494493" id="路径" fill="#EBAF6C"></path>
                        <path d="M22.1553803,16.031415 L-7.55394501e-15,9.18242847 L0.165417454,8.64394186 L22.1976145,15.4542136 C25.9564622,14.8805318 28.2652675,13.5923874 29.0606791,11.6320146 C30.2221208,8.77064459 27.7866128,5.33207326 27.5508049,5.01179691 C26.6779639,4.27973669 26.2732191,3.49136414 26.3506485,2.67131591 C26.4984684,1.10160985 28.3708532,0.0422342436 28.4518021,0 L28.7263247,0.492732842 C28.6981685,0.506810924 27.0299159,1.45708141 26.9137718,2.72762823 C26.8539399,3.36114189 27.1988529,3.99113602 27.9379522,4.60353256 L27.9625888,4.62464968 L27.9837059,4.64928632 C28.0153816,4.68800104 28.7263247,5.63123248 29.2859284,6.98272828 C30.0355863,8.79880076 30.1411719,10.4811315 29.5850877,11.8467053 C28.7016881,14.0182494 26.2239458,15.422538 22.2187317,16.0243759 L22.1553803,16.031415 Z M28.7263247,0.489213322 L28.5890634,0.242846901 L28.7263247,0.489213322 C28.7263247,0.489213322 28.7263247,0.489213322 28.7263247,0.489213322 L28.7263247,0.489213322 Z" id="形状" fill="#000000"></path>
                    </g>
                    <g transform="translate(20.866298, 18.984293)">
                        <path d="M6.06063831,20.624389 L6.06063831,20.624389 C1.78090162,19.2904908 -0.608852667,14.7432705 0.725045528,10.4600143 L3.84334052,0.443459558 L19.3433079,5.26872189 L16.2250129,15.2852767 C14.8911147,19.5685329 10.340375,21.9582872 6.06063831,20.624389 Z" id="路径" fill="#E5933F"></path>
                        <path d="M8.48206827,21.3458906 C7.6373834,21.3458906 6.78565949,21.2191879 5.9550527,20.9587434 L5.9550527,20.9587434 C3.79406723,20.286515 2.02726804,18.811836 0.974931469,16.809229 C-0.0774051014,14.8066219 -0.285056799,12.5154142 0.387171579,10.3544287 L3.61105218,-3.55271368e-15 L19.783248,5.03643355 L16.5593674,15.3908623 C15.887139,17.5518477 14.41246,19.3186469 12.4098529,20.3709835 C11.1780208,21.0185752 9.83708359,21.3458906 8.48206827,21.3458906 Z M6.16270439,20.2900345 C10.2488675,21.5641009 14.6130726,19.2728932 15.8836195,15.1832106 L18.8998484,5.50101023 L4.07210934,0.883399596 L1.05588044,10.5655999 C-0.214666393,14.6552825 2.07654132,19.0159682 6.16270439,20.2900345 L6.05711879,20.624389 L6.16270439,20.2900345 Z" id="形状" fill="#000000"></path>
                    </g>
                    <path d="M44.4999008,15.2887962 C44.4999008,15.2887962 43.7291258,17.8122923 37.2532085,14.813661 C37.2532085,14.813661 23.74177,11.9030177 11.7155692,16.4783941 C11.7155692,16.4783941 1.64974111,14.5778531 2.21286436,9.82650068 L7.5590157,6.7961937 L34.4059166,6.85602555" id="路径" fill="#EBAF6C"></path>
                    <path d="M6.55595241,14.6236069 C6.55595241,14.6236069 4.18027621,11.9170957 4.08172964,9.43231441 L34.3707214,7.65143714 L34.402397,6.85602555 L8.23828312,6.73988138 C8.23828312,6.73988138 0.597404539,6.33865606 2.53666023,11.5721828 C2.54017975,11.5721828 4.16267861,13.9267418 6.55595241,14.6236069 Z" id="路径" fill="#EEC794"></path>
                    <path d="M43.6868916,16.0982859 C40.9979781,16.0982859 38.6398995,15.5844359 37.337677,14.8101414 C32.6672735,13.9936127 26.7791161,13.2439549 23.0976978,13.8105977 L20.0357152,14.7608681 L23.132893,15.5703578 C23.132893,15.5703578 33.6562587,14.7608681 40.2025665,17.68207 C40.2025665,17.68207 43.2997444,18.8435117 44.4963813,16.2742619 C44.4963813,16.2742619 44.9891141,14.6552825 43.7396844,16.0982859 C43.7220868,16.0982859 43.7044892,16.0982859 43.6868916,16.0982859 Z" id="路径" fill="#B68A57"></path>
                    <path d="M11.7472449,16.8409046 L11.6486983,16.823307 C11.5431127,16.8021899 9.06537039,16.3270547 6.60874522,15.2571205 C5.14814429,14.6200873 4.00430019,13.9021052 3.2088886,13.1207717 C2.17063011,12.1036303 1.716612,10.9809033 1.85739281,9.78426644 L1.87850993,9.60829043 L7.46046913,6.44424167 L34.3988775,6.50407352 C34.5924511,6.50407352 34.7508296,6.66245193 34.7508296,6.85602555 C34.7508296,7.04959917 34.5924511,7.20797758 34.3988775,7.20797758 C34.3988775,7.20797758 34.3988775,7.20797758 34.3988775,7.20797758 L7.64700371,7.14814573 L2.54369927,10.0411914 C2.49090646,10.9457081 2.88157322,11.8115101 3.69810193,12.6139608 C4.43016215,13.3319429 5.50009632,14.0041713 6.87974828,14.6060093 C8.9984995,15.5316431 11.2017192,16.0138174 11.680374,16.1123639 C14.4255998,15.077625 17.4699849,14.3455648 20.7325802,13.9373004 C23.3687009,13.6064655 26.1491219,13.4868018 29.0034529,13.5783093 C33.8603909,13.7331682 37.2919232,14.4617089 37.3271184,14.468748 L37.3658331,14.475787 L37.4010283,14.4933846 C39.0164882,15.2430424 40.4102182,15.7040996 41.5329452,15.8659975 C42.3600324,15.9856612 43.0287413,15.9399074 43.5179546,15.7357753 C44.0388436,15.517565 44.1585073,15.1937691 44.1655464,15.1796911 C44.1655464,15.1832106 44.1620268,15.1867301 44.1620268,15.1867301 L44.8342552,15.3943818 C44.8166576,15.4577332 44.6266035,16.0138174 43.8417505,16.3622499 C43.2399125,16.6332529 42.4480205,16.7036434 41.4871914,16.5734211 C40.2905545,16.4115232 38.8299536,15.9328684 37.1370643,15.1515349 C36.7569561,15.0741055 33.4908413,14.4265137 28.9612187,14.2822134 C24.5442207,14.1414326 17.9873544,14.4652284 11.8352329,16.8057094 L11.7472449,16.8409046 Z" id="路径" fill="#000000"></path>
                    <path d="M43.5989036,10.660627 C43.5989036,10.660627 46.537703,10.6430294 48.6670128,12.4027895 L47.7061838,10.6219123 L46.6679253,9.46399009 L46.1505558,8.07377957 L45.8056428,7.77110083 L43.5989036,10.660627 Z" id="路径" fill="#CC985E"></path>
                    <g transform="translate(33.828715, 0.000000)">
                        <circle id="椭圆形" fill="#FFFFFF" cx="6.20139477" cy="6.19787525" r="5.84944274"></circle>
                        <path d="M6.20139477,12.4027895 C2.78042104,12.4027895 0,9.61884899 0,6.20139477 C0,2.78394056 2.78394056,0 6.20139477,0 C9.61884899,0 12.4027895,2.78394056 12.4027895,6.20139477 C12.4027895,9.61884899 9.61884899,12.4027895 6.20139477,12.4027895 Z M6.20139477,0.70038454 C3.17108779,0.70038454 0.70390406,3.16756827 0.70390406,6.19787525 C0.70390406,9.22818223 3.16756827,11.6988855 6.20139477,11.6988855 C9.23522127,11.6988855 11.6988855,9.23170175 11.6988855,6.20139477 C11.6988855,3.17108779 9.23170175,0.70038454 6.20139477,0.70038454 Z" id="形状" fill="#000000"></path>
                    </g>
                    <path d="M23.6080283,23.0282213 L35.3773042,26.6216516 C35.3773042,26.6216516 35.6694244,28.768559 32.2519701,28.5573877 L22.8548509,29.7540246 L21.8658657,28.1596819 L23.6080283,23.0282213 Z" id="路径" fill="#FFA045"></path>
                    <path d="M23.653782,15.8835951 L17.8219369,25.9740598 C17.748027,26.1007626 17.7057927,26.2380239 17.6917146,26.3823242 C17.5298167,27.9766669 16.9314983,37.359708 25.9485093,31.4011601 C25.9625874,31.3906016 25.980185,31.380043 25.994263,31.3694845 C26.2371099,31.1899889 28.5247981,29.5358144 30.0980237,29.7821808 C30.5520418,29.8525712 30.9955014,29.6132438 31.1855555,29.1944209 C31.6853274,28.0928111 31.9985647,26.3576875 28.4790444,27.0897478 C28.4332906,27.1003063 28.3875368,27.1108649 28.3417831,27.1284625 L23.5094817,28.8741446 C23.4918841,28.8811836 23.470767,28.8882226 23.4496499,28.8917422 L23.4496499,28.8917422 C22.6647968,29.1240305 21.9397757,28.3778922 22.1931811,27.6000782 L24.1148392,21.7295183" id="路径" fill="#EBAF6C"></path>
                    <path d="M21.0317394,33.7099655 C20.3806282,33.7099655 19.8069464,33.5586261 19.310694,33.2594669 C16.9737325,31.8481392 17.2095404,27.6071173 17.3362431,26.3436095 C17.3573602,26.1500358 17.4171921,25.9635013 17.5122191,25.7945643 L23.3440643,15.7040996 L23.9529413,16.0560516 L18.1246156,26.1500358 C18.0788619,26.2309848 18.0471862,26.3224923 18.0401472,26.4175194 C17.9556787,27.2446067 17.6424414,31.4293163 19.6767241,32.6611484 C20.2574449,33.0131004 21.0035833,33.0975689 21.8975414,32.9145539 C22.9745146,32.6963436 24.2696981,32.0874666 25.7514161,31.10904 C25.7619747,31.1020009 25.7725333,31.0949619 25.7830918,31.0879228 C26.2195123,30.764127 28.4755249,29.1733038 30.1508165,29.4372678 C30.4464562,29.4830216 30.7385764,29.3246432 30.8617596,29.0536401 C31.0377356,28.6629733 31.2911411,27.9555498 31.0025404,27.5930392 C30.8300839,27.3783484 30.2845583,27.0756697 28.5494348,27.4381803 C28.5212786,27.4452193 28.4896029,27.4522584 28.4614468,27.4628169 L23.6256259,29.208499 C23.6009892,29.2190576 23.5728331,29.2260966 23.5481964,29.2331356 C23.0589831,29.377436 22.5345746,29.2401747 22.179103,28.8741446 C21.8236315,28.5081144 21.7004483,27.9801864 21.8588267,27.4944926 L23.7840043,21.6204132 L24.4527131,21.8386235 L22.5275355,27.7127029 C22.4501061,27.9520302 22.5064184,28.2019162 22.6823944,28.3849312 C22.8583705,28.5644268 23.1082564,28.6312977 23.3475838,28.5609073 C23.3616619,28.5573877 23.3722204,28.5538682 23.3862985,28.5468292 L28.2185999,26.8011471 C28.2784317,26.78003 28.3417831,26.7624324 28.4016149,26.7483543 C30.0276333,26.4069608 31.0588528,26.5407026 31.5480661,27.1530991 C31.9422524,27.645832 31.9246548,28.4025288 31.4987928,29.3422408 C31.2453873,29.9018445 30.6435494,30.2256404 30.0381919,30.1306133 C28.8767502,29.9475983 27.0782753,30.9999348 26.1983952,31.6510461 C26.1772781,31.6651242 26.1596805,31.6792022 26.1385634,31.6932803 C24.5794159,32.7209803 23.1997639,33.3650525 22.0383222,33.6043798 C21.6863702,33.6747703 21.3520158,33.7099655 21.0317394,33.7099655 Z" id="路径" fill="#000000"></path>
                    <path d="M42.8985191,32.6893046 C40.8501582,38.2712638 34.3460847,35.8357557 34.3460847,35.8357557 C28.0813386,33.7275631 26.0892901,39.2813661 26.0892901,39.2813661 C22.7351872,38.7182428 23.3581423,36.5502183 23.3581423,36.5502183 C26.684089,31.8270221 33.4556461,31.204067 33.4556461,31.204067 C39.7203922,30.8169198 39.6922361,20.9305872 39.6922361,20.9305872" id="路径" fill="#EBAF6C"></path>
                    <path d="M37.0948301,28.9621326 C37.0948301,28.9621326 42.3248372,28.4693997 42.6169574,33.0025419 L44.0388436,29.9651959 L44.8835285,20.3921006 L39.0411248,21.5535423 L39.428272,25.4602099 L37.0948301,28.9621326 Z" id="路径" fill="#CC985E"></path>
                    <path d="M28.2361975,32.9145539 C28.2361975,32.9145539 31.3861681,33.4143258 34.1454721,33.0025419 C36.1164034,32.7104217 37.6403557,31.1125595 37.858566,29.1310695 C37.9078393,28.6664929 37.9958273,28.166721 38.1366081,27.6915857 C38.6187824,26.0585283 37.7037071,31.4785896 33.4450875,31.197028 C33.4450875,31.197028 29.2568584,31.7777488 28.2361975,32.9145539 Z" id="路径" fill="#F4CAA4"></path>
                    <path d="M26.3215784,39.6790719 L26.0329778,39.6297986 C24.6990796,39.4045493 23.7804848,38.9082969 23.3053495,38.1516001 C22.780941,37.3174738 23.0097098,36.486867 23.0202684,36.4516718 L23.037866,36.3953594 L23.0730612,36.3460862 C23.8579142,35.2339177 24.8926532,34.2519716 26.1491219,33.4284038 C27.1486657,32.7737731 28.2889903,32.2176888 29.53842,31.7742293 C31.6642102,31.0210519 33.35358,30.859154 33.4239704,30.852115 L33.434529,30.852115 C35.8665175,30.7007756 37.601641,29.0114059 38.5835872,25.833279 C39.3367645,23.3907319 39.340284,20.9552239 39.340284,20.9305872 C39.340284,20.7370136 39.4986624,20.5786352 39.6922361,20.5786352 C39.6922361,20.5786352 39.6922361,20.5786352 39.6922361,20.5786352 C39.8858097,20.5786352 40.0441881,20.7370136 40.0441881,20.9305872 C40.0441881,21.0326533 40.0441881,23.485759 39.2593351,26.0268526 C38.7947584,27.5402464 38.1471666,28.7650394 37.3341575,29.6730757 C36.2994185,30.8274783 35.004235,31.460992 33.4802827,31.556019 C33.3852557,31.5665776 31.7451592,31.7355146 29.7495912,32.4464577 C27.894804,33.104608 25.3431518,34.3751548 23.6819382,36.6980382 C23.653782,36.8493776 23.6009892,37.3174738 23.903668,37.7890895 C24.2415419,38.313498 24.9032117,38.6830476 25.8710798,38.8836603 C26.0892901,38.401486 26.6348157,37.3808251 27.63084,36.5044646 C28.4192125,35.8111191 29.3307683,35.3535814 30.3338316,35.1424102 C31.5762222,34.8819657 32.9629132,35.0016294 34.4516703,35.5049208 L34.4622289,35.5084403 C34.4939046,35.5189989 37.5523677,36.6346868 39.9984343,35.5084403 C41.1809931,34.9629147 42.0432756,33.9739295 42.5606451,32.5661214 C42.627516,32.3831063 42.8281286,32.2915988 43.0111437,32.3584697 C43.1941588,32.4253405 43.2856663,32.6259532 43.2187954,32.8089683 C42.634555,34.3997914 41.6490893,35.5225184 40.287035,36.148993 C37.601641,37.3808251 34.4235142,36.2440201 34.219382,36.1665906 C31.7627568,35.3395034 29.707357,35.6245845 28.1130143,37.0112755 C26.9058188,38.0600926 26.4166055,39.3834322 26.413086,39.3975103 L26.3215784,39.6790719 Z" id="路径" fill="#000000"></path>
                    <path d="M39.1995032,26.428078 L24.1148392,21.7295183 C22.7175896,21.2930978 21.9362561,19.8078603 22.3691571,18.4070912 L22.3691571,18.4070912 C22.8055776,17.0098416 24.2908152,16.2285081 25.6915843,16.6614091 L40.7762483,21.3564492 C42.1734979,21.7928697 42.9548314,23.2781073 42.5219304,24.6788764 L42.5219304,24.6788764 C42.0855099,26.083165 40.6002723,26.8644985 39.1995032,26.428078 Z" id="路径" fill="#C66A3B"></path>
                    <path d="M22.4465866,19.8289774 L37.3517551,24.5380955 C39.2487765,25.136414 40.9240682,23.1162093 39.9632391,21.3740468 C39.8858097,21.2297465 39.7943021,21.0819266 39.6922361,20.9305872 C39.6922361,20.9305872 42.018639,21.5711399 42.2544468,22.9331943 C42.2544468,22.9331943 43.1976783,26.7976276 39.2171008,26.4104803 L22.8513314,21.1945513 C22.8513314,21.1945513 22.3234034,20.9904191 22.4465866,19.8289774 Z" id="路径" fill="#9D6448"></path>
                    <path d="M39.9878758,26.8996937 C39.6922361,26.8996937 39.3930768,26.8574594 39.0974371,26.7624324 L24.0127731,22.0673923 C23.2455177,21.8280649 22.6190431,21.3071759 22.2459739,20.5962328 C21.8729048,19.8852897 21.7989948,19.0722805 22.0383222,18.3050251 C22.2776496,17.5377697 22.7985386,16.9112951 23.5094817,16.5382259 C24.2204248,16.1651567 25.033434,16.0912468 25.8006894,16.3305742 L40.8818339,21.0256143 C42.4620985,21.5183471 43.3490177,23.2041974 42.8562848,24.7879815 C42.458579,26.0726064 41.2689812,26.8996937 39.9878758,26.8996937 Z M39.3050888,26.090204 C40.5158038,26.4667927 41.8074678,25.7875253 42.187576,24.5768103 C42.5641646,23.3660953 41.8848972,22.0744313 40.6741822,21.6943231 L25.5895182,17.0028026 C25.0017583,16.8197875 24.3788032,16.8760999 23.8367971,17.161181 C23.2912714,17.4462621 22.8935657,17.9284364 22.7105506,18.5126768 C22.5275355,19.0969172 22.5838479,19.7233918 22.868929,20.2653979 C23.1540102,20.8109235 23.6361844,21.2086293 24.2204248,21.3916444 L39.3050888,26.090204 Z" id="形状" fill="#000000"></path>
                    <path d="M8.97386286,9.45343153 C7.40063728,10.8893958 5.010883,10.1291794 3.30391565,9.99543766 C0.826173359,9.80186404 -0.300073138,6.13452389 0.727626791,4.50498599 C1.75532672,2.87544809 4.92993403,2.76986248 7.03108765,4.09672163 C9.13224127,5.42358079 10.3992686,8.15824806 8.97386286,9.45343153 Z" id="路径" fill="#84786D"></path>
                    <path d="M4.15563957,3.17460731 C4.15563957,3.17460731 4.31401798,6.73988138 0.590365499,7.13406765 C0.590365499,7.13406765 1.22387915,11.4102848 7.5590157,10.0658281 C7.5590157,10.0658281 11.9548966,8.8762302 7.5590157,4.52258359 C7.5590157,4.51906407 6.01394628,3.29075148 4.15563957,3.17460731 Z" id="路径" fill="#44372C"></path>
                    <path d="M6.37645688,10.667666 C5.6866309,10.667666 4.9932854,10.5691195 4.36681078,10.4811315 C3.97966355,10.4248191 3.61363344,10.3755459 3.27927901,10.3473897 C2.15303251,10.2594017 1.15348875,9.50974386 0.544611735,8.29198983 C-0.138175204,6.92993548 -0.183928968,5.29335853 0.435506606,4.31845141 C0.981032252,3.45616894 2.08616163,2.91768233 3.46229407,2.8437724 C4.77507514,2.773382 6.14768806,3.12181451 7.22466127,3.80108193 C8.71341836,4.74431337 9.80095013,6.3280975 9.92413334,7.74294467 C9.99452375,8.54539529 9.74815733,9.22818223 9.21670976,9.71387603 C8.39314201,10.4600143 7.3865592,10.667666 6.37645688,10.667666 Z M3.78960945,3.5371179 C3.69106289,3.5371179 3.59603584,3.54063742 3.50100879,3.54415694 C2.35364517,3.60750831 1.45264797,4.02633123 1.03030554,4.69504008 C0.544611735,5.46229551 0.6079631,6.84194747 1.17460587,7.97875253 C1.67085823,8.97125725 2.45923078,9.57661474 3.33559133,9.64700515 C3.69106289,9.67516131 4.06765156,9.72795412 4.46887687,9.78426644 C5.94003636,9.99191814 7.6118085,10.227726 8.74157452,9.19650655 L8.74157452,9.19650655 C9.11112415,8.8586326 9.27654161,8.3905364 9.2237488,7.80629603 C9.11816319,6.61669817 8.14325607,5.21592909 6.8480726,4.39940038 C5.9822706,3.85035521 4.85602411,3.5371179 3.78960945,3.5371179 Z" id="形状" fill="#000000"></path>
                    <ellipse id="椭圆形" fill="#000000" transform="translate(5.362011, 9.082006) rotate(-56.486334) translate(-5.362011, -9.082006) " cx="5.36201146" cy="9.082006" rx="1" ry="1.42531314"></ellipse>
                    <circle id="椭圆形" fill="#000000" cx="40.03011" cy="6.19787525" r="2.10467314"></circle>
                    <circle id="椭圆形" fill="#1E1306" cx="39.9949148" cy="6.92993548" r="1.30222251"></circle>
                    <circle id="椭圆形" fill="#FFFFFF" cx="38.3829745" cy="4.78302809" r="1"></circle>
                    <circle id="椭圆形" fill="#FFFFFF" cx="28.1693266" cy="4.82526233" r="1"></circle>
                    <path d="M41.8004287,21.6485694 L19.6309703,14.7925438 L19.838622,14.1203155 L41.856741,20.9270677 C45.576874,20.3569054 47.8645622,19.0863586 48.6494152,17.1506224 C49.7897398,14.3420452 47.4105441,10.9562667 47.1536191,10.6043147 C46.2667,9.85817637 45.8549161,9.0486867 45.9358651,8.20752135 C46.0872044,6.59910057 47.9912649,5.52564687 48.0722139,5.47989311 L48.4136074,6.09580916 L48.2411509,5.7896109 L48.4136074,6.09580916 C48.3960098,6.10636772 46.7488743,7.0390406 46.6362496,8.27439223 C46.5799373,8.88326924 46.9178112,9.49214626 47.6357934,10.0904647 L47.6674691,10.1151013 L47.6921057,10.146777 C47.7237814,10.1854918 48.438244,11.1357622 49.0013673,12.4978166 C49.7580641,14.3314867 49.8636497,16.031415 49.3005265,17.4145865 C48.4100878,19.6107671 45.9112284,21.0326533 41.8813777,21.6344913 L41.8004287,21.6485694 Z" id="路径" fill="#000000"></path>
                    <ellipse id="椭圆形" fill="#CE8859" transform="translate(26.686277, 18.681610) rotate(-77.150531) translate(-26.686277, -18.681610) " cx="26.6862768" cy="18.6816102" rx="1" ry="1.89710373"></ellipse>
                    <path d="M8.42129817,52.8667145 C8.24180264,52.8667145 8.09046326,52.7329727 8.07286566,52.5499576 C7.97431909,51.5891286 8.17845127,50.8535488 8.67822315,50.3643355 C9.43492002,49.6287558 10.564686,49.7660171 10.6139593,49.7730561 C10.8075329,49.7976928 10.9412747,49.9736688 10.9166381,50.1672424 C10.8920014,50.360816 10.7160254,50.4945578 10.5224518,50.4699211 C10.5083737,50.4699211 9.67072788,50.3748941 9.16391696,50.8711465 C8.82604301,51.2019814 8.69230123,51.7439875 8.76973068,52.4795672 C8.7908478,52.6731408 8.65006699,52.8455973 8.45649337,52.8667145 C8.44593481,52.8667145 8.43185673,52.8667145 8.42129817,52.8667145 Z" id="路径" fill="#000000"></path>
                    <g transform="translate(29.671781, 27.679504)" fill="#000000" id="矩形">
                        <polygon transform="translate(0.746534, 0.160545) rotate(-4.088092) translate(-0.746534, -0.160545) " points="0.00569936984 0.0541584316 1.48759789 0.0525557578 1.48736948 0.266932163 0.00547096026 0.268534836"></polygon>
                        <polygon transform="translate(0.852126, 0.839455) rotate(-4.088092) translate(-0.852126, -0.839455) " points="0.11129107 0.733067837 1.59318959 0.731465164 1.59296118 0.945841568 0.111062661 0.947444242"></polygon>
                    </g>
                    <g transform="translate(23.696789, 36.587792)" fill="#000000" id="矩形">
                        <polygon transform="translate(0.656528, 0.780893) rotate(-51.222973) translate(-0.656528, -0.780893) " points="-0.26031948 0.675305784 1.57337613 0.675305784 1.57337613 0.886479943 -0.26031948 0.886479943"></polygon>
                        <polygon transform="translate(1.466604, 1.292585) rotate(-51.626525) translate(-1.466604, -1.292585) " points="0.711648355 1.18699683 2.22155928 1.18699683 2.22155928 1.39817319 0.711648355 1.39817319"></polygon>
                    </g>
                    <path d="M23.727692,51.2653327 C23.6854577,51.2547742 22.6436797,51.0365639 21.3308986,50.3221013 C20.1201837,49.6604315 18.437853,48.4285994 17.3080869,46.3204067 C16.4282069,44.6767907 15.9988254,42.737535 16.0340206,40.5483934 C16.0762548,37.9650655 16.7660808,34.9981099 18.0894204,31.7355146 L18.7405317,31.9994786 C16.3648555,37.8559604 16.0903329,42.561559 17.924003,45.9860523 C19.9301296,49.7308219 23.8262385,50.5684677 23.8649533,50.5755067 L23.727692,51.2653327 Z" id="路径" fill="#000000"></path>
                    <path d="M26.4095664,51.4166721 C24.505506,51.4166721 22.699992,51.2090204 21.0141418,50.7972365 C18.5293605,50.1883595 16.2909456,49.1289839 14.3692875,47.6543049 C11.1348483,45.1695236 9.91005526,42.385583 9.82910629,42.1920094 C8.92107005,40.2421951 8.76269164,38.2712638 9.35749057,36.3284886 C9.82910629,34.7904582 10.7758573,33.2735449 12.1660678,31.8199831 C14.5135878,29.3739164 17.2869698,27.9696278 17.403114,27.909796 L17.7198708,28.5397901 C17.6917146,28.5538682 14.9253717,29.9546373 12.6623201,32.3197549 C9.68832548,35.4274914 8.95274574,38.6478524 10.469659,41.8963697 L10.476698,41.9104478 C10.4872566,41.9386039 11.6838935,44.7119859 14.8303446,47.1193378 C17.7339489,49.3366356 22.9428389,51.6876752 31.2841021,50.2904256 L31.4002462,50.9837711 C29.6721618,51.2688522 28.0039091,51.4166721 26.4095664,51.4166721 Z" id="路径" fill="#000000"></path>
                    <path d="M39.3719597,50.8676269 L39.3473231,50.1637229 C41.3640082,50.0933325 42.8457262,49.5337287 43.7537625,48.5025093 C44.8377747,47.2706772 44.7145915,45.7819201 44.711072,45.7643225 L44.711072,45.7326468 L44.711072,20.4800886 L45.4149761,20.4800886 L45.4149761,45.7185687 C45.4290542,45.9227009 45.5100031,47.5698364 44.2816905,48.967086 C43.2399125,50.1496448 41.5892575,50.7901975 39.3719597,50.8676269 Z" id="路径" fill="#000000"></path>
                    <polygon id="矩形" fill="#000000" transform="translate(32.035568, 44.713516) rotate(-22.736659) translate(-32.035568, -44.713516) " points="31.6836126 39.523933 32.3875235 39.523933 32.3875235 49.9030998 31.6836126 49.9030998"></polygon>
                    <ellipse id="椭圆形" fill="#CECECE" transform="translate(1.962739, 4.300424) rotate(-30.000728) translate(-1.962739, -4.300424) " cx="1.96273909" cy="4.30042443" rx="1" ry="1"></ellipse>
                    <path d="M41.4343986,53.2855374 C41.4343986,53.2749788 41.4343986,53.2644203 41.4343986,53.2538617 C41.4343986,49.7800952 38.8721878,47.6859806 35.7116586,47.6859806 C32.5511294,47.6859806 29.9889186,49.7800952 29.9889186,53.2538617 C29.9889186,53.2644203 29.9889186,53.2749788 29.9889186,53.2855374 L41.4343986,53.2855374 Z" id="路径" fill="#EBAF6C"></path>
                    <path d="M31.6184565,53.5530209 C31.6184565,53.5530209 32.4983366,47.2284429 38.900344,48.7664733 C38.900344,48.7664733 41.5435037,49.6252363 41.42384,53.303135 L31.6184565,53.5530209 Z" id="路径" fill="#CC985E"></path>
                    <path d="M41.7828311,54 L29.6369666,54 L29.6369666,53.6163723 C29.6369666,51.8566121 30.2564021,50.353777 31.4248829,49.2732842 C32.5229732,48.2561429 34.0469255,47.6965391 35.7116586,47.6965391 C37.3763917,47.6965391 38.900344,48.2561429 39.9984343,49.2732842 C41.1704346,50.3572965 41.7863506,51.8566121 41.7863506,53.6163723 C41.7863506,53.6234113 41.7863506,53.6304504 41.7863506,53.6410089 L41.7863506,53.6515675 L41.7828311,54 Z M30.3479097,53.2960959 L41.0754075,53.2960959 C40.9275877,50.3995307 38.7630827,48.4004432 35.7116586,48.4004432 C32.6602345,48.4004432 30.4957295,50.3960112 30.3479097,53.2960959 Z" id="形状" fill="#000000"></path>
                    <path d="M36.8449441,53.8873754 C36.6513705,53.8873754 36.4929921,53.7289969 36.4929921,53.5354233 L36.4929921,51.1914228 C36.4929921,50.9978492 36.6513705,50.8394708 36.8449441,50.8394708 C37.0385178,50.8394708 37.1968962,50.9978492 37.1968962,51.1914228 L37.1968962,53.5354233 C37.1968962,53.7289969 37.0385178,53.8873754 36.8449441,53.8873754 Z" id="路径" fill="#000000"></path>
                    <path d="M34.6487635,53.8873754 C34.4551898,53.8873754 34.2968114,53.7289969 34.2968114,53.5354233 L34.2968114,51.1914228 C34.2968114,50.9978492 34.4551898,50.8394708 34.6487635,50.8394708 C34.8423371,50.8394708 35.0007155,50.9978492 35.0007155,51.1914228 L35.0007155,53.5354233 C35.0007155,53.7289969 34.8423371,53.8873754 34.6487635,53.8873754 Z" id="路径" fill="#000000"></path>
                </g>
                <g id="编组" transform="translate(62.650067, 11.808411)" fill="#FFFFFF">
                    <path d="M34.2273349,20.0432482 C34.2273349,18.8219746 34.4561038,17.6710915 34.9171609,16.5870792 C35.3782181,15.503067 36.0117317,14.5598355 36.8177019,13.7538654 C37.623672,12.9478952 38.5669035,12.3073426 39.6509157,11.8357268 C40.734928,11.3641111 41.8858111,11.1283033 43.1070847,11.1283033 C44.212214,11.1283033 45.2610311,11.3253964 46.2535358,11.7160631 C47.1580525,12.0750542 47.9745812,12.5466699 48.7066415,13.1344298 C48.8333442,13.2364959 49.0093202,13.2540935 49.1536205,13.1766641 L51.5328163,11.8990782 C51.8038193,11.7547779 52.1276152,11.9483515 52.1276152,12.2545498 L52.1276152,28.1064692 C52.1276152,28.328199 51.9481197,28.511214 51.7228704,28.511214 L48.5940168,28.511214 C48.372287,28.511214 48.189272,28.3317185 48.189272,28.1064692 L48.189272,28.1064692 C48.189272,27.7932319 47.851398,27.5996583 47.580395,27.7580367 C46.2359382,28.5358507 44.7471811,28.9265174 43.1106042,28.9265174 C41.8893306,28.9265174 40.7384475,28.6942291 39.6544352,28.2366914 C38.570423,27.7756343 37.6271916,27.1421206 36.8212214,26.3361505 C36.0152513,25.5301803 35.3817376,24.5869489 34.9206804,23.5029366 C34.4561038,22.4154049 34.2273349,21.2645217 34.2273349,20.0432482 Z M38.1656782,20.0432482 C38.1656782,20.7330742 38.2923809,21.3806659 38.5457864,21.9789843 C38.7991918,22.5773028 39.1511438,23.1017113 39.5981229,23.5522099 C40.0486215,24.0027085 40.5695105,24.3546605 41.1713485,24.6045465 C41.7696669,24.857952 42.4137392,24.9846547 43.1070847,24.9846547 C43.8004302,24.9846547 44.4480219,24.857952 45.0604184,24.6045465 C45.6692954,24.351141 46.200743,23.999189 46.6512416,23.5522099 C47.1017402,23.1017113 47.4501727,22.5808223 47.7035782,21.9789843 C47.9569836,21.3806659 48.0836864,20.7365937 48.0836864,20.0432482 C48.0836864,19.3534222 47.9569836,18.7058305 47.7035782,18.107512 C47.4501727,17.5091936 47.0982207,16.984785 46.6512416,16.5342864 C46.200743,16.0837878 45.672815,15.7283163 45.0604184,15.4643523 C44.4480219,15.2003882 43.8004302,15.0666465 43.1070847,15.0666465 C42.4137392,15.0666465 41.7696669,15.2003882 41.1713485,15.4643523 C40.57303,15.7283163 40.0486215,16.0873074 39.5981229,16.5342864 C39.1476243,16.984785 38.7956723,17.5091936 38.5457864,18.107512 C38.2923809,18.7058305 38.1656782,19.3534222 38.1656782,20.0432482 Z" id="形状"></path>
                    <path d="M58.6950401,13.4899014 C58.8534185,13.5990065 59.0681092,13.5849284 59.2053705,13.4511867 C59.8705599,12.817673 60.6518934,12.289745 61.5458515,11.870922 C62.5489148,11.3993063 63.6364466,11.1634985 64.8119664,11.1634985 C65.878381,11.1634985 66.91312,11.3465135 67.9056247,11.7125436 C68.1097569,11.7864536 68.2153425,12.0081833 68.1519911,12.215835 L67.1982011,15.1863102 C67.1278107,15.4080399 66.8849638,15.5241841 66.6702731,15.4397156 C66.4274262,15.3446886 66.1634622,15.2707786 65.8854201,15.2215054 C65.4489995,15.1405564 64.9985009,15.1018417 64.5374438,15.1018417 C63.7525908,15.1018417 63.0698038,15.2989348 62.4820439,15.6896016 C61.894284,16.0802683 61.4121098,16.5589231 61.0320016,17.1220463 C60.6518934,17.6851696 60.3703317,18.2905271 60.1837972,18.9345993 C60.0007821,19.5786715 59.9057551,20.1558728 59.9057551,20.6626838 L59.9057551,28.1029497 C59.9057551,28.3246795 59.7262595,28.5076945 59.5010102,28.5076945 L56.3721567,28.5076945 C56.1504269,28.5076945 55.9674118,28.328199 55.9674118,28.1029497 L55.9674118,12.3530963 C55.9674118,12.0257809 56.3369615,11.8322073 56.604445,12.0222614 L58.6950401,13.4899014 Z" id="路径"></path>
                    <path d="M96.4489344,12.1630422 L88.4525842,28.2190938 C88.3047644,28.5147335 87.8859415,28.5182531 87.7310826,28.2296524 L83.2753699,19.8215184 C83.1240305,19.5329177 82.7122466,19.5329177 82.5609073,19.8215184 L78.1051946,28.2296524 C77.9503357,28.5217726 77.5315127,28.5147335 77.3836929,28.2190938 L69.3873428,12.1595227 C69.253601,11.8920392 69.4506941,11.5752823 69.7498534,11.5752823 L73.2658541,11.5752823 C73.420713,11.5752823 73.5614938,11.6632703 73.6318842,11.8040512 L77.4400052,19.7335304 C77.580786,20.0256506 77.9925699,20.0432482 78.1544678,19.7616866 L82.5679463,12.1771203 C82.7228052,11.9096368 83.1134719,11.9096368 83.2683308,12.1771203 L87.6501336,19.758167 C87.8120315,20.0397287 88.2238154,20.0256506 88.3645962,19.7300109 L92.1727172,11.8040512 C92.2395881,11.6632703 92.3803689,11.5752823 92.5387473,11.5752823 L96.0899433,11.5752823 C96.3891025,11.5752823 96.5826761,11.8920392 96.4489344,12.1630422 Z" id="路径"></path>
                    <path d="M106.623868,11.1283033 C107.799387,11.1283033 108.904517,11.3641111 109.942775,11.8357268 C110.981034,12.3073426 111.878511,12.9478952 112.638728,13.7538654 C113.398944,14.5598355 114.004302,15.5065865 114.451281,16.5870792 C114.901779,17.6710915 115.123509,18.8219746 115.123509,20.0432482 C115.123509,20.5746957 115.077755,21.0955847 114.982728,21.6129542 C114.947533,21.8065279 114.778596,21.9437891 114.585022,21.9437891 L103.058593,21.9437891 C102.755915,21.9437891 102.558822,22.2640655 102.699602,22.531549 C102.840383,22.7990326 103.002281,23.0489185 103.185296,23.2741678 C103.495014,23.654276 103.843447,23.9710328 104.223555,24.2244383 C104.603663,24.4778438 105.001369,24.6678979 105.416672,24.7946006 C105.831975,24.9213033 106.222642,24.9846547 106.592192,24.9846547 C107.721958,24.9846547 108.647592,24.857952 109.372613,24.6045465 C109.960373,24.4004143 110.460145,24.1258917 110.871929,23.7880178 C111.037346,23.654276 111.276673,23.6648346 111.424493,23.8161739 L113.599557,26.0721865 C113.757935,26.2376039 113.750896,26.4980484 113.581959,26.6529073 C112.856938,27.3040186 111.994656,27.8319466 110.998631,28.2331719 C109.858307,28.6942291 108.36603,28.9229979 106.521801,28.9229979 C105.346282,28.9229979 104.248191,28.68719 103.220491,28.2155743 C102.196311,27.7439586 101.302353,27.1034059 100.542136,26.2974358 C99.7819201,25.4914656 99.1836016,24.5517537 98.7436616,23.4818195 C98.3072411,22.4118853 98.0855113,21.2645217 98.0855113,20.0432482 C98.0855113,18.8219746 98.3107606,17.6710915 98.7577397,16.5870792 C99.2082383,15.503067 99.8171153,14.5598355 100.58789,13.7538654 C101.358665,12.9478952 102.263182,12.3073426 103.30144,11.8357268 C104.343218,11.3641111 105.448348,11.1283033 106.623868,11.1283033 Z M110.407352,18.6952719 C110.653718,18.6952719 110.843772,18.4735421 110.808577,18.2271757 C110.755784,17.8752237 110.63964,17.5479083 110.463664,17.24171 C110.210259,16.8052895 109.886463,16.4251813 109.495796,16.1013854 C109.105129,15.7775896 108.647592,15.5241841 108.130222,15.3411691 C107.612853,15.158154 107.088444,15.063127 106.556997,15.063127 C105.979795,15.063127 105.437789,15.151115 104.934498,15.3235715 C104.427687,15.4960279 103.977188,15.7459139 103.586522,16.0661902 C103.195855,16.3899861 102.882617,16.7736138 102.653849,17.2241124 C102.49547,17.5338302 102.379326,17.8646651 102.308936,18.2130976 C102.259662,18.4629836 102.453236,18.6952719 102.706641,18.6952719 L110.407352,18.6952719 Z" id="形状"></path>
                    <path d="M118.572639,4.31803147 L121.701493,4.31803147 C121.923222,4.31803147 122.106237,4.497527 122.106237,4.7227763 L122.106237,28.1029497 C122.106237,28.3246795 121.926742,28.5076945 121.701493,28.5076945 L118.572639,28.5076945 C118.350909,28.5076945 118.167894,28.328199 118.167894,28.1029497 L118.167894,4.7227763 C118.167894,4.50104652 118.34739,4.31803147 118.572639,4.31803147 Z" id="路径"></path>
                    <path d="M126.382455,4.31803147 L129.511308,4.31803147 C129.733038,4.31803147 129.916053,4.497527 129.916053,4.7227763 L129.916053,28.1029497 C129.916053,28.3246795 129.736557,28.5076945 129.511308,28.5076945 L126.382455,28.5076945 C126.160725,28.5076945 125.97771,28.328199 125.97771,28.1029497 L125.97771,4.7227763 C125.97771,4.50104652 126.157205,4.31803147 126.382455,4.31803147 Z" id="路径"></path>
                    <path d="M32.0381933,21.2610022 C32.3831063,21.5847981 32.4394186,21.8839573 32.2106498,22.1584799 C31.8868539,22.5737833 31.4961872,23.1087504 31.03513,23.7669007 C30.5740729,24.425051 30.074301,25.121916 29.5322949,25.8574957 C28.9902887,26.596595 28.4095679,27.3251357 27.7866128,28.0501569 C27.1636577,28.775178 26.5371831,29.4192503 25.9036694,29.985893 C25.2701558,30.5490163 24.6436812,30.9995149 24.0207261,31.3338693 C23.397771,31.6682237 22.7994525,31.8019655 22.2222512,31.7315751 C21.2790197,31.6154309 20.550479,31.3162717 20.0436681,30.8340974 C19.5368572,30.3519231 19.1743466,29.7500852 18.9561363,29.0356226 C18.7379261,28.3211599 18.6464186,27.5398264 18.6780942,26.684583 C18.7132894,25.8328591 18.7977579,24.9811352 18.9385387,24.1258917 C19.0758,23.2741678 19.2482565,22.4611586 19.4559082,21.6903837 C19.6635599,20.9196087 19.846575,20.2684975 20.0084729,19.7370499 C20.02959,19.6209057 19.9099264,19.5118006 19.6459623,19.4097345 C19.3819983,19.3076684 19.0476439,19.2020828 18.642899,19.1000167 C18.2381542,18.9979506 17.7946946,18.9029236 17.3125204,18.8219746 C16.8303461,18.7410257 16.3798475,18.6776743 15.9645441,18.6319205 C15.4330965,20.7295546 14.8699733,22.7779155 14.2716548,24.784042 C13.6733364,26.7866491 12.9483152,28.5675264 12.0930718,30.1231543 C11.2413478,31.6787823 10.2312455,32.935251 9.06980382,33.889041 C7.9048426,34.8463506 6.50759304,35.3214858 4.8710161,35.3214858 C3.99465554,35.275732 3.25203676,35.0751194 2.64315975,34.7231674 C2.03076321,34.3676958 1.53099133,33.9171972 1.14032458,33.3716716 C0.749657824,32.8226264 0.46105716,32.1926323 0.278042104,31.4816892 C0.0950270482,30.7707461 0,30.0105297 0,29.2045595 C0,28.9722712 0.0070390406,28.7259048 0.0175976015,28.4619407 C0.0281561624,28.1979767 0.080948967,27.9621689 0.172456495,27.7545172 C0.263964023,27.5468655 0.401225314,27.3849675 0.587759891,27.2723429 C0.770774946,27.1561987 1.02418041,27.1456401 1.34797628,27.2371477 C1.5767451,27.3075381 1.69992831,27.3990456 1.71048687,27.5151898 C1.72104543,27.631334 1.72808447,27.814349 1.72808447,28.0677545 C1.72808447,28.4126675 1.72104543,28.7646195 1.71048687,29.120091 C1.69992831,29.4755626 1.73160399,29.809917 1.81255296,30.1231543 C1.89350192,30.4328721 2.04132178,30.7003557 2.26305155,30.9185659 C2.48126181,31.1367762 2.82265528,31.2810765 3.28371244,31.3514669 C3.76588672,31.4218573 4.26213909,31.2599594 4.76895001,30.8657731 C5.27576093,30.4751064 5.78257186,29.9471783 6.28938278,29.2925475 C6.7961937,28.6343972 7.29244607,27.8917785 7.77462035,27.0611717 C8.25679463,26.2305649 8.69673467,25.4069971 9.08740142,24.5869489 C9.47806817,23.7669007 9.82298116,23.0172428 10.1256599,22.3379754 C10.4248191,21.658708 10.653588,21.1202214 10.8154859,20.7295546 C11.3469335,19.4836445 11.8361468,18.2518123 12.2831259,17.0270193 C12.7336245,15.8057457 13.1876426,14.5703941 13.6486997,13.3244839 C14.130874,12.03282 14.6165678,10.829144 15.0987421,9.70993657 C15.5809164,8.59072912 16.1123639,7.40817029 16.6895653,6.16577963 C16.7599557,6.00388169 16.809229,5.87013992 16.8444242,5.76807383 C16.8796194,5.66600774 16.897217,5.52170741 16.897217,5.33517284 C16.390406,5.28941907 15.7568924,5.35277044 14.996676,5.52522693 C14.2364596,5.69768343 13.4692042,5.94053033 12.6984293,6.25024811 C11.9276543,6.56348542 11.1955941,6.91191793 10.5057681,7.30610421 C9.81594212,7.69677096 9.28449456,8.09095723 8.91494493,8.48162399 C8.24623607,9.29111366 7.78165939,10.0548496 7.51417585,10.7833903 C7.25021182,11.511931 7.11647005,12.1771203 7.11647005,12.7895168 C7.11647005,13.4019134 7.20797758,13.9615171 7.39451216,14.468328 C7.57752721,14.9751389 7.76406179,15.4185985 7.94707684,15.7987067 C8.1300919,16.1788149 8.28847031,16.4920522 8.41517304,16.7313796 C8.54187577,16.9742265 8.54891481,17.1290854 8.43277064,17.1994758 C8.29550935,17.2909833 8.09137718,17.2909833 7.82741315,17.1994758 C7.56344913,17.1079682 7.28540703,16.9812655 6.99680636,16.8193676 C6.7082057,16.6574696 6.43720263,16.4850132 6.18379717,16.3019981 C5.93039171,16.118983 5.75793521,15.9782022 5.66642769,15.8866947 C4.97660171,15.2637396 4.43459558,14.5387184 4.04392883,13.7081116 C3.65326207,12.8775048 3.39985661,12.0117028 3.28371244,11.1142252 C3.21332204,10.2625013 3.30131004,9.47060919 3.54415694,8.74558801 C3.78700385,8.02056683 4.14951444,7.37297509 4.63168872,6.80985184 C5.113863,6.24672859 5.69810337,5.77159335 6.37737079,5.39148516 C7.05663821,5.01137697 7.79925699,4.71573726 8.60522714,4.50808556 C9.29505312,4.34618763 9.99895718,4.2370825 10.7134198,4.18077018 C11.4278824,4.12445785 12.135306,4.08222361 12.8392101,4.05758697 C13.5431141,4.03646984 14.2399791,4.0118332 14.9298051,3.98719656 C15.6196311,3.96607944 16.3129766,3.89568903 17.0028026,3.77954486 C17.4849769,3.70915446 17.8721241,3.60708837 18.1607248,3.46630756 C18.4493254,3.32904626 18.6956918,3.16714833 18.9033435,2.98413327 C19.1109952,2.80111822 19.3186469,2.57938844 19.5262986,2.32598298 C19.7339503,2.07257752 20.0084729,1.79453541 20.3569054,1.49537619 C21.0256143,0.988565262 21.6943231,0.601418029 22.3595125,0.337454006 C23.0282213,0.0734899836 23.7778792,-0.0356151458 24.6049664,0.0101386181 C25.1328945,0.0558923821 25.5094832,0.200192714 25.7276934,0.443039615 C25.9459037,0.685886516 26.0198136,1.06951423 25.9529427,1.60096179 C25.9071889,1.83325013 25.82624,2.03738231 25.7100958,2.22391689 C25.6185883,2.40693194 25.4672489,2.60402508 25.2595972,2.81167678 C24.8900476,3.13547265 24.527537,3.39239763 24.1720654,3.58949077 C23.8130744,3.7865839 23.4576028,3.9414428 23.1021313,4.05758697 C22.7431402,4.17373114 22.370071,4.27579722 21.9794043,4.36730475 C21.5887375,4.45881228 21.1734341,4.57495645 20.7370136,4.71221774 C20.5293619,4.82836191 20.3393078,5.00433793 20.1668513,5.24718483 C19.9943948,5.49003173 19.8395359,5.75399575 19.6987551,6.04259642 C19.5614938,6.33119708 19.4347911,6.63035631 19.3186469,6.94007409 C19.2025028,7.24979188 19.1109952,7.51023638 19.0406048,7.71788808 C18.4422864,9.28407462 17.9213974,10.903054 17.4849769,12.5748261 C17.0485563,14.2465982 16.6332529,15.8866947 16.2425862,17.498635 C16.9570488,17.6358963 17.6539138,17.7907552 18.3331813,17.9667312 C19.0124487,18.1391877 19.6846771,18.2729295 20.3533859,18.364437 C21.1593561,16.4990912 21.9019748,14.6091088 22.5812423,12.6980093 C23.2605097,10.7869098 24.0031285,8.89692738 24.8090986,7.03158162 C24.9252428,6.75353952 25.0343479,6.5423683 25.136414,6.39102893 C25.2384801,6.23968955 25.3616633,6.13762346 25.4989246,6.08131114 C25.6361859,6.02499881 25.8051229,6.00036217 25.9986965,6.01092073 C26.1957896,6.02147929 26.442156,6.06371354 26.7413153,6.13058442 C27.0404745,6.17633819 27.2481262,6.27488476 27.3642704,6.42270461 C27.4804145,6.57404398 27.5437659,6.75002 27.5543244,6.9576717 C27.564883,7.16532339 27.5437659,7.39057269 27.483934,7.62990007 C27.4276217,7.87274697 27.3642704,8.10855483 27.2938799,8.33732365 C27.0862282,9.16793045 26.8574594,9.99501772 26.604054,10.8256245 C26.3506485,11.6562313 26.1218797,12.5079552 25.914228,13.3843158 C25.7980838,13.8453729 25.6784201,14.3521839 25.5517174,14.9047485 C25.4250147,15.4573132 25.2983119,16.023956 25.1716092,16.5976378 C25.0449065,17.1748391 24.9393209,17.7379624 24.8618914,18.2905271 C24.7809424,18.8430918 24.7281496,19.3604612 24.7070325,19.846155 C24.9358013,19.9834163 25.1504921,20.0925215 25.3475852,20.1734704 C25.5446784,20.2544194 25.7558496,20.3881612 25.9881379,20.5711762 C25.9635013,20.8034646 25.9353451,20.968882 25.9001499,21.0709481 C25.8649547,21.1730142 25.7804862,21.3173145 25.6397054,21.5038491 C25.4320537,21.4334587 25.2349606,21.3595488 25.0519455,21.2785998 C24.8689305,21.1976508 24.6718373,21.1342995 24.4641856,21.0885457 C24.3726781,21.2715608 24.2565339,21.6481494 24.1192726,22.2112727 C23.9820113,22.7743959 23.8764257,23.3797534 23.8095548,24.0238256 C23.7391644,24.6678979 23.7286059,25.2732553 23.7743596,25.8363786 C23.8201134,26.3995018 23.9714528,26.7866491 24.2248582,26.9943008 C24.5486541,27.2477062 24.9393209,27.29346 25.400378,27.1315621 C25.8614352,26.9696641 26.3330509,26.6951416 26.8187447,26.3009553 C27.300919,25.9102885 27.7901323,25.4421923 28.2863847,24.9001862 C28.782637,24.3581801 29.2366552,23.8337715 29.6519585,23.3269606 C30.0672619,22.8201497 30.4121749,22.3696511 30.690217,21.9789843 C30.9682591,21.5883176 31.1407156,21.3454707 31.2075865,21.2539632 C31.299094,21.137819 31.4328358,21.0815067 31.6052923,21.0815067 C31.7777488,21.0815067 31.9220491,21.1483776 32.0381933,21.2610022 Z" id="路径"></path>
                </g>
            </g>
        </g>
    </g>
</svg>