<?xml version="1.0" encoding="utf-8"?>
<!-- Generator: Adobe Illustrator 23.0.0, SVG Export Plug-In . SVG Version: 6.00 Build 0)  -->
<svg version="1.1" id="图层_1" xmlns="http://www.w3.org/2000/svg" xmlns:xlink="http://www.w3.org/1999/xlink" x="0px" y="0px"
	 viewBox="0 0 193 54" style="enable-background:new 0 0 193 54;" xml:space="preserve">
<style type="text/css">
	.st0{fill:#AC947C;}
	.st1{fill:#D5BA9D;}
	.st2{fill:#AB875C;}
	.st3{fill:#DDA66B;}
	.st4{fill:#FFFFFF;}
	.st5{fill:#1E1306;}
	.st6{fill:#EAEAEA;}
	.st7{fill:#EBAF6C;}
	.st8{fill:#CC985E;}
	.st9{fill:#EEC794;}
	.st10{fill:#F7DDAD;}
	.st11{fill:#D4C298;}
	.st12{fill:#B68A57;}
	.st13{fill:#E5933F;}
	.st14{fill:#FFA045;}
	.st15{fill:#F4CAA4;}
	.st16{fill:#C66A3B;}
	.st17{fill:#9D6448;}
	.st18{fill:#84786D;}
	.st19{fill:#44372C;}
	.st20{fill:#CE8859;}
	.st21{fill:#CECECE;}
	.st22{fill:#2B1106;}
	.st23{fill:url(#SVGID_1_);}
	.st24{opacity:0.63;}
	.st25{fill:url(#SVGID_2_);}
	.st26{fill:none;stroke:#FFFFFF;stroke-width:0.25;stroke-miterlimit:10;}
</style>
<title>harwell</title>
<g id="编组">
	<path id="路径" class="st0" d="M58.8,17.1c0,0-2.9-4.4-11.3-3.3c0,0,3.2,5.7-3.3,7v4l1.2,0.7l-0.1,17.4l-3.6,7.4
		c0,0,11.3,0.2,12.2-10.3v-9.7C55.3,29.9,63.7,27.9,58.8,17.1z"/>
	<path class="st1" d="M49.2,13.5c0,0,4.9-0.2,6.3,1.7c0,0,3.2,3.6-0.2,7.8c0,0-1.6-2.7-3-3.4c0,0-3.2-1.4-4.1-1.1"/>
	<path class="st2" d="M56.8,15.5c0,0,3,1.6,3.4,6.2c0,0-0.3,2.8-4.2,1.9h-1.3c0,0,1.7-1.7,2-4.4c0,0,0.5-2.9-1.7-4.8L56.8,15.5z"/>
	<path class="st2" d="M45.2,25.3v-4.4c0,0,2.4-1.5,2.8-2.3c0,0,5.1-0.8,7.3,4.8c0,0-1.6,0.9-1.5,2.1l-0.7,0.1l-1.7-0.3l-6.2,0.1
		L45.2,25.3L45.2,25.3z"/>
	<path class="st2" d="M45.1,33.4h8.8c0,0-0.2,8.6-0.6,9.2c-0.4,0.6-0.7,0.5-0.7,0.5l-7.3,0.1L45.1,33.4z"/>
	<path class="st3" d="M47.1,19.3c0,0,4.5,4.3,8.3,4c0,0-1.2-4.8-7.3-4.9"/>
	<path id="形状" d="M53.5,30.6l-0.1-0.7c0,0,1-0.1,2.1-0.6c1-0.4,2.5-1.3,3.4-2.7c1.2-1.9,1.2-4.4,0.1-7.5
		c-0.6-1.7-1.8-3.1-3.5-3.9c-2.1-1-4.7-1.4-7.7-1.1c0.4,0.9,1,2.8,0.2,4.4c-0.6,1.3-1.8,2.1-3.7,2.6v3.8h-0.7v-4.3l0.3-0.1
		c1.8-0.4,3-1.1,3.5-2.2c0.9-1.9-0.4-4.2-0.4-4.3l-0.3-0.5l0.5-0.1c1.8-0.2,3.5-0.2,5.1,0c1.3,0.2,2.5,0.6,3.5,1.1
		c1.8,0.9,3.1,2.4,3.8,4.3c1.2,3.3,1.1,6-0.2,8.1c-0.8,1.3-2.1,2.3-3.7,3C54.6,30.4,53.6,30.6,53.5,30.6z M53.6,30.2l-0.1-0.3l0,0
		L53.6,30.2z"/>
	<path d="M41.6,50.5C41.5,50.5,41.5,50.5,41.6,50.5c-0.3,0-0.4-0.2-0.4-0.4s0.2-0.4,0.4-0.3l0,0c0,0,2.8,0,5.6-1.2
		c3.7-1.6,5.8-4.6,6.2-8.8V25.2l0,0c0,0,0.1-0.5,0.4-1c0.3-0.5,0.9-1,2-1c0.2,0,0.3,0.2,0.3,0.4c0,0.2-0.2,0.3-0.4,0.3
		c-0.6,0-1.1,0.2-1.4,0.7c-0.2,0.3-0.2,0.6-0.3,0.7v14.6l0,0c-0.2,2.5-1,4.6-2.4,6.2c-1.1,1.3-2.5,2.4-4.3,3.2
		C44.6,50.4,42,50.5,41.6,50.5z"/>
	<g transform="translate(23.981097, 0.327315)">
		<circle id="椭圆形" class="st4" cx="5.4" cy="5.4" r="5.1"/>
		<path d="M5.4,10.8c-3,0-5.4-2.4-5.4-5.4S2.4,0,5.4,0s5.4,2.4,5.4,5.4S8.4,10.8,5.4,10.8z M5.4,0.7c-2.6,0-4.7,2.1-4.7,4.7
			s2.1,4.7,4.7,4.7s4.7-2.1,4.7-4.7S8,0.7,5.4,0.7z"/>
	</g>
	<circle cx="29.4" cy="5.7" r="1.6"/>
	<circle class="st5" cx="29.5" cy="5.9" r="1"/>
	<path class="st4" d="M8.8,15.6c0,0,1.3,6.1,5.6,9.6c0,0-1.7-6.8-0.8-9.3C13.6,15.9,10.5,16.7,8.8,15.6z"/>
	<path class="st4" d="M8.8,15.6c0,0,1.3,6.1,5.6,9.6c0,0-1.7-6.8-0.8-9.3C13.6,15.9,10.5,16.7,8.8,15.6z"/>
	<path class="st4" d="M8.8,15.6c0,0,1.3,6.1,5.6,9.6c0,0-1.7-6.8-0.8-9.3C13.6,15.9,10.5,16.7,8.8,15.6z"/>
	<path class="st6" d="M9,17.1c0,0,1.4,1.6,4.3,2.5l0.3-3.7c0,0-2.4,0.8-3.6,0.2C10,16.1,8.5,15.4,9,17.1z"/>
	<path d="M14.9,26.1l-0.8-0.6c-2.3-1.8-3.7-4.4-4.5-6.2c-0.9-2-1.2-3.5-1.2-3.6l-0.2-0.8l0.7,0.4c1.6,1,4.5,0.2,4.5,0.2l0.6-0.2
		L13.9,16c-0.8,2.4,0.8,9.1,0.8,9.1L14.9,26.1z M9.3,16.3c0.2,0.6,0.5,1.6,1,2.8c0.7,1.5,1.8,3.6,3.5,5.2c-0.4-1.9-1.1-5.7-0.7-7.9
		C12.2,16.5,10.6,16.7,9.3,16.3z"/>
	<path class="st4" d="M3.1,12.3c0,0,0.3,5.3,4.2,8.1c0,0-1.2-4.3-0.7-5.8L3.1,12.3z"/>
	<path class="st6" d="M3.1,13.4c0,0,2.2,3.1,3.5,3.4l-0.2-1.9L3.1,13.4z"/>
	<path d="M7.9,21.2l-0.8-0.6c-1.6-1.2-2.9-3-3.7-5.2c-0.6-1.7-0.6-3-0.6-3.1v-0.7L7,14.5l-0.1,0.3c-0.4,1.1,0.4,4.4,0.7,5.5
		L7.9,21.2z M3.6,13c0.1,0.5,0.2,1.3,0.5,2.2c0.4,1.2,1.2,2.9,2.6,4.2c-0.1-0.4-0.2-0.8-0.3-1.3c-0.3-1.5-0.4-2.6-0.2-3.3L3.6,13z"
		/>
	<path class="st7" d="M23.7,52.4L5.9,52.6C5.9,52.6,5.6,40,23.7,52.4z"/>
	<path class="st8" d="M17,48.9c0,0-1.7,3.4-4.7,3.5h11.4C23.7,52.4,17.7,49.1,17,48.9z"/>
	<path d="M23.5,52.9H5.6v-0.4c0,0,0-0.9,0.4-2C6.5,49,7.4,48,8.6,47.3c1.4-0.7,3.3-0.8,5.5-0.3c2.7,0.7,6,2.3,9.7,4.8
		c0.2,0.1,0.3,0.4,0.2,0.6C23.9,52.8,23.7,52.9,23.5,52.9z M6.3,52.2H23c-3.5-2.3-6.6-3.8-9.1-4.4c-2.1-0.5-3.8-0.4-5,0.2
		C6.8,49.1,6.4,51.4,6.3,52.2z"/>
	<path class="st7" d="M23.7,15.7l-5.9,10.7l0.1,1.8c0,0-3.9,2.2-6.6,5.3c-2,2.4-2.5,5.7-1.2,8.6c1.4,2.9,4.4,6.4,11.2,8.3h19
		c0,0,5.4-0.6,4.7-5.7l0.1-26L23.7,15.7z"/>
	<path class="st8" d="M30.8,41.6c0,0,3.3-1.4,5.6-2.7c2-1.1,4.5,0.1,4.8,2.3c0.1,0.7,0,1.6-0.6,2.5c-1,1.7-1.4,3.8-1,5.7
		c0,0.2,0.1,0.5,0.1,0.7c0,0,4.6,0.6,5.4-4.4V20.5l-4.4,6.2L36,36.5c0,0-3.1,3.5-5.9,3.3L30.8,41.6z"/>
	<path class="st9" d="M14.2,30.6c0,0-5.6,7.5-0.8,15.8C13.4,46.4,4,38.8,14.2,30.6z"/>
	<path class="st10" d="M18.2,31.8c0,0-6.5,15.3,5.8,18.6h5.7c0,0,0.3-2.8,3-3.7l-3.1-7.8C29.6,38.8,18.7,30.5,18.2,31.8z"/>
	<path class="st11" d="M17.4,45.8c0,0,7,6.6,12.1,1.7c0,0,2.7-2-3.7-4.5c-0.9-0.3-1.6-0.9-2.1-1.7c-0.4-0.7-0.6-2,0.1-2.7l6.3,1.4
		l3.6,8.6l-3.5,2.1L24,50.8C23.9,50.8,18.8,49.6,17.4,45.8z"/>
	<path class="st7" d="M45.5,4.2c0,0,11.3-4.6,1.9,6.2L44.2,10L45.5,4.2z"/>
	<path class="st12" d="M47.1,6.8c0,0,2-2.7,3.8-2.9c0,0,0.8,0.6-0.4,2.4c0.1,0.1-3.1,4.1-3.1,4.1S45.1,9.2,47.1,6.8z"/>
	<path d="M47.6,10.7l-3.8-0.4L45.2,4l0.2-0.1c0,0,1.2-0.5,2.4-0.8c1.8-0.4,3-0.3,3.5,0.4c0.8,1.1-0.3,3.4-3.6,7.1L47.6,10.7z
		 M44.7,9.7l2.6,0.3c3.8-4.4,3.7-5.7,3.4-6.1c-0.5-0.7-3.1-0.1-4.9,0.5L44.7,9.7z"/>
	<g transform="translate(19.652087, 5.543244)">
		<path class="st7" d="M28.6,0.2c0,0-3.8,2.1-0.8,4.6c0,0,6.9,9.1-5.6,10.9L0.1,8.9"/>
		<path d="M22.2,16L0,9.2l0.2-0.5l22,6.8c3.8-0.6,6.1-1.9,6.9-3.8c1.2-2.9-1.3-6.3-1.5-6.6c-0.9-0.7-1.3-1.5-1.2-2.3
			c0.1-1.6,2-2.6,2.1-2.7l0.3,0.5c0,0-1.7,1-1.8,2.2c-0.1,0.6,0.3,1.3,1,1.9l0,0l0,0c0,0,0.7,1,1.3,2.3c0.7,1.8,0.9,3.5,0.3,4.9
			C28.7,14,26.2,15.4,22.2,16L22.2,16z M28.7,0.5l-0.1-0.2L28.7,0.5L28.7,0.5L28.7,0.5z"/>
	</g>
	<g transform="translate(20.866298, 18.984293)">
		<path class="st13" d="M6.1,20.6L6.1,20.6c-4.3-1.3-6.7-5.9-5.3-10.2l3.1-10l15.5,4.8l-3.1,10C14.9,19.6,10.3,22,6.1,20.6z"/>
		<path d="M8.5,21.3c-0.8,0-1.7-0.1-2.5-0.4l0,0c-2.2-0.7-3.9-2.1-5-4.1s-1.3-4.3-0.6-6.5L3.6,0l16.2,5l-3.2,10.4
			c-0.7,2.2-2.1,3.9-4.1,5C11.2,21,9.8,21.3,8.5,21.3z M6.2,20.3c4.1,1.3,8.5-1,9.7-5.1l3-9.7L4.1,0.9l-3,9.7
			C-0.2,14.7,2.1,19,6.2,20.3l-0.1,0.3L6.2,20.3z"/>
	</g>
	<path class="st7" d="M44.5,15.3c0,0-0.8,2.5-7.2-0.5c0,0-13.5-2.9-25.5,1.7c0,0-10.1-1.9-9.5-6.7l5.3-3l26.8,0.1"/>
	<path class="st9" d="M6.6,14.6c0,0-2.4-2.7-2.5-5.2l30.3-1.8V6.8L8.2,6.7c0,0-7.6-0.4-5.7,4.8C2.5,11.6,4.2,13.9,6.6,14.6z"/>
	<path class="st12" d="M43.7,16.1c-2.7,0-5-0.5-6.3-1.3c-4.7-0.8-10.6-1.6-14.2-1l-3.1,1l3.1,0.8c0,0,10.5-0.8,17.1,2.1
		c0,0,3.1,1.2,4.3-1.4C44.5,16.3,45,14.7,43.7,16.1L43.7,16.1z"/>
	<path d="M11.7,16.8L11.7,16.8c-0.2,0-2.7-0.5-5.1-1.6c-1.5-0.6-2.6-1.4-3.4-2.1c-1-1-1.5-2.1-1.4-3.3V9.6l5.6-3.2l26.9,0.1
		c0.2,0,0.4,0.2,0.4,0.4c0,0.2-0.2,0.4-0.4,0.4l0,0L7.6,7.1L2.5,10c-0.1,0.9,0.3,1.8,1.2,2.6c0.7,0.7,1.8,1.4,3.2,2
		c2.1,0.9,4.3,1.4,4.8,1.5c2.7-1,5.8-1.8,9.1-2.2c2.6-0.3,5.4-0.5,8.3-0.4c4.9,0.2,8.3,0.9,8.3,0.9l0,0l0,0c1.6,0.7,3,1.2,4.1,1.4
		c0.8,0.1,1.5,0.1,2-0.1c0.5-0.2,0.6-0.5,0.6-0.6l0,0l0.7,0.2c0,0.1-0.2,0.6-1,1c-0.6,0.3-1.4,0.3-2.4,0.2c-1.2-0.2-2.7-0.6-4.4-1.4
		c-0.4-0.1-3.6-0.7-8.2-0.9C24.5,14.1,18,14.5,11.7,16.8L11.7,16.8z"/>
	<path class="st8" d="M43.6,10.7c0,0,2.9,0,5.1,1.7l-1-1.8l-1-1.2L46.2,8l-0.3-0.3L43.6,10.7z"/>
	<g transform="translate(33.828715, 0.000000)">
		<circle class="st4" cx="6.2" cy="6.2" r="5.8"/>
		<path d="M6.2,12.4C2.8,12.4,0,9.6,0,6.2S2.8,0,6.2,0s6.2,2.8,6.2,6.2S9.6,12.4,6.2,12.4z M6.2,0.7c-3,0-5.5,2.5-5.5,5.5
			s2.5,5.5,5.5,5.5s5.5-2.5,5.5-5.5S9.2,0.7,6.2,0.7z"/>
	</g>
	<path class="st14" d="M23.6,23l11.8,3.6c0,0,0.3,2.1-3.1,1.9l-9.4,1.2l-1-1.6L23.6,23z"/>
	<path class="st7" d="M23.7,15.9L17.8,26c-0.1,0.1-0.1,0.3-0.1,0.4c-0.2,1.6-0.8,11,8.3,5l0,0c0.2-0.2,2.5-1.8,4.1-1.6
		c0.5,0.1,0.9-0.2,1.1-0.6c0.5-1.1,0.8-2.8-2.7-2.1h-0.1l-4.8,1.7c0,0,0,0-0.1,0l0,0c-0.8,0.2-1.5-0.5-1.3-1.3l1.9-5.9"/>
	<path d="M21,33.7c-0.7,0-1.2-0.2-1.7-0.5c-2.3-1.4-2.1-5.7-2-6.9c0-0.2,0.1-0.4,0.2-0.5l5.8-10.1l0.6,0.4l-5.8,10.1
		c0,0.1-0.1,0.2-0.1,0.3c-0.1,0.8-0.4,5,1.6,6.2c0.6,0.4,1.3,0.4,2.2,0.3c1.1-0.2,2.4-0.8,3.9-1.8l0,0c0.4-0.3,2.7-1.9,4.4-1.7
		c0.3,0,0.6-0.1,0.7-0.4c0.2-0.4,0.4-1.1,0.1-1.5c-0.2-0.2-0.7-0.5-2.5-0.2h-0.1l-4.8,1.7h-0.1c-0.5,0.1-1,0-1.4-0.4
		s-0.5-0.9-0.3-1.4l1.9-5.9l0.7,0.2l-1.9,5.9c-0.1,0.2,0,0.5,0.2,0.7s0.4,0.2,0.7,0.2l0,0l4.8-1.7c0.1,0,0.1,0,0.2-0.1
		c1.6-0.3,2.7-0.2,3.1,0.4c0.4,0.5,0.4,1.2,0,2.2c-0.3,0.6-0.9,0.9-1.5,0.8c-1.2-0.2-3,0.9-3.8,1.5c0,0,0,0-0.1,0
		c-1.6,1-2.9,1.7-4.1,1.9C21.7,33.7,21.4,33.7,21,33.7z"/>
	<path class="st7" d="M42.9,32.7c-2,5.6-8.6,3.1-8.6,3.1C28,33.7,26,39.2,26,39.2c-3.4-0.6-2.7-2.7-2.7-2.7
		c3.3-4.7,10.1-5.3,10.1-5.3c6.3-0.4,6.2-10.3,6.2-10.3"/>
	<path class="st8" d="M37.1,29c0,0,5.2-0.5,5.5,4l1.4-3l0.8-9.6L39,21.6l0.4,3.9L37.1,29z"/>
	<path class="st15" d="M28.2,32.9c0,0,3.1,0.5,5.9,0.1c2-0.3,3.5-1.9,3.7-3.9c0-0.5,0.1-1,0.3-1.4c0.5-1.6-0.4,3.8-4.7,3.5
		C33.4,31.2,29.3,31.8,28.2,32.9z"/>
	<path d="M26.3,39.7H26c-1.3-0.2-2.3-0.7-2.7-1.5c-0.5-0.8-0.3-1.7-0.3-1.7v-0.1l0,0c0.8-1.1,1.8-2.1,3.1-2.9c1-0.7,2.1-1.2,3.4-1.7
		c2.1-0.8,3.8-0.9,3.9-0.9l0,0c2.4-0.2,4.2-1.8,5.1-5c0.8-2.4,0.8-4.9,0.8-4.9c0-0.2,0.2-0.4,0.4-0.4l0,0c0.2,0,0.4,0.2,0.4,0.4
		c0,0.1,0,2.6-0.8,5.1c-0.5,1.5-1.1,2.7-1.9,3.6c-1,1.2-2.3,1.8-3.9,1.9c-0.1,0-1.7,0.2-3.7,0.9c-1.9,0.7-4.4,1.9-6.1,4.3
		c0,0.2-0.1,0.6,0.2,1.1c0.3,0.5,1,0.9,2,1.1c0.2-0.5,0.8-1.5,1.8-2.4c0.8-0.7,1.7-1.2,2.7-1.4c1.2-0.3,2.6-0.1,4.1,0.4l0,0
		c0,0,3.1,1.1,5.5,0c1.2-0.5,2-1.5,2.6-2.9c0.1-0.2,0.3-0.3,0.5-0.2s0.3,0.3,0.2,0.5c-0.6,1.6-1.6,2.7-2.9,3.3
		c-2.7,1.2-5.9,0.1-6.1,0c-2.5-0.8-4.5-0.5-6.1,0.8c-1.2,1-1.7,2.4-1.7,2.4L26.3,39.7z"/>
	<path class="st16" d="M39.2,26.4l-15.1-4.7c-1.4-0.4-2.2-1.9-1.7-3.3l0,0c0.4-1.4,1.9-2.2,3.3-1.7l15.1,4.7
		c1.4,0.4,2.2,1.9,1.7,3.3l0,0C42.1,26.1,40.6,26.9,39.2,26.4z"/>
	<path class="st17" d="M22.4,19.8l14.9,4.7c1.9,0.6,3.6-1.4,2.6-3.2c-0.1-0.1-0.2-0.3-0.3-0.4c0,0,2.3,0.6,2.6,2c0,0,0.9,3.9-3,3.5
		l-16.4-5.2C22.9,21.2,22.3,21,22.4,19.8z"/>
	<path d="M40,26.9c-0.3,0-0.6,0-0.9-0.1L24,22.1c-0.8-0.2-1.4-0.8-1.8-1.5s-0.4-1.5-0.2-2.3c0.2-0.8,0.8-1.4,1.5-1.8
		s1.5-0.4,2.3-0.2L40.9,21c1.6,0.5,2.5,2.2,2,3.8C42.5,26.1,41.3,26.9,40,26.9z M39.3,26.1c1.2,0.4,2.5-0.3,2.9-1.5
		s-0.3-2.5-1.5-2.9L25.6,17c-0.6-0.2-1.2-0.1-1.8,0.2c-0.5,0.3-0.9,0.8-1.1,1.4s-0.1,1.2,0.2,1.8c0.3,0.5,0.8,0.9,1.4,1.1L39.3,26.1
		z"/>
	<path class="st18" d="M9,9.5c-1.6,1.4-4,0.7-5.7,0.5C0.8,9.8-0.3,6.1,0.7,4.5S4.9,2.8,7,4.1S10.4,8.2,9,9.5z"/>
	<path class="st19" d="M4.2,3.2c0,0,0.2,3.6-3.6,4c0,0,0.6,4.3,7,2.9c0,0,4.4-1.2,0-5.5C7.6,4.5,6,3.3,4.2,3.2z"/>
	<path d="M6.4,10.7c-0.7,0-1.4-0.1-2-0.2c-0.4-0.1-0.8-0.1-1.1-0.1c-1.1-0.1-2.1-0.8-2.7-2.1c-0.7-1.4-0.7-3-0.1-4
		c0.5-0.9,1.7-1.4,3-1.5s2.7,0.3,3.8,1C8.8,4.7,9.9,6.3,10,7.7c0.1,0.8-0.2,1.5-0.7,2C8.4,10.5,7.4,10.7,6.4,10.7z M3.8,3.5
		c-0.1,0-0.2,0-0.3,0C2.4,3.6,1.5,4,1,4.7C0.5,5.5,0.6,6.8,1.2,8c0.5,1,1.3,1.6,2.2,1.7c0.4,0,0.7,0.1,1.1,0.1
		C6,10,7.6,10.2,8.8,9.2l0,0c0.4-0.3,0.5-0.8,0.5-1.4C9.1,6.6,8.1,5.2,6.8,4.4C6,3.9,4.9,3.5,3.8,3.5z"/>
	<ellipse transform="matrix(0.5521 -0.8338 0.8338 0.5521 -5.1359 8.5589)" cx="5.4" cy="9.1" rx="1" ry="1.4"/>
	<circle cx="40" cy="6.2" r="2.1"/>
	<circle class="st5" cx="40" cy="6.9" r="1.3"/>
	<circle class="st4" cx="38.4" cy="4.8" r="1"/>
	<circle class="st4" cx="28.2" cy="4.8" r="1"/>
	<path d="M41.8,21.6l-22.2-6.9l0.2-0.7l22,6.8c3.7-0.6,6-1.8,6.8-3.8c1.1-2.8-1.2-6.2-1.5-6.5c-0.9-0.7-1.3-1.6-1.2-2.4
		C46.1,6.5,48,5.4,48,5.4L48.3,6l-0.2-0.3L48.3,6c0,0-1.7,0.9-1.8,2.2c-0.1,0.6,0.3,1.2,1,1.8l0,0l0,0c0,0,0.7,1,1.3,2.4
		c0.8,1.8,0.9,3.5,0.3,4.9C48.4,19.6,45.9,21,41.8,21.6L41.8,21.6z"/>
	<ellipse transform="matrix(0.2224 -0.975 0.975 0.2224 2.5648 40.5585)" class="st20" cx="26.7" cy="18.7" rx="1" ry="1.9"/>
	<path d="M8.4,52.9c-0.2,0-0.3-0.1-0.3-0.3c-0.1-1,0.1-1.7,0.6-2.2c0.8-0.7,1.9-0.6,1.9-0.6c0.2,0,0.3,0.2,0.3,0.4s-0.2,0.3-0.4,0.3
		c0,0-0.9-0.1-1.4,0.4c-0.3,0.3-0.5,0.9-0.4,1.6C8.8,52.7,8.7,52.8,8.4,52.9L8.4,52.9z"/>
	<g id="矩形" transform="translate(29.671781, 27.679504)">
		<polygon points="0,0.1 1.5,0 1.5,0.2 0,0.3 		"/>
		<polygon points="0.1,0.8 1.6,0.7 1.6,0.9 0.1,1 		"/>
	</g>
	<g transform="translate(23.696789, 36.587792)">
		<polygon points="0,1.4 1.1,0 1.3,0.1 0.2,1.6 		"/>
		<polygon points="0.9,1.8 1.9,0.6 2,0.8 1.1,1.9 		"/>
	</g>
	<path d="M23.7,51.3c0,0-1.1-0.2-2.4-0.9c-1.2-0.7-2.9-1.9-4-4c-0.9-1.6-1.3-3.6-1.3-5.8c0-2.6,0.7-5.6,2.1-8.8l0.7,0.3
		c-2.4,5.9-2.7,10.6-0.8,14c2,3.7,5.9,4.6,5.9,4.6L23.7,51.3z"/>
	<path d="M26.4,51.4c-1.9,0-3.7-0.2-5.4-0.6c-2.5-0.6-4.7-1.7-6.6-3.1c-3.2-2.5-4.5-5.3-4.5-5.5c-0.9-1.9-1.1-3.9-0.5-5.9
		c0.5-1.5,1.4-3.1,2.8-4.5c2.3-2.4,5.1-3.9,5.2-3.9l0.3,0.6c0,0-2.8,1.4-5.1,3.8c-3,3.1-3.7,6.3-2.2,9.6l0,0c0,0,1.2,2.8,4.4,5.2
		c2.9,2.2,8.1,4.6,16.5,3.2l0.1,0.7C29.7,51.3,28,51.4,26.4,51.4z"/>
	<path d="M39.4,50.9v-0.7c2-0.1,3.5-0.6,4.4-1.7c1.1-1.2,1-2.7,1-2.7l0,0V20.5h0.7v25.2c0,0.2,0.1,1.9-1.1,3.2
		C43.2,50.1,41.6,50.8,39.4,50.9z"/>
	<polygon points="29.7,40.1 30.4,39.8 34.4,49.4 33.7,49.6 	"/>
	<ellipse class="st21" cx="2" cy="4.3" rx="1" ry="1"/>
	<path class="st7" d="M41.4,53.3L41.4,53.3c0-3.5-2.6-5.6-5.7-5.6S30,49.8,30,53.3l0,0H41.4z"/>
	<path class="st8" d="M31.6,53.6c0,0,0.9-6.3,7.3-4.8c0,0,2.6,0.9,2.5,4.5L31.6,53.6z"/>
	<path d="M41.8,54H29.6v-0.4c0-1.8,0.6-3.3,1.8-4.3c1.1-1,2.6-1.6,4.3-1.6s3.2,0.6,4.3,1.6c1.2,1.1,1.8,2.6,1.8,4.3l0,0l0,0V54z
		 M30.3,53.3H41c-0.1-2.9-2.3-4.9-5.4-4.9C32.7,48.4,30.5,50.4,30.3,53.3z"/>
	<path d="M36.8,53.9c-0.2,0-0.4-0.2-0.4-0.4v-2.3c0-0.2,0.2-0.4,0.4-0.4s0.4,0.2,0.4,0.4v2.3C37.2,53.7,37,53.9,36.8,53.9z"/>
	<path d="M34.6,53.9c-0.2,0-0.4-0.2-0.4-0.4v-2.3c0-0.2,0.2-0.4,0.4-0.4S35,51,35,51.2v2.3C35,53.7,34.8,53.9,34.6,53.9z"/>
</g>
<g transform="translate(62.650067, 11.808411)">
	<path class="st22" d="M34.2,24c0-1.2,0.2-2.4,0.7-3.5s1.1-2,1.9-2.8c0.8-0.8,1.7-1.4,2.8-1.9s2.2-0.7,3.5-0.7
		c1.1,0,2.2,0.2,3.1,0.6c0.9,0.4,1.7,0.8,2.5,1.4c0.1,0.1,0.3,0.1,0.4,0l2.4-1.3c0.3-0.1,0.6,0,0.6,0.4v15.9c0,0.2-0.2,0.4-0.4,0.4
		h-3.1c-0.2,0-0.4-0.2-0.4-0.4l0,0c0-0.3-0.3-0.5-0.6-0.3c-1.3,0.8-2.8,1.2-4.5,1.2c-1.2,0-2.4-0.2-3.5-0.7c-1.1-0.5-2-1.1-2.8-1.9
		s-1.4-1.7-1.9-2.8C34.5,26.4,34.2,25.3,34.2,24z M38.2,24c0,0.7,0.1,1.3,0.4,1.9c0.3,0.6,0.6,1.1,1.1,1.6s1,0.8,1.6,1.1
		c0.6,0.3,1.2,0.4,1.9,0.4s1.3-0.1,2-0.4c0.6-0.3,1.1-0.6,1.6-1.1s0.8-1,1.1-1.6s0.4-1.2,0.4-1.9c0-0.7-0.1-1.3-0.4-1.9
		s-0.6-1.1-1.1-1.6s-1-0.8-1.6-1.1c-0.6-0.3-1.3-0.4-2-0.4s-1.3,0.1-1.9,0.4c-0.6,0.3-1.1,0.6-1.6,1.1s-0.8,1-1.1,1.6
		C38.3,22.7,38.2,23.4,38.2,24z"/>
	<path class="st22" d="M58.7,17.5c0.2,0.1,0.4,0.1,0.5,0c0.7-0.6,1.4-1.2,2.3-1.6c1-0.5,2.1-0.7,3.3-0.7c1.1,0,2.1,0.2,3.1,0.5
		c0.2,0.1,0.3,0.3,0.2,0.5l-1,3c-0.1,0.2-0.3,0.3-0.5,0.3c-0.2-0.1-0.5-0.2-0.8-0.2c-0.4-0.1-0.9-0.1-1.3-0.1
		c-0.8,0-1.5,0.2-2.1,0.6s-1.1,0.9-1.5,1.4c-0.4,0.6-0.7,1.2-0.8,1.8c-0.2,0.6-0.3,1.2-0.3,1.7v7.4c0,0.2-0.2,0.4-0.4,0.4h-3.1
		c-0.2,0-0.4-0.2-0.4-0.4V16.4c0-0.3,0.4-0.5,0.6-0.3L58.7,17.5z"/>
	<path class="st22" d="M96.4,16.2l-8,16.1c-0.1,0.3-0.6,0.3-0.7,0l-4.5-8.4c-0.2-0.3-0.6-0.3-0.7,0L78,32.3c-0.2,0.3-0.6,0.3-0.7,0
		l-8-16.1c-0.1-0.3,0.1-0.6,0.4-0.6h3.5c0.2,0,0.3,0.1,0.4,0.2l3.8,7.9c0.1,0.3,0.6,0.3,0.7,0l4.4-7.6c0.2-0.3,0.5-0.3,0.7,0
		l4.4,7.6c0.2,0.3,0.6,0.3,0.7,0l3.8-7.9c0.1-0.1,0.2-0.2,0.4-0.2h3.6C96.4,15.6,96.6,15.9,96.4,16.2z"/>
	<path class="st22" d="M106.6,15.1c1.2,0,2.3,0.2,3.3,0.7c1,0.5,1.9,1.1,2.7,1.9c0.8,0.8,1.4,1.8,1.8,2.8c0.5,1.1,0.7,2.2,0.7,3.5
		c0,0.5,0,1.1-0.1,1.6c0,0.2-0.2,0.3-0.4,0.3h-11.5c-0.3,0-0.5,0.3-0.4,0.6c0.1,0.3,0.3,0.5,0.5,0.7c0.3,0.4,0.7,0.7,1,1
		c0.4,0.3,0.8,0.4,1.2,0.6c0.4,0.1,0.8,0.2,1.2,0.2c1.1,0,2.1-0.1,2.8-0.4c0.6-0.2,1.1-0.5,1.5-0.8c0.2-0.1,0.4-0.1,0.6,0l2.2,2.3
		c0.2,0.2,0.2,0.4,0,0.6c-0.7,0.7-1.6,1.2-2.6,1.6c-1.1,0.5-2.6,0.7-4.5,0.7c-1.2,0-2.3-0.2-3.3-0.7c-1-0.5-1.9-1.1-2.7-1.9
		s-1.4-1.7-1.8-2.8c-0.4-1.1-0.7-2.2-0.7-3.4c0-1.2,0.2-2.4,0.7-3.5s1.1-2,1.8-2.8c0.8-0.8,1.7-1.4,2.7-1.9
		C104.3,15.4,105.4,15.1,106.6,15.1z M110.4,22.7c0.2,0,0.4-0.2,0.4-0.5c-0.1-0.4-0.2-0.7-0.3-1c-0.3-0.4-0.6-0.8-1-1.1
		c-0.4-0.3-0.8-0.6-1.4-0.8c-0.5-0.2-1-0.3-1.6-0.3s-1.1,0.1-1.6,0.3c-0.5,0.2-1,0.4-1.3,0.7c-0.4,0.3-0.7,0.7-0.9,1.2
		c-0.2,0.3-0.3,0.6-0.3,1c0,0.2,0.1,0.5,0.4,0.5C102.8,22.7,110.4,22.7,110.4,22.7z"/>
	<path class="st22" d="M118.6,8.3h3.1c0.2,0,0.4,0.2,0.4,0.4v23.4c0,0.2-0.2,0.4-0.4,0.4h-3.1c-0.2,0-0.4-0.2-0.4-0.4V8.7
		C118.2,8.5,118.3,8.3,118.6,8.3z"/>
	<path class="st22" d="M126.4,8.3h3.1c0.2,0,0.4,0.2,0.4,0.4v23.4c0,0.2-0.2,0.4-0.4,0.4h-3.1c-0.2,0-0.4-0.2-0.4-0.4V8.7
		C126,8.5,126.2,8.3,126.4,8.3z"/>
	<path class="st22" d="M32,25.3c0.3,0.3,0.4,0.6,0.2,0.9c-0.3,0.4-0.7,1-1.2,1.6c-0.5,0.7-1,1.4-1.5,2.1s-1.1,1.5-1.7,2.2
		s-1.2,1.4-1.9,1.9c-0.6,0.6-1.3,1-1.9,1.3s-1.2,0.5-1.8,0.4c-0.9-0.1-1.7-0.4-2.2-0.9s-0.8-1-1-1.8c-0.2-0.7-0.3-1.5-0.3-2.4
		s0.1-1.7,0.3-2.6c0.1-0.9,0.3-1.7,0.5-2.4s0.4-1.4,0.6-2c0-0.1-0.1-0.2-0.4-0.3s-0.6-0.2-1-0.3s-0.8-0.2-1.3-0.3
		c-0.5-0.1-0.9-0.1-1.3-0.2c-0.5,2.1-1.1,4.1-1.7,6.2c-0.6,2-1.3,3.8-2.2,5.3c-0.9,1.6-1.9,2.8-3,3.8c-1.2,1-2.6,1.4-4.2,1.4
		c-0.9,0-1.6-0.2-2.2-0.6c-0.6-0.4-1.1-0.8-1.5-1.4c-0.4-0.5-0.7-1.2-0.9-1.9S0,34,0,33.2c0-0.2,0-0.5,0-0.7c0-0.3,0.1-0.5,0.2-0.7
		s0.2-0.4,0.4-0.5s0.4-0.1,0.8,0c0.2,0.1,0.4,0.2,0.4,0.3c0,0.1,0,0.3,0,0.6c0,0.3,0,0.7,0,1.1c0,0.4,0,0.7,0.1,1s0.2,0.6,0.5,0.8
		c0.2,0.2,0.6,0.4,1,0.4c0.5,0.1,1-0.1,1.5-0.5s1-0.9,1.5-1.6c0.5-0.7,1-1.4,1.5-2.2c0.5-0.8,0.9-1.7,1.3-2.5s0.7-1.6,1-2.2
		c0.3-0.7,0.5-1.2,0.7-1.6c0.5-1.2,1-2.5,1.5-3.7s0.9-2.5,1.4-3.7c0.5-1.3,1-2.5,1.5-3.6s1-2.3,1.6-3.5c0.1-0.2,0.1-0.3,0.2-0.4
		c0-0.1,0.1-0.2,0.1-0.4c-0.5,0-1.1,0-1.9,0.2c-0.8,0.2-1.5,0.4-2.3,0.7s-1.5,0.7-2.2,1.1c-0.7,0.4-1.2,0.8-1.6,1.2
		c-0.7,0.8-1.1,1.6-1.4,2.3c-0.3,0.7-0.4,1.4-0.4,2s0.1,1.2,0.3,1.7c0.2,0.5,0.4,1,0.6,1.3c0.2,0.4,0.3,0.7,0.5,0.9
		c0.1,0.2,0.1,0.4,0,0.5s-0.3,0.1-0.6,0C7.6,21.1,7.3,21,7,20.8s-0.6-0.3-0.8-0.5c-0.3-0.2-0.4-0.3-0.5-0.4C5,19.3,4.4,18.5,4,17.7
		S3.4,16,3.2,15.1c-0.1-0.9,0-1.6,0.3-2.4s0.6-1.4,1.1-1.9c0.5-0.6,1.1-1,1.7-1.4C7.1,9,7.8,8.7,8.6,8.5c0.7-0.2,1.4-0.3,2.1-0.3
		s1.4-0.1,2.1-0.1c0.7,0,1.4,0,2.1-0.1c0.7,0,1.4-0.1,2.1-0.2c0.5-0.1,0.9-0.2,1.2-0.3c0.3-0.1,0.5-0.3,0.7-0.5s0.4-0.4,0.6-0.7
		s0.5-0.5,0.8-0.8c0.7-0.5,1.3-0.9,2-1.2C23,4.1,23.8,4,24.6,4c0.5,0,0.9,0.2,1.1,0.4C25.9,4.7,26,5.1,26,5.6c0,0.2-0.1,0.4-0.2,0.6
		s-0.2,0.4-0.5,0.6c-0.4,0.3-0.7,0.6-1.1,0.8c-0.4,0.2-0.7,0.4-1.1,0.5c-0.4,0.1-0.7,0.2-1.1,0.3s-0.8,0.2-1.2,0.3
		c-0.2,0.1-0.4,0.3-0.6,0.5C20,9.5,19.8,9.8,19.7,10c-0.1,0.3-0.3,0.6-0.4,0.9s-0.2,0.6-0.3,0.8c-0.6,1.6-1.1,3.2-1.6,4.9
		c-0.4,1.7-0.9,3.3-1.2,4.9c0.7,0.1,1.4,0.3,2.1,0.5s1.4,0.3,2,0.4c0.8-1.9,1.5-3.8,2.2-5.7s1.4-3.8,2.2-5.7
		c0.1-0.3,0.2-0.5,0.3-0.6s0.2-0.3,0.4-0.3C25.6,10,25.8,10,26,10s0.4,0.1,0.7,0.1c0.3,0,0.5,0.1,0.6,0.3s0.2,0.3,0.2,0.5
		s0,0.4-0.1,0.7c-0.1,0.2-0.1,0.5-0.2,0.7c-0.2,0.8-0.4,1.7-0.7,2.5c-0.3,0.8-0.5,1.7-0.7,2.6c-0.1,0.5-0.2,1-0.4,1.5
		S25.1,20,25,20.6s-0.2,1.1-0.3,1.7c-0.1,0.6-0.1,1.1-0.2,1.6c0.2,0.1,0.4,0.2,0.6,0.3c0.2,0.1,0.4,0.2,0.6,0.4
		c0,0.2-0.1,0.4-0.1,0.5s-0.1,0.2-0.3,0.4c-0.2-0.1-0.4-0.1-0.6-0.2s-0.4-0.1-0.6-0.2c-0.1,0.2-0.2,0.6-0.3,1.1
		c-0.1,0.6-0.2,1.2-0.3,1.8c-0.1,0.6-0.1,1.2,0,1.8c0,0.6,0.2,1,0.5,1.2c0.3,0.3,0.7,0.3,1.2,0.1c0.5-0.2,0.9-0.4,1.4-0.8
		s1-0.9,1.5-1.4s1-1.1,1.4-1.6s0.8-1,1-1.3c0.3-0.4,0.5-0.6,0.5-0.7c0.1-0.1,0.2-0.2,0.4-0.2C31.8,25.1,31.9,25.1,32,25.3z"/>
</g>
<linearGradient id="SVGID_1_" gradientUnits="userSpaceOnUse" x1="97.8383" y1="55.4322" x2="125.1557" y2="22.6449" gradientTransform="matrix(0.9635 -0.2676 -0.2676 -0.9635 14.6155 80.5146)">
	<stop  offset="8.379889e-03" style="stop-color:#C90000"/>
	<stop  offset="0.2905" style="stop-color:#F00006"/>
	<stop  offset="0.986" style="stop-color:#C90000"/>
</linearGradient>
<path class="st23" d="M124,1.3L95.6,1.2c-1.6,0-2.8,1.3-2.9,2.8l-0.2,14.5c0,1.6,1.3,2.8,2.8,2.9l5.7,0l-1.6,4.3l5.9-4.4l26.1,0.3
	c1.6,0,2.8-1.3,2.9-2.8l0.1-11.1L124,1.3z"/>
<g class="st24">
</g>
<linearGradient id="SVGID_2_" gradientUnits="userSpaceOnUse" x1="127.6954" y1="39.8329" x2="131.2213" y2="43.2178" gradientTransform="matrix(0.9661 -0.2583 -0.2583 -0.9661 13.9537 79.5614)">
	<stop  offset="8.379889e-02" style="stop-color:#FF8A8A"/>
	<stop  offset="0.4888" style="stop-color:#F7F8F8"/>
	<stop  offset="0.852" style="stop-color:#C9CACA"/>
</linearGradient>
<path class="st25" d="M124,1.3L123.7,5c0,1.4,1,2.4,2.4,2.4l8.3,0.2L124,1.3z"/>
<g>
	<path class="st4" d="M101,9.6l-2.1,0l-0.1,6l-1.5,0l0.1-6l-2.1,0l0-1.3l5.7,0.1L101,9.6z"/>
	<path class="st4" d="M105.4,13.5l-3.4-0.1c0,0.8,0.5,1.2,1.4,1.2c0.6,0,1.1-0.1,1.5-0.4l0,1.1c-0.5,0.3-1.1,0.4-1.9,0.4
		c-0.8,0-1.5-0.3-1.9-0.7c-0.4-0.5-0.7-1.1-0.6-2c0-0.8,0.3-1.5,0.8-2c0.5-0.5,1.1-0.8,1.8-0.7c0.7,0,1.3,0.2,1.7,0.7
		c0.4,0.5,0.6,1.1,0.6,1.8L105.4,13.5z M104,12.5c0-0.8-0.3-1.2-0.9-1.2c-0.3,0-0.5,0.1-0.7,0.3c-0.2,0.2-0.3,0.5-0.4,0.8L104,12.5z
		"/>
	<path class="st4" d="M106.2,14.2c0.5,0.3,1,0.5,1.5,0.5c0.6,0,0.9-0.1,0.9-0.5c0-0.2-0.2-0.4-0.8-0.6c-0.6-0.2-1.1-0.4-1.3-0.7
		c-0.2-0.2-0.3-0.6-0.3-1c0-0.5,0.2-0.9,0.6-1.2c0.4-0.3,1-0.4,1.6-0.4c0.5,0,0.9,0.1,1.4,0.2l0,1.2c-0.4-0.2-0.8-0.4-1.3-0.4
		c-0.2,0-0.4,0-0.6,0.1c-0.1,0.1-0.2,0.2-0.2,0.3c0,0.2,0.2,0.4,0.6,0.6c0.5,0.2,0.8,0.3,1,0.4c0.2,0.1,0.4,0.3,0.5,0.5
		c0.1,0.2,0.2,0.5,0.2,0.7c0,0.5-0.2,0.9-0.7,1.2c-0.4,0.3-1,0.4-1.7,0.4c-0.6,0-1.1-0.1-1.6-0.3L106.2,14.2z"/>
	<path class="st4" d="M114.1,15.7c-0.2,0.1-0.6,0.2-1,0.2c-1.1,0-1.6-0.6-1.6-1.8l0-2.4l-0.9,0l0-1.1l0.9,0l0-1.1l1.5-0.4l0,1.6
		l1.2,0l0,1.1l-1.2,0l0,2.2c0,0.6,0.2,0.8,0.6,0.8c0.2,0,0.3,0,0.5-0.1L114.1,15.7z"/>
	<path class="st4" d="M119.9,15.9l-1.5,0l0.1-2.9c0-0.8-0.3-1.3-0.9-1.3c-0.3,0-0.5,0.1-0.7,0.3c-0.2,0.2-0.3,0.5-0.3,0.8l-0.1,2.9
		l-1.5,0l0.1-5.2l1.5,0l0,0.8h0c0.4-0.6,0.9-0.9,1.7-0.9c1.1,0,1.7,0.7,1.7,2.2L119.9,15.9z"/>
	<path class="st4" d="M125.9,13.9l-3.4-0.1c0,0.8,0.5,1.2,1.4,1.2c0.6,0,1.1-0.1,1.5-0.4l0,1.1c-0.5,0.3-1.1,0.4-1.9,0.4
		c-0.8,0-1.5-0.3-1.9-0.7c-0.4-0.5-0.7-1.1-0.6-2c0-0.8,0.3-1.5,0.8-2c0.5-0.5,1.1-0.8,1.8-0.7c0.7,0,1.3,0.2,1.7,0.7
		c0.4,0.5,0.6,1.1,0.6,1.8L125.9,13.9z M124.5,12.9c0-0.8-0.3-1.2-0.9-1.2c-0.3,0-0.5,0.1-0.7,0.3c-0.2,0.2-0.3,0.5-0.4,0.8
		L124.5,12.9z"/>
	<path class="st4" d="M129.8,16c-0.2,0.1-0.6,0.2-1,0.2c-1.1,0-1.6-0.6-1.6-1.8l0-2.4l-0.9,0l0-1.1l0.9,0l0-1.1l1.5-0.4l0,1.6l1.2,0
		l0,1.1l-1.2,0l0,2.2c0,0.6,0.2,0.8,0.6,0.8c0.2,0,0.3,0,0.5-0.1L129.8,16z"/>
</g>
<path class="st26" d="M132.8,7.9l0,1.8l-0.1,8.3c0,1.6-1.3,2.8-2.9,2.8l-32.9-0.5c-1.6,0-2.8-1.3-2.8-2.9l0.2-11.8
	c0-1.6,1.3-2.8,2.9-2.8l24.8,0.4l2.1,0"/>
</svg>
