<?xml version="1.0" encoding="UTF-8"?>
<svg width="31px" height="30px" viewBox="0 0 31 30" version="1.1" xmlns="http://www.w3.org/2000/svg" xmlns:xlink="http://www.w3.org/1999/xlink">
    <title>编组</title>
    <defs>
        <polygon id="path-1" points="0 0 8.99519583 0 8.99519583 3.58908892 0 3.58908892"></polygon>
        <polygon id="path-3" points="0 0 4.05859092 0 4.05859092 1.71691105 0 1.71691105"></polygon>
    </defs>
    <g id="页面-1" stroke="none" stroke-width="1" fill="none" fill-rule="evenodd">
        <g id="Ostrich-Stake" transform="translate(-1001.000000, -330.000000)">
            <g id="编组" transform="translate(1016.481413, 345.000000) scale(-1, 1) translate(-1016.481413, -345.000000) translate(1001.000000, 330.000000)">
                <path d="M23.3502413,13.9699448 L16.7732751,13.9699448 C16.4927103,13.9699448 16.2631443,13.7403788 16.2631443,13.459814 C16.2631443,13.179393 16.4927103,12.9496833 16.7732751,12.9496833 L23.3502413,12.9496833 C23.630806,12.9496833 23.8603721,13.179393 23.8603721,13.459814 C23.8603721,13.7403788 23.630806,13.9699448 23.3502413,13.9699448" id="Fill-1" fill="#E7EBEB"></path>
                <path d="M10.9956239,8.47759907 L4.41865765,8.47759907 C4.13809291,8.47759907 3.90852688,8.24803304 3.90852688,7.96761196 C3.90852688,7.68704722 4.13809291,7.45733753 4.41865765,7.45733753 L10.9956239,7.45733753 C11.2761886,7.45733753 11.5057546,7.68704722 11.5057546,7.96761196 C11.5057546,8.24803304 11.2761886,8.47759907 10.9956239,8.47759907" id="Fill-3" fill="#E7EBEB"></path>
                <path d="M29.6712084,23.7386977 L23.0942421,23.7386977 C22.8136774,23.7386977 22.5841114,23.5091317 22.5841114,23.2285669 C22.5841114,22.9481459 22.8136774,22.7184362 23.0942421,22.7184362 L29.6712084,22.7184362 C29.9517731,22.7184362 30.1813391,22.9481459 30.1813391,23.2285669 C30.1813391,23.5091317 29.9517731,23.7386977 29.6712084,23.7386977" id="Fill-5" fill="#E7EBEB"></path>
                <path d="M20.7643911,26.3245622 L8.44109124,26.3245622 C8.16052649,26.3245622 7.93096046,26.0949962 7.93096046,25.8144315 C7.93096046,25.5340104 8.16052649,25.3043007 8.44109124,25.3043007 L20.7643911,25.3043007 C21.0449559,25.3043007 21.2745219,25.5340104 21.2745219,25.8144315 C21.2745219,26.0949962 21.0449559,26.3245622 20.7643911,26.3245622" id="Fill-7" fill="#E7EBEB"></path>
                <path d="M16.4546409,11.7671596 L4.13134097,11.7671596 C3.85077623,11.7671596 3.6212102,11.5375936 3.6212102,11.2571725 C3.6212102,10.9766078 3.85077623,10.7470417 4.13134097,10.7470417 L16.4546409,10.7470417 C16.7352056,10.7470417 16.9647717,10.9766078 16.9647717,11.2571725 C16.9647717,11.5375936 16.7352056,11.7671596 16.4546409,11.7671596" id="Fill-9" fill="#E7EBEB"></path>
                <path d="M12.5158165,15.3241689 C12.4530378,15.340115 6.21812205,16.8774029 4.75740403,13.4833309 C3.85451134,11.3854881 4.43000666,10.0542063 4.93884451,8.29841402 C6.08710564,4.33602963 6.79160615,1.00286877 4.67638072,0.169506732 C3.59405877,-0.256871228 2.41735329,0.235302252 2.34739168,1.12483471 C2.26852325,2.12728262 2.30228296,2.72116621 3.71142764,3.47063178 C3.81342506,3.52493463 4.06353423,3.53024999 4.13450145,3.89054511 C4.13723096,4.13102918 4.12760585,4.3630374 4.10964856,4.58872465 C4.06597642,4.94758319 4.01425942,5.28676054 3.95765803,5.60970449 C3.80150142,6.36606566 3.56575808,7.05548205 3.32800352,7.73268747 C2.68642536,9.55944695 2.02286748,11.4484105 3.18922956,14.1583815 C4.05333449,16.1660068 6.05722471,17.2807955 8.98440709,17.382362 C9.13467371,17.3875337 9.28350375,17.3899759 9.4306099,17.3899759 C11.304202,17.3899759 12.8672048,16.9964957 12.9378847,16.9785384 L12.5158165,15.3241689 Z" id="Fill-11" fill="#F0C2C5"></path>
                <path d="M9.83709118,17.1732098 C9.69012869,17.1732098 9.54115499,17.1707676 9.39103202,17.1655959 C6.46370598,17.0640295 4.45967211,15.9490971 3.59571084,13.9414717 C2.42949242,11.2316444 3.09290664,9.34268088 3.7344848,7.5159214 C3.97238301,6.83871597 4.97598019,3.60439206 4.11790892,3.2538657 C2.64038287,2.65035701 2.67500453,1.91051655 2.75387296,0.907924976 C2.77901317,0.587279557 2.94853001,0.318782115 3.20524747,0.125848962 C2.72902006,0.297377022 2.38424004,0.655660927 2.34731985,1.12484907 C2.26845142,2.12729698 2.30235479,2.72103691 3.71135581,3.47064614 C3.81335323,3.524949 4.06360606,3.53026435 4.13457328,3.89055948 C4.13586621,5.33877922 3.56582991,7.05549641 3.32793169,7.73270184 C2.68635354,9.55946132 2.02293931,11.4484249 3.18930139,14.1583958 C4.05326266,16.1660212 6.05715288,17.2808099 8.98433526,17.3823763 C9.13460188,17.387548 9.28343192,17.3899902 9.43068173,17.3899902 C11.3042738,17.3899902 12.8672766,16.99651 12.9378128,16.9785527 L12.9073573,16.8588853 C12.3051415,16.9808513 11.1475426,17.1732098 9.83709118,17.1732098" id="Fill-13" fill="#ECB4B7"></path>
                <path d="M11.6085566,17.6960687 C10.8490349,17.6621653 9.25701316,14.0449919 8.70220464,15.5213687 C8.64574691,15.6716353 7.5701769,15.2915154 7.10501119,15.2102047 C7.13589773,15.3104783 7.11434898,15.4271288 7.01982179,15.5531172 C6.89110392,15.7246453 6.61441795,15.6219296 6.61441795,15.6219296 C6.7297756,15.7602725 6.75620874,16.1393869 6.67647836,16.2906591 C6.5342566,16.5611678 6.17051367,16.5582946 6.17051367,16.5582946 C6.42292138,16.9586704 6.30411593,17.1659694 6.14149469,17.1722904 C6.42579455,17.4725363 10.1045974,18.9766392 11.6085566,17.6960687" id="Fill-15" fill="#373532"></path>
                <path d="M11.3943332,15.9221611 C10.0022839,15.0773064 9.82328561,14.0580505 8.6615206,15.0538901 C8.37693342,15.297822 7.57014817,15.291501 7.10512612,15.2101904 C7.135869,15.3104639 7.11432025,15.4271145 7.01979306,15.5531028 C6.89107519,15.7246309 6.61453288,15.6219152 6.61453288,15.6219152 C6.72529346,15.7549428 6.75359415,16.1097789 6.68506912,16.2715382 C7.80747175,16.6977725 9.41472128,16.8751906 11.3943332,15.9221611" id="Fill-17" fill="#52504D"></path>
                <path d="M6.28758086,16.6290895 C6.28758086,16.6290895 6.6267582,16.5950424 6.77170947,16.3164889 C6.86149593,16.1435243 6.8643691,15.8666946 6.73306538,15.7089578 C6.73306538,15.7089578 7.01894548,15.733667 7.170936,15.4278184 C7.25353955,15.2855966 7.16978674,15.1268542 7.01865816,15.0619206 C6.76840533,14.9544642 6.6757457,14.9242959 6.38498121,14.8056341 C6.24520165,14.7484581 6.14507178,14.7672773 6.07295529,14.8333602 C5.96348764,14.9333464 5.89611187,15.2196575 6.20239146,15.4217847 C6.20239146,15.4217847 5.84224,15.3212239 5.64873221,15.6582464 C5.53940821,15.8485937 5.54113211,16.102007 5.76164767,16.2814363 C5.76164767,16.2814363 5.47878439,16.2565834 5.32478265,16.4308409 C5.30998584,16.4473617 5.29691293,16.464026 5.28542026,16.4805467 C5.21057427,16.5894398 5.28470197,16.7750463 5.39100914,16.8536274 C5.6166964,17.0205584 5.79512006,17.136778 6.01692854,17.2758393 C6.12194279,17.3417785 6.26258431,17.3223846 6.33972884,17.2255589 C6.43253212,17.109052 6.46327501,16.9074993 6.28758086,16.6290895" id="Fill-19" fill="#FFFFFF"></path>
                <path d="M29.0870361,16.5295486 L30.9362063,16.4634658 L29.0870361,16.5295486 Z" id="Fill-21" fill="#F4F0ED"></path>
                <path d="M30.1703636,13.5534074 C29.6990206,12.9282063 28.6842181,12.8460338 27.9784246,12.8805118 C25.7841871,12.9878246 23.8548556,14.3647898 22.7055889,16.1652598 C22.6588999,16.2383819 22.6175263,16.3182559 22.5770146,16.3931019 C22.8976601,16.2156838 23.4059233,15.7587067 24.2464682,15.1115258 C25.8600387,13.8693121 28.0442202,12.9901231 30.1703636,13.5534074" id="Fill-23" fill="#E5DCD5"></path>
                <path d="M25.7604404,15.0111805 C25.7107346,15.0266956 25.6614598,15.0409178 25.6114667,15.0581568 C26.5660764,14.5408431 27.6257003,14.2984914 28.6575982,14.2181864 C29.161408,14.1791114 30.3085199,13.5908304 30.1703205,13.5534793 C27.9684691,12.9572972 25.8173291,13.9015634 24.2464251,15.1115977 C23.4057365,15.7590658 22.897617,16.2157557 22.5769715,16.3931737 C22.5503948,16.4421612 22.5259728,16.4884192 22.5025565,16.5343899 C22.1629482,17.1960802 22.0172786,17.7606575 21.9769106,18.2163417 C23.0566467,16.947264 24.2370873,15.739241 25.7604404,15.0111805" id="Fill-25" fill="#EDE7E2"></path>
                <path d="M22.7817852,18.056134 C23.7338091,17.4717318 24.6935905,16.9577223 25.7901346,16.7139341 C25.7698788,16.7160889 25.7501976,16.7173819 25.7297981,16.7196804 C26.7879854,16.3611092 27.9119683,16.353639 28.958232,16.5044802 C28.9948649,16.5096519 29.0398299,16.520139 29.0870935,16.5296204 C29.630984,16.6386571 30.7202016,16.8848875 30.9362637,16.4635376 C27.910819,14.3079442 24.2314416,15.9347312 21.9676734,18.3606897 C21.9673861,18.3677289 21.9669551,18.3751991 21.9666678,18.3822384 C21.9655185,18.4154235 21.9648003,18.4481776 21.9649257,18.480357 C21.9649257,18.4971651 21.9655185,18.5136858 21.9658059,18.5302065 C21.9658059,18.5327923 21.9659495,18.5352345 21.9660932,18.5378204 C22.2407679,18.3537941 22.5135751,18.1937587 22.7817852,18.056134" id="Fill-27" fill="#EDE7E2"></path>
                <path d="M24.4783184,19.9846466 C24.4602175,20.2354741 24.2894077,20.3212381 24.0005108,20.3542796 C24.5923832,20.7053806 25.6501395,21.4572883 26.1357047,21.2238435 C26.1779403,21.2035877 26.1947483,21.1544565 26.2030805,21.1445441 C26.1084096,20.8204509 25.6985524,20.4121739 24.4783184,19.9846466" id="Fill-29" fill="#EDE7E2"></path>
                <path d="M24.3881154,19.9765874 C25.6208476,20.4219283 26.1871488,21.0020207 26.1960556,21.1498451 C26.4685755,20.7576578 26.0700672,20.2614619 25.6813278,19.9981362 C25.0962073,19.6017828 24.2242012,19.3104437 24.1163138,19.2894696 C24.1795234,19.4206296 24.3912758,19.9309041 24.3881154,19.9765874" id="Fill-31" fill="#E5DCD5"></path>
                <path d="M22.0244903,19.0111028 C22.0267888,19.0202969 22.0286564,19.0294911 22.0310986,19.0385415 C22.0342591,19.0513271 22.0375632,19.0641127 22.041011,19.076611 C22.0461827,19.0954302 22.0516417,19.1139622 22.0573881,19.1320631 C22.0619851,19.1471472 22.0667258,19.1618004 22.0716102,19.1763099 C22.0772129,19.1929743 22.0829592,19.2093513 22.0888492,19.2252974 C22.0930153,19.2363591 22.0971814,19.2472771 22.1013475,19.2579078 C22.1078121,19.2742849 22.1144204,19.290231 22.121316,19.3058897 C22.1264877,19.3181007 22.1318031,19.330168 22.1372621,19.3420916 C22.138555,19.3448211 22.1399916,19.3472633 22.1411409,19.3499928 L22.1888354,19.352866 C22.4909489,19.2918112 22.7682095,19.2579078 23.019037,19.24268 C23.0882803,19.1521753 23.1230456,19.1072102 23.1934382,19.0177111 C23.1934382,19.0177111 23.7554297,19.0789095 24.1955988,19.3099121 C25.0143077,19.4086054 25.8417798,19.5493906 26.5919636,19.8723346 C26.8945081,20.002489 27.6238615,20.4045887 27.9094543,20.1646793 C27.9699344,20.1138242 28.0134629,20.0586594 28.0436312,20.0003341 C27.1055422,18.650664 24.1292287,18.3045911 22.0244903,19.0111028" id="Fill-33" fill="#EDE7E2"></path>
                <path d="M21.9967068,18.8743832 C22.0001546,18.8953573 22.0040333,18.9161877 22.0080558,18.9365872 C22.0115036,18.9533952 22.0149514,18.9699159 22.0185428,18.986293 C22.0205541,18.9946252 22.0225653,19.0028137 22.0244328,19.0111459 C23.6424567,18.5273046 26.7693242,18.5385099 28.0437174,20.0002336 C28.2722778,19.5584842 27.6199253,18.9489418 27.2389433,18.7338853 C26.3231214,18.2171462 25.3800044,18.1576717 24.3505487,18.1545112 C23.5316962,18.2606747 22.746316,18.531758 21.9967068,18.8743832" id="Fill-35" fill="#E5DCD5"></path>
                <path d="M22.7817852,18.056134 C22.5217636,18.2316845 22.2511113,18.4307949 21.9715522,18.6580624 C21.9729888,18.6786056 21.974569,18.6991487 21.9764366,18.7191172 C21.9781605,18.7367872 21.9801717,18.7540262 21.9823266,18.7714089 C21.9844814,18.7900844 21.98678,18.80876 21.9893658,18.8270046 C21.9915207,18.8418014 21.9938192,18.8565982 21.9961178,18.8711077 C23.8587918,18.0969329 26.1104927,17.7212664 28.0188501,18.4964468 C28.7181789,18.7804593 29.309764,18.8883467 29.6220772,18.6744395 C29.6487977,18.6561949 29.671352,18.6357954 29.6906022,18.6138156 C27.7503527,16.8387732 25.0306129,17.0834233 22.7817852,18.056134" id="Fill-37" fill="#EDE7E2"></path>
                <path d="M29.6905735,18.6137869 C29.9560541,18.31311 29.549501,17.6637743 29.0481334,17.3679818 C28.0761411,16.7942104 26.9229955,16.6133445 25.7902495,16.7139053 C24.6935617,16.9576935 23.7337803,17.4717031 22.7817565,18.0561052 C25.0305842,17.0835383 27.7503239,16.8387444 29.6905735,18.6137869" id="Fill-39" fill="#E5DCD5"></path>
                <g transform="translate(21.967630, 14.771543)">
                    <mask id="mask-2" fill="white">
                        <use xlink:href="#path-1"></use>
                    </mask>
                    <g id="Clip-42"></g>
                    <path d="M8.9685903,1.69193686 C9.17560197,1.27001231 8.12560315,0.622975134 7.58156901,0.411222737 C7.53071396,0.391397886 7.47756037,0.371573035 7.42239557,0.351891842 C7.38877951,0.3399682 7.35286493,0.328188216 7.31766863,0.316264573 C7.29554525,0.308937998 7.27414016,0.301324106 7.25129848,0.29399753 C7.20288562,0.278338771 7.15231788,0.263110987 7.10117551,0.248026861 C7.09025748,0.244722719 7.08005774,0.241418577 7.06870873,0.238258093 C7.00822856,0.220731776 6.94544987,0.203636433 6.88109093,0.187259382 C5.86643206,-0.0723312423 4.79287327,-0.0685961254 3.79286755,0.239694677 C2.26937083,0.967755155 1.08893023,2.1756345 0.00933779224,3.44471229 C0.00833218385,3.45577398 0.00761389214,3.46654836 0.00675194208,3.47746639 C0.00474072529,3.50447416 0.00287316684,3.53119461 0.00158024176,3.55748409 C0.0010056084,3.56811481 0.000430975027,3.57860187 0,3.58908892 C2.26376816,1.1631305 5.49651183,-0.323733341 8.9685903,1.69193686" id="Fill-41" fill="#E5DCD5" mask="url(#mask-2)"></path>
                </g>
                <path d="M24.7127545,19.9977627 C24.7162023,19.9525103 24.7136164,19.905534 24.7016928,19.8566902 C24.6414999,19.6127583 24.1723118,19.3047548 24.1603882,19.3020253 C25.0109892,19.4074705 25.4184043,19.1032022 25.325601,18.6447884 C25.2493184,18.2686908 24.4571863,18.1562064 24.4571863,18.1562064 C25.7131912,18.0889743 26.1945903,17.6532585 26.1203189,17.2683978 C26.0486334,16.8968973 25.0446053,16.9069534 25.0446053,16.9069534 C26.2708729,16.2389421 26.5102077,15.9451608 26.1214682,15.4916314 C25.7262641,15.0306318 24.8733645,15.5729421 24.8733645,15.5729421 C25.5843296,14.95909 24.9515146,13.807812 24.2511802,14.187932 C23.6821495,14.4967974 23.1059359,15.2679554 22.6057176,15.8652868 C22.5663552,17.2061937 22.5491162,18.5479627 22.5463867,19.8895879 C22.5496908,19.8903062 22.8421792,19.9617044 24.0046625,20.4056087 C24.1641233,20.4663762 24.3482933,20.451292 24.4969797,20.3472834 C24.6188019,20.2619503 24.7014055,20.1399844 24.7127545,19.9977627" id="Fill-43" fill="#373532"></path>
                <path d="M13.0673065,15.977369 C11.2335077,15.8427612 11.1520534,17.4442644 11.344412,19.0240751 C11.9815367,22.2341208 14.3485952,23.7556063 13.6614774,25.4736164 C13.2549243,26.4898555 14.7996824,26.5711661 15.0841259,26.286579 C15.6767166,25.694132 14.9771005,25.9614801 15.3687131,22.7094863 C15.9785428,17.6448114 15.8015557,16.1782034 13.0673065,15.977369" id="Fill-45" fill="#F0C2C5"></path>
                <path d="M12.4846713,18.9596156 C12.3435988,17.7991436 12.5264759,16.5049256 13.3598379,15.9522719 C11.6240142,15.9011295 11.2371423,17.6856535 11.4253347,19.2319919 C12.0626031,22.4420375 14.1694964,23.4818366 13.7426874,25.5956254 C14.5352505,23.2583042 13.1219397,22.169805 12.4846713,18.9596156" id="Fill-47" fill="#E89EA2"></path>
                <path d="M14.567157,26.3693118 L14.5378507,24.9384747 L7.77024987,25.1678971 C7.7173836,25.1730688 7.66365539,25.1760856 7.60992717,25.1779532 L7.53177703,26.7074836 C7.53350093,26.7070526 7.55548065,26.4773429 7.55720455,26.4767683 L14.567157,26.3693118 Z" id="Fill-49" fill="#F0C2C5"></path>
                <path d="M10.5043267,13.4686059 C9.19387531,13.9928152 6.95352347,16.1393582 8.69566818,18.8082428 C10.9979368,22.3349115 17.1433533,22.5401993 19.5605486,21.6911785 C21.9107991,20.8654303 23.3266957,19.3792848 23.5255188,18.1468398 C23.810106,15.446925 20.0364887,13.3970641 18.2276865,13.0051641 C15.4188786,12.396771 12.4236022,12.7007521 10.5043267,13.4686059" id="Fill-51" fill="#52504D"></path>
                <path d="M16.1096597,13.7936617 L16.7331369,14.2066794 C16.3942469,14.0390301 16.2297581,14.1836941 15.8357033,14.0875866 C11.2486924,12.9680572 9.21434663,15.2242114 9.11536603,16.3375636 C9.01466153,17.4727518 9.78337732,18.8337709 12.0096507,19.827312 C12.5521046,20.0693763 13.0251715,20.248231 13.4377582,20.3756559 C13.5680563,20.4158803 13.6961996,20.4586904 13.8239119,20.5056667 C14.5967937,20.7909722 16.9937332,21.6012052 17.756559,21.1032854 C18.7242416,20.471476 18.2355159,19.7481563 18.2355159,19.7481563 C18.2355159,19.7481563 19.413227,20.3089985 19.9469177,19.638545 C20.6817301,18.7152528 19.5952421,17.7344973 19.2586506,17.4392794 C19.2586506,17.4392794 19.9566865,17.5519075 20.1415748,17.1715003 C20.5120696,16.4102547 19.642793,15.2928801 16.1096597,13.7936617" id="Fill-53" fill="#373532"></path>
                <path d="M23.0932222,16.3306249 C23.4097015,17.1493338 21.479508,19.3562132 19.3638516,20.0993578 C17.1880023,20.8637639 11.6562942,20.6788756 9.58402264,17.5043135 C8.72322185,16.1856736 8.85768606,15.010692 9.45429916,14.15966 C8.23463983,15.0132779 7.44207676,16.9644455 8.69563945,18.8083003 C11.0638472,22.2910095 17.1433246,22.5402567 19.5605199,21.6910923 C21.910914,20.8653441 23.326667,19.3793422 23.5254901,18.1468973 C23.642428,17.4402419 23.4888572,16.8620171 23.0932222,16.3306249" id="Fill-55" fill="#373532"></path>
                <path d="M13.7965449,17.5362775 C12.5751617,18.9106569 13.7810298,20.3459474 15.1523924,21.1531636 C18.0889125,22.5980792 21.0672373,21.7657228 22.0583362,23.5074365 C22.5559687,24.3817412 23.2323122,22.3305874 23.2042988,22.0883794 C23.0775921,20.9886748 22.1851865,21.8039359 20.841981,20.0998606 C18.1386183,16.6700177 15.6177017,15.4868476 13.7965449,17.5362775" id="Fill-57" fill="#F0C2C5"></path>
                <path d="M15.6300133,20.0469369 C14.6225373,19.4539153 13.6558603,18.6215588 13.7235234,17.6238516 C12.6279849,18.9713669 13.8101494,20.3629853 15.1523493,21.1532498 C18.0888694,22.5980217 21.1467809,21.8096248 22.0108858,23.4698842 C21.7981278,23.0134817 21.6801843,22.4042266 20.7283042,21.8045967 C20.1745013,21.4557943 18.7035835,20.8186695 15.6300133,20.0469369" id="Fill-59" fill="#E89EA2"></path>
                <path d="M13.9230792,16.6135169 C12.3748733,17.6053341 13.1464622,19.3137191 14.2476034,20.4625549 C14.4085007,20.6070751 14.5731332,20.7424013 14.7400642,20.8699699 C15.6833249,21.1243888 17.4935636,21.0654889 17.9715149,20.7797525 C18.8719654,20.2414647 18.3058079,19.6748762 18.3058079,19.6748762 C18.3058079,19.6748762 19.4990341,19.9258473 20.0080156,19.0774011 C18.528191,16.5299077 15.790494,15.4171302 13.9230792,16.6135169" id="Fill-61" fill="#E89EA2"></path>
                <path d="M6.6796963,25.9269016 C6.6796963,25.9269016 6.92334085,25.2764166 7.77035044,25.1679546 C8.95912322,25.0155331 8.95625008,26.0481492 8.95625008,26.0481492 L7.674243,26.7207576 L6.6796963,25.9269016 Z" id="Fill-63" fill="#F0C2C5"></path>
                <path d="M14.1427759,26.0506345 L7.56020701,26.1514827 L7.53176266,26.7075841 C7.53348656,26.7070095 7.55546629,26.4772998 7.55719019,26.4767252 L14.1427759,26.375877 C14.5082427,26.4765815 14.9455387,26.4251518 15.084169,26.2866652 C15.3451962,26.0254943 15.3552523,25.9312544 15.3187631,25.6295719 C15.2911807,25.7305637 15.2232303,25.8222177 15.084169,25.9614227 C14.9455387,26.100053 14.5082427,26.151339 14.1427759,26.0506345" id="Fill-65" fill="#ECB4B7"></path>
                <path d="M3.76430827,27.8107365 C3.67466547,28.0424574 3.71330956,28.6919368 4.56692743,28.7324484 C5.45444867,28.7743967 6.88370551,27.9999346 6.88370551,27.9999346 C7.41265553,27.9306912 7.10867448,27.9273871 7.81992693,27.5316084 C8.24458099,27.295434 8.54999862,26.8612985 8.26512413,25.92637 L6.88298722,25.6423575 C5.33866004,26.9434711 3.93382512,27.3724349 3.76430827,27.8107365" id="Fill-67" fill="#F0C2C5"></path>
                <path d="M6.93601152,27.0025865 C5.76447774,27.8026198 4.45718682,28.5519417 3.98713673,28.5493559 C4.11556728,28.6486238 4.30189215,28.7198783 4.5669418,28.7323766 C5.33106052,28.7684349 6.49612967,28.1996915 6.80542608,28.040949 L6.93601152,27.0025865 Z" id="Fill-69" fill="#E89EA2"></path>
                <path d="M3.86348999,27.7977498 C3.02869136,27.9070738 3.12336221,28.88668 3.12336221,28.88668 C3.12336221,28.88668 3.35752531,28.6204811 4.02999001,28.5324186 C4.0883153,28.5248047 4.26846286,28.3914897 4.24274801,28.1599125 C4.21674585,27.9280479 4.10167552,27.7665759 3.86348999,27.7977498" id="Fill-71" fill="#EDE7E2"></path>
                <path d="M6.83233329,26.9776762 C6.83233329,26.9776762 5.93791645,27.6686728 5.66439097,28.7726871 C5.66439097,28.7726871 6.6378199,28.7027255 6.75102267,28.562946 C7.44173198,27.7091844 7.88563626,27.5987112 8.06233602,27.3898319 C8.50925712,26.8611692 7.53712112,26.5826157 6.83233329,26.9776762" id="Fill-73" fill="#F0C2C5"></path>
                <polygon id="Fill-75" fill="#F0C2C5" points="26.0500125 28.0495111 22.8036213 21.8183305 21.5270733 22.4653676 24.7081 28.533927"></polygon>
                <path d="M26.3846072,29.1862939 C26.3846072,29.1862939 25.6801067,29.4843849 24.9911213,28.9614686 C24.6308261,28.6880867 24.3521289,27.614528 24.3521289,27.614528 L26.1484329,27.9216695 L26.3846072,29.1862939 Z" id="Fill-77" fill="#F0C2C5"></path>
                <path d="M29.7003854,29.8864128 C29.9266473,29.7841281 30.2911085,29.3472631 29.7745131,28.6666098 C29.2843508,28.0210092 27.4685094,27.8855394 27.4685094,27.8855394 C27.0428497,27.5638884 27.3978295,27.4580122 26.6131676,27.2415191 C26.1448414,27.1122266 25.6226433,27.2076157 25.1702632,28.0737318 L25.9563617,29.2455529 C27.9697333,29.400704 29.2721399,30.0800643 29.7003854,29.8864128" id="Fill-79" fill="#F0C2C5"></path>
                <path d="M29.7957889,28.6959736 C29.9008031,29.1110025 29.7792682,29.597286 29.6093203,29.6741432 C29.1909873,29.8631976 27.9535143,29.2388585 26.0187237,29.0643136 C25.0701477,29.1727756 24.6437697,28.3991755 24.5838642,28.3055102 C24.6933319,28.5727147 24.834548,28.8426488 24.9911356,28.9614542 C25.4054463,29.276066 25.8253596,29.2934486 26.094288,29.2573904 C28.0290786,29.4319353 29.281923,30.0756683 29.7003997,29.8864703 C29.9235011,29.7854785 30.2799175,29.3596751 29.7957889,28.6959736" id="Fill-81" fill="#E89EA2"></path>
                <path d="M29.77447,28.6665811 C29.7596732,28.6473309 29.7435834,28.6286553 29.7267754,28.610267 C29.721891,28.6049517 29.7165757,28.59978 29.7115476,28.5944646 C29.6986184,28.5811044 29.6851145,28.5678878 29.6708923,28.5551022 C29.6654333,28.5499305 29.6598306,28.5449025 29.6540843,28.5398744 C29.6377072,28.5255086 29.6206119,28.5114301 29.6029419,28.4976389 C29.5994941,28.495053 29.5963336,28.4924672 29.5928858,28.4898813 C29.5472025,28.4549724 29.4972094,28.4222183 29.4440558,28.3911881 C28.8873797,28.0666639 27.979459,27.9395262 27.6213187,27.9003075 C27.5723312,27.9622242 26.9133704,28.2891906 26.8994356,28.4003822 C26.8994356,28.4003822 26.9670987,28.4816928 28.8777546,28.4816928 C29.2343146,28.4816928 29.6637094,28.5900112 29.8396909,28.9424051 C29.9118074,29.0864944 29.8340882,28.8202955 29.9266042,28.9054849 C29.8878164,28.8296333 29.8376796,28.7499029 29.77447,28.6665811" id="Fill-83" fill="#ECB4B7"></path>
                <path d="M26.8092612,28.3823531 C26.8092612,28.3823531 27.9121263,28.6293018 28.9364103,28.1349734 C28.9364103,28.1349734 28.2607851,27.4303292 28.0812122,27.4326278 C26.9829442,27.4462753 26.6144605,27.175192 26.340935,27.1726062 C25.6487891,27.1661415 26.0550549,28.0921632 26.8092612,28.3823531" id="Fill-85" fill="#F0C2C5"></path>
                <path d="M29.6205688,29.8261625 C30.2924589,30.3335638 30.91177,29.5687268 30.91177,29.5687268 C30.91177,29.5687268 30.5580831,29.5942979 30.0169222,29.18559 C29.9699459,29.1501063 29.7481374,29.1187888 29.6041917,29.3019532 C29.4599588,29.4854049 29.4287849,29.6813549 29.6205688,29.8261625" id="Fill-87" fill="#EDE7E2"></path>
                <path d="M3.75209731,3.20145914 C3.75209731,3.20145914 4.74262158,3.72207697 5.55860097,2.8726252 C5.56133047,2.87003935 5.56377267,2.86730984 5.56635852,2.86458033 C5.95323043,2.4577399 6.0533603,1.85193267 5.82939694,1.33706118 C5.60945602,0.831383812 5.241547,0.431869962 4.67639509,0.169549829 C3.60743336,-0.289582232 2.417224,0.23534535 2.34740604,1.12473415 C2.27284736,2.07144262 2.29956781,2.65368988 3.48905889,3.34684138 C3.61820774,3.36666623 3.64133673,3.21252083 3.75209731,3.20145914" id="Fill-89" fill="#F5D6D8"></path>
                <path d="M3.80764999,0.6452026 C3.63712754,0.6452026 3.49878456,0.783401925 3.49878456,0.954068036 C3.49878456,1.12473415 3.63712754,1.26293347 3.80764999,1.26293347 C3.97817245,1.26293347 4.11651543,1.12473415 4.11651543,0.954068036 C4.11651543,0.783401925 3.97817245,0.6452026 3.80764999,0.6452026" id="Fill-91" fill="#3E3C39"></path>
                <path d="M3.88453594,0.718023014 C3.80868433,0.718023014 3.74719856,0.779508784 3.74719856,0.855360389 C3.74719856,0.931211994 3.80868433,0.992697764 3.88453594,0.992697764 C3.96038754,0.992697764 4.02187331,0.931211994 4.02187331,0.855360389 C4.02187331,0.779508784 3.96038754,0.718023014 3.88453594,0.718023014" id="Fill-93" fill="#FFFFFF"></path>
                <path d="M4.39561486,3.52306707 C4.70649151,3.51588415 4.93778144,3.28100276 4.93778144,3.28100276 C3.74857768,3.47091909 2.95529632,2.47234996 2.95529632,2.47234996 C2.06274704,0.921558153 3.21890938,0.14881993 3.77730935,0.00171378803 C3.02884939,0.0328876483 2.39775829,0.484262159 2.34733421,1.12483471 C2.26846578,2.12728262 2.30236915,2.72116621 3.71137017,3.47063178 C3.84626536,3.54088071 4.14119593,3.52680219 4.14119593,4.32008355 C4.14119593,4.32008355 4.54559417,4.15602573 4.39561486,3.52306707" id="Fill-95" fill="#ECB4B7"></path>
                <g transform="translate(0.000000, 1.007198)">
                    <mask id="mask-4" fill="white">
                        <use xlink:href="#path-3"></use>
                    </mask>
                    <g id="Clip-98"></g>
                    <path d="M2.33509452,0.0367857553 L0.407774204,1.03090148 C0.104367786,1.14712108 -0.0362737314,1.36160299 0.00797303799,1.60496022 C0.0240627723,1.69244815 0.194872541,1.74718198 1.04073286,1.69891277 C1.50790979,1.67219232 2.70716963,1.64963796 3.17477753,1.66443477 L3.72671288,1.68181743 C3.8932129,1.67736402 4.03213052,1.55338687 4.05525951,1.3884671 C4.0732168,1.26089849 4.01762103,1.13404817 3.91160117,1.06078242 C3.91160117,1.06078242 2.95354369,0.958210362 2.810029,0.603805232 C2.71823132,0.37696871 2.70788792,0.227995009 2.65157385,0.122549786 C2.58031931,-0.0106214976 2.47128263,-0.0287224487 2.33509452,0.0367857553" id="Fill-97" fill="#FFE685" mask="url(#mask-4)"></path>
                </g>
                <path d="M0.809486026,2.62001637 C0.239449725,2.68940335 0.00801613549,2.61211516 0.00801613549,2.61211516 C0.0239622115,2.69960309 0.194915639,2.75448057 1.04077596,2.70606771 C1.50780923,2.67949092 2.70721273,2.6567929 3.17482063,2.67158971 L3.72675598,2.68897237 C3.893256,2.68466262 4.03217362,2.56054181 4.05530261,2.39562204 C4.05616456,2.38958839 4.0560209,2.38355474 4.05659553,2.37752109 C3.90130087,2.57677521 1.85474412,2.49259142 0.809486026,2.62001637" id="Fill-99" fill="#F1C24F"></path>
                <path d="M1.6492696,1.82463759 C1.6492696,1.82463759 1.82036668,1.61547104 1.97408111,1.58544645 C2.12765188,1.5552782 2.09073168,1.77766131 2.02953323,1.78671179 C1.96847843,1.79576226 1.6492696,1.82463759 1.6492696,1.82463759" id="Fill-101" fill="#DBAB0D"></path>
                <path d="M13.1252439,19.886097 C13.1252439,19.886097 15.7382455,20.8998939 17.8533272,20.3936419 C18.9413955,20.1330457 18.0715443,19.4005318 18.0715443,19.4005318 C18.0715443,19.4005318 19.4792523,19.6833951 19.9468603,18.8195775 C20.3287041,18.1145023 19.145103,17.3409022 18.7888304,17.0876325 C18.7888304,17.0876325 19.9218637,17.4143116 20.2183745,16.8596467 C20.7092551,15.9418136 18.208738,14.5165792 16.1982395,13.7095066 L13.1252439,19.886097 Z" id="Fill-105" fill="#FFFFFF"></path>
                <path d="M18.7888016,17.0876325 C18.7888016,17.0876325 19.921835,17.4143116 20.2183458,16.8596467 C20.2337172,16.8312024 20.2459282,16.8023271 20.2554096,16.7728771 C19.7449915,16.5303818 18.2038249,15.8161125 15.6612159,14.7886681 L15.0568452,16.0035867 C16.7466983,16.4653046 17.9996863,16.8441316 18.8034548,17.0978323 C18.7985704,17.0945281 18.7933987,17.090793 18.7888016,17.0876325" id="Fill-107" fill="#E9E9E9"></path>
                <path d="M13.1252439,19.886097 C13.1252439,19.886097 15.7382455,20.8998939 17.8533272,20.3936419 C18.1827358,20.3147735 18.3319968,20.1925203 18.3809843,20.0606419 C18.1583139,20.1172433 14.7632363,19.5779499 13.5147016,19.1034464 L13.1252439,19.886097 Z" id="Fill-109" fill="#E9E9E9"></path>
                <path d="M18.0715012,19.4004744 C18.0715012,19.4004744 19.4793529,19.6833376 19.946982,18.8196637 C19.9545747,18.8052979 17.9077306,18.290139 14.6120646,16.8978024 L14.0763627,17.974378 C15.0644447,18.4000377 16.802998,18.9952142 18.0957794,19.4221668 C18.0806953,19.4083756 18.0715012,19.4004744 18.0715012,19.4004744" id="Fill-111" fill="#E9E9E9"></path>
                <path d="M15.7070285,18.7486821 C15.7070285,18.7486821 17.2550908,19.2724604 17.68937,18.2917049 C18.092188,17.3819166 16.5311964,16.5596163 16.5311964,16.5596163 C16.5311964,16.5596163 17.8254144,16.9394489 18.2793748,16.2984454 C18.8170879,15.5394984 17.7079019,14.3741419 16.1467667,13.8132998 L13.1252008,19.8860252 C13.1252008,19.8860252 13.8065723,20.1499256 14.7539991,20.3411348 C14.806147,20.3408475 14.858295,20.3409912 14.9102993,20.3363941 C16.2667214,20.2168704 15.9598672,18.9387421 15.7070285,18.7486821" id="Fill-113" fill="#E9E9E9"></path>
                <path d="M8.50348205,15.7198614 C8.41671241,16.8820574 9.22910034,18.2784165 11.5379772,19.3034188 C16.3832858,21.4542715 15.8936981,18.8248929 15.5221977,18.545621 C15.5221977,18.545621 17.0704036,19.0693993 17.5045391,18.0886438 C17.9073571,17.1788556 16.3465092,16.3565552 16.3465092,16.3565552 C16.3465092,16.3565552 17.6407272,16.7363879 18.0946876,16.0953844 C18.6956105,15.2470818 17.2394895,13.8903725 15.3939108,13.4382797 C10.650887,12.2762273 8.58867145,14.5800762 8.50348205,15.7198614" id="Fill-115" fill="#52504D"></path>
                <path d="M15.0371353,15.3184944 C15.4232889,15.2989569 15.9094287,14.5203287 15.6042984,14.0182427 C15.6042984,14.0182427 15.4393786,13.5033712 13.74852,13.1664924 C13.7284078,13.16247 13.7087266,13.1583039 13.6884708,13.1544251 C14.5919381,13.4434657 14.7292755,13.7814938 14.7292755,13.7814938 C15.0186034,14.2578649 14.5573164,14.9964124 14.1911313,15.0149443 C14.5433816,15.274104 15.001508,15.4944759 14.8531089,16.1488396 C14.7357401,16.665866 13.9246451,16.9949873 13.5586036,17.0362172 C13.7801248,17.206165 14.3184126,17.7654269 13.9358504,18.2119171 C13.1977339,19.0732925 11.7219317,18.7286561 11.7219317,18.7286561 C11.7219317,18.7286561 13.8258081,19.7112792 14.64581,18.6885755 C15.0348368,18.2034412 14.6037181,17.6282332 14.3702733,17.4490913 C14.7561396,17.4057065 15.611194,17.0586279 15.7347402,16.5137318 C15.8913278,15.8240281 15.4084921,15.5915889 15.0371353,15.3184944" id="Fill-117" fill="#373532"></path>
            </g>
        </g>
    </g>
</svg>