<?xml version="1.0" encoding="UTF-8"?>
<svg width="14px" height="14px" viewBox="0 0 14 14" version="1.1" xmlns="http://www.w3.org/2000/svg" xmlns:xlink="http://www.w3.org/1999/xlink">
    <title>question</title>
    <defs>
        <polygon id="path-1" points="0 0 13.9989746 0 13.9989746 14 0 14"></polygon>
    </defs>
    <g id="页面-1" stroke="none" stroke-width="1" fill="none" fill-rule="evenodd">
        <g id="launchpad-swap" transform="translate(-1117.000000, -218.000000)">
            <g id="松鼠实验室完整备份" transform="translate(233.210804, 209.655975)">
                <g id="编组-18" transform="translate(856.789196, 6.344025)">
                    <g id="question" transform="translate(27.000000, 2.000000)">
                        <mask id="mask-2" fill="white">
                            <use xlink:href="#path-1"></use>
                        </mask>
                        <g id="Clip-2"></g>
                        <path d="M6.31648232,10.4999786 C6.31648232,10.8221568 6.57763254,11.0833753 6.89981067,11.0833753 C7.22197171,11.0833753 7.48313902,10.8221568 7.48313902,10.4999786 C7.48313902,10.1778176 7.22197171,9.91666738 6.89981067,9.91666738 C6.57763254,9.91666738 6.31648232,10.1778176 6.31648232,10.4999786 Z M6.89981067,9.05916633 L6.85313825,9.05916633 C6.72296475,9.04734015 6.60287427,8.98405638 6.51962954,8.88326036 C6.43638481,8.78244724 6.39685595,8.65261554 6.40981007,8.52249331 C6.58424632,7.81381081 6.99853882,7.18722801 7.58232859,6.74916351 C8.46312312,5.86836898 8.48062315,5.58250681 8.49229552,5.29085119 C8.50839418,4.93924431 8.37734909,4.59683178 8.13067399,4.34583294 C7.83554912,4.03787358 7.42552908,3.86665023 6.99901733,3.87333236 C6.18711204,3.87333236 5.52901554,4.53148014 5.52901554,5.34331707 C5.52901554,5.51942812 5.43502128,5.6821749 5.28254551,5.77023898 C5.13000138,5.85828596 4.94208123,5.85828596 4.78960546,5.77023898 C4.63707841,5.6821749 4.54313543,5.51942812 4.54313543,5.34331707 C4.55595283,3.99709716 5.65264362,2.91342885 6.99901733,2.91668566 C7.69081505,2.91536 8.35291059,3.19794092 8.83062357,3.69834924 C9.25166657,4.13995134 9.47491147,4.73375578 9.44900323,5.34331707 C9.41395192,5.97917966 9.22148587,6.47499081 8.24731231,7.4433709 C7.75731172,7.9333715 7.44234551,8.3066825 7.41317311,8.6100276 C7.40081714,8.86924667 7.18847557,9.07384653 6.92898307,9.07664926 L6.89981067,9.05916633 Z M11.2223501,11.2349795 C9.51274843,12.9871692 6.91175648,13.5282343 4.64528155,12.6032454 C2.37880661,11.6783248 0.899063597,9.47192074 0.903531009,7.02393436 C0.908001597,4.57601633 2.39575976,2.37502975 4.66563558,1.45831233 C7.31543618,0.34460003 10.3829302,1.26150545 11.9867798,3.64675494 C13.5906977,6.03198734 13.2826017,9.21871731 11.2515225,11.2525479 L11.2223501,11.2349795 Z M6.99901733,0 C3.13296525,0 -0.00102539188,3.13399064 -0.00102539188,7.00004272 C-0.00102539188,10.8660094 3.13296525,14 6.99901733,14 C10.864984,14 13.9989746,10.8660094 13.9989746,7.00004272 C13.9989746,3.13399064 10.864984,0 6.99901733,0 Z" id="Fill-1" fill="#232120" mask="url(#mask-2)"></path>
                    </g>
                </g>
            </g>
        </g>
    </g>
</svg>