<?xml version="1.0" encoding="UTF-8"?>
<svg width="12px" height="7px" viewBox="0 0 12 7" version="1.1" xmlns="http://www.w3.org/2000/svg" xmlns:xlink="http://www.w3.org/1999/xlink">
    <title>shangjiantou_huaban备份</title>
    <g id="页面-1" stroke="none" stroke-width="1" fill="none" fill-rule="evenodd" opacity="0.400000006">
        <g id="launchpad-farm" transform="translate(-1635.000000, -557.000000)" fill="#2B1106">
            <g id="shangjiantou_huaban备份" transform="translate(1641.000051, 560.780220) scale(1, -1) translate(-1641.000051, -560.780220) translate(1635.094923, 557.578150)">
                <path d="M11.1299332,6.40414019 C11.3040097,6.40414019 11.4780781,6.33769221 11.6109426,6.20482769 C11.743803,6.07196729 11.8102551,5.8979324 11.8102551,5.72388631 C11.8102551,5.54984022 11.743803,5.37580533 11.610944,5.24294632 L11.610944,5.24294632 L6.69413325,0.326237606 C6.47663265,0.108693433 6.1909623,0 5.90533588,0 C5.61971272,0 5.33405233,0.108691201 5.11654867,0.326252962 L5.11654867,0.326252962 L0.199504992,5.24316025 C0.0664946812,5.3757456 0,5.54995249 0,5.72383529 C0,5.89769725 0.0666015147,6.07170855 0.199448555,6.20455559 C0.332309989,6.33741702 0.506353263,6.40386809 0.680406948,6.40386809 C0.854460634,6.40386809 1.02850391,6.33741702 1.16136882,6.20455211 L1.16136882,6.20455211 L5.904991,1.46117498 L10.6489238,6.20482769 C10.7817883,6.33769221 10.9558567,6.40414019 11.1299332,6.40414019 Z" id="Fill-1"></path>
            </g>
        </g>
    </g>
</svg>