<svg t="1687452961925" class="icon" viewBox="0 0 1024 1024" version="1.1" xmlns="http://www.w3.org/2000/svg" p-id="4077" width="15" height="15"><path d="M765.627 559.307c35.552 0 64.373 28.83 64.373 64.395a64.407 64.407 0 0 1-16.525 43.077L559.848 948.683c-23.783 26.434-64.485 28.577-90.91 4.786a64.384 64.384 0 0 1-4.786-4.786L210.525 666.779c-23.783-26.434-21.64-67.15 4.785-90.941a64.36 64.36 0 0 1 43.063-16.53z m0 59.795H258.373a4.6 4.6 0 0 0-3.418 7.677l253.628 281.903c0.107 0.12 0.222 0.234 0.341 0.342l0.307 0.253a4.597 4.597 0 0 0 6.187-0.595l253.627-281.903a4.6 4.6 0 0 0-3.418-7.677zM559.848 87.317l253.627 281.904A64.407 64.407 0 0 1 830 412.298c0 35.564-28.82 64.395-64.373 64.395H258.373a64.36 64.36 0 0 1-43.063-16.53c-26.425-23.792-28.568-64.508-4.785-90.942L464.152 87.317a64.383 64.383 0 0 1 4.785-4.786c26.426-23.791 67.128-21.648 90.911 4.786z m-50.617 39.406l-0.307 0.253c-0.12 0.108-0.234 0.222-0.341 0.342L254.955 409.221a4.6 4.6 0 0 0 3.418 7.677h507.254a4.599 4.599 0 0 0 3.418-7.677L515.418 127.318a4.597 4.597 0 0 0-6.187-0.595z" fill="rgba(46, 15, 0, 1)" p-id="4078"></path></svg>