<?xml version="1.0" encoding="UTF-8"?>
<svg width="17px" height="18px" viewBox="0 0 17 18" version="1.1" xmlns="http://www.w3.org/2000/svg" xmlns:xlink="http://www.w3.org/1999/xlink">
    <title>youjiantou备份 2</title>
    <defs>
        <polygon id="path-1" points="0 0 13.2842466 0 13.2842466 10 0 10"></polygon>
    </defs>
    <g id="页面-1" stroke="none" stroke-width="1" fill="none" fill-rule="evenodd">
        <g id="launchpad-farm-Active展开" transform="translate(-1622.000000, -1676.000000)">
            <g id="youjiantou备份-2" transform="translate(1630.642123, 1685.000000) rotate(-45.000000) translate(-1630.642123, -1685.000000) translate(1624.000000, 1680.000000)">
                <mask id="mask-2" fill="white">
                    <use xlink:href="#path-1"></use>
                </mask>
                <g id="Clip-2"></g>
                <path d="M13.1220092,4.60822571 L8.67602086,0.16232396 C8.45967548,-0.0541079866 8.10890423,-0.0541079866 7.89247228,0.16232396 C7.67612691,0.378669333 7.67612691,0.729440588 7.89247228,0.945872535 L11.4125215,4.46594335 L0.532768879,4.46594335 C0.237793779,4.46594335 -0.00129859168,4.70501408 -0.00129859168,4.99998918 C-0.00129859168,5.29496428 0.237793779,5.53405665 0.532768879,5.53405665 L11.4125215,5.53405665 L7.89247228,9.05412747 C7.67612691,9.27047284 7.67612691,9.62133067 7.89247228,9.83767604 C8.00068825,9.94589201 8.14245118,10 8.28423575,10 C8.42602031,10 8.56789146,9.94589201 8.67602086,9.83767604 L13.1220092,5.39177429 C13.2258965,5.28786531 13.2842466,5.14692483 13.2842466,4.99998918 C13.2842466,4.85305353 13.2258965,4.71213469 13.1220092,4.60822571 Z" id="Fill-1" fill="#000000" mask="url(#mask-2)"></path>
            </g>
        </g>
    </g>
</svg>