<?xml version="1.0" encoding="UTF-8"?>
<svg width="40px" height="40px" viewBox="0 0 40 40" version="1.1" xmlns="http://www.w3.org/2000/svg" xmlns:xlink="http://www.w3.org/1999/xlink">
    <title>编组 7</title>
    <g id="页面-1" stroke="none" stroke-width="1" fill="none" fill-rule="evenodd">
        <g id="Ostrich-trade" transform="translate(-263.000000, -735.000000)">
            <g id="USDT备份-3" transform="translate(263.000000, 735.000000)">
                <path d="M40,19.9999755 C40,31.0460359 31.0460359,40 19.9999755,40 C8.95435669,40 0,31.0460359 0,19.9999755 C0,8.95411133 8.95435669,0 19.9999755,0 C31.0460359,0 40,8.95411133 40,19.9999755" id="Fill-1" fill="#1BA27A"></path>
                <polygon id="Fill-2" fill="#FFFFFF" points="29.3866094 10.085079 10.448557 10.085079 10.448557 14.6572366 17.6315044 14.6572366 17.6315044 21.3770894 22.203662 21.3770894 22.203662 14.6572366 29.3866094 14.6572366"></polygon>
                <path d="M19.960914,22.0930041 C14.0189541,22.0930041 9.20163165,21.152584 9.20163165,19.9923202 C9.20163165,18.8323999 14.0187579,17.8917835 19.960914,17.8917835 C25.903021,17.8917835 30.7201963,18.8323999 30.7201963,19.9923202 C30.7201963,21.152584 25.903021,22.0930041 19.960914,22.0930041 M32.0420549,20.3425487 C32.0420549,18.8465818 26.6331667,17.633958 19.960914,17.633958 C13.2890048,17.633958 7.87972397,18.8465818 7.87972397,20.3425487 C7.87972397,21.6599908 12.0740745,22.7575893 17.6318969,23.0006931 L17.6318969,32.6475571 L22.2034657,32.6475571 L22.2034657,23.0045208 C27.8040301,22.768925 32.0420549,21.6667137 32.0420549,20.3425487" id="Fill-3" fill="#FFFFFF"></path>
            </g>
        </g>
    </g>
</svg>