<?xml version="1.0" encoding="UTF-8"?>
<svg width="17px" height="22px" viewBox="0 0 17 22" version="1.1" xmlns="http://www.w3.org/2000/svg" xmlns:xlink="http://www.w3.org/1999/xlink">
    <title>qiehuan (1)</title>
    <defs>
        <polygon id="path-1" points="0 0 21.331841 0 21.331841 16 0 16"></polygon>
    </defs>
    <g id="页面-1" stroke="none" stroke-width="1" fill="none" fill-rule="evenodd">
        <g id="launchpad-swap" transform="translate(-1618.000000, -421.000000)">
            <g id="qiehuan-(1)" transform="translate(1626.665920, 432.000000) scale(1, -1) rotate(-90.000000) translate(-1626.665920, -432.000000) translate(1616.000000, 424.000000)">
                <g id="编组">
                    <mask id="mask-2" fill="white">
                        <use xlink:href="#path-1"></use>
                    </mask>
                    <g id="Clip-2"></g>
                    <path d="M5.07631421,7.36913961 C5.42473295,7.71755835 5.42473295,8.28233753 5.07631421,8.63075627 C4.72789547,8.979175 4.1631163,8.979175 3.81469756,8.63075627 L0.260784779,5.07687819 C0.0925622846,4.90997454 -0.00208239111,4.68288979 -0.00208239111,4.44605251 C-0.00208239111,4.20907641 0.0925622846,3.98199166 0.260784779,3.81522683 L3.81469756,0.261209934 C4.1631163,-0.0870699781 4.72789547,-0.0870699781 5.07631421,0.261209934 C5.42473295,0.609628673 5.42473295,1.17454667 5.07631421,1.52282659 L2.14430753,4.44605251 L5.07631421,7.36913961 Z" id="Fill-1" fill="#2B1106" mask="url(#mask-2)"></path>
                    <path d="M0.891610458,5.33446997 C0.400825581,5.33446997 0.00305417362,4.93669856 0.00305417362,4.44605251 C0.00305417362,3.95526764 0.400825581,3.55749623 0.891610458,3.55749623 L11.5534182,3.55749623 C12.0440643,3.55749623 12.4418357,3.95526764 12.4418357,4.44605251 C12.4418357,4.93669856 12.0440643,5.33446997 11.5534182,5.33446997 L0.891610458,5.33446997 Z M16.2534444,8.63075627 C15.9051644,8.28233753 15.9051644,7.71755835 16.2534444,7.36913961 C16.6018631,7.02072088 17.1668158,7.02072088 17.5150957,7.36913961 L21.0691126,10.9231565 C21.2373698,11.0899213 21.331841,11.3170061 21.331841,11.5539822 C21.331841,11.7908195 21.2373698,12.0179042 21.0691126,12.1848079 L17.5150957,15.7386859 C17.1668158,16.0871047 16.6018631,16.0871047 16.2534444,15.7386859 C15.9051644,15.3902672 15.9051644,14.8254533 16.2534444,14.4770346 L19.1854857,11.5539822 L16.2534444,8.63075627 Z" id="Fill-3" fill="#2B1106" mask="url(#mask-2)"></path>
                </g>
                <path d="M20.4382869,10.6654259 C20.928933,10.6654259 21.3267044,11.0631973 21.3267044,11.5539822 C21.3267044,12.0445935 20.928933,12.4423649 20.4382869,12.4423649 L9.77647918,12.4423649 C9.2856943,12.4423649 8.88792289,12.0445935 8.88792289,11.5539822 C8.88792289,11.0631973 9.2856943,10.6654259 9.77647918,10.6654259 L20.4382869,10.6654259 Z" id="Fill-4" fill="#2B1106"></path>
            </g>
        </g>
    </g>
</svg>