<?xml version="1.0" encoding="UTF-8"?>
<svg width="12px" height="12px" viewBox="0 0 12 12" version="1.1" xmlns="http://www.w3.org/2000/svg" xmlns:xlink="http://www.w3.org/1999/xlink">
    <title>iconfontxiaogantanhao</title>
    <g id="页面-1" stroke="none" stroke-width="1" fill="none" fill-rule="evenodd">
        <g id="launchpad-swap" transform="translate(-1388.000000, -490.000000)" fill="#00C48C">
            <path d="M1394.14178,493.1422 L1393.86462,493.1422 C1393.69385,493.1422 1393.55445,493.281607 1393.55445,493.453178 L1393.55445,496.894287 C1393.55445,497.065921 1393.69299,497.206933 1393.86462,497.206933 L1394.14178,497.206933 C1394.3142,497.206933 1394.45361,497.065921 1394.45361,496.894287 L1394.45361,493.453178 C1394.45361,493.281607 1394.3142,493.1422 1394.14178,493.1422 Z M1394.00077,490 C1390.68615,490 1388,492.68615 1388,496.000771 C1388,499.312198 1390.68615,502 1394.00077,502 C1397.31298,502 1400.00161,499.312198 1400.00161,496.000771 C1400.00161,492.68615 1397.31298,490 1394.00077,490 Z M1393.94599,501.252296 C1391.0624,501.252296 1388.72596,498.914985 1388.72596,496.031378 C1388.72596,493.147047 1391.0624,490.811342 1393.94599,490.811342 C1396.83199,490.811342 1399.16771,493.147047 1399.16771,496.031378 C1399.16771,498.914985 1396.83199,501.252296 1393.94599,501.252296 Z M1394.12408,498.294634 L1393.86462,498.294634 C1393.69385,498.294634 1393.55445,498.433978 1393.55445,498.608791 L1393.55445,498.935143 C1393.55445,499.107565 1393.69299,499.248577 1393.86462,499.248577 L1394.12408,499.248577 C1394.2965,499.248577 1394.43584,499.107565 1394.43584,498.935143 L1394.43584,498.608791 C1394.43584,498.433175 1394.2973,498.294634 1394.12408,498.294634 Z" id="iconfontxiaogantanhao"></path>
        </g>
    </g>
</svg>