<?xml version="1.0" encoding="UTF-8"?>
<svg width="46px" height="46px" viewBox="0 0 46 46" version="1.1" xmlns="http://www.w3.org/2000/svg" xmlns:xlink="http://www.w3.org/1999/xlink">
    <title>编组 14</title>
    <g id="页面-1" stroke="none" stroke-width="1" fill="none" fill-rule="evenodd">
        <g id="launchpad-Liquidity-Approve2" transform="translate(-937.000000, -472.000000)">
            <g id="编组-14" transform="translate(937.000000, 472.000000)">
                <path d="M23,0 C35.7025492,-2.33342044e-15 46,10.2974508 46,23 C46,35.7025492 35.7025492,46 23,46 C10.2974508,46 1.55561363e-15,35.7025492 0,23 C-1.55561363e-15,10.2974508 10.2974508,2.33342044e-15 23,0 Z" id="矩形备份-2" fill="#F1F5FD"></path>
                <g id="编组-9" transform="translate(15.000000, 15.000000)" fill="#2B1106">
                    <rect id="矩形" x="0" y="7" width="16" height="2" rx="1"></rect>
                    <path d="M1,7 L15,7 C15.5522847,7 16,7.44771525 16,8 C16,8.55228475 15.5522847,9 15,9 L1,9 C0.44771525,9 6.76353751e-17,8.55228475 0,8 C-6.76353751e-17,7.44771525 0.44771525,7 1,7 Z" id="矩形备份-3" transform="translate(8.000000, 8.000000) rotate(-270.000000) translate(-8.000000, -8.000000) "></path>
                </g>
            </g>
        </g>
    </g>
</svg>