<?xml version="1.0" encoding="UTF-8"?>
<svg width="16px" height="17px" viewBox="0 0 16 17" version="1.1" xmlns="http://www.w3.org/2000/svg" xmlns:xlink="http://www.w3.org/1999/xlink">
    <title>编组</title>
    <g id="页面-1" stroke="none" stroke-width="1" fill="none" fill-rule="evenodd">
        <g id="launchpad-swap" transform="translate(-1046.000000, -305.000000)" fill="#2B1106">
            <g id="编组-7" transform="translate(1031.000000, 292.000000)">
                <g id="编组" transform="translate(15.000000, 13.000000)">
                    <path d="M8.01076057,8.44571096 C7.92649297,8.44571096 7.84349073,8.42060706 7.77075731,8.37311928 L2.72927761,5.01441294 L0.71325514,6.72060432 C0.635508978,6.78645837 0.537395511,6.82271678 0.43694601,6.82271678 C0.306055053,6.82271678 0.183072548,6.76325099 0.0995349655,6.65959138 C0.0254631916,6.56766022 -0.00916365943,6.45164829 0.00207850863,6.3328914 C0.0133206767,6.21403469 0.0690691768,6.106607 0.159079522,6.03029715 L2.4230137,4.11396672 C2.50102753,4.04791303 2.59977368,4.01152985 2.70107486,4.01152985 C2.78558579,4.01152985 2.86783368,4.03645907 2.93891241,4.0836474 L7.9574211,7.42436179 L14.9717796,0.401609896 C15.0540032,0.319311048 15.1624341,0.273969323 15.2770945,0.273969323 C15.3952103,0.273969323 15.5056853,0.32165674 15.5881522,0.408222751 C15.6693294,0.493491145 15.7131787,0.606159217 15.7116384,0.72541519 C15.7100153,0.844845841 15.6631973,0.956665471 15.5797327,1.04021203 L8.31463978,8.31682268 C8.23110219,8.3998452 8.12308491,8.44571096 8.01076057,8.44571096 L8.01076057,8.44571096 Z M1.67032378,16.1056675 L3.72603451,16.1056675 L3.72603451,9.82714879 L1.67032378,9.82714879 L1.67032378,16.1056675 Z M1.2343126,17 C0.993847002,17 0.798204077,16.7993685 0.798204077,16.5527714 L0.798204077,9.37999504 C0.798204077,9.13342289 0.993847002,8.93279138 1.2343126,8.93279138 L4.16214303,8.93279138 C4.40255996,8.93279138 4.59815422,9.13342289 4.59815422,9.37999504 L4.59815422,16.550825 C4.59815422,16.7984951 4.40255996,17 4.16214303,17 L1.2343126,17 Z M7.37029766,16.1056675 L9.42600839,16.1056675 L9.42600839,12.5381946 L7.37029766,12.5381946 L7.37029766,16.1056675 Z M6.93418914,17 C6.69377221,17 6.49817795,16.7993685 6.49817795,16.5527714 L6.49817795,12.0890196 C6.49817795,11.8424724 6.69377221,11.6418908 6.93418914,11.6418908 L9.86201957,11.6418908 C10.1024852,11.6418908 10.2981281,11.8424724 10.2981281,12.0890196 L10.2981281,16.550825 C10.2981281,16.7984951 10.1024852,17 9.86201957,17 L6.93418914,17 Z M13.0721696,16.1056675 L15.1258849,16.1056675 L15.1258849,6.70291181 L13.0721696,6.70291181 L13.0721696,16.1056675 Z M12.636061,17 C12.3956441,17 12.2000499,16.7993685 12.2000499,16.5527714 L12.2000499,6.25578302 C12.2000499,6.00918592 12.3956441,5.80855441 12.636061,5.80855441 L15.5638915,5.80855441 C15.8043571,5.80855441 16,6.00918592 16,6.25578302 L16,16.5527714 C15.9986373,16.7991189 15.8021184,17 15.5619935,17 L12.636061,17 Z" id="Fill-1"></path>
                    <path d="M15.5620008,3.45887237 C15.3436545,3.45887237 15.1579884,3.29088091 15.130102,3.06811505 L14.8660083,0.947659512 L12.8507402,1.21267278 C12.833293,1.2148937 12.8148967,1.2160416 12.7965491,1.2160416 C12.5769375,1.21606655 12.390079,1.047576 12.3619249,0.824111422 C12.3324325,0.579410844 12.5010893,0.355322409 12.7379535,0.32510291 L15.1875782,0.00361835447 C15.2060474,0.0011978001 15.224979,0 15.2437403,0 C15.3407831,0 15.4334702,0.0324653735 15.511776,0.0939025369 C15.6028327,0.166643939 15.6615499,0.272050348 15.6764421,0.390133474 L15.9956759,2.95514752 C16.0249007,3.1974525 15.8584582,3.42154094 15.6240517,3.45580301 C15.60074,3.45740008 15.5788397,3.45887237 15.5620008,3.45887237" id="Fill-3"></path>
                </g>
            </g>
        </g>
    </g>
</svg>