<?xml version="1.0" encoding="UTF-8"?>
<svg width="28px" height="40px" viewBox="0 0 28 40" version="1.1" xmlns="http://www.w3.org/2000/svg" xmlns:xlink="http://www.w3.org/1999/xlink">
    <title>编组</title>
    <defs>
        <polygon id="path-1" points="0 0 12.7613648 0 12.7613648 15.696357 0 15.696357"></polygon>
        <polygon id="path-3" points="0 4.65875614e-15 13.2804342 4.65875614e-15 13.2804342 15.3505751 0 15.3505751"></polygon>
    </defs>
    <g id="页面-1" stroke="none" stroke-width="1" fill="none" fill-rule="evenodd">
        <g id="launchpad-swap" transform="translate(-1201.000000, -210.000000)">
            <g id="编组" transform="translate(1214.777951, 230.000000) scale(-1, 1) translate(-1214.777951, -230.000000) translate(1201.000000, 210.000000)">
                <g transform="translate(14.794537, 24.303643)">
                    <mask id="mask-2" fill="white">
                        <use xlink:href="#path-1"></use>
                    </mask>
                    <g id="Clip-2"></g>
                    <path d="M8.27213972,15.663549 C7.5220628,15.8990954 2.91145016,14.9023258 1.6215998,11.5014089 C1.23557901,10.4837401 -0.186551085,6.36028404 0.0204740778,4.45296433 C0.461488487,0.390812651 8.05872185,-1.62510102 10.842907,1.59206673 C11.447509,2.29067421 12.5795088,5.86017812 12.7548164,8.67304851 C12.9437289,11.7043362 9.01000493,15.4318546 8.27213972,15.663549" id="Fill-1" fill="#C9A185" mask="url(#mask-2)"></path>
                </g>
                <path d="M27.4017196,28.3912316 C27.4082629,26.5943909 25.0045253,20.1865278 19.1911014,21.6088218 C13.432999,23.0176747 13.8569662,28.9357586 14.1849609,30.861273 C14.4969739,32.6930277 27.394494,30.3532991 27.4017196,28.3912316" id="Fill-3" fill="#875E3B"></path>
                <path d="M22.0231581,23.2479841 C22.2587046,23.4000156 22.494251,23.5521291 22.7297974,23.7042426 C22.9564105,23.8506191 23.3012066,23.7904621 23.441846,23.550408 C23.5829771,23.3094524 23.5299505,22.9945708 23.2880114,22.8383595 C23.0524649,22.686246 22.8170004,22.5342144 22.581454,22.3821829 C22.354759,22.2357245 22.0099629,22.2959634 21.8694055,22.5359355 C21.7281923,22.7768912 21.781219,23.0918546 22.0231581,23.2479841" id="Fill-5" fill="#C9A185"></path>
                <path d="M23.8281044,24.6501493 C23.9632527,24.7973453 24.098319,24.9444594 24.2334673,25.0916554 C24.4157412,25.290157 24.7644712,25.3203174 24.9614156,25.1233731 C25.1584419,24.9263467 25.1882745,24.6079411 24.9932152,24.3955886 C24.8580669,24.2483926 24.7229187,24.1012785 24.5878524,23.9540825 C24.4055784,23.7555809 24.0568484,23.7254205 23.859986,23.9222009 C23.6627958,24.1193092 23.6330451,24.4377149 23.8281044,24.6501493" id="Fill-7" fill="#C9A185"></path>
                <path d="M20.082539,23.47681 C20.1706435,23.5341804 20.2587481,23.5915508 20.3468526,23.6490031 C20.5728919,23.7962811 20.9186715,23.734567 21.0589011,23.4951685 C21.200524,23.2533113 21.14635,22.9403148 20.9050665,22.78312 C20.816962,22.7257496 20.7289394,22.6683792 20.6408349,22.6109268 C20.4147136,22.4636488 20.068934,22.5254449 19.9287863,22.7647614 C19.7870815,23.0065367 19.8412555,23.3196151 20.082539,23.47681" id="Fill-9" fill="#C9A185"></path>
                <path d="M22.186549,25.1245287 C22.3401377,25.2423838 22.4936445,25.360239 22.6471513,25.4780122 C22.8617166,25.6427472 23.2264283,25.5509546 23.3591998,25.3243415 C23.5098381,25.0671583 23.4342731,24.7879284 23.2054472,24.612211 C23.0518584,24.4944378 22.8983517,24.3765826 22.7448449,24.2587275 C22.5302796,24.0940744 22.1655678,24.1858671 22.0327963,24.4124801 C21.8821581,24.6695814 21.9577231,24.9488933 22.186549,25.1245287" id="Fill-11" fill="#C9A185"></path>
                <path d="M24.3790405,26.8425179 C24.444033,26.9038222 24.5090254,26.9651266 24.5740179,27.026431 C24.7697329,27.2109178 25.0952689,27.2648459 25.3019662,27.0583125 C25.4874365,26.8727603 25.5434136,26.5280462 25.3337658,26.3303642 C25.2687734,26.2690598 25.2037809,26.2077555 25.1387885,26.146533 C24.9430735,25.9619643 24.6175374,25.9080361 24.4108401,26.1146515 C24.2253698,26.3002037 24.1693927,26.6448359 24.3790405,26.8425179" id="Fill-13" fill="#C9A185"></path>
                <path d="M4.82052272,0.937842866 C9.01962572,8.89093658 16.3378751,14.8986003 24.9615467,17.4565822 C25.7659616,17.6951611 26.1555885,16.4479287 25.3467479,16.2079566 C17.0535297,13.748078 10.02287,7.99292601 5.98325667,0.342010352 C5.59018752,-0.402493439 4.42761748,0.193666906 4.82052272,0.937842866" id="Fill-15" fill="#875E3B"></path>
                <path d="M11.9379183,9.99528387 C13.1403198,14.3969044 15.414892,18.3450529 17.6861858,22.2657456 C18.1069567,22.9922187 19.27092,22.3983531 18.8489198,21.6699131 C16.6367174,17.8511758 14.3850115,14.0020321 13.213508,9.71384112 C12.9924681,8.90459074 11.7158129,9.18218148 11.9379183,9.99528387" id="Fill-17" fill="#875E3B"></path>
                <path d="M12.0324401,10.1732468 C9.76499827,14.1328694 8.57562805,18.5313755 7.40346896,22.9082448 C7.18628104,23.7190524 8.42859593,24.1240054 8.64643951,23.3107391 C9.78811034,19.0477091 10.9234704,14.7353405 13.1324764,10.8777553 C13.5493953,10.149725 12.451244,9.44177432 12.0324401,10.1732468" id="Fill-19" fill="#875E3B"></path>
                <g transform="translate(0.000000, 18.278828)">
                    <mask id="mask-4" fill="white">
                        <use xlink:href="#path-3"></use>
                    </mask>
                    <g id="Clip-22"></g>
                    <path d="M3.39142622,15.3220783 C2.63528443,15.1067754 -0.669414141,11.7407724 0.121313795,8.19044661 C0.357925689,7.12802889 1.43517776,2.90138809 2.65618365,1.42147781 C5.25645575,-1.73028768 12.7119842,0.759259559 13.270608,4.97713088 C13.3919054,5.89300823 12.3766133,9.49742613 10.9775953,11.9441095 C9.47006527,14.5806889 4.13527435,15.533857 3.39142622,15.3220783" id="Fill-21" fill="#C9A185" mask="url(#mask-4)"></path>
                </g>
                <path d="M13.3736124,26.3104321 C14.3663661,24.812737 15.8784857,18.1379376 10.2397137,16.1323506 C4.65454197,14.1457778 1.75725515,19.3235377 0.973329703,21.1126744 C0.227678504,22.8146901 12.2895578,27.9458981 13.3736124,26.3104321" id="Fill-23" fill="#875E3B"></path>
                <path d="M11.7054043,19.0578964 C11.8186698,19.314424 11.9319354,19.5708697 12.045119,19.8273973 C12.1541227,20.074172 12.475233,20.2134181 12.7246303,20.0900717 C12.9749291,19.9663156 13.1036027,19.6740544 12.9873048,19.4106424 C12.8740392,19.1541148 12.7607737,18.8976691 12.6475901,18.6411415 C12.5385863,18.3942849 12.217476,18.2551207 11.9681607,18.378467 C11.7177799,18.5023051 11.5891063,18.7944844 11.7054043,19.0578964" id="Fill-25" fill="#C9A185"></path>
                <path d="M12.4431466,21.2211291 L12.539283,21.8127817 C12.5825566,22.0787345 12.8573608,22.2955946 13.1300341,22.2392896 C13.4029533,22.1828208 13.6027661,21.9331776 13.556542,21.6485385 C13.5244965,21.4514302 13.4924511,21.254158 13.4604056,21.0569678 C13.4171319,20.7909331 13.1423278,20.574073 12.8697364,20.6304599 C12.5967353,20.6868468 12.3969224,20.9364899 12.4431466,21.2211291" id="Fill-27" fill="#C9A185"></path>
                <path d="M9.95824634,18.1828504 C10.0002906,18.2792327 10.0424169,18.3756149 10.0844612,18.4719152 C10.1923995,18.7192636 10.5152309,18.8575262 10.7638906,18.7345897 C11.0150909,18.6104237 11.1418795,18.3190641 11.026647,18.0551603 C10.9845207,17.95886 10.9424764,17.8624777 10.9004321,17.7660955 C10.7924119,17.5187471 10.4695805,17.3804845 10.2210027,17.503421 C9.96972042,17.6276689 9.8430138,17.9189466 9.95824634,18.1828504" id="Fill-29" fill="#C9A185"></path>
                <path d="M10.8109179,20.7156139 C10.8744351,20.8984616 10.9380343,21.0813092 11.0015515,21.2640749 C11.0903117,21.519619 11.4455164,21.6432112 11.6809809,21.5267493 C11.9480811,21.3947155 12.0383985,21.1199113 11.9437373,20.84732 C11.8801381,20.6645543 11.8166209,20.4817066 11.7531037,20.298941 C11.6643435,20.0434788 11.3091388,19.9197227 11.0736743,20.0361846 C10.8064922,20.1682184 10.7161748,20.4431865 10.8109179,20.7156139" id="Fill-31" fill="#C9A185"></path>
                <path d="M11.6989214,23.3557093 C11.7195748,23.4426664 11.7401462,23.5295416 11.7607995,23.6164987 C11.8229235,23.8781077 12.0653543,24.1020981 12.3515506,24.0430066 C12.6084881,23.989898 12.8446082,23.7327147 12.7780585,23.4523374 C12.7574052,23.3653803 12.7368338,23.2785051 12.7161805,23.191548 C12.6540565,22.929857 12.4116256,22.7058666 12.1254293,22.7649581 C11.8684919,22.8180667 11.6323718,23.075332 11.6989214,23.3557093" id="Fill-33" fill="#C9A185"></path>
            </g>
        </g>
    </g>
</svg>