<?xml version="1.0" encoding="UTF-8"?>
<svg width="17px" height="10px" viewBox="0 0 17 10" version="1.1" xmlns="http://www.w3.org/2000/svg" xmlns:xlink="http://www.w3.org/1999/xlink">
    <title>65qiehuan</title>
    <defs>
        <polygon id="path-1" points="0 0 16.0613007 0 16.0613007 10 0 10"></polygon>
    </defs>
    <g id="页面-1" stroke="none" stroke-width="1" fill="none" fill-rule="evenodd" opacity="0.400000006">
        <g id="launchpad-swap" transform="translate(-427.000000, -245.000000)">
            <g id="65qiehuan" transform="translate(427.000000, 245.000000)">
                <mask id="mask-2" fill="white">
                    <use xlink:href="#path-1"></use>
                </mask>
                <g id="Clip-2"></g>
                <path d="M13.808203,8.98142506 L3.92640506,8.98142506 C3.48263005,8.98142506 3.06245453,8.80681611 2.74415697,8.49038287 C2.42772372,8.17388141 2.2531375,7.75370589 2.2531375,7.30813478 L2.2531375,4.84905875 L2.61867952,5.21460076 C2.81688796,5.41283194 3.14071026,5.41283194 3.3389187,5.21460076 C3.53714987,5.01639232 3.53714987,4.69257003 3.3389187,4.49436159 L2.12941069,3.28483085 C1.91662877,3.07204893 1.5710713,3.07204893 1.3581757,3.28483085 L0.148667697,4.49436159 C-0.0495634776,4.69257003 -0.0495634776,5.01639232 0.148667697,5.21460076 C0.346989814,5.41283194 0.670698436,5.41283194 0.868929611,5.21460076 L1.23456257,4.84905875 L1.23456257,7.30813478 C1.23456257,8.79412968 2.44043288,10 3.92640506,10 L13.808203,10 C14.0900782,10 14.3174336,9.7726446 14.3174336,9.49074664 C14.3174336,9.21064478 14.0900782,8.98142506 13.808203,8.98142506 Z M15.9125591,4.73076573 C15.7143507,4.53253456 15.3906193,4.53253456 15.1923199,4.73076573 L14.8267779,5.09639869 L14.8267779,2.69184249 C14.8267779,1.20587032 13.6209076,0 12.1348218,0 L2.2531375,0 C1.9711486,0 1.7437932,0.227355402 1.7437932,0.509230629 C1.7437932,0.791219534 1.9711486,1.01857494 2.2531375,1.01857494 L12.1348218,1.01857494 C12.5787104,1.01857494 12.9987723,1.19316115 13.3170698,1.5095944 C13.633594,1.82611859 13.808203,2.24629411 13.808203,2.69184249 L13.808203,5.09639869 L13.442661,4.73076573 C13.2443389,4.53253456 12.9206302,4.53253456 12.7223081,4.73076573 C12.5240769,4.92908785 12.5240769,5.25279647 12.7223081,5.45111859 L13.9319071,6.66062659 C14.1447117,6.87340851 14.4902692,6.87340851 14.7030511,6.66062659 L15.9125591,5.45111859 C16.1108812,5.25279647 16.1108812,4.93086122 15.9125591,4.73076573 Z" id="Fill-1" fill="#2B1106" mask="url(#mask-2)"></path>
            </g>
        </g>
    </g>
</svg>