<?xml version="1.0" encoding="UTF-8"?>
<svg width="18px" height="16px" viewBox="0 0 18 16" version="1.1" xmlns="http://www.w3.org/2000/svg" xmlns:xlink="http://www.w3.org/1999/xlink">
    <title>xing-满</title>
    <defs>
        <linearGradient x1="1.16399945e-13%" y1="30.453773%" x2="94.9200706%" y2="93.9185017%" id="linearGradient-1">
            <stop stop-color="#F2F6A1" offset="0%"></stop>
            <stop stop-color="#DC849E" offset="100%"></stop>
        </linearGradient>
    </defs>
    <g id="页面-1" stroke="none" stroke-width="1" fill="none" fill-rule="evenodd">
        <g id="launchpad-swap-选择-弹窗" transform="translate(-1122.000000, -540.000000)" fill="url(#linearGradient-1)">
            <path d="M1138.87454,547.08959 C1137.66894,548.467461 1135.52165,550.752461 1135.52165,550.752461 C1135.52165,550.752461 1135.86611,553.255664 1136.07286,554.966562 C1136.16472,555.839198 1135.48724,556.218163 1134.72941,555.873691 C1133.28257,555.196191 1131.07798,554.139824 1130.58421,553.898671 C1130.079,554.12832 1127.86289,555.173241 1126.4046,555.850644 C1125.63525,556.183671 1124.95783,555.81623 1125.03818,554.943593 C1125.23341,553.232695 1125.58931,550.741015 1125.58931,550.741015 C1125.58931,550.741015 1123.41914,548.467461 1122.20203,547.08959 C1121.7657,546.584297 1122.05279,545.872383 1122.90248,545.746133 C1124.64777,545.436075 1127.34615,544.942286 1127.34615,544.942286 C1127.34615,544.942286 1128.82738,542.393243 1129.75749,540.831583 C1130.27423,539.878595 1130.63013,539.993419 1130.68759,540.016368 C1130.84833,540.062306 1131.10095,540.257462 1131.42246,540.831583 C1132.34111,542.393243 1133.79939,544.942364 1133.79939,544.942364 C1133.79939,544.942364 1136.46327,545.436133 1138.18568,545.746133 C1139.02384,545.872461 1139.29941,546.595801 1138.8746,547.08959 L1138.87454,547.08959 Z" id="xing-满"></path>
        </g>
    </g>
</svg>