<?xml version="1.0" encoding="UTF-8"?>
<svg width="16px" height="16px" viewBox="0 0 16 16" version="1.1" xmlns="http://www.w3.org/2000/svg" xmlns:xlink="http://www.w3.org/1999/xlink">
    <title>yigouxuan (1)</title>
    <defs>
        <polygon id="path-1" points="0 0 15.9988281 0 15.9988281 16 0 16"></polygon>
    </defs>
    <g id="页面-1" stroke="none" stroke-width="1" fill="none" fill-rule="evenodd">
        <g id="launchpad-swap" transform="translate(-1250.000000, -590.000000)">
            <g id="yigouxuan-(1)" transform="translate(1250.000000, 590.000000)">
                <mask id="mask-2" fill="white">
                    <use xlink:href="#path-1"></use>
                </mask>
                <g id="Clip-2"></g>
                <path d="M3.07576547,0 L12.9218908,0 C14.6212678,0 15.9988281,1.37756028 15.9988281,3.07693735 L15.9988281,12.9230627 C15.9988281,14.6224397 14.6212678,16 12.9218908,16 L3.07576547,16 C2.25972932,16 1.47711118,15.6758394 0.90002063,15.098827 C0.323008207,14.5218146 -0.00117187643,13.7390988 -0.00117187643,12.9230627 L-0.00117187643,3.07693735 C-0.00117187643,2.2609012 0.323008207,1.47826352 0.90002063,0.901192506 C1.47711118,0.324180083 2.25972932,0 3.07576547,0 Z M3.07576547,1.23078275 C2.58611644,1.23078275 2.11652602,1.42525565 1.77029513,1.77146701 C1.42408377,2.1176979 1.22961088,2.58728831 1.22961088,3.07693735 L1.22961088,12.9230627 C1.22961088,13.4127117 1.42408377,13.8823021 1.77029513,14.228533 C2.11652602,14.5747639 2.58611644,14.7692368 3.07576547,14.7692368 L12.9218908,14.7692368 C13.4115398,14.7692368 13.8811302,14.5747639 14.2273611,14.228533 C14.573592,13.8823021 14.7680649,13.4127117 14.7680649,12.9230627 L14.7680649,3.07693735 C14.7680649,2.58728831 14.573592,2.1176979 14.2273611,1.77146701 C13.8811302,1.42525565 13.4115398,1.23078275 12.9218908,1.23078275 L3.07576547,1.23078275 Z M12.2148782,5.26520174 C12.3245072,5.36957687 12.3881401,5.51322939 12.3918706,5.66451863 C12.3955425,5.81582741 12.3389213,5.96244868 12.2345657,6.07201913 L7.55514594,10.9642907 C7.55331,10.9668103 7.54895453,10.9680212 7.54530218,10.9716931 L7.53911077,10.9803064 C7.50532166,11.0135877 7.46526302,11.0307361 7.42651297,11.0541737 C7.40194263,11.0676698 7.38286057,11.0880409 7.35762617,11.0984901 C7.22028225,11.1560097 7.06571175,11.1564785 6.92807486,11.0997206 C6.90840687,11.0917128 6.89237169,11.0744666 6.87268417,11.0640174 C6.82957865,11.0412635 6.78534031,11.0196814 6.74711761,10.9839783 C6.7440512,10.9815368 6.74284026,10.9772595 6.73916838,10.973529 C6.73604338,10.9716931 6.7329965,10.9704626 6.73055509,10.9680212 L4.37359909,8.52120181 C4.2682474,8.41249074 4.21057155,8.26622103 4.21330592,8.11479506 C4.21613796,7.96334956 4.27906772,7.81930642 4.38840379,7.71446254 C4.49705627,7.6089546 4.64338457,7.55120062 4.79483007,7.55395453 C4.94627557,7.55668891 5.09039684,7.61979446 5.19514306,7.72926725 L7.13979387,9.74649627 L11.4068499,5.28365879 C11.511518,5.17402975 11.655483,5.11039686 11.8070066,5.10697889 C11.9586083,5.10346326 12.1053273,5.16045552 12.2148782,5.26520174 Z" id="Fill-1" fill="#00C48C" mask="url(#mask-2)"></path>
            </g>
        </g>
    </g>
</svg>